<svg id="boton" xmlns="http://www.w3.org/2000/svg" width="25.8" height="31.667" viewBox="0 0 25.8 31.667">
  <g id="Grupo_34" data-name="Grupo 34" transform="translate(-887.714 -411.733)">
    <g id="Grupo_33" data-name="Grupo 33">
      <path id="Trazado_81" data-name="Trazado 81" d="M887.714,443.3v-6.6h2.33a2.441,2.441,0,0,1,1.62.455,1.61,1.61,0,0,1,.529,1.295,1.554,1.554,0,0,1-.309.975,1.448,1.448,0,0,1-.9.525v.01a1.645,1.645,0,0,1,1.016.525,1.512,1.512,0,0,1,.375,1.035,1.568,1.568,0,0,1-.6,1.31,2.747,2.747,0,0,1-1.729.47Zm.5-3.56h1.84q1.609,0,1.61-1.29t-1.61-1.29h-1.84Zm0,3.1h1.93a2.013,2.013,0,0,0,1.275-.34,1.348,1.348,0,0,0,0-1.965,2.039,2.039,0,0,0-1.275-.335h-1.93Z" fill="#36c"/>
      <path id="Trazado_82" data-name="Trazado 82" d="M895.924,438.2a2.423,2.423,0,0,1,1.235.31,2.158,2.158,0,0,1,.84.9,3.343,3.343,0,0,1,0,2.79,2.152,2.152,0,0,1-.84.895,2.613,2.613,0,0,1-2.469,0,2.146,2.146,0,0,1-.84-.895,3.333,3.333,0,0,1,0-2.79,2.152,2.152,0,0,1,.84-.9A2.419,2.419,0,0,1,895.924,438.2Zm0,.43a1.84,1.84,0,0,0-.989.26,1.75,1.75,0,0,0-.656.745,2.993,2.993,0,0,0,0,2.325,1.735,1.735,0,0,0,.656.75,2.013,2.013,0,0,0,1.979,0,1.739,1.739,0,0,0,.655-.75,2.992,2.992,0,0,0,0-2.325,1.755,1.755,0,0,0-.655-.745A1.846,1.846,0,0,0,895.924,438.631Z" fill="#36c"/>
      <path id="Trazado_83" data-name="Trazado 83" d="M902.344,438.3v.43h-3.37v-.43Zm-1.87-1.39v5.07a1.021,1.021,0,0,0,.225.715.842.842,0,0,0,.655.245,1.208,1.208,0,0,0,.495-.1,1.192,1.192,0,0,0,.385-.275l.19.41a1.4,1.4,0,0,1-.48.305,1.746,1.746,0,0,1-.65.115,1.563,1.563,0,0,1-.69-.145,1.031,1.031,0,0,1-.465-.445,1.564,1.564,0,0,1-.165-.76v-5Z" fill="#36c"/>
      <path id="Trazado_84" data-name="Trazado 84" d="M905.453,438.2a2.429,2.429,0,0,1,1.236.31,2.163,2.163,0,0,1,.839.9,3.343,3.343,0,0,1,0,2.79,2.157,2.157,0,0,1-.839.895,2.615,2.615,0,0,1-2.47,0,2.146,2.146,0,0,1-.84-.895,3.332,3.332,0,0,1,0-2.79,2.152,2.152,0,0,1,.84-.9A2.419,2.419,0,0,1,905.453,438.2Zm0,.43a1.84,1.84,0,0,0-.989.26,1.748,1.748,0,0,0-.655.745,2.981,2.981,0,0,0,0,2.325,1.733,1.733,0,0,0,.655.75,2.013,2.013,0,0,0,1.979,0,1.742,1.742,0,0,0,.656-.75,3,3,0,0,0,0-2.325,1.757,1.757,0,0,0-.656-.745A1.845,1.845,0,0,0,905.453,438.631Zm.511-2.72h.55l-.941,1.58h-.41Z" fill="#36c"/>
      <path id="Trazado_85" data-name="Trazado 85" d="M909.264,443.3v-5h.45l.04,1.25-.08-.07a1.867,1.867,0,0,1,.42-.7,1.784,1.784,0,0,1,.67-.435,2.408,2.408,0,0,1,.841-.145,2.223,2.223,0,0,1,.989.21,1.574,1.574,0,0,1,.675.62,1.976,1.976,0,0,1,.245,1.03v3.24h-.5v-3.08a1.579,1.579,0,0,0-.4-1.2,1.482,1.482,0,0,0-1.055-.38,1.84,1.84,0,0,0-.875.215,1.733,1.733,0,0,0-.66.625,1.86,1.86,0,0,0-.255,1v2.82Z" fill="#36c"/>
    </g>
  </g>
  <g id="Grupo_36" data-name="Grupo 36" transform="translate(-887.714 -411.733)">
    <path id="Trazado_86" data-name="Trazado 86" d="M898.424,421.3a4.794,4.794,0,0,1-.66-9.544.565.565,0,0,1,.108,0,4.514,4.514,0,0,0,.915-.016.479.479,0,0,1,.107,0,4.793,4.793,0,0,1-.47,9.564Zm-.574-8.546a3.816,3.816,0,1,0,1-.017A5.613,5.613,0,0,1,897.85,412.754Z" fill="#36c"/>
    <path id="Trazado_87" data-name="Trazado 87" d="M897.9,419.488h-.029a2.4,2.4,0,0,1-2.006-2.3,2.824,2.824,0,0,1,2.165-3.058,2.94,2.94,0,0,1,2.543.575,2.591,2.591,0,0,1,.916,2.069.481.481,0,0,1-.515.483.5.5,0,0,1-.485-.516,1.6,1.6,0,0,0-.564-1.275,1.926,1.926,0,0,0-1.658-.363,1.847,1.847,0,0,0-1.406,1.993c.052.562.452,1.361,1.069,1.4a.5.5,0,0,1-.03,1Z" fill="#36c"/>
    <g id="Grupo_35" data-name="Grupo 35">
      <path id="Trazado_88" data-name="Trazado 88" d="M899.465,425.067l-.073-6.075a.985.985,0,0,1,.986-.985.909.909,0,0,1,.909.909V421.2a.759.759,0,0,1,.76-.759h.227a.773.773,0,0,1,.773.773v3.221l.068-2.3c0-1.219.928-1.08.949-1.083.811,0,.947.531.947,1.072v.628a.888.888,0,0,1,.887-.888,1.008,1.008,0,0,1,1.008,1.008v4.814a3.52,3.52,0,0,1-3.52,3.52,4.431,4.431,0,0,1-3.743-2.058l-2.678-4.219c-.436-.661-.8-1.776.226-2.122a.679.679,0,0,1,.362-.03c.569.133.9.768,1.193,1.211l.719,1.078" fill="#f2f2f2"/>
      <path id="Trazado_89" data-name="Trazado 89" d="M903.386,431.707a4.91,4.91,0,0,1-4.165-2.289l-2.678-4.22a2.54,2.54,0,0,1-.437-2,1.381,1.381,0,0,1,.926-.864,1.15,1.15,0,0,1,.634-.042,2.226,2.226,0,0,1,1.278,1.083L898.892,419a1.489,1.489,0,0,1,1.486-1.492,1.411,1.411,0,0,1,1.409,1.41v1.054a1.31,1.31,0,0,1,.26-.027h.226a1.275,1.275,0,0,1,1.147.719,1.474,1.474,0,0,1,.667-.109h0a1.3,1.3,0,0,1,1.329.9,1.4,1.4,0,0,1,.481-.086,1.51,1.51,0,0,1,1.508,1.508v4.814A4.024,4.024,0,0,1,903.386,431.707Zm-5.947-8.442c-.332.1-.372.215-.387.259a1.565,1.565,0,0,0,.33,1.13l2.682,4.227a3.917,3.917,0,0,0,3.322,1.826,3.024,3.024,0,0,0,3.02-3.02v-4.814a.508.508,0,0,0-.508-.508.388.388,0,0,0-.387.388v1.685a.5.5,0,0,1-1,0v-2.313c0-.522-.122-.572-.447-.572a.409.409,0,0,0-.311.069.73.73,0,0,0-.138.514l-.067,2.316a.5.5,0,0,1-1-.014v-3.221a.275.275,0,0,0-.275-.274h-.226a.26.26,0,0,0-.26.26v3.235a.5.5,0,0,1-1,0v-5.522a.41.41,0,0,0-.409-.41.486.486,0,0,0-.486.486l.073,6.07a.5.5,0,0,1-.916.283l-.847-1.276C897.981,423.724,897.732,423.334,897.439,423.265Z" fill="#36c"/>
    </g>
  </g>
</svg>
