<svg id="Ojo_verde" data-name="Ojo verde" xmlns="http://www.w3.org/2000/svg" width="21.346" height="12.117" viewBox="0 0 21.346 12.117">
  <g id="Grupo_2" data-name="Grupo 2" transform="translate(159.286 -887.711)">
    <path id="Trazado_1" data-name="Trazado 1" d="M-148.857,899.829a14.26,14.26,0,0,1-10.274-5.721.476.476,0,0,1-.008-.7c2.605-3.2,5.8-5.375,10.031-5.677a10.466,10.466,0,0,1,5.06.976,15.559,15.559,0,0,1,5.918,4.624.556.556,0,0,1,.008.829,14.476,14.476,0,0,1-8.775,5.481C-147.58,899.769-148.283,899.778-148.857,899.829Zm-8.886-6.108c5.466,6.431,13,6.256,18.257.005a14.146,14.146,0,0,0-6.008-4.2c1.424,2.339,1.292,4.322-.32,5.841a4.143,4.143,0,0,1-5.166.346,3.956,3.956,0,0,1-1.6-4.21,4.586,4.586,0,0,0,.445.231,1.383,1.383,0,0,0,1.645-.526,1.293,1.293,0,0,0-.137-1.661.657.657,0,0,0-.522-.172A13.685,13.685,0,0,0-157.743,893.721Z" fill="#94c122"/>
  </g>
</svg>
