<svg xmlns="http://www.w3.org/2000/svg" width="144.434" height="169.585" viewBox="0 0 144.434 169.585">
  <g id="plantilla_3" data-name="plantilla 3" transform="translate(0.125 0.125)">
    <g id="Grupo_271" data-name="Grupo 271" transform="translate(-494.404 -492.967)" opacity="0.3">
      <rect id="Rectángulo_62" data-name="Rectángulo 62" width="28.102" height="28.102" rx="4.353" transform="translate(506.797 587.403)" fill="#9dbeff" stroke="#fff" stroke-linecap="round" stroke-miterlimit="10" stroke-width="1.356"/>
      <path id="Trazado_1584" data-name="Trazado 1584" d="M531.881,613.878l-4.2-6.715a2.186,2.186,0,0,0-3.706,0l-.448.717a.787.787,0,0,1-1.381-.087l-2.77-6a2.113,2.113,0,0,0-3.837,0L509.4,615.083a.257.257,0,0,0,.234.365h20.882C531.614,615.448,532.34,614.611,531.881,613.878Z" fill="#9dbeff" stroke="#fff" stroke-linecap="round" stroke-miterlimit="10" stroke-width="1.356"/>
      <circle id="Elipse_2" data-name="Elipse 2" cx="4.163" cy="4.163" r="4.163" transform="translate(522.346 591.219)" fill="#9dbeff" stroke="#fff" stroke-linecap="round" stroke-miterlimit="10" stroke-width="1.356"/>
    </g>
    <rect id="Rectángulo_63" data-name="Rectángulo 63" width="144.184" height="169.335" rx="9.273" fill="#fff" stroke="#000" stroke-miterlimit="10" stroke-width="0.25"/>
    <rect id="Rectángulo_64" data-name="Rectángulo 64" width="38.177" height="151.282" rx="4.492" transform="translate(8.293 9.023)" fill="#9dbeff"/>
    <rect id="Rectángulo_65" data-name="Rectángulo 65" width="82.261" height="94.832" rx="4.556" transform="translate(53.741 35.117)" fill="#9dbeff"/>
    <rect id="Rectángulo_66" data-name="Rectángulo 66" width="82.261" height="18.129" rx="3.349" transform="translate(53.741 8.483)" fill="#9dbeff"/>
    <rect id="Rectángulo_67" data-name="Rectángulo 67" width="83.867" height="22.444" rx="3.291" transform="translate(51.509 137.861)" fill="#9dbeff"/>
    <text id="Encabezado_centrado" data-name="Encabezado 
centrado" transform="translate(94.577 16.371)" fill="#fff" font-size="7.567" font-family="WorkSans-SemiBold, Work Sans" font-weight="600"><tspan x="-23.543" y="0">Encabezado </tspan><tspan x="-16.643" y="7">centrado</tspan></text>
    <text id="Pie_de_página_centrado" data-name="Pie de página centrado" transform="translate(93.704 151.07)" fill="#fff" font-size="6.614" font-family="WorkSans-Medium, Work Sans" font-weight="500"><tspan x="-37.096" y="0">Pie de página centrado</tspan></text>
    <text id="Cuerpo" transform="translate(81.22 50.693)" fill="#fff" font-size="10" font-family="WorkSans-SemiBold, Work Sans" font-weight="600"><tspan x="-17.64" y="0">Cuerpo</tspan></text>
    <text id="Menú_de_opciones" data-name="Menú 
de opciones" transform="translate(12.821 18.504)" fill="#fff" font-size="4.915" font-family="WorkSans-Medium, Work Sans" font-weight="500"><tspan x="0" y="0">Menú </tspan><tspan x="0" y="5.897">de opciones</tspan></text>
    <g id="Grupo_272" data-name="Grupo 272" transform="translate(-494.404 -492.967)" opacity="0.5">
      <rect id="Rectángulo_68" data-name="Rectángulo 68" width="18.716" height="2.649" rx="0.808" transform="translate(596.591 574.208)" fill="#fff" opacity="0.5"/>
      <rect id="Rectángulo_69" data-name="Rectángulo 69" width="28.675" height="2.649" rx="1" transform="translate(586.632 569.049)" fill="#fff" opacity="0.5"/>
      <rect id="Rectángulo_70" data-name="Rectángulo 70" width="28.675" height="2.649" rx="1" transform="translate(586.632 579.548)" fill="#fff" opacity="0.5"/>
    </g>
    <g id="Grupo_273" data-name="Grupo 273" transform="translate(-494.404 -492.967)" opacity="0.5">
      <rect id="Rectángulo_71" data-name="Rectángulo 71" width="18.716" height="2.649" rx="0.808" transform="translate(596.591 555.578)" fill="#fff" opacity="0.5"/>
      <rect id="Rectángulo_72" data-name="Rectángulo 72" width="28.675" height="2.649" rx="1" transform="translate(586.632 550.419)" fill="#fff" opacity="0.5"/>
      <rect id="Rectángulo_73" data-name="Rectángulo 73" width="28.675" height="2.649" rx="1" transform="translate(586.632 560.918)" fill="#fff" opacity="0.5"/>
    </g>
    <g id="Grupo_274" data-name="Grupo 274" transform="translate(-494.404 -492.967)" opacity="0.5">
      <rect id="Rectángulo_74" data-name="Rectángulo 74" width="25.167" height="2.649" rx="0.933" transform="translate(555.331 588.361)" fill="#fff" opacity="0.5"/>
      <rect id="Rectángulo_75" data-name="Rectángulo 75" width="27.442" height="2.858" rx="1.007" transform="translate(555.088 593.462)" fill="#fff" opacity="0.5"/>
      <rect id="Rectángulo_76" data-name="Rectángulo 76" width="27.442" height="2.858" rx="1.007" transform="translate(555.088 603.984)" fill="#fff" opacity="0.5"/>
      <rect id="Rectángulo_77" data-name="Rectángulo 77" width="27.442" height="2.858" rx="1.007" transform="translate(555.088 614.368)" fill="#fff" opacity="0.5"/>
      <rect id="Rectángulo_78" data-name="Rectángulo 78" width="25.167" height="2.649" rx="0.933" transform="translate(554.966 598.805)" fill="#fff" opacity="0.5"/>
      <rect id="Rectángulo_79" data-name="Rectángulo 79" width="25.167" height="2.649" rx="0.933" transform="translate(554.845 609.371)" fill="#fff" opacity="0.5"/>
    </g>
    <g id="Grupo_275" data-name="Grupo 275" transform="translate(-494.404 -492.967)" opacity="0.4">
      <rect id="Rectángulo_80" data-name="Rectángulo 80" width="22.393" height="2.649" rx="0.88" transform="translate(507.658 526.376)" fill="#fff" opacity="0.5"/>
      <rect id="Rectángulo_81" data-name="Rectángulo 81" width="24.418" height="2.858" rx="0.95" transform="translate(507.442 531.476)" fill="#fff" opacity="0.5"/>
      <rect id="Rectángulo_82" data-name="Rectángulo 82" width="24.418" height="2.858" rx="0.95" transform="translate(507.442 541.999)" fill="#fff" opacity="0.5"/>
      <rect id="Rectángulo_83" data-name="Rectángulo 83" width="24.418" height="2.858" rx="0.95" transform="translate(507.442 552.383)" fill="#fff" opacity="0.5"/>
      <rect id="Rectángulo_84" data-name="Rectángulo 84" width="22.393" height="2.649" rx="0.88" transform="translate(507.334 536.82)" fill="#fff" opacity="0.5"/>
      <rect id="Rectángulo_85" data-name="Rectángulo 85" width="22.393" height="2.649" rx="0.88" transform="translate(507.225 547.386)" fill="#fff" opacity="0.5"/>
    </g>
    <g id="Grupo_276" data-name="Grupo 276" transform="translate(-494.404 -492.967)" opacity="0.4">
      <rect id="Rectángulo_86" data-name="Rectángulo 86" width="22.393" height="2.649" rx="0.88" transform="translate(507.658 607.463)" fill="#fff" opacity="0.5"/>
      <rect id="Rectángulo_87" data-name="Rectángulo 87" width="24.418" height="2.858" rx="0.95" transform="translate(507.442 612.564)" fill="#fff" opacity="0.5"/>
      <rect id="Rectángulo_88" data-name="Rectángulo 88" width="24.418" height="2.858" rx="0.95" transform="translate(507.442 623.086)" fill="#fff" opacity="0.5"/>
      <rect id="Rectángulo_89" data-name="Rectángulo 89" width="24.418" height="2.858" rx="0.95" transform="translate(507.442 633.47)" fill="#fff" opacity="0.5"/>
      <rect id="Rectángulo_90" data-name="Rectángulo 90" width="22.393" height="2.649" rx="0.88" transform="translate(507.334 617.907)" fill="#fff" opacity="0.5"/>
      <rect id="Rectángulo_91" data-name="Rectángulo 91" width="22.393" height="2.649" rx="0.88" transform="translate(507.225 628.473)" fill="#fff" opacity="0.5"/>
    </g>
    <g id="Grupo_277" data-name="Grupo 277" transform="translate(-494.404 -492.967)" opacity="0.3">
      <rect id="Rectángulo_92" data-name="Rectángulo 92" width="25.247" height="25.247" rx="3.91" transform="translate(590.518 591.979)" fill="#9dbeff" stroke="#fff" stroke-linecap="round" stroke-miterlimit="10" stroke-width="1.356"/>
      <path id="Trazado_1585" data-name="Trazado 1585" d="M613.053,615.763l-3.775-6.032a1.964,1.964,0,0,0-3.329,0l-.4.644a.706.706,0,0,1-1.24-.078l-2.489-5.393a1.9,1.9,0,0,0-3.447,0l-5.511,11.942a.231.231,0,0,0,.209.328h18.761C612.813,617.174,613.465,616.422,613.053,615.763Z" fill="#9dbeff" stroke="#fff" stroke-linecap="round" stroke-miterlimit="10" stroke-width="1.356"/>
      <circle id="Elipse_3" data-name="Elipse 3" cx="3.74" cy="3.74" r="3.74" transform="translate(604.487 595.407)" fill="#9dbeff" stroke="#fff" stroke-linecap="round" stroke-miterlimit="10" stroke-width="1.356"/>
    </g>
    <g id="Grupo_278" data-name="Grupo 278" transform="translate(-494.404 -492.967)" opacity="0.3">
      <path id="Trazado_1586" data-name="Trazado 1586" d="M557.984,556.524c.027-1.567-.046-3.54.941-4.781a3.869,3.869,0,0,1,2.681-1.062,28.186,28.186,0,0,1,3.06-.219c3.747-.106,7.526-.012,11.267.217,0,0,3.215-.292,3.6,2.728a38.164,38.164,0,0,1,0,9.45c-.389,2.241-1.656,2.533-2.63,2.63s-12.667.371-14.761.088c-1.833-.247-3.65-.431-3.914-2.637a39.756,39.756,0,0,1-.257-6.044C557.979,556.774,557.982,556.65,557.984,556.524Z" fill="#9dbeff" stroke="#fff" stroke-linecap="round" stroke-miterlimit="10" stroke-width="1.356"/>
      <path id="Trazado_1587" data-name="Trazado 1587" d="M565.564,560.1v-3.782c0-1.457,1.261-2.445,2.4-1.884l4.875,2.387a1.378,1.378,0,0,1,0,2.365l-5.2,2.546C566.656,562.222,565.564,561.366,565.564,560.1Z" fill="#9dbeff" stroke="#fff" stroke-linecap="round" stroke-miterlimit="10" stroke-width="1.356"/>
    </g>
    <rect id="Rectángulo_93" data-name="Rectángulo 93" width="25.886" height="8.647" rx="4.324" transform="translate(14.438 71.151)" opacity="0.3" stroke="#fff" stroke-linecap="round" stroke-miterlimit="10" stroke-width="1.356" fill="#9dbeff"/>
    <g id="Grupo_279" data-name="Grupo 279" transform="translate(-494.404 -492.967)" opacity="0.3">
      <rect id="Rectángulo_94" data-name="Rectángulo 94" width="16.469" height="16.469" rx="2.551" transform="translate(513.15 581.451)" fill="#9dbeff" stroke="#fff" stroke-linecap="round" stroke-miterlimit="10" stroke-width="1.356"/>
      <path id="Trazado_1588" data-name="Trazado 1588" d="M527.85,596.966l-2.462-3.935a1.281,1.281,0,0,0-2.172,0l-.263.42a.461.461,0,0,1-.809-.051l-1.624-3.518a1.238,1.238,0,0,0-2.248,0l-3.595,7.79a.15.15,0,0,0,.137.214h12.237C527.693,597.886,528.119,597.4,527.85,596.966Z" fill="#9dbeff" stroke="#fff" stroke-linecap="round" stroke-miterlimit="10" stroke-width="1.356"/>
      <circle id="Elipse_4" data-name="Elipse 4" cx="2.44" cy="2.44" r="2.44" transform="translate(522.262 583.687)" fill="#9dbeff" stroke="#fff" stroke-linecap="round" stroke-miterlimit="10" stroke-width="1.356"/>
    </g>
  </g>
</svg>
