<svg xmlns="http://www.w3.org/2000/svg" width="144.434" height="169.585" viewBox="0 0 144.434 169.585">
  <g id="plantilla_2" data-name="plantilla 2" transform="translate(0.125 0.125)">
    <rect id="Rectángulo_47" data-name="Rectángulo 47" width="143.575" height="33.39" rx="4.093" transform="translate(0.304 35.117)" fill="#9dbeff"/>
    <rect id="Rectángulo_48" data-name="Rectángulo 48" width="143.575" height="53.24" rx="4.51" transform="translate(0.304 76.708)" fill="#9dbeff"/>
    <rect id="Rectángulo_49" data-name="Rectángulo 49" width="143.575" height="18.129" rx="4.425" transform="translate(0.304 8.483)" fill="#9dbeff"/>
    <rect id="Rectángulo_50" data-name="Rectángulo 50" width="143.575" height="22.444" rx="4.305" transform="translate(0.304 137.861)" fill="#9dbeff"/>
    <text id="Encabezado_ancho" data-name="Encabezado ancho" transform="translate(72.336 20.912)" fill="#fff" font-size="10" font-family="WorkSans-SemiBold, Work Sans" font-weight="600"><tspan x="-45.99" y="0">Encabezado ancho</tspan></text>
    <text id="Pie_de_página_ancho_" data-name="Pie de página ancho " transform="translate(72.335 152.114)" fill="#fff" font-size="7.667" font-family="WorkSans-Medium, Work Sans" font-weight="500"><tspan x="-38.854" y="0">Pie de página ancho </tspan></text>
    <text id="Cuerpo" transform="translate(72.335 88.436)" fill="#fff" font-size="10" font-family="WorkSans-SemiBold, Work Sans" font-weight="600"><tspan x="-17.64" y="0">Cuerpo</tspan></text>
    <text id="Menú_de_opciones" data-name="Menú de opciones" transform="translate(91.751 46.059)" fill="#fff" font-size="7.667" font-family="WorkSans-Medium, Work Sans" font-weight="500"><tspan x="-34.205" y="0">Menú de opciones</tspan></text>
    <g id="Grupo_267" data-name="Grupo 267" transform="translate(-281.542 -492.967)" opacity="0.4">
      <rect id="Rectángulo_51" data-name="Rectángulo 51" width="28.841" height="2.649" rx="1.003" transform="translate(377.885 549.502)" fill="#fff" opacity="0.5"/>
      <rect id="Rectángulo_52" data-name="Rectángulo 52" width="44.188" height="2.649" rx="1.242" transform="translate(362.538 544.343)" fill="#fff" opacity="0.5"/>
      <rect id="Rectángulo_53" data-name="Rectángulo 53" width="44.188" height="2.649" rx="1.242" transform="translate(362.538 554.842)" fill="#fff" opacity="0.5"/>
    </g>
    <g id="Grupo_268" data-name="Grupo 268" transform="translate(-281.542 -492.967)" opacity="0.5">
      <rect id="Rectángulo_54" data-name="Rectángulo 54" width="50.681" height="2.649" rx="1.324" transform="translate(297.126 588.361)" fill="#fff" opacity="0.5"/>
      <rect id="Rectángulo_55" data-name="Rectángulo 55" width="55.262" height="2.858" rx="1.429" transform="translate(296.636 593.462)" fill="#fff" opacity="0.5"/>
      <rect id="Rectángulo_56" data-name="Rectángulo 56" width="55.262" height="2.858" rx="1.429" transform="translate(296.636 603.984)" fill="#fff" opacity="0.5"/>
      <rect id="Rectángulo_57" data-name="Rectángulo 57" width="55.262" height="2.858" rx="1.429" transform="translate(296.636 614.368)" fill="#fff" opacity="0.5"/>
      <rect id="Rectángulo_58" data-name="Rectángulo 58" width="50.681" height="2.649" rx="1.324" transform="translate(296.391 598.805)" fill="#fff" opacity="0.5"/>
      <rect id="Rectángulo_59" data-name="Rectángulo 59" width="50.681" height="2.649" rx="1.324" transform="translate(296.146 609.371)" fill="#fff" opacity="0.5"/>
    </g>
    <g id="Grupo_269" data-name="Grupo 269" transform="translate(-281.542 -492.967)" opacity="0.3">
      <rect id="Rectángulo_60" data-name="Rectángulo 60" width="28.102" height="28.102" rx="4.353" transform="translate(372.92 589.123)" fill="#9dbeff" stroke="#fff" stroke-linecap="round" stroke-miterlimit="10" stroke-width="1.356"/>
      <path id="Trazado_1581" data-name="Trazado 1581" d="M398,615.6l-4.2-6.714a2.185,2.185,0,0,0-3.705,0l-.449.716a.787.787,0,0,1-1.381-.087l-2.77-6a2.113,2.113,0,0,0-3.837,0L375.525,616.8a.257.257,0,0,0,.234.365h20.882C397.736,617.168,398.462,616.331,398,615.6Z" fill="#9dbeff" stroke="#fff" stroke-linecap="round" stroke-miterlimit="10" stroke-width="1.356"/>
      <circle id="Elipse_1" data-name="Elipse 1" cx="4.163" cy="4.163" r="4.163" transform="translate(388.468 592.939)" fill="#9dbeff" stroke="#fff" stroke-linecap="round" stroke-miterlimit="10" stroke-width="1.356"/>
    </g>
    <g id="Grupo_270" data-name="Grupo 270" transform="translate(-281.542 -492.967)" opacity="0.3">
      <path id="Trazado_1582" data-name="Trazado 1582" d="M305.056,545.132c.026-1.567-.047-3.54.94-4.781a3.874,3.874,0,0,1,2.681-1.062,28.2,28.2,0,0,1,3.06-.219c3.747-.106,7.526-.012,11.267.217,0,0,3.215-.292,3.6,2.728a38.166,38.166,0,0,1,0,9.45c-.389,2.241-1.656,2.533-2.63,2.631s-12.666.37-14.76.088c-1.834-.248-3.651-.432-3.915-2.638a39.614,39.614,0,0,1-.256-6.043C305.051,545.382,305.053,545.259,305.056,545.132Z" fill="#9dbeff" stroke="#fff" stroke-linecap="round" stroke-miterlimit="10" stroke-width="1.356"/>
      <path id="Trazado_1583" data-name="Trazado 1583" d="M312.635,548.713v-3.782c0-1.457,1.261-2.445,2.4-1.884l4.876,2.388a1.377,1.377,0,0,1,0,2.364l-5.2,2.546C313.727,550.83,312.635,549.974,312.635,548.713Z" fill="#9dbeff" stroke="#fff" stroke-linecap="round" stroke-miterlimit="10" stroke-width="1.356"/>
    </g>
    <rect id="Rectángulo_61" data-name="Rectángulo 61" width="144.184" height="169.335" rx="9.273" fill="none" stroke="#000" stroke-miterlimit="10" stroke-width="0.25"/>
  </g>
</svg>
