<svg id="power_bi" data-name="power bi" xmlns="http://www.w3.org/2000/svg" width="38.509" height="37.134" viewBox="0 0 38.509 37.134">
  <g id="Grupo_18" data-name="Grupo 18" transform="translate(-959.243 -302.875)">
    <g id="Grupo_17" data-name="Grupo 17">
      <g id="Grupo_16" data-name="Grupo 16">
        <path id="Trazado_32" data-name="Trazado 32" d="M961.433,333.309a2.78,2.78,0,0,1,1.189.234,1.822,1.822,0,0,1,.776.665,1.907,1.907,0,0,1,.274,1.041,1.883,1.883,0,0,1-.274,1.03,1.822,1.822,0,0,1-.776.665,2.765,2.765,0,0,1-1.189.235h-1.69v2.73h-.5v-6.6Zm-.061,3.4a1.981,1.981,0,0,0,1.321-.384,1.34,1.34,0,0,0,.45-1.075,1.362,1.362,0,0,0-.45-1.1,1.981,1.981,0,0,0-1.321-.385h-1.629v2.939Z" fill="#36c"/>
        <path id="Trazado_33" data-name="Trazado 33" d="M966.9,334.809a2.415,2.415,0,0,1,1.235.31,2.159,2.159,0,0,1,.84.9,3.343,3.343,0,0,1,0,2.79,2.165,2.165,0,0,1-.84.9,2.615,2.615,0,0,1-2.47,0,2.164,2.164,0,0,1-.84-.9,3.342,3.342,0,0,1,0-2.79,2.159,2.159,0,0,1,.84-.9A2.415,2.415,0,0,1,966.9,334.809Zm0,.43a1.837,1.837,0,0,0-.99.26,1.737,1.737,0,0,0-.655.745,2.992,2.992,0,0,0,0,2.325,1.733,1.733,0,0,0,.655.75,2.015,2.015,0,0,0,1.98,0,1.739,1.739,0,0,0,.655-.75,2.993,2.993,0,0,0,0-2.325,1.743,1.743,0,0,0-.655-.745A1.837,1.837,0,0,0,966.9,335.239Z" fill="#36c"/>
        <path id="Trazado_34" data-name="Trazado 34" d="M976.952,334.909h.55l-1.7,5h-.5l-1.58-4.35-1.55,4.35h-.5l-1.7-5h.55l1.41,4.4,1.55-4.4h.51l1.56,4.4Z" fill="#36c"/>
        <path id="Trazado_35" data-name="Trazado 35" d="M979.353,339.694a2.178,2.178,0,0,1-.845-.9,2.944,2.944,0,0,1-.306-1.384,3.017,3.017,0,0,1,.3-1.38,2.173,2.173,0,0,1,.825-.9,2.282,2.282,0,0,1,1.2-.315,2.181,2.181,0,0,1,1.149.3,1.918,1.918,0,0,1,.75.834,2.822,2.822,0,0,1,.261,1.241c0,.06,0,.118-.005.175s-.009.108-.016.155h-4.149v-.45h3.93l-.26.19a2.065,2.065,0,0,0-.41-1.46,1.55,1.55,0,0,0-1.26-.54,1.752,1.752,0,0,0-.95.255,1.7,1.7,0,0,0-.641.75,2.717,2.717,0,0,0-.229,1.155,2.654,2.654,0,0,0,.235,1.154,1.679,1.679,0,0,0,.659.75,1.875,1.875,0,0,0,.986.256,1.936,1.936,0,0,0,.99-.245,1.652,1.652,0,0,0,.649-.7l.4.23a2.047,2.047,0,0,1-.81.845,2.575,2.575,0,0,1-2.45-.01Z" fill="#36c"/>
        <path id="Trazado_36" data-name="Trazado 36" d="M984.112,339.909v-5h.42l.06,1.04a1.742,1.742,0,0,1,.61-.83,1.652,1.652,0,0,1,1.01-.31,1.474,1.474,0,0,1,.36.04.654.654,0,0,1,.27.13l-.12.439a.97.97,0,0,0-.24-.109,1.41,1.41,0,0,0-.39-.04,1.242,1.242,0,0,0-.72.235,1.7,1.7,0,0,0-.55.65,2.085,2.085,0,0,0-.21.955v2.8Z" fill="#36c"/>
        <path id="Trazado_37" data-name="Trazado 37" d="M990.932,339.909v-6.6h2.33a2.436,2.436,0,0,1,1.62.455,1.61,1.61,0,0,1,.529,1.295,1.556,1.556,0,0,1-.309.975,1.449,1.449,0,0,1-.9.525v.01a1.64,1.64,0,0,1,1.016.525,1.508,1.508,0,0,1,.375,1.035,1.569,1.569,0,0,1-.6,1.309,2.752,2.752,0,0,1-1.73.471Zm.5-3.56h1.84q1.609,0,1.61-1.29t-1.61-1.29h-1.84Zm0,3.1h1.93a2.019,2.019,0,0,0,1.275-.34,1.348,1.348,0,0,0,0-1.965,2.033,2.033,0,0,0-1.275-.335h-1.93Z" fill="#36c"/>
        <path id="Trazado_38" data-name="Trazado 38" d="M997.752,333.309v6.6h-.5v-6.6Z" fill="#36c"/>
      </g>
    </g>
  </g>
  <path id="Trazado_39" data-name="Trazado 39" d="M986.307,322.723h-.823a.75.75,0,0,1,0-1.5h.823a2.506,2.506,0,0,0,2.5-2.5V307.645a3.274,3.274,0,0,0-3.271-3.27H973.194a3.274,3.274,0,0,0-3.27,3.27V318.99a2.235,2.235,0,0,0,2.234,2.233h1.093a.75.75,0,0,1,0,1.5h-1.093a3.738,3.738,0,0,1-3.734-3.733V307.645a4.776,4.776,0,0,1,4.77-4.77H985.54a4.776,4.776,0,0,1,4.771,4.77v11.074A4.008,4.008,0,0,1,986.307,322.723Z" transform="translate(-959.243 -302.875)" fill="#36c"/>
  <rect id="Rectángulo_2" data-name="Rectángulo 2" width="2.718" height="8.834" rx="1.359" transform="translate(18.426 13.893)" fill="#36c"/>
  <rect id="Rectángulo_3" data-name="Rectángulo 3" width="2.718" height="5.436" rx="1.359" transform="translate(15.028 17.291)" fill="#36c"/>
  <rect id="Rectángulo_4" data-name="Rectángulo 4" width="2.718" height="10.873" rx="1.359" transform="translate(21.823 11.855)" fill="#36c"/>
</svg>
