<svg xmlns="http://www.w3.org/2000/svg" viewBox="0 0 15.25 18.11"><defs><style>.cls-1{fill:#fbd230;}</style></defs><g id="Capa_2" data-name="Capa 2"><g id="Capa_1-2" data-name="Capa 1"><path class="cls-1" d="M14.31,12.41c-.15-.17-.31-.33-.46-.49l-.35-.36a1.3,1.3,0,0,1-.37-.88c0-.9,0-1.85,0-2.77a5.83,5.83,0,0,0-2.64-5.6,5.59,5.59,0,0,0-1.35-.65V1.58A1.58,1.58,0,0,0,7.65,0H7.6A1.59,1.59,0,0,0,6.07,1.58a.22.22,0,0,0,0,.08,5.48,5.48,0,0,0-1.36.65,5.83,5.83,0,0,0-2.64,5.6c.06.92,0,1.87,0,2.77a1.3,1.3,0,0,1-.37.88l-.35.36c-.15.16-.31.32-.46.49A3.5,3.5,0,0,0,0,14.53a.89.89,0,0,0,.23.66.88.88,0,0,0,.65.28H14.37a.88.88,0,0,0,.65-.28.89.89,0,0,0,.23-.66A3.5,3.5,0,0,0,14.31,12.41Zm-6.66,1.3H2.13l.12-.13c.14-.16.29-.31.45-.47L3,12.77a3,3,0,0,0,.84-2.07c0-.92,0-1.91,0-2.9a4.1,4.1,0,0,1,1.84-4,3.55,3.55,0,0,1,3.89,0,4.1,4.1,0,0,1,1.84,4c-.05,1-.05,2,0,2.9a3,3,0,0,0,.84,2.07l.33.34c.16.16.31.31.45.47l.12.13Z"/><path class="cls-1" d="M7.65,16.24H5.73v.25A1.8,1.8,0,0,0,7.6,18.11h.05a1.8,1.8,0,0,0,1.87-1.62v-.25Z"/></g></g></svg>