<svg xmlns="http://www.w3.org/2000/svg" viewBox="0 0 18.75 18.75"><defs><style>.cls-1,.cls-3{fill:none;stroke:#0d3b8f;stroke-linecap:round;stroke-width:1.5px;}.cls-1{stroke-miterlimit:10;}.cls-2{fill:#0d3b8f;}.cls-3{stroke-linejoin:round;}</style></defs><g id="Capa_2" data-name="Capa 2"><g id="Capa_1-2" data-name="Capa 1"><line class="cls-1" x1="3.26" y1="9.38" x2="15.39" y2="9.38"/><path class="cls-2" d="M17.38,16.05a1.34,1.34,0,0,1-1.33,1.33H2.7a1.34,1.34,0,0,1-1.33-1.33V2.7A1.34,1.34,0,0,1,2.7,1.37H16.05A1.34,1.34,0,0,1,17.38,2.7V6.94l1.37,1.37V2.7A2.7,2.7,0,0,0,16.05,0H2.7A2.7,2.7,0,0,0,0,2.7V16.05a2.7,2.7,0,0,0,2.7,2.7H16.05a2.7,2.7,0,0,0,2.7-2.7V10.48L17.38,12Z"/><polyline class="cls-3" points="10.75 14.68 15.77 9.1 10.75 4.07"/></g></g></svg>