<svg xmlns="http://www.w3.org/2000/svg" viewBox="0 0 20.7 20.7"><defs><style>.cls-1{fill:#fff;}</style></defs><g id="Capa_2" data-name="Capa 2"><g id="Capa_1-2" data-name="Capa 1"><g id="_9yyh8f.tif" data-name="9yyh8f.tif"><path class="cls-1" d="M17.08,20.7H12.92a.8.8,0,0,1-.46-.8c0-1.76,0-3.51,0-5.27,0-.32-.05-.38-.37-.38H8.6c-.35,0-.39.05-.39.4V19.9a.77.77,0,0,1-.46.8H3.59a1.32,1.32,0,0,1-1-1.43V11.52c0-.25,0-.26-.26-.26H1.22A1.14,1.14,0,0,1,0,10.4V9.88a1.6,1.6,0,0,1,.44-.65L4.52,5.32l5.26-5a.7.7,0,0,1,1.12,0l.67.65,8.72,8.35a1.11,1.11,0,0,1-.79,2H18.41c-.3,0-.3,0-.3.3v7.71A1.32,1.32,0,0,1,17.08,20.7Z"/></g></g></g></svg>