<svg xmlns="http://www.w3.org/2000/svg" viewBox="0 0 37 37"><defs><style>.cls-1{fill:#ebeaea;}.cls-2{fill:#dbdbdb;}</style></defs><g id="Capa_2" data-name="Capa 2"><g id="Capa_1-2" data-name="Capa 1"><rect class="cls-1" width="37" height="37"/><path class="cls-2" d="M27.06,23.68l-4.57-2.13s-1.83-.92-1.83-1.53V18.85a.74.74,0,0,1,.21-.51A2.73,2.73,0,0,0,21.58,17a19.09,19.09,0,0,0,.3-4,3.6,3.6,0,0,0-3.41-3.35A3.53,3.53,0,0,0,15.12,13a19.09,19.09,0,0,0,.3,4,2.73,2.73,0,0,0,.71,1.36.74.74,0,0,1,.21.51V20c0,.61-1.83,1.53-1.83,1.53L9.94,23.68a2.16,2.16,0,0,0-.86,1.79v1.87H27.92V25.47A2.16,2.16,0,0,0,27.06,23.68Z"/></g></g></svg>