<?xml version="1.0" encoding="UTF-8"?><svg xmlns="http://www.w3.org/2000/svg" viewBox="0 0 25.34 25.34"><g id="a"/><g id="b"><g id="c"><g><path d="M25.34,6.63c0-3.65-2.98-6.63-6.63-6.63H6.63C2.98,0,0,2.98,0,6.63v12.08c0,3.65,2.98,6.63,6.63,6.63h4.06v-8.59h-3.22v-3.66h3.22v-2.79c0-3.18,1.89-4.93,4.79-4.93,1.39,0,2.84,.25,2.84,.25v3.12h-1.6c-1.57,0-2.06,.98-2.06,1.98v2.38h3.51l-.56,3.66h-2.95v8.59h4.06c3.65,0,6.63-2.98,6.63-6.63V6.63Z" fill="#fff"/><polygon points="10.69 25.34 14.65 25.34 12.52 24.82 10.69 25.34" fill="#fff"/></g></g></g></svg>