<?xml version="1.0" encoding="UTF-8"?><svg xmlns="http://www.w3.org/2000/svg" viewBox="0 0 25.55 25.54"><g id="a"/><g id="b"><g id="c"><g id="d"><g><path d="M9.9,0h5.66c.25,.06,.51,.03,.76,.03,.99,.02,1.98-.04,2.96,.13,3.44,.6,6.01,3.44,6.17,6.92,.09,1.92,.1,3.84,.1,5.76,0,1.75-.05,3.51-.08,5.26-.03,1.36-.36,2.64-1.09,3.79-1.34,2.12-3.27,3.31-5.77,3.53-1.15,.1-2.31,.04-3.46,.08-2.58,.08-5.17-.01-7.75-.05-1.43-.02-2.77-.41-3.96-1.22C1.42,22.89,.31,21,.1,18.59c-.1-1.11-.06-2.22-.06-3.33C.03,15.1,.01,14.93,0,14.76c0-1.32,0-2.65,0-3.97,.01-.11,.03-.23,.03-.34,0-.86,0-1.73,.02-2.59,.02-.68,.04-1.35,.19-2.02C.93,2.84,3.41,.55,6.44,.13,7.41,0,8.39,.05,9.37,.03c.18,0,.35,.02,.53-.03Zm13.22,12.76h-.07c0-1.56,.01-3.12,0-4.68,0-.49-.01-.99-.09-1.48-.35-2.17-2.3-3.99-4.49-4.09-1.96-.09-3.93-.11-5.9-.1-1.11,0-2.22,0-3.33,.05-.83,.03-1.66-.02-2.48,.09-2.31,.3-4.18,2.38-4.24,4.71-.03,1.04-.04,2.08-.05,3.12-.04,2.46,0,4.92,.05,7.38,0,.3,.02,.6,.05,.9,.24,2.26,2.25,4.23,4.52,4.32,2.06,.08,4.13,.11,6.19,.1,1.03,0,2.06,0,3.09-.05,.83-.03,1.66,.02,2.48-.1,2.26-.32,4.11-2.35,4.17-4.63,.05-1.85,.08-3.7,.11-5.55Z" fill="#ccc"/><path d="M19.34,12.76c0,3.64-2.94,6.58-6.58,6.57-3.62,0-6.58-2.98-6.58-6.6,0-3.62,2.98-6.57,6.61-6.56,3.62,0,6.55,2.95,6.54,6.58Zm-6.58,4.12c2.3,0,4.15-1.83,4.16-4.12,0-2.29-1.84-4.13-4.14-4.14-2.31,0-4.14,1.82-4.14,4.12,0,2.31,1.82,4.13,4.12,4.14Z" fill="#ccc"/><path d="M17.86,6.06c0-.83,.68-1.48,1.51-1.48,.83,0,1.51,.7,1.49,1.53-.01,.83-.7,1.48-1.55,1.47-.83,0-1.46-.68-1.46-1.52Z" fill="#ccc"/></g></g></g></g></svg>