<?xml version="1.0" encoding="UTF-8"?><svg xmlns="http://www.w3.org/2000/svg" viewBox="0 0 23.96 19.72"><g id="a"/><g id="b"><g id="c"><path d="M23.87,2.36c-.76,.34-1.6,.55-2.42,.69,.39-.07,.96-.77,1.19-1.06,.35-.44,.64-.93,.8-1.47,.02-.04,.04-.09,0-.13-.05-.02-.09-.01-.13,.01-.92,.49-1.86,.85-2.87,1.1-.08,.02-.15,0-.2-.05-.08-.09-.16-.18-.25-.26-.42-.36-.88-.64-1.39-.85-.67-.27-1.41-.39-2.13-.34-.71,.05-1.4,.24-2.03,.57-.63,.33-1.19,.78-1.63,1.33-.46,.57-.8,1.24-.98,1.95-.17,.69-.15,1.37-.05,2.06,.02,.12,0,.13-.1,.12-3.95-.59-7.22-2-9.87-5.03-.12-.13-.18-.13-.27,.01-1.16,1.74-.6,4.54,.85,5.92,.19,.18,.39,.37,.61,.53-.08,.02-1.04-.09-1.91-.53-.12-.07-.17-.03-.18,.1-.01,.19,0,.36,.03,.57,.22,1.77,1.45,3.4,3.12,4.04,.2,.08,.42,.16,.63,.19-.38,.08-.77,.14-1.87,.06-.14-.03-.19,.04-.14,.17,.82,2.24,2.6,2.91,3.93,3.29,.18,.03,.36,.03,.53,.07-.01,.02-.02,.02-.03,.03-.44,.67-1.97,1.17-2.68,1.42-1.29,.45-2.7,.66-4.07,.52-.22-.03-.26-.03-.32,0-.06,.04,0,.09,.06,.15,.28,.18,.56,.35,.85,.5,.87,.46,1.77,.83,2.72,1.09,4.89,1.35,10.4,.36,14.08-3.29,2.88-2.87,3.9-6.82,3.9-10.78,0-.15,.18-.24,.29-.32,.75-.56,1.36-1.24,1.92-1.99,.13-.17,.13-.32,.13-.38v-.02c0-.06,0-.04-.1,0Z" fill="#ccc"/></g></g></svg>