<svg id="reaccion_corazon" data-name="reaccion corazon" xmlns="http://www.w3.org/2000/svg" width="15.736" height="13.504" viewBox="0 0 15.736 13.504">
  <g id="Grupo_63" data-name="Grupo 63" transform="translate(-716.927 -496.934)">
    <path id="Trazado_156" data-name="Trazado 156" d="M724.746,510.438a2.089,2.089,0,0,1-1.463-.6c-.93-.908-2.321-2.3-3.662-3.775a20.753,20.753,0,0,1-1.827-2.336,4.384,4.384,0,0,1-.283-4.789,4.524,4.524,0,0,1,3.8-1.987,4.633,4.633,0,0,1,2.595.781,6.144,6.144,0,0,1,.925.874,4.245,4.245,0,0,1,2.127-1.457,4.536,4.536,0,0,1,4.282.8,4.023,4.023,0,0,1,1.417,2.844,4.333,4.333,0,0,1-.23,1.67,10.687,10.687,0,0,1-2.432,3.6c-1.355,1.49-2.831,2.9-3.831,3.819A2.09,2.09,0,0,1,724.746,510.438Zm-3.41-12.127h-.019a3.194,3.194,0,0,0-2.661,1.357,3.1,3.1,0,0,0,.26,3.3,19.52,19.52,0,0,0,1.708,2.186c1.32,1.45,2.689,2.822,3.606,3.717a.738.738,0,0,0,1.014.016c.979-.9,2.424-2.281,3.745-3.733a9.66,9.66,0,0,0,2.152-3.12,2.977,2.977,0,0,0,.16-1.152h0a2.676,2.676,0,0,0-.942-1.893,3.178,3.178,0,0,0-2.995-.542,2.731,2.731,0,0,0-1.9,1.9h0a.678.678,0,1,1-1.312-.342,3.578,3.578,0,0,0-1.027-1.164A3.128,3.128,0,0,0,721.336,498.311Z" fill="#36c"/>
  </g>
</svg>
