<svg xmlns="http://www.w3.org/2000/svg" viewBox="0 0 4.59 25.7"><defs><style>.cls-1{fill:#36f;}</style></defs><g id="Capa_2" data-name="Capa 2"><g id="Capa_1-2" data-name="Capa 1"><path class="cls-1" d="M2.33,25.7a2.28,2.28,0,0,1-1.7-.65A2.26,2.26,0,0,1,0,23.4a2.2,2.2,0,0,1,.63-1.63,2.3,2.3,0,0,1,1.7-.63A2.17,2.17,0,0,1,4,21.77a2.23,2.23,0,0,1,.61,1.63A2.29,2.29,0,0,1,4,25.05,2.15,2.15,0,0,1,2.33,25.7Zm0-7c-.79,0-1.21-.45-1.25-1.36l-.86-15A2.28,2.28,0,0,1,.7.65,2,2,0,0,1,2.33,0,1.94,1.94,0,0,1,3.91.65a2.23,2.23,0,0,1,.43,1.72l-.86,15C3.43,18.28,3.05,18.73,2.33,18.73Z"/></g></g></svg>