<svg xmlns="http://www.w3.org/2000/svg" viewBox="0 0 19.66 20.93"><defs><style>.cls-1{fill:#4169af;}</style></defs><g id="Capa_2" data-name="Capa 2"><g id="Capa_1-2" data-name="Capa 1"><path class="cls-1" d="M14.4,12.29H6.26c-.39,0-.77,0-1.15,0a.69.69,0,0,0-.64.68.71.71,0,0,0,.64.72H14a2.68,2.68,0,0,0,.4,0,.7.7,0,0,0,0-1.39Z"/><path class="cls-1" d="M17.56,2.72a5.19,5.19,0,0,0-2.87-1.17c-.24,0-.36-.1-.34-.36a2.8,2.8,0,0,0,0-.5.72.72,0,0,0-1.44,0c0,.13,0,.25,0,.38,0,.31-.09.41-.41.4-1.65,0-3.3,0-4.94,0-.76,0-.76,0-.8-.76a.53.53,0,0,0,0-.13A.71.71,0,0,0,6,0a.75.75,0,0,0-.7.84c0,.64,0,.64-.6.73A5.51,5.51,0,0,0,0,7.06c0,2.35,0,6,0,8.33a5.49,5.49,0,0,0,5.53,5.54H9.8c1.46,0,2.91,0,4.36,0a5.51,5.51,0,0,0,5.49-5.46c0-2.4,0-6.09,0-8.48A5.31,5.31,0,0,0,17.56,2.72ZM1.48,6.56A4.14,4.14,0,0,1,4.94,3c.26,0,.4,0,.37.32a2.16,2.16,0,0,0,0,.44.72.72,0,0,0,1.44,0V3.69c0-.74,0-.74.79-.74h4.92c.43,0,.43,0,.44.43,0,.12,0,.25,0,.37a.72.72,0,0,0,1.44,0,2.16,2.16,0,0,0,0-.44c0-.29.1-.35.36-.32a4.13,4.13,0,0,1,3.46,3.55c0,.17-.05.26-.22.27H1.7C1.53,6.82,1.47,6.73,1.48,6.56Zm16.71,9.05a4,4,0,0,1-3.86,3.86q-4.5,0-9,0a4,4,0,0,1-3.88-3.85c0-1.89,0-5.06,0-6.95,0-.4,0-.42.43-.42H17.69c.51,0,.51,0,.51.5C18.2,10.6,18.21,13.75,18.19,15.61Z"/><path class="cls-1" d="M9.75,16.08H5.18a.71.71,0,0,0,0,1.41h2.3c.75,0,1.49,0,2.24,0a.71.71,0,0,0,.75-.7A.69.69,0,0,0,9.75,16.08Z"/></g></g></svg>