<svg xmlns="http://www.w3.org/2000/svg" viewBox="0 0 14.67 17.09"><defs><style>.cls-1{fill:#959595;}</style></defs><g id="Capa_2" data-name="Capa 2"><g id="Capa_1-2" data-name="Capa 1"><path class="cls-1" d="M14.67,17.09H0V4.32H14.67ZM1.24,15.87H13.45V5.55H1.24Z"/><path class="cls-1" d="M4.53,3.35a.45.45,0,0,1-.46-.46V.46A.46.46,0,1,1,5,.46V2.89A.45.45,0,0,1,4.53,3.35Z"/><path class="cls-1" d="M0,1.21V4.88H14.66V1.21ZM4.53,4.27A1.23,1.23,0,1,1,5.75,3,1.23,1.23,0,0,1,4.53,4.27Zm5.8,0A1.23,1.23,0,1,1,11.55,3,1.23,1.23,0,0,1,10.33,4.27Z"/><path class="cls-1" d="M10.33,3.35a.46.46,0,0,1-.46-.46V.46a.46.46,0,1,1,.92,0V2.89A.46.46,0,0,1,10.33,3.35Z"/><rect class="cls-1" x="6.74" y="6.73" width="1.36" height="1.36"/><rect class="cls-1" x="8.81" y="6.73" width="1.36" height="1.36"/><rect class="cls-1" x="10.88" y="6.73" width="1.36" height="1.36"/><rect class="cls-1" x="6.74" y="8.87" width="1.36" height="1.36"/><rect class="cls-1" x="8.81" y="8.87" width="1.36" height="1.36"/><rect class="cls-1" x="10.88" y="8.87" width="1.36" height="1.36"/><rect class="cls-1" x="6.74" y="11.05" width="1.36" height="1.36"/><rect class="cls-1" x="8.81" y="11.05" width="1.36" height="1.36"/><rect class="cls-1" x="10.88" y="11.05" width="1.36" height="1.36"/><rect class="cls-1" x="6.74" y="13.06" width="1.36" height="1.36"/><rect class="cls-1" x="4.5" y="8.87" width="1.36" height="1.36"/><rect class="cls-1" x="4.5" y="11.05" width="1.36" height="1.36"/><rect class="cls-1" x="4.5" y="13.06" width="1.36" height="1.36"/><rect class="cls-1" x="2.45" y="8.87" width="1.36" height="1.36"/><rect class="cls-1" x="2.45" y="11.05" width="1.36" height="1.36"/><rect class="cls-1" x="2.45" y="13.06" width="1.36" height="1.36"/><rect class="cls-1" x="8.81" y="13.06" width="1.36" height="1.36"/></g></g></svg>