<svg xmlns="http://www.w3.org/2000/svg" viewBox="0 0 16.5 18.29"><defs><style>.cls-1{fill:#f8f8f8;}</style></defs><g id="Capa_2" data-name="Capa 2"><g id="Capa_1-2" data-name="Capa 1"><path class="cls-1" d="M16.47,15.8l-.06-.22a3.5,3.5,0,0,0-.14-.49A4.56,4.56,0,0,0,15,13.33a2.35,2.35,0,0,1-.94-1.5v-.12a23.29,23.29,0,0,1,0-2.64,7.77,7.77,0,0,0-.56-4A6,6,0,0,0,9.75,1.8H9.69a1.1,1.1,0,0,0,0-.31,1.48,1.48,0,0,0-3,0,1.53,1.53,0,0,0,0,.3,5.38,5.38,0,0,0-1.66.75,6.22,6.22,0,0,0-2.82,6c.06,1,.05,2.11,0,3.11a1.67,1.67,0,0,1-.48,1.17l-.35.36c-.18.19-.37.38-.55.58a3.59,3.59,0,0,0-1,2.2.71.71,0,0,0,.19.53.69.69,0,0,0,.51.22H15.8a.7.7,0,0,0,.67-.89ZM1.6,15.29A2.83,2.83,0,0,1,2,14.67c.16-.18.34-.35.51-.53l.37-.37a3.12,3.12,0,0,0,.86-2.12c0-1,0-2.12,0-3.21A4.85,4.85,0,0,1,5.9,3.7a4.17,4.17,0,0,1,3.47-.55,4.62,4.62,0,0,1,2.87,2.51A6.67,6.67,0,0,1,12.67,9a23.75,23.75,0,0,0,0,2.8v.12a3.58,3.58,0,0,0,1.38,2.45,3.5,3.5,0,0,1,.76.95Z"/><path class="cls-1" d="M8.25,18.29a1.85,1.85,0,0,0,1.85-1.53H6.4A1.86,1.86,0,0,0,8.25,18.29Z"/></g></g></svg>