<?xml version="1.0" encoding="UTF-8"?><svg xmlns="http://www.w3.org/2000/svg" xmlns:xlink="http://www.w3.org/1999/xlink" viewBox="0 0 35.52 35.52"><defs><style>.g{fill:#fff;}.h{fill:#4061ab;filter:url(#d);}</style><filter id="d" filterUnits="userSpaceOnUse"><feOffset dx="2" dy="2"/><feGaussianBlur result="e" stdDeviation="2"/><feFlood flood-color="#010101" flood-opacity=".3"/><feComposite in2="e" operator="in"/><feComposite in="SourceGraphic"/></filter></defs><g id="a"/><g id="b"><g id="c"><g><circle cx="15.72" cy="15.82" r="11.62" fill="#4061ab" filter="#d"/><g id="f"><g><path d="M21.76,11.87c-.11,.28-.21,.34-.5,.34-3.7,0-7.41,0-11.11,0-.39,0-.56-.24-.45-.61,.09-.26,.17-.53,.26-.79,.11-.32,.32-.47,.66-.47,3.39,0,6.77,0,10.16,0,.35,0,.54,.14,.66,.47,.11,.32,.21,.64,.31,.96v.09Z" fill="#fff"/><path d="M17.28,8.05c.24,.09,.45,.22,.57,.46,.15,.28,.09,.57,.1,.86,0,.06-.05,.07-.1,.07-.25,0-.5,0-.76,0-.1,0-.11-.07-.12-.14q-.02-.31-.33-.31c-.68,0-1.36,0-2.04,0-.13,0-.19,.04-.17,.17,0,.03,0,.07,0,.11,.01,.13-.04,.18-.18,.18-.22,0-.44,0-.67,0-.1,0-.15-.04-.14-.14,0-.16,0-.31,.01-.47,.05-.4,.29-.65,.66-.79h3.15Z" fill="#fff"/><path d="M15.71,13.11c1.41,0,2.82,0,4.22,0,.08,0,.16,0,.24,.02,.23,.04,.37,.2,.36,.43-.01,.33-.04,.65-.07,.98-.03,.43-.07,.86-.11,1.29-.05,.59-.1,1.18-.15,1.78-.03,.41-.06,.82-.1,1.24-.05,.59-.1,1.17-.14,1.76-.03,.42-.06,.84-.1,1.27-.03,.3-.03,.6-.09,.9-.09,.47-.48,.8-.96,.8-2.04,0-4.09,0-6.13,0-.49,0-1.03-.33-1.07-1.02-.06-.85-.14-1.7-.2-2.55-.05-.57-.08-1.14-.13-1.7-.06-.68-.12-1.37-.17-2.05-.05-.56-.08-1.13-.13-1.69-.02-.3-.04-.59-.08-.89-.04-.35,.14-.58,.5-.58,.43,0,.87,0,1.3,0,1,0,2.01,0,3.01,0Zm-1.85,8.8c-.03-.42-.06-.89-.09-1.36-.05-.81-.1-1.63-.15-2.44-.05-.91-.1-1.82-.16-2.73-.01-.25-.04-.5-.06-.75-.02-.18-.15-.33-.32-.38-.34-.09-.59,.18-.57,.56,.06,.79,.1,1.58,.15,2.37,.02,.36,.04,.71,.07,1.07,.05,.77,.1,1.54,.15,2.31,.02,.38,.03,.76,.07,1.13,.02,.19,0,.38,.05,.57,.06,.19,.21,.31,.41,.33,.16,.01,.35-.11,.42-.27,.05-.11,.02-.23,.03-.4Zm3.73-.02c0,.16-.02,.29,.03,.41,.07,.17,.28,.29,.45,.27,.24-.04,.39-.19,.41-.45,.05-.72,.08-1.45,.13-2.17,.02-.42,.04-.85,.07-1.27,.05-.78,.1-1.57,.14-2.35,.03-.45,.06-.9,.08-1.36,0-.14,.03-.28,0-.42-.05-.2-.27-.35-.46-.33-.24,.03-.41,.2-.42,.44-.02,.41-.04,.83-.07,1.24-.05,.81-.1,1.63-.15,2.44-.02,.39-.04,.77-.07,1.16-.05,.81-.1,1.62-.15,2.39Zm-1.43-3.5c0-1.19,0-2.38,0-3.57,0-.08,0-.15,0-.23-.03-.25-.28-.42-.52-.36-.25,.06-.37,.23-.37,.55,0,2.41,0,4.83,0,7.24,0,.05,0,.1,0,.15,.05,.3,.29,.46,.57,.39,.2-.05,.31-.22,.31-.49,0-1.22,0-2.44,0-3.67Z" fill="#fff"/></g></g></g></g></g></svg>