<svg xmlns="http://www.w3.org/2000/svg" viewBox="0 0 14.2 11.37"><defs><style>.cls-1{fill:none;}.cls-1,.cls-2{stroke:#3f67b0;stroke-miterlimit:10;}.cls-2{fill:#eeeff1;stroke-linecap:round;}</style></defs><g id="Capa_2" data-name="Capa 2"><g id="Capa_1-2" data-name="Capa 1"><g id="ohj4GX.tif"><path class="cls-1" d="M12.55,10.87H1.66l-.07,0A1.42,1.42,0,0,1,.5,9.39V1.94A1.41,1.41,0,0,1,1.94.5c.77,0,1.54,0,2.31,0a1.47,1.47,0,0,1,1,.42c.21.2.43.4.63.61a.44.44,0,0,0,.36.15h6a1.61,1.61,0,0,1,.44.05,1.45,1.45,0,0,1,1,1.11V9.72A1.48,1.48,0,0,1,12.55,10.87Z"/></g><path class="cls-2" d="M7.1,3.63V8.5"/><path class="cls-2" d="M4.67,6.07H9.54"/></g></g></svg>