<?xml version="1.0" encoding="UTF-8"?><svg xmlns="http://www.w3.org/2000/svg" viewBox="0 0 16.77 16.77"><g id="a"/><g id="b"><g id="c"><path d="M16.5,6.19C15.51,2.98,13.39,.91,10.11,.19,5.59-.8,1.14,2.09,.21,6.63c-.69,3.34,.36,6.14,2.98,8.33,1.16,.97,2.52,1.52,4.01,1.75,.16,.02,.32,.04,.48,.06h1.44c.52-.06,1.04-.13,1.54-.29,3.2-1.01,5.19-3.14,5.97-6.4,.08-.32,.1-.64,.15-.97v-1.44c-.06-.5-.13-1-.28-1.49Zm-3.94,6.23c-.15,.14-.33,.21-.52,.21-.2,0-.4-.08-.55-.24l-1.22-1.3c-.72-.72-1.44-1.45-2.17-2.17-.11-.11-.18-.24-.23-.37h-.01v-.08c-.02-.08-.04-.15-.04-.23,.01-.85,0-1.7,0-2.55,0-.89,0-1.78,0-2.66,0-.08,.02-.14,.04-.21v-.4c0-.41,.34-.75,.75-.75s.75,.34,.75,.75V7.94l3.23,3.42c.28,.3,.27,.78-.03,1.06Z" fill="#fff"/></g></g></svg>