<svg xmlns="http://www.w3.org/2000/svg" viewBox="0 0 20 16.24"><defs><style>.cls-1{fill:#4169af;}</style></defs><g id="Capa_2" data-name="Capa 2"><g id="Capa_1-2" data-name="Capa 1"><path class="cls-1" d="M20,12.37c0-.51-.23-.73-.74-.73H18.07a.27.27,0,0,1-.28-.17,1.76,1.76,0,0,0-.09-.2.65.65,0,0,0-.65-.41H14.91a.62.62,0,0,0-.67.69q0,.58,0,1.17c0,.17,0,.24-.23.24q-1.08,0-2.16,0a.25.25,0,0,1-.26-.16,1.7,1.7,0,0,0-.85-.84.23.23,0,0,1-.15-.24V10.55H13.5a.27.27,0,0,0,.28-.28c0-.67,0-1.34,0-2A3.69,3.69,0,0,0,11.92,5a3.9,3.9,0,0,0-1.4-.5c1.4-.65,2-1.57,1.7-2.76a2.28,2.28,0,0,0-4.46.12A2.28,2.28,0,0,0,9.46,4.5c-.05.07-.12,0-.19.06a3.77,3.77,0,0,0-3,3.69c0,.67,0,1.35,0,2,0,.2.06.28.27.28H9.4c0,.4,0,.8,0,1.2a.17.17,0,0,1-.12.19,1.79,1.79,0,0,0-.89.89.18.18,0,0,1-.19.13c-.76,0-1.51,0-2.27,0-.14,0-.18-.06-.17-.19v-.41A.64.64,0,0,0,5,11.64c-.35,0-.71,0-1.06,0a.43.43,0,0,1-.51-.32.69.69,0,0,0-.73-.47H.7a.7.7,0,0,0-.7.44V16.1c0,.12,0,.15.15.14h5.2a.71.71,0,0,0,.4-.75c0-.37,0-.73,0-1.09,0-.18.06-.23.22-.23H8.14a.24.24,0,0,1,.25.15,1.77,1.77,0,0,0,3.2,0,.24.24,0,0,1,.24-.15H14c.15,0,.21,0,.21.2,0,.37,0,.74,0,1.11a.73.73,0,0,0,.41.75h4.95a.69.69,0,0,0,.41-.71C20,14.48,20,13.43,20,12.37Z"/></g></g></svg>