<?xml version="1.0" encoding="UTF-8"?><svg xmlns="http://www.w3.org/2000/svg" viewBox="0 0 16.54 19.26"><g id="a"/><g id="b"><g id="c"><g><path d="M16.54,19.26H.02V4.87H16.54v14.39Zm-15.14-1.38H15.16V6.25H1.39v11.64Z" fill="#4269af"/><path d="M5.1,3.78c-.29,0-.52-.23-.52-.52V.52c0-.29,.23-.52,.52-.52s.52,.23,.52,.52V3.26c0,.29-.23,.52-.52,.52Z" fill="#4269af"/><path d="M0,1.37V5.5H16.53V1.37H0Zm5.1,3.44c-.76,0-1.38-.62-1.38-1.38s.62-1.38,1.38-1.38,1.38,.62,1.38,1.38-.62,1.38-1.38,1.38Zm6.54,0c-.76,0-1.38-.62-1.38-1.38s.62-1.38,1.38-1.38,1.38,.62,1.38,1.38-.62,1.38-1.38,1.38Z" fill="#4269af"/><path d="M11.65,3.78c-.29,0-.52-.23-.52-.52V.52c0-.29,.23-.52,.52-.52s.52,.23,.52,.52V3.26c0,.29-.23,.52-.52,.52Z" fill="#4269af"/><g><rect x="7.59" y="7.59" width="1.53" height="1.53" fill="#4269af"/><rect x="9.93" y="7.59" width="1.53" height="1.53" fill="#4269af"/><rect x="12.26" y="7.59" width="1.53" height="1.53" fill="#4269af"/><rect x="7.59" y="10" width="1.53" height="1.53" fill="#4269af"/><rect x="9.93" y="10" width="1.53" height="1.53" fill="#4269af"/><rect x="12.26" y="10" width="1.53" height="1.53" fill="#4269af"/><rect x="7.59" y="12.45" width="1.53" height="1.53" fill="#4269af"/><rect x="9.93" y="12.45" width="1.53" height="1.53" fill="#4269af"/><rect x="12.26" y="12.45" width="1.53" height="1.53" fill="#4269af"/><rect x="7.59" y="14.72" width="1.53" height="1.53" fill="#4269af"/><rect x="5.07" y="10" width="1.53" height="1.53" fill="#4269af"/><rect x="5.07" y="12.45" width="1.53" height="1.53" fill="#4269af"/><rect x="5.07" y="14.72" width="1.53" height="1.53" fill="#4269af"/><rect x="2.76" y="10" width="1.53" height="1.53" fill="#4269af"/><rect x="2.76" y="12.45" width="1.53" height="1.53" fill="#4269af"/><rect x="2.76" y="14.72" width="1.53" height="1.53" fill="#4269af"/><rect x="9.93" y="14.72" width="1.53" height="1.53" fill="#4269af"/></g></g></g></g></svg>