<svg xmlns="http://www.w3.org/2000/svg" viewBox="0 0 26.83 26.83"><defs><style>.cls-1{fill:none;stroke:#ccc;stroke-miterlimit:10;stroke-width:2px;}.cls-2{fill:#ccc;}</style></defs><g id="Capa_2" data-name="Capa 2"><g id="Capa_1-2" data-name="Capa 1"><circle class="cls-1" cx="13.41" cy="13.41" r="12.41"/><g id="_6plrgg.tif" data-name="6plrgg.tif"><path class="cls-2" d="M16.94,7.38v1.7a.39.39,0,0,1-.21,0h-.92a1.17,1.17,0,0,0-1.24,1.26v.76c0,.21,0,.22.23.23h1.57c.27,0,.27,0,.27.25V13c0,.25,0,.26-.25.26H14.84c-.27,0-.27,0-.27.27v5.69a.63.63,0,0,1,0,.27H12a.7.7,0,0,1,0-.29V13.54c0-.29,0-.29-.29-.29h-1.5c-.25,0-.25,0-.25-.25V11.62c0-.25,0-.25.25-.25h1.58c.19,0,.21,0,.21-.2A8.06,8.06,0,0,1,12,9.68a2.68,2.68,0,0,1,2.6-2.31c.71,0,1.43,0,2.15,0A.39.39,0,0,1,16.94,7.38Z"/></g></g></g></svg>