<svg xmlns="http://www.w3.org/2000/svg" viewBox="0 0 27.58 25.11"><defs><style>.cls-1{fill:#3466ff;}</style></defs><g id="Capa_2" data-name="Capa 2"><g id="Capa_1-2" data-name="Capa 1"><path class="cls-1" d="M27.09,15.26,16.86,5.2a1.8,1.8,0,0,0-1.33-.56L10,4.69A13.63,13.63,0,0,0,7.5,2.31,10.21,10.21,0,0,0,2.07,0,2,2,0,0,0,.34.71c-.54.71-.43,1.8.3,3.07a12.19,12.19,0,0,0,3.17,3.4A13.47,13.47,0,0,0,7,9l0,4.26a1.84,1.84,0,0,0,.55,1.28s0,0,0,0L17.87,24.65c.91.89,1.85.37,2.75-.54l6-6.09C27.5,17.11,28,16.15,27.09,15.26Zm-16.83-7a1.2,1.2,0,0,1-1,.35,1.23,1.23,0,0,1,0-.2,1.35,1.35,0,0,1,1-1.31A1.29,1.29,0,0,1,10.26,8.24ZM4.35,6.47A11.34,11.34,0,0,1,1.42,3.33C.89,2.42.76,1.65,1.05,1.26a1.28,1.28,0,0,1,1-.36A9.24,9.24,0,0,1,7,3,12.9,12.9,0,0,1,8.79,4.7,1.82,1.82,0,0,0,7,6.53L7,8A13.3,13.3,0,0,1,4.35,6.47Zm6.29,3.29a1.34,1.34,0,0,1-.85-.31A1.88,1.88,0,0,0,11,8.78a2,2,0,0,0,.27-1.6A1.35,1.35,0,0,1,12,8.39,1.37,1.37,0,0,1,10.64,9.76Z"/></g></g></svg>