<svg xmlns="http://www.w3.org/2000/svg" viewBox="0 0 16.83 16.86"><defs><style>.cls-1{fill:#4169af;}</style></defs><g id="Capa_2" data-name="Capa 2"><g id="Capa_1-2" data-name="Capa 1"><g id="HBonxJ.tif"><path class="cls-1" d="M16.83,14.26a3.25,3.25,0,0,1-.74,1.58A3,3,0,0,1,11,12.72a.23.23,0,0,0-.06-.3L8.57,10c-.11-.12-.18-.12-.3,0L5.9,12.41a.24.24,0,0,0-.07.31,3,3,0,1,1-2.72-1.91,2.8,2.8,0,0,1,1.75.63c.12.09.18.08.28,0L7.68,8.87a.37.37,0,0,0,.13-.3V6.15c0-.13,0-.2-.17-.23A3,3,0,0,1,7.79.05L8,0h.9l.2.05a3.06,3.06,0,0,1,2.37,2.76A3,3,0,0,1,9.21,5.92C9.06,6,9,6,9,6.17,9,7,9,7.75,9,8.55a.43.43,0,0,0,.14.33l2.52,2.52c.11.11.18.13.32,0a3,3,0,0,1,4.12.45,3.25,3.25,0,0,1,.7,1.53Z"/></g></g></g></svg>