<svg xmlns="http://www.w3.org/2000/svg" viewBox="0 0 30.07 20.98"><defs><style>.cls-1,.cls-2{fill:#386bfb;}.cls-2{stroke:#fff;stroke-miterlimit:10;}.cls-3{fill:#fff;}</style></defs><g id="Capa_2" data-name="Capa 2"><g id="Capa_1-2" data-name="Capa 1"><path class="cls-1" d="M0,9.61v9.65A1.72,1.72,0,0,0,1.72,21H19.38a1.72,1.72,0,0,0,1.72-1.72V9.61Zm9.16,8.14H8.31V14.37c0-.11,0-.22,0-.33v-.33c0-.11,0-.21,0-.31l-.18.18-.24.2-.6.48-.42-.54,1.56-1.21h.7Zm5-.76a1.52,1.52,0,0,1-.69.61,2.45,2.45,0,0,1-1.1.22,3.8,3.8,0,0,1-.77-.07,2.29,2.29,0,0,1-.61-.21v-.77a2.76,2.76,0,0,0,.64.25,3.08,3.08,0,0,0,.72.09A1.7,1.7,0,0,0,13,17a1,1,0,0,0,.41-.33,1.09,1.09,0,0,0,.14-.57.85.85,0,0,0-.29-.69,1.37,1.37,0,0,0-.91-.25,3.75,3.75,0,0,0-.45,0l-.4.08-.38-.22.2-2.56H14v.74H12l-.12,1.3.31-.05a2.76,2.76,0,0,1,.44,0,2.13,2.13,0,0,1,.9.18,1.47,1.47,0,0,1,.6.53,1.64,1.64,0,0,1,.21.86A1.91,1.91,0,0,1,14.14,17Z"/><path class="cls-1" d="M19.3,3.61H15.17V6.33a.3.3,0,0,1-.31.3h-1a.29.29,0,0,1-.3-.3V3.61h-6V6.33a.29.29,0,0,1-.3.3h-1a.3.3,0,0,1-.31-.3V3.61H2A1.88,1.88,0,0,0,.08,5.49V8.56h21.1V5.49A1.88,1.88,0,0,0,19.3,3.61Z"/><circle class="cls-2" cx="23.59" cy="6.49" r="5.99"/><path class="cls-3" d="M26.78,9.07l0-.08a1.05,1.05,0,0,0-.05-.19,1.87,1.87,0,0,0-.48-.69.88.88,0,0,1-.37-.58v0a8.7,8.7,0,0,1,0-1,3.07,3.07,0,0,0-.21-1.55,2.35,2.35,0,0,0-1.46-1.27h0a.49.49,0,0,0,0-.12.58.58,0,0,0-1.15,0s0,.08,0,.12a2.3,2.3,0,0,0-.64.29,2.4,2.4,0,0,0-1.09,2.33c0,.4,0,.81,0,1.2a.62.62,0,0,1-.19.46L21,8.05c-.07.07-.15.14-.22.22a1.39,1.39,0,0,0-.37.86.26.26,0,0,0,.07.2.25.25,0,0,0,.2.09h5.86a.26.26,0,0,0,.21-.11A.3.3,0,0,0,26.78,9.07ZM21,8.87a1.18,1.18,0,0,1,.17-.24c.06-.07.13-.13.2-.2l.14-.15a1.2,1.2,0,0,0,.33-.82c0-.4,0-.82,0-1.25a1.88,1.88,0,0,1,.84-1.83A1.63,1.63,0,0,1,24,4.16a1.76,1.76,0,0,1,1.11,1,2.48,2.48,0,0,1,.17,1.28,9.89,9.89,0,0,0,0,1.09v0a1.4,1.4,0,0,0,.53,1,1.29,1.29,0,0,1,.3.36Z"/><path class="cls-3" d="M23.59,10a.72.72,0,0,0,.71-.6H22.87A.72.72,0,0,0,23.59,10Z"/></g></g></svg>