<svg xmlns="http://www.w3.org/2000/svg" viewBox="0 0 20.13 20.83"><defs><style>.cls-1{fill:#fff;}</style></defs><g id="Capa_2" data-name="Capa 2"><g id="Capa_1-2" data-name="Capa 1"><path class="cls-1" d="M9.37,20.83a7.56,7.56,0,0,1-1.8-.46,6.69,6.69,0,0,1-4.19-5.49c-.06-.4,0-.8,0-1.2,0-.15.06-.19.2-.19H6.83c.19,0,.21.09.2.28a2.82,2.82,0,0,0,.09,1.08,3,3,0,0,0,6-.45c0-.24,0-.47,0-.71s0-.2.18-.2h3.33a.18.18,0,0,1,.18.16A6.77,6.77,0,0,1,13,20.18a6.36,6.36,0,0,1-2.14.62l-.09,0Z"/><path class="cls-1" d="M9.62,3.66A1.88,1.88,0,0,1,8.24,1.53a1.85,1.85,0,0,1,3.63-.1c.22,1-.24,1.71-1.38,2.24a3.13,3.13,0,0,1,1.13.41A3,3,0,0,1,13.13,6.7c0,.55,0,1.09,0,1.64a.22.22,0,0,1-.22.23H7.22C7,8.57,7,8.5,7,8.34c0-.55,0-1.1,0-1.64a3.08,3.08,0,0,1,2.48-3S9.59,3.71,9.62,3.66Z"/><path class="cls-1" d="M2.62,3.66A1.88,1.88,0,0,1,1.24,1.53,1.83,1.83,0,0,1,3,0,1.84,1.84,0,0,1,4.87,1.43c.22,1-.24,1.71-1.38,2.24a3.13,3.13,0,0,1,1.13.41A3,3,0,0,1,6.13,6.7c0,.55,0,1.09,0,1.64a.22.22,0,0,1-.22.23H.22C0,8.57,0,8.5,0,8.34c0-.55,0-1.1,0-1.64a3.08,3.08,0,0,1,2.48-3S2.59,3.71,2.62,3.66Z"/><path class="cls-1" d="M16.62,3.66a1.88,1.88,0,0,1-1.38-2.13,1.85,1.85,0,0,1,3.63-.1c.22,1-.24,1.71-1.38,2.24a3.13,3.13,0,0,1,1.13.41A3,3,0,0,1,20.13,6.7c0,.55,0,1.09,0,1.64a.22.22,0,0,1-.22.23H14.22C14,8.57,14,8.5,14,8.34c0-.55,0-1.1,0-1.64a3.08,3.08,0,0,1,2.48-3C16.53,3.69,16.59,3.71,16.62,3.66Z"/><path class="cls-1" d="M10.74,13.83l.41-.47c.09-.1.17-.11.27,0s.41.42.63.63.09.17,0,.26c-.63.62-1.24,1.24-1.86,1.86a.18.18,0,0,1-.25,0L8.07,14.24a.14.14,0,0,1,0-.24l.66-.66c.09-.09.16-.08.24,0l.42.48a.46.46,0,0,0,0-.28c0-1.15,0-2.3,0-3.45,0-.21.05-.28.26-.27a4.7,4.7,0,0,0,.75,0c.19,0,.24.06.24.25v3.47A.46.46,0,0,0,10.74,13.83Z"/><path class="cls-1" d="M5.21,9.84h1.6a.21.21,0,0,1,.22.22v2a.21.21,0,0,1-.22.23H3.56a.22.22,0,0,1-.22-.22q0-1,0-2a.22.22,0,0,1,.22-.22Z"/><path class="cls-1" d="M14.92,12.3h-1.6a.22.22,0,0,1-.22-.22c0-.68,0-1.36,0-2a.22.22,0,0,1,.22-.23h3.25a.22.22,0,0,1,.22.23c0,.67,0,1.35,0,2a.22.22,0,0,1-.22.22Z"/></g></g></svg>