<?xml version="1.0" encoding="UTF-8"?><svg xmlns="http://www.w3.org/2000/svg" viewBox="0 0 198.59 207.25"><g id="a"/><g id="b"><g id="c"><g><rect x="30.6" width="11.22" height="11.22" fill="#a8a9aa"/><rect y="0" width="198.59" height="207.25" rx="2.52" ry="2.52" fill="#ebebeb"/><rect x="10.35" y="154.35" width="177.06" height="40.42" fill="#fff"/><g><path d="M23.83,170.77c.55,0,1.01,.07,1.37,.2,.36,.14,.63,.34,.81,.62,.18,.28,.27,.62,.27,1.05,0,.32-.06,.59-.18,.81-.12,.22-.27,.41-.46,.56-.19,.15-.39,.26-.61,.35l1.82,2.84h-1.19l-1.56-2.57h-1.03v2.57h-1.05v-6.42h1.81Zm-.07,.88h-.68v2.1h.73c.49,0,.84-.09,1.06-.27,.22-.18,.33-.45,.33-.8s-.12-.63-.35-.79c-.24-.16-.6-.23-1.09-.23Z" fill="#a8a9aa"/><path d="M29.6,172.24c.43,0,.81,.09,1.12,.27,.31,.18,.55,.43,.72,.76s.25,.72,.25,1.18v.55h-3.25c.01,.47,.14,.83,.38,1.09,.24,.25,.58,.38,1.02,.38,.31,0,.59-.03,.84-.09,.25-.06,.5-.15,.77-.27v.84c-.24,.12-.49,.2-.74,.25s-.55,.08-.91,.08c-.48,0-.9-.09-1.26-.28-.36-.18-.65-.46-.85-.83s-.3-.83-.3-1.38,.09-1.01,.28-1.39,.44-.67,.78-.87,.72-.3,1.17-.3Zm0,.78c-.32,0-.59,.11-.79,.32-.2,.21-.32,.52-.35,.93h2.21c0-.24-.04-.46-.12-.64-.08-.19-.19-.33-.35-.44-.16-.11-.35-.16-.6-.16Z" fill="#a8a9aa"/><path d="M34.48,177.28c-.58,0-1.04-.21-1.39-.63-.35-.42-.52-1.05-.52-1.88s.18-1.47,.53-1.89c.36-.43,.83-.64,1.41-.64,.24,0,.46,.03,.64,.1,.18,.07,.34,.16,.48,.27s.25,.24,.34,.37h.05c-.01-.09-.03-.22-.05-.39-.02-.17-.03-.33-.03-.48v-1.75h1.04v6.84h-.81l-.19-.66h-.04c-.09,.14-.2,.26-.33,.38-.13,.11-.29,.2-.48,.27-.19,.07-.4,.1-.65,.1Zm.29-.84c.44,0,.75-.13,.93-.38,.18-.25,.28-.64,.28-1.15v-.14c0-.54-.09-.96-.26-1.25-.17-.29-.49-.43-.96-.43-.37,0-.66,.15-.85,.45-.19,.3-.29,.72-.29,1.25s.1,.95,.29,1.23c.2,.28,.48,.42,.86,.42Z" fill="#a8a9aa"/><path d="M40.39,172.24c.43,0,.81,.09,1.12,.27,.31,.18,.55,.43,.72,.76s.25,.72,.25,1.18v.55h-3.25c.01,.47,.14,.83,.38,1.09,.24,.25,.58,.38,1.02,.38,.31,0,.59-.03,.84-.09,.25-.06,.5-.15,.77-.27v.84c-.24,.12-.49,.2-.74,.25s-.55,.08-.91,.08c-.48,0-.9-.09-1.26-.28-.36-.18-.65-.46-.85-.83s-.3-.83-.3-1.38,.09-1.01,.28-1.39,.44-.67,.78-.87,.72-.3,1.17-.3Zm0,.78c-.32,0-.59,.11-.79,.32-.2,.21-.32,.52-.35,.93h2.21c0-.24-.04-.46-.12-.64-.08-.19-.19-.33-.35-.44-.16-.11-.35-.16-.6-.16Z" fill="#a8a9aa"/><path d="M46.91,175.81c0,.32-.08,.59-.23,.81-.16,.22-.38,.39-.68,.5-.3,.11-.66,.17-1.09,.17-.34,0-.63-.02-.88-.07-.24-.05-.48-.12-.7-.22v-.89c.23,.11,.5,.2,.78,.28,.29,.08,.56,.12,.82,.12,.34,0,.58-.05,.73-.16,.15-.11,.23-.25,.23-.43,0-.11-.03-.2-.09-.28-.06-.08-.17-.17-.33-.26-.16-.09-.4-.2-.72-.32-.31-.12-.57-.25-.78-.37-.21-.12-.37-.27-.48-.45-.11-.17-.16-.39-.16-.67,0-.43,.17-.76,.51-.99,.34-.22,.79-.34,1.36-.34,.3,0,.58,.03,.85,.09,.27,.06,.53,.15,.78,.26l-.33,.78c-.22-.09-.44-.17-.66-.23-.22-.06-.45-.09-.67-.09-.27,0-.47,.04-.61,.12-.14,.08-.21,.2-.21,.35,0,.12,.03,.21,.1,.29,.07,.08,.18,.16,.35,.24,.17,.08,.4,.18,.69,.29,.29,.11,.54,.23,.75,.35,.21,.12,.38,.27,.49,.45,.12,.18,.17,.4,.17,.68Z" fill="#a8a9aa"/><path d="M53.62,175.81c0,.32-.08,.59-.23,.81-.16,.22-.38,.39-.68,.5-.3,.11-.66,.17-1.09,.17-.34,0-.63-.02-.88-.07-.24-.05-.48-.12-.7-.22v-.89c.23,.11,.5,.2,.78,.28,.29,.08,.56,.12,.82,.12,.34,0,.58-.05,.73-.16,.15-.11,.23-.25,.23-.43,0-.11-.03-.2-.09-.28-.06-.08-.17-.17-.33-.26-.16-.09-.4-.2-.72-.32-.31-.12-.57-.25-.78-.37-.21-.12-.37-.27-.48-.45-.11-.17-.16-.39-.16-.67,0-.43,.17-.76,.51-.99,.34-.22,.79-.34,1.36-.34,.3,0,.58,.03,.85,.09,.27,.06,.53,.15,.78,.26l-.33,.78c-.22-.09-.44-.17-.66-.23-.22-.06-.45-.09-.67-.09-.27,0-.47,.04-.61,.12-.14,.08-.21,.2-.21,.35,0,.12,.03,.21,.1,.29,.07,.08,.18,.16,.35,.24,.17,.08,.4,.18,.69,.29,.29,.11,.54,.23,.75,.35,.21,.12,.38,.27,.49,.45,.12,.18,.17,.4,.17,.68Z" fill="#a8a9aa"/><path d="M59.04,174.75c0,.4-.05,.76-.16,1.08-.11,.31-.26,.58-.46,.8-.2,.22-.45,.38-.73,.49s-.6,.17-.96,.17c-.33,0-.64-.06-.92-.17s-.52-.28-.72-.49c-.2-.22-.36-.48-.47-.8-.11-.31-.17-.67-.17-1.08,0-.54,.09-.99,.28-1.36,.19-.37,.45-.66,.8-.85s.76-.29,1.23-.29c.45,0,.84,.1,1.19,.29,.34,.2,.61,.48,.8,.86s.29,.83,.29,1.36Zm-3.53,0c0,.35,.04,.66,.13,.91,.09,.25,.22,.44,.4,.58,.18,.13,.42,.2,.7,.2s.52-.07,.7-.2c.18-.13,.32-.33,.4-.58,.09-.25,.13-.56,.13-.91s-.04-.65-.13-.9c-.09-.25-.22-.44-.4-.57-.18-.13-.42-.2-.7-.2-.43,0-.74,.14-.94,.43s-.29,.7-.29,1.23Z" fill="#a8a9aa"/><path d="M62.19,177.28c-.46,0-.86-.09-1.2-.27-.34-.18-.6-.45-.78-.82-.18-.37-.27-.84-.27-1.41s.1-1.08,.3-1.45c.2-.38,.47-.65,.83-.83,.35-.18,.76-.27,1.22-.27,.29,0,.55,.03,.79,.09,.24,.06,.44,.13,.6,.21l-.31,.83c-.18-.07-.36-.13-.55-.18-.19-.05-.37-.08-.54-.08-.28,0-.52,.06-.71,.19-.19,.13-.33,.32-.42,.56-.09,.25-.14,.56-.14,.92s.05,.66,.14,.9c.09,.24,.23,.43,.42,.55,.18,.12,.41,.19,.68,.19s.5-.03,.72-.1,.41-.15,.6-.25v.9c-.18,.11-.38,.18-.59,.24-.21,.05-.47,.08-.78,.08Z" fill="#a8a9aa"/><path d="M65.22,170.47c.16,0,.29,.04,.41,.13,.12,.08,.17,.23,.17,.44s-.06,.35-.17,.44c-.12,.09-.25,.13-.41,.13s-.3-.04-.42-.13-.17-.23-.17-.44,.06-.35,.17-.44,.25-.13,.42-.13Zm.51,1.86v4.87h-1.04v-4.87h1.04Z" fill="#a8a9aa"/><path d="M69.12,172.24c.62,0,1.08,.14,1.4,.41,.31,.27,.47,.7,.47,1.28v3.27h-.73l-.2-.69h-.04c-.14,.18-.28,.32-.43,.44-.15,.12-.31,.2-.5,.26-.19,.06-.42,.08-.7,.08-.29,0-.55-.05-.78-.16-.23-.11-.41-.27-.54-.49-.13-.22-.2-.5-.2-.83,0-.5,.19-.88,.56-1.13,.37-.25,.94-.39,1.69-.42l.84-.03v-.26c0-.33-.08-.57-.23-.72s-.38-.22-.66-.22c-.24,0-.48,.04-.71,.11s-.45,.16-.67,.26l-.34-.73c.24-.12,.51-.23,.82-.31,.3-.08,.62-.12,.95-.12Zm.84,2.63l-.62,.03c-.52,.02-.88,.11-1.09,.26-.21,.16-.31,.37-.31,.65,0,.24,.07,.42,.22,.53,.14,.11,.33,.16,.57,.16,.36,0,.65-.1,.89-.3,.23-.2,.35-.5,.35-.89v-.43Z" fill="#a8a9aa"/><path d="M73.47,177.2h-1.04v-6.84h1.04v6.84Z" fill="#a8a9aa"/><path d="M76.88,172.24c.43,0,.81,.09,1.12,.27,.31,.18,.55,.43,.72,.76s.25,.72,.25,1.18v.55h-3.25c.01,.47,.14,.83,.38,1.09,.24,.25,.58,.38,1.02,.38,.31,0,.59-.03,.84-.09,.25-.06,.5-.15,.77-.27v.84c-.24,.12-.49,.2-.74,.25s-.55,.08-.91,.08c-.48,0-.9-.09-1.26-.28-.36-.18-.65-.46-.85-.83s-.3-.83-.3-1.38,.09-1.01,.28-1.39,.44-.67,.78-.87,.72-.3,1.17-.3Zm0,.78c-.32,0-.59,.11-.79,.32-.2,.21-.32,.52-.35,.93h2.21c0-.24-.04-.46-.12-.64-.08-.19-.19-.33-.35-.44-.16-.11-.35-.16-.6-.16Z" fill="#a8a9aa"/><path d="M83.39,175.81c0,.32-.08,.59-.23,.81-.16,.22-.38,.39-.68,.5-.3,.11-.66,.17-1.09,.17-.34,0-.63-.02-.88-.07-.24-.05-.48-.12-.7-.22v-.89c.23,.11,.5,.2,.78,.28,.29,.08,.56,.12,.82,.12,.34,0,.58-.05,.73-.16,.15-.11,.23-.25,.23-.43,0-.11-.03-.2-.09-.28-.06-.08-.17-.17-.33-.26-.16-.09-.4-.2-.72-.32-.31-.12-.57-.25-.78-.37-.21-.12-.37-.27-.48-.45-.11-.17-.16-.39-.16-.67,0-.43,.17-.76,.51-.99,.34-.22,.79-.34,1.36-.34,.3,0,.58,.03,.85,.09,.27,.06,.53,.15,.78,.26l-.33,.78c-.22-.09-.44-.17-.66-.23-.22-.06-.45-.09-.67-.09-.27,0-.47,.04-.61,.12-.14,.08-.21,.2-.21,.35,0,.12,.03,.21,.1,.29,.07,.08,.18,.16,.35,.24,.17,.08,.4,.18,.69,.29,.29,.11,.54,.23,.75,.35,.21,.12,.38,.27,.49,.45,.12,.18,.17,.4,.17,.68Z" fill="#a8a9aa"/></g><g><path d="M106.19,172.04c0-1.53-1.25-2.77-2.77-2.77h-5.06c-1.53,0-2.77,1.25-2.77,2.77v5.06c0,1.53,1.25,2.77,2.77,2.77h1.7v-3.6h-1.35v-1.53h1.35v-1.17c0-1.33,.79-2.06,2-2.06,.58,0,1.19,.1,1.19,.1v1.3h-.67c-.66,0-.86,.41-.86,.83v.99h1.47l-.24,1.53h-1.24v3.6h1.7c1.53,0,2.77-1.25,2.77-2.77v-5.06Z" fill="#a8a9aa"/><polygon points="100.05 179.87 101.71 179.87 100.82 179.65 100.05 179.87" fill="#a8a9aa"/></g><path d="M120.19,168.9c-3.13,0-5.66,2.53-5.66,5.66s2.53,5.66,5.66,5.66,5.66-2.53,5.66-5.66-2.53-5.66-5.66-5.66Zm-1.98,7.08c-.78,0-1.42-.63-1.42-1.42s.63-1.42,1.42-1.42,1.42,.63,1.42,1.42-.63,1.42-1.42,1.42Zm3.4,0c-.78,0-1.42-.63-1.42-1.42s.63-1.42,1.42-1.42,1.42,.63,1.42,1.42-.63,1.42-1.42,1.42Z" fill="#a8a9aa"/><path d="M166.59,171.9c0-1.62-1.32-2.94-2.94-2.94h-7.52c-1.62,0-2.94,1.32-2.94,2.94v3.5c0,1.62,1.32,2.94,2.94,2.94h7.52c1.62,0,2.94-1.32,2.94-2.94v-3.5Zm-4.42,2.01l-3.37,1.67c-.13,.07-.58-.02-.58-.17v-3.43c0-.15,.45-.25,.59-.17l3.23,1.76c.14,.08,.28,.27,.14,.35Z" fill="#a8a9aa"/><path d="M144.18,171.43c-.32,.14-.67,.23-1.01,.29,.16-.03,.4-.32,.5-.44,.15-.18,.27-.39,.34-.61,0-.02,.02-.04,0-.05-.02,0-.04,0-.05,0-.38,.21-.78,.35-1.2,.46-.03,0-.06,0-.08-.02-.03-.04-.07-.08-.11-.11-.18-.15-.37-.27-.58-.36-.28-.11-.59-.16-.89-.14-.3,.02-.59,.1-.85,.24-.26,.14-.5,.33-.68,.56-.19,.24-.34,.52-.41,.82-.07,.29-.06,.57-.02,.86,0,.05,0,.05-.04,.05-1.65-.25-3.02-.84-4.13-2.1-.05-.05-.07-.05-.11,0-.49,.73-.25,1.9,.36,2.48,.08,.08,.16,.15,.25,.22-.03,0-.44-.04-.8-.22-.05-.03-.07-.01-.08,.04,0,.08,0,.15,.01,.24,.09,.74,.61,1.42,1.31,1.69,.08,.04,.18,.07,.26,.08-.16,.04-.32,.06-.78,.02-.06-.01-.08,.02-.06,.07,.34,.94,1.09,1.22,1.64,1.38,.07,.01,.15,.01,.22,.03,0,0,0,0-.01,.01-.18,.28-.82,.49-1.12,.59-.54,.19-1.13,.27-1.7,.22-.09-.01-.11-.01-.14,0-.03,.02,0,.04,.03,.06,.12,.08,.23,.14,.35,.21,.36,.19,.74,.35,1.14,.46,2.05,.57,4.35,.15,5.89-1.38,1.21-1.2,1.63-2.85,1.63-4.51,0-.06,.08-.1,.12-.13,.31-.24,.57-.52,.8-.83,.05-.07,.05-.13,.05-.16h0s0-.03-.04,0Z" fill="#a8a9aa"/><rect x="104.08" y="10.64" width="82.58" height="132.55" fill="#fff"/><g><rect x="11.33" y="10.64" width="81.66" height="132.55" fill="#fff"/><g><path d="M39.27,56.21v-20.18c.02-.08,.05-.15,.06-.23,.4-1.6,1.89-2.6,3.37-2.59,6.33,.02,12.66,0,18.99,.01,1.86,0,3.36,1.5,3.36,3.36,0,6.36,0,12.72,0,19.07,0,.95-.36,1.76-1.03,2.43-.5,.5-1.11,.76-1.78,.93h-20.18c-.37-.1-.74-.2-1.07-.4-.94-.54-1.48-1.35-1.72-2.4Zm23.99-9.22c.06-.05,.04-.12,.04-.18,0-3.37,0-6.74,0-10.12,0-1.03-.7-1.72-1.73-1.72-6.27,0-12.54,0-18.81,0-.32,0-.64,.06-.93,.23-.6,.36-.82,.92-.82,1.59,0,3.26,0,6.51,0,9.77,0,.09-.03,.18,.05,.28,.08-.06,.16-.11,.23-.17,2.12-1.66,4.24-3.32,6.36-4.98,1.05-.82,2.05-.75,2.97,.23,1.65,1.76,3.29,3.51,4.93,5.27,.15,.16,.23,.15,.38,0,.72-.78,1.45-1.56,2.18-2.33,.86-.91,2.05-.93,2.94-.04,.67,.66,1.32,1.33,1.99,2,.07,.07,.12,.16,.22,.18Z" fill="#a8a9aa"/><path d="M53.97,41.01c0-.96,.78-1.74,1.74-1.73,.94,0,1.72,.78,1.72,1.73,0,.93-.78,1.72-1.72,1.74-.94,.01-1.75-.78-1.75-1.73Z" fill="#a8a9aa"/></g><g><path d="M21.17,77.04v-6.42h1.05v6.42h-1.05Z" fill="#a8a9aa"/><path d="M29.31,72.08c.54,0,.96,.14,1.23,.42,.28,.28,.42,.73,.42,1.35v3.18h-1.03v-2.99c0-.37-.07-.65-.22-.84-.14-.19-.36-.28-.66-.28-.41,0-.71,.13-.88,.39-.18,.26-.27,.64-.27,1.14v2.58h-1.03v-2.99c0-.25-.03-.46-.09-.62-.06-.17-.16-.29-.29-.37-.13-.08-.29-.12-.49-.12-.28,0-.51,.06-.68,.19-.17,.13-.29,.32-.36,.57-.07,.25-.11,.56-.11,.92v2.43h-1.04v-4.87h.81l.14,.66h.06c.1-.17,.22-.31,.37-.42,.15-.11,.31-.19,.49-.25,.18-.05,.37-.08,.57-.08,.36,0,.67,.06,.92,.19,.25,.13,.44,.32,.56,.58h.08c.15-.26,.37-.46,.64-.58s.56-.19,.87-.19Z" fill="#a8a9aa"/><path d="M34.3,72.08c.62,0,1.08,.14,1.4,.41,.31,.27,.47,.7,.47,1.28v3.27h-.73l-.2-.69h-.04c-.14,.18-.28,.32-.43,.44-.15,.12-.31,.2-.5,.26-.19,.06-.42,.08-.7,.08-.29,0-.55-.05-.78-.16-.23-.11-.41-.27-.54-.49-.13-.22-.2-.5-.2-.83,0-.5,.19-.88,.56-1.13,.37-.25,.94-.39,1.69-.42l.84-.03v-.26c0-.33-.08-.57-.23-.72s-.38-.22-.66-.22c-.24,0-.48,.04-.71,.11s-.45,.16-.67,.26l-.34-.73c.24-.12,.51-.23,.82-.31,.3-.08,.62-.12,.95-.12Zm.84,2.63l-.62,.03c-.52,.02-.88,.11-1.09,.26-.21,.16-.31,.37-.31,.65,0,.24,.07,.42,.22,.53,.14,.11,.33,.16,.57,.16,.36,0,.65-.1,.89-.3,.23-.2,.35-.5,.35-.89v-.43Z" fill="#a8a9aa"/><path d="M39,79.2c-.66,0-1.17-.12-1.52-.36-.35-.24-.53-.57-.53-1,0-.3,.09-.55,.28-.76,.19-.21,.46-.35,.81-.42-.13-.06-.25-.15-.34-.28s-.14-.26-.14-.42c0-.18,.05-.34,.16-.46,.1-.13,.26-.25,.46-.37-.26-.11-.46-.29-.61-.53-.15-.25-.23-.53-.23-.86,0-.35,.08-.65,.23-.9,.15-.25,.37-.44,.66-.57,.29-.13,.63-.2,1.04-.2,.09,0,.18,0,.29,.01,.1,.01,.2,.02,.29,.04,.09,.01,.16,.03,.21,.04h1.68v.58l-.83,.15c.08,.11,.14,.24,.19,.38,.05,.14,.07,.3,.07,.46,0,.5-.17,.9-.52,1.19-.35,.29-.83,.43-1.43,.43-.15,0-.29-.01-.43-.04-.11,.07-.19,.14-.24,.21s-.08,.16-.08,.26c0,.08,.03,.14,.08,.19,.06,.05,.14,.08,.25,.11,.11,.02,.24,.04,.4,.04h.84c.53,0,.94,.11,1.22,.34s.42,.56,.42,.99c0,.55-.23,.98-.69,1.28-.46,.3-1.11,.45-1.97,.45Zm.04-.72c.36,0,.66-.04,.91-.11s.43-.17,.56-.3c.13-.13,.19-.29,.19-.46,0-.16-.04-.28-.12-.36-.08-.08-.2-.14-.36-.17-.16-.03-.35-.05-.59-.05h-.76c-.19,0-.36,.03-.5,.09-.15,.06-.26,.15-.34,.26-.08,.11-.12,.25-.12,.41,0,.22,.1,.39,.3,.51,.2,.12,.48,.18,.84,.18Zm.2-3.79c.3,0,.52-.08,.67-.25,.15-.17,.22-.4,.22-.7,0-.32-.07-.57-.22-.73s-.37-.25-.67-.25-.51,.08-.66,.25c-.15,.17-.23,.41-.23,.74,0,.3,.08,.53,.23,.69,.15,.17,.37,.25,.67,.25Z" fill="#a8a9aa"/><path d="M44.54,72.08c.43,0,.81,.09,1.12,.27,.31,.18,.55,.43,.72,.76s.25,.72,.25,1.18v.55h-3.25c.01,.47,.14,.83,.38,1.09,.24,.25,.58,.38,1.02,.38,.31,0,.59-.03,.84-.09,.25-.06,.5-.15,.77-.27v.84c-.24,.12-.49,.2-.74,.25s-.55,.08-.91,.08c-.48,0-.9-.09-1.26-.28-.36-.18-.65-.46-.85-.83s-.3-.83-.3-1.38,.09-1.01,.28-1.39,.44-.67,.78-.87,.72-.3,1.17-.3Zm0,.78c-.32,0-.59,.11-.79,.32-.2,.21-.32,.52-.35,.93h2.21c0-.24-.04-.46-.12-.64-.08-.19-.19-.33-.35-.44-.16-.11-.35-.16-.6-.16Z" fill="#a8a9aa"/><path d="M50.32,72.08c.55,0,.98,.14,1.28,.42,.31,.28,.46,.74,.46,1.36v3.17h-1.03v-2.98c0-.38-.08-.66-.23-.85-.16-.19-.39-.28-.72-.28-.47,0-.8,.15-.98,.44-.18,.29-.27,.71-.27,1.26v2.42h-1.04v-4.87h.81l.14,.66h.06c.11-.17,.24-.31,.39-.42,.16-.11,.33-.19,.53-.25,.2-.06,.4-.08,.61-.08Z" fill="#a8a9aa"/><path d="M60.15,74.59c0,.4-.05,.76-.16,1.08-.11,.31-.26,.58-.46,.8-.2,.22-.45,.38-.73,.49s-.6,.17-.96,.17c-.33,0-.64-.06-.92-.17s-.52-.28-.72-.49c-.2-.22-.36-.48-.47-.8-.11-.31-.17-.67-.17-1.08,0-.54,.09-.99,.28-1.36,.19-.37,.45-.66,.8-.85s.76-.29,1.23-.29c.45,0,.84,.1,1.19,.29,.34,.2,.61,.48,.8,.86s.29,.83,.29,1.36Zm-3.53,0c0,.35,.04,.66,.13,.91,.09,.25,.22,.44,.4,.58,.18,.13,.42,.2,.7,.2s.52-.07,.7-.2c.18-.13,.32-.33,.4-.58,.09-.25,.13-.56,.13-.91s-.04-.65-.13-.9c-.09-.25-.22-.44-.4-.57-.18-.13-.42-.2-.7-.2-.43,0-.74,.14-.94,.43s-.29,.7-.29,1.23Z" fill="#a8a9aa"/><path d="M66.37,73.55h2.4v3.23c-.34,.11-.69,.2-1.04,.26-.36,.06-.76,.09-1.22,.09-.65,0-1.21-.13-1.66-.39-.45-.26-.79-.63-1.03-1.13s-.35-1.09-.35-1.79,.13-1.25,.39-1.75c.26-.49,.64-.88,1.14-1.15,.5-.27,1.1-.41,1.81-.41,.35,0,.69,.04,1.01,.11,.33,.07,.63,.17,.9,.28l-.37,.87c-.22-.1-.46-.19-.73-.26-.27-.07-.55-.11-.84-.11-.46,0-.86,.1-1.19,.3-.33,.2-.59,.48-.77,.84-.18,.36-.27,.79-.27,1.28s.07,.9,.22,1.26c.14,.36,.37,.64,.67,.84,.31,.2,.7,.3,1.19,.3,.24,0,.45-.01,.62-.04,.17-.03,.33-.06,.47-.09v-1.65h-1.36v-.91Z" fill="#a8a9aa"/><path d="M70.31,77.04v-6.42h1.05v6.42h-1.05Z" fill="#a8a9aa"/><path d="M74.1,77.04h-1.05v-6.42h3.63v.89h-2.58v2h2.42v.89h-2.42v2.65Z" fill="#a8a9aa"/><path d="M23.4,87.04h-1.06v-5.53h-1.88v-.9h4.82v.9h-1.88v5.53Z" fill="#a8a9aa"/><path d="M28.05,82.08c.62,0,1.08,.14,1.4,.41,.31,.27,.47,.7,.47,1.28v3.27h-.73l-.2-.69h-.04c-.14,.18-.28,.32-.43,.44-.15,.12-.31,.2-.5,.26-.19,.06-.42,.08-.7,.08-.29,0-.55-.05-.78-.16-.23-.11-.41-.27-.54-.49-.13-.22-.2-.5-.2-.83,0-.5,.19-.88,.56-1.13,.37-.25,.94-.39,1.69-.42l.84-.03v-.26c0-.33-.08-.57-.23-.72s-.38-.22-.66-.22c-.24,0-.48,.04-.71,.11s-.45,.16-.67,.26l-.34-.73c.24-.12,.51-.23,.82-.31,.3-.08,.62-.12,.95-.12Zm.84,2.63l-.62,.03c-.52,.02-.88,.11-1.09,.26-.21,.16-.31,.37-.31,.65,0,.24,.07,.42,.22,.53,.14,.11,.33,.16,.57,.16,.36,0,.65-.1,.89-.3,.23-.2,.35-.5,.35-.89v-.43Z" fill="#a8a9aa"/><path d="M36.86,82.08c.54,0,.96,.14,1.23,.42,.28,.28,.42,.73,.42,1.35v3.18h-1.03v-2.99c0-.37-.07-.65-.22-.84-.14-.19-.36-.28-.66-.28-.41,0-.71,.13-.88,.39-.18,.26-.27,.64-.27,1.14v2.58h-1.03v-2.99c0-.25-.03-.46-.09-.62-.06-.17-.16-.29-.29-.37-.13-.08-.29-.12-.49-.12-.28,0-.51,.06-.68,.19-.17,.13-.29,.32-.36,.57-.07,.25-.11,.56-.11,.92v2.43h-1.04v-4.87h.81l.14,.66h.06c.1-.17,.22-.31,.37-.42,.15-.11,.31-.19,.49-.25,.18-.05,.37-.08,.57-.08,.36,0,.67,.06,.92,.19,.25,.13,.44,.32,.56,.58h.08c.15-.26,.37-.46,.64-.58s.56-.19,.87-.19Z" fill="#a8a9aa"/><path d="M41.86,82.08c.62,0,1.08,.14,1.4,.41,.31,.27,.47,.7,.47,1.28v3.27h-.73l-.2-.69h-.04c-.14,.18-.28,.32-.43,.44-.15,.12-.31,.2-.5,.26-.19,.06-.42,.08-.7,.08-.29,0-.55-.05-.78-.16-.23-.11-.41-.27-.54-.49-.13-.22-.2-.5-.2-.83,0-.5,.19-.88,.56-1.13,.37-.25,.94-.39,1.69-.42l.84-.03v-.26c0-.33-.08-.57-.23-.72s-.38-.22-.66-.22c-.24,0-.48,.04-.71,.11s-.45,.16-.67,.26l-.34-.73c.24-.12,.51-.23,.82-.31,.3-.08,.62-.12,.95-.12Zm.84,2.63l-.62,.03c-.52,.02-.88,.11-1.09,.26-.21,.16-.31,.37-.31,.65,0,.24,.07,.42,.22,.53,.14,.11,.33,.16,.57,.16,.36,0,.65-.1,.89-.3,.23-.2,.35-.5,.35-.89v-.43Z" fill="#a8a9aa"/><path d="M47.71,82.08c.55,0,.98,.14,1.28,.42,.31,.28,.46,.74,.46,1.36v3.17h-1.03v-2.98c0-.38-.08-.66-.23-.85-.16-.19-.39-.28-.72-.28-.47,0-.8,.15-.98,.44-.18,.29-.27,.71-.27,1.26v2.42h-1.04v-4.87h.81l.14,.66h.06c.11-.17,.24-.31,.39-.42,.16-.11,.33-.19,.53-.25,.2-.06,.4-.08,.61-.08Zm-2.15-.5c.02-.21,.06-.39,.11-.54,.06-.15,.14-.28,.23-.39,.1-.1,.21-.18,.33-.24,.12-.05,.26-.08,.41-.08,.13,0,.25,.03,.37,.07,.12,.05,.23,.11,.35,.17,.11,.07,.22,.12,.33,.17,.11,.05,.21,.07,.31,.07,.11,0,.21-.04,.29-.12,.08-.08,.14-.21,.18-.38h.54c-.04,.4-.15,.71-.35,.92-.2,.21-.44,.32-.73,.32-.12,0-.24-.02-.36-.07-.12-.05-.23-.11-.34-.17-.11-.06-.22-.12-.33-.17-.11-.05-.21-.08-.32-.08-.12,0-.22,.04-.3,.12-.08,.08-.14,.21-.18,.38h-.54Z" fill="#a8a9aa"/><path d="M55.2,84.59c0,.4-.05,.76-.16,1.08-.11,.31-.26,.58-.46,.8-.2,.22-.45,.38-.73,.49s-.6,.17-.96,.17c-.33,0-.64-.06-.92-.17s-.52-.28-.72-.49c-.2-.22-.36-.48-.47-.8-.11-.31-.17-.67-.17-1.08,0-.54,.09-.99,.28-1.36,.19-.37,.45-.66,.8-.85s.76-.29,1.23-.29c.45,0,.84,.1,1.19,.29,.34,.2,.61,.48,.8,.86s.29,.83,.29,1.36Zm-3.53,0c0,.35,.04,.66,.13,.91,.09,.25,.22,.44,.4,.58,.18,.13,.42,.2,.7,.2s.52-.07,.7-.2c.18-.13,.32-.33,.4-.58,.09-.25,.13-.56,.13-.91s-.04-.65-.13-.9c-.09-.25-.22-.44-.4-.57-.18-.13-.42-.2-.7-.2-.43,0-.74,.14-.94,.43s-.29,.7-.29,1.23Z" fill="#a8a9aa"/><path d="M60.35,87.13c-.58,0-1.04-.21-1.39-.63-.35-.42-.52-1.05-.52-1.88s.18-1.47,.53-1.89c.36-.43,.83-.64,1.41-.64,.24,0,.46,.03,.64,.1,.18,.07,.34,.16,.48,.27s.25,.24,.34,.37h.05c-.01-.09-.03-.22-.05-.39-.02-.17-.03-.33-.03-.48v-1.75h1.04v6.84h-.81l-.19-.66h-.04c-.09,.14-.2,.26-.33,.38-.13,.11-.29,.2-.48,.27-.19,.07-.4,.1-.65,.1Zm.29-.84c.44,0,.75-.13,.93-.38,.18-.25,.28-.64,.28-1.15v-.14c0-.54-.09-.96-.26-1.25-.17-.29-.49-.43-.96-.43-.37,0-.66,.15-.85,.45-.19,.3-.29,.72-.29,1.25s.1,.95,.29,1.23c.2,.28,.48,.42,.86,.42Z" fill="#a8a9aa"/><path d="M66.26,82.08c.43,0,.81,.09,1.12,.27,.31,.18,.55,.43,.72,.76s.25,.72,.25,1.18v.55h-3.25c.01,.47,.14,.83,.38,1.09,.24,.25,.58,.38,1.02,.38,.31,0,.59-.03,.84-.09,.25-.06,.5-.15,.77-.27v.84c-.24,.12-.49,.2-.74,.25s-.55,.08-.91,.08c-.48,0-.9-.09-1.26-.28-.36-.18-.65-.46-.85-.83s-.3-.83-.3-1.38,.09-1.01,.28-1.39,.44-.67,.78-.87,.72-.3,1.17-.3Zm0,.78c-.32,0-.59,.11-.79,.32-.2,.21-.32,.52-.35,.93h2.21c0-.24-.04-.46-.12-.64-.08-.19-.19-.33-.35-.44-.16-.11-.35-.16-.6-.16Z" fill="#a8a9aa"/><path d="M21.59,90.31c.16,0,.29,.04,.41,.13,.12,.08,.17,.23,.17,.44s-.06,.35-.17,.44c-.12,.09-.25,.13-.41,.13s-.3-.04-.42-.13-.17-.23-.17-.44,.06-.35,.17-.44,.25-.13,.42-.13Zm.51,1.86v4.87h-1.04v-4.87h1.04Z" fill="#a8a9aa"/><path d="M29.07,92.08c.54,0,.96,.14,1.23,.42,.28,.28,.42,.73,.42,1.35v3.18h-1.03v-2.99c0-.37-.07-.65-.22-.84-.14-.19-.36-.28-.66-.28-.41,0-.71,.13-.88,.39-.18,.26-.27,.64-.27,1.14v2.58h-1.03v-2.99c0-.25-.03-.46-.09-.62-.06-.17-.16-.29-.29-.37-.13-.08-.29-.12-.49-.12-.28,0-.51,.06-.68,.19-.17,.13-.29,.32-.36,.57-.07,.25-.11,.56-.11,.92v2.43h-1.04v-4.87h.81l.14,.66h.06c.1-.17,.22-.31,.37-.42,.15-.11,.31-.19,.49-.25,.18-.05,.37-.08,.57-.08,.36,0,.67,.06,.92,.19,.25,.13,.44,.32,.56,.58h.08c.15-.26,.37-.46,.64-.58s.56-.19,.87-.19Z" fill="#a8a9aa"/><path d="M34.07,92.08c.62,0,1.08,.14,1.4,.41,.31,.27,.47,.7,.47,1.28v3.27h-.73l-.2-.69h-.04c-.14,.18-.28,.32-.43,.44-.15,.12-.31,.2-.5,.26-.19,.06-.42,.08-.7,.08-.29,0-.55-.05-.78-.16-.23-.11-.41-.27-.54-.49-.13-.22-.2-.5-.2-.83,0-.5,.19-.88,.56-1.13,.37-.25,.94-.39,1.69-.42l.84-.03v-.26c0-.33-.08-.57-.23-.72s-.38-.22-.66-.22c-.24,0-.48,.04-.71,.11s-.45,.16-.67,.26l-.34-.73c.24-.12,.51-.23,.82-.31,.3-.08,.62-.12,.95-.12Zm.84,2.63l-.62,.03c-.52,.02-.88,.11-1.09,.26-.21,.16-.31,.37-.31,.65,0,.24,.07,.42,.22,.53,.14,.11,.33,.16,.57,.16,.36,0,.65-.1,.89-.3,.23-.2,.35-.5,.35-.89v-.43Z" fill="#a8a9aa"/><path d="M38.77,99.2c-.66,0-1.17-.12-1.52-.36-.35-.24-.53-.57-.53-1,0-.3,.09-.55,.28-.76,.19-.21,.46-.35,.81-.42-.13-.06-.25-.15-.34-.28s-.14-.26-.14-.42c0-.18,.05-.34,.16-.46,.1-.13,.26-.25,.46-.37-.26-.11-.46-.29-.61-.53-.15-.25-.23-.53-.23-.86,0-.35,.08-.65,.23-.9,.15-.25,.37-.44,.66-.57,.29-.13,.63-.2,1.04-.2,.09,0,.18,0,.29,.01,.1,.01,.2,.02,.29,.04,.09,.01,.16,.03,.21,.04h1.68v.58l-.83,.15c.08,.11,.14,.24,.19,.38,.05,.14,.07,.3,.07,.46,0,.5-.17,.9-.52,1.19-.35,.29-.83,.43-1.43,.43-.15,0-.29-.01-.43-.04-.11,.07-.19,.14-.24,.21s-.08,.16-.08,.26c0,.08,.03,.14,.08,.19,.06,.05,.14,.08,.25,.11,.11,.02,.24,.04,.4,.04h.84c.53,0,.94,.11,1.22,.34s.42,.56,.42,.99c0,.55-.23,.98-.69,1.28-.46,.3-1.11,.45-1.97,.45Zm.04-.72c.36,0,.66-.04,.91-.11s.43-.17,.56-.3c.13-.13,.19-.29,.19-.46,0-.16-.04-.28-.12-.36-.08-.08-.2-.14-.36-.17-.16-.03-.35-.05-.59-.05h-.76c-.19,0-.36,.03-.5,.09-.15,.06-.26,.15-.34,.26-.08,.11-.12,.25-.12,.41,0,.22,.1,.39,.3,.51,.2,.12,.48,.18,.84,.18Zm.2-3.79c.3,0,.52-.08,.67-.25,.15-.17,.22-.4,.22-.7,0-.32-.07-.57-.22-.73s-.37-.25-.67-.25-.51,.08-.66,.25c-.15,.17-.23,.41-.23,.74,0,.3,.08,.53,.23,.69,.15,.17,.37,.25,.67,.25Z" fill="#a8a9aa"/><path d="M44.3,92.08c.43,0,.81,.09,1.12,.27,.31,.18,.55,.43,.72,.76s.25,.72,.25,1.18v.55h-3.25c.01,.47,.14,.83,.38,1.09,.24,.25,.58,.38,1.02,.38,.31,0,.59-.03,.84-.09,.25-.06,.5-.15,.77-.27v.84c-.24,.12-.49,.2-.74,.25s-.55,.08-.91,.08c-.48,0-.9-.09-1.26-.28-.36-.18-.65-.46-.85-.83s-.3-.83-.3-1.38,.09-1.01,.28-1.39,.44-.67,.78-.87,.72-.3,1.17-.3Zm0,.78c-.32,0-.59,.11-.79,.32-.2,.21-.32,.52-.35,.93h2.21c0-.24-.04-.46-.12-.64-.08-.19-.19-.33-.35-.44-.16-.11-.35-.16-.6-.16Z" fill="#a8a9aa"/><path d="M50.09,92.08c.55,0,.98,.14,1.28,.42,.31,.28,.46,.74,.46,1.36v3.17h-1.03v-2.98c0-.38-.08-.66-.23-.85-.16-.19-.39-.28-.72-.28-.47,0-.8,.15-.98,.44-.18,.29-.27,.71-.27,1.26v2.42h-1.04v-4.87h.81l.14,.66h.06c.11-.17,.24-.31,.39-.42,.16-.11,.33-.19,.53-.25,.2-.06,.4-.08,.61-.08Z" fill="#a8a9aa"/><path d="M24.33,105.65c0,.32-.08,.59-.23,.81-.16,.22-.38,.39-.68,.5-.3,.11-.66,.17-1.09,.17-.34,0-.63-.02-.88-.07-.24-.05-.48-.12-.7-.22v-.89c.23,.11,.5,.2,.78,.28,.29,.08,.56,.12,.82,.12,.34,0,.58-.05,.73-.16,.15-.11,.23-.25,.23-.43,0-.11-.03-.2-.09-.28-.06-.08-.17-.17-.33-.26-.16-.09-.4-.2-.72-.32-.31-.12-.57-.25-.78-.37-.21-.12-.37-.27-.48-.45-.11-.17-.16-.39-.16-.67,0-.43,.17-.76,.51-.99,.34-.22,.79-.34,1.36-.34,.3,0,.58,.03,.85,.09,.27,.06,.53,.15,.78,.26l-.33,.78c-.22-.09-.44-.17-.66-.23-.22-.06-.45-.09-.67-.09-.27,0-.47,.04-.61,.12-.14,.08-.21,.2-.21,.35,0,.12,.03,.21,.1,.29,.07,.08,.18,.16,.35,.24,.17,.08,.4,.18,.69,.29,.29,.11,.54,.23,.75,.35,.21,.12,.38,.27,.49,.45,.12,.18,.17,.4,.17,.68Z" fill="#a8a9aa"/><path d="M29.68,102.17v4.87h-.81l-.14-.65h-.05c-.1,.17-.23,.31-.39,.42-.16,.11-.33,.19-.53,.24-.2,.05-.4,.08-.61,.08-.36,0-.67-.06-.93-.19-.26-.12-.46-.32-.6-.58-.14-.26-.21-.6-.21-1.01v-3.18h1.04v2.98c0,.38,.08,.66,.23,.85,.15,.19,.39,.28,.72,.28s.56-.06,.74-.19c.18-.13,.31-.32,.39-.57s.12-.56,.12-.93v-2.42h1.04Z" fill="#a8a9aa"/><path d="M32.55,109.2c-.66,0-1.17-.12-1.52-.36-.35-.24-.53-.57-.53-1,0-.3,.09-.55,.28-.76,.19-.21,.46-.35,.81-.42-.13-.06-.25-.15-.34-.28s-.14-.26-.14-.42c0-.18,.05-.34,.16-.46,.1-.13,.26-.25,.46-.37-.26-.11-.46-.29-.61-.53-.15-.25-.23-.53-.23-.86,0-.35,.08-.65,.23-.9,.15-.25,.37-.44,.66-.57,.29-.13,.63-.2,1.04-.2,.09,0,.18,0,.29,.01,.1,.01,.2,.02,.29,.04,.09,.01,.16,.03,.21,.04h1.68v.58l-.83,.15c.08,.11,.14,.24,.19,.38,.05,.14,.07,.3,.07,.46,0,.5-.17,.9-.52,1.19-.35,.29-.83,.43-1.43,.43-.15,0-.29-.01-.43-.04-.11,.07-.19,.14-.24,.21s-.08,.16-.08,.26c0,.08,.03,.14,.08,.19,.06,.05,.14,.08,.25,.11,.11,.02,.24,.04,.4,.04h.84c.53,0,.94,.11,1.22,.34s.42,.56,.42,.99c0,.55-.23,.98-.69,1.28-.46,.3-1.11,.45-1.97,.45Zm.04-.72c.36,0,.66-.04,.91-.11s.43-.17,.56-.3c.13-.13,.19-.29,.19-.46,0-.16-.04-.28-.12-.36-.08-.08-.2-.14-.36-.17-.16-.03-.35-.05-.59-.05h-.76c-.19,0-.36,.03-.5,.09-.15,.06-.26,.15-.34,.26-.08,.11-.12,.25-.12,.41,0,.22,.1,.39,.3,.51,.2,.12,.48,.18,.84,.18Zm.2-3.79c.3,0,.52-.08,.67-.25,.15-.17,.22-.4,.22-.7,0-.32-.07-.57-.22-.73s-.37-.25-.67-.25-.51,.08-.66,.25c-.15,.17-.23,.41-.23,.74,0,.3,.08,.53,.23,.69,.15,.17,.37,.25,.67,.25Z" fill="#a8a9aa"/><path d="M38.09,102.08c.43,0,.81,.09,1.12,.27,.31,.18,.55,.43,.72,.76s.25,.72,.25,1.18v.55h-3.25c.01,.47,.14,.83,.38,1.09,.24,.25,.58,.38,1.02,.38,.31,0,.59-.03,.84-.09,.25-.06,.5-.15,.77-.27v.84c-.24,.12-.49,.2-.74,.25s-.55,.08-.91,.08c-.48,0-.9-.09-1.26-.28-.36-.18-.65-.46-.85-.83s-.3-.83-.3-1.38,.09-1.01,.28-1.39,.44-.67,.78-.87,.72-.3,1.17-.3Zm0,.78c-.32,0-.59,.11-.79,.32-.2,.21-.32,.52-.35,.93h2.21c0-.24-.04-.46-.12-.64-.08-.19-.19-.33-.35-.44-.16-.11-.35-.16-.6-.16Z" fill="#a8a9aa"/><path d="M43.8,102.08c.08,0,.17,0,.27,.01,.1,0,.18,.02,.25,.04l-.1,.97c-.06-.02-.14-.03-.23-.04-.09,0-.17-.01-.24-.01-.19,0-.36,.03-.53,.09-.17,.06-.32,.15-.44,.27-.13,.12-.23,.27-.3,.46s-.11,.39-.11,.63v2.54h-1.04v-4.87h.81l.14,.86h.05c.1-.17,.22-.33,.36-.47s.31-.26,.5-.34c.19-.09,.39-.13,.61-.13Z" fill="#a8a9aa"/><path d="M45.74,100.31c.16,0,.29,.04,.41,.13,.12,.08,.17,.23,.17,.44s-.06,.35-.17,.44c-.12,.09-.25,.13-.41,.13s-.3-.04-.42-.13-.17-.23-.17-.44,.06-.35,.17-.44,.25-.13,.42-.13Zm.51,1.86v4.87h-1.04v-4.87h1.04Z" fill="#a8a9aa"/><path d="M49.36,107.13c-.58,0-1.04-.21-1.39-.63-.35-.42-.52-1.05-.52-1.88s.18-1.47,.53-1.89c.36-.43,.83-.64,1.41-.64,.24,0,.46,.03,.64,.1,.18,.07,.34,.16,.48,.27s.25,.24,.34,.37h.05c-.01-.09-.03-.22-.05-.39-.02-.17-.03-.33-.03-.48v-1.75h1.04v6.84h-.81l-.19-.66h-.04c-.09,.14-.2,.26-.33,.38-.13,.11-.29,.2-.48,.27-.19,.07-.4,.1-.65,.1Zm.29-.84c.44,0,.75-.13,.93-.38,.18-.25,.28-.64,.28-1.15v-.14c0-.54-.09-.96-.26-1.25-.17-.29-.49-.43-.96-.43-.37,0-.66,.15-.85,.45-.19,.3-.29,.72-.29,1.25s.1,.95,.29,1.23c.2,.28,.48,.42,.86,.42Z" fill="#a8a9aa"/><path d="M55.24,102.08c.62,0,1.08,.14,1.4,.41,.31,.27,.47,.7,.47,1.28v3.27h-.73l-.2-.69h-.04c-.14,.18-.28,.32-.43,.44-.15,.12-.31,.2-.5,.26-.19,.06-.42,.08-.7,.08-.29,0-.55-.05-.78-.16-.23-.11-.41-.27-.54-.49-.13-.22-.2-.5-.2-.83,0-.5,.19-.88,.56-1.13,.37-.25,.94-.39,1.69-.42l.84-.03v-.26c0-.33-.08-.57-.23-.72s-.38-.22-.66-.22c-.24,0-.48,.04-.71,.11s-.45,.16-.67,.26l-.34-.73c.24-.12,.51-.23,.82-.31,.3-.08,.62-.12,.95-.12Zm.84,2.63l-.62,.03c-.52,.02-.88,.11-1.09,.26-.21,.16-.31,.37-.31,.65,0,.24,.07,.42,.22,.53,.14,.11,.33,.16,.57,.16,.36,0,.65-.1,.89-.3,.23-.2,.35-.5,.35-.89v-.43Z" fill="#a8a9aa"/><path d="M25.31,115.63h-.87v1.41h-1.02v-1.41h-2.93v-.78l2.94-4.25h1.01v4.17h.87v.86Zm-1.89-.86v-1.6c0-.13,0-.26,0-.4s0-.27,.01-.39c0-.13,.01-.24,.02-.35s.01-.19,.01-.27h-.04c-.06,.12-.12,.24-.18,.36-.07,.12-.14,.24-.22,.35l-1.58,2.29h1.96Z" fill="#a8a9aa"/><path d="M29.98,112.08c0,.29-.06,.54-.18,.76s-.28,.39-.48,.53c-.2,.14-.44,.23-.71,.29v.03c.51,.07,.9,.23,1.16,.48,.26,.26,.39,.6,.39,1.02,0,.37-.09,.7-.27,1-.18,.29-.45,.52-.82,.69-.37,.17-.84,.25-1.42,.25-.35,0-.67-.03-.97-.08-.3-.05-.58-.14-.85-.26v-.92c.27,.13,.56,.24,.87,.31s.6,.11,.88,.11c.54,0,.92-.1,1.14-.3,.23-.2,.34-.48,.34-.83,0-.22-.06-.41-.18-.56-.12-.15-.3-.26-.55-.33-.25-.07-.57-.11-.96-.11h-.56v-.83h.57c.37,0,.67-.04,.89-.13,.22-.09,.39-.21,.49-.37,.1-.16,.15-.34,.15-.55,0-.28-.09-.49-.27-.65-.18-.15-.44-.23-.79-.23-.22,0-.42,.02-.59,.07-.18,.05-.34,.11-.49,.19-.15,.08-.29,.16-.42,.25l-.5-.72c.24-.18,.53-.33,.87-.46,.34-.13,.73-.19,1.18-.19,.66,0,1.17,.14,1.53,.42,.36,.28,.54,.66,.54,1.14Z" fill="#a8a9aa"/><path d="M35.37,113.82c0,.52-.04,.99-.12,1.39-.08,.41-.21,.75-.38,1.04-.17,.29-.4,.5-.68,.65-.28,.15-.62,.22-1.01,.22-.5,0-.91-.13-1.23-.39-.32-.26-.56-.64-.72-1.13-.16-.49-.24-1.09-.24-1.78s.07-1.28,.21-1.78c.14-.49,.37-.87,.69-1.14s.74-.39,1.27-.39c.5,0,.91,.13,1.23,.39,.32,.26,.56,.64,.72,1.13,.16,.49,.24,1.09,.24,1.78Zm-3.32,0c0,.54,.04,1,.11,1.36,.07,.36,.19,.64,.36,.82,.17,.18,.39,.27,.67,.27s.5-.09,.67-.27,.29-.45,.36-.81,.11-.82,.11-1.36-.04-.99-.11-1.35c-.07-.36-.19-.63-.36-.82-.17-.18-.39-.27-.67-.27s-.5,.09-.67,.27c-.17,.18-.28,.46-.36,.82-.07,.36-.11,.81-.11,1.35Z" fill="#a8a9aa"/><path d="M39.91,114.55l-1.62-2.38h1.18l1.11,1.71,1.11-1.71h1.18l-1.63,2.38,1.72,2.49h-1.18l-1.19-1.82-1.2,1.82h-1.18l1.71-2.49Z" fill="#a8a9aa"/><path d="M50.38,115.63h-.87v1.41h-1.02v-1.41h-2.93v-.78l2.94-4.25h1.01v4.17h.87v.86Zm-1.89-.86v-1.6c0-.13,0-.26,0-.4s0-.27,.01-.39c0-.13,.01-.24,.02-.35s.01-.19,.01-.27h-.04c-.06,.12-.12,.24-.18,.36-.07,.12-.14,.24-.22,.35l-1.58,2.29h1.96Z" fill="#a8a9aa"/><path d="M55.3,113.82c0,.52-.04,.99-.12,1.39-.08,.41-.21,.75-.38,1.04-.17,.29-.4,.5-.68,.65-.28,.15-.62,.22-1.01,.22-.5,0-.91-.13-1.23-.39-.32-.26-.56-.64-.72-1.13-.16-.49-.24-1.09-.24-1.78s.07-1.28,.21-1.78c.14-.49,.37-.87,.69-1.14s.74-.39,1.27-.39c.5,0,.91,.13,1.23,.39,.32,.26,.56,.64,.72,1.13,.16,.49,.24,1.09,.24,1.78Zm-3.32,0c0,.54,.04,1,.11,1.36,.07,.36,.19,.64,.36,.82,.17,.18,.39,.27,.67,.27s.5-.09,.67-.27,.29-.45,.36-.81,.11-.82,.11-1.36-.04-.99-.11-1.35c-.07-.36-.19-.63-.36-.82-.17-.18-.39-.27-.67-.27s-.5,.09-.67,.27c-.17,.18-.28,.46-.36,.82-.07,.36-.11,.81-.11,1.35Z" fill="#a8a9aa"/><path d="M60.44,113.82c0,.52-.04,.99-.12,1.39-.08,.41-.21,.75-.38,1.04-.17,.29-.4,.5-.68,.65-.28,.15-.62,.22-1.01,.22-.5,0-.91-.13-1.23-.39-.32-.26-.56-.64-.72-1.13-.16-.49-.24-1.09-.24-1.78s.07-1.28,.21-1.78c.14-.49,.37-.87,.69-1.14s.74-.39,1.27-.39c.5,0,.91,.13,1.23,.39,.32,.26,.56,.64,.72,1.13,.16,.49,.24,1.09,.24,1.78Zm-3.32,0c0,.54,.04,1,.11,1.36,.07,.36,.19,.64,.36,.82,.17,.18,.39,.27,.67,.27s.5-.09,.67-.27,.29-.45,.36-.81,.11-.82,.11-1.36-.04-.99-.11-1.35c-.07-.36-.19-.63-.36-.82-.17-.18-.39-.27-.67-.27s-.5,.09-.67,.27c-.17,.18-.28,.46-.36,.82-.07,.36-.11,.81-.11,1.35Z" fill="#a8a9aa"/><path d="M23.56,122.08c.58,0,1.04,.21,1.39,.63,.35,.42,.53,1.05,.53,1.88,0,.55-.08,1.01-.24,1.39-.16,.38-.39,.66-.68,.85-.29,.19-.63,.29-1.02,.29-.25,0-.46-.03-.64-.09-.18-.06-.34-.15-.47-.25s-.24-.22-.33-.34h-.06c.01,.11,.03,.24,.04,.38,.01,.14,.02,.27,.02,.39v1.98h-1.04v-7.02h.85l.14,.67h.05c.09-.14,.2-.26,.33-.38,.13-.12,.29-.21,.47-.28,.19-.07,.4-.1,.65-.1Zm-.28,.85c-.28,0-.51,.06-.68,.17-.17,.11-.3,.28-.37,.5-.08,.22-.12,.51-.12,.85v.14c0,.36,.04,.67,.11,.92,.07,.25,.2,.44,.37,.57,.17,.13,.41,.2,.71,.2,.25,0,.46-.07,.62-.21,.17-.14,.29-.33,.37-.59s.12-.55,.12-.9c0-.52-.09-.93-.28-1.22-.19-.29-.47-.43-.85-.43Z" fill="#a8a9aa"/><path d="M27.19,120.31c.16,0,.29,.04,.41,.13,.12,.08,.17,.23,.17,.44s-.06,.35-.17,.44c-.12,.09-.25,.13-.41,.13s-.3-.04-.42-.13-.17-.23-.17-.44,.06-.35,.17-.44,.25-.13,.42-.13Zm.51,1.86v4.87h-1.04v-4.87h1.04Z" fill="#a8a9aa"/><path d="M30.25,124.55l-1.62-2.38h1.18l1.11,1.71,1.11-1.71h1.18l-1.63,2.38,1.72,2.49h-1.18l-1.19-1.82-1.2,1.82h-1.18l1.71-2.49Z" fill="#a8a9aa"/><path d="M36.07,122.08c.43,0,.81,.09,1.12,.27,.31,.18,.55,.43,.72,.76s.25,.72,.25,1.18v.55h-3.25c.01,.47,.14,.83,.38,1.09,.24,.25,.58,.38,1.02,.38,.31,0,.59-.03,.84-.09,.25-.06,.5-.15,.77-.27v.84c-.24,.12-.49,.2-.74,.25s-.55,.08-.91,.08c-.48,0-.9-.09-1.26-.28-.36-.18-.65-.46-.85-.83s-.3-.83-.3-1.38,.09-1.01,.28-1.39,.44-.67,.78-.87,.72-.3,1.17-.3Zm0,.78c-.32,0-.59,.11-.79,.32-.2,.21-.32,.52-.35,.93h2.21c0-.24-.04-.46-.12-.64-.08-.19-.19-.33-.35-.44-.16-.11-.35-.16-.6-.16Z" fill="#a8a9aa"/><path d="M40.35,127.04h-1.04v-6.84h1.04v6.84Z" fill="#a8a9aa"/><path d="M43.76,122.08c.43,0,.81,.09,1.12,.27,.31,.18,.55,.43,.72,.76s.25,.72,.25,1.18v.55h-3.25c.01,.47,.14,.83,.38,1.09,.24,.25,.58,.38,1.02,.38,.31,0,.59-.03,.84-.09,.25-.06,.5-.15,.77-.27v.84c-.24,.12-.49,.2-.74,.25s-.55,.08-.91,.08c-.48,0-.9-.09-1.26-.28-.36-.18-.65-.46-.85-.83s-.3-.83-.3-1.38,.09-1.01,.28-1.39,.44-.67,.78-.87,.72-.3,1.17-.3Zm0,.78c-.32,0-.59,.11-.79,.32-.2,.21-.32,.52-.35,.93h2.21c0-.24-.04-.46-.12-.64-.08-.19-.19-.33-.35-.44-.16-.11-.35-.16-.6-.16Z" fill="#a8a9aa"/><path d="M50.28,125.65c0,.32-.08,.59-.23,.81-.16,.22-.38,.39-.68,.5-.3,.11-.66,.17-1.09,.17-.34,0-.63-.02-.88-.07-.24-.05-.48-.12-.7-.22v-.89c.23,.11,.5,.2,.78,.28,.29,.08,.56,.12,.82,.12,.34,0,.58-.05,.73-.16,.15-.11,.23-.25,.23-.43,0-.11-.03-.2-.09-.28-.06-.08-.17-.17-.33-.26-.16-.09-.4-.2-.72-.32-.31-.12-.57-.25-.78-.37-.21-.12-.37-.27-.48-.45-.11-.17-.16-.39-.16-.67,0-.43,.17-.76,.51-.99,.34-.22,.79-.34,1.36-.34,.3,0,.58,.03,.85,.09,.27,.06,.53,.15,.78,.26l-.33,.78c-.22-.09-.44-.17-.66-.23-.22-.06-.45-.09-.67-.09-.27,0-.47,.04-.61,.12-.14,.08-.21,.2-.21,.35,0,.12,.03,.21,.1,.29,.07,.08,.18,.16,.35,.24,.17,.08,.4,.18,.69,.29,.29,.11,.54,.23,.75,.35,.21,.12,.38,.27,.49,.45,.12,.18,.17,.4,.17,.68Z" fill="#a8a9aa"/></g></g><g><path d="M118.39,78.81l-.63-1.78h-2.46l-.63,1.78h-1.11l2.39-6.45h1.17l2.39,6.45h-1.12Zm-.9-2.69l-.61-1.76c-.02-.08-.06-.18-.1-.32-.04-.14-.09-.28-.13-.43-.04-.15-.08-.27-.11-.37-.03,.12-.07,.25-.11,.4-.04,.15-.08,.29-.12,.42-.04,.13-.07,.23-.09,.3l-.62,1.76h1.89Zm.54-5.77v.09c-.07,.08-.17,.18-.29,.3s-.25,.25-.39,.38c-.14,.13-.28,.25-.42,.37s-.26,.22-.37,.3h-.69v-.11c.1-.11,.2-.24,.32-.4,.12-.16,.24-.32,.35-.48,.12-.16,.21-.31,.29-.45h1.19Z" fill="#a8a9aa"/><path d="M122.72,73.85c.08,0,.17,0,.27,.01,.1,0,.18,.02,.25,.04l-.1,.97c-.06-.02-.14-.03-.23-.04-.09,0-.17-.01-.24-.01-.19,0-.36,.03-.53,.09-.17,.06-.32,.15-.44,.27-.13,.12-.23,.27-.3,.46s-.11,.39-.11,.63v2.54h-1.04v-4.87h.81l.14,.86h.05c.1-.17,.22-.33,.36-.47s.31-.26,.5-.34c.19-.09,.39-.13,.61-.13Z" fill="#a8a9aa"/><path d="M126.08,73.85c.43,0,.81,.09,1.12,.27,.31,.18,.55,.43,.72,.76s.25,.72,.25,1.18v.55h-3.25c.01,.47,.14,.83,.38,1.09,.24,.25,.58,.38,1.02,.38,.31,0,.59-.03,.84-.09,.25-.06,.5-.15,.77-.27v.84c-.24,.12-.49,.2-.74,.25s-.55,.08-.91,.08c-.48,0-.9-.09-1.26-.28-.36-.18-.65-.46-.85-.83s-.3-.83-.3-1.38,.09-1.01,.28-1.39,.44-.67,.78-.87,.72-.3,1.17-.3Zm0,.78c-.32,0-.59,.11-.79,.32-.2,.21-.32,.52-.35,.93h2.21c0-.24-.04-.46-.12-.64-.08-.19-.19-.33-.35-.44-.16-.11-.35-.16-.6-.16Z" fill="#a8a9aa"/><path d="M131.23,73.85c.62,0,1.08,.14,1.4,.41,.31,.27,.47,.7,.47,1.28v3.27h-.73l-.2-.69h-.04c-.14,.18-.28,.32-.43,.44-.15,.12-.31,.2-.5,.26-.19,.06-.42,.08-.7,.08-.29,0-.55-.05-.78-.16-.23-.11-.41-.27-.54-.49-.13-.22-.2-.5-.2-.83,0-.5,.19-.88,.56-1.13,.37-.25,.94-.39,1.69-.42l.84-.03v-.26c0-.33-.08-.57-.23-.72s-.38-.22-.66-.22c-.24,0-.48,.04-.71,.11s-.45,.16-.67,.26l-.34-.73c.24-.12,.51-.23,.82-.31,.3-.08,.62-.12,.95-.12Zm.84,2.63l-.62,.03c-.52,.02-.88,.11-1.09,.26-.21,.16-.31,.37-.31,.65,0,.24,.07,.42,.22,.53,.14,.11,.33,.16,.57,.16,.36,0,.65-.1,.89-.3,.23-.2,.35-.5,.35-.89v-.43Z" fill="#a8a9aa"/><path d="M138.52,78.9c-.58,0-1.04-.21-1.39-.63-.35-.42-.52-1.05-.52-1.88s.18-1.47,.53-1.89c.36-.43,.83-.64,1.41-.64,.24,0,.46,.03,.64,.1,.18,.07,.34,.16,.48,.27s.25,.24,.34,.37h.05c-.01-.09-.03-.22-.05-.39-.02-.17-.03-.33-.03-.48v-1.75h1.04v6.84h-.81l-.19-.66h-.04c-.09,.14-.2,.26-.33,.38-.13,.11-.29,.2-.48,.27-.19,.07-.4,.1-.65,.1Zm.29-.84c.44,0,.75-.13,.93-.38,.18-.25,.28-.64,.28-1.15v-.14c0-.54-.09-.96-.26-1.25-.17-.29-.49-.43-.96-.43-.37,0-.66,.15-.85,.45-.19,.3-.29,.72-.29,1.25s.1,.95,.29,1.23c.2,.28,.48,.42,.86,.42Z" fill="#a8a9aa"/><path d="M144.43,73.85c.43,0,.81,.09,1.12,.27,.31,.18,.55,.43,.72,.76s.25,.72,.25,1.18v.55h-3.25c.01,.47,.14,.83,.38,1.09,.24,.25,.58,.38,1.02,.38,.31,0,.59-.03,.84-.09,.25-.06,.5-.15,.77-.27v.84c-.24,.12-.49,.2-.74,.25s-.55,.08-.91,.08c-.48,0-.9-.09-1.26-.28-.36-.18-.65-.46-.85-.83s-.3-.83-.3-1.38,.09-1.01,.28-1.39,.44-.67,.78-.87,.72-.3,1.17-.3Zm0,.78c-.32,0-.59,.11-.79,.32-.2,.21-.32,.52-.35,.93h2.21c0-.24-.04-.46-.12-.64-.08-.19-.19-.33-.35-.44-.16-.11-.35-.16-.6-.16Z" fill="#a8a9aa"/><path d="M151.82,78.06c.13,0,.27-.01,.4-.04,.13-.03,.25-.06,.36-.09v.78c-.11,.05-.26,.09-.44,.13s-.37,.05-.57,.05c-.28,0-.52-.05-.74-.14-.22-.09-.39-.25-.52-.48-.13-.23-.19-.54-.19-.94v-2.61h-.66v-.46l.71-.37,.34-1.04h.65v1.08h1.39v.79h-1.39v2.6c0,.25,.06,.43,.18,.55,.12,.12,.29,.18,.49,.18Z" fill="#a8a9aa"/><path d="M155.51,73.85c.43,0,.81,.09,1.12,.27,.31,.18,.55,.43,.72,.76s.25,.72,.25,1.18v.55h-3.25c.01,.47,.14,.83,.38,1.09,.24,.25,.58,.38,1.02,.38,.31,0,.59-.03,.84-.09,.25-.06,.5-.15,.77-.27v.84c-.24,.12-.49,.2-.74,.25s-.55,.08-.91,.08c-.48,0-.9-.09-1.26-.28-.36-.18-.65-.46-.85-.83s-.3-.83-.3-1.38,.09-1.01,.28-1.39,.44-.67,.78-.87,.72-.3,1.17-.3Zm0,.78c-.32,0-.59,.11-.79,.32-.2,.21-.32,.52-.35,.93h2.21c0-.24-.04-.46-.12-.64-.08-.19-.19-.33-.35-.44-.16-.11-.35-.16-.6-.16Z" fill="#a8a9aa"/><path d="M159.83,76.32l-1.62-2.38h1.18l1.11,1.71,1.11-1.71h1.18l-1.63,2.38,1.72,2.49h-1.18l-1.19-1.82-1.2,1.82h-1.18l1.71-2.49Z" fill="#a8a9aa"/><path d="M165.53,78.06c.13,0,.27-.01,.4-.04,.13-.03,.25-.06,.36-.09v.78c-.11,.05-.26,.09-.44,.13s-.37,.05-.57,.05c-.28,0-.52-.05-.74-.14-.22-.09-.39-.25-.52-.48-.13-.23-.19-.54-.19-.94v-2.61h-.66v-.46l.71-.37,.34-1.04h.65v1.08h1.39v.79h-1.39v2.6c0,.25,.06,.43,.18,.55,.12,.12,.29,.18,.49,.18Z" fill="#a8a9aa"/><path d="M171.58,76.36c0,.4-.05,.76-.16,1.08-.11,.31-.26,.58-.46,.8-.2,.22-.45,.38-.73,.49s-.6,.17-.96,.17c-.33,0-.64-.06-.92-.17s-.52-.28-.72-.49c-.2-.22-.36-.48-.47-.8-.11-.31-.17-.67-.17-1.08,0-.54,.09-.99,.28-1.36,.19-.37,.45-.66,.8-.85s.76-.29,1.23-.29c.45,0,.84,.1,1.19,.29,.34,.2,.61,.48,.8,.86s.29,.83,.29,1.36Zm-3.53,0c0,.35,.04,.66,.13,.91,.09,.25,.22,.44,.4,.58,.18,.13,.42,.2,.7,.2s.52-.07,.7-.2c.18-.13,.32-.33,.4-.58,.09-.25,.13-.56,.13-.91s-.04-.65-.13-.9c-.09-.25-.22-.44-.4-.57-.18-.13-.42-.2-.7-.2-.43,0-.74,.14-.94,.43s-.29,.7-.29,1.23Z" fill="#a8a9aa"/></g><g><rect x="125.57" y="31.93" width="34.45" height="25.31" rx="1.22" ry="1.22" fill="#a8a9aa"/><g><path d="M149.79,38.28h-18.48c-.41,0-.75-.34-.75-.75s.34-.75,.75-.75h18.48c.41,0,.75,.34,.75,.75s-.34,.75-.75,.75Z" fill="#d8d8d8"/><path d="M149.79,47.35h-18.48c-.41,0-.75-.34-.75-.75s.34-.75,.75-.75h18.48c.41,0,.75,.34,.75,.75s-.34,.75-.75,.75Z" fill="#d8d8d8"/><path d="M154.29,43.24h-22.97c-.41,0-.75-.34-.75-.75s.34-.75,.75-.75h22.97c.41,0,.75,.34,.75,.75s-.34,.75-.75,.75Z" fill="#d8d8d8"/><path d="M154.29,51.66h-22.97c-.41,0-.75-.34-.75-.75s.34-.75,.75-.75h22.97c.41,0,.75,.34,.75,.75s-.34,.75-.75,.75Z" fill="#d8d8d8"/></g></g></g></g></g></svg>