<svg xmlns="http://www.w3.org/2000/svg" viewBox="0 0 18.65 18.63"><defs><style>.cls-1{fill:#f8f8f8;}</style></defs><g id="Capa_2" data-name="Capa 2"><g id="Capa_1-2" data-name="Capa 1"><path class="cls-1" d="M0,8.76c.05-.33.08-.67.14-1a9.39,9.39,0,0,1,3.71-6L4,1.65,2.78,0H8.93L7.39,6.15,6,4.3A6.09,6.09,0,0,0,3.29,9.69a5.77,5.77,0,0,0,1,2.87,5.94,5.94,0,0,0,2.22,2.06,6.52,6.52,0,0,0,3,.75L8.6,18.63h0a.58.58,0,0,0-.14,0c-.4-.07-.81-.12-1.21-.21A9.16,9.16,0,0,1,2.36,15.5,9,9,0,0,1,.14,10.93c-.06-.34-.09-.69-.14-1Z"/><path class="cls-1" d="M9.73,18.63c.24-1,.48-2,.73-3s.51-2,.76-3c0-.05,0-.09,0-.16l1.39,1.85A6,6,0,0,0,15.33,8.6a6,6,0,0,0-2-3.82A6.13,6.13,0,0,0,9.24,3.25L10.05,0a9.32,9.32,0,0,1,4.59,17l1.24,1.65Z"/><path class="cls-1" d="M9.56,8.8a2.75,2.75,0,0,1,2.08,1.28,3,3,0,0,1,.41,2H6.61A3,3,0,0,1,7.14,9.9,2.8,2.8,0,0,1,9.06,8.79,1.69,1.69,0,0,1,8,8.11a1.52,1.52,0,0,1-.29-1.2A1.63,1.63,0,0,1,9.37,5.52,1.65,1.65,0,0,1,11,7,1.7,1.7,0,0,1,9.56,8.8Z"/></g></g></svg>