<svg xmlns="http://www.w3.org/2000/svg" viewBox="0 0 11.23 11.23"><defs><style>.cls-1{fill:#686868;}</style></defs><g id="Capa_2" data-name="Capa 2"><g id="Capa_1-2" data-name="Capa 1"><path class="cls-1" d="M11.23,5.62A5.62,5.62,0,1,1,5.7,0,5.63,5.63,0,0,1,11.23,5.62ZM.72,5.6a4.9,4.9,0,1,0,5-4.88A4.9,4.9,0,0,0,.72,5.6Z"/><path class="cls-1" d="M5.43,4V2.12a.4.4,0,0,1,.14-.33A.39.39,0,0,1,6.2,2a.76.76,0,0,1,0,.15V5.41c0,.06,0,.08.07.08H9a.39.39,0,0,1,.37.19.38.38,0,0,1-.29.59H5.83a.37.37,0,0,1-.33-.17.45.45,0,0,1-.07-.25Z"/></g></g></svg>