<?xml version="1.0" encoding="UTF-8"?><svg id="Capa_2" xmlns="http://www.w3.org/2000/svg" viewBox="0 0 34.93 24.7"><defs><style>.cls-1{fill:#4169ab;}</style></defs><g id="Capa_1-2"><g id="bilAXQ.tif"><path class="cls-1" d="M0,23.33c.26-.53,.68-.73,1.27-.71,.81,.03,.82,0,.82-.82,0-3.44,0-6.88,0-10.32,0-.87,.37-1.25,1.24-1.25,1.25,0,2.5,0,3.75,0,.8,0,1.2,.39,1.2,1.19,0,3.59,0,7.18,0,10.76q0,.45,.45,.45c.4,0,.8-.02,1.19,0,.29,.02,.36-.1,.36-.38,0-2.23,0-4.45,0-6.68,0-.89,.37-1.27,1.25-1.27,1.25,0,2.5,0,3.75,0,.78,0,1.18,.4,1.18,1.17,0,2.24,0,4.47,0,6.71,0,.34,.09,.47,.44,.44,.4-.03,.8-.03,1.19,0,.31,.02,.39-.1,.38-.39-.02-.44,0-.89,0-1.33,0-4.5,0-8.99,0-13.49,0-.92,.36-1.28,1.27-1.28,1.21,0,2.43,0,3.64,0,.89,0,1.27,.37,1.27,1.25,0,4.92,0,9.83,0,14.75q0,.49,.48,.49c.41,0,.82,0,1.23,0,.23,0,.31-.09,.29-.3,0-.1,0-.2,0-.31,0-6.9,0-13.81,0-20.71,0-.96,.35-1.31,1.32-1.31,1.23,0,2.45,0,3.68,0,.79,0,1.18,.4,1.18,1.2,0,6.97,0,13.94,0,20.91q0,.51,.52,.51c.16,0,.32,0,.48,0,.55,0,.95,.29,1.08,.76,.13,.47-.07,.93-.53,1.21-.05,.03-.1,.06-.14,.09-11.3,0-22.6,0-33.9,0-.26,0-.33-.06-.31-.31,.03-.35,0-.7,0-1.06Z"/></g></g></svg>