<?xml version="1.0" encoding="UTF-8"?><svg id="Capa_2" xmlns="http://www.w3.org/2000/svg" viewBox="0 0 22.33 22.93"><defs><style>.cls-1{fill:#fff;}</style></defs><g id="Capa_1-2"><g id="_oOq5Z.tif"><g><path class="cls-1" d="M22.33,.41c-.22-.38-.47-.49-.87-.34-.88,.31-1.76,.62-2.63,.95-1.02,.38-1.65,1.1-1.93,2.15-1.09,4.07-2.18,8.15-3.28,12.22-.08,.31-.08,.3,.23,.37,.19,.04,.37,.09,.55,.15,.29,.09,.29,.1,.38-.21,.29-1.06,.57-2.13,.85-3.19,.79-2.95,1.59-5.9,2.36-8.85,.22-.84,.69-1.36,1.52-1.62,.78-.25,1.55-.55,2.32-.82,.22-.08,.4-.2,.5-.41V.41Z"/><path class="cls-1" d="M7.24,10.88c0-.45,.17-.87,.29-1.3,.2-.79,.41-1.57,.63-2.36,.06-.2,.01-.28-.19-.34-.68-.17-1.36-.36-2.03-.54-.53-.14-.9,.08-1.05,.62-.54,2.02-1.09,4.05-1.63,6.08-.18,.69-.36,1.37-.55,2.06-.04,.16-.02,.23,.15,.27,2.23,.59,4.47,1.2,6.7,1.8,.16,.04,.26,.02,.38-.11,.6-.67,1.36-1.1,2.24-1.29,.17-.04,.24-.11,.28-.27,.59-2.22,1.19-4.44,1.78-6.65,.05-.18,.02-.28-.18-.32-.33-.07-.65-.16-.97-.26-.18-.06-.27-.02-.32,.18-.27,1.05-.56,2.09-.84,3.14-.28,1.03-1.09,1.5-2.12,1.23-.45-.12-.91-.24-1.36-.36-.75-.21-1.2-.81-1.2-1.57Z"/><path class="cls-1" d="M9.96,19.88c0-1.72,1.36-3.11,3.07-3.11,1.7,0,3.09,1.37,3.09,3.06,0,1.73-1.35,3.1-3.07,3.1-1.71,0-3.09-1.35-3.09-3.05Zm4.26-.03c0-.65-.54-1.18-1.2-1.18-.66,0-1.18,.54-1.17,1.2,0,.66,.53,1.17,1.2,1.17,.66,0,1.18-.53,1.17-1.19Z"/><path class="cls-1" d="M0,16.51c0,.3,.17,.52,.51,.61,.81,.22,1.62,.43,2.43,.65,1.89,.51,3.79,1.01,5.68,1.52,.21,.06,.29,.02,.32-.2,.02-.22,.08-.44,.17-.65,.11-.24-.02-.29-.2-.34-1.18-.31-2.36-.63-3.54-.94-1.51-.4-3.02-.81-4.53-1.21C.38,15.84,0,16.09,0,16.51Z"/><path class="cls-1" d="M8.33,10.89c.01,.25,.13,.42,.34,.48,.53,.15,1.06,.3,1.59,.43,.27,.06,.5-.12,.58-.44,.23-.82,.44-1.65,.66-2.47,.07-.25,.13-.51,.2-.76,.04-.14,.02-.22-.14-.26-.7-.18-1.4-.37-2.1-.56-.13-.03-.21-.02-.25,.13-.29,1.1-.59,2.2-.88,3.3-.01,.05-.02,.11-.02,.15Z"/></g></g></g></svg>