<svg xmlns="http://www.w3.org/2000/svg" viewBox="0 0 26.83 26.83"><defs><style>.cls-1{fill:#ccc;}.cls-2{fill:none;stroke:#ccc;stroke-miterlimit:10;stroke-width:2px;}</style></defs><g id="Capa_2" data-name="Capa 2"><g id="Capa_1-2" data-name="Capa 1"><path class="cls-1" d="M20,9.24a5.72,5.72,0,0,1-1.34.39c.21,0,.53-.43.66-.59a2.73,2.73,0,0,0,.45-.82s0-.05,0-.07a.08.08,0,0,0-.07,0,7,7,0,0,1-1.6.61.11.11,0,0,1-.11,0,.93.93,0,0,0-.14-.14,2.93,2.93,0,0,0-.77-.48,2.86,2.86,0,0,0-1.19-.19,3,3,0,0,0-1.13.32,2.93,2.93,0,0,0-.9.74,2.81,2.81,0,0,0-.55,1.09,3.17,3.17,0,0,0,0,1.15c0,.06,0,.07,0,.06A8.48,8.48,0,0,1,7.75,8.5c-.07-.08-.1-.08-.15,0a2.77,2.77,0,0,0,.47,3.29c.11.1.22.21.34.3a2.74,2.74,0,0,1-1.06-.3c-.07,0-.1,0-.1.06a1.63,1.63,0,0,0,0,.31A2.84,2.84,0,0,0,9,14.41a2,2,0,0,0,.35.11,3.29,3.29,0,0,1-1,0c-.07,0-.1,0-.07.09a2.9,2.9,0,0,0,2.18,1.83l.3,0,0,0a3.58,3.58,0,0,1-1.49.79,5.31,5.31,0,0,1-2.27.29c-.12,0-.14,0-.18,0s0,.05,0,.08.31.19.47.28a7.58,7.58,0,0,0,1.51.61,8.07,8.07,0,0,0,7.83-1.83,8.22,8.22,0,0,0,2.17-6c0-.08.1-.13.16-.18A5.08,5.08,0,0,0,20,9.47a.35.35,0,0,0,.07-.22h0S20.08,9.22,20,9.24Z"/><circle class="cls-2" cx="13.41" cy="13.41" r="12.41"/></g></g></svg>