<svg xmlns="http://www.w3.org/2000/svg" viewBox="0 0 7.35 10.04"><defs><style>.cls-1{fill:#a8a9aa;}</style></defs><g id="Capa_2" data-name="Capa 2"><g id="Capa_1-2" data-name="Capa 1"><g id="hMyOCE.tif"><path class="cls-1" d="M7.35,3.31V4a7,7,0,0,1-.69,1.89A23.8,23.8,0,0,1,5.05,8.43c-.35.49-.7,1-1.07,1.44a.35.35,0,0,1-.35.16.39.39,0,0,1-.27-.18c-.61-.78-1.19-1.58-1.73-2.41A15.22,15.22,0,0,1,.31,5,3.36,3.36,0,0,1,0,3.11,3.66,3.66,0,0,1,4.18,0a3.55,3.55,0,0,1,3,2.51A4.67,4.67,0,0,1,7.35,3.31ZM3.68,2A1.31,1.31,0,0,0,2.36,3.34,1.3,1.3,0,0,0,3.68,4.67,1.3,1.3,0,0,0,5,3.36,1.33,1.33,0,0,0,3.68,2Z"/></g></g></g></svg>