<svg id="Capa_1" data-name="Capa 1" xmlns="http://www.w3.org/2000/svg" viewBox="0 0 15.67 21.09"><defs><style>.cls-1{fill:#606060;}.cls-2{fill:none;stroke:#606060;stroke-miterlimit:10;}.cls-3{fill:#fff;}</style></defs><title>candado</title><rect class="cls-1" y="7.34" width="15.67" height="13.74" rx="2.09"/><rect class="cls-2" x="2.25" y="0.5" width="11.18" height="16.24" rx="5.37"/><path class="cls-3" d="M305.45,399.61a2.19,2.19,0,0,1-.48-.26,1.26,1.26,0,0,1-.35-.38,1,1,0,0,1-.13-.52,1.08,1.08,0,0,1,.13-.54,1.25,1.25,0,0,1,.35-.41,1.59,1.59,0,0,1,.48-.26,1.76,1.76,0,0,1,.55-.09,1.61,1.61,0,0,1,.44.05,1.7,1.7,0,0,1,.4.13,1.56,1.56,0,0,1,.34.23,1.26,1.26,0,0,1,.25.31.18.18,0,0,1,0,.14.23.23,0,0,1-.07.11.17.17,0,0,1-.14.06.23.23,0,0,1-.17-.05,1.28,1.28,0,0,0-.48-.38,1.34,1.34,0,0,0-.58-.11,1.12,1.12,0,0,0-.36.05,1,1,0,0,0-.33.15.89.89,0,0,0-.25.26.68.68,0,0,0-.09.35.51.51,0,0,0,.11.35.81.81,0,0,0,.28.24,1.61,1.61,0,0,0,.38.16l.39.11a5.31,5.31,0,0,1,.56.2,1.93,1.93,0,0,1,.49.27,1.41,1.41,0,0,1,.34.39,1.13,1.13,0,0,1,.12.54,1.36,1.36,0,0,1-.13.61,1.51,1.51,0,0,1-.36.47,1.62,1.62,0,0,1-.53.3,1.83,1.83,0,0,1-1.16,0,2,2,0,0,1-.47-.2,1.35,1.35,0,0,1-.37-.3,1.15,1.15,0,0,1-.25-.37.24.24,0,0,1,0-.2.3.3,0,0,1,.12-.13.21.21,0,0,1,.17,0,.34.34,0,0,1,.16.14,1.31,1.31,0,0,0,.2.28,1.54,1.54,0,0,0,.29.21,1.26,1.26,0,0,0,.34.13,1.74,1.74,0,0,0,.39,0,1.51,1.51,0,0,0,.41-.06,1.55,1.55,0,0,0,.36-.19.86.86,0,0,0,.26-.31.82.82,0,0,0,.11-.42.62.62,0,0,0-.11-.37.81.81,0,0,0-.26-.26,1.91,1.91,0,0,0-.38-.18l-.42-.15A5,5,0,0,1,305.45,399.61Z" transform="translate(-298.16 -385.46)"/></svg>