<svg id="Capa_1" data-name="Capa 1" xmlns="http://www.w3.org/2000/svg" viewBox="0 0 61.63 61.63"><defs><style>.cls-1{fill:#36c;}.cls-2{fill:none;stroke:#efefef;stroke-miterlimit:10;stroke-width:0.61px;}.cls-3{fill:#efefef;}</style></defs><title>Cifras</title><rect class="cls-1" width="61.63" height="61.63" rx="9.55"/><polyline class="cls-2" points="8.14 46.47 17.27 32.17 25.48 44.96 34.38 27.02 39.45 32.17 49.06 13.94 52.55 20.33"/><path class="cls-3" d="M283.13,412.89a1.52,1.52,0,0,0,0-3,1.52,1.52,0,0,0,0,3Z" transform="translate(-275.18 -365.18)"/><path class="cls-3" d="M292.56,399.2a1.52,1.52,0,0,0,0-3,1.52,1.52,0,0,0,0,3Z" transform="translate(-275.18 -365.18)"/><path class="cls-3" d="M309.6,393.73a1.52,1.52,0,0,0,0-3,1.52,1.52,0,0,0,0,3Z" transform="translate(-275.18 -365.18)"/><path class="cls-3" d="M325.27,379.59l.31-.3a1.11,1.11,0,0,0,.31-.49,1.09,1.09,0,0,0,.13-.59,1.06,1.06,0,0,0-.13-.58,1.11,1.11,0,0,0-.31-.49l-.31-.24a1.49,1.49,0,0,0-.77-.21l-.4.06a1.47,1.47,0,0,0-.67.39l-.31.3a1.11,1.11,0,0,0-.31.49,1.09,1.09,0,0,0-.13.59,1.72,1.72,0,0,0,.44,1.07l.31.24a1.49,1.49,0,0,0,.77.21l.4-.05a1.58,1.58,0,0,0,.67-.4Z" transform="translate(-275.18 -365.18)"/><path class="cls-3" d="M327.85,387.34a1.52,1.52,0,0,0,0-3,1.52,1.52,0,0,0,0,3Z" transform="translate(-275.18 -365.18)"/></svg>