<svg id="Capa_1" data-name="Capa 1" xmlns="http://www.w3.org/2000/svg" xmlns:xlink="http://www.w3.org/1999/xlink" viewBox="0 0 61.63 61.63"><defs><style>.cls-1{fill:none;}.cls-2{clip-path:url(#clip-path);}.cls-3{fill:#36c;}.cls-4,.cls-5{fill:#fff;}.cls-5{stroke:#fff;stroke-miterlimit:10;stroke-width:0.32px;}</style><clipPath id="clip-path" transform="translate(-275.18 -365.39)"><rect class="cls-1" x="275.18" y="364.98" width="61.63" height="61.63" rx="9.55"/></clipPath></defs><title>Consultar</title><g class="cls-2"><rect class="cls-3" width="61.63" height="61.63" rx="9.55"/><path class="cls-4" d="M316.83,375a8.71,8.71,0,0,1,1-.64,6.72,6.72,0,0,1,1.12-.51,6.5,6.5,0,0,1,1.3-.3,7.18,7.18,0,0,1,1.48,0,6.2,6.2,0,0,1,2,.44,4.52,4.52,0,0,1,1.46,1,3.78,3.78,0,0,1,.88,1.4,4.28,4.28,0,0,1,.23,1.77,4.7,4.7,0,0,1-.39,1.62,4.77,4.77,0,0,1-.78,1.14,5.23,5.23,0,0,1-1,.82l-1,.64a5.8,5.8,0,0,0-.79.59,1.22,1.22,0,0,0-.43.68l-.41,1.8-2.1-.15-.07-2a.4.4,0,0,1,0-.11v-.1a1.66,1.66,0,0,1,.34-.93,3.86,3.86,0,0,1,.74-.71,10.79,10.79,0,0,1,.93-.63,7.78,7.78,0,0,0,.93-.66,3.76,3.76,0,0,0,.75-.84,2.43,2.43,0,0,0,.35-1.14,1.84,1.84,0,0,0-.11-.82,1.78,1.78,0,0,0-.42-.64,2.1,2.1,0,0,0-.69-.44,2.76,2.76,0,0,0-.88-.2,4.12,4.12,0,0,0-1.21.07,4.54,4.54,0,0,0-.86.29,6.51,6.51,0,0,0-.6.31.78.78,0,0,1-.43.12.67.67,0,0,1-.62-.42Zm1.31,14.79a1.92,1.92,0,0,1,.19-.72,1.81,1.81,0,0,1,.44-.57,1.93,1.93,0,0,1,.63-.35,1.75,1.75,0,0,1,.76-.1,2,2,0,0,1,.72.2,2.07,2.07,0,0,1,.57.44,2,2,0,0,1,.35.62,1.89,1.89,0,0,1,.1.75,1.93,1.93,0,0,1-.2.72,2.07,2.07,0,0,1-.44.57,2,2,0,0,1-.62.34,1.89,1.89,0,0,1-.75.09,2,2,0,0,1-.73-.19,2,2,0,0,1-.58-.43,2,2,0,0,1-.35-.62A1.89,1.89,0,0,1,318.14,389.75Z" transform="translate(-275.18 -365.39)"/><path class="cls-5" d="M305.46,399.29a9.6,9.6,0,1,1,9.6-9.6A9.62,9.62,0,0,1,305.46,399.29Zm0-18.84a9.24,9.24,0,1,0,9.23,9.24A9.24,9.24,0,0,0,305.46,380.45Z" transform="translate(-275.18 -365.39)"/><path class="cls-5" d="M323.48,417.09h-35.7v-.19c0-9.91,2.73-17.1,7.9-20.76l.15-.12.11.17a11.3,11.3,0,0,0,19.22-.1l.1-.17.16.11c5.27,3.64,8.06,10.86,8.06,20.87Zm-35.33-.37h35c0-6.82-1.4-15.77-7.75-20.28a11.65,11.65,0,0,1-19.63.11C290.8,400.15,288.18,407.12,288.15,416.72Z" transform="translate(-275.18 -365.39)"/></g></svg>