<svg id="Capa_1" data-name="Capa 1" xmlns="http://www.w3.org/2000/svg" viewBox="0 0 60.57 60.57"><defs><style>.cls-1{fill:#36c;}.cls-2,.cls-3{fill:#fff;stroke-miterlimit:10;}.cls-2{stroke:#fff;stroke-width:0.32px;}.cls-3{stroke:#36c;stroke-width:1.03px;}</style></defs><title>contenidos</title><rect class="cls-1" width="60.57" height="60.57" rx="9.38"/><path class="cls-2" d="M303,395.81a9.6,9.6,0,1,1,9.6-9.6A9.62,9.62,0,0,1,303,395.81ZM303,377a9.24,9.24,0,1,0,9.23,9.24A9.24,9.24,0,0,0,303,377Z" transform="translate(-275.71 -365.71)"/><path class="cls-2" d="M321.06,413.61h-35.7v-.19c0-9.91,2.73-17.1,7.9-20.76l.15-.12.11.17a11.3,11.3,0,0,0,19.22-.1l.1-.17.16.11c5.27,3.64,8.06,10.86,8.06,20.87Zm-35.33-.37h35c0-6.82-1.4-15.77-7.75-20.28a11.65,11.65,0,0,1-19.63.11C288.38,396.67,285.76,403.64,285.73,413.24Z" transform="translate(-275.71 -365.71)"/><rect class="cls-3" x="27.98" y="29.39" width="24.24" height="18.99" rx="4.03"/><rect class="cls-1" x="34.08" y="34.32" width="11.91" height="2.17" rx="1.09"/><rect class="cls-1" x="34.08" y="37.91" width="11.91" height="2.17" rx="1.09"/><rect class="cls-1" x="34.08" y="41.5" width="11.91" height="2.17" rx="1.09"/></svg>