<svg id="Capa_1" data-name="Capa 1" xmlns="http://www.w3.org/2000/svg" viewBox="0 0 61.63 61.63"><defs><style>.cls-1,.cls-5{fill:#36c;}.cls-2,.cls-3{fill:#fff;}.cls-2,.cls-4{stroke:#fff;}.cls-2,.cls-4,.cls-5{stroke-miterlimit:10;}.cls-2{stroke-width:0.32px;}.cls-4{fill:none;stroke-width:1.03px;}.cls-5{stroke:#36c;stroke-width:0.26px;}</style></defs><title>induccion</title><rect class="cls-1" width="61.63" height="61.63" rx="9.55"/><path class="cls-2" d="M303.4,396.67a9.6,9.6,0,1,1,9.6-9.6A9.62,9.62,0,0,1,303.4,396.67Zm0-18.84a9.24,9.24,0,1,0,9.24,9.24A9.25,9.25,0,0,0,303.4,377.83Z" transform="translate(-275.18 -365.18)"/><path class="cls-2" d="M321.42,414.47h-35.7v-.19c0-9.91,2.73-17.09,7.9-20.76l.16-.12.1.17a11.3,11.3,0,0,0,19.22-.1l.1-.17.16.11c5.27,3.64,8.06,10.86,8.06,20.87Zm-35.33-.37h35c0-6.82-1.4-15.77-7.74-20.28a11.66,11.66,0,0,1-19.64.11C288.74,397.54,286.12,404.5,286.09,414.1Z" transform="translate(-275.18 -365.18)"/><path class="cls-3" d="M316.17,384.55a5,5,0,0,1,7.37.4s3.83,3.56,6.58-1.32v10.22s-4.92,2.06-7.64,0c0,0-4.49-3.88-6.31-1Z" transform="translate(-275.18 -365.18)"/><line class="cls-4" x1="40.99" y1="42.22" x2="40.99" y2="19.36"/><path class="cls-5" d="M322.08,391.88h1v-3.7c0-.07,0-.15,0-.23l-1,.89a.11.11,0,0,1-.08,0,.08.08,0,0,1-.08,0l-.1-.13,1.32-1.16h.24v4.34h1v.23h-2.34Z" transform="translate(-275.18 -365.18)"/></svg>