<svg id="Capa_1" data-name="Capa 1" xmlns="http://www.w3.org/2000/svg" xmlns:xlink="http://www.w3.org/1999/xlink" viewBox="0 0 61.63 61.63"><defs><style>.cls-1{fill:none;}.cls-2{clip-path:url(#clip-path);}.cls-3{fill:#36c;}.cls-4,.cls-5{fill:#fff;}.cls-4{stroke:#fff;stroke-miterlimit:10;stroke-width:0.32px;}</style><clipPath id="clip-path" transform="translate(-275.18 -365.18)"><rect class="cls-1" x="275.18" y="365.18" width="61.63" height="61.63" rx="9.55"/></clipPath></defs><title>solicitar</title><g class="cls-2"><rect class="cls-3" width="61.63" height="61.63" rx="9.55"/><path class="cls-3" d="M293.44,405.42a6.52,6.52,0,0,0,1.07.75,4.62,4.62,0,0,0-.05,1.85l-1.18.58c-.16.13.11,1.06.48,1.33a5.93,5.93,0,0,0,1.33-.24,4.72,4.72,0,0,0,1.24,1.32c-.24.7-.42,1.22-.43,1.29s.82.66,1.28.59a6,6,0,0,0,.79-1.14,4.59,4.59,0,0,0,1.88.05,11,11,0,0,0,.72,1.27c.18.14,1.33-.48,1.33-.48s-.17-.61-.39-1.44a4.51,4.51,0,0,0,1.3-1.24,10.86,10.86,0,0,0,1.4.39c.23,0,.6-1.28.6-1.28l-1.27-.73a4.52,4.52,0,0,0,.06-1.83,11.08,11.08,0,0,0,1.23-.69c.14-.19-.49-1.33-.49-1.33l-1.36.37a4.61,4.61,0,0,0-1.28-1.36,10.54,10.54,0,0,0,.36-1.32c0-.23-1.28-.6-1.28-.6l-.69,1.19a4.71,4.71,0,0,0-1.79-.07c-.3-.62-.53-1.08-.57-1.13s-1.05.11-1.33.49a6.43,6.43,0,0,0,.23,1.25,4.83,4.83,0,0,0-1.38,1.29c-.66-.23-1.15-.4-1.21-.41S293.37,405,293.44,405.42Zm6.63-.41a2.46,2.46,0,1,1-3.27,1.19A2.46,2.46,0,0,1,300.07,405Z" transform="translate(-275.18 -365.18)"/></g><path class="cls-4" d="M305.83,398.45a9.6,9.6,0,1,1,9.6-9.6A9.62,9.62,0,0,1,305.83,398.45Zm0-18.83a9.23,9.23,0,1,0,9.23,9.23A9.24,9.24,0,0,0,305.83,379.62Z" transform="translate(-275.18 -365.18)"/><path class="cls-4" d="M323.85,416.25h-35.7v-.18c0-9.92,2.73-17.1,7.9-20.77l.16-.11.1.16a11.3,11.3,0,0,0,19.22-.1l.1-.17.16.11c5.27,3.64,8.06,10.86,8.06,20.88Zm-35.33-.37h35c0-6.82-1.4-15.77-7.75-20.28a11.65,11.65,0,0,1-19.63.11C291.17,399.32,288.55,406.28,288.52,415.88Z" transform="translate(-275.18 -365.18)"/><path class="cls-5" d="M294.48,387.94a11.59,11.59,0,0,1,1-3.43,1.42,1.42,0,0,0-.71-.36c0,.13,0,.25,0,.38h-.5c0-.13,0-.26,0-.39a1.4,1.4,0,0,0-1.18,1.36v.05a3.32,3.32,0,0,1,1.41-.33Z" transform="translate(-275.18 -365.18)"/><path class="cls-5" d="M294.48,391.77a3.31,3.31,0,0,1-1.41-.32v.05a1.41,1.41,0,0,0,1.41,1.4,1.33,1.33,0,0,0,.44-.09,10.78,10.78,0,0,1-.44-2.06Z" transform="translate(-275.18 -365.18)"/><path class="cls-5" d="M295.79,392a10.15,10.15,0,0,1-.34-2.61,10.34,10.34,0,0,1,.43-3v-.88a1.37,1.37,0,0,0-.42-1,11.59,11.59,0,0,0-1,3.43v2.81a10.78,10.78,0,0,0,.44,2.06A1.38,1.38,0,0,0,295.79,392Z" transform="translate(-275.18 -365.18)"/><path class="cls-5" d="M295.88,386.38a10.34,10.34,0,0,0-.43,3,10.15,10.15,0,0,0,.34,2.61,1.34,1.34,0,0,0,.09-.45Z" transform="translate(-275.18 -365.18)"/><path class="cls-5" d="M291.2,388.5a3.28,3.28,0,0,0,1.87,2.95v-5.9A3.27,3.27,0,0,0,291.2,388.5Z" transform="translate(-275.18 -365.18)"/><path class="cls-5" d="M294.48,390.75a9.92,9.92,0,0,1,0-2.81v-2.72a3.32,3.32,0,0,0-1.41.33v5.9a3.31,3.31,0,0,0,1.41.32Z" transform="translate(-275.18 -365.18)"/><path class="cls-5" d="M294.48,390.75v-2.81a9.92,9.92,0,0,0,0,2.81Z" transform="translate(-275.18 -365.18)"/><path class="cls-5" d="M316.5,384.53c0-.07,0-.14,0-.21a1.28,1.28,0,0,0-.21.14,11.05,11.05,0,0,1,.92,2.85v-2.09a3.31,3.31,0,0,1,1.4.33v-.05a1.4,1.4,0,0,0-1.4-1.4,1.3,1.3,0,0,0-.21,0c0,.13,0,.26,0,.39Z" transform="translate(-275.18 -365.18)"/><path class="cls-5" d="M317.2,391.37a11.51,11.51,0,0,1-.35,1.46,1.28,1.28,0,0,0,.35.07,1.4,1.4,0,0,0,1.4-1.4v-.05a3.3,3.3,0,0,1-1.4.32Z" transform="translate(-275.18 -365.18)"/><path class="cls-5" d="M317.2,387.31a11.05,11.05,0,0,0-.92-2.85,1.39,1.39,0,0,0-.48,1v.57a10.29,10.29,0,0,1,.15,6,1.38,1.38,0,0,0,.9.73,11.51,11.51,0,0,0,.35-1.46Z" transform="translate(-275.18 -365.18)"/><path class="cls-5" d="M316,392.1a10.29,10.29,0,0,0-.15-6v5.43A1.33,1.33,0,0,0,316,392.1Z" transform="translate(-275.18 -365.18)"/><path class="cls-5" d="M320.47,388.5a3.27,3.27,0,0,0-1.87-2.95v5.9A3.28,3.28,0,0,0,320.47,388.5Z" transform="translate(-275.18 -365.18)"/><path class="cls-5" d="M317.2,387.31a10.94,10.94,0,0,1,0,4.06v.4a3.3,3.3,0,0,0,1.4-.32v-5.9a3.31,3.31,0,0,0-1.4-.33Z" transform="translate(-275.18 -365.18)"/><path class="cls-5" d="M317.39,389.34a11.35,11.35,0,0,0-.19-2v4.06A11.27,11.27,0,0,0,317.39,389.34Z" transform="translate(-275.18 -365.18)"/><path class="cls-4" d="M294.75,384.15c.24-4.88,5.12-8.93,10.88-8.93h0v-.51c-6,0-11.13,4.28-11.38,9.43a1.85,1.85,0,0,1,.23,0A1.28,1.28,0,0,1,294.75,384.15Z" transform="translate(-275.18 -365.18)"/><path class="cls-5" d="M294.73,384.53c0-.13,0-.25,0-.38a1.28,1.28,0,0,0-.27,0,1.85,1.85,0,0,0-.23,0c0,.13,0,.26,0,.39Z" transform="translate(-275.18 -365.18)"/><path class="cls-4" d="M305.63,375.22A11.77,11.77,0,0,1,313.3,378a8.53,8.53,0,0,1,3.19,6.35,1.43,1.43,0,0,1,.5-.18,9.12,9.12,0,0,0-3.36-6.56,12.38,12.38,0,0,0-8-2.87v.51Z" transform="translate(-275.18 -365.18)"/><path class="cls-5" d="M316.5,384.53H317c0-.13,0-.26,0-.39a1.43,1.43,0,0,0-.5.18C316.49,384.39,316.5,384.46,316.5,384.53Z" transform="translate(-275.18 -365.18)"/><polygon class="cls-4" points="30.45 10.03 30.45 10.03 30.45 9.78 30.45 10.03 30.45 10.03"/><path class="cls-5" d="M313.27,394a1.3,1.3,0,0,0-1.28-1.17h-3.76a1.31,1.31,0,0,0,0,2.62H312a1.31,1.31,0,0,0,1.31-1.31A.7.7,0,0,0,313.27,394Z" transform="translate(-275.18 -365.18)"/><path class="cls-5" d="M317.45,392.9H317c0,.1-.09.21-.25.33s-.17.47-.27.69C317,393.67,317.45,393.33,317.45,392.9Z" transform="translate(-275.18 -365.18)"/><path class="cls-5" d="M313.3,394l.54.24.24-.38-.78,0Z" transform="translate(-275.18 -365.18)"/><path class="cls-5" d="M313.3,394v.39l.46,0,.08-.13Z" transform="translate(-275.18 -365.18)"/><path class="cls-5" d="M315.08,394.28a5.88,5.88,0,0,0,1.35-.36c.1-.22.18-.46.27-.69a3.88,3.88,0,0,1-1.35.49A5.77,5.77,0,0,1,315.08,394.28Z" transform="translate(-275.18 -365.18)"/><path class="cls-5" d="M313.84,394.28l.27.12c.33,0,.66-.07,1-.12a5.77,5.77,0,0,0,.27-.56,9.94,9.94,0,0,1-1.27.18Z" transform="translate(-275.18 -365.18)"/><path class="cls-5" d="M313.76,394.41h.35l-.27-.12Z" transform="translate(-275.18 -365.18)"/><path class="cls-5" d="M292.55,406.21a5.49,5.49,0,0,0,1.07.75,4.62,4.62,0,0,0-.06,1.85c-.65.31-1.13.55-1.17.59s.11,1.05.48,1.32a6,6,0,0,0,1.33-.24,4.45,4.45,0,0,0,1.24,1.32c-.25.7-.43,1.22-.44,1.29s.83.67,1.29.6a6.54,6.54,0,0,0,.78-1.15,4.59,4.59,0,0,0,1.88,0,11,11,0,0,0,.72,1.27c.19.14,1.33-.48,1.33-.48l-.38-1.44a4.75,4.75,0,0,0,1.3-1.23,11.42,11.42,0,0,0,1.39.38c.23,0,.6-1.28.6-1.28l-1.26-.73a4.48,4.48,0,0,0,.05-1.82,9.43,9.43,0,0,0,1.23-.7c.14-.19-.48-1.33-.48-1.33l-1.37.37a4.48,4.48,0,0,0-1.28-1.36,8.85,8.85,0,0,0,.36-1.32c0-.23-1.28-.6-1.28-.6l-.69,1.19a4.5,4.5,0,0,0-1.79-.06c-.3-.63-.53-1.09-.56-1.14s-1.06.11-1.33.49a5.42,5.42,0,0,0,.22,1.26,4.51,4.51,0,0,0-1.37,1.28c-.67-.23-1.15-.4-1.22-.41S292.48,405.76,292.55,406.21Zm6.62-.41a2.46,2.46,0,1,1-3.26,1.19A2.46,2.46,0,0,1,299.17,405.8Z" transform="translate(-275.18 -365.18)"/></svg>