<svg xmlns="http://www.w3.org/2000/svg" viewBox="0 0 48.42 47.18"><defs><style>.cls-1,.cls-2{fill:#36c;}.cls-2{font-size:11.86px;font-family:Lato-Bold, Lato;font-weight:700;}.cls-3{fill:none;stroke:#36c;stroke-miterlimit:10;}</style></defs><g id="Capa_2" data-name="Capa 2"><g id="Capa_1-2" data-name="Capa 1"><path class="cls-1" d="M45,13.78c-.13.08-.27.18-.41.25a7.32,7.32,0,0,1-.86.55,21.86,21.86,0,0,1,1.93,9A22.16,22.16,0,1,1,35.08,4.74l0,0,.78-1L36,3.64l0,0,.05,0a23.57,23.57,0,1,0,11.16,20A23.34,23.34,0,0,0,45,13.78Z"/><path class="cls-1" d="M27.23,30.67h0l-3.68-.06H19.86a.41.41,0,0,1-.41-.43,6.54,6.54,0,0,0-1.77-4.3,9.17,9.17,0,0,1-1.25-9.09c1.17-2.66,3.7-4.12,7.12-4.13h0c3.41,0,5.94,1.47,7.11,4.13a9.15,9.15,0,0,1-1.25,9.09,6.62,6.62,0,0,0-1.77,4.36.42.42,0,0,1-.12.3A.38.38,0,0,1,27.23,30.67Zm-3.68-.88,3.28.06a7.6,7.6,0,0,1,2-4.51,8.22,8.22,0,0,0,1.11-8.21c-.73-1.66-2.42-3.64-6.36-3.64s-5.64,2-6.37,3.64a8.27,8.27,0,0,0,1.11,8.21,7.47,7.47,0,0,1,2,4.46Z"/><path class="cls-1" d="M27.43,34.07H19.67a.79.79,0,0,1-.79-.79V31.73a.79.79,0,0,1,.79-.79h7.76a.78.78,0,0,1,.78.79v1.55A.79.79,0,0,1,27.43,34.07Zm-7.73-.82h7.7V31.76H19.7Z"/><path class="cls-1" d="M23.55,38.67a4,4,0,0,1-3.91-4.05.4.4,0,0,1,.41-.4h7a.41.41,0,0,1,.41.4A4,4,0,0,1,23.55,38.67ZM20.48,35a3.08,3.08,0,0,0,6.14,0Z"/><path class="cls-1" d="M14.6,19.74a.23.23,0,0,1-.18.26l-1.4.24a.22.22,0,0,1-.25-.18h0A.23.23,0,0,1,13,19.8l1.39-.24a.23.23,0,0,1,.26.18Z"/><path class="cls-1" d="M13,20.44a.42.42,0,0,1-.24-.07.46.46,0,0,1-.17-.28.42.42,0,0,1,.34-.49l1.4-.24a.42.42,0,0,1,.49.35h0a.43.43,0,0,1-.35.49l-1.39.24Zm1.41-.67L13,20l1.42-.22A0,0,0,0,0,14.39,19.77Z"/><path class="cls-1" d="M15.35,15.62a.22.22,0,0,1-.28.15l-1.35-.42a.22.22,0,0,1-.14-.28h0a.21.21,0,0,1,.27-.14l1.35.42a.22.22,0,0,1,.15.27Z"/><path class="cls-1" d="M15.14,16A.3.3,0,0,1,15,16l-1.35-.42a.39.39,0,0,1-.25-.2.47.47,0,0,1,0-.33.4.4,0,0,1,.21-.25.45.45,0,0,1,.32,0l1.35.42a.42.42,0,0,1,.28.53h0A.41.41,0,0,1,15.14,16Zm-1.35-.86,1.34.45.22,0-.2-.06s0,0,0,0Z"/><path class="cls-1" d="M17.89,12.3a.24.24,0,0,1-.32,0l-1-1a.21.21,0,0,1,0-.31h0a.22.22,0,0,1,.31,0l1,1a.23.23,0,0,1,0,.32Z"/><path class="cls-1" d="M17.73,12.57a.42.42,0,0,1-.3-.12l-1-1a.43.43,0,0,1-.13-.3.41.41,0,0,1,.12-.3.42.42,0,0,1,.6,0l1,1a.43.43,0,0,1,0,.6h0A.43.43,0,0,1,17.73,12.57Zm-1-1.43,1,1,.17.15-.15-.15s0,0,0,0Z"/><path class="cls-1" d="M21.66,10.48a.22.22,0,0,1-.28-.14L20.93,9a.22.22,0,0,1,.13-.28h0a.23.23,0,0,1,.29.14l.45,1.34a.22.22,0,0,1-.14.28Z"/><path class="cls-1" d="M21.59,10.7a.44.44,0,0,1-.4-.29l-.46-1.34A.42.42,0,0,1,21,8.53a.4.4,0,0,1,.32,0,.42.42,0,0,1,.22.25L22,10.14a.4.4,0,0,1,0,.32.41.41,0,0,1-.24.21h0A.31.31,0,0,1,21.59,10.7Zm-.44-1.77.42,1.35.09.2-.07-.19h0Z"/><path class="cls-1" d="M25.85,10.58a.22.22,0,0,1-.19-.25l.2-1.4a.22.22,0,0,1,.25-.19h0A.22.22,0,0,1,26.3,9l-.2,1.4a.22.22,0,0,1-.25.19Z"/><path class="cls-1" d="M25.88,10.78h-.06a.41.41,0,0,1-.28-.17.39.39,0,0,1-.08-.31l.2-1.4a.46.46,0,0,1,.17-.28.39.39,0,0,1,.31-.08A.42.42,0,0,1,26.5,9l-.2,1.4a.46.46,0,0,1-.17.28A.38.38,0,0,1,25.88,10.78ZM26.1,9l-.24,1.4,0,0h0Z"/><path class="cls-1" d="M29.53,12.56a.21.21,0,0,1-.05-.3l.82-1.16a.21.21,0,0,1,.3,0h0a.22.22,0,0,1,.06.31l-.82,1.15a.22.22,0,0,1-.31.05Z"/><path class="cls-1" d="M29.66,12.81a.46.46,0,0,1-.25-.08.43.43,0,0,1-.17-.28.42.42,0,0,1,.07-.31L30.13,11a.43.43,0,0,1,.59-.1.42.42,0,0,1,.1.59L30,12.63A.44.44,0,0,1,29.66,12.81Zm.83-1.57-.85,1.13v0h0Z"/><path class="cls-1" d="M31.91,16a.23.23,0,0,1,.1-.3l1.25-.66a.23.23,0,0,1,.3.09h0a.23.23,0,0,1-.1.3l-1.25.66a.23.23,0,0,1-.3-.09Z"/><path class="cls-1" d="M32.11,16.33l-.13,0a.4.4,0,0,1-.25-.21.42.42,0,0,1,.18-.57l1.25-.66a.47.47,0,0,1,.33,0,.4.4,0,0,1,.25.21.42.42,0,0,1-.18.57l-1.25.66A.49.49,0,0,1,32.11,16.33Zm1.26-1.07-1.28.65h0Z"/><path class="cls-1" d="M32.47,20.16a.22.22,0,0,1,.22-.23l1.42,0a.22.22,0,0,1,.22.22h0a.23.23,0,0,1-.22.23H32.7a.21.21,0,0,1-.23-.21Z"/><path class="cls-1" d="M32.69,20.58a.45.45,0,0,1-.29-.12.39.39,0,0,1-.13-.3.41.41,0,0,1,.12-.3.38.38,0,0,1,.3-.13l1.41,0h0a.42.42,0,0,1,.42.42.42.42,0,0,1-.42.43l-1.41,0Zm0-.44h0Z"/><text class="cls-2" transform="translate(19.17 24.87)">C</text><circle class="cls-3" cx="40.97" cy="8.12" r="6.95"/><path class="cls-1" d="M46,7.05V9.17H35.92V7.05ZM42.13,2.86V13.38h-2.3V2.86Z"/></g></g></svg>