<svg xmlns="http://www.w3.org/2000/svg" viewBox="0 0 18.11 12.77"><defs><style>.cls-1{fill:#fff;}</style></defs><g id="Capa_2" data-name="Capa 2"><g id="Capa_1-2" data-name="Capa 1"><path class="cls-1" d="M18,1.39A1.5,1.5,0,0,0,16.55,0h-15A1.46,1.46,0,0,0,.45.52l0,0L.33.63A1,1,0,0,0,.23.8l0,.08L.16,1l0,0A2,2,0,0,0,0,1.74l.08,8.38a2.69,2.69,0,0,0,2.68,2.65h12.6A2.75,2.75,0,0,0,18.11,10V1.91A1.72,1.72,0,0,0,18,1.39Zm-.72.94V10A1.85,1.85,0,0,1,17,11.08L12.77,6.91Zm-.56-.56-.48.47-.21.2L16,2.52c-.05,0-.09.1-.14.15l-.11.12L13.92,4.61l-.59.6L10.14,8.43a1.25,1.25,0,0,1-1.77,0l-6-6v0l-.05,0C2.15,2.21,2,2,1.79,1.86L1,1.07A.66.66,0,0,1,1.54.81h15a.66.66,0,0,1,.64.5ZM6.2,7.39,7.8,9a2.05,2.05,0,0,0,2.91,0l1.5-1.51,4.2,4.17a1.9,1.9,0,0,1-1.05.32H2.76a1.83,1.83,0,0,1-.93-.25Zm-5,3.79a1.91,1.91,0,0,1-.36-1.07L.81,2,5.63,6.83Z"/><path class="cls-1" d="M10.31,2a.46.46,0,0,0-.81.29V3.45a.75.75,0,0,0-.26,0H6.64a.77.77,0,0,0-.78.77h0A.77.77,0,0,0,6.64,5h2.6a.75.75,0,0,0,.26,0V6a.46.46,0,0,0,.81.29l1.54-1.85a.47.47,0,0,0,0-.59Z"/></g></g></svg>