<svg id="flecha_derecha" data-name="flecha derecha" xmlns="http://www.w3.org/2000/svg" width="11.327" height="10.734" viewBox="0 0 11.327 10.734">
  <path id="Trazado_34" data-name="Trazado 34" d="M512.111,1117.724h-5.822a1.24,1.24,0,0,1-1.263-1.086,1.228,1.228,0,0,1,.908-1.338,1.661,1.661,0,0,1,.446-.048q2.7-.006,5.4,0h.279l.038-.064c-.26-.247-.523-.491-.779-.743-.4-.393-.8-.789-1.189-1.19a1.193,1.193,0,0,1-.267-1.41,1.221,1.221,0,0,1,1.94-.4c.693.671,1.37,1.358,2.053,2.04s1.39,1.4,2.09,2.089a1.2,1.2,0,0,1,.018,1.77q-2.008,2.037-4.019,4.074a1.262,1.262,0,0,1-1.344.378,1.168,1.168,0,0,1-.827-.911,1.2,1.2,0,0,1,.358-1.161c.591-.6,1.188-1.19,1.782-1.785C511.965,1117.881,512.015,1117.825,512.111,1117.724Z" transform="translate(-505.015 -1111.119)" fill="#36c"/>
</svg>
