<svg id="crear_tema" data-name="crear tema" xmlns="http://www.w3.org/2000/svg" width="64.883" height="46.931" viewBox="0 0 64.883 46.931">
  <g id="Grupo_32" data-name="Grupo 32" transform="translate(-579.781 -412.459)">
    <g id="Grupo_30" data-name="Grupo 30">
      <path id="Trazado_106" data-name="Trazado 106" d="M611.971,443.354a15.447,15.447,0,1,1,15.447-15.447A15.465,15.465,0,0,1,611.971,443.354Zm0-29.92a14.473,14.473,0,1,0,14.472,14.473A14.489,14.489,0,0,0,611.971,413.434Z" fill="#36c"/>
    </g>
    <g id="Grupo_31" data-name="Grupo 31">
      <path id="Trazado_107" data-name="Trazado 107" d="M620.068,426.193v3.4h-16.2v-3.4Zm-6.236-6.727v16.882h-3.69V419.466Z" fill="#36c"/>
    </g>
  </g>
  <g id="Grupo_33" data-name="Grupo 33" transform="translate(-579.781 -412.459)">
    <path id="Trazado_108" data-name="Trazado 108" d="M586.645,457.242a3.331,3.331,0,0,1-.72,1.157,3.1,3.1,0,0,1-1.1.739,3.985,3.985,0,0,1-3.324-.246,3.323,3.323,0,0,1-1.272-1.411,5.464,5.464,0,0,1,0-4.343,3.326,3.326,0,0,1,1.272-1.41,3.645,3.645,0,0,1,1.926-.5,4.155,4.155,0,0,1,1.368.21,2.782,2.782,0,0,1,1.026.624,3.043,3.043,0,0,1,.678,1.015l-.948.443a2.207,2.207,0,0,0-.762-1.038,2.184,2.184,0,0,0-1.29-.353,2.639,2.639,0,0,0-1.416.378,2.535,2.535,0,0,0-.954,1.086,3.916,3.916,0,0,0-.342,1.716,4.115,4.115,0,0,0,.324,1.71,2.441,2.441,0,0,0,.924,1.091,2.592,2.592,0,0,0,1.416.379,2.393,2.393,0,0,0,1.38-.4,2.253,2.253,0,0,0,.852-1.206Z" fill="#36c"/>
    <path id="Trazado_109" data-name="Trazado 109" d="M588.313,459.27v-6h.78l.132.984a1.764,1.764,0,0,1,.737-.828,2.364,2.364,0,0,1,1.183-.277,2.723,2.723,0,0,1,.342.025.886.886,0,0,1,.318.1l-.168.876a1.557,1.557,0,0,0-.288-.072,3.132,3.132,0,0,0-.445-.024,1.5,1.5,0,0,0-.75.216,1.717,1.717,0,0,0-.629.654,2.2,2.2,0,0,0-.252,1.109v3.241Z" fill="#36c"/>
    <path id="Trazado_110" data-name="Trazado 110" d="M594.2,459.012a2.625,2.625,0,0,1-1.038-1.08,3.5,3.5,0,0,1-.372-1.662,3.571,3.571,0,0,1,.365-1.656,2.623,2.623,0,0,1,1.015-1.087,2.9,2.9,0,0,1,1.488-.378,2.736,2.736,0,0,1,1.416.355,2.357,2.357,0,0,1,.918.977,3.026,3.026,0,0,1,.318,1.393q0,.192-.012.366a2.841,2.841,0,0,1-.036.306h-4.848v-.853h4.428l-.5.372a2,2,0,0,0-.384-1.523,1.636,1.636,0,0,0-1.32-.552,1.852,1.852,0,0,0-1.014.27,1.757,1.757,0,0,0-.66.786,2.944,2.944,0,0,0-.234,1.224,2.883,2.883,0,0,0,.24,1.224,1.751,1.751,0,0,0,.684.785,1.961,1.961,0,0,0,1.044.271,2.1,2.1,0,0,0,1.056-.24,1.859,1.859,0,0,0,.684-.7l.756.444a2.489,2.489,0,0,1-.984.978,3.27,3.27,0,0,1-3.006-.024Z" fill="#36c"/>
    <path id="Trazado_111" data-name="Trazado 111" d="M603.277,454.355a1.373,1.373,0,0,0-1.02-.365,1.919,1.919,0,0,0-1.068.281,1.582,1.582,0,0,0-.624.859l-.781-.481a2.111,2.111,0,0,1,.9-1.1,2.97,2.97,0,0,1,1.6-.4,2.571,2.571,0,0,1,1.675.523,1.855,1.855,0,0,1,.642,1.53v2.9c0,.289.151.433.456.433a1.656,1.656,0,0,0,.444-.06l-.049.755a1.4,1.4,0,0,1-.624.121,1.227,1.227,0,0,1-.881-.312,1.142,1.142,0,0,1-.318-.9l.228-.084a1.667,1.667,0,0,1-.48.744,2.187,2.187,0,0,1-.768.444,2.753,2.753,0,0,1-.876.144,2.281,2.281,0,0,1-1.416-.426,1.423,1.423,0,0,1-.564-1.206,1.476,1.476,0,0,1,.444-1.1,2.479,2.479,0,0,1,1.259-.6l2.376-.468v.792l-1.931.4a2.32,2.32,0,0,0-.888.343.7.7,0,0,0-.276.594.733.733,0,0,0,.3.605,1.314,1.314,0,0,0,.829.235,2.256,2.256,0,0,0,.881-.168,1.5,1.5,0,0,0,.649-.5,1.364,1.364,0,0,0,.246-.828v-1.656A1.422,1.422,0,0,0,603.277,454.355Z" fill="#36c"/>
    <path id="Trazado_112" data-name="Trazado 112" d="M606.925,459.27v-6h.78l.132.984a1.764,1.764,0,0,1,.737-.828,2.366,2.366,0,0,1,1.183-.277,2.7,2.7,0,0,1,.342.025.886.886,0,0,1,.318.1l-.168.876a1.538,1.538,0,0,0-.288-.072,3.116,3.116,0,0,0-.444-.024,1.5,1.5,0,0,0-.75.216,1.712,1.712,0,0,0-.63.654,2.2,2.2,0,0,0-.252,1.109v3.241Z" fill="#36c"/>
    <path id="Trazado_113" data-name="Trazado 113" d="M619.512,453.27v.828h-4.344v-.828Zm-2.184-1.7v6.049a.818.818,0,0,0,.252.659.956.956,0,0,0,.648.217,1.384,1.384,0,0,0,.6-.12,1.637,1.637,0,0,0,.456-.324l.336.8a2.048,2.048,0,0,1-.654.4,2.434,2.434,0,0,1-.87.144,2.228,2.228,0,0,1-.852-.162,1.351,1.351,0,0,1-.63-.516,1.728,1.728,0,0,1-.246-.93V451.83Z" fill="#36c"/>
    <path id="Trazado_114" data-name="Trazado 114" d="M621.931,459.012a2.624,2.624,0,0,1-1.038-1.08,3.5,3.5,0,0,1-.372-1.662,3.571,3.571,0,0,1,.365-1.656,2.611,2.611,0,0,1,1.015-1.087,2.893,2.893,0,0,1,1.488-.378,2.739,2.739,0,0,1,1.416.355,2.364,2.364,0,0,1,.918.977,3.025,3.025,0,0,1,.317,1.393q0,.192-.012.366a2.613,2.613,0,0,1-.036.306h-4.847v-.853h4.427l-.5.372a2.009,2.009,0,0,0-.384-1.523,1.638,1.638,0,0,0-1.321-.552,1.848,1.848,0,0,0-1.013.27,1.757,1.757,0,0,0-.66.786,2.928,2.928,0,0,0-.235,1.224,2.884,2.884,0,0,0,.24,1.224,1.757,1.757,0,0,0,.684.785,1.964,1.964,0,0,0,1.044.271,2.109,2.109,0,0,0,1.057-.24,1.857,1.857,0,0,0,.683-.7l.756.444a2.479,2.479,0,0,1-.983.978,3.27,3.27,0,0,1-3.006-.024Z" fill="#36c"/>
    <path id="Trazado_115" data-name="Trazado 115" d="M627.864,459.27v-6h.84l.06.936a1.973,1.973,0,0,1,.847-.8,2.44,2.44,0,0,1,1.073-.252,2.6,2.6,0,0,1,1.2.289,1.937,1.937,0,0,1,.864.888,1.731,1.731,0,0,1,.54-.666,2.5,2.5,0,0,1,.762-.385,2.7,2.7,0,0,1,.786-.126,2.584,2.584,0,0,1,1.1.241,2.041,2.041,0,0,1,.858.744,2.291,2.291,0,0,1,.336,1.3v3.84h-.96v-3.745a1.494,1.494,0,0,0-.408-1.175,1.462,1.462,0,0,0-1.008-.36,1.76,1.76,0,0,0-.876.228,1.681,1.681,0,0,0-.654.672,2.225,2.225,0,0,0-.246,1.091v3.289h-.96v-3.745a1.5,1.5,0,0,0-.407-1.175,1.468,1.468,0,0,0-1.009-.36,1.786,1.786,0,0,0-.81.21,1.717,1.717,0,0,0-.69.666,2.3,2.3,0,0,0-.276,1.2v3.2Z" fill="#36c"/>
    <path id="Trazado_116" data-name="Trazado 116" d="M642.444,454.355a1.373,1.373,0,0,0-1.02-.365,1.919,1.919,0,0,0-1.068.281,1.582,1.582,0,0,0-.624.859l-.781-.481a2.111,2.111,0,0,1,.9-1.1,2.97,2.97,0,0,1,1.6-.4,2.571,2.571,0,0,1,1.675.523,1.855,1.855,0,0,1,.642,1.53v2.9c0,.289.151.433.456.433a1.656,1.656,0,0,0,.444-.06l-.049.755a1.4,1.4,0,0,1-.624.121,1.227,1.227,0,0,1-.881-.312,1.142,1.142,0,0,1-.318-.9l.228-.084a1.667,1.667,0,0,1-.48.744,2.187,2.187,0,0,1-.768.444,2.753,2.753,0,0,1-.876.144,2.281,2.281,0,0,1-1.416-.426,1.423,1.423,0,0,1-.564-1.206,1.476,1.476,0,0,1,.444-1.1,2.48,2.48,0,0,1,1.259-.6l2.376-.468v.792l-1.931.4a2.32,2.32,0,0,0-.888.343.7.7,0,0,0-.276.594.732.732,0,0,0,.3.605,1.314,1.314,0,0,0,.829.235,2.256,2.256,0,0,0,.881-.168,1.5,1.5,0,0,0,.649-.5,1.364,1.364,0,0,0,.246-.828v-1.656A1.422,1.422,0,0,0,642.444,454.355Z" fill="#36c"/>
  </g>
</svg>
