<svg xmlns="http://www.w3.org/2000/svg" width="26.888" height="29.794" viewBox="0 0 26.888 29.794">
  <g id="jpge" transform="translate(0.25 0.702)">
    <path id="Trazado_138" data-name="Trazado 138" d="M66.217,37.852,52.136,37.74a2.621,2.621,0,0,0-2.642,2.624l.022,23.113A2.621,2.621,0,0,0,52.128,66.1l16.667.058a2.621,2.621,0,0,0,2.63-2.612l.067-20.452" transform="translate(-47.299 -37.74)" fill="none" stroke="#36c" stroke-linecap="round" stroke-linejoin="round" stroke-width="1.356"/>
    <path id="Trazado_139" data-name="Trazado 139" d="M66.493,38l5,5h-5.01V38" transform="translate(-47.299 -37.74)" fill="none" stroke="#36c" stroke-linecap="round" stroke-linejoin="round" stroke-width="1.356"/>
    <rect id="Rect치ngulo_59" data-name="Rect치ngulo 59" width="26.388" height="8.627" rx="2.159" transform="translate(0 15.746)" fill="#e6effd" stroke="#36c" stroke-miterlimit="10" stroke-width="0.5"/>
    <rect id="Rect치ngulo_60" data-name="Rect치ngulo 60" width="10.653" height="10.003" rx="1.667" transform="translate(7.868 4.018)" fill="none" stroke="#36c" stroke-miterlimit="10" stroke-width="0.5"/>
    <path id="Trazado_140" data-name="Trazado 140" d="M64.329,51.212,62.857,48.86a.766.766,0,0,0-1.3,0l-.157.251a.275.275,0,0,1-.483-.031l-.971-2.1a.739.739,0,0,0-1.343,0l-2.149,4.656a.09.09,0,0,0,.082.128h7.314C64.235,51.762,64.489,51.469,64.329,51.212Z" transform="translate(-47.299 -37.74)" fill="#36c"/>
    <circle id="Elipse_11" data-name="Elipse 11" cx="1.458" cy="1.458" r="1.458" transform="translate(13.691 5.42)" fill="none" stroke="#36c" stroke-miterlimit="10" stroke-width="1"/>
    <text id="PGE" transform="translate(14.744 23.149)" fill="#36c" font-size="10.382" font-family="AntipastoPro, Antipasto Pro"><tspan x="-8.27" y="0">PGE</tspan></text>
    <text id="J" transform="translate(5.236 22.26)" fill="#36c" font-size="8.966" font-family="AntipastoPro, Antipasto Pro"><tspan x="-0.865" y="0">J</tspan></text>
  </g>
</svg>
