<svg id="ivolucion" xmlns="http://www.w3.org/2000/svg" width="122.993" height="33.088" viewBox="0 0 122.993 33.088">
  <g id="Grupo_3" data-name="Grupo 3" transform="translate(-1740.072 -1791.552)">
    <g id="Grupo_2" data-name="Grupo 2">
      <path id="Trazado_13" data-name="Trazado 13" d="M1799.269,1792.281a3.47,3.47,0,0,1,2.528.867,3.345,3.345,0,0,1,.889,2.508,3.507,3.507,0,0,1-.889,2.586,3.407,3.407,0,0,1-2.528.894h-2.162v-6.855Zm.041,6.377a2.748,2.748,0,0,0,2.1-.779,3.125,3.125,0,0,0,.733-2.223,2.952,2.952,0,0,0-.733-2.145,2.8,2.8,0,0,0-2.1-.754h-1.683v5.9Z" fill="#fff"/>
      <path id="Trazado_14" data-name="Trazado 14" d="M1804.482,1792.935a.436.436,0,0,1-.317-.119.483.483,0,0,1,0-.635.482.482,0,0,1,.634,0,.483.483,0,0,1,0,.635A.436.436,0,0,1,1804.482,1792.935Zm.259,1.008v5.193h-.518v-5.193Z" fill="#fff"/>
      <path id="Trazado_15" data-name="Trazado 15" d="M1806.954,1798.912a1.839,1.839,0,0,1-.851-.918l.446-.3a1.51,1.51,0,0,0,.67.805,2.3,2.3,0,0,0,1.179.285,1.866,1.866,0,0,0,1.07-.27.83.83,0,0,0,.394-.716.741.741,0,0,0-.207-.536,1.426,1.426,0,0,0-.707-.328l-1.215-.259a2.061,2.061,0,0,1-1.048-.493,1.168,1.168,0,0,1-.333-.857,1.214,1.214,0,0,1,.25-.742,1.71,1.71,0,0,1,.7-.541,2.777,2.777,0,0,1,2.31.1,1.652,1.652,0,0,1,.717.92l-.436.281a1.345,1.345,0,0,0-.566-.791,1.85,1.85,0,0,0-1-.259,2.1,2.1,0,0,0-.758.13,1.192,1.192,0,0,0-.514.358.8.8,0,0,0-.182.51.787.787,0,0,0,.219.556,1.4,1.4,0,0,0,.726.348l1.247.269a1.961,1.961,0,0,1,1.012.458,1.087,1.087,0,0,1,.307.8,1.313,1.313,0,0,1-.55,1.108,2.417,2.417,0,0,1-1.476.41A2.881,2.881,0,0,1,1806.954,1798.912Z" fill="#fff"/>
      <path id="Trazado_16" data-name="Trazado 16" d="M1812.688,1798.912a2.258,2.258,0,0,1-.878-.934,3.079,3.079,0,0,1-.317-1.439,3.127,3.127,0,0,1,.312-1.434,2.258,2.258,0,0,1,.857-.939,2.353,2.353,0,0,1,1.241-.328,2.287,2.287,0,0,1,1.2.306,2.012,2.012,0,0,1,.779.867,2.944,2.944,0,0,1,.269,1.289c0,.063,0,.124,0,.182s-.009.113-.016.16h-4.311v-.467h4.082l-.27.2a2.136,2.136,0,0,0-.426-1.516,1.606,1.606,0,0,0-1.308-.562,1.833,1.833,0,0,0-.987.265,1.763,1.763,0,0,0-.665.78,2.817,2.817,0,0,0-.239,1.2,2.761,2.761,0,0,0,.244,1.2,1.754,1.754,0,0,0,.686.779,1.936,1.936,0,0,0,1.023.266,2,2,0,0,0,1.028-.254,1.716,1.716,0,0,0,.675-.723l.416.239a2.11,2.11,0,0,1-.842.879,2.5,2.5,0,0,1-1.267.316A2.478,2.478,0,0,1,1812.688,1798.912Z" fill="#fff"/>
      <path id="Trazado_17" data-name="Trazado 17" d="M1817.633,1799.136v-5.193h.467l.042,1.3-.083-.072a1.925,1.925,0,0,1,.435-.727,1.849,1.849,0,0,1,.7-.451,2.453,2.453,0,0,1,.873-.152,2.338,2.338,0,0,1,1.029.218,1.651,1.651,0,0,1,.7.645,2.049,2.049,0,0,1,.255,1.07v3.365h-.52v-3.2a1.629,1.629,0,0,0-.421-1.246,1.531,1.531,0,0,0-1.095-.4,1.916,1.916,0,0,0-.908.224,1.771,1.771,0,0,0-.686.649,1.931,1.931,0,0,0-.266,1.039v2.929Zm4.019-7.281a1.87,1.87,0,0,1-.172.633.86.86,0,0,1-.845.519.985.985,0,0,1-.479-.109,1.877,1.877,0,0,1-.352-.248,3.585,3.585,0,0,0-.307-.25.568.568,0,0,0-.338-.109.478.478,0,0,0-.41.191,1.409,1.409,0,0,0-.213.535h-.415a1.48,1.48,0,0,1,.327-.867,1.04,1.04,0,0,1,1.179-.176,2.1,2.1,0,0,1,.352.244c.1.09.207.172.307.245a.568.568,0,0,0,.338.109.481.481,0,0,0,.41-.188,1.238,1.238,0,0,0,.2-.529Z" fill="#fff"/>
      <path id="Trazado_18" data-name="Trazado 18" d="M1826.658,1794.67a1.38,1.38,0,0,0-1.039-.375,1.906,1.906,0,0,0-1.033.265,1.543,1.543,0,0,0-.618.836l-.426-.269a1.807,1.807,0,0,1,.769-.955,2.456,2.456,0,0,1,1.319-.334,2.01,2.01,0,0,1,1.4.462,1.69,1.69,0,0,1,.514,1.325v2.6c0,.368.166.551.5.551a.867.867,0,0,0,.374-.074l-.031.416a.982.982,0,0,1-.457.094.926.926,0,0,1-.66-.239.973.973,0,0,1-.245-.759v-.229l.136-.06a1.52,1.52,0,0,1-.405.726,1.847,1.847,0,0,1-.717.445,2.531,2.531,0,0,1-.851.147,1.971,1.971,0,0,1-1.226-.354,1.163,1.163,0,0,1-.468-.986,1.207,1.207,0,0,1,.385-.935,2.274,2.274,0,0,1,1.1-.5l2.15-.425v.435l-1.891.375a2.281,2.281,0,0,0-.919.369.766.766,0,0,0-.3.639.8.8,0,0,0,.322.68,1.492,1.492,0,0,0,.914.244,2.238,2.238,0,0,0,.831-.16,1.617,1.617,0,0,0,.67-.494,1.279,1.279,0,0,0,.264-.821v-1.59A1.443,1.443,0,0,0,1826.658,1794.67Z" fill="#fff"/>
      <path id="Trazado_19" data-name="Trazado 19" d="M1831.51,1799.24a2.337,2.337,0,0,1-1.216-.322,2.206,2.206,0,0,1-.847-.93,3.188,3.188,0,0,1-.305-1.449,3.073,3.073,0,0,1,.321-1.465,2.268,2.268,0,0,1,.873-.918,2.414,2.414,0,0,1,1.226-.318,2,2,0,0,1,1.23.384,1.866,1.866,0,0,1,.691,1.061l-.062.051v-3.782h.519v7.584h-.467l-.032-1.443.063-.021a1.893,1.893,0,0,1-.379.851,1.813,1.813,0,0,1-.707.535A2.266,2.266,0,0,1,1831.51,1799.24Zm.062-.457a1.707,1.707,0,0,0,.966-.276,1.828,1.828,0,0,0,.649-.794,2.93,2.93,0,0,0,.234-1.215,2.738,2.738,0,0,0-.234-1.18,1.8,1.8,0,0,0-.644-.758,1.718,1.718,0,0,0-.95-.265,1.767,1.767,0,0,0-1.413.6,2.859,2.859,0,0,0-.005,3.281A1.737,1.737,0,0,0,1831.572,1798.783Z" fill="#fff"/>
      <path id="Trazado_20" data-name="Trazado 20" d="M1837.907,1793.838a2.5,2.5,0,0,1,1.283.322,2.243,2.243,0,0,1,.873.93,3.47,3.47,0,0,1,0,2.9,2.237,2.237,0,0,1-.873.93,2.715,2.715,0,0,1-2.565,0,2.245,2.245,0,0,1-.873-.93,3.481,3.481,0,0,1,0-2.9,2.251,2.251,0,0,1,.873-.93A2.505,2.505,0,0,1,1837.907,1793.838Zm0,.447a1.924,1.924,0,0,0-1.028.269,1.831,1.831,0,0,0-.68.776,3.107,3.107,0,0,0,0,2.414,1.8,1.8,0,0,0,.68.779,2.094,2.094,0,0,0,2.057,0,1.8,1.8,0,0,0,.68-.779,3.107,3.107,0,0,0,0-2.414,1.83,1.83,0,0,0-.68-.776A1.921,1.921,0,0,0,1837.907,1794.285Z" fill="#fff"/>
      <path id="Trazado_21" data-name="Trazado 21" d="M1845.116,1801.318v-7.375h.467l.042,1.443-.073-.084a2.137,2.137,0,0,1,.421-.779,1.864,1.864,0,0,1,.7-.508,2.3,2.3,0,0,1,.9-.177,2.249,2.249,0,0,1,1.195.322,2.273,2.273,0,0,1,.841.926,3.53,3.53,0,0,1,0,2.9,2.256,2.256,0,0,1-.846.93,2.307,2.307,0,0,1-1.21.322,2.085,2.085,0,0,1-1.246-.379,1.963,1.963,0,0,1-.738-1.023l.062-.094v3.574Zm2.378-2.535a1.739,1.739,0,0,0,1.4-.6,2.889,2.889,0,0,0,0-3.281,1.709,1.709,0,0,0-1.38-.6,1.745,1.745,0,0,0-.972.275,1.9,1.9,0,0,0-.665.779,2.715,2.715,0,0,0-.244,1.19,2.751,2.751,0,0,0,.239,1.183,1.843,1.843,0,0,0,.659.785A1.716,1.716,0,0,0,1847.494,1798.783Z" fill="#fff"/>
      <path id="Trazado_22" data-name="Trazado 22" d="M1853.539,1793.838a2.507,2.507,0,0,1,1.283.322,2.248,2.248,0,0,1,.872.93,3.46,3.46,0,0,1,0,2.9,2.241,2.241,0,0,1-.872.93,2.715,2.715,0,0,1-2.565,0,2.243,2.243,0,0,1-.873-.93,3.47,3.47,0,0,1,0-2.9,2.25,2.25,0,0,1,.873-.93A2.506,2.506,0,0,1,1853.539,1793.838Zm0,.447a1.924,1.924,0,0,0-1.028.269,1.83,1.83,0,0,0-.68.776,3.107,3.107,0,0,0,0,2.414,1.8,1.8,0,0,0,.68.779,2.092,2.092,0,0,0,2.056,0,1.806,1.806,0,0,0,.681-.779,3.109,3.109,0,0,0,0-2.414,1.834,1.834,0,0,0-.681-.776A1.917,1.917,0,0,0,1853.539,1794.285Z" fill="#fff"/>
      <path id="Trazado_23" data-name="Trazado 23" d="M1857.5,1799.136v-5.193h.436l.062,1.08a1.821,1.821,0,0,1,.634-.863,1.716,1.716,0,0,1,1.049-.322,1.533,1.533,0,0,1,.374.043.7.7,0,0,1,.28.134l-.124.457a1.072,1.072,0,0,0-.25-.115,1.5,1.5,0,0,0-.4-.041,1.3,1.3,0,0,0-.748.244,1.774,1.774,0,0,0-.572.676,2.169,2.169,0,0,0-.218.992v2.908Z" fill="#fff"/>
      <path id="Trazado_24" data-name="Trazado 24" d="M1861.787,1793.89a.447.447,0,0,1,.468.467.458.458,0,0,1-.13.338.477.477,0,1,1-.338-.8Zm0,4.4a.444.444,0,1,1-.338.129A.459.459,0,0,1,1861.787,1798.285Z" fill="#fff"/>
    </g>
  </g>
  <g id="Grupo_9" data-name="Grupo 9" transform="translate(-1740.072 -1791.552)">
    <g id="Grupo_6" data-name="Grupo 6">
      <g id="Grupo_5" data-name="Grupo 5">
        <g id="Grupo_4" data-name="Grupo 4">
          <path id="Trazado_25" data-name="Trazado 25" d="M1772.185,1809.793l-5.387,14.478h-5.091l-5.132-14.478h4.779l2.516,8.922a12.928,12.928,0,0,1,.495,2.574h.058a14.44,14.44,0,0,1,.523-2.489l2.572-9.007Z" fill="#fff"/>
          <path id="Trazado_26" data-name="Trazado 26" d="M1779.263,1824.625a7.78,7.78,0,0,1-5.691-2.029,8.389,8.389,0,0,1,.077-11.127,8.119,8.119,0,0,1,5.813-2.03,7.682,7.682,0,0,1,5.655,2.03,7.208,7.208,0,0,1,2.051,5.365,7.66,7.66,0,0,1-2.114,5.7A7.875,7.875,0,0,1,1779.263,1824.625Zm.113-11.763a2.979,2.979,0,0,0-2.46,1.088,4.8,4.8,0,0,0-.877,3.082q0,4.17,3.365,4.171,3.211,0,3.211-4.284Q1782.615,1812.86,1779.376,1812.862Z" fill="#fff"/>
          <path id="Trazado_27" data-name="Trazado 27" d="M1792.944,1819.367a1.976,1.976,0,0,0,.44,1.391,1.521,1.521,0,0,0,1.173.474,3.912,3.912,0,0,0,.736-.071l.735-.141v3.139a16.023,16.023,0,0,1-1.7.346,12.615,12.615,0,0,1-1.874.134,4.243,4.243,0,0,1-1.618-.3,3.436,3.436,0,0,1-1.245-.856,3.87,3.87,0,0,1-.8-1.35,5.262,5.262,0,0,1-.283-1.781v-17.521h4.439Z" fill="#fff"/>
          <path id="Trazado_28" data-name="Trazado 28" d="M1810.218,1824.271h-4.454v-2.2h-.071a5.05,5.05,0,0,1-4.425,2.559q-5.034,0-5.034-6.093v-8.739h4.453v8.343q0,3.066,2.433,3.067a2.409,2.409,0,0,0,1.923-.841,3.39,3.39,0,0,0,.721-2.284v-8.285h4.454Z" fill="#fff"/>
          <path id="Trazado_29" data-name="Trazado 29" d="M1823.5,1823.748a8.83,8.83,0,0,1-4.369.877,7.394,7.394,0,0,1-5.4-2.021,6.988,6.988,0,0,1-2.063-5.218,7.69,7.69,0,0,1,2.211-5.818,8.18,8.18,0,0,1,5.918-2.129,7.6,7.6,0,0,1,3.705.678v3.79a5.087,5.087,0,0,0-3.124-1.045,4.118,4.118,0,0,0-3.048,1.124,4.2,4.2,0,0,0-1.125,3.1,4.127,4.127,0,0,0,1.076,3.018,3.948,3.948,0,0,0,2.955,1.095,5.9,5.9,0,0,0,3.266-1.046Z" fill="#fff"/>
          <path id="Trazado_30" data-name="Trazado 30" d="M1827.147,1807.5a2.6,2.6,0,0,1-1.852-.671,2.161,2.161,0,0,1-.722-1.647,2.09,2.09,0,0,1,.722-1.641,3.023,3.023,0,0,1,3.71,0,2.1,2.1,0,0,1,.715,1.641,2.152,2.152,0,0,1-.715,1.668A2.647,2.647,0,0,1,1827.147,1807.5Zm2.163,11.866a1.976,1.976,0,0,0,.439,1.391,1.522,1.522,0,0,0,1.173.474,3.92,3.92,0,0,0,.736-.071l.735-.141v3.139a16.054,16.054,0,0,1-1.7.346,12.637,12.637,0,0,1-1.875.134,4.251,4.251,0,0,1-1.619-.3,3.459,3.459,0,0,1-1.244-.856,3.872,3.872,0,0,1-.8-1.35,5.262,5.262,0,0,1-.282-1.781v-10.563h4.439Z" fill="#fff"/>
          <path id="Trazado_31" data-name="Trazado 31" d="M1839.725,1824.625a7.782,7.782,0,0,1-5.691-2.029,8.39,8.39,0,0,1,.078-11.127,8.116,8.116,0,0,1,5.812-2.03,7.678,7.678,0,0,1,5.654,2.03,7.205,7.205,0,0,1,2.052,5.365,7.661,7.661,0,0,1-2.114,5.7A7.877,7.877,0,0,1,1839.725,1824.625Zm.113-11.763a2.979,2.979,0,0,0-2.46,1.088,4.8,4.8,0,0,0-.876,3.082q0,4.17,3.365,4.171,3.209,0,3.211-4.284Q1843.078,1812.86,1839.838,1812.862Z" fill="#fff"/>
          <path id="Trazado_32" data-name="Trazado 32" d="M1863.065,1824.271h-4.455v-8.044q0-3.367-2.4-3.365a2.378,2.378,0,0,0-1.908.89,3.392,3.392,0,0,0-.75,2.262v8.257h-4.467v-14.478h4.467v2.29h.057a5.119,5.119,0,0,1,4.653-2.644q4.807,0,4.807,5.968Z" fill="#fff"/>
        </g>
        <path id="Trazado_33" data-name="Trazado 33" d="M1742.645,1807.5a2.608,2.608,0,0,1-1.852-.671,2.16,2.16,0,0,1-.721-1.647,2.083,2.083,0,0,1,.721-1.639,3.023,3.023,0,0,1,3.712,0,2.093,2.093,0,0,1,.714,1.639,2.155,2.155,0,0,1-.714,1.668A2.65,2.65,0,0,1,1742.645,1807.5Zm2.163,11.864a1.978,1.978,0,0,0,.439,1.392,1.523,1.523,0,0,0,1.174.475,3.823,3.823,0,0,0,.735-.071l.735-.141v3.14a16.254,16.254,0,0,1-1.7.345,12.612,12.612,0,0,1-1.874.135,4.248,4.248,0,0,1-1.619-.3,3.44,3.44,0,0,1-1.244-.856,3.86,3.86,0,0,1-.8-1.35,5.262,5.262,0,0,1-.283-1.781v-10.563h4.439Z" fill="#fff"/>
      </g>
    </g>
    <g id="Grupo_8" data-name="Grupo 8">
      <g id="Grupo_7" data-name="Grupo 7">
        <path id="Trazado_34" data-name="Trazado 34" d="M1754.008,1820.173a.641.641,0,0,1-.645.634l-2.4-.02a.639.639,0,0,1-.634-.643l.019-7.6a.638.638,0,0,1,.644-.634l2.4.019a.64.64,0,0,1,.634.644Z" fill="#fff"/>
        <path id="Trazado_35" data-name="Trazado 35" d="M1755.988,1814.529a.639.639,0,0,1,.634.644l-.019,2.4a.639.639,0,0,1-.644.634l-7.595-.019a.638.638,0,0,1-.634-.644l.019-2.4a.639.639,0,0,1,.644-.634Z" fill="#fff"/>
      </g>
    </g>
    <path id="Trazado_36" data-name="Trazado 36" d="M1842.033,1806.229c-.844.912-.854,1.136-1.86,1.169l-1.566.045c-.381,0-.552-.258-.282-.629l1.517-3.131c.506-.642.869-.814,1.25-.811l3.138-.056c.575,0,.474.337.17.675Z" fill="#fff"/>
  </g>
</svg>
