<svg id="comentario_galeria_paginada" data-name="comentario galeria paginada" xmlns="http://www.w3.org/2000/svg" width="10.58" height="8.15" viewBox="0 0 10.58 8.15">
  <path id="Trazado_82" data-name="Trazado 82" d="M168.933,1408.7a.794.794,0,0,1-.534-.208l-.866-.78h-4.795a3.581,3.581,0,1,1,0-7.162h3.418a3.585,3.585,0,0,1,3.581,3.581v3.766a.807.807,0,0,1-.8.8Zm-6.195-7.245a2.676,2.676,0,0,0,0,5.352h4.968a.45.45,0,0,1,.3.116l.823.74v-3.532a2.68,2.68,0,0,0-2.676-2.676Z" transform="translate(-159.157 -1400.555)" fill="#b2b2b2"/>
</svg>
