<svg id="flecha_izq" data-name="flecha izq" xmlns="http://www.w3.org/2000/svg" width="11.328" height="10.734" viewBox="0 0 11.328 10.734">
  <path id="Trazado_35" data-name="Trazado 35" d="M424.756,1117.724h5.822a1.233,1.233,0,0,0,.355-2.424,1.662,1.662,0,0,0-.446-.048q-2.7-.006-5.4,0h-.279l-.039-.064c.26-.247.524-.491.78-.743.4-.393.8-.789,1.189-1.19a1.193,1.193,0,0,0,.267-1.41,1.222,1.222,0,0,0-1.941-.4c-.692.671-1.369,1.358-2.052,2.04s-1.391,1.4-2.09,2.089a1.2,1.2,0,0,0-.018,1.77q2.009,2.037,4.019,4.074a1.261,1.261,0,0,0,1.344.378,1.167,1.167,0,0,0,.826-.911,1.2,1.2,0,0,0-.358-1.161c-.591-.6-1.187-1.19-1.781-1.785C424.9,1117.881,424.851,1117.825,424.756,1117.724Z" transform="translate(-420.524 -1111.119)" fill="#36c"/>
</svg>
