<svg xmlns="http://www.w3.org/2000/svg" width="26.888" height="29.794" viewBox="0 0 26.888 29.794">
  <g id="fla" transform="translate(0.25 0.703)">
    <g id="Grupo_51" data-name="Grupo 51" transform="translate(-105.423 -188.165)">
      <path id="Trazado_103" data-name="Trazado 103" d="M124.341,188.277l-14.08-.112a2.62,2.62,0,0,0-2.642,2.623l.022,23.113a2.622,2.622,0,0,0,2.612,2.619l16.667.058a2.621,2.621,0,0,0,2.63-2.613l.066-20.451" fill="none" stroke="#36c" stroke-linecap="round" stroke-linejoin="round" stroke-width="1.356"/>
      <path id="Trazado_104" data-name="Trazado 104" d="M124.618,188.421l5,5h-5.01v-5" fill="none" stroke="#36c" stroke-linecap="round" stroke-linejoin="round" stroke-width="1.356"/>
    </g>
    <rect id="Rectángulo_30" data-name="Rectángulo 30" width="26.388" height="8.627" rx="2.159" transform="translate(0 15.745)" fill="#e6effd" stroke="#36c" stroke-miterlimit="10" stroke-width="0.5"/>
    <text id="FLA-2" data-name="FLA" transform="translate(13.195 23.479)" fill="#36c" font-size="10.382" font-family="AntipastoPro, Antipasto Pro"><tspan x="-7.421" y="0">FLA</tspan></text>
    <g id="Grupo_52" data-name="Grupo 52" transform="translate(-105.423 -188.165)">
      <circle id="Elipse_7" data-name="Elipse 7" cx="2.573" cy="2.573" r="2.573" transform="translate(111.809 195.027)" fill="none" stroke="#36c" stroke-linecap="round" stroke-linejoin="round" stroke-width="1"/>
      <circle id="Elipse_8" data-name="Elipse 8" cx="1.931" cy="1.931" r="1.931" transform="translate(121.621 196.139)" fill="none" stroke="#36c" stroke-linecap="round" stroke-linejoin="round" stroke-width="1"/>
      <path id="Trazado_105" data-name="Trazado 105" d="M111.813,197.558a1.964,1.964,0,0,0-.06.5,2.193,2.193,0,0,0,2.2,2.257h9.33a2.2,2.2,0,0,0,2.2-2.2h0" fill="none" stroke="#36c" stroke-linecap="round" stroke-linejoin="round" stroke-width="1"/>
    </g>
  </g>
</svg>
