<svg xmlns="http://www.w3.org/2000/svg" width="14.457" height="13.757" viewBox="0 0 14.457 13.757"><g transform="translate(-606.951 -319.312)"><path d="M620.747,331l-4.2-3.646a3.925,3.925,0,0,1-1.392,1.431l4.264,3.7a.829.829,0,0,0,1.156-.073l.243-.273A.806.806,0,0,0,620.747,331Z" fill="#fdfeff"/><path d="M621,330.717l-4.27-3.71a4.286,4.286,0,0,1-.384.672l4.149,3.605a.43.43,0,0,1,.04.61l-.242.273a.442.442,0,0,1-.618.04l-4.188-3.639a3.846,3.846,0,0,1-.689.407l4.373,3.8a1.213,1.213,0,0,0,1.7-.108l.243-.273A1.18,1.18,0,0,0,621,330.717Z" fill="#36c"/></g><path d="M612.368,330c-.121,0-.242,0-.365-.012a5.346,5.346,0,1,1,4.426-8.856,5.272,5.272,0,0,1,1.328,3.875h0a5.285,5.285,0,0,1-1.833,3.668A5.408,5.408,0,0,1,612.368,330Zm-.011-9.936a4.591,4.591,0,1,0,3.063,8.043,4.539,4.539,0,0,0,1.574-3.15h0a4.526,4.526,0,0,0-1.14-3.328,4.635,4.635,0,0,0-3.187-1.555C612.563,320.071,612.46,320.068,612.357,320.068Z" transform="translate(-606.951 -319.312)" fill="#36c"/><path d="M612.363,329.075c-.1,0-.2,0-.3-.01a4.439,4.439,0,0,1-4.164-4.7,4.368,4.368,0,0,1,1.514-3.032,4.477,4.477,0,0,1,7.4,3.615h0A4.453,4.453,0,0,1,612.363,329.075ZM612.354,321a3.7,3.7,0,0,0-2.435.908,3.619,3.619,0,0,0-1.255,2.512,3.7,3.7,0,0,0,7.393.484l.381.025-.381-.025A3.682,3.682,0,0,0,612.6,321C612.521,321,612.437,321,612.354,321Z" transform="translate(-606.951 -319.312)" fill="#36c"/><path d="M618.658,329.13l-1.3,1.458-.563-.489,1.3-1.458Z" transform="translate(-606.951 -319.312)" fill="#36c"/></svg>