<svg id="copiar" xmlns="http://www.w3.org/2000/svg" width="15.844" height="16.5" viewBox="0 0 15.844 16.5">
  <path id="Trazado_9" data-name="Trazado 9" d="M1871.5,887.886h-3.2a.8.8,0,0,0-.8.8v8.7h8.844v-4H1871.5Z" transform="translate(-1866.5 -881.886)" fill="none"/>
  <path id="Trazado_10" data-name="Trazado 10" d="M1877.344,892.386h4v-9.5h-7.676a1.17,1.17,0,0,0-1.168,1.168v2.832h4.844Z" transform="translate(-1866.5 -881.886)" fill="none"/>
  <rect id="Rectángulo_3" data-name="Rectángulo 3" width="3.844" height="4.5" transform="translate(6 6)" fill="none"/>
  <path id="Trazado_11" data-name="Trazado 11" d="M1876.344,887.886v4.5h1v-5.5H1872.5v1Z" transform="translate(-1866.5 -881.886)" fill="#36c"/>
  <path id="Trazado_12" data-name="Trazado 12" d="M1876.344,897.386H1867.5v-8.7a.8.8,0,0,1,.8-.8h3.2v-1h-3.2a1.8,1.8,0,0,0-1.8,1.8v9.7h10.844v-5h-1Z" transform="translate(-1866.5 -881.886)" fill="#36c"/>
  <path id="Trazado_13" data-name="Trazado 13" d="M1882.344,881.886h-8.676a2.171,2.171,0,0,0-2.168,2.168v2.832h1v-2.832a1.17,1.17,0,0,1,1.168-1.168h7.676v9.5h-4v1h5Z" transform="translate(-1866.5 -881.886)" fill="#36c"/>
  <rect id="Rectángulo_4" data-name="Rectángulo 4" width="1" height="1" transform="translate(9.844 10.5)" fill="#36c"/>
  <rect id="Rectángulo_5" data-name="Rectángulo 5" width="1" height="1" transform="translate(5 5)" fill="#36c"/>
</svg>
