<svg xmlns="http://www.w3.org/2000/svg" width="19.837" height="15.334" viewBox="0 0 19.837 15.334"><g transform="translate(0.75)"><path d="M1881.174,1120.939v1.363a1.177,1.177,0,0,1-1.177,1.177h-15.983a1.177,1.177,0,0,1-1.177-1.177v-1.371" transform="translate(-1862.837 -1108.895)" fill="none" stroke="#36c" stroke-linecap="round" stroke-miterlimit="10" stroke-width="1.5"/><path d="M1867.7,1117.814l3.721,3.1a.917.917,0,0,0,1.175,0l3.721-3.1a.917.917,0,0,0-.587-1.622h-2.253a1.54,1.54,0,0,0,.095-.518v-5.218a1.56,1.56,0,0,0-1.561-1.561H1872a1.561,1.561,0,0,0-1.561,1.561v5.218a1.54,1.54,0,0,0,.095.518h-2.252A.917.917,0,0,0,1867.7,1117.814Z" transform="translate(-1862.837 -1108.895)" fill="#36c"/></g></svg>