<svg id="fle_der" data-name="fle der" xmlns="http://www.w3.org/2000/svg" width="15.281" height="14.482" viewBox="0 0 15.281 14.482">
  <path id="Trazado_36" data-name="Trazado 36" d="M1007.161,1007.663h-.624q-3.615,0-7.23,0a1.663,1.663,0,0,1-.479-3.27,2.234,2.234,0,0,1,.6-.065q3.643-.006,7.286,0h.376l.051-.087c-.35-.333-.706-.662-1.051-1-.539-.531-1.075-1.064-1.6-1.6a1.61,1.61,0,0,1-.36-1.9,1.648,1.648,0,0,1,2.617-.543c.934.906,1.848,1.833,2.769,2.753.941.938,1.876,1.882,2.82,2.818a1.622,1.622,0,0,1,.025,2.388q-2.712,2.748-5.423,5.5a1.7,1.7,0,0,1-1.812.51,1.577,1.577,0,0,1-1.116-1.229,1.615,1.615,0,0,1,.483-1.566c.8-.807,1.6-1.606,2.4-2.409C1006.965,1007.874,1007.032,1007.8,1007.161,1007.663Z" transform="translate(-997.589 -998.752)" fill="#36c"/>
</svg>
