<svg id="lapiz_editar" data-name="lapiz editar" xmlns="http://www.w3.org/2000/svg" width="7.916" height="11.999" viewBox="0 0 7.916 11.999">
  <path id="Trazado_18" data-name="Trazado 18" d="M975.732,778.428a1.476,1.476,0,0,0-1.424.019,6.313,6.313,0,0,0-1.5,1.638l-3.923,6.66-.407,2.881a.537.537,0,0,0,.241.555.505.505,0,0,0,.388.056.633.633,0,0,0,.216-.1l2.533-1.957,3.867-6.448.067-.111-.021-.013a5.943,5.943,0,0,0,.617-1.912A1.475,1.475,0,0,0,975.732,778.428Zm-4.916,9.876-1.731,1.264.3-2.121Zm2.65-8.157a2.386,2.386,0,0,1,1.29-1.211.788.788,0,0,1,.644.045c.493.295.477,1.268-.036,2.125a.982.982,0,0,1-.09.125Zm1.45,1.622-3.493,5.825-1.719-1.031,3.493-5.825Z" transform="translate(-968.47 -778.254)" fill="#36c"/>
</svg>
