<svg id="asterisco" xmlns="http://www.w3.org/2000/svg" width="10.255" height="9.778" viewBox="0 0 10.255 9.778">
  <path id="Trazado_26" data-name="Trazado 26" d="M1569.47,444.346l2.595.872,2.1,1.1-.188.582-.187.581-2.345-.352-2.595-.811Zm4.028,2.2.477.353.478.353-1.039,2.138-1.577,2.221-1.682-1.224,1.64-2.18Zm1.514-4.713-.04,2.72-.4,2.346h-1.2l-.394-2.346-.062-2.72Zm-.559,4.713,1.723,1.661,1.618,2.18-1.681,1.224-1.578-2.221-1.037-2.138.477-.353Zm4.026-2.2.624,1.972-2.595.811-2.345.352-.188-.581-.187-.582,2.1-1.1Z" transform="translate(-1568.848 -441.834)" fill="#f42f63"/>
</svg>
