<svg xmlns="http://www.w3.org/2000/svg" width="26.888" height="29.794" viewBox="0 0 26.888 29.794"><g transform="translate(0.25 0.702)"><path d="M124.341,138.135l-14.08-.112a2.621,2.621,0,0,0-2.642,2.624l.022,23.113a2.621,2.621,0,0,0,2.612,2.618l16.667.058a2.621,2.621,0,0,0,2.63-2.612l.066-20.452" transform="translate(-105.423 -138.023)" fill="none" stroke="#36c" stroke-linecap="round" stroke-linejoin="round" stroke-width="1.356"/><path d="M124.618,138.279l5,5h-5.01v-5" transform="translate(-105.423 -138.023)" fill="none" stroke="#36c" stroke-linecap="round" stroke-linejoin="round" stroke-width="1.356"/><rect width="26.388" height="8.627" rx="2.159" transform="translate(0 15.746)" fill="#e6effd" stroke="#36c" stroke-miterlimit="10" stroke-width="0.5"/><text transform="translate(13.195 23.479)" fill="#36c" font-size="10.382" font-family="AntipastoPro, Antipasto Pro"><tspan x="-6.738" y="0">FLV</tspan></text><path d="M115.788,144.094V149.8l5.659-2.854-5.659-2.854" transform="translate(-105.423 -138.023)" fill="none" stroke="#36c" stroke-linecap="round" stroke-linejoin="round" stroke-width="1"/></g></svg>