<svg xmlns="http://www.w3.org/2000/svg" width="28.753" height="28.753" viewBox="0 0 28.753 28.753">
  <g id="icono_micrositios" data-name="icono micrositios" transform="translate(0.5 0.5)">
    <rect id="Rectángulo_7" data-name="Rectángulo 7" width="27.753" height="27.753" rx="7.681" fill="#36c" stroke="#fdfeff" stroke-miterlimit="10" stroke-width="1"/>
    <g id="Grupo_12" data-name="Grupo 12" transform="translate(-546.628 -500.519)">
      <path id="Trazado_41" data-name="Trazado 41" d="M555.655,507.672a7.791,7.791,0,0,1,.826-.671,6.017,6.017,0,0,1,.977-.562,6.224,6.224,0,0,1,1.146-.393,6.672,6.672,0,0,1,1.346-.169,5.6,5.6,0,0,1,1.807.219,4.038,4.038,0,0,1,1.412.736,3.464,3.464,0,0,1,.932,1.193,3.891,3.891,0,0,1,.365,1.59,4.048,4.048,0,0,1-.205,1.5,4.144,4.144,0,0,1-.6,1.113,5.01,5.01,0,0,1-.8.83q-.432.353-.82.665a6.634,6.634,0,0,0-.669.61,1.172,1.172,0,0,0-.327.663l-.212,1.664-1.917.056-.248-1.843a.491.491,0,0,1-.013-.1l0-.1a1.5,1.5,0,0,1,.224-.876,3.528,3.528,0,0,1,.6-.71q.364-.334.787-.654a7.188,7.188,0,0,0,.785-.687,3.318,3.318,0,0,0,.6-.829,2.188,2.188,0,0,0,.218-1.074,1.636,1.636,0,0,0-.616-1.271,1.911,1.911,0,0,0-.664-.338,2.63,2.63,0,0,0-.826-.1,3.684,3.684,0,0,0-1.09.174,4.022,4.022,0,0,0-.751.341q-.306.184-.518.332a.712.712,0,0,1-.382.153.617.617,0,0,1-.6-.322Zm2.538,13.312a1.76,1.76,0,0,1,.11-.673,1.61,1.61,0,0,1,.348-.555,1.779,1.779,0,0,1,.539-.38,1.709,1.709,0,0,1,.676-.156,1.69,1.69,0,0,1,.674.116,1.72,1.72,0,0,1,.555.348,1.732,1.732,0,0,1,.419,1.878,1.732,1.732,0,0,1-.347.55,1.669,1.669,0,0,1-.534.373,1.816,1.816,0,0,1-1.35.04,1.735,1.735,0,0,1-.561-.341,1.646,1.646,0,0,1-.379-.529A1.752,1.752,0,0,1,558.193,520.984Z" fill="#36c" stroke="#fdfeff" stroke-miterlimit="10" stroke-width="1"/>
    </g>
  </g>
</svg>
