<svg id="eliminar_archivo" data-name="eliminar archivo" xmlns="http://www.w3.org/2000/svg" width="112.243" height="15.259" viewBox="0 0 112.243 15.259">
  <g id="Grupo_19" data-name="Grupo 19" transform="translate(-636.817 -737.21)">
    <path id="Trazado_88" data-name="Trazado 88" d="M658.041,749.045v-8.58h5.621v.6h-5v3.316h3.951v.611h-3.951v3.458h5.2v.6Z" fill="#f42f63"/>
    <path id="Trazado_89" data-name="Trazado 89" d="M666.056,739.555v7.956a1.365,1.365,0,0,0,.2.844.753.753,0,0,0,.623.247,1.739,1.739,0,0,0,.418-.039,2.389,2.389,0,0,0,.368-.129l-.088.572a1.716,1.716,0,0,1-.367.124,2.141,2.141,0,0,1-.455.045,1.212,1.212,0,0,1-.991-.4,1.912,1.912,0,0,1-.33-1.241v-7.982Z" fill="#f42f63"/>
    <path id="Trazado_90" data-name="Trazado 90" d="M669.209,741.284a.506.506,0,0,1-.38-.149.55.55,0,0,1-.143-.4.544.544,0,0,1,.143-.4.558.558,0,0,1,.761,0,.548.548,0,0,1,.142.4.554.554,0,0,1-.142.4A.507.507,0,0,1,669.209,741.284Zm.312,1.261v6.5H668.9v-6.5Z" fill="#f42f63"/>
    <path id="Trazado_91" data-name="Trazado 91" d="M671.752,749.045v-6.5h.561l.038,1.351a2.194,2.194,0,0,1,.891-1.091,2.522,2.522,0,0,1,1.377-.39,2.434,2.434,0,0,1,1.4.4,2.06,2.06,0,0,1,.817,1.183,2.106,2.106,0,0,1,.523-.852,2.534,2.534,0,0,1,.848-.552,2.689,2.689,0,0,1,1.01-.2,2.591,2.591,0,0,1,1.177.266,2.031,2.031,0,0,1,.848.807,2.608,2.608,0,0,1,.319,1.345v4.212h-.625v-4.147a1.913,1.913,0,0,0-.492-1.437,1.8,1.8,0,0,0-1.3-.474,2.092,2.092,0,0,0-1.084.293,2.12,2.12,0,0,0-.792.818,2.454,2.454,0,0,0-.293,1.216v3.744h-.623V744.9a1.9,1.9,0,0,0-.5-1.436,1.807,1.807,0,0,0-1.3-.474,2.1,2.1,0,0,0-1.06.285,2.2,2.2,0,0,0-.809.82,2.469,2.469,0,0,0-.313,1.274v3.679Z" fill="#f42f63"/>
    <path id="Trazado_92" data-name="Trazado 92" d="M684.03,741.284a.5.5,0,0,1-.38-.149.554.554,0,0,1-.143-.4.548.548,0,0,1,.143-.4.556.556,0,0,1,.76,0,.545.545,0,0,1,.144.4.55.55,0,0,1-.144.4A.5.5,0,0,1,684.03,741.284Zm.312,1.261v6.5h-.623v-6.5Z" fill="#f42f63"/>
    <path id="Trazado_93" data-name="Trazado 93" d="M686.572,749.045v-6.5h.562l.05,1.625-.1-.091a2.424,2.424,0,0,1,.523-.91,2.224,2.224,0,0,1,.835-.566,2.866,2.866,0,0,1,1.047-.188,2.7,2.7,0,0,1,1.235.272,2,2,0,0,1,.84.807,2.651,2.651,0,0,1,.306,1.339v4.212h-.623v-4a2.1,2.1,0,0,0-.505-1.561,1.8,1.8,0,0,0-1.315-.493,2.21,2.21,0,0,0-1.091.28,2.184,2.184,0,0,0-.822.812,2.493,2.493,0,0,0-.319,1.3v3.666Z" fill="#f42f63"/>
    <path id="Trazado_94" data-name="Trazado 94" d="M697.4,743.455a1.616,1.616,0,0,0-1.246-.468,2.22,2.22,0,0,0-1.24.331,1.918,1.918,0,0,0-.742,1.047l-.511-.338a2.261,2.261,0,0,1,.923-1.2,2.872,2.872,0,0,1,1.583-.416,2.35,2.35,0,0,1,1.676.578,2.162,2.162,0,0,1,.617,1.658v3.25q0,.688.6.689a1.03,1.03,0,0,0,.449-.091l-.038.519a1.121,1.121,0,0,1-.548.118,1.085,1.085,0,0,1-.792-.3,1.245,1.245,0,0,1-.293-.949V747.6l.162-.078a1.918,1.918,0,0,1-.486.911,2.248,2.248,0,0,1-.86.559,2.972,2.972,0,0,1-1.022.182,2.311,2.311,0,0,1-1.471-.442,1.484,1.484,0,0,1-.561-1.235,1.548,1.548,0,0,1,.461-1.17,2.658,2.658,0,0,1,1.322-.624l2.58-.533v.546l-2.269.467a2.7,2.7,0,0,0-1.1.462.983.983,0,0,0-.356.8,1.026,1.026,0,0,0,.387.852,1.736,1.736,0,0,0,1.1.3,2.566,2.566,0,0,0,1-.2,1.913,1.913,0,0,0,.8-.617,1.641,1.641,0,0,0,.318-1.027v-1.99A1.851,1.851,0,0,0,697.4,743.455Z" fill="#f42f63"/>
    <path id="Trazado_95" data-name="Trazado 95" d="M700.795,749.045v-6.5h.523l.076,1.351a2.268,2.268,0,0,1,.76-1.078,2.007,2.007,0,0,1,1.259-.4,1.8,1.8,0,0,1,.448.052.844.844,0,0,1,.337.169l-.149.572a1.256,1.256,0,0,0-.3-.144,1.722,1.722,0,0,0-.485-.051,1.511,1.511,0,0,0-.9.3,2.186,2.186,0,0,0-.685.845,2.8,2.8,0,0,0-.263,1.242v3.64Z" fill="#f42f63"/>
    <path id="Trazado_96" data-name="Trazado 96" d="M712.487,743.455a1.619,1.619,0,0,0-1.247-.468,2.22,2.22,0,0,0-1.24.331,1.918,1.918,0,0,0-.741,1.047l-.511-.338a2.264,2.264,0,0,1,.922-1.2,2.876,2.876,0,0,1,1.583-.416,2.352,2.352,0,0,1,1.677.578,2.165,2.165,0,0,1,.617,1.658v3.25q0,.688.6.689a1.029,1.029,0,0,0,.448-.091l-.037.519a1.123,1.123,0,0,1-.549.118,1.083,1.083,0,0,1-.791-.3,1.241,1.241,0,0,1-.293-.949V747.6l.162-.078a1.934,1.934,0,0,1-.486.911,2.252,2.252,0,0,1-.861.559,2.964,2.964,0,0,1-1.022.182,2.311,2.311,0,0,1-1.471-.442,1.484,1.484,0,0,1-.56-1.235,1.548,1.548,0,0,1,.46-1.17,2.667,2.667,0,0,1,1.322-.624l2.58-.533v.546l-2.269.467a2.691,2.691,0,0,0-1.1.462.98.98,0,0,0-.356.8,1.028,1.028,0,0,0,.386.852,1.739,1.739,0,0,0,1.1.3,2.566,2.566,0,0,0,1-.2,1.91,1.91,0,0,0,.8-.617,1.642,1.642,0,0,0,.319-1.027v-1.99A1.851,1.851,0,0,0,712.487,743.455Z" fill="#f42f63"/>
    <path id="Trazado_97" data-name="Trazado 97" d="M715.878,749.045v-6.5h.523l.075,1.351a2.281,2.281,0,0,1,.76-1.078,2.007,2.007,0,0,1,1.259-.4,1.809,1.809,0,0,1,.449.052.833.833,0,0,1,.336.169l-.149.572a1.265,1.265,0,0,0-.3-.144,1.729,1.729,0,0,0-.486-.051,1.513,1.513,0,0,0-.9.3,2.213,2.213,0,0,0-.685.845,2.8,2.8,0,0,0-.262,1.242v3.64Z" fill="#f42f63"/>
    <path id="Trazado_98" data-name="Trazado 98" d="M722.821,742.415a2.914,2.914,0,0,1,1.134.208,2.331,2.331,0,0,1,.848.6,2.687,2.687,0,0,1,.536.949l-.586.286a2.033,2.033,0,0,0-.691-1.086,1.988,1.988,0,0,0-1.253-.383,2.217,2.217,0,0,0-1.209.331,2.157,2.157,0,0,0-.811.962,4.124,4.124,0,0,0,0,3.023,2.074,2.074,0,0,0,2.007,1.3,2.429,2.429,0,0,0,.954-.181,1.782,1.782,0,0,0,.71-.533,1.829,1.829,0,0,0,.368-.832l.573.208a2.6,2.6,0,0,1-.53,1.027,2.427,2.427,0,0,1-.891.656,2.906,2.906,0,0,1-1.171.228,2.856,2.856,0,0,1-1.515-.4,2.721,2.721,0,0,1-1.041-1.163,4.073,4.073,0,0,1-.374-1.813,4.009,4.009,0,0,1,.381-1.814,2.758,2.758,0,0,1,1.047-1.163A2.873,2.873,0,0,1,722.821,742.415Z" fill="#f42f63"/>
    <path id="Trazado_99" data-name="Trazado 99" d="M727.071,749.045v-9.49h.623v4.316a2.192,2.192,0,0,1,.886-1.072,2.587,2.587,0,0,1,1.408-.384,2.737,2.737,0,0,1,1.235.267,1.941,1.941,0,0,1,.84.8,2.658,2.658,0,0,1,.306,1.333v4.225h-.623v-4.017a2.1,2.1,0,0,0-.5-1.553,1.787,1.787,0,0,0-1.315-.5,2.173,2.173,0,0,0-1.091.286,2.233,2.233,0,0,0-.822.819,2.493,2.493,0,0,0-.319,1.3v3.666Z" fill="#f42f63"/>
    <path id="Trazado_100" data-name="Trazado 100" d="M734.837,741.284a.5.5,0,0,1-.38-.149.551.551,0,0,1-.144-.4.545.545,0,0,1,.144-.4.556.556,0,0,1,.76,0,.544.544,0,0,1,.143.4.55.55,0,0,1-.143.4A.506.506,0,0,1,734.837,741.284Zm.311,1.261v6.5h-.623v-6.5Z" fill="#f42f63"/>
    <path id="Trazado_101" data-name="Trazado 101" d="M741.655,742.545h.66l-2.6,6.5h-.624l-2.6-6.5h.7l2.23,5.824Z" fill="#f42f63"/>
    <path id="Trazado_102" data-name="Trazado 102" d="M746.093,742.415a2.926,2.926,0,0,1,1.54.4,2.777,2.777,0,0,1,1.047,1.163,4.517,4.517,0,0,1,0,3.627,2.765,2.765,0,0,1-1.047,1.163,3.135,3.135,0,0,1-3.079,0,2.746,2.746,0,0,1-1.047-1.163,4.506,4.506,0,0,1,0-3.627,2.757,2.757,0,0,1,1.047-1.163A2.92,2.92,0,0,1,746.093,742.415Zm0,.559a2.141,2.141,0,0,0-2.051,1.306,4.045,4.045,0,0,0,0,3.023,2.235,2.235,0,0,0,4.1,0,4.045,4.045,0,0,0,0-3.023,2.141,2.141,0,0,0-2.051-1.306Z" fill="#f42f63"/>
  </g>
  <g id="Grupo_24" data-name="Grupo 24" transform="translate(-636.817 -737.21)">
    <g id="Grupo_21" data-name="Grupo 21">
      <g id="Grupo_20" data-name="Grupo 20">
        <circle id="Elipse_14" data-name="Elipse 14" cx="6.977" cy="6.977" r="6.977" transform="translate(637.47 737.862)" fill="#fdfeff"/>
        <path id="Trazado_103" data-name="Trazado 103" d="M644.447,752.469a7.629,7.629,0,1,1,7.63-7.63A7.638,7.638,0,0,1,644.447,752.469Zm0-13.954a6.324,6.324,0,1,0,6.324,6.324A6.332,6.332,0,0,0,644.447,738.515Z" fill="#f42f63"/>
      </g>
    </g>
    <g id="Grupo_22" data-name="Grupo 22">
      <rect id="Rect치ngulo_8" data-name="Rect치ngulo 8" width="2.585" height="8.45" rx="1.293" transform="translate(646.547 740.649) rotate(45)" fill="#f42f63"/>
    </g>
    <g id="Grupo_23" data-name="Grupo 23">
      <rect id="Rect치ngulo_9" data-name="Rect치ngulo 9" width="2.585" height="8.45" rx="1.293" transform="translate(640.571 742.477) rotate(-45)" fill="#f42f63"/>
    </g>
  </g>
</svg>
