<svg id="like_sin_marcar" data-name="like sin marcar" xmlns="http://www.w3.org/2000/svg" width="10.509" height="9.018" viewBox="0 0 10.509 9.018">
  <g id="Grupo_34" data-name="Grupo 34" transform="translate(-350.402 -1615.373)">
    <g id="Grupo_33" data-name="Grupo 33">
      <path id="Trazado_84" data-name="Trazado 84" d="M355.623,1624.391a1.39,1.39,0,0,1-.976-.4c-.626-.612-1.558-1.545-2.445-2.521a13.659,13.659,0,0,1-1.221-1.56,2.929,2.929,0,0,1-.189-3.2,3.018,3.018,0,0,1,2.537-1.326,3.1,3.1,0,0,1,1.732.521,3.935,3.935,0,0,1,.619.584,2.83,2.83,0,0,1,1.42-.974,3.028,3.028,0,0,1,2.86.537,2.692,2.692,0,0,1,.946,1.9h0a2.908,2.908,0,0,1-.153,1.116,7.168,7.168,0,0,1-1.625,2.4c-.9.995-1.891,1.936-2.559,2.55A1.394,1.394,0,0,1,355.623,1624.391Zm-2.274-8.1h-.015a2.139,2.139,0,0,0-1.778.906,2.075,2.075,0,0,0,.174,2.205,12.949,12.949,0,0,0,1.141,1.459c.873.96,1.791,1.88,2.408,2.483a.492.492,0,0,0,.677.01c.654-.6,1.62-1.522,2.5-2.492a6.475,6.475,0,0,0,1.438-2.085,2,2,0,0,0,.106-.769,1.792,1.792,0,0,0-.63-1.265,2.117,2.117,0,0,0-2-.362,1.825,1.825,0,0,0-1.269,1.272h0a.453.453,0,1,1-.877-.228,2.372,2.372,0,0,0-.686-.777A2.075,2.075,0,0,0,353.349,1616.293Z" fill="#b2b2b2"/>
    </g>
  </g>
</svg>
