<svg id="ecuela_secretarias" data-name="ecuela secretarias" xmlns="http://www.w3.org/2000/svg" width="78.225" height="74.659" viewBox="0 0 78.225 74.659">
  <text id="ESCUELA_VIRTUAL" data-name="ESCUELA VIRTUAL" transform="translate(0 61.248)" fill="#fff" font-size="11.048" font-family="AntipastoPro, Antipasto Pro"><tspan x="0" y="0">ESCUELA VIRTUAL</tspan></text>
  <text id="DE_SECRETARÍAS" data-name="DE SECRETARÍAS" transform="translate(0 72.659)" fill="#fff" font-size="12.114" font-family="AntipastoPro, Antipasto Pro"><tspan x="0" y="0">DE SECRETARÍAS</tspan></text>
  <g id="Grupo_21" data-name="Grupo 21" transform="translate(-564.387 127.071)">
    <rect id="Rectángulo_13" data-name="Rectángulo 13" width="54.709" height="1.019" rx="0.509" transform="translate(579.33 -116.484)" fill="#fff"/>
    <rect id="Rectángulo_14" data-name="Rectángulo 14" width="54.709" height="1.019" rx="0.509" transform="translate(579.33 -113.742)" fill="#fff"/>
    <rect id="Rectángulo_15" data-name="Rectángulo 15" width="54.709" height="1.019" rx="0.509" transform="translate(579.33 -111.083)" fill="#fff"/>
    <rect id="Rectángulo_16" data-name="Rectángulo 16" width="54.709" height="1.019" rx="0.509" transform="translate(575.623 -96.388)" fill="#fff"/>
    <rect id="Rectángulo_17" data-name="Rectángulo 17" width="54.709" height="1.019" rx="0.509" transform="translate(575.623 -93.646)" fill="#fff"/>
    <rect id="Rectángulo_18" data-name="Rectángulo 18" width="54.709" height="1.019" rx="0.509" transform="translate(575.623 -90.987)" fill="#fff"/>
    <path id="Trazado_40" data-name="Trazado 40" d="M640.755-124.59c-.037-.02,0,2.247,0,2.247l1.7-.7a.427.427,0,0,0,0-.639Z" fill="#fff"/>
    <path id="Trazado_41" data-name="Trazado 41" d="M564.388-83.141a3.8,3.8,0,0,0,3.8,3.8v-7.6A3.8,3.8,0,0,0,564.388-83.141Z" fill="#fff"/>
    <path id="Trazado_42" data-name="Trazado 42" d="M640.42-124.611l-6.588-2.46v7.578l6.588-2.817Z" fill="#fff"/>
    <path id="Trazado_43" data-name="Trazado 43" d="M627.748-107.017H584.1c-.318,0-.6.013-.848.034h-3.736a6.268,6.268,0,0,1-6.25-6.25,6.268,6.268,0,0,1,6.25-6.249l53.329-.011v-7.578H580.86a13.879,13.879,0,0,0-13.839,13.838A13.879,13.879,0,0,0,580.86-99.394H624.5c.358,0,.684-.012.991-.034h3.593a6.268,6.268,0,0,1,6.25,6.25,6.268,6.268,0,0,1-6.25,6.25l-59.923-.015v7.6h58.584a13.88,13.88,0,0,0,13.839-13.839A13.88,13.88,0,0,0,627.748-107.017Z" fill="#fff"/>
  </g>
</svg>
