<svg id="menu" xmlns="http://www.w3.org/2000/svg" width="24.195" height="22.191" viewBox="0 0 24.195 22.191">
  <path id="Trazado_26" data-name="Trazado 26" d="M974.279,363.036h-3.485a1.454,1.454,0,0,1-1.452-1.453v-.789a1.454,1.454,0,0,1,1.452-1.453h3.485a1.455,1.455,0,0,1,1.452,1.453v.789A1.455,1.455,0,0,1,974.279,363.036Zm-3.485-2.7a.453.453,0,0,0-.452.453v.789a.453.453,0,0,0,.452.453h3.485a.453.453,0,0,0,.452-.453v-.789a.453.453,0,0,0-.452-.453Z" transform="translate(-967.288 -356.21)" fill="#36c"/>
  <g id="Grupo_14" data-name="Grupo 14" transform="translate(-967.288 -356.21)">
    <g id="Grupo_13" data-name="Grupo 13">
      <path id="Trazado_27" data-name="Trazado 27" d="M986.956,375.5H971.815a4.532,4.532,0,0,1-4.527-4.527V360.736a4.532,4.532,0,0,1,4.527-4.526h15.141a4.532,4.532,0,0,1,4.527,4.526v10.233A4.532,4.532,0,0,1,986.956,375.5ZM971.815,357.71a3.03,3.03,0,0,0-3.027,3.026v10.233A3.031,3.031,0,0,0,971.815,374h15.141a3.031,3.031,0,0,0,3.027-3.027V360.736a3.03,3.03,0,0,0-3.027-3.026Z" fill="#36c"/>
    </g>
    <path id="Trazado_28" data-name="Trazado 28" d="M989.385,378.4H970.523a.75.75,0,0,1,0-1.5h18.862a.75.75,0,0,1,0,1.5Z" fill="#36c"/>
    <path id="Trazado_29" data-name="Trazado 29" d="M981.015,363.036h-3.483a1.456,1.456,0,0,1-1.454-1.453v-.789a1.456,1.456,0,0,1,1.454-1.453h3.483a1.455,1.455,0,0,1,1.453,1.453v.789A1.455,1.455,0,0,1,981.015,363.036Zm-3.483-2.7a.454.454,0,0,0-.454.453v.789a.454.454,0,0,0,.454.453h3.483a.453.453,0,0,0,.453-.453v-.789a.453.453,0,0,0-.453-.453Z" fill="#36c"/>
    <path id="Trazado_30" data-name="Trazado 30" d="M987.751,363.036h-3.483a1.455,1.455,0,0,1-1.453-1.453v-.789a1.455,1.455,0,0,1,1.453-1.453h3.483a1.455,1.455,0,0,1,1.453,1.453v.789A1.455,1.455,0,0,1,987.751,363.036Zm-3.483-2.7a.453.453,0,0,0-.453.453v.789a.453.453,0,0,0,.453.453h3.483a.453.453,0,0,0,.453-.453v-.789a.453.453,0,0,0-.453-.453Z" fill="#36c"/>
  </g>
  <path id="Trazado_31" data-name="Trazado 31" d="M977.177,370.32l2.74-3.058,1.079.979a.4.4,0,0,0,.662-.357l-.342-2.185a.923.923,0,0,0-.872-.779l-2.293-.1a.35.35,0,0,0-.25.609l.859.78-2.746,3.066a.256.256,0,0,0,.02.361l.783.7A.255.255,0,0,0,977.177,370.32Z" transform="translate(-967.288 -356.21)" fill="#36c"/>
</svg>
