<svg xmlns="http://www.w3.org/2000/svg" width="26.888" height="29.794" viewBox="0 0 26.888 29.794"><g transform="translate(0.25 0.703)"><path d="M124.341,87.994l-14.08-.112a2.62,2.62,0,0,0-2.642,2.623l.022,23.113a2.622,2.622,0,0,0,2.612,2.619l16.667.058a2.621,2.621,0,0,0,2.63-2.613l.066-20.451" transform="translate(-105.423 -87.882)" fill="none" stroke="#36c" stroke-linecap="round" stroke-linejoin="round" stroke-width="1.356"/><path d="M124.618,88.138l5,5h-5.01v-5" transform="translate(-105.423 -87.882)" fill="none" stroke="#36c" stroke-linecap="round" stroke-linejoin="round" stroke-width="1.356"/><rect width="26.388" height="8.627" rx="2.159" transform="translate(0 15.745)" fill="#e6effd" stroke="#36c" stroke-miterlimit="10" stroke-width="0.5"/><text transform="translate(9.712 23.479)" fill="#36c" font-size="10.382" font-family="AntipastoPro, Antipasto Pro"><tspan x="-6.115" y="0">MP</tspan></text><text transform="translate(17.948 23.379)" fill="#36c" font-size="9.404" font-family="Quicksand-Medium, Quicksand" font-weight="500"><tspan x="-3.033" y="0">4</tspan></text><circle cx="4.684" cy="4.684" r="4.684" transform="translate(8.511 4.254)" fill="none" stroke="#36c" stroke-linecap="round" stroke-linejoin="round" stroke-width="1"/><path d="M117.106,94.779v4.379l4.341-2.189-4.341-2.189" transform="translate(-105.423 -87.882)" fill="#36c"/></g></svg>