<svg xmlns="http://www.w3.org/2000/svg" width="26.888" height="29.794" viewBox="0 0 26.888 29.794">
  <g id="jpg" transform="translate(0.25 0.703)">
    <path id="Trazado_141" data-name="Trazado 141" d="M66.217,188.277l-14.081-.112a2.62,2.62,0,0,0-2.642,2.623l.022,23.113a2.622,2.622,0,0,0,2.612,2.619l16.667.058a2.621,2.621,0,0,0,2.63-2.613l.067-20.451" transform="translate(-47.299 -188.165)" fill="none" stroke="#36c" stroke-linecap="round" stroke-linejoin="round" stroke-width="1.356"/>
    <path id="Trazado_142" data-name="Trazado 142" d="M66.493,188.421l5,5h-5.01v-5" transform="translate(-47.299 -188.165)" fill="none" stroke="#36c" stroke-linecap="round" stroke-linejoin="round" stroke-width="1.356"/>
    <rect id="Rectángulo_61" data-name="Rectángulo 61" width="26.388" height="8.627" rx="2.159" transform="translate(0 15.745)" fill="#e6effd" stroke="#36c" stroke-miterlimit="10" stroke-width="0.5"/>
    <path id="Trazado_143" data-name="Trazado 143" d="M64.883,201.57l-1.65-2.636a.858.858,0,0,0-1.455,0l-.176.281a.309.309,0,0,1-.542-.034l-1.088-2.357a.83.83,0,0,0-1.506,0l-2.409,5.219a.1.1,0,0,0,.092.143h8.2C64.778,202.186,65.063,201.858,64.883,201.57Z" transform="translate(-47.299 -188.165)" fill="#36c"/>
    <circle id="Elipse_12" data-name="Elipse 12" cx="1.634" cy="1.634" r="1.634" transform="translate(13.84 4.379)" fill="none" stroke="#36c" stroke-miterlimit="10" stroke-width="1"/>
    <text id="PG" transform="translate(15.06 23.33)" fill="#36c" font-size="10.382" font-family="AntipastoPro, Antipasto Pro"><tspan x="-5.972" y="0">PG</tspan></text>
    <text id="J" transform="translate(7.217 22.293)" fill="#36c" font-size="8.966" font-family="AntipastoPro, Antipasto Pro"><tspan x="-0.865" y="0">J</tspan></text>
  </g>
</svg>
