<svg id="fle_izq" data-name="fle izq" xmlns="http://www.w3.org/2000/svg" width="15.281" height="14.482" viewBox="0 0 15.281 14.482">
  <path id="Trazado_37" data-name="Trazado 37" d="M889.315,1007.663h.624q3.615,0,7.23,0a1.663,1.663,0,0,0,.479-3.27,2.246,2.246,0,0,0-.6-.065q-3.642-.006-7.285,0h-.377l-.051-.087c.35-.333.706-.662,1.051-1,.539-.531,1.075-1.064,1.6-1.6a1.611,1.611,0,0,0,.361-1.9,1.649,1.649,0,0,0-2.618-.543c-.934.906-1.848,1.833-2.769,2.753-.94.938-1.876,1.882-2.82,2.818a1.622,1.622,0,0,0-.025,2.388q2.712,2.748,5.423,5.5a1.7,1.7,0,0,0,1.813.51,1.578,1.578,0,0,0,1.115-1.229,1.613,1.613,0,0,0-.483-1.566c-.8-.807-1.6-1.606-2.4-2.409C889.511,1007.874,889.443,1007.8,889.315,1007.663Z" transform="translate(-883.605 -998.752)" fill="#36c"/>
</svg>
