<svg xmlns="http://www.w3.org/2000/svg" width="19.698" height="19.499" viewBox="0 0 19.698 19.499"><g transform="translate(-1041.37 -356.46)"><path d="M1054.829,375.959H1044.45a3.082,3.082,0,0,1-3.08-3.079V362.5a3.083,3.083,0,0,1,3.08-3.08h10.379a3.083,3.083,0,0,1,3.08,3.08v10.38A3.082,3.082,0,0,1,1054.829,375.959ZM1044.45,360.92a1.581,1.581,0,0,0-1.58,1.58v10.38a1.581,1.581,0,0,0,1.58,1.579h10.379a1.581,1.581,0,0,0,1.58-1.579V362.5a1.581,1.581,0,0,0-1.58-1.58Z" fill="#36c"/><path d="M1055.544,374.515l-2.249-3.594a1.17,1.17,0,0,0-1.983,0l-.24.384a.421.421,0,0,1-.739-.047l-1.482-3.212a1.13,1.13,0,0,0-2.053,0l-3.283,7.114a.137.137,0,0,0,.125.2h11.175C1055.4,375.355,1055.789,374.907,1055.544,374.515Z" fill="#36c"/><circle cx="2.228" cy="2.228" r="2.228" transform="translate(1050.441 362.212)" fill="#36c"/><path d="M1057.515,374.1a.5.5,0,0,1,0-1,.926.926,0,0,0,.925-.925V362a2.87,2.87,0,0,0-2.867-2.867h-10.439a.656.656,0,0,0-.654.654v.271a.5.5,0,0,1-1,0v-.271a1.656,1.656,0,0,1,1.654-1.654h10.439A3.872,3.872,0,0,1,1059.44,362v10.168A1.927,1.927,0,0,1,1057.515,374.1Z" fill="#36c"/><path d="M1059.143,372.42a.5.5,0,0,1,0-1,.926.926,0,0,0,.925-.924v-9.36a3.681,3.681,0,0,0-3.676-3.676h-9.631a.654.654,0,0,0-.653.654v.271a.5.5,0,0,1-1,0v-.271a1.655,1.655,0,0,1,1.653-1.654h9.631a4.682,4.682,0,0,1,4.676,4.676v9.36A1.927,1.927,0,0,1,1059.143,372.42Z" fill="#36c"/></g></svg>