<svg id="me_gusta" data-name="me gusta" xmlns="http://www.w3.org/2000/svg" width="26.217" height="26.208" viewBox="0 0 26.217 26.208">
  <path id="Trazado_1" data-name="Trazado 1" d="M816.926,886.366a13.109,13.109,0,1,1-13.014-13.157A13.11,13.11,0,0,1,816.926,886.366Zm-5.155-.982c.945-.384,1.336-.943,1.2-1.662s-.725-1.1-1.682-1.1q-1.719,0-3.439,0c-1.079,0-1.31.14-.884-1.166a7.177,7.177,0,0,0,.433-3.774A1.872,1.872,0,0,0,805.5,876.1c-.683-.014-.894.223-.914.9a3.219,3.219,0,0,1-.194,1.418c-.668,1.175-1.422,2.3-2.2,3.41a2.2,2.2,0,0,1-1.01.739,1.044,1.044,0,0,0-.777,1.135c.009,2.643,0,5.286.005,7.929,0,.871.243,1.111,1.116,1.114,2.468.006,4.936,0,7.4.005a1.547,1.547,0,0,0,1.571-.78,1.378,1.378,0,0,0-.331-1.652c1.342-.509,1.6-1.309.81-2.477C812.275,887.317,812.537,886.524,811.771,885.384ZM794.652,887.7c0,1.38-.007,2.76,0,4.14,0,.649.234.892.873.9q1.632.024,3.265,0c.609-.008.858-.246.861-.855q.015-4.14,0-8.281c0-.642-.249-.859-.9-.864q-1.575-.009-3.149,0c-.714,0-.944.226-.947.936C794.648,885.021,794.653,886.362,794.652,887.7Z" transform="translate(-790.709 -873.209)" fill="#36c"/>
</svg>
