<svg id="like" xmlns="http://www.w3.org/2000/svg" width="10.51" height="9.019" viewBox="0 0 10.51 9.019">
  <path id="Trazado_83" data-name="Trazado 83" d="M110.4,1406.22a7.146,7.146,0,0,0,1.625-2.4,2.9,2.9,0,0,0,.153-1.115,2.692,2.692,0,0,0-.946-1.9,3.028,3.028,0,0,0-2.86-.536,2.835,2.835,0,0,0-1.42.973,4.061,4.061,0,0,0-.619-.584,3.105,3.105,0,0,0-1.732-.521,3.019,3.019,0,0,0-2.538,1.327,2.929,2.929,0,0,0,.19,3.2,13.582,13.582,0,0,0,1.221,1.56c.887.977,1.819,1.91,2.445,2.522a1.4,1.4,0,0,0,1.922.028C108.506,1408.157,109.492,1407.216,110.4,1406.22Z" transform="translate(-101.671 -1400.12)" fill="#f42f63"/>
</svg>
