<svg id="calendario" xmlns="http://www.w3.org/2000/svg" width="22.211" height="23.987" viewBox="0 0 22.211 23.987">
  <g id="Grupo_234" data-name="Grupo 234" transform="translate(-804.816 -414.466)">
    <g id="Grupo_232" data-name="Grupo 232">
      <g id="Grupo_229" data-name="Grupo 229">
        <path id="Trazado_516" data-name="Trazado 516" d="M823.138,438.453H808.705a3.894,3.894,0,0,1-3.889-3.889V420.131a3.893,3.893,0,0,1,3.889-3.888h14.433a3.893,3.893,0,0,1,3.889,3.888v14.433A3.894,3.894,0,0,1,823.138,438.453Zm-14.433-20.911a2.592,2.592,0,0,0-2.588,2.589v14.433a2.592,2.592,0,0,0,2.588,2.589h14.433a2.592,2.592,0,0,0,2.588-2.589V420.131a2.592,2.592,0,0,0-2.588-2.589Z" fill="#36c"/>
      </g>
      <g id="Grupo_230" data-name="Grupo 230">
        <line id="Línea_11" data-name="Línea 11" y2="3.598" transform="translate(810.802 415.466)" fill="#36c"/>
        <path id="Trazado_517" data-name="Trazado 517" d="M810.8,420.064a1,1,0,0,1-1-1v-3.6a1,1,0,1,1,2,0v3.6A1,1,0,0,1,810.8,420.064Z" fill="#36c"/>
      </g>
      <g id="Grupo_231" data-name="Grupo 231">
        <line id="Línea_12" data-name="Línea 12" y2="3.598" transform="translate(821.67 415.466)" fill="#36c"/>
        <path id="Trazado_518" data-name="Trazado 518" d="M821.669,420.064a1,1,0,0,1-1-1v-3.6a1,1,0,1,1,2,0v3.6A1,1,0,0,1,821.669,420.064Z" fill="#36c"/>
      </g>
    </g>
    <g id="Grupo_233" data-name="Grupo 233">
      <circle id="Elipse_25" data-name="Elipse 25" cx="0.9" cy="0.9" r="0.9" transform="translate(807.935 424.912)" fill="#36c"/>
      <circle id="Elipse_26" data-name="Elipse 26" cx="0.9" cy="0.9" r="0.9" transform="translate(807.935 427.611)" fill="#36c"/>
      <circle id="Elipse_27" data-name="Elipse 27" cx="0.9" cy="0.9" r="0.9" transform="translate(810.634 427.611)" fill="#36c"/>
      <circle id="Elipse_28" data-name="Elipse 28" cx="0.9" cy="0.9" r="0.9" transform="translate(810.634 424.912)" fill="#36c"/>
      <circle id="Elipse_29" data-name="Elipse 29" cx="0.9" cy="0.9" r="0.9" transform="translate(813.332 424.912)" fill="#36c"/>
      <circle id="Elipse_30" data-name="Elipse 30" cx="0.9" cy="0.9" r="0.9" transform="translate(813.332 427.611)" fill="#36c"/>
      <circle id="Elipse_31" data-name="Elipse 31" cx="0.9" cy="0.9" r="0.9" transform="translate(816.031 427.611)" fill="#36c"/>
      <circle id="Elipse_32" data-name="Elipse 32" cx="0.9" cy="0.9" r="0.9" transform="translate(816.031 424.912)" fill="#36c"/>
      <circle id="Elipse_33" data-name="Elipse 33" cx="0.9" cy="0.9" r="0.9" transform="translate(818.73 424.912)" fill="#36c"/>
      <circle id="Elipse_34" data-name="Elipse 34" cx="0.9" cy="0.9" r="0.9" transform="translate(818.73 427.611)" fill="#36c"/>
      <circle id="Elipse_35" data-name="Elipse 35" cx="0.9" cy="0.9" r="0.9" transform="translate(821.429 427.611)" fill="#36c"/>
      <circle id="Elipse_36" data-name="Elipse 36" cx="0.9" cy="0.9" r="0.9" transform="translate(821.429 424.912)" fill="#36c"/>
      <circle id="Elipse_37" data-name="Elipse 37" cx="0.9" cy="0.9" r="0.9" transform="translate(807.935 430.309)" fill="#36c"/>
      <circle id="Elipse_38" data-name="Elipse 38" cx="0.9" cy="0.9" r="0.9" transform="translate(807.935 433.008)" fill="#36c"/>
      <circle id="Elipse_39" data-name="Elipse 39" cx="0.9" cy="0.9" r="0.9" transform="translate(810.634 433.008)" fill="#36c"/>
      <circle id="Elipse_40" data-name="Elipse 40" cx="0.9" cy="0.9" r="0.9" transform="translate(810.634 430.309)" fill="#36c"/>
      <circle id="Elipse_41" data-name="Elipse 41" cx="0.9" cy="0.9" r="0.9" transform="translate(813.332 430.309)" fill="#36c"/>
      <circle id="Elipse_42" data-name="Elipse 42" cx="0.9" cy="0.9" r="0.9" transform="translate(813.332 433.008)" fill="#36c"/>
      <circle id="Elipse_43" data-name="Elipse 43" cx="0.9" cy="0.9" r="0.9" transform="translate(816.031 433.008)" fill="#36c"/>
      <circle id="Elipse_44" data-name="Elipse 44" cx="0.9" cy="0.9" r="0.9" transform="translate(816.031 430.309)" fill="#36c"/>
      <circle id="Elipse_45" data-name="Elipse 45" cx="0.9" cy="0.9" r="0.9" transform="translate(818.73 430.309)" fill="#36c"/>
      <circle id="Elipse_46" data-name="Elipse 46" cx="0.9" cy="0.9" r="0.9" transform="translate(821.429 430.309)" fill="#36c"/>
    </g>
  </g>
  <line id="Línea_13" data-name="Línea 13" x2="19.609" transform="translate(1.301 7.236)" fill="none" stroke="#36c" stroke-miterlimit="10" stroke-width="1"/>
</svg>
