<svg id="el_tamaño..." data-name="el tamaño..." xmlns="http://www.w3.org/2000/svg" width="364.909" height="15.26" viewBox="0 0 364.909 15.26">
  <g id="Grupo_15" data-name="Grupo 15" transform="translate(-458.301 -757.99)">
    <path id="Trazado_38" data-name="Trazado 38" d="M481.272,769.825v-8.58h5.622v.6h-5v3.316h3.952v.611h-3.952v3.458h5.2v.6Z" fill="#f42f63"/>
    <path id="Trazado_39" data-name="Trazado 39" d="M489.287,760.335v7.956a1.365,1.365,0,0,0,.2.844.753.753,0,0,0,.623.247,1.736,1.736,0,0,0,.418-.039,2.351,2.351,0,0,0,.368-.129l-.087.572a1.743,1.743,0,0,1-.368.124,2.131,2.131,0,0,1-.455.045,1.213,1.213,0,0,1-.991-.4,1.912,1.912,0,0,1-.33-1.241v-7.982Z" fill="#f42f63"/>
    <path id="Trazado_40" data-name="Trazado 40" d="M498.748,763.325v.558h-4.2v-.558Zm-2.331-1.807v6.591a1.369,1.369,0,0,0,.28.93,1.031,1.031,0,0,0,.817.318,1.449,1.449,0,0,0,.617-.124,1.479,1.479,0,0,0,.48-.357l.237.533a1.727,1.727,0,0,1-.6.4,2.1,2.1,0,0,1-.811.15,1.88,1.88,0,0,1-.86-.189,1.3,1.3,0,0,1-.579-.578,2.1,2.1,0,0,1-.206-.988v-6.5Z" fill="#f42f63"/>
    <path id="Trazado_41" data-name="Trazado 41" d="M503.46,764.235a1.622,1.622,0,0,0-1.247-.468,2.22,2.22,0,0,0-1.24.331,1.919,1.919,0,0,0-.742,1.047l-.511-.338a2.265,2.265,0,0,1,.923-1.2,2.871,2.871,0,0,1,1.583-.416,2.35,2.35,0,0,1,1.676.578,2.162,2.162,0,0,1,.617,1.658v3.25q0,.688.6.689a1.026,1.026,0,0,0,.448-.091l-.037.519a1.118,1.118,0,0,1-.548.118,1.084,1.084,0,0,1-.792-.3,1.245,1.245,0,0,1-.293-.949v-.287l.162-.078a1.917,1.917,0,0,1-.486.911,2.241,2.241,0,0,1-.86.559,2.969,2.969,0,0,1-1.022.182,2.311,2.311,0,0,1-1.471-.442,1.484,1.484,0,0,1-.561-1.235,1.549,1.549,0,0,1,.461-1.17,2.658,2.658,0,0,1,1.321-.624l2.581-.533v.546l-2.269.467a2.7,2.7,0,0,0-1.1.462.982.982,0,0,0-.355.8,1.026,1.026,0,0,0,.386.852,1.736,1.736,0,0,0,1.1.3,2.567,2.567,0,0,0,1-.2,1.912,1.912,0,0,0,.8-.617,1.642,1.642,0,0,0,.318-1.027v-1.989A1.852,1.852,0,0,0,503.46,764.235Z" fill="#f42f63"/>
    <path id="Trazado_42" data-name="Trazado 42" d="M506.85,769.825v-6.5h.561l.037,1.351a2.2,2.2,0,0,1,.892-1.091,2.522,2.522,0,0,1,1.377-.39,2.44,2.44,0,0,1,1.4.4,2.064,2.064,0,0,1,.816,1.183,2.1,2.1,0,0,1,.524-.852,2.508,2.508,0,0,1,.847-.552,2.689,2.689,0,0,1,1.01-.2,2.6,2.6,0,0,1,1.178.266,2.034,2.034,0,0,1,.847.807,2.607,2.607,0,0,1,.318,1.345v4.212h-.623v-4.147a1.909,1.909,0,0,0-.493-1.437,1.8,1.8,0,0,0-1.3-.474,2.126,2.126,0,0,0-1.876,1.111,2.453,2.453,0,0,0-.293,1.216v3.744h-.623v-4.148a1.9,1.9,0,0,0-.5-1.436,1.8,1.8,0,0,0-1.3-.474,2.105,2.105,0,0,0-1.06.285,2.214,2.214,0,0,0-.81.82,2.478,2.478,0,0,0-.312,1.274v3.679Z" fill="#f42f63"/>
    <path id="Trazado_43" data-name="Trazado 43" d="M522.194,764.235a1.62,1.62,0,0,0-1.246-.468,2.217,2.217,0,0,0-1.24.331,1.918,1.918,0,0,0-.742,1.047l-.511-.338a2.263,2.263,0,0,1,.922-1.2,2.877,2.877,0,0,1,1.584-.416,2.35,2.35,0,0,1,1.676.578,2.165,2.165,0,0,1,.617,1.658v3.25q0,.688.6.689a1.026,1.026,0,0,0,.448-.091l-.037.519a1.119,1.119,0,0,1-.549.118,1.083,1.083,0,0,1-.791-.3,1.245,1.245,0,0,1-.293-.949v-.287l.162-.078a1.926,1.926,0,0,1-.486.911,2.249,2.249,0,0,1-.86.559,2.975,2.975,0,0,1-1.023.182,2.31,2.31,0,0,1-1.47-.442,1.485,1.485,0,0,1-.561-1.235,1.545,1.545,0,0,1,.461-1.17,2.658,2.658,0,0,1,1.321-.624l2.58-.533v.546l-2.268.467a2.7,2.7,0,0,0-1.1.462.983.983,0,0,0-.356.8,1.026,1.026,0,0,0,.387.852,1.734,1.734,0,0,0,1.1.3,2.567,2.567,0,0,0,1-.2,1.911,1.911,0,0,0,.8-.617,1.641,1.641,0,0,0,.318-1.027v-1.989A1.852,1.852,0,0,0,522.194,764.235Z" fill="#f42f63"/>
    <path id="Trazado_44" data-name="Trazado 44" d="M525.585,769.825v-6.5h.561l.05,1.625-.1-.091a2.426,2.426,0,0,1,.524-.91,2.216,2.216,0,0,1,.835-.566,2.863,2.863,0,0,1,1.047-.188,2.7,2.7,0,0,1,1.234.272,2.006,2.006,0,0,1,.841.807,2.661,2.661,0,0,1,.306,1.339v4.212h-.624v-4a2.1,2.1,0,0,0-.5-1.561,1.8,1.8,0,0,0-1.314-.493,2.21,2.21,0,0,0-1.091.28,2.179,2.179,0,0,0-.823.812,2.493,2.493,0,0,0-.318,1.3v3.666Zm4.824-9.113a2.416,2.416,0,0,1-.206.793,1.174,1.174,0,0,1-.405.488,1.1,1.1,0,0,1-.61.162,1.131,1.131,0,0,1-.574-.137,2.328,2.328,0,0,1-.424-.311,4.335,4.335,0,0,0-.368-.313.653.653,0,0,0-.4-.137.565.565,0,0,0-.493.242,1.8,1.8,0,0,0-.256.669h-.5a1.9,1.9,0,0,1,.393-1.085,1.1,1.1,0,0,1,.866-.358,1.079,1.079,0,0,1,.548.136,2.515,2.515,0,0,1,.424.306c.125.113.247.214.368.3a.654.654,0,0,0,.4.137.571.571,0,0,0,.493-.234,1.637,1.637,0,0,0,.242-.663Z" fill="#f42f63"/>
    <path id="Trazado_45" data-name="Trazado 45" d="M535.582,763.2a2.926,2.926,0,0,1,1.54.4,2.778,2.778,0,0,1,1.047,1.163,4.517,4.517,0,0,1,0,3.627,2.766,2.766,0,0,1-1.047,1.163,3.135,3.135,0,0,1-3.079,0A2.753,2.753,0,0,1,533,768.388a4.507,4.507,0,0,1,0-3.627,2.765,2.765,0,0,1,1.047-1.163A2.92,2.92,0,0,1,535.582,763.2Zm0,.559a2.142,2.142,0,0,0-2.051,1.306,4.045,4.045,0,0,0,0,3.023,2.234,2.234,0,0,0,4.1,0,4.046,4.046,0,0,0,0-3.023,2.139,2.139,0,0,0-2.05-1.306Z" fill="#f42f63"/>
    <path id="Trazado_46" data-name="Trazado 46" d="M546.663,769.955a2.694,2.694,0,0,1-1.458-.4,2.721,2.721,0,0,1-1.016-1.163,4.115,4.115,0,0,1-.368-1.813,3.976,3.976,0,0,1,.387-1.833,2.737,2.737,0,0,1,2.518-1.547,2.277,2.277,0,0,1,2.3,1.807l-.074.065v-4.732h.623v9.49h-.561l-.038-1.807.076-.026a2.423,2.423,0,0,1-.455,1.066,2.211,2.211,0,0,1-.848.669A2.616,2.616,0,0,1,546.663,769.955Zm.075-.573a1.992,1.992,0,0,0,1.159-.343,2.258,2.258,0,0,0,.779-.995,3.816,3.816,0,0,0,.281-1.521,3.543,3.543,0,0,0-.281-1.475,2.209,2.209,0,0,0-.773-.95,2,2,0,0,0-1.14-.331,2.084,2.084,0,0,0-1.7.754,3.71,3.71,0,0,0-.005,4.108A2.05,2.05,0,0,0,546.738,769.382Z" fill="#f42f63"/>
    <path id="Trazado_47" data-name="Trazado 47" d="M552.808,769.546a2.8,2.8,0,0,1-1.053-1.17,3.978,3.978,0,0,1-.38-1.8,4.041,4.041,0,0,1,.374-1.794,2.791,2.791,0,0,1,1.028-1.177,2.758,2.758,0,0,1,1.49-.409,2.636,2.636,0,0,1,1.433.384,2.463,2.463,0,0,1,.935,1.085,3.806,3.806,0,0,1,.324,1.612c0,.078,0,.153-.006.228s-.011.14-.019.2h-5.173v-.585h4.9l-.324.247a2.769,2.769,0,0,0-.511-1.9,1.9,1.9,0,0,0-1.571-.7,2.134,2.134,0,0,0-1.184.331,2.178,2.178,0,0,0-.8.975,3.669,3.669,0,0,0-.287,1.5,3.6,3.6,0,0,0,.293,1.5,2.173,2.173,0,0,0,.823.974,2.265,2.265,0,0,0,1.228.331,2.323,2.323,0,0,0,1.234-.318,2.124,2.124,0,0,0,.81-.9l.5.3a2.615,2.615,0,0,1-1.01,1.1,3.095,3.095,0,0,1-3.054-.012Z" fill="#f42f63"/>
    <path id="Trazado_48" data-name="Trazado 48" d="M559.315,760.335v7.956a1.365,1.365,0,0,0,.2.844.753.753,0,0,0,.623.247,1.736,1.736,0,0,0,.418-.039,2.35,2.35,0,0,0,.368-.129l-.087.572a1.743,1.743,0,0,1-.368.124,2.131,2.131,0,0,1-.455.045,1.213,1.213,0,0,1-.991-.4,1.912,1.912,0,0,1-.331-1.241v-7.982Z" fill="#f42f63"/>
    <path id="Trazado_49" data-name="Trazado 49" d="M569.037,764.235a1.62,1.62,0,0,0-1.246-.468,2.221,2.221,0,0,0-1.241.331,1.917,1.917,0,0,0-.741,1.047l-.511-.338a2.264,2.264,0,0,1,.922-1.2,2.874,2.874,0,0,1,1.583-.416,2.354,2.354,0,0,1,1.677.578,2.165,2.165,0,0,1,.617,1.658v3.25q0,.688.6.689a1.027,1.027,0,0,0,.449-.091l-.038.519a1.115,1.115,0,0,1-.548.118,1.083,1.083,0,0,1-.791-.3,1.241,1.241,0,0,1-.293-.949v-.287l.162-.078a1.927,1.927,0,0,1-.487.911,2.237,2.237,0,0,1-.859.559,2.975,2.975,0,0,1-1.023.182,2.313,2.313,0,0,1-1.471-.442,1.484,1.484,0,0,1-.561-1.235,1.545,1.545,0,0,1,.462-1.17,2.654,2.654,0,0,1,1.321-.624l2.58-.533v.546l-2.268.467a2.691,2.691,0,0,0-1.1.462.983.983,0,0,0-.356.8,1.028,1.028,0,0,0,.386.852,1.739,1.739,0,0,0,1.1.3,2.574,2.574,0,0,0,1-.2,1.912,1.912,0,0,0,.8-.617,1.642,1.642,0,0,0,.318-1.027v-1.989A1.852,1.852,0,0,0,569.037,764.235Z" fill="#f42f63"/>
    <path id="Trazado_50" data-name="Trazado 50" d="M572.428,769.825v-6.5h.523l.075,1.351a2.277,2.277,0,0,1,.761-1.078,2,2,0,0,1,1.258-.4,1.816,1.816,0,0,1,.449.052.843.843,0,0,1,.337.169l-.15.572a1.254,1.254,0,0,0-.3-.144,1.73,1.73,0,0,0-.486-.051,1.51,1.51,0,0,0-.9.3,2.2,2.2,0,0,0-.686.845,2.8,2.8,0,0,0-.262,1.242v3.64Z" fill="#f42f63"/>
    <path id="Trazado_51" data-name="Trazado 51" d="M579.371,763.2a2.92,2.92,0,0,1,1.134.208,2.331,2.331,0,0,1,.848.6,2.688,2.688,0,0,1,.536.949l-.586.286a2.04,2.04,0,0,0-.692-1.086,1.984,1.984,0,0,0-1.253-.383,2.219,2.219,0,0,0-1.209.331,2.162,2.162,0,0,0-.81.962,4.124,4.124,0,0,0,0,3.023,2.072,2.072,0,0,0,2.007,1.3,2.426,2.426,0,0,0,.953-.181,1.778,1.778,0,0,0,.711-.533,1.828,1.828,0,0,0,.367-.832l.574.208a2.6,2.6,0,0,1-.53,1.027,2.427,2.427,0,0,1-.891.656,2.907,2.907,0,0,1-1.172.228,2.856,2.856,0,0,1-1.514-.4,2.715,2.715,0,0,1-1.041-1.163,4.059,4.059,0,0,1-.374-1.813,4.009,4.009,0,0,1,.38-1.814,2.771,2.771,0,0,1,1.047-1.163A2.874,2.874,0,0,1,579.371,763.2Z" fill="#f42f63"/>
    <path id="Trazado_52" data-name="Trazado 52" d="M583.621,769.825v-9.49h.623v4.316a2.185,2.185,0,0,1,.885-1.072,2.593,2.593,0,0,1,1.409-.384,2.733,2.733,0,0,1,1.234.267,1.943,1.943,0,0,1,.841.805,2.668,2.668,0,0,1,.306,1.333v4.225h-.624v-4.017a2.108,2.108,0,0,0-.5-1.553,1.787,1.787,0,0,0-1.315-.5,2.174,2.174,0,0,0-1.091.286,2.228,2.228,0,0,0-.823.819,2.492,2.492,0,0,0-.318,1.3v3.666Z" fill="#f42f63"/>
    <path id="Trazado_53" data-name="Trazado 53" d="M591.387,762.064a.5.5,0,0,1-.38-.149.55.55,0,0,1-.144-.4.545.545,0,0,1,.144-.4.556.556,0,0,1,.76,0,.548.548,0,0,1,.143.4.554.554,0,0,1-.143.4A.506.506,0,0,1,591.387,762.064Zm.311,1.261v6.5h-.623v-6.5Z" fill="#f42f63"/>
    <path id="Trazado_54" data-name="Trazado 54" d="M598.205,763.325h.661l-2.605,6.5h-.624l-2.605-6.5h.7l2.23,5.824Z" fill="#f42f63"/>
    <path id="Trazado_55" data-name="Trazado 55" d="M602.643,763.2a2.926,2.926,0,0,1,1.54.4,2.777,2.777,0,0,1,1.047,1.163,4.517,4.517,0,0,1,0,3.627,2.765,2.765,0,0,1-1.047,1.163,3.135,3.135,0,0,1-3.079,0,2.753,2.753,0,0,1-1.047-1.163,4.507,4.507,0,0,1,0-3.627A2.764,2.764,0,0,1,601.1,763.6,2.92,2.92,0,0,1,602.643,763.2Zm0,.559a2.142,2.142,0,0,0-2.051,1.306,4.046,4.046,0,0,0,0,3.023,2.234,2.234,0,0,0,4.1,0,4.045,4.045,0,0,0,0-3.023,2.139,2.139,0,0,0-2.05-1.306Z" fill="#f42f63"/>
    <path id="Trazado_56" data-name="Trazado 56" d="M613.812,763.2a2.92,2.92,0,0,1,1.134.208,2.331,2.331,0,0,1,.848.6,2.688,2.688,0,0,1,.536.949l-.586.286a2.04,2.04,0,0,0-.692-1.086,1.984,1.984,0,0,0-1.253-.383,2.219,2.219,0,0,0-1.209.331,2.161,2.161,0,0,0-.81.962,4.123,4.123,0,0,0,0,3.023,2.072,2.072,0,0,0,2.007,1.3,2.426,2.426,0,0,0,.953-.181,1.778,1.778,0,0,0,.711-.533,1.828,1.828,0,0,0,.367-.832l.574.208a2.6,2.6,0,0,1-.53,1.027,2.427,2.427,0,0,1-.891.656,2.906,2.906,0,0,1-1.172.228,2.856,2.856,0,0,1-1.514-.4,2.715,2.715,0,0,1-1.041-1.163,4.059,4.059,0,0,1-.374-1.813,4.009,4.009,0,0,1,.38-1.814A2.764,2.764,0,0,1,612.3,763.6,2.874,2.874,0,0,1,613.812,763.2Z" fill="#f42f63"/>
    <path id="Trazado_57" data-name="Trazado 57" d="M621.44,764.235a1.622,1.622,0,0,0-1.247-.468,2.22,2.22,0,0,0-1.24.331,1.924,1.924,0,0,0-.742,1.047l-.51-.338a2.259,2.259,0,0,1,.922-1.2,2.874,2.874,0,0,1,1.583-.416,2.35,2.35,0,0,1,1.676.578,2.162,2.162,0,0,1,.618,1.658v3.25q0,.688.6.689a1.027,1.027,0,0,0,.449-.091l-.038.519a1.115,1.115,0,0,1-.548.118,1.087,1.087,0,0,1-.792-.3,1.241,1.241,0,0,1-.292-.949v-.287l.162-.078a1.927,1.927,0,0,1-.487.911,2.241,2.241,0,0,1-.86.559,2.966,2.966,0,0,1-1.022.182,2.313,2.313,0,0,1-1.471-.442,1.485,1.485,0,0,1-.561-1.235,1.546,1.546,0,0,1,.462-1.17,2.654,2.654,0,0,1,1.321-.624l2.58-.533v.546l-2.269.467a2.7,2.7,0,0,0-1.1.462.985.985,0,0,0-.355.8,1.028,1.028,0,0,0,.386.852,1.738,1.738,0,0,0,1.1.3,2.567,2.567,0,0,0,1-.2,1.909,1.909,0,0,0,.8-.617,1.642,1.642,0,0,0,.318-1.027v-1.989A1.852,1.852,0,0,0,621.44,764.235Z" fill="#f42f63"/>
    <path id="Trazado_58" data-name="Trazado 58" d="M624.83,769.825v-6.5h.524l.074,1.351a2.277,2.277,0,0,1,.761-1.078,2.007,2.007,0,0,1,1.259-.4,1.815,1.815,0,0,1,.449.052.838.838,0,0,1,.336.169l-.149.572a1.259,1.259,0,0,0-.3-.144,1.73,1.73,0,0,0-.486-.051,1.51,1.51,0,0,0-.9.3,2.206,2.206,0,0,0-.686.845,2.818,2.818,0,0,0-.262,1.242v3.64Z" fill="#f42f63"/>
    <path id="Trazado_59" data-name="Trazado 59" d="M632.471,769.162a2.328,2.328,0,0,1,1.447.4,1.294,1.294,0,0,1,.523,1.079,1.546,1.546,0,0,1-.38,1.04,2.5,2.5,0,0,1-1.041.689,4.281,4.281,0,0,1-1.508.247,3.881,3.881,0,0,1-2.157-.5,1.474,1.474,0,0,1-.748-1.255,1.338,1.338,0,0,1,.38-.949,1.726,1.726,0,0,1,1.116-.481l-.05.116a1.58,1.58,0,0,1-.71-.382,1.026,1.026,0,0,1-.3-.788,1.153,1.153,0,0,1,.417-.916,1.8,1.8,0,0,1,1.1-.4l.387.247a1.722,1.722,0,0,0-.985.292.811.811,0,0,0-.349.67.744.744,0,0,0,.33.663,1.481,1.481,0,0,0,.842.221Zm-1.047-5.967a3.025,3.025,0,0,1,1.3.267,2.073,2.073,0,0,1,.879.741,1.973,1.973,0,0,1,.312,1.111,2.015,2.015,0,0,1-.312,1.111,2.039,2.039,0,0,1-.879.754,3.025,3.025,0,0,1-1.3.267,2.692,2.692,0,0,1-1.851-.592,2.107,2.107,0,0,1-.349-2.651,2.115,2.115,0,0,1,.885-.741A3.058,3.058,0,0,1,631.424,763.2Zm.088,8.879a3.866,3.866,0,0,0,1.259-.182,1.931,1.931,0,0,0,.8-.488.987.987,0,0,0,.28-.682.853.853,0,0,0-.38-.728,1.983,1.983,0,0,0-1.153-.273h-1.77a1.591,1.591,0,0,0-.972.285.908.908,0,0,0-.387.768,1.066,1.066,0,0,0,.617.942A3.4,3.4,0,0,0,631.512,772.074Zm-.088-8.346a2.031,2.031,0,0,0-1.346.436,1.422,1.422,0,0,0-.523,1.15,1.441,1.441,0,0,0,.523,1.157,2.019,2.019,0,0,0,1.346.442,1.993,1.993,0,0,0,1.34-.442,1.449,1.449,0,0,0,.518-1.157,1.429,1.429,0,0,0-.518-1.15A2.006,2.006,0,0,0,631.424,763.728Zm3.017-1.6.149.572a1.689,1.689,0,0,0-.723.142,1,1,0,0,0-.454.423,1.332,1.332,0,0,0-.144.7l-.411-.182a1.97,1.97,0,0,1,.112-.683,1.429,1.429,0,0,1,.324-.519,1.451,1.451,0,0,1,.505-.332A1.715,1.715,0,0,1,634.441,762.129Z" fill="#f42f63"/>
    <path id="Trazado_60" data-name="Trazado 60" d="M639.078,764.235a1.622,1.622,0,0,0-1.247-.468,2.22,2.22,0,0,0-1.24.331,1.919,1.919,0,0,0-.742,1.047l-.511-.338a2.265,2.265,0,0,1,.923-1.2,2.871,2.871,0,0,1,1.583-.416,2.35,2.35,0,0,1,1.676.578,2.162,2.162,0,0,1,.617,1.658v3.25q0,.688.6.689a1.03,1.03,0,0,0,.449-.091l-.038.519a1.118,1.118,0,0,1-.548.118,1.084,1.084,0,0,1-.792-.3,1.245,1.245,0,0,1-.293-.949v-.287l.162-.078a1.917,1.917,0,0,1-.486.911,2.241,2.241,0,0,1-.86.559,2.966,2.966,0,0,1-1.022.182,2.311,2.311,0,0,1-1.471-.442,1.485,1.485,0,0,1-.561-1.235,1.549,1.549,0,0,1,.461-1.17,2.658,2.658,0,0,1,1.322-.624l2.58-.533v.546l-2.269.467a2.7,2.7,0,0,0-1.1.462.982.982,0,0,0-.355.8,1.028,1.028,0,0,0,.386.852,1.736,1.736,0,0,0,1.1.3,2.567,2.567,0,0,0,1-.2,1.911,1.911,0,0,0,.8-.617,1.641,1.641,0,0,0,.318-1.027v-1.989A1.852,1.852,0,0,0,639.078,764.235Z" fill="#f42f63"/>
    <path id="Trazado_61" data-name="Trazado 61" d="M644.9,769.955a2.659,2.659,0,0,1-2.474-1.567,4.116,4.116,0,0,1-.368-1.813,3.988,3.988,0,0,1,.386-1.833,2.739,2.739,0,0,1,2.518-1.547A2.277,2.277,0,0,1,647.267,765l-.075.065v-4.732h.624v9.49h-.561l-.038-1.807.076-.026a2.413,2.413,0,0,1-.456,1.066,2.208,2.208,0,0,1-.847.669A2.62,2.62,0,0,1,644.9,769.955Zm.075-.573a1.994,1.994,0,0,0,1.159-.343,2.265,2.265,0,0,0,.779-.995,3.816,3.816,0,0,0,.28-1.521,3.542,3.542,0,0,0-.28-1.475,2.209,2.209,0,0,0-.773-.95,2,2,0,0,0-1.14-.331,2.084,2.084,0,0,0-1.7.754,3.712,3.712,0,0,0-.006,4.108A2.054,2.054,0,0,0,644.974,769.382Z" fill="#f42f63"/>
    <path id="Trazado_62" data-name="Trazado 62" d="M652.578,763.2a2.925,2.925,0,0,1,1.539.4,2.764,2.764,0,0,1,1.047,1.163,4.517,4.517,0,0,1,0,3.627,2.753,2.753,0,0,1-1.047,1.163,3.135,3.135,0,0,1-3.079,0,2.759,2.759,0,0,1-1.047-1.163,4.517,4.517,0,0,1,0-3.627,2.771,2.771,0,0,1,1.047-1.163A2.923,2.923,0,0,1,652.578,763.2Zm0,.559a2.142,2.142,0,0,0-2.051,1.306,4.046,4.046,0,0,0,0,3.023,2.234,2.234,0,0,0,4.1,0,4.045,4.045,0,0,0,0-3.023,2.139,2.139,0,0,0-2.05-1.306Z" fill="#f42f63"/>
    <path id="Trazado_63" data-name="Trazado 63" d="M662.238,769.546a2.8,2.8,0,0,1-1.053-1.17,3.979,3.979,0,0,1-.381-1.8,4.055,4.055,0,0,1,.374-1.794,2.793,2.793,0,0,1,1.029-1.177,2.754,2.754,0,0,1,1.489-.409,2.633,2.633,0,0,1,1.433.384,2.465,2.465,0,0,1,.936,1.085,3.821,3.821,0,0,1,.324,1.612c0,.078,0,.153-.007.228s-.01.14-.018.2H661.19v-.585h4.9l-.324.247a2.769,2.769,0,0,0-.511-1.9,1.9,1.9,0,0,0-1.57-.7,2.132,2.132,0,0,0-1.184.331,2.178,2.178,0,0,0-.8.975,3.652,3.652,0,0,0-.287,1.5,3.6,3.6,0,0,0,.293,1.5,2.161,2.161,0,0,0,.823.974,2.264,2.264,0,0,0,1.227.331,2.325,2.325,0,0,0,1.235-.318,2.137,2.137,0,0,0,.81-.9l.5.3a2.612,2.612,0,0,1-1.009,1.1,3.095,3.095,0,0,1-3.054-.012Z" fill="#f42f63"/>
    <path id="Trazado_64" data-name="Trazado 64" d="M672.646,763.325l-2.418,3.315-.075.052-2.281,3.133h-.748l2.668-3.6.049-.026,2.057-2.873Zm-4.6,0,2.082,2.821.062.078,2.643,3.6h-.786l-2.231-3.029-.087-.1-2.48-3.367Z" fill="#f42f63"/>
    <path id="Trazado_65" data-name="Trazado 65" d="M676.473,763.2a2.916,2.916,0,0,1,1.134.208,2.331,2.331,0,0,1,.848.6,2.688,2.688,0,0,1,.536.949l-.586.286a2.035,2.035,0,0,0-.692-1.086,1.984,1.984,0,0,0-1.253-.383,2.219,2.219,0,0,0-1.209.331,2.162,2.162,0,0,0-.81.962,4.124,4.124,0,0,0,0,3.023,2.072,2.072,0,0,0,2.007,1.3,2.426,2.426,0,0,0,.953-.181,1.778,1.778,0,0,0,.711-.533,1.839,1.839,0,0,0,.368-.832l.573.208a2.6,2.6,0,0,1-.53,1.027,2.427,2.427,0,0,1-.891.656,2.906,2.906,0,0,1-1.172.228,2.856,2.856,0,0,1-1.514-.4,2.714,2.714,0,0,1-1.041-1.163,4.059,4.059,0,0,1-.374-1.813,4.009,4.009,0,0,1,.38-1.814,2.771,2.771,0,0,1,1.047-1.163A2.874,2.874,0,0,1,676.473,763.2Z" fill="#f42f63"/>
    <path id="Trazado_66" data-name="Trazado 66" d="M681.733,769.546a2.8,2.8,0,0,1-1.053-1.17,3.979,3.979,0,0,1-.381-1.8,4.055,4.055,0,0,1,.374-1.794A2.793,2.793,0,0,1,681.7,763.6a2.754,2.754,0,0,1,1.489-.409,2.639,2.639,0,0,1,1.434.384,2.469,2.469,0,0,1,.935,1.085,3.821,3.821,0,0,1,.324,1.612c0,.078,0,.153-.007.228s-.01.14-.018.2h-5.173v-.585h4.9l-.325.247a2.763,2.763,0,0,0-.51-1.9,1.9,1.9,0,0,0-1.571-.7,2.134,2.134,0,0,0-1.184.331,2.178,2.178,0,0,0-.8.975,3.652,3.652,0,0,0-.287,1.5,3.6,3.6,0,0,0,.293,1.5,2.161,2.161,0,0,0,.823.974,2.264,2.264,0,0,0,1.227.331,2.325,2.325,0,0,0,1.235-.318,2.137,2.137,0,0,0,.81-.9l.5.3a2.606,2.606,0,0,1-1.009,1.1,3.095,3.095,0,0,1-3.054-.012Z" fill="#f42f63"/>
    <path id="Trazado_67" data-name="Trazado 67" d="M690.1,769.955a2.659,2.659,0,0,1-2.474-1.567,4.116,4.116,0,0,1-.368-1.813,3.976,3.976,0,0,1,.386-1.833,2.739,2.739,0,0,1,2.518-1.547A2.279,2.279,0,0,1,692.465,765l-.075.065v-4.732h.624v9.49h-.561l-.038-1.807.075-.026a2.4,2.4,0,0,1-.455,1.066,2.208,2.208,0,0,1-.847.669A2.623,2.623,0,0,1,690.1,769.955Zm.074-.573a2,2,0,0,0,1.16-.343,2.265,2.265,0,0,0,.779-.995,3.816,3.816,0,0,0,.28-1.521,3.542,3.542,0,0,0-.28-1.475,2.209,2.209,0,0,0-.773-.95,2,2,0,0,0-1.141-.331,2.082,2.082,0,0,0-1.7.754,3.712,3.712,0,0,0-.006,4.108A2.052,2.052,0,0,0,690.171,769.382Z" fill="#f42f63"/>
    <path id="Trazado_68" data-name="Trazado 68" d="M696.242,769.546a2.807,2.807,0,0,1-1.053-1.17,3.978,3.978,0,0,1-.38-1.8,4.041,4.041,0,0,1,.374-1.794,2.791,2.791,0,0,1,1.028-1.177,2.76,2.76,0,0,1,1.49-.409,2.635,2.635,0,0,1,1.433.384,2.462,2.462,0,0,1,.935,1.085,3.806,3.806,0,0,1,.324,1.612c0,.078,0,.153-.006.228s-.011.14-.019.2H695.2v-.585h4.9l-.324.247a2.769,2.769,0,0,0-.511-1.9,1.9,1.9,0,0,0-1.571-.7,2.134,2.134,0,0,0-1.184.331,2.178,2.178,0,0,0-.8.975,3.669,3.669,0,0,0-.287,1.5,3.6,3.6,0,0,0,.293,1.5,2.173,2.173,0,0,0,.823.974,2.265,2.265,0,0,0,1.228.331,2.323,2.323,0,0,0,1.234-.318,2.124,2.124,0,0,0,.81-.9l.5.3a2.615,2.615,0,0,1-1.01,1.1,3.095,3.095,0,0,1-3.054-.012Z" fill="#f42f63"/>
    <path id="Trazado_69" data-name="Trazado 69" d="M707.086,769.546a2.813,2.813,0,0,1-1.053-1.17,3.978,3.978,0,0,1-.38-1.8,4.041,4.041,0,0,1,.374-1.794,2.791,2.791,0,0,1,1.028-1.177,2.76,2.76,0,0,1,1.49-.409,2.636,2.636,0,0,1,1.433.384,2.463,2.463,0,0,1,.935,1.085,3.806,3.806,0,0,1,.324,1.612c0,.078,0,.153-.006.228s-.011.14-.019.2h-5.173v-.585h4.9l-.324.247a2.769,2.769,0,0,0-.511-1.9,1.9,1.9,0,0,0-1.571-.7,2.137,2.137,0,0,0-1.184.331,2.178,2.178,0,0,0-.8.975,3.669,3.669,0,0,0-.286,1.5,3.588,3.588,0,0,0,.293,1.5,2.165,2.165,0,0,0,.822.974,2.267,2.267,0,0,0,1.228.331,2.321,2.321,0,0,0,1.234-.318,2.124,2.124,0,0,0,.81-.9l.5.3a2.608,2.608,0,0,1-1.01,1.1,3.095,3.095,0,0,1-3.054-.012Z" fill="#f42f63"/>
    <path id="Trazado_70" data-name="Trazado 70" d="M713.593,760.335v7.956a1.357,1.357,0,0,0,.2.844.75.75,0,0,0,.623.247,1.733,1.733,0,0,0,.417-.039,2.316,2.316,0,0,0,.368-.129l-.087.572a1.743,1.743,0,0,1-.368.124,2.13,2.13,0,0,1-.455.045,1.215,1.215,0,0,1-.991-.4,1.918,1.918,0,0,1-.33-1.241v-7.982Z" fill="#f42f63"/>
    <path id="Trazado_71" data-name="Trazado 71" d="M723.054,763.325v.558h-4.2v-.558Zm-2.331-1.807v6.591a1.369,1.369,0,0,0,.28.93,1.031,1.031,0,0,0,.817.318,1.449,1.449,0,0,0,.617-.124,1.478,1.478,0,0,0,.48-.357l.237.533a1.727,1.727,0,0,1-.6.4,2.1,2.1,0,0,1-.811.15,1.88,1.88,0,0,1-.86-.189,1.3,1.3,0,0,1-.579-.578,2.112,2.112,0,0,1-.206-.988v-6.5Z" fill="#f42f63"/>
    <path id="Trazado_72" data-name="Trazado 72" d="M727.766,764.235a1.622,1.622,0,0,0-1.247-.468,2.22,2.22,0,0,0-1.24.331,1.919,1.919,0,0,0-.742,1.047l-.511-.338a2.265,2.265,0,0,1,.923-1.2,2.871,2.871,0,0,1,1.583-.416,2.35,2.35,0,0,1,1.676.578,2.162,2.162,0,0,1,.617,1.658v3.25q0,.688.6.689a1.03,1.03,0,0,0,.449-.091l-.038.519a1.118,1.118,0,0,1-.548.118,1.084,1.084,0,0,1-.792-.3,1.245,1.245,0,0,1-.293-.949v-.287l.162-.078a1.917,1.917,0,0,1-.486.911,2.241,2.241,0,0,1-.86.559,2.966,2.966,0,0,1-1.022.182,2.311,2.311,0,0,1-1.471-.442,1.484,1.484,0,0,1-.561-1.235,1.549,1.549,0,0,1,.461-1.17,2.658,2.658,0,0,1,1.322-.624l2.58-.533v.546l-2.269.467a2.7,2.7,0,0,0-1.1.462.982.982,0,0,0-.355.8,1.028,1.028,0,0,0,.386.852,1.736,1.736,0,0,0,1.1.3,2.567,2.567,0,0,0,1-.2,1.911,1.911,0,0,0,.8-.617,1.641,1.641,0,0,0,.318-1.027v-1.989A1.852,1.852,0,0,0,727.766,764.235Z" fill="#f42f63"/>
    <path id="Trazado_73" data-name="Trazado 73" d="M731.156,769.825v-6.5h.561l.037,1.351a2.205,2.205,0,0,1,.892-1.091,2.522,2.522,0,0,1,1.377-.39,2.438,2.438,0,0,1,1.4.4,2.064,2.064,0,0,1,.816,1.183,2.1,2.1,0,0,1,.524-.852,2.508,2.508,0,0,1,.847-.552,2.689,2.689,0,0,1,1.01-.2,2.6,2.6,0,0,1,1.178.266,2.029,2.029,0,0,1,.847.807,2.608,2.608,0,0,1,.318,1.345v4.212h-.623v-4.147a1.913,1.913,0,0,0-.492-1.437,1.8,1.8,0,0,0-1.3-.474,2.126,2.126,0,0,0-1.876,1.111,2.464,2.464,0,0,0-.293,1.216v3.744h-.623v-4.148a1.9,1.9,0,0,0-.5-1.436,1.8,1.8,0,0,0-1.3-.474,2.1,2.1,0,0,0-1.06.285,2.214,2.214,0,0,0-.81.82,2.478,2.478,0,0,0-.312,1.274v3.679Z" fill="#f42f63"/>
    <path id="Trazado_74" data-name="Trazado 74" d="M746.5,764.235a1.622,1.622,0,0,0-1.247-.468,2.22,2.22,0,0,0-1.24.331,1.919,1.919,0,0,0-.742,1.047l-.511-.338a2.265,2.265,0,0,1,.923-1.2,2.871,2.871,0,0,1,1.583-.416,2.35,2.35,0,0,1,1.676.578,2.162,2.162,0,0,1,.617,1.658v3.25q0,.688.6.689a1.026,1.026,0,0,0,.448-.091l-.037.519a1.118,1.118,0,0,1-.548.118,1.084,1.084,0,0,1-.792-.3,1.245,1.245,0,0,1-.293-.949v-.287l.162-.078a1.917,1.917,0,0,1-.486.911,2.24,2.24,0,0,1-.86.559,2.969,2.969,0,0,1-1.022.182,2.311,2.311,0,0,1-1.471-.442,1.484,1.484,0,0,1-.561-1.235,1.549,1.549,0,0,1,.461-1.17,2.658,2.658,0,0,1,1.321-.624l2.581-.533v.546l-2.269.467a2.7,2.7,0,0,0-1.1.462.982.982,0,0,0-.355.8,1.026,1.026,0,0,0,.386.852,1.736,1.736,0,0,0,1.1.3,2.567,2.567,0,0,0,1-.2,1.912,1.912,0,0,0,.8-.617,1.642,1.642,0,0,0,.318-1.027v-1.989A1.852,1.852,0,0,0,746.5,764.235Z" fill="#f42f63"/>
    <path id="Trazado_75" data-name="Trazado 75" d="M749.891,769.825v-6.5h.561l.05,1.625-.1-.091a2.425,2.425,0,0,1,.523-.91,2.232,2.232,0,0,1,.835-.566,2.873,2.873,0,0,1,1.048-.188,2.7,2.7,0,0,1,1.234.272,2.012,2.012,0,0,1,.841.807,2.671,2.671,0,0,1,.306,1.339v4.212h-.624v-4a2.1,2.1,0,0,0-.505-1.561,1.8,1.8,0,0,0-1.315-.493,2.213,2.213,0,0,0-1.091.28,2.184,2.184,0,0,0-.822.812,2.493,2.493,0,0,0-.318,1.3v3.666Zm4.824-9.113a2.441,2.441,0,0,1-.206.793,1.174,1.174,0,0,1-.4.488,1.1,1.1,0,0,1-.611.162,1.137,1.137,0,0,1-.574-.137,2.357,2.357,0,0,1-.423-.311,4.326,4.326,0,0,0-.368-.313.656.656,0,0,0-.4-.137.564.564,0,0,0-.492.242,1.784,1.784,0,0,0-.256.669h-.5a1.888,1.888,0,0,1,.392-1.085,1.1,1.1,0,0,1,.866-.358,1.08,1.08,0,0,1,.549.136,2.513,2.513,0,0,1,.424.306c.125.113.247.214.368.3a.654.654,0,0,0,.405.137.567.567,0,0,0,.492-.234,1.621,1.621,0,0,0,.243-.663Z" fill="#f42f63"/>
    <path id="Trazado_76" data-name="Trazado 76" d="M759.888,763.2a2.925,2.925,0,0,1,1.539.4,2.764,2.764,0,0,1,1.047,1.163,4.507,4.507,0,0,1,0,3.627,2.753,2.753,0,0,1-1.047,1.163,3.135,3.135,0,0,1-3.079,0,2.759,2.759,0,0,1-1.047-1.163,4.517,4.517,0,0,1,0-3.627,2.771,2.771,0,0,1,1.047-1.163A2.926,2.926,0,0,1,759.888,763.2Zm0,.559a2.142,2.142,0,0,0-2.051,1.306,4.046,4.046,0,0,0,0,3.023,2.234,2.234,0,0,0,4.1,0,4.045,4.045,0,0,0,0-3.023,2.139,2.139,0,0,0-2.05-1.306Z" fill="#f42f63"/>
    <path id="Trazado_77" data-name="Trazado 77" d="M768.538,772.555v-9.23h.561l.05,1.806-.087-.1a2.7,2.7,0,0,1,.5-.976,2.272,2.272,0,0,1,.842-.636,2.76,2.76,0,0,1,2.518.182,2.816,2.816,0,0,1,1.01,1.157,4.6,4.6,0,0,1,0,3.633,2.776,2.776,0,0,1-1.017,1.163,2.661,2.661,0,0,1-1.452.4,2.426,2.426,0,0,1-1.495-.475,2.459,2.459,0,0,1-.886-1.28l.075-.117v4.472Zm2.855-3.173a2.052,2.052,0,0,0,1.676-.753,3.743,3.743,0,0,0,.006-4.108,2.178,2.178,0,0,0-2.823-.41,2.343,2.343,0,0,0-.8.976,3.5,3.5,0,0,0-.293,1.488,3.585,3.585,0,0,0,.287,1.482,2.3,2.3,0,0,0,.792.982A2,2,0,0,0,771.393,769.382Z" fill="#f42f63"/>
    <path id="Trazado_78" data-name="Trazado 78" d="M777.114,769.546a2.814,2.814,0,0,1-1.053-1.17,3.979,3.979,0,0,1-.38-1.8,4.041,4.041,0,0,1,.374-1.794,2.791,2.791,0,0,1,1.028-1.177,2.76,2.76,0,0,1,1.49-.409,2.636,2.636,0,0,1,1.433.384,2.462,2.462,0,0,1,.935,1.085,3.806,3.806,0,0,1,.324,1.612c0,.078,0,.153-.006.228s-.011.14-.019.2h-5.173v-.585h4.9l-.324.247a2.769,2.769,0,0,0-.511-1.9,1.9,1.9,0,0,0-1.571-.7,2.134,2.134,0,0,0-1.184.331,2.178,2.178,0,0,0-.8.975,3.669,3.669,0,0,0-.286,1.5,3.588,3.588,0,0,0,.293,1.5,2.165,2.165,0,0,0,.822.974,2.265,2.265,0,0,0,1.228.331,2.324,2.324,0,0,0,1.234-.318,2.124,2.124,0,0,0,.81-.9l.5.3a2.614,2.614,0,0,1-1.01,1.1,3.095,3.095,0,0,1-3.054-.012Z" fill="#f42f63"/>
    <path id="Trazado_79" data-name="Trazado 79" d="M783.047,769.825v-6.5h.524l.075,1.351a2.268,2.268,0,0,1,.76-1.078,2.007,2.007,0,0,1,1.259-.4,1.816,1.816,0,0,1,.449.052.832.832,0,0,1,.336.169l-.149.572a1.272,1.272,0,0,0-.3-.144,1.735,1.735,0,0,0-.486-.051,1.513,1.513,0,0,0-.9.3,2.2,2.2,0,0,0-.685.845,2.8,2.8,0,0,0-.263,1.242v3.64Z" fill="#f42f63"/>
    <path id="Trazado_80" data-name="Trazado 80" d="M787.759,769.825v-6.5h.561l.037,1.351a2.2,2.2,0,0,1,.892-1.091,2.522,2.522,0,0,1,1.377-.39,2.437,2.437,0,0,1,1.4.4,2.06,2.06,0,0,1,.817,1.183,2.107,2.107,0,0,1,.523-.852,2.523,2.523,0,0,1,.848-.552,2.689,2.689,0,0,1,1.01-.2,2.591,2.591,0,0,1,1.177.266,2.037,2.037,0,0,1,.848.807,2.607,2.607,0,0,1,.318,1.345v4.212h-.624v-4.147a1.913,1.913,0,0,0-.492-1.437,1.8,1.8,0,0,0-1.3-.474,2.1,2.1,0,0,0-1.084.293,2.127,2.127,0,0,0-.792.818,2.464,2.464,0,0,0-.293,1.216v3.744h-.623v-4.148a1.9,1.9,0,0,0-.5-1.436,1.805,1.805,0,0,0-1.3-.474,2.1,2.1,0,0,0-1.06.285,2.2,2.2,0,0,0-.81.82,2.478,2.478,0,0,0-.312,1.274v3.679Z" fill="#f42f63"/>
    <path id="Trazado_81" data-name="Trazado 81" d="M800.037,762.064a.5.5,0,0,1-.38-.149.554.554,0,0,1-.143-.4.548.548,0,0,1,.143-.4.558.558,0,0,1,.761,0,.548.548,0,0,1,.143.4.554.554,0,0,1-.143.4A.507.507,0,0,1,800.037,762.064Zm.312,1.261v6.5h-.623v-6.5Z" fill="#f42f63"/>
    <path id="Trazado_82" data-name="Trazado 82" d="M805.945,763.325v.558h-4.2v-.558Zm-2.331-1.807v6.591a1.369,1.369,0,0,0,.281.93,1.03,1.03,0,0,0,.816.318,1.449,1.449,0,0,0,.617-.124,1.468,1.468,0,0,0,.48-.357l.237.533a1.717,1.717,0,0,1-.6.4,2.1,2.1,0,0,1-.811.15,1.88,1.88,0,0,1-.86-.189,1.309,1.309,0,0,1-.579-.578,2.112,2.112,0,0,1-.206-.988v-6.5Z" fill="#f42f63"/>
    <path id="Trazado_83" data-name="Trazado 83" d="M807.591,762.064a.5.5,0,0,1-.38-.149.55.55,0,0,1-.144-.4.545.545,0,0,1,.144-.4.556.556,0,0,1,.76,0,.548.548,0,0,1,.143.4.554.554,0,0,1-.143.4A.5.5,0,0,1,807.591,762.064Zm.311,1.261v6.5h-.623v-6.5Z" fill="#f42f63"/>
    <path id="Trazado_84" data-name="Trazado 84" d="M812.564,769.955a2.662,2.662,0,0,1-2.474-1.567,4.115,4.115,0,0,1-.368-1.813,3.989,3.989,0,0,1,.386-1.833,2.74,2.74,0,0,1,2.519-1.547,2.277,2.277,0,0,1,2.3,1.807l-.075.065v-4.732h.624v9.49h-.561l-.038-1.807.076-.026a2.413,2.413,0,0,1-.456,1.066,2.208,2.208,0,0,1-.847.669A2.62,2.62,0,0,1,812.564,769.955Zm.075-.573a1.994,1.994,0,0,0,1.159-.343,2.265,2.265,0,0,0,.779-.995,3.817,3.817,0,0,0,.28-1.521,3.543,3.543,0,0,0-.28-1.475,2.209,2.209,0,0,0-.773-.95,2,2,0,0,0-1.14-.331,2.084,2.084,0,0,0-1.7.754,3.712,3.712,0,0,0-.006,4.108A2.054,2.054,0,0,0,812.639,769.382Z" fill="#f42f63"/>
    <path id="Trazado_85" data-name="Trazado 85" d="M820.243,763.2a2.925,2.925,0,0,1,1.539.4,2.764,2.764,0,0,1,1.047,1.163,4.506,4.506,0,0,1,0,3.627,2.753,2.753,0,0,1-1.047,1.163,3.135,3.135,0,0,1-3.079,0,2.759,2.759,0,0,1-1.047-1.163,4.517,4.517,0,0,1,0-3.627A2.771,2.771,0,0,1,818.7,763.6,2.926,2.926,0,0,1,820.243,763.2Zm0,.559a2.141,2.141,0,0,0-2.051,1.306,4.045,4.045,0,0,0,0,3.023,2.234,2.234,0,0,0,4.1,0,4.046,4.046,0,0,0,0-3.023,2.139,2.139,0,0,0-2.05-1.306Z" fill="#f42f63"/>
  </g>
  <g id="Grupo_18" data-name="Grupo 18" transform="translate(-458.301 -757.99)">
    <g id="Grupo_16" data-name="Grupo 16">
      <circle id="Elipse_13" data-name="Elipse 13" cx="6.977" cy="6.977" r="6.977" transform="translate(458.954 758.643)" fill="#fdfeff"/>
      <path id="Trazado_86" data-name="Trazado 86" d="M465.931,773.25a7.63,7.63,0,1,1,7.63-7.63A7.639,7.639,0,0,1,465.931,773.25Zm0-13.954a6.324,6.324,0,1,0,6.325,6.324A6.331,6.331,0,0,0,465.931,759.3Z" fill="#f42f63"/>
    </g>
    <g id="Grupo_17" data-name="Grupo 17">
      <path id="Trazado_87" data-name="Trazado 87" d="M467.011,764.746v5.4a4.411,4.411,0,0,1-1.364,0V765.3a.831.831,0,0,0-.133-.529.556.556,0,0,0-.45-.159h-.146a2.289,2.289,0,0,1-.066-.49,2.461,2.461,0,0,1,.066-.5,6.831,6.831,0,0,1,.835-.053h.185a1.007,1.007,0,0,1,.788.317A1.243,1.243,0,0,1,467.011,764.746Zm-1.656-2.37a1.3,1.3,0,0,1-.119-.583q0-.543.2-.642a1.707,1.707,0,0,1,.662-.113,1.261,1.261,0,0,1,.675.133c.1.079.15.287.159.622a.9.9,0,0,1-.159.609,1.152,1.152,0,0,1-.675.146A1.239,1.239,0,0,1,465.355,762.376Z" fill="#f42f63"/>
    </g>
  </g>
</svg>
