<svg xmlns="http://www.w3.org/2000/svg" width="23.147" height="21.803" viewBox="0 0 23.147 21.803">
  <g id="seleccionar_opcion" data-name="seleccionar opcion" transform="translate(0.25 0.083)">
    <circle id="Elipse_26" data-name="Elipse 26" cx="10.652" cy="10.652" r="10.652" transform="translate(0 0.167)" fill="#fff" stroke="#36c" stroke-miterlimit="10" stroke-width="0.5"/>
    <path id="Trazado_32" data-name="Trazado 32" d="M368.767,1261.461a1.857,1.857,0,0,0-2.478.649q-4.285,5.571-8.57,11.141a22.575,22.575,0,0,1-3.015-3.9c-1.21-1.989-4.344-.17-3.128,1.829a26.265,26.265,0,0,0,5.051,6.056,1.851,1.851,0,0,0,2.845-.367l9.945-12.928A1.822,1.822,0,0,0,368.767,1261.461Z" transform="translate(-346.788 -1261.213)" fill="#36c"/>
  </g>
</svg>
