<svg id="tipos_de_eventos" data-name="tipos de eventos" xmlns="http://www.w3.org/2000/svg" width="24.078" height="26.004" viewBox="0 0 24.078 26.004">
  <line id="Línea_1" data-name="Línea 1" x2="22.346" transform="translate(0.866 7.526)" fill="none" stroke="#36c" stroke-miterlimit="10" stroke-width="1"/>
  <g id="Grupo_5" data-name="Grupo 5" transform="translate(-1321.961 -1386.436)">
    <g id="Grupo_4" data-name="Grupo 4">
      <g id="Grupo_3" data-name="Grupo 3">
        <path id="Trazado_1" data-name="Trazado 1" d="M1341.823,1412.44h-15.646a4.221,4.221,0,0,1-4.216-4.215v-15.646a4.221,4.221,0,0,1,4.216-4.217h15.646a4.222,4.222,0,0,1,4.216,4.217v15.646A4.221,4.221,0,0,1,1341.823,1412.44Zm-15.646-22.668a2.81,2.81,0,0,0-2.806,2.807v15.646a2.809,2.809,0,0,0,2.806,2.805h15.646a2.809,2.809,0,0,0,2.806-2.805v-15.646a2.81,2.81,0,0,0-2.806-2.807Z" fill="#36c"/>
        <g id="Grupo_1" data-name="Grupo 1">
          <line id="Línea_2" data-name="Línea 2" y2="3.901" transform="translate(1328.45 1387.521)" fill="#36c"/>
          <path id="Trazado_2" data-name="Trazado 2" d="M1328.45,1392.506a1.084,1.084,0,0,1-1.084-1.085v-3.9a1.084,1.084,0,0,1,2.168,0v3.9A1.084,1.084,0,0,1,1328.45,1392.506Z" fill="#36c"/>
        </g>
        <g id="Grupo_2" data-name="Grupo 2">
          <line id="Línea_3" data-name="Línea 3" y2="3.901" transform="translate(1340.231 1387.521)" fill="#36c"/>
          <path id="Trazado_3" data-name="Trazado 3" d="M1340.231,1392.506a1.084,1.084,0,0,1-1.084-1.085v-3.9a1.084,1.084,0,0,1,2.168,0v3.9A1.084,1.084,0,0,1,1340.231,1392.506Z" fill="#36c"/>
        </g>
      </g>
    </g>
  </g>
  <g id="Grupo_7" data-name="Grupo 7" transform="translate(-1321.961 -1386.436)">
    <circle id="Elipse_1" data-name="Elipse 1" cx="6.278" cy="6.278" r="6.278" transform="translate(1327.704 1396.265)" fill="#36c"/>
    <g id="Grupo_6" data-name="Grupo 6">
      <path id="Trazado_4" data-name="Trazado 4" d="M1332.095,1400.758a2.136,2.136,0,0,1,.181-.85,2.251,2.251,0,0,1,.473-.691,2.217,2.217,0,0,1,.692-.465,2.1,2.1,0,0,1,.848-.17,2.139,2.139,0,0,1,.858.172,2.219,2.219,0,0,1,1.174,1.177,2.147,2.147,0,0,1,.173.861,2.056,2.056,0,0,1-.176.848,2.194,2.194,0,0,1-.476.686,2.228,2.228,0,0,1-1.565.627h-.176v.834a.362.362,0,0,1-.1.26.331.331,0,0,1-.249.108.35.35,0,0,1-.258-.108.36.36,0,0,1-.1-.26V1402.6a.348.348,0,0,1,.107-.258.357.357,0,0,1,.256-.1h.544a1.506,1.506,0,0,0,1.052-.422,1.473,1.473,0,0,0,.317-.459,1.377,1.377,0,0,0,.116-.565,1.512,1.512,0,0,0-.113-.586,1.444,1.444,0,0,0-.315-.476,1.492,1.492,0,0,0-2.092-.017,1.529,1.529,0,0,0-.323.465,1.476,1.476,0,0,0-.127.586v.028a.375.375,0,0,1-.1.261.324.324,0,0,1-.247.108.355.355,0,0,1-.264-.108.358.358,0,0,1-.1-.261Zm1.23,4.774a.417.417,0,0,1,.419-.425.415.415,0,0,1,.3.122.411.411,0,0,1,.125.3.389.389,0,0,1-.034.159.5.5,0,0,1-.091.133.4.4,0,0,1-.137.094.419.419,0,0,1-.164.034.4.4,0,0,1-.294-.128.462.462,0,0,1-.091-.133A.374.374,0,0,1,1333.325,1405.532Z" fill="#fff"/>
    </g>
  </g>
</svg>
