<svg xmlns="http://www.w3.org/2000/svg" viewBox="0 0 17.26 9.8"><defs><style>.cls-1{fill:#fff;}</style></defs><g id="Capa_2" data-name="Capa 2"><g id="Capa_1-2" data-name="Capa 1"><g id="vTg6Ha"><path class="cls-1" d="M8.43,9.8A11.52,11.52,0,0,1,.13,5.17a.38.38,0,0,1,0-.56A11.26,11.26,0,0,1,8.23,0a8.48,8.48,0,0,1,4.09.79,12.52,12.52,0,0,1,4.79,3.74.45.45,0,0,1,0,.67A11.69,11.69,0,0,1,10,9.65C9.47,9.75,8.9,9.76,8.43,9.8ZM1.25,4.86c4.42,5.2,10.51,5.06,14.76,0a11.37,11.37,0,0,0-4.86-3.39c1.16,1.89,1,3.49-.26,4.72a3.34,3.34,0,0,1-4.17.28,3.21,3.21,0,0,1-1.3-3.41,3.13,3.13,0,0,0,.36.19,1.11,1.11,0,0,0,1.33-.42A1,1,0,0,0,7,1.48a.57.57,0,0,0-.42-.14A11.06,11.06,0,0,0,1.25,4.86Z"/></g></g></g></svg>