<svg xmlns="http://www.w3.org/2000/svg" viewBox="0 0 9.09 13.78"><defs><style>.cls-1{fill:#fff;}</style></defs><g id="Capa_2" data-name="Capa 2"><g id="Capa_1-2" data-name="Capa 1"><path class="cls-1" d="M8.34.2a1.69,1.69,0,0,0-1.63,0A7.34,7.34,0,0,0,5,2.1L.48,9.75,0,13.06a.63.63,0,0,0,.27.64.59.59,0,0,0,.45.06A.64.64,0,0,0,1,13.64L3.89,11.4,8.33,4l.08-.13h0a6.69,6.69,0,0,0,.71-2.2A1.71,1.71,0,0,0,8.34.2ZM2.69,11.54.71,13l.34-2.44ZM5.74,2.17A2.75,2.75,0,0,1,7.22.78.93.93,0,0,1,8,.83c.57.34.55,1.46,0,2.45l-.1.14ZM7.4,4l-4,6.69-2-1.19,4-6.69Z"/></g></g></svg>