<svg xmlns="http://www.w3.org/2000/svg" width="26.888" height="29.794" viewBox="0 0 26.888 29.794"><g transform="translate(0.25 0.702)"><g transform="translate(-105.423 -238.306)"><path d="M124.341,238.418l-14.08-.112a2.621,2.621,0,0,0-2.642,2.624l.022,23.113a2.622,2.622,0,0,0,2.612,2.619l16.667.057a2.621,2.621,0,0,0,2.63-2.612l.066-20.452" fill="none" stroke="#36c" stroke-linecap="round" stroke-linejoin="round" stroke-width="1.356"/><path d="M124.618,238.562l5,5h-5.01v-5" fill="none" stroke="#36c" stroke-linecap="round" stroke-linejoin="round" stroke-width="1.356"/></g><rect width="26.388" height="8.627" rx="2.159" transform="translate(0 15.746)" fill="#e6effd" stroke="#36c" stroke-miterlimit="10" stroke-width="0.5"/><text transform="translate(13.194 23.479)" fill="#36c" font-size="10.382" font-family="AntipastoPro, Antipasto Pro"><tspan x="-6.473" y="0">ZIP</tspan></text><g transform="translate(-105.423 -238.306)"><rect width="1.583" height="0.775" transform="translate(117.223 241.63)" fill="#36c"/><rect width="1.583" height="0.775" transform="translate(118.752 242.386)" fill="#36c"/><rect width="1.583" height="0.775" transform="translate(117.168 243.173)" fill="#36c"/><rect width="1.583" height="0.775" transform="translate(118.752 243.948)" fill="#36c"/><rect width="1.583" height="0.775" transform="translate(117.168 244.736)" fill="#36c"/><rect width="1.583" height="0.775" transform="translate(118.752 245.482)" fill="#36c"/><rect width="1.583" height="0.775" transform="translate(117.168 246.27)" fill="#36c"/><rect width="1.583" height="0.775" transform="translate(118.752 247.044)" fill="#36c"/><rect width="1.583" height="0.775" transform="translate(117.168 247.832)" fill="#36c"/><rect width="1.583" height="0.775" transform="translate(118.752 248.588)" fill="#36c"/><rect width="1.583" height="0.775" transform="translate(117.168 249.375)" fill="#36c"/><rect width="1.583" height="0.775" transform="translate(118.752 250.15)" fill="#36c"/><rect width="1.583" height="0.775" transform="translate(117.168 250.937)" fill="#36c"/><path d="M118.609,241.557a13.169,13.169,0,0,0-.91,1.129c-.272.393-.874,1-.328,1.423a1.586,1.586,0,0,0,.653.327.508.508,0,0,0,.609-.425c.187-.9.57-2.106.57-2.106l-.6-.354" fill="#f2f2f2" stroke="#36c" stroke-linecap="round" stroke-linejoin="round" stroke-width="0.5"/><line x2="0.767" y2="0.407" transform="translate(118.117 242.326)" fill="#f2f2f2" stroke="#36c" stroke-linecap="round" stroke-linejoin="round" stroke-width="0.5"/></g></g></svg>