<svg xmlns="http://www.w3.org/2000/svg" width="17.659" height="18.288" viewBox="0 0 17.659 18.288">
  <g id="vinculo" transform="translate(0.908)">
    <g id="Grupo_9" data-name="Grupo 9" transform="translate(-1864.016 -1187.087)">
      <g id="Grupo_8" data-name="Grupo 8">
        <path id="Trazado_7" data-name="Trazado 7" d="M1871.938,1201.807l-1.753,1.754a3.1,3.1,0,0,1-4.384,0l-.877-.877a3.1,3.1,0,0,1,0-4.384l3.069-3.069a3.1,3.1,0,0,1,4.384,0h0" fill="none" stroke="#36c" stroke-linecap="round" stroke-miterlimit="10" stroke-width="1.356"/>
        <path id="Trazado_8" data-name="Trazado 8" d="M1871.516,1192.585l2.176-2.176a3.1,3.1,0,0,1,4.384,0l.877.877a3.1,3.1,0,0,1,0,4.384l-3.069,3.068a3.1,3.1,0,0,1-4.384,0h0" fill="none" stroke="#36c" stroke-linecap="round" stroke-miterlimit="10" stroke-width="1.356"/>
      </g>
    </g>
    <rect id="Rect치ngulo_1" data-name="Rect치ngulo 1" width="1.203" height="5.122" rx="0.602" transform="matrix(0.605, -0.796, 0.796, 0.605, 0.388, 3.064)" fill="#36c"/>
    <rect id="Rect치ngulo_2" data-name="Rect치ngulo 2" width="1.203" height="5.122" rx="0.602" transform="translate(3.104 0.516) rotate(-25.399)" fill="#36c"/>
  </g>
</svg>
