<svg id="oito_azulj" data-name="oito azulj" xmlns="http://www.w3.org/2000/svg" width="19.375" height="10.998" viewBox="0 0 19.375 10.998">
  <g id="Grupo_12" data-name="Grupo 12" transform="translate(-484.67 -592.094)">
    <path id="Trazado_29" data-name="Trazado 29" d="M494.136,603.092a12.941,12.941,0,0,1-9.325-5.193.431.431,0,0,1-.007-.631c2.364-2.905,5.26-4.879,9.1-5.153A9.494,9.494,0,0,1,498.5,593a14.137,14.137,0,0,1,5.371,4.2.505.505,0,0,1,.007.753,13.132,13.132,0,0,1-7.964,4.975C495.3,603.038,494.657,603.046,494.136,603.092Zm-8.066-5.544c4.962,5.838,11.8,5.679,16.572,0a12.846,12.846,0,0,0-5.453-3.813c1.293,2.123,1.172,3.923-.29,5.3a3.76,3.76,0,0,1-4.69.313,3.59,3.59,0,0,1-1.452-3.821,3.971,3.971,0,0,0,.4.21,1.257,1.257,0,0,0,1.493-.477,1.175,1.175,0,0,0-.124-1.508.6.6,0,0,0-.474-.157A12.429,12.429,0,0,0,486.07,597.548Z" fill="#36c"/>
  </g>
</svg>
