<svg id="tema" xmlns="http://www.w3.org/2000/svg" width="21.22" height="16.715" viewBox="0 0 21.22 16.715">
  <path id="Trazado_34" data-name="Trazado 34" d="M373.015,992.119H357.984a2.474,2.474,0,0,1-2.471-2.472V978.769a2.294,2.294,0,0,1,2.292-2.292H360.1a2.287,2.287,0,0,1,2.184,1.6l.259.812,10.475-.007a2.475,2.475,0,0,1,2.472,2.471v8.3A2.474,2.474,0,0,1,373.015,992.119ZM357.8,977.557a1.214,1.214,0,0,0-1.212,1.212v10.878a1.393,1.393,0,0,0,1.391,1.392h15.031a1.394,1.394,0,0,0,1.392-1.392v-8.3a1.393,1.393,0,0,0-1.392-1.391H362.53a1.067,1.067,0,0,1-1.019-.744l-.26-.812a1.208,1.208,0,0,0-1.154-.845Z" transform="translate(-354.267 -976.477)" fill="#36c"/>
  <path id="Trazado_35" data-name="Trazado 35" d="M371.541,981.634H360.863a.536.536,0,0,1-.514-.35l-.264-.773a1.777,1.777,0,0,0-1.7-1.158h-2.334a1.727,1.727,0,0,0-1.784,1.665v10.338a1.905,1.905,0,0,0,1.967,1.836h15.307a1.9,1.9,0,0,0,1.966-1.836V983.47A1.9,1.9,0,0,0,371.541,981.634Z" transform="translate(-354.267 -976.477)" fill="#36c"/>
</svg>
