<svg xmlns="http://www.w3.org/2000/svg" width="19.943" height="19.943" viewBox="0 0 19.943 19.943"><g transform="translate(0.75 0.75)"><g transform="translate(-859.924 -401.327)"><rect width="18.443" height="18.443" rx="2.857" transform="translate(859.924 401.327)" fill="none" stroke="#36c" stroke-miterlimit="10" stroke-width="1.5"/><path d="M876.386,418.632l-2.757-4.406a1.434,1.434,0,0,0-2.432,0l-.294.47a.516.516,0,0,1-.906-.057l-1.819-3.939a1.386,1.386,0,0,0-2.517,0l-4.027,8.723a.169.169,0,0,0,.154.24h13.7C876.211,419.663,876.687,419.114,876.386,418.632Z" fill="#36c"/><circle cx="2.732" cy="2.732" r="2.732" transform="translate(870.129 403.831)" fill="none" stroke="#36c" stroke-miterlimit="10" stroke-width="1"/></g></g></svg>