<svg id="carrusel" xmlns="http://www.w3.org/2000/svg" width="19.721" height="14.739" viewBox="0 0 19.721 14.739">
  <g id="Grupo_36" data-name="Grupo 36" transform="translate(-1041.627 -302.703)">
    <g id="Grupo_35" data-name="Grupo 35">
      <path id="Trazado_72" data-name="Trazado 72" d="M1056.017,317.442h-9.138a2.8,2.8,0,0,1-2.8-2.8V305.5a2.8,2.8,0,0,1,2.8-2.8h9.138a2.8,2.8,0,0,1,2.8,2.8v9.138A2.8,2.8,0,0,1,1056.017,317.442Zm-9.138-13.239a1.3,1.3,0,0,0-1.3,1.3v9.138a1.3,1.3,0,0,0,1.3,1.3h9.138a1.3,1.3,0,0,0,1.3-1.3V305.5a1.3,1.3,0,0,0-1.3-1.3Z" fill="#36c"/>
      <path id="Trazado_73" data-name="Trazado 73" d="M1056.646,315.682l-1.979-3.163a1.03,1.03,0,0,0-1.746,0l-.211.338a.371.371,0,0,1-.651-.041l-1.3-2.828a1,1,0,0,0-1.807,0l-2.89,6.262a.121.121,0,0,0,.11.172H1056C1056.52,316.422,1056.862,316.028,1056.646,315.682Z" fill="#36c"/>
      <circle id="Elipse_24" data-name="Elipse 24" cx="1.961" cy="1.961" r="1.961" transform="translate(1052.154 305.251)" fill="#36c"/>
    </g>
    <path id="Trazado_74" data-name="Trazado 74" d="M1059.868,312.342a.5.5,0,0,1-.407-.79l.836-1.17a.269.269,0,0,0-.012-.329l-.8-.96a.5.5,0,1,1,.767-.64l.8.96a1.269,1.269,0,0,1,.059,1.55l-.836,1.17A.5.5,0,0,1,1059.868,312.342Z" fill="#36c"/>
    <path id="Trazado_76" data-name="Trazado 76" d="M1043.1,312.342a.5.5,0,0,1-.407-.209l-.835-1.17a1.267,1.267,0,0,1,.058-1.549l.8-.961a.5.5,0,1,1,.768.64l-.8.96a.27.27,0,0,0-.012.329l.835,1.17a.5.5,0,0,1-.407.79Z" fill="#36c"/>
  </g>
</svg>
