<svg xmlns="http://www.w3.org/2000/svg" viewBox="0 0 12.06 13.97"><defs><style>.cls-1{fill:#fff;}</style></defs><g id="Capa_2" data-name="Capa 2"><g id="Capa_1-2" data-name="Capa 1"><path class="cls-1" d="M9,14H3.15A2.16,2.16,0,0,1,1,11.81V4.74a.5.5,0,1,1,1,0v7.07A1.17,1.17,0,0,0,3.15,13H9a1.36,1.36,0,0,0,1.36-1.36V4.82a.5.5,0,0,1,1,0v6.8A2.35,2.35,0,0,1,9,14Z"/><path class="cls-1" d="M10.33,5.29H1.74a1.74,1.74,0,0,1,0-3.48h8.59a1.74,1.74,0,0,1,0,3.48ZM1.74,2.8a.75.75,0,0,0,0,1.5h8.59a.75.75,0,0,0,0-1.5Z"/><path class="cls-1" d="M3.75,12.64a.49.49,0,0,1-.49-.5v-5a.5.5,0,1,1,1,0v5A.5.5,0,0,1,3.75,12.64Z"/><path class="cls-1" d="M6,12.64a.49.49,0,0,1-.49-.5v-5a.5.5,0,1,1,1,0v5A.5.5,0,0,1,6,12.64Z"/><path class="cls-1" d="M8.55,12.64a.5.5,0,0,1-.5-.5v-5a.5.5,0,1,1,1,0v5A.49.49,0,0,1,8.55,12.64Z"/><path class="cls-1" d="M7.94,2.71a.49.49,0,0,1-.49-.5C7.44,2,7.35,1,5.84,1A1.16,1.16,0,0,0,4.62,2.22a.51.51,0,0,1-.5.49h0a.5.5,0,0,1-.49-.5A2.15,2.15,0,0,1,5.84,0a2.32,2.32,0,0,1,2.6,2.21A.5.5,0,0,1,7.94,2.71Z"/></g></g></svg>