<svg xmlns="http://www.w3.org/2000/svg" width="26.888" height="29.794" viewBox="0 0 26.888 29.794">
  <g id="avi" transform="translate(0.25 0.703)">
    <g id="Grupo_62" data-name="Grupo 62" transform="translate(-47.299 -388.731)">
      <path id="Trazado_125" data-name="Trazado 125" d="M66.217,388.843l-14.081-.112a2.621,2.621,0,0,0-2.642,2.624l.022,23.112a2.621,2.621,0,0,0,2.612,2.619l16.667.058a2.621,2.621,0,0,0,2.63-2.613l.067-20.451" fill="none" stroke="#36c" stroke-linecap="round" stroke-linejoin="round" stroke-width="1.356"/>
      <path id="Trazado_126" data-name="Trazado 126" d="M66.493,388.987l5,5h-5.01v-5" fill="none" stroke="#36c" stroke-linecap="round" stroke-linejoin="round" stroke-width="1.356"/>
    </g>
    <rect id="Rectángulo_40" data-name="Rectángulo 40" width="26.388" height="8.627" rx="2.159" transform="translate(0 15.745)" fill="#e6effd" stroke="#36c" stroke-miterlimit="10" stroke-width="0.5"/>
    <text id="AVI-2" data-name="AVI" transform="translate(13.194 23.479)" fill="#36c" font-size="10.382" font-family="AntipastoPro, Antipasto Pro"><tspan x="-6.541" y="0">AVI</tspan></text>
    <g id="Grupo_63" data-name="Grupo 63" transform="translate(-47.299 -388.731)">
      <rect id="Rectángulo_41" data-name="Rectángulo 41" width="9.294" height="7.057" rx="1.036" transform="translate(55.846 395.289)" fill="#fff" stroke="#36c" stroke-miterlimit="10" stroke-width="0.5"/>
      <line id="Línea_29" data-name="Línea 29" x2="9.139" transform="translate(56.001 397.05)" fill="#f2f2f2" stroke="#36c" stroke-miterlimit="10" stroke-width="0.5"/>
      <path id="Trazado_127" data-name="Trazado 127" d="M59.1,398.343V401.3l2.936-1.481L59.1,398.343" fill="#36c"/>
      <line id="Línea_30" data-name="Línea 30" x2="1.455" y2="1.907" transform="translate(57.102 395.143)" fill="#f2f2f2" stroke="#36c" stroke-miterlimit="10" stroke-width="0.5"/>
      <line id="Línea_31" data-name="Línea 31" x2="1.455" y2="1.907" transform="translate(59.064 395.143)" fill="#f2f2f2" stroke="#36c" stroke-miterlimit="10" stroke-width="0.5"/>
      <line id="Línea_32" data-name="Línea 32" x2="1.455" y2="1.907" transform="translate(60.841 395.143)" fill="#f2f2f2" stroke="#36c" stroke-miterlimit="10" stroke-width="0.5"/>
      <line id="Línea_33" data-name="Línea 33" x2="1.455" y2="1.907" transform="translate(62.587 395.143)" fill="#f2f2f2" stroke="#36c" stroke-miterlimit="10" stroke-width="0.5"/>
    </g>
  </g>
</svg>
