<svg id="preguntas_frecuentes_gris" data-name="preguntas frecuentes gris" xmlns="http://www.w3.org/2000/svg" width="21.687" height="21.687" viewBox="0 0 21.687 21.687">
  <path id="Trazado_39" data-name="Trazado 39" d="M1734.178,727.726h-14.072a3.813,3.813,0,0,1-3.808-3.808V709.847a3.813,3.813,0,0,1,3.808-3.808h14.072a3.812,3.812,0,0,1,3.807,3.808v14.071A3.812,3.812,0,0,1,1734.178,727.726Zm-14.072-20.386a2.51,2.51,0,0,0-2.507,2.507v14.071a2.51,2.51,0,0,0,2.507,2.507h14.072a2.509,2.509,0,0,0,2.507-2.507V709.847a2.509,2.509,0,0,0-2.507-2.507Z" transform="translate(-1716.298 -706.039)" fill="#606060"/>
  <g id="Grupo_11" data-name="Grupo 11" transform="translate(-1716.298 -706.039)">
    <path id="Trazado_40" data-name="Trazado 40" d="M1723.447,714.348a3.613,3.613,0,0,1,.306-1.428,3.732,3.732,0,0,1,1.956-1.942,3.715,3.715,0,0,1,2.866,0,3.773,3.773,0,0,1,1.176.8,3.711,3.711,0,0,1,.794,1.179,3.612,3.612,0,0,1,.291,1.447,3.462,3.462,0,0,1-.3,1.425,3.73,3.73,0,0,1-3.427,2.2h-.3v1.4a.612.612,0,0,1-.172.437.553.553,0,0,1-.418.181.587.587,0,0,1-.434-.181.611.611,0,0,1-.176-.437v-1.991a.585.585,0,0,1,.181-.434.6.6,0,0,1,.429-.177h.914a2.521,2.521,0,0,0,.972-.188,2.6,2.6,0,0,0,.794-.519,2.454,2.454,0,0,0,.533-.773,2.305,2.305,0,0,0,.195-.948,2.553,2.553,0,0,0-.19-.984,2.4,2.4,0,0,0-.529-.8,2.465,2.465,0,0,0-.794-.535,2.5,2.5,0,0,0-3.476,2.271v.047a.628.628,0,0,1-.166.439.542.542,0,0,1-.415.181.589.589,0,0,1-.442-.181.6.6,0,0,1-.177-.439Zm2.067,8.018a.7.7,0,0,1,.7-.714.7.7,0,0,1,.5.205.688.688,0,0,1,.21.509.642.642,0,0,1-.057.268.849.849,0,0,1-.153.223.682.682,0,0,1-.229.157.691.691,0,0,1-.275.057.663.663,0,0,1-.272-.057.693.693,0,0,1-.224-.157.8.8,0,0,1-.152-.223A.64.64,0,0,1,1725.514,722.366Z" fill="#606060"/>
  </g>
</svg>
