<svg id="biblioteca_contenidos" data-name="biblioteca contenidos" xmlns="http://www.w3.org/2000/svg" width="17.275" height="20.959" viewBox="0 0 17.275 20.959">
  <g id="Grupo_241" data-name="Grupo 241" transform="translate(-772.284 -474.818)">
    <g id="Grupo_237" data-name="Grupo 237">
      <path id="Trazado_521" data-name="Trazado 521" d="M787.417,495.777H774.243a1.961,1.961,0,0,1-1.959-1.958c0-.035,0-.071,0-.106s0-.042,0-.063l.184-16.347a2.494,2.494,0,0,1,2.492-2.485h12.816a1.784,1.784,0,0,1,1.783,1.8l-.161,17.2A1.988,1.988,0,0,1,787.417,495.777Zm-12.744-3.047a1.091,1.091,0,0,0-1.088,1.089.659.659,0,0,0,.658.659h13.174a.683.683,0,0,0,.68-.675l.011-1.073Zm.287-16.612a1.193,1.193,0,0,0-1.191,1.193l-.162,14.371a2.37,2.37,0,0,1,1.066-.251h13.446l.139-14.826a.483.483,0,0,0-.482-.487Z" fill="#36c"/>
    </g>
    <g id="Grupo_238" data-name="Grupo 238">
      <line id="Línea_14" data-name="Línea 14" y2="16.168" transform="translate(775.874 475.652)" fill="#36c"/>
      <path id="Trazado_522" data-name="Trazado 522" d="M775.874,492.47a.65.65,0,0,1-.65-.65V475.652a.651.651,0,0,1,1.3,0V491.82A.65.65,0,0,1,775.874,492.47Z" fill="#36c"/>
    </g>
    <g id="Grupo_240" data-name="Grupo 240">
      <g id="Grupo_239" data-name="Grupo 239">
        <path id="Trazado_523" data-name="Trazado 523" d="M785.755,486.625h-6.218a1.765,1.765,0,0,1-1.762-1.763v-3.9h2.174c.185,0,.376.011.567.022a4.175,4.175,0,0,0,.953-.011.429.429,0,0,0,.235-.1.928.928,0,0,0,.108-.161l.083-.137A1.475,1.475,0,0,1,783.27,480h1.981a1.681,1.681,0,0,1,1.676,1.663l.027,3.753a1.2,1.2,0,0,1-1.2,1.209Zm-6.98-4.66v2.9a.764.764,0,0,0,.762.763h6.218a.2.2,0,0,0,.142-.06.2.2,0,0,0,.057-.142l-.027-3.753a.677.677,0,0,0-.676-.67H783.27c-.364,0-.475.024-.535.119l-.062.1a1.788,1.788,0,0,1-.238.337,1.39,1.39,0,0,1-.795.4,5.121,5.121,0,0,1-1.184.025c-.171-.01-.34-.021-.507-.021Z" fill="#36c"/>
      </g>
    </g>
  </g>
</svg>
