<svg xmlns="http://www.w3.org/2000/svg" width="26.888" height="29.881" viewBox="0 0 26.888 29.881">
  <g id="rar" transform="translate(0.25 0.79)">
    <g id="Grupo_41" data-name="Grupo 41" transform="translate(-105.423 -438.872)">
      <path id="Trazado_93" data-name="Trazado 93" d="M124.322,438.984l-14.08-.112A2.621,2.621,0,0,0,107.6,441.5l.022,23.113a2.622,2.622,0,0,0,2.612,2.619l16.667.057a2.62,2.62,0,0,0,2.63-2.612l.066-20.452" fill="none" stroke="#36c" stroke-linecap="round" stroke-linejoin="round" stroke-width="1.356"/>
      <path id="Trazado_94" data-name="Trazado 94" d="M124.637,439.041l5,5h-5.01v-5" fill="none" stroke="#36c" stroke-linecap="round" stroke-linejoin="round" stroke-width="1.356"/>
    </g>
    <rect id="Rectángulo_15" data-name="Rectángulo 15" width="26.388" height="8.627" rx="2.159" transform="translate(0 15.658)" fill="#e6effd" stroke="#36c" stroke-miterlimit="10" stroke-width="0.5"/>
    <text id="RAR-2" data-name="RAR" transform="translate(13.195 23.392)" fill="#36c" font-size="10.382" font-family="AntipastoPro, Antipasto Pro"><tspan x="-8.16" y="0">RAR</tspan></text>
    <g id="Grupo_42" data-name="Grupo 42" transform="translate(-105.423 -438.872)">
      <path id="Trazado_95" data-name="Trazado 95" d="M124.048,448.1h-9.726a1.135,1.135,0,0,0-1.135,1.135v1.483a1.135,1.135,0,0,0,1.135,1.135h9.708" fill="none" stroke="#36c" stroke-linecap="round" stroke-linejoin="round" stroke-width="1"/>
      <line id="Línea_10" data-name="Línea 10" x2="9.776" transform="translate(114.514 449.206)" fill="#f2f2f2" stroke="#36c" stroke-linecap="round" stroke-miterlimit="10" stroke-width="0.5"/>
      <line id="Línea_11" data-name="Línea 11" x2="9.776" transform="translate(114.514 450.048)" fill="#f2f2f2" stroke="#36c" stroke-linecap="round" stroke-miterlimit="10" stroke-width="0.5"/>
      <line id="Línea_12" data-name="Línea 12" x2="9.776" transform="translate(114.514 450.776)" fill="#f2f2f2" stroke="#36c" stroke-linecap="round" stroke-miterlimit="10" stroke-width="0.5"/>
    </g>
    <g id="Grupo_46" data-name="Grupo 46" transform="translate(-105.423 -438.872)">
      <path id="Trazado_96" data-name="Trazado 96" d="M122.434,447.14h-6.846a1.154,1.154,0,0,1-1.152-1.153v-1.046a1.154,1.154,0,0,1,1.152-1.152h6.859a.352.352,0,0,1,0,.7h-6.859a.447.447,0,0,0-.447.447v1.046a.448.448,0,0,0,.447.448h6.846a.353.353,0,1,1,0,.705Z" fill="#36c"/>
      <g id="Grupo_43" data-name="Grupo 43">
        <line id="Línea_13" data-name="Línea 13" x2="6.894" transform="translate(115.724 444.919)" fill="#f2f2f2"/>
        <path id="Trazado_97" data-name="Trazado 97" d="M122.617,445.1h-6.893a.176.176,0,1,1,0-.353h6.893a.176.176,0,1,1,0,.353Z" fill="#36c"/>
      </g>
      <g id="Grupo_44" data-name="Grupo 44">
        <line id="Línea_14" data-name="Línea 14" x2="6.894" transform="translate(115.724 445.514)" fill="#f2f2f2"/>
        <path id="Trazado_98" data-name="Trazado 98" d="M122.617,445.69h-6.893a.176.176,0,1,1,0-.352h6.893a.176.176,0,1,1,0,.352Z" fill="#36c"/>
      </g>
      <g id="Grupo_45" data-name="Grupo 45">
        <line id="Línea_15" data-name="Línea 15" x2="6.894" transform="translate(115.724 446.027)" fill="#f2f2f2"/>
        <path id="Trazado_99" data-name="Trazado 99" d="M122.617,446.2h-6.893a.176.176,0,1,1,0-.352h6.893a.176.176,0,1,1,0,.352Z" fill="#36c"/>
      </g>
    </g>
  </g>
</svg>
