<svg id="preguntas_fre" data-name="preguntas  fre" xmlns="http://www.w3.org/2000/svg" width="21.687" height="21.686" viewBox="0 0 21.687 21.686">
  <g id="Grupo_235" data-name="Grupo 235" transform="translate(-731.798 -414.082)">
    <path id="Trazado_519" data-name="Trazado 519" d="M749.677,435.768H735.606a3.812,3.812,0,0,1-3.808-3.808V417.889a3.812,3.812,0,0,1,3.808-3.807h14.071a3.812,3.812,0,0,1,3.808,3.807V431.96A3.812,3.812,0,0,1,749.677,435.768Zm-14.071-20.387a2.51,2.51,0,0,0-2.507,2.508V431.96a2.51,2.51,0,0,0,2.507,2.508h14.071a2.51,2.51,0,0,0,2.507-2.508V417.889a2.51,2.51,0,0,0-2.507-2.508Z" fill="#36c"/>
  </g>
  <g id="Grupo_236" data-name="Grupo 236" transform="translate(-731.798 -414.082)">
    <path id="Trazado_520" data-name="Trazado 520" d="M738.947,422.391a3.591,3.591,0,0,1,.3-1.428,3.72,3.72,0,0,1,1.957-1.942,3.536,3.536,0,0,1,1.423-.285,3.6,3.6,0,0,1,1.442.289A3.726,3.726,0,0,1,746.045,421a3.608,3.608,0,0,1,.291,1.447,3.453,3.453,0,0,1-.3,1.425,3.68,3.68,0,0,1-.8,1.151,3.756,3.756,0,0,1-2.628,1.054h-.3v1.4a.615.615,0,0,1-.171.438.556.556,0,0,1-.418.18.586.586,0,0,1-.434-.18.612.612,0,0,1-.177-.438v-1.991a.591.591,0,0,1,.181-.434.6.6,0,0,1,.43-.176h.913a2.521,2.521,0,0,0,.972-.189,2.592,2.592,0,0,0,.8-.519,2.5,2.5,0,0,0,.533-.772,2.324,2.324,0,0,0,.2-.948,2.539,2.539,0,0,0-.191-.985,2.421,2.421,0,0,0-.528-.8,2.484,2.484,0,0,0-1.776-.73,2.482,2.482,0,0,0-1.738.7,2.529,2.529,0,0,0-.542.78,2.453,2.453,0,0,0-.214.984v.048a.626.626,0,0,1-.167.438.537.537,0,0,1-.415.181.586.586,0,0,1-.442-.181.6.6,0,0,1-.176-.438Zm2.067,8.018a.7.7,0,0,1,.7-.714.7.7,0,0,1,.505.2.692.692,0,0,1,.209.51.651.651,0,0,1-.056.267.88.88,0,0,1-.153.224.714.714,0,0,1-.505.214.667.667,0,0,1-.272-.057.7.7,0,0,1-.223-.157.83.83,0,0,1-.153-.224A.636.636,0,0,1,741.014,430.409Z" fill="#36c"/>
  </g>
</svg>
