<svg xmlns="http://www.w3.org/2000/svg" width="25.439" height="18.129" viewBox="0 0 25.439 18.129"><g transform="translate(-854.865 -403.866)"><path d="M866.736,416.191l-8.091.119-2.079,5.125a.879.879,0,0,1-.486.493.891.891,0,0,1-.7-.011.779.779,0,0,1-.465-.486.918.918,0,0,1,.039-.676l6.784-16.342a.888.888,0,0,1,1.289-.413.9.9,0,0,1,.33.389l7.218,16.137a.938.938,0,0,1,.059.682.779.779,0,0,1-.436.492.861.861,0,0,1-.689.031.878.878,0,0,1-.514-.464Zm-7.372-1.666,6.6-.1-3.422-7.735Z" fill="#36c"/><path d="M878.287,418.154l-4.148.061-1.067,2.627a.441.441,0,0,1-.248.253.458.458,0,0,1-.361-.005.4.4,0,0,1-.238-.249.465.465,0,0,1,.02-.347l3.479-8.378a.454.454,0,0,1,.66-.212.457.457,0,0,1,.169.2l3.7,8.272a.483.483,0,0,1,.03.35.4.4,0,0,1-.223.252.466.466,0,0,1-.617-.222Zm-3.779-.854,3.384-.05-1.754-3.964Z" fill="#36c"/></g></svg>