<svg id="power_bi" data-name="power bi" xmlns="http://www.w3.org/2000/svg" width="21.887" height="22.727" viewBox="0 0 21.887 22.727">
  <g id="Grupo_228" data-name="Grupo 228">
    <path id="Trazado_39" data-name="Trazado 39" d="M986.307,322.723h-.823a.75.75,0,0,1,0-1.5h.823a2.506,2.506,0,0,0,2.5-2.5V307.645a3.274,3.274,0,0,0-3.271-3.27H973.194a3.274,3.274,0,0,0-3.27,3.27V318.99a2.235,2.235,0,0,0,2.234,2.233h1.093a.75.75,0,0,1,0,1.5h-1.093a3.738,3.738,0,0,1-3.734-3.733V307.645a4.776,4.776,0,0,1,4.77-4.77H985.54a4.776,4.776,0,0,1,4.771,4.77v11.074A4.008,4.008,0,0,1,986.307,322.723Z" transform="translate(-968.424 -302.875)" fill="#36c"/>
    <rect id="Rectángulo_2" data-name="Rectángulo 2" width="2.718" height="8.834" rx="1.359" transform="translate(9.245 13.893)" fill="#36c"/>
    <rect id="Rectángulo_3" data-name="Rectángulo 3" width="2.718" height="5.436" rx="1.359" transform="translate(5.847 17.291)" fill="#36c"/>
    <rect id="Rectángulo_4" data-name="Rectángulo 4" width="2.718" height="10.873" rx="1.359" transform="translate(12.642 11.855)" fill="#36c"/>
  </g>
</svg>
