<svg xmlns="http://www.w3.org/2000/svg" viewBox="0 0 16.26 16.26"><defs><style>.cls-1{fill:#386bfb;}.cls-2{fill:#fff;}</style></defs><g id="Capa_2" data-name="Capa 2"><g id="Capa_1-2" data-name="Capa 1"><circle class="cls-1" cx="8.13" cy="8.13" r="8.13"/><path class="cls-2" d="M8.15,14a1.06,1.06,0,0,1-.78-.29,1,1,0,0,1-.28-.75,1,1,0,0,1,.28-.74,1.05,1.05,0,0,1,.78-.28,1,1,0,0,1,.74.28,1,1,0,0,1,.28.74,1,1,0,0,1-.28.75A1,1,0,0,1,8.15,14Zm0-3.15c-.36,0-.55-.21-.57-.62l-.39-6.8a1.05,1.05,0,0,1,.22-.78.92.92,0,0,1,.74-.29.88.88,0,0,1,.71.29,1,1,0,0,1,.2.78l-.39,6.8C8.64,10.59,8.47,10.8,8.15,10.8Z"/></g></g></svg>