<svg xmlns="http://www.w3.org/2000/svg" width="26.888" height="29.794" viewBox="0 0 26.888 29.794">
  <g id="mp3" transform="translate(0.25 0.702)">
    <path id="Trazado_119" data-name="Trazado 119" d="M124.5,37.852l-14.081-.112a2.622,2.622,0,0,0-2.642,2.624l.023,23.113a2.62,2.62,0,0,0,2.612,2.618l16.666.058a2.62,2.62,0,0,0,2.63-2.612l.067-20.452" transform="translate(-105.423 -37.74)" fill="none" stroke="#36c" stroke-linecap="round" stroke-linejoin="round" stroke-width="1.356"/>
    <path id="Trazado_120" data-name="Trazado 120" d="M124.781,38l5,5h-5.01V38" transform="translate(-105.423 -37.74)" fill="none" stroke="#36c" stroke-linecap="round" stroke-linejoin="round" stroke-width="1.356"/>
    <rect id="Rectángulo_37" data-name="Rectángulo 37" width="26.388" height="8.627" rx="2.159" transform="translate(0 15.746)" fill="#fff" stroke="#36c" stroke-miterlimit="10" stroke-width="0.5"/>
    <text id="MP" transform="translate(11.194 23.479)" fill="#36c" font-size="10.382" font-family="AntipastoPro, Antipasto Pro"><tspan x="-6.115" y="0">MP</tspan></text>
    <text id="_3" data-name="3" transform="translate(19.383 23.44)" fill="#36c" font-size="9.125" font-family="Quicksand-Medium, Quicksand" font-weight="500"><tspan x="-2.377" y="0">3</tspan></text>
    <circle id="Elipse_10" data-name="Elipse 10" cx="4.684" cy="4.684" r="4.684" transform="translate(9.051 4.255)" stroke-width="1" stroke="#36c" stroke-linecap="round" stroke-linejoin="round" fill="none"/>
    <path id="Trazado_121" data-name="Trazado 121" d="M117.533,44.638v4.379l4.341-2.189-4.341-2.189" transform="translate(-105.423 -37.74)" fill="#36c"/>
    <line id="Línea_28" data-name="Línea 28" y2="4.703" transform="translate(11.344 6.736)" fill="#f2f2f2" stroke="#36c" stroke-linecap="round" stroke-miterlimit="10" stroke-width="0.5"/>
  </g>
</svg>
