<svg xmlns="http://www.w3.org/2000/svg" xmlns:xlink="http://www.w3.org/1999/xlink" width="132.437" height="41.866" viewBox="0 0 132.437 41.866">
  <defs>
    <filter id="Rect치ngulo_2" x="0" y="0" width="132.437" height="41.866" filterUnits="userSpaceOnUse">
      <feOffset dx="7" dy="7" input="SourceAlpha"/>
      <feGaussianBlur stdDeviation="2.5" result="blur"/>
      <feFlood flood-opacity="0.149"/>
      <feComposite operator="in" in2="blur"/>
      <feComposite in="SourceGraphic"/>
    </filter>
  </defs>
  <g id="conectate" transform="translate(0.5 0.5)">
    <g transform="matrix(1, 0, 0, 1, -0.5, -0.5)" filter="url(#Rect치ngulo_2)">
      <rect id="Rect치ngulo_2-2" data-name="Rect치ngulo 2" width="117.437" height="26.866" rx="12.634" transform="translate(0.5 0.5)" fill="#69f"/>
    </g>
    <g id="Grupo_1" data-name="Grupo 1" transform="translate(-648.504 -274.787)">
      <path id="Trazado_2" data-name="Trazado 2" d="M678.272,290.867a3.97,3.97,0,0,1-.9,1.522,3.894,3.894,0,0,1-1.41.938,4.9,4.9,0,0,1-1.785.315,4.8,4.8,0,0,1-2.475-.615,4.114,4.114,0,0,1-1.621-1.755,6.823,6.823,0,0,1,0-5.46,4.114,4.114,0,0,1,1.621-1.755,4.775,4.775,0,0,1,2.459-.615,5.4,5.4,0,0,1,1.762.27,3.551,3.551,0,0,1,1.343.81,3.6,3.6,0,0,1,.856,1.35l-1.516.675a2.557,2.557,0,0,0-.871-1.3,2.471,2.471,0,0,0-1.484-.412,2.951,2.951,0,0,0-1.606.435,2.882,2.882,0,0,0-1.072,1.26,4.773,4.773,0,0,0-.383,2.01,5.013,5.013,0,0,0,.362,2,2.759,2.759,0,0,0,1.035,1.267,2.923,2.923,0,0,0,1.619.435,2.668,2.668,0,0,0,1.582-.472,2.576,2.576,0,0,0,.953-1.418Z" fill="#f2f2f2"/>
      <path id="Trazado_3" data-name="Trazado 3" d="M683.358,285.842a3.925,3.925,0,0,1,1.934.465,3.255,3.255,0,0,1,1.312,1.343,4.863,4.863,0,0,1,0,4.184,3.255,3.255,0,0,1-1.312,1.343,4.257,4.257,0,0,1-3.869,0,3.312,3.312,0,0,1-1.321-1.343,4.8,4.8,0,0,1,0-4.184,3.312,3.312,0,0,1,1.321-1.343A3.929,3.929,0,0,1,683.358,285.842Zm0,1.26a2.06,2.06,0,0,0-1.148.308,1.966,1.966,0,0,0-.727.892,4.159,4.159,0,0,0,0,2.873,1.968,1.968,0,0,0,.727.9,2.06,2.06,0,0,0,1.148.307,2.016,2.016,0,0,0,1.139-.307,1.983,1.983,0,0,0,.721-.9,4.159,4.159,0,0,0,0-2.873,1.981,1.981,0,0,0-.721-.892A2.016,2.016,0,0,0,683.358,287.1Z" fill="#f2f2f2"/>
      <path id="Trazado_4" data-name="Trazado 4" d="M689.1,293.492v-7.5h1.426l.106,1.95-.211-.21a2.837,2.837,0,0,1,.607-1.072,2.343,2.343,0,0,1,.946-.623,3.432,3.432,0,0,1,1.162-.195,3.264,3.264,0,0,1,1.433.308,2.375,2.375,0,0,1,1.012.922,2.954,2.954,0,0,1,.375,1.56v4.86h-1.606v-4.365a2.058,2.058,0,0,0-.457-1.537,1.614,1.614,0,0,0-1.148-.428,2.133,2.133,0,0,0-.959.232,1.9,1.9,0,0,0-.773.743,2.629,2.629,0,0,0-.307,1.365v3.99Z" fill="#f2f2f2"/>
      <path id="Trazado_5" data-name="Trazado 5" d="M699.708,293.17a3.3,3.3,0,0,1-1.328-1.35,4.8,4.8,0,0,1,0-4.156,3.338,3.338,0,0,1,1.306-1.35,3.806,3.806,0,0,1,1.913-.472,3.637,3.637,0,0,1,1.837.443,2.989,2.989,0,0,1,1.184,1.229,3.774,3.774,0,0,1,.412,1.778c0,.18,0,.35-.014.51a4.209,4.209,0,0,1-.044.42h-6.032v-1.23h5.326l-.81.54a2.45,2.45,0,0,0-.42-1.777,1.77,1.77,0,0,0-1.471-.638,2.066,2.066,0,0,0-1.131.3,1.908,1.908,0,0,0-.728.9,3.671,3.671,0,0,0-.256,1.44,3.386,3.386,0,0,0,.272,1.425,1.952,1.952,0,0,0,.763.885,2.216,2.216,0,0,0,1.17.3,2.321,2.321,0,0,0,1.2-.277,2.045,2.045,0,0,0,.75-.8l1.276.6a2.937,2.937,0,0,1-1.246,1.29,3.961,3.961,0,0,1-1.95.465A4.027,4.027,0,0,1,699.708,293.17Zm2.055-10.868h1.621l-1.487,2.52h-1.228Z" fill="#f2f2f2"/>
      <path id="Trazado_6" data-name="Trazado 6" d="M710.3,285.842a4.059,4.059,0,0,1,1.537.262,2.957,2.957,0,0,1,1.072.743,3.324,3.324,0,0,1,.66,1.1l-1.515.6a2.1,2.1,0,0,0-.623-1.057,1.656,1.656,0,0,0-1.118-.368,2.1,2.1,0,0,0-1.154.308,1.913,1.913,0,0,0-.728.892,3.72,3.72,0,0,0-.246,1.44,3.58,3.58,0,0,0,.253,1.425,1.9,1.9,0,0,0,.737.885,2.331,2.331,0,0,0,2.023.128,1.626,1.626,0,0,0,.623-.495,1.84,1.84,0,0,0,.338-.788l1.455.5a3.182,3.182,0,0,1-.652,1.177,2.967,2.967,0,0,1-1.1.781,3.874,3.874,0,0,1-1.513.277,4.039,4.039,0,0,1-1.965-.465,3.232,3.232,0,0,1-1.328-1.343,4.863,4.863,0,0,1,0-4.184,3.237,3.237,0,0,1,1.32-1.343A3.94,3.94,0,0,1,710.3,285.842Z" fill="#f2f2f2"/>
      <path id="Trazado_7" data-name="Trazado 7" d="M720.257,285.992v1.26h-5.625v-1.26Zm-2.58-2.205v7.455a1.018,1.018,0,0,0,.293.81,1.155,1.155,0,0,0,.787.255,1.8,1.8,0,0,0,.7-.127,2.05,2.05,0,0,0,.556-.353l.36,1.17a2.546,2.546,0,0,1-.848.473,3.454,3.454,0,0,1-1.117.172,3.248,3.248,0,0,1-1.186-.21,1.692,1.692,0,0,1-.839-.683,2.366,2.366,0,0,1-.315-1.237v-7.275Z" fill="#f2f2f2"/>
      <path id="Trazado_8" data-name="Trazado 8" d="M725.815,287.522a1.517,1.517,0,0,0-1.132-.42,2.009,2.009,0,0,0-1.17.33,1.828,1.828,0,0,0-.692,1.005l-1.349-.57a2.7,2.7,0,0,1,1.132-1.485,3.862,3.862,0,0,1,2.137-.54,3.436,3.436,0,0,1,2.236.683,2.413,2.413,0,0,1,.84,1.987v3.345a.49.49,0,0,0,.555.555,1.851,1.851,0,0,0,.525-.075l-.089,1.11a2.027,2.027,0,0,1-.872.165,1.855,1.855,0,0,1-1.222-.412,1.421,1.421,0,0,1-.442-1.163v-.03l.315-.09a1.918,1.918,0,0,1-.539.945,2.626,2.626,0,0,1-.969.585,3.48,3.48,0,0,1-1.146.2,2.831,2.831,0,0,1-1.793-.532,1.8,1.8,0,0,1-.684-1.508,1.855,1.855,0,0,1,.541-1.365,3,3,0,0,1,1.561-.75l2.91-.57-.016,1.125-2.115.435a2.418,2.418,0,0,0-.967.36.766.766,0,0,0-.293.645.8.8,0,0,0,.322.668,1.388,1.388,0,0,0,.864.247,2.586,2.586,0,0,0,.982-.18,1.617,1.617,0,0,0,.711-.547,1.558,1.558,0,0,0,.271-.953v-2.04A1.581,1.581,0,0,0,725.815,287.522Z" fill="#f2f2f2"/>
      <path id="Trazado_9" data-name="Trazado 9" d="M734.911,285.992v1.26h-5.625v-1.26Zm-2.58-2.205v7.455a1.021,1.021,0,0,0,.293.81,1.155,1.155,0,0,0,.787.255,1.8,1.8,0,0,0,.705-.127,2.071,2.071,0,0,0,.557-.353l.359,1.17a2.541,2.541,0,0,1-.847.473,3.46,3.46,0,0,1-1.118.172,3.243,3.243,0,0,1-1.185-.21,1.691,1.691,0,0,1-.84-.683,2.376,2.376,0,0,1-.315-1.237v-7.275Z" fill="#f2f2f2"/>
      <path id="Trazado_10" data-name="Trazado 10" d="M737.823,293.17a3.3,3.3,0,0,1-1.328-1.35,4.8,4.8,0,0,1,0-4.156,3.336,3.336,0,0,1,1.3-1.35,3.8,3.8,0,0,1,1.912-.472,3.638,3.638,0,0,1,1.838.443,2.985,2.985,0,0,1,1.185,1.229,3.786,3.786,0,0,1,.412,1.778q0,.27-.015.51c-.01.16-.026.3-.045.42h-6.029v-1.23h5.324l-.809.54a2.455,2.455,0,0,0-.422-1.777,1.768,1.768,0,0,0-1.468-.638,2.064,2.064,0,0,0-1.133.3,1.913,1.913,0,0,0-.727.9,3.635,3.635,0,0,0-.256,1.44,3.387,3.387,0,0,0,.27,1.425,1.962,1.962,0,0,0,.765.885,2.219,2.219,0,0,0,1.17.3,2.312,2.312,0,0,0,1.2-.277,2.045,2.045,0,0,0,.75-.8l1.275.6a2.933,2.933,0,0,1-1.244,1.29,3.967,3.967,0,0,1-1.951.465A4.02,4.02,0,0,1,737.823,293.17Z" fill="#f2f2f2"/>
    </g>
    <path id="Trazado_11" data-name="Trazado 11" d="M749.212,294.465a.712.712,0,0,1-.563-1.146l2.485-3.232a1.218,1.218,0,0,0-.1-1.605l-2.445-2.445a.711.711,0,0,1,1.006-1.006l2.887,2.887a1.93,1.93,0,0,1,.166,2.542l-2.867,3.727A.712.712,0,0,1,749.212,294.465Z" transform="translate(-648.504 -274.787)" fill="#fff"/>
  </g>
</svg>
