<svg xmlns="http://www.w3.org/2000/svg" viewBox="0 0 20 20"><defs><style>.cls-1{fill:#36f;}.cls-2{fill:#fff;}</style></defs><g id="Capa_2" data-name="Capa 2"><g id="Capa_1-2" data-name="Capa 1"><circle class="cls-1" cx="10" cy="10" r="10"/><path class="cls-2" d="M10,17.16a1.26,1.26,0,0,1-.95-.36,1.28,1.28,0,0,1-.35-.92A1.24,1.24,0,0,1,9.07,15a1.29,1.29,0,0,1,.95-.35,1.19,1.19,0,0,1,1.26,1.26,1.28,1.28,0,0,1-.34.92A1.21,1.21,0,0,1,10,17.16Zm0-3.88c-.44,0-.67-.25-.7-.76L8.84,4.16a1.25,1.25,0,0,1,.27-1A1.14,1.14,0,0,1,10,2.84a1.08,1.08,0,0,1,.88.36,1.25,1.25,0,0,1,.24,1l-.48,8.36C10.63,13,10.42,13.28,10,13.28Z"/></g></g></svg>