<svg xmlns="http://www.w3.org/2000/svg" viewBox="0 0 30.1 28.84"><defs><style>.cls-1{fill:#4169af;}</style></defs><g id="Capa_2" data-name="Capa 2"><g id="Capa_1-2" data-name="Capa 1"><g id="TRPKx7"><path class="cls-1" d="M25.4,0C26.69,0,28,0,29.27,0c.59,0,.83.22.83.82,0,.86,0,1.72,0,2.59,0,1.76,0,3.53,0,5.3a1.12,1.12,0,0,1-.78,1.12.79.79,0,0,1-.88-.21L26.8,8c-.26-.26-.26-.26-.52,0l-9.09,9.1a1.22,1.22,0,0,1-1.41.41,1.72,1.72,0,0,1-.55-.41c-1-1-1.93-1.93-2.89-2.89-.24-.24-.24-.24-.49,0L4.56,21.54a1.14,1.14,0,0,1-1.33.33,1.41,1.41,0,0,1-.47-.34C2,20.75,1.2,20,.43,19.18a1.13,1.13,0,0,1,0-1.77q5.4-5.4,10.8-10.8A1.13,1.13,0,0,1,13,6.6l3,3c.16.16.25.17.41,0q2.88-2.9,5.77-5.78c.18-.18.16-.29,0-.45-.55-.54-1.1-1.09-1.64-1.64A1,1,0,0,1,20.9.09,1.64,1.64,0,0,1,21.48,0H25.4Z" transform="translate(0 0)"/><path class="cls-1" d="M26.33,19.69v8.73c0,.42,0,.42-.43.42-1.14,0-2.28,0-3.42,0-.26,0-.35-.08-.35-.35q0-6.79,0-13.59a.6.6,0,0,1,.19-.47l3.75-3.72c.06-.05.11-.15.19-.13s.06.16.06.24Z" transform="translate(0 0)"/><path class="cls-1" d="M10.23,23.57c0-1.64,0-3.28,0-4.92a.66.66,0,0,1,.21-.51c.5-.49,1-1,1.47-1.48.14-.14.24-.14.38,0l2,2a.4.4,0,0,1,.11.31v9.59c0,.19-.07.27-.26.27H10.48c-.25,0-.25-.15-.25-.34Z" transform="translate(0 0)"/><path class="cls-1" d="M20.39,22.63v5.79c0,.41,0,.42-.42.42H16.56c-.37,0-.39,0-.39-.37V20.86a.64.64,0,0,1,.2-.49l3.75-3.73c.06-.06.12-.17.2-.14s.07.17.07.26Z" transform="translate(0 0)"/><path class="cls-1" d="M8.49,24.5v4c0,.34,0,.36-.36.36-1.17,0-2.33,0-3.5,0-.25,0-.34-.07-.34-.33,0-1.32,0-2.64,0-4a.57.57,0,0,1,.18-.45C5.73,22.87,7,21.62,8.22,20.37c.06-.06.11-.17.21-.14s.06.17.06.27Z" transform="translate(0 0)"/></g></g></g></svg>