<svg id="Capa_1" data-name="Capa 1" xmlns="http://www.w3.org/2000/svg" viewBox="0 0 27.56 35.81"><defs><style>.cls-1,.cls-2{fill:#36c;}.cls-2{stroke:#36c;stroke-miterlimit:10;stroke-width:0.36px;}</style></defs><title>Diagnostico</title><path class="cls-1" d="M319.52,381.76l-.15,0v29.74a2.09,2.09,0,0,1-2.08,2.09H294.65a2.09,2.09,0,0,1-2.08-2.09V380.56a2.09,2.09,0,0,1,2.08-2.08h21.14a2.4,2.4,0,0,0,.8,1.42,3.32,3.32,0,0,0,2.39,1.76,2,2,0,0,0,.35.06,1.18,1.18,0,0,1-.49-.45,1.73,1.73,0,0,1-.77-.3l-.05,0a1.8,1.8,0,0,1-1.12-1.19v-.05l0,0a2,2,0,0,1-.52-.72,1,1,0,0,1-.39-.33.53.53,0,0,1-.11-.09,1.23,1.23,0,0,1-.27-.4H294.65a2.43,2.43,0,0,0-2.43,2.43v30.91a2.44,2.44,0,0,0,2.43,2.44h22.64a2.44,2.44,0,0,0,2.43-2.44V381.83Z" transform="translate(-292.22 -378.09)"/><polygon class="cls-2" points="26.39 3.58 27.09 3.58 23.52 0.4 23.52 3.58 26.39 3.58"/><polygon class="cls-1" points="14.41 17.78 14.41 17.78 14.41 17.78 14.41 17.78"/><path class="cls-1" d="M301.57,400.94a5.07,5.07,0,0,0,4.91,5.05v-10.1A5.05,5.05,0,0,0,301.57,400.94Z" transform="translate(-292.22 -378.09)"/><polygon class="cls-1" points="14.41 27.91 14.41 27.91 14.41 27.91 14.41 27.91"/><path class="cls-1" d="M311.7,400.94a5,5,0,0,0-1.05-3.05l-3.86,3.86V406A5.07,5.07,0,0,0,311.7,400.94Z" transform="translate(-292.22 -378.09)"/><path class="cls-1" d="M310.45,397.65a5,5,0,0,0-3.66-1.76v5.42Z" transform="translate(-292.22 -378.09)"/><rect class="cls-1" x="5.35" y="8.95" width="18.13" height="1.14"/><rect class="cls-1" x="5.35" y="10.75" width="18.13" height="1.14"/><rect class="cls-1" x="5.35" y="12.77" width="18.13" height="1.14"/></svg>