<svg id="Capa_1" data-name="Capa 1" xmlns="http://www.w3.org/2000/svg" viewBox="0 0 43.96 27.39"><defs><style>.cls-1{fill:#36c;}.cls-2{fill:#5b8bff;}.cls-3{fill:#f7678d;}</style></defs><title>Escuela</title><rect class="cls-1" x="8.15" y="6.07" width="31.39" height="0.58" rx="0.29"/><rect class="cls-1" x="8.15" y="7.65" width="31.39" height="0.58" rx="0.29"/><rect class="cls-1" x="8.15" y="9.17" width="31.39" height="0.58" rx="0.29"/><rect class="cls-1" x="6.03" y="17.61" width="31.39" height="0.58" rx="0.29"/><rect class="cls-1" x="6.03" y="19.18" width="31.39" height="0.58" rx="0.29"/><rect class="cls-1" x="6.03" y="20.7" width="31.39" height="0.58" rx="0.29"/><path class="cls-2" d="M293,398.19h25c3.07,0,2.75-1.39,1.86-4.36H292.23a3.59,3.59,0,1,1,0-7.17H323c.85-2.6,1.57-3.28,0-4.34H293a7.94,7.94,0,0,0,0,15.88Z" transform="translate(-283.96 -382.31)"/><path class="cls-2" d="M319.9,393.81h-25c-3.08,0-.55,1.78-1.86,4.36h27.67a3.59,3.59,0,0,1,0,7.17H286.09c0,2.56-.64,2.18,0,4.36H319.9a7.94,7.94,0,0,0,0-15.88Z" transform="translate(-283.96 -382.31)"/><path class="cls-3" d="M323,386.65l4.07-1.74c.29-.31.11-.86-.2-1.16L323,382.31Z" transform="translate(-283.96 -382.31)"/><path class="cls-1" d="M326.86,383.73s0,1.29,0,1.29l1-.4a.25.25,0,0,0,0-.37Z" transform="translate(-283.96 -382.31)"/><path class="cls-3" d="M284,407.51a2.18,2.18,0,0,0,2.19,2.18v-4.36A2.19,2.19,0,0,0,284,407.51Z" transform="translate(-283.96 -382.31)"/></svg>