<svg id="Capa_1" data-name="Capa 1" xmlns="http://www.w3.org/2000/svg" viewBox="0 0 28.73 35.69"><defs><style>.cls-1,.cls-2{fill:#36c;}.cls-1{stroke:#36c;stroke-miterlimit:10;stroke-width:0.28px;}</style></defs><title>Q. Aprender</title><path class="cls-1" d="M295.06,414.1l.15-.31c.15-.32.3-.64.43-1a19.16,19.16,0,0,0,1.21-4.06c.38-2.28-.24-4.45-1.94-6.84a17.42,17.42,0,0,1-3-11.73c.4-6.1,3.47-9.7,9.38-11,6.55-1.44,12,.23,16.06,4.95a11.16,11.16,0,0,1,2.74,7.72,8.53,8.53,0,0,1-.93,3.38,3.56,3.56,0,0,0,.45,3.77h0c.53.78.77,1.22.68,1.62s-.48.67-1.26,1.11c-.51.29-.44.66-.35,1.13l0,.12c0,.13.06.27.1.41a1.53,1.53,0,0,1,0,1.15,1.09,1.09,0,0,1-.67.47c0,1.27-1,1.59-1.8,1.82-.12,0-.14.28-.15.49s0,.14,0,.2a2,2,0,0,1-2,1.91,8.85,8.85,0,0,1-2.87-.38c-1.45-.37-2.17-.15-2.88.86a2.6,2.6,0,0,0,0,3.31,2,2,0,0,0,.25.29,3.56,3.56,0,0,1,.28.31l.18.25h-14ZM305.63,379a20,20,0,0,0-4.3.49c-5.75,1.26-8.74,4.76-9.12,10.7a17.1,17.1,0,0,0,3,11.52c1.76,2.47,2.39,4.72,2,7.08a19,19,0,0,1-1.22,4.13c-.11.28-.24.56-.37.84,2.31,0,4.61,0,6.9,0h5.95l0,0a3.82,3.82,0,0,1-.29-.32,2.93,2.93,0,0,1,0-3.68c.79-1.12,1.67-1.39,3.23-1a8,8,0,0,0,2.76.38,1.67,1.67,0,0,0,1.73-1.63c0-.06,0-.12,0-.18,0-.31.05-.68.38-.78.95-.29,1.61-.58,1.56-1.61v-.13l.12,0a.91.91,0,0,0,.6-.36,1.28,1.28,0,0,0-.06-.91c0-.14-.08-.29-.11-.43l0-.12a1.18,1.18,0,0,1,.51-1.47c.67-.37,1-.63,1.1-.9s-.16-.68-.63-1.37h0a3.91,3.91,0,0,1-.48-4.08,8.25,8.25,0,0,0,.91-3.25,10.78,10.78,0,0,0-2.67-7.51A14.59,14.59,0,0,0,305.63,379Z" transform="translate(-291.69 -378.55)"/><path class="cls-2" d="M297.78,386.6a5.57,5.57,0,0,0,.73,1,4.34,4.34,0,0,0-.59,1.62c-.66.08-1.15.15-1.2.17s-.21,1,0,1.31a5.78,5.78,0,0,0,1.24.18,4.31,4.31,0,0,0,.71,1.52c-.42.54-.73,1-.75,1s.53.83,1,.9a6,6,0,0,0,1-.78,4.29,4.29,0,0,0,1.65.58,10.11,10.11,0,0,0,.26,1.33c.13.18,1.31,0,1.31,0s0-.58.08-1.38a4.26,4.26,0,0,0,1.51-.71,8.77,8.77,0,0,0,1.12.75c.21,0,.89-1,.89-1l-.9-1a4.14,4.14,0,0,0,.58-1.59,10,10,0,0,0,1.29-.26c.17-.13-.05-1.31-.05-1.31l-1.31-.08a4.33,4.33,0,0,0-.73-1.57,9.29,9.29,0,0,0,.7-1.06c0-.21-1-.9-1-.9l-.95.85a4.33,4.33,0,0,0-1.56-.57c-.09-.64-.15-1.11-.17-1.17s-1-.2-1.32.05a6,6,0,0,0-.16,1.17,4.34,4.34,0,0,0-1.59.73c-.52-.39-.9-.68-.95-.7S297.85,386.18,297.78,386.6Zm6,1.56a2.28,2.28,0,1,1-3.22.1A2.28,2.28,0,0,1,303.74,388.16Z" transform="translate(-291.69 -378.55)"/><path class="cls-2" d="M308.48,385.49a2.72,2.72,0,0,0,.49.44,2.49,2.49,0,0,0-.15.93,5.58,5.58,0,0,0-.62.22c-.09.05,0,.53.15.69a2.49,2.49,0,0,0,.69,0,2.39,2.39,0,0,0,.54.74c-.17.33-.29.59-.3.62s.37.39.6.38a2.66,2.66,0,0,0,.47-.52,2.37,2.37,0,0,0,.94.14c.15.38.26.66.28.68s.7-.15.7-.15,0-.32-.1-.75a2.39,2.39,0,0,0,.73-.54,5.53,5.53,0,0,0,.68.28c.12,0,.38-.6.38-.6l-.58-.45a2.4,2.4,0,0,0,.14-.91,4.14,4.14,0,0,0,.66-.28c.08-.08-.16-.69-.16-.69l-.71.09a2.42,2.42,0,0,0-.56-.76,6,6,0,0,0,.27-.64c0-.12-.61-.38-.61-.38l-.42.55a2.29,2.29,0,0,0-.89-.15c-.12-.33-.2-.57-.22-.6s-.53,0-.7.16a3,3,0,0,0,0,.64,2.49,2.49,0,0,0-.78.56c-.31-.16-.55-.27-.58-.28S308.47,385.25,308.48,385.49Zm3.35.21a1.24,1.24,0,1,1-1.71.39A1.24,1.24,0,0,1,311.83,385.7Z" transform="translate(-291.69 -378.55)"/></svg>