<svg id="Capa_1" data-name="Capa 1" xmlns="http://www.w3.org/2000/svg" viewBox="0 0 47.52 47.52"><defs><style>.cls-1{fill:#fdfeff;stroke:#36c;stroke-miterlimit:10;stroke-width:1.5px;}.cls-2{fill:#36c;}</style></defs><title>Seccion3</title><circle class="cls-1" cx="23.76" cy="23.76" r="23.01"/><path class="cls-2" d="M309.39,393.12v17.82a12.11,12.11,0,0,1-2.25.17,12,12,0,0,1-2.25-.17V395a2.77,2.77,0,0,0-.44-1.75,1.87,1.87,0,0,0-1.48-.52h-.49a7.81,7.81,0,0,1-.21-1.62,8.49,8.49,0,0,1,.21-1.66,24.45,24.45,0,0,1,2.76-.17h.61a3.32,3.32,0,0,1,2.6,1A4.12,4.12,0,0,1,309.39,393.12Zm-5.46-7.82a4.16,4.16,0,0,1-.4-1.92c0-1.2.22-1.9.66-2.12a5.56,5.56,0,0,1,2.18-.37,4.22,4.22,0,0,1,2.23.43c.32.27.49.95.52,2.06a3,3,0,0,1-.52,2,3.84,3.84,0,0,1-2.23.48A4.06,4.06,0,0,1,303.93,385.3Z" transform="translate(-282.06 -372.24)"/></svg>