<svg xmlns="http://www.w3.org/2000/svg" viewBox="0 0 60 66.64"><defs><style>.cls-1{font-size:21.65px;font-family:WorkSans-Medium, Work Sans;font-weight:500;}.cls-1,.cls-2{fill:#3d64ad;}</style></defs><g id="Capa_2" data-name="Capa 2"><g id="Capa_1-2" data-name="Capa 1"><text class="cls-1" transform="translate(19.95 34.53)">@</text><path class="cls-2" d="M58.15,26.1l-3-3.05V16.91A7.14,7.14,0,0,0,48,9.8h-6.1L33.72,1.67a5.72,5.72,0,0,0-8.08,0L17.51,9.8h-5.1a7.14,7.14,0,0,0-7.15,7.11v5.14L1.85,25.46A6.29,6.29,0,0,0,.43,27.63,6.36,6.36,0,0,0,0,30L.27,58.15a8.6,8.6,0,0,0,8.57,8.49H51.2a8.81,8.81,0,0,0,8.8-8.8V30.56A6.28,6.28,0,0,0,58.15,26.1Zm-1.27,1.27a4.26,4.26,0,0,1,.92,1.35l-2.7,2.74V25.58ZM26.9,2.94a3.94,3.94,0,0,1,5.56,0L39.32,9.8H20ZM12.41,11.59h28.7l0,0a1.25,1.25,0,0,1,.19,0H48a5.35,5.35,0,0,1,5.36,5.32V33h.24L34,52.79a4.65,4.65,0,0,1-6.6,0L7.05,32.48V16.91A5.35,5.35,0,0,1,12.41,11.59Zm-7.15,13v6.11L2.35,27.78a4.61,4.61,0,0,1,.76-1.05ZM2.06,58.14,1.79,30a1.23,1.23,0,0,1,0-.2L19.12,47.08,3.68,62.41A6.75,6.75,0,0,1,2.06,58.14Zm6.78,6.71A6.75,6.75,0,0,1,5,63.63l15.4-15.28,5.71,5.71a6.47,6.47,0,0,0,9.14,0l5.37-5.42L55.46,63.37a7,7,0,0,1-4.26,1.48Zm47.88-2.74L41.87,47.37,58.21,30.86v27A7,7,0,0,1,56.72,62.11Z"/></g></g></svg>