<svg xmlns="http://www.w3.org/2000/svg" viewBox="0 0 43.48 33.31"><defs><style>.cls-1{fill:#3d64ad;stroke:#feffff;stroke-miterlimit:10;}</style></defs><g id="Capa_2" data-name="Capa 2"><g id="Capa_1-2" data-name="Capa 1"><polygon class="cls-1" points="21.26 0.68 21.62 0.68 21.65 0.68 21.64 0.91 21.23 0.93 21.2 0.8 21.26 0.68"/><path class="cls-1" d="M32,31.09a5.71,5.71,0,0,0,4.84-.91A4.09,4.09,0,0,0,38.28,26a.35.35,0,0,0-.68.19,3.43,3.43,0,0,1-1.3,3.44,5,5,0,0,1-4.15.73c-.45-.1-.64.59-.19.69Z"/><path class="cls-1" d="M40.26,16.18v-.07a2,2,0,0,0-2-2,1.55,1.55,0,0,0-.31.06,13.19,13.19,0,0,0-4.87-9.49A18.05,18.05,0,0,0,21.44.5v0C12.69.5,5.28,6.69,4.92,14.14a2,2,0,0,0-1.7,2v.07a4.7,4.7,0,0,0,0,8.53v.07a2,2,0,0,0,2,2,1.92,1.92,0,0,0,.64-.13,2,2,0,0,0,1.26-1.24,1.86,1.86,0,0,0,.14-.66V16.11a2,2,0,0,0-.61-1.44c-.27-.27-.24-.35-.64-.43C6.39,7.18,13.12,1.66,21.48,1.66a16.56,16.56,0,0,1,10.9,3.86A12.08,12.08,0,0,1,36.9,14.6c-.1.06.09-.08,0,0a2,2,0,0,0-.71,1.51v8.67a1.93,1.93,0,0,0,.22.87,2,2,0,0,0,1.31,1.06,2.1,2.1,0,0,0,.51.1,2,2,0,0,0,2-2v-.07a4.7,4.7,0,0,0,0-8.53Z"/><rect class="cls-1" x="21.15" y="0.77" width="0.59" height="0.19"/><path class="cls-1" d="M30.67,29H25.21a1.9,1.9,0,1,0,0,3.79h5.46a1.91,1.91,0,0,0,1.91-1.9,1.46,1.46,0,0,0,0-.2A1.88,1.88,0,0,0,30.67,29Z"/></g></g></svg>