<svg id="Capa_1" data-name="Capa 1" xmlns="http://www.w3.org/2000/svg" viewBox="0 0 18.8 25.29"><defs><style>.cls-1{fill:#fff;}</style></defs><title>CandadoIngreso</title><path class="cls-1" d="M317.44,387.05v-1.81a7,7,0,0,0-7-7h-.53a7,7,0,0,0-7,7v1.81a2.49,2.49,0,0,0-2.09,2.46V401a2.49,2.49,0,0,0,2.5,2.5H317a2.5,2.5,0,0,0,2.5-2.5V389.51A2.5,2.5,0,0,0,317.44,387.05Zm-5.22,10.31a2.14,2.14,0,0,1-.5.66,2.09,2.09,0,0,1-.73.41,2.45,2.45,0,0,1-.85.15,2.84,2.84,0,0,1-.72-.1,3,3,0,0,1-.63-.27,2.35,2.35,0,0,1-.52-.41,1.63,1.63,0,0,1-.35-.53.55.55,0,0,1,0-.5.61.61,0,0,1,.27-.28.54.54,0,0,1,.45-.05.84.84,0,0,1,.33.26,1.18,1.18,0,0,0,.21.31,1,1,0,0,0,.28.2,1.16,1.16,0,0,0,.34.14,1.52,1.52,0,0,0,.79,0,1.35,1.35,0,0,0,.34-.17.92.92,0,0,0,.24-.28.8.8,0,0,0,.08-.36.47.47,0,0,0-.07-.28.81.81,0,0,0-.23-.22,2.35,2.35,0,0,0-.39-.19l-.5-.17a5.11,5.11,0,0,1-.67-.21h0a2.69,2.69,0,0,1-.65-.35,1.93,1.93,0,0,1-.5-.53,1.56,1.56,0,0,1-.2-.78,1.6,1.6,0,0,1,.2-.79,1.86,1.86,0,0,1,.49-.59,2.41,2.41,0,0,1,.67-.36,2.59,2.59,0,0,1,1.35-.06,2,2,0,0,1,.54.19,1.92,1.92,0,0,1,.47.31,1.78,1.78,0,0,1,.37.45.49.49,0,0,1,0,.41.61.61,0,0,1-.15.26.63.63,0,0,1-.35.16.58.58,0,0,1-.41-.13,1.49,1.49,0,0,0-.52-.42,1.38,1.38,0,0,0-.93-.06,1.11,1.11,0,0,0-.31.15.7.7,0,0,0-.21.21.54.54,0,0,0-.06.27.36.36,0,0,0,.07.24.87.87,0,0,0,.25.21,2.27,2.27,0,0,0,.39.16l.46.12a7.43,7.43,0,0,1,.71.26,2.75,2.75,0,0,1,.65.37,1.69,1.69,0,0,1,.48.55,1.54,1.54,0,0,1,.19.79A1.92,1.92,0,0,1,312.22,397.36Zm4-10.35H304v-1.77a5.84,5.84,0,0,1,5.84-5.83h.53a5.84,5.84,0,0,1,5.84,5.83Z" transform="translate(-300.74 -378.21)"/></svg>