<?xml version="1.0" encoding="UTF-8"?><svg id="Capa_2" xmlns="http://www.w3.org/2000/svg" xmlns:xlink="http://www.w3.org/1999/xlink" viewBox="0 0 32 32"><defs><style>.cls-1{fill:#fff;}.cls-2{fill:#3f61aa;filter:url(#drop-shadow-1);}</style><filter id="drop-shadow-1" filterUnits="userSpaceOnUse"><feOffset dx="2" dy="2"/><feGaussianBlur result="blur" stdDeviation="2"/><feFlood flood-color="#000" flood-opacity=".3"/><feComposite in2="blur" operator="in"/><feComposite in="SourceGraphic"/></filter></defs><g id="Capa_1-2"><g><circle class="cls-2" cx="14.12" cy="14.15" r="9.48"/><g id="aKtAYa.tif"><g><path class="cls-1" d="M19.05,10.93c-.09,.23-.17,.28-.41,.28-3.02,0-6.05,0-9.07,0-.32,0-.46-.19-.36-.49,.07-.22,.14-.43,.22-.64,.09-.26,.26-.39,.54-.39,2.76,0,5.53,0,8.29,0,.28,0,.44,.11,.54,.38,.09,.26,.17,.52,.26,.79v.07Z"/><path class="cls-1" d="M15.39,7.81c.2,.07,.37,.18,.47,.38,.12,.23,.08,.47,.08,.7,0,.05-.04,.06-.08,.06-.21,0-.41,0-.62,0-.08,0-.09-.05-.09-.12q-.02-.25-.27-.25c-.56,0-1.11,0-1.67,0-.11,0-.15,.03-.14,.14,0,.03,0,.06,0,.09,.01,.11-.04,.15-.14,.14-.18,0-.36,0-.54,0-.08,0-.12-.03-.12-.12,0-.13,0-.26,0-.38,.04-.33,.24-.53,.54-.64h2.57Z"/><path class="cls-1" d="M14.11,11.94c1.15,0,2.3,0,3.45,0,.07,0,.13,0,.2,.02,.19,.03,.3,.16,.29,.35-.01,.27-.03,.53-.06,.8-.03,.35-.06,.7-.09,1.06-.04,.48-.08,.97-.12,1.45-.03,.34-.05,.67-.08,1.01-.04,.48-.08,.96-.12,1.44-.03,.34-.05,.69-.08,1.03-.02,.25-.02,.49-.07,.74-.07,.39-.39,.65-.79,.65-1.67,0-3.34,0-5,0-.4,0-.84-.27-.88-.83-.05-.69-.11-1.39-.17-2.08-.04-.46-.07-.93-.11-1.39-.05-.56-.1-1.11-.14-1.67-.04-.46-.07-.92-.11-1.38-.02-.24-.04-.48-.07-.72-.03-.29,.11-.47,.41-.48,.35,0,.71,0,1.06,0,.82,0,1.64,0,2.46,0Zm-1.51,7.18c-.02-.34-.05-.73-.07-1.11-.04-.66-.08-1.33-.12-1.99-.04-.74-.09-1.49-.13-2.23-.01-.21-.03-.41-.05-.61-.01-.15-.12-.27-.26-.31-.27-.07-.48,.14-.46,.46,.05,.64,.08,1.29,.12,1.93,.02,.29,.03,.58,.05,.87,.04,.63,.08,1.26,.12,1.88,.02,.31,.03,.62,.06,.92,.02,.16,0,.31,.04,.47,.05,.15,.17,.26,.34,.27,.13,0,.29-.09,.34-.22,.04-.09,.02-.19,.02-.33Zm3.05-.01c0,.13-.02,.24,.02,.34,.06,.14,.23,.24,.37,.22,.2-.03,.32-.16,.33-.37,.04-.59,.07-1.18,.1-1.77,.02-.34,.04-.69,.06-1.03,.04-.64,.08-1.28,.12-1.92,.02-.37,.05-.74,.07-1.11,0-.11,.02-.23,0-.34-.04-.16-.22-.29-.37-.27-.2,.02-.33,.16-.34,.36-.02,.34-.04,.67-.06,1.01-.04,.66-.08,1.33-.12,1.99-.02,.32-.04,.63-.05,.95-.04,.66-.08,1.32-.12,1.95Zm-1.17-2.85c0-.97,0-1.94,0-2.92,0-.06,0-.12,0-.19-.02-.2-.23-.34-.42-.3-.21,.05-.3,.19-.3,.44,0,1.97,0,3.94,0,5.91,0,.04,0,.08,0,.12,.04,.24,.24,.38,.47,.31,.17-.04,.26-.18,.26-.4,0-1,0-1.99,0-2.99Z"/></g></g></g></g></svg>