<svg id="Capa_1" data-name="Capa 1" xmlns="http://www.w3.org/2000/svg" viewBox="0 0 47.34 33.2"><defs><style>.cls-1,.cls-3{fill:#36c;stroke:#fdfeff;stroke-width:1.18px;}.cls-1,.cls-3,.cls-5{stroke-miterlimit:10;}.cls-1{opacity:0.36;}.cls-2{fill:#fdfeff;opacity:0.37;}.cls-4,.cls-5{fill:#fff;}.cls-5{stroke:#36c;stroke-width:0.75px;}</style></defs><title>Seccion4 bototon2</title><rect class="cls-1" x="0.59" y="0.59" width="21.79" height="29.8" rx="4.36"/><path class="cls-2" d="M293.58,388.38a4.77,4.77,0,0,1,1.34-1.22,5.91,5.91,0,0,1,1.17-.51h-9a.91.91,0,1,0,0,1.81h6.36Z" transform="translate(-281.98 -379.4)"/><path class="cls-2" d="M292.42,390.56a2.18,2.18,0,0,1,.15-.66,2.23,2.23,0,0,1,.19-.51H287.1a.91.91,0,1,0,0,1.81h5.28A2.32,2.32,0,0,1,292.42,390.56Z" transform="translate(-281.98 -379.4)"/><rect class="cls-3" x="11.32" y="8.16" width="29.21" height="22.23" rx="3.97"/><polygon class="cls-4" points="30.1 19.27 26.6 21.3 23.1 23.32 23.1 19.27 23.1 15.23 26.6 17.25 30.1 19.27"/><path class="cls-5" d="M324.87,407.15l0-4.15a.9.9,0,0,0-1.36-.77l-3.58,2.11-.33.2v-.31a1,1,0,0,0-1-1h-.34a1,1,0,0,0-1,1v5.86a1,1,0,0,0,1,1h.34a1,1,0,0,0,1-1v-.25l.39.22,3.62,2.05a.9.9,0,0,0,1.34-.8Z" transform="translate(-281.98 -379.4)"/><path class="cls-2" d="M287.1,404.53h5.2v-1.81h-5.2a.91.91,0,1,0,0,1.81Z" transform="translate(-281.98 -379.4)"/><path class="cls-2" d="M287.1,401.6h5.2v-1.81h-5.2a.91.91,0,1,0,0,1.81Z" transform="translate(-281.98 -379.4)"/><path class="cls-2" d="M287.1,398.67h5.2v-1.81h-5.2a.91.91,0,1,0,0,1.81Z" transform="translate(-281.98 -379.4)"/><path class="cls-4" d="M326.2,405a5,5,0,0,1,.06,3.56.36.36,0,0,0,.24.43.36.36,0,0,0,.43-.24,5.54,5.54,0,0,0-.06-3.93.36.36,0,0,0-.43-.25.36.36,0,0,0-.24.43Z" transform="translate(-281.98 -379.4)"/><path class="cls-4" d="M327.66,403.21a7.55,7.55,0,0,1,.16,7.08c-.21.39.45.62.65.23a8.19,8.19,0,0,0-.19-7.62c-.22-.38-.84-.08-.62.31Z" transform="translate(-281.98 -379.4)"/></svg>