<svg xmlns="http://www.w3.org/2000/svg" viewBox="0 0 48.01 47.18"><defs><style>.cls-1{fill:#3c63ab;}.cls-2{fill:none;stroke:#3c63ab;stroke-miterlimit:10;}</style></defs><g id="Capa_2" data-name="Capa 2"><g id="Capa_1-2" data-name="Capa 1"><path class="cls-1" d="M43.65,14.34a21.85,21.85,0,0,1,2,9.25,22.12,22.12,0,1,1-10.5-18.8,6.19,6.19,0,0,1,.61-1l-.46.59c.2-.29.41-.55.62-.81l0-.06a23.62,23.62,0,1,0,9,10.14A4.39,4.39,0,0,1,43.65,14.34Z"/><path class="cls-1" d="M29.65,34.94h-.82a.75.75,0,0,1,0-1.5h.82a2.5,2.5,0,0,0,2.5-2.5V19.87a3.26,3.26,0,0,0-3.27-3.27H16.54a3.26,3.26,0,0,0-3.27,3.27V31.21a2.23,2.23,0,0,0,2.23,2.23h1.09a.75.75,0,1,1,0,1.5H15.5a3.73,3.73,0,0,1-3.73-3.73V19.87a4.78,4.78,0,0,1,4.77-4.77H28.88a4.78,4.78,0,0,1,4.77,4.77V30.94A4,4,0,0,1,29.65,34.94Z"/><rect class="cls-1" x="21.01" y="28.99" width="2.72" height="8.83" rx="1.36"/><rect class="cls-1" x="17.61" y="32.39" width="2.72" height="5.44" rx="1.36"/><rect class="cls-1" x="24.41" y="26.95" width="2.72" height="10.87" rx="1.36"/><circle class="cls-2" cx="40.56" cy="8.12" r="6.95"/><path class="cls-1" d="M45.61,7.05V9.17H35.51V7.05ZM41.72,2.86V13.38h-2.3V2.86Z"/></g></g></svg>