<svg id="Capa_1" data-name="Capa 1" xmlns="http://www.w3.org/2000/svg" viewBox="0 0 45.68 35.67"><defs><style>.cls-1{fill:none;stroke:#fff;opacity:0.36;}.cls-1,.cls-2{stroke-miterlimit:10;}.cls-2{fill:#36c;stroke:#fdfeff;}.cls-3,.cls-4,.cls-5{fill:#f2f2f2;}.cls-4,.cls-8{opacity:0.6;}.cls-5,.cls-6{opacity:0.35;}.cls-6,.cls-7,.cls-8{fill:#fff;}</style></defs><title>Se3Boton</title><rect class="cls-1" x="2.3" y="0.5" width="42.88" height="32.35" rx="5.8"/><rect class="cls-2" x="0.5" y="4.51" width="40.29" height="30.66" rx="5.47"/><circle class="cls-3" cx="33.35" cy="19.84" r="2.68"/><circle class="cls-4" cx="33.35" cy="12.81" r="2.68"/><circle class="cls-5" cx="33.35" cy="26.87" r="2.68"/><rect class="cls-6" x="301.73" y="389.42" width="3.76" height="24.32" rx="0.87" transform="translate(324.23 424.98) rotate(180)"/><rect class="cls-7" x="296.61" y="393.75" width="3.76" height="19.98" rx="0.79" transform="translate(313.99 429.32) rotate(180)"/><rect class="cls-8" x="291.08" y="396.66" width="3.76" height="17.07" rx="0.73" transform="translate(302.93 432.23) rotate(180)"/><path class="cls-7" d="M289.88,395.16c4.19-1.93,8.34-4.25,11.29-7.88.3-.37-.23-.9-.53-.53-2.92,3.59-7,5.86-11.14,7.77-.44.2-.05.84.38.64Z" transform="translate(-282.99 -378.16)"/><path class="cls-7" d="M297.67,387.37l1.75.06a3.93,3.93,0,0,0,1.56-.16.38.38,0,0,0,.26-.46.37.37,0,0,0-.46-.26,3.44,3.44,0,0,1-1.43.12l-1.68-.05c-.48,0-.48.73,0,.75Z" transform="translate(-282.99 -378.16)"/><path class="cls-7" d="M300.53,387a9.5,9.5,0,0,0-.18,3,.38.38,0,0,0,.37.37.38.38,0,0,0,.38-.37,8.9,8.9,0,0,1,.15-2.82.37.37,0,1,0-.72-.19Z" transform="translate(-282.99 -378.16)"/></svg>