<svg id="Capa_1" data-name="Capa 1" xmlns="http://www.w3.org/2000/svg" viewBox="0 0 77.53 46.93"><defs><style>.cls-1{fill:#36c;}</style></defs><title>crear usuario</title><path class="cls-1" d="M303.23,401a15.45,15.45,0,1,1,15.45-15.45A15.46,15.46,0,0,1,303.23,401Zm0-29.92a14.47,14.47,0,1,0,14.48,14.47A14.48,14.48,0,0,0,303.23,371.05Z" transform="translate(-264.53 -370.07)"/><path class="cls-1" d="M311.33,383.81v3.39H295.14v-3.39Zm-6.24-6.73V394H301.4V377.08Z" transform="translate(-264.53 -370.07)"/><path class="cls-1" d="M271.39,414.86a3.4,3.4,0,0,1-.72,1.15,3.05,3.05,0,0,1-1.1.74,3.59,3.59,0,0,1-1.37.25,3.72,3.72,0,0,1-1.95-.49A3.4,3.4,0,0,1,265,415.1a5.48,5.48,0,0,1,0-4.35,3.29,3.29,0,0,1,1.27-1.41,3.67,3.67,0,0,1,1.93-.5,4.09,4.09,0,0,1,1.36.21,2.7,2.7,0,0,1,1,.63,3,3,0,0,1,.68,1l-.95.45a2.2,2.2,0,0,0-.76-1,2.14,2.14,0,0,0-1.29-.36,2.67,2.67,0,0,0-1.42.38,2.54,2.54,0,0,0-.95,1.09,3.86,3.86,0,0,0-.34,1.71,4,4,0,0,0,.32,1.71,2.51,2.51,0,0,0,.92,1.1,2.64,2.64,0,0,0,1.42.37,2.36,2.36,0,0,0,1.38-.4,2.24,2.24,0,0,0,.85-1.2Z" transform="translate(-264.53 -370.07)"/><path class="cls-1" d="M273.06,416.88v-6h.78l.13,1a1.77,1.77,0,0,1,.74-.83,2.39,2.39,0,0,1,1.18-.28l.34,0a.93.93,0,0,1,.32.09l-.17.88a1.15,1.15,0,0,0-.28-.07,2.64,2.64,0,0,0-.45,0,1.54,1.54,0,0,0-.75.22,1.71,1.71,0,0,0-.63.65,2.22,2.22,0,0,0-.25,1.11v3.24Z" transform="translate(-264.53 -370.07)"/><path class="cls-1" d="M279,416.63a2.7,2.7,0,0,1-1-1.08,3.52,3.52,0,0,1-.37-1.67,3.58,3.58,0,0,1,.36-1.65,2.62,2.62,0,0,1,1-1.09,2.88,2.88,0,0,1,1.48-.38,2.7,2.7,0,0,1,1.42.36,2.29,2.29,0,0,1,.92,1,3,3,0,0,1,.32,1.39c0,.13,0,.25,0,.36a2.51,2.51,0,0,1,0,.31h-4.85v-.85h4.43l-.51.37a2,2,0,0,0-.38-1.52,1.63,1.63,0,0,0-1.32-.56,1.84,1.84,0,0,0-1,.27,1.72,1.72,0,0,0-.66.79,2.85,2.85,0,0,0-.24,1.22,2.9,2.9,0,0,0,.24,1.23,1.75,1.75,0,0,0,.69.78,1.94,1.94,0,0,0,1,.27,2.13,2.13,0,0,0,1.06-.24,1.88,1.88,0,0,0,.68-.69l.76.44a2.52,2.52,0,0,1-1,1,3,3,0,0,1-1.49.35A3,3,0,0,1,279,416.63Z" transform="translate(-264.53 -370.07)"/><path class="cls-1" d="M288,412a1.38,1.38,0,0,0-1-.37,1.86,1.86,0,0,0-1.06.29,1.55,1.55,0,0,0-.63.85l-.78-.48a2.09,2.09,0,0,1,.9-1.09,3,3,0,0,1,1.6-.41,2.55,2.55,0,0,1,1.67.53,1.83,1.83,0,0,1,.64,1.53v2.9c0,.29.16.43.46.43a1.61,1.61,0,0,0,.44-.06l0,.76a1.41,1.41,0,0,1-.63.12,1.26,1.26,0,0,1-.88-.31,1.14,1.14,0,0,1-.32-.9l.23-.09a1.73,1.73,0,0,1-.48.75,2.18,2.18,0,0,1-.77.44,2.64,2.64,0,0,1-.87.14,2.32,2.32,0,0,1-1.42-.42,1.42,1.42,0,0,1-.56-1.21,1.45,1.45,0,0,1,.44-1.1,2.48,2.48,0,0,1,1.26-.6l2.38-.47V414l-1.94.4a2.33,2.33,0,0,0-.88.34.69.69,0,0,0-.28.59.74.74,0,0,0,.3.61,1.3,1.3,0,0,0,.83.23,2.3,2.3,0,0,0,.88-.16,1.56,1.56,0,0,0,.65-.51,1.38,1.38,0,0,0,.24-.83V413A1.41,1.41,0,0,0,288,412Z" transform="translate(-264.53 -370.07)"/><path class="cls-1" d="M291.67,416.88v-6h.78l.13,1a1.77,1.77,0,0,1,.74-.83,2.42,2.42,0,0,1,1.18-.28l.35,0a.87.87,0,0,1,.31.09l-.16.88a1.37,1.37,0,0,0-.29-.07,2.56,2.56,0,0,0-.45,0,1.6,1.6,0,0,0-.75.22,1.71,1.71,0,0,0-.63.65,2.33,2.33,0,0,0-.25,1.11v3.24Z" transform="translate(-264.53 -370.07)"/><path class="cls-1" d="M302.83,417a2.81,2.81,0,0,1-1.08-.21,1.88,1.88,0,0,1-.83-.7,2.32,2.32,0,0,1-.32-1.27v-3.94h1v3.69a1.57,1.57,0,0,0,.4,1.25,1.62,1.62,0,0,0,1.11.34,1.83,1.83,0,0,0,.66-.11,1.66,1.66,0,0,0,.58-.36,1.57,1.57,0,0,0,.41-.63,2.52,2.52,0,0,0,.15-.91v-3.27h1v6H305l-.06-.91a1.93,1.93,0,0,1-.84.79A3.08,3.08,0,0,1,302.83,417Z" transform="translate(-264.53 -370.07)"/><path class="cls-1" d="M308.6,416.63a2.84,2.84,0,0,1-1.12-1.05l.81-.59a2.06,2.06,0,0,0,.78.87,2.4,2.4,0,0,0,1.22.3,1.83,1.83,0,0,0,1-.24.76.76,0,0,0,.36-.64.72.72,0,0,0-.17-.48,1.12,1.12,0,0,0-.61-.29l-1.44-.3a2.29,2.29,0,0,1-1.24-.6,1.45,1.45,0,0,1-.39-1.05,1.58,1.58,0,0,1,.29-.9,2,2,0,0,1,.81-.65,3,3,0,0,1,1.22-.25,3,3,0,0,1,1.49.35,2.15,2.15,0,0,1,.92,1l-.81.52a1.44,1.44,0,0,0-.63-.76,1.93,1.93,0,0,0-1-.26,2.09,2.09,0,0,0-.74.12,1.11,1.11,0,0,0-.47.33.75.75,0,0,0-.16.48.68.68,0,0,0,.2.5,1.16,1.16,0,0,0,.65.3l1.5.31a2.37,2.37,0,0,1,1.16.54,1.36,1.36,0,0,1,.35.95,1.63,1.63,0,0,1-.66,1.36,2.74,2.74,0,0,1-1.73.51A3.51,3.51,0,0,1,308.6,416.63Z" transform="translate(-264.53 -370.07)"/><path class="cls-1" d="M316.56,417a2.86,2.86,0,0,1-1.09-.21,1.85,1.85,0,0,1-.82-.7,2.24,2.24,0,0,1-.32-1.27v-3.94h1v3.69a1.61,1.61,0,0,0,.39,1.25,1.67,1.67,0,0,0,1.12.34,1.91,1.91,0,0,0,.66-.11,1.66,1.66,0,0,0,.58-.36,1.68,1.68,0,0,0,.41-.63,2.52,2.52,0,0,0,.15-.91v-3.27h1v6h-.84l-.06-.91a1.91,1.91,0,0,1-.85.79A3,3,0,0,1,316.56,417Z" transform="translate(-264.53 -370.07)"/><path class="cls-1" d="M324.94,412a1.38,1.38,0,0,0-1-.37,1.87,1.87,0,0,0-1.07.29,1.55,1.55,0,0,0-.63.85l-.78-.48a2.09,2.09,0,0,1,.9-1.09,3,3,0,0,1,1.6-.41,2.53,2.53,0,0,1,1.67.53,1.83,1.83,0,0,1,.65,1.53v2.9c0,.29.15.43.45.43a1.74,1.74,0,0,0,.45-.06l-.05.76a1.41,1.41,0,0,1-.63.12,1.27,1.27,0,0,1-.88-.31,1.18,1.18,0,0,1-.32-.9l.23-.09a1.57,1.57,0,0,1-.48.75,2.18,2.18,0,0,1-.77.44,2.64,2.64,0,0,1-.87.14,2.32,2.32,0,0,1-1.42-.42,1.59,1.59,0,0,1-.12-2.31,2.48,2.48,0,0,1,1.26-.6l2.38-.47V414l-1.94.4a2.33,2.33,0,0,0-.88.34.69.69,0,0,0-.28.59.74.74,0,0,0,.3.61,1.3,1.3,0,0,0,.83.23,2.3,2.3,0,0,0,.88-.16,1.56,1.56,0,0,0,.65-.51,1.38,1.38,0,0,0,.24-.83V413A1.41,1.41,0,0,0,324.94,412Z" transform="translate(-264.53 -370.07)"/><path class="cls-1" d="M328.58,416.88v-6h.78l.14,1a1.7,1.7,0,0,1,.73-.83,2.43,2.43,0,0,1,1.19-.28l.34,0a1,1,0,0,1,.32.09l-.17.88a1.37,1.37,0,0,0-.29-.07,2.44,2.44,0,0,0-.44,0,1.54,1.54,0,0,0-.75.22,1.67,1.67,0,0,0-.64.65,2.33,2.33,0,0,0-.25,1.11v3.24Z" transform="translate(-264.53 -370.07)"/><path class="cls-1" d="M334,409.73a.69.69,0,0,1-.72-.72.68.68,0,0,1,.2-.52.7.7,0,0,1,.52-.2.69.69,0,0,1,.72.72.7.7,0,0,1-.2.52A.68.68,0,0,1,334,409.73Zm.48,1.15v6h-1v-6Z" transform="translate(-264.53 -370.07)"/><path class="cls-1" d="M339.15,410.76a3,3,0,0,1,1.51.38,2.54,2.54,0,0,1,1,1.07,4,4,0,0,1,0,3.35,2.59,2.59,0,0,1-1,1.07,3,3,0,0,1-1.51.37,3,3,0,0,1-1.5-.37,2.59,2.59,0,0,1-1-1.07,4,4,0,0,1,0-3.35,2.54,2.54,0,0,1,1-1.07A3,3,0,0,1,339.15,410.76Zm0,.83a1.86,1.86,0,0,0-1,.28,1.69,1.69,0,0,0-.66.78,2.87,2.87,0,0,0-.24,1.23,2.9,2.9,0,0,0,.24,1.23,1.72,1.72,0,0,0,.66.79,2.09,2.09,0,0,0,2.09,0,1.8,1.8,0,0,0,.67-.79,3.07,3.07,0,0,0,.23-1.23,3,3,0,0,0-.23-1.23,1.77,1.77,0,0,0-.67-.78A1.87,1.87,0,0,0,339.15,411.59Z" transform="translate(-264.53 -370.07)"/></svg>