<svg version="1.1" viewBox="0 0 13 13" xmlns="http://www.w3.org/2000/svg">
	<defs>
		<style>.cls-1{fill:#fff;}.cls-2{fill:#3f61aa;filter:url(#a);}</style>
		<filter id="a" filterUnits="userSpaceOnUse">
			<feOffset dx="2" dy="2"/>
			<feGaussianBlur result="blur" stdDeviation="2"/>
			<feFlood flood-opacity=".3"/>
			<feComposite in2="blur" operator="in" result="result1"/>
			<feComposite in="SourceGraphic" in2="result1"/>
		</filter>
	</defs>
	<g transform="translate(-7.6191 -7.65)" style="fill:#fff">
		<g style="fill:#fff">
			<path class="cls-1" d="m19.05 10.93c-0.09 0.23-0.17 0.28-0.41 0.28h-9.07c-0.32 0-0.46-0.19-0.36-0.49 0.07-0.22 0.14-0.43 0.22-0.64 0.09-0.26 0.26-0.39 0.54-0.39h8.29c0.28 0 0.44 0.11 0.54 0.38 0.09 0.26 0.17 0.52 0.26 0.79v0.07z" style="fill:#fff"/>
			<path class="cls-1" d="m15.39 7.81c0.2 0.07 0.37 0.18 0.47 0.38 0.12 0.23 0.08 0.47 0.08 0.7 0 0.05-0.04 0.06-0.08 0.06h-0.62c-0.08 0-0.09-0.05-0.09-0.12q-0.02-0.25-0.27-0.25h-1.67c-0.11 0-0.15 0.03-0.14 0.14v0.09c0.01 0.11-0.04 0.15-0.14 0.14h-0.54c-0.08 0-0.12-0.03-0.12-0.12v-0.38c0.04-0.33 0.24-0.53 0.54-0.64h2.57z" style="fill:#fff"/>
			<path class="cls-1" d="m14.11 11.94h3.45c0.07 0 0.13 0 0.2 0.02 0.19 0.03 0.3 0.16 0.29 0.35-0.01 0.27-0.03 0.53-0.06 0.8-0.03 0.35-0.06 0.7-0.09 1.06-0.04 0.48-0.08 0.97-0.12 1.45-0.03 0.34-0.05 0.67-0.08 1.01l-0.12 1.44c-0.03 0.34-0.05 0.69-0.08 1.03-0.02 0.25-0.02 0.49-0.07 0.74-0.07 0.39-0.39 0.65-0.79 0.65h-5c-0.4 0-0.84-0.27-0.88-0.83-0.05-0.69-0.11-1.39-0.17-2.08-0.04-0.46-0.07-0.93-0.11-1.39-0.05-0.56-0.1-1.11-0.14-1.67-0.04-0.46-0.07-0.92-0.11-1.38-0.02-0.24-0.04-0.48-0.07-0.72-0.03-0.29 0.11-0.47 0.41-0.48h1.06 2.46zm-1.51 7.18c-0.02-0.34-0.05-0.73-0.07-1.11-0.04-0.66-0.08-1.33-0.12-1.99-0.04-0.74-0.09-1.49-0.13-2.23-0.01-0.21-0.03-0.41-0.05-0.61-0.01-0.15-0.12-0.27-0.26-0.31-0.27-0.07-0.48 0.14-0.46 0.46 0.05 0.64 0.08 1.29 0.12 1.93 0.02 0.29 0.03 0.58 0.05 0.87 0.04 0.63 0.08 1.26 0.12 1.88 0.02 0.31 0.03 0.62 0.06 0.92 0.02 0.16 0 0.31 0.04 0.47 0.05 0.15 0.17 0.26 0.34 0.27 0.13 0 0.29-0.09 0.34-0.22 0.04-0.09 0.02-0.19 0.02-0.33zm3.05-0.01c0 0.13-0.02 0.24 0.02 0.34 0.06 0.14 0.23 0.24 0.37 0.22 0.2-0.03 0.32-0.16 0.33-0.37 0.04-0.59 0.07-1.18 0.1-1.77 0.02-0.34 0.04-0.69 0.06-1.03l0.12-1.92c0.02-0.37 0.05-0.74 0.07-1.11 0-0.11 0.02-0.23 0-0.34-0.04-0.16-0.22-0.29-0.37-0.27-0.2 0.02-0.33 0.16-0.34 0.36-0.02 0.34-0.04 0.67-0.06 1.01-0.04 0.66-0.08 1.33-0.12 1.99-0.02 0.32-0.04 0.63-0.05 0.95-0.04 0.66-0.08 1.32-0.12 1.95zm-1.17-2.85v-2.92-0.19c-0.02-0.2-0.23-0.34-0.42-0.3-0.21 0.05-0.3 0.19-0.3 0.44v5.91 0.12c0.04 0.24 0.24 0.38 0.47 0.31 0.17-0.04 0.26-0.18 0.26-0.4v-2.99z" style="fill:#fff"/>
		</g>
	</g>
</svg>
