<svg id="Capa_1" data-name="Capa 1" xmlns="http://www.w3.org/2000/svg" viewBox="0 0 19.67 25.57"><defs><style>.cls-1,.cls-2{fill:#fff;}.cls-2{stroke:#fff;stroke-miterlimit:10;stroke-width:0.24px;}</style></defs><title>2</title><path class="cls-1" d="M315.68,385.81l-.11,0v21.26a1.49,1.49,0,0,1-1.49,1.49H297.9a1.49,1.49,0,0,1-1.48-1.49V385a1.49,1.49,0,0,1,1.48-1.49H313a1.72,1.72,0,0,0,.57,1,1.5,1.5,0,0,0,.92,1,1.59,1.59,0,0,0,.79.28l.25,0a.83.83,0,0,1-.35-.32,1.24,1.24,0,0,1-.55-.21l0,0a1.3,1.3,0,0,1-.8-.86v0l0,0a1.4,1.4,0,0,1-.38-.52.68.68,0,0,1-.27-.23l-.09-.06a1.32,1.32,0,0,1-.19-.29H297.9a1.74,1.74,0,0,0-1.73,1.74v22.09a1.74,1.74,0,0,0,1.73,1.74h16.18a1.74,1.74,0,0,0,1.74-1.74V385.86Z" transform="translate(-296.17 -383.21)"/><polygon class="cls-2" points="18.86 2.54 19.36 2.54 16.81 0.27 16.81 2.54 18.86 2.54"/><polygon class="cls-1" points="10.3 12.69 10.3 12.69 10.3 12.69 10.3 12.69"/><path class="cls-1" d="M302.85,399.52a3.61,3.61,0,0,0,3.51,3.61v-7.22A3.61,3.61,0,0,0,302.85,399.52Z" transform="translate(-296.17 -383.21)"/><polygon class="cls-1" points="10.3 19.92 10.3 19.92 10.3 19.92 10.3 19.92"/><path class="cls-1" d="M310.08,399.52a3.61,3.61,0,0,0-.74-2.18l-2.76,2.76v3A3.61,3.61,0,0,0,310.08,399.52Z" transform="translate(-296.17 -383.21)"/><path class="cls-1" d="M309.2,397.17a3.58,3.58,0,0,0-2.62-1.26v3.88Z" transform="translate(-296.17 -383.21)"/><rect class="cls-1" x="3.82" y="6.37" width="12.95" height="0.82"/><rect class="cls-1" x="3.82" y="7.66" width="12.95" height="0.82"/><rect class="cls-1" x="3.82" y="9.1" width="12.95" height="0.82"/></svg>