<svg id="Capa_1" data-name="Capa 1" xmlns="http://www.w3.org/2000/svg" viewBox="0 0 19.4 25.32"><defs><style>.cls-1{fill:#fff;}.cls-2{fill:#69f;}.cls-3{fill:none;stroke:#fff;stroke-miterlimit:10;stroke-width:0.22px;}</style></defs><title>diagnostico</title><path class="cls-1" d="M444.1,188.24a1.42,1.42,0,0,1-.75-.28,1.37,1.37,0,0,1-.87-.93,1.62,1.62,0,0,1-.57-1s0,0,0,0H426.7a1.63,1.63,0,0,0-1.62,1.62v22.09a1.62,1.62,0,0,0,1.62,1.61h16.17a1.62,1.62,0,0,0,1.61-1.61V188.3h0A2.07,2.07,0,0,1,444.1,188.24Z" transform="translate(-425.08 -185.96)"/><polygon class="cls-2" points="18.88 2.37 19.4 2.37 16.74 0 16.74 2.37 18.88 2.37"/><circle class="cls-2" cx="10.18" cy="16.17" r="3.62"/><polyline class="cls-3" points="10.18 16.17 10.18 12.55 10.18 19.79"/><polyline class="cls-3" points="10.71 16.17 13.27 13.62 10.18 16.71"/><rect class="cls-2" x="3.7" y="6.24" width="12.95" height="0.82"/><rect class="cls-2" x="3.7" y="7.53" width="12.95" height="0.82"/><rect class="cls-2" x="3.7" y="8.97" width="12.95" height="0.82"/></svg>