<svg id="Capa_1" data-name="Capa 1" xmlns="http://www.w3.org/2000/svg" viewBox="0 0 18.4 33.8"><defs><style>.cls-1{fill:#36c;stroke:#fdfeff;stroke-miterlimit:10;}</style></defs><title>Seccion5 boton1</title><path class="cls-1" d="M297.28,383.12a14.23,14.23,0,0,1,1.62-1.31,10.81,10.81,0,0,1,1.91-1.1,11.34,11.34,0,0,1,2.24-.77,12,12,0,0,1,2.63-.33,10.82,10.82,0,0,1,3.54.43,7.72,7.72,0,0,1,2.76,1.44,6.64,6.64,0,0,1,1.83,2.33,7.6,7.6,0,0,1,.71,3.11,8.05,8.05,0,0,1-.4,2.94A7.89,7.89,0,0,1,313,392a9.71,9.71,0,0,1-1.56,1.63l-1.61,1.3a14.49,14.49,0,0,0-1.31,1.19,2.32,2.32,0,0,0-.64,1.3l-.41,3.26-3.75.11-.49-3.61c0-.07,0-.14,0-.19v-.19a3,3,0,0,1,.44-1.71,6.87,6.87,0,0,1,1.18-1.39c.47-.44,1-.86,1.54-1.28a14.08,14.08,0,0,0,1.54-1.34,6.75,6.75,0,0,0,1.17-1.63,4.27,4.27,0,0,0,.43-2.1,3.24,3.24,0,0,0-.35-1.42,3.17,3.17,0,0,0-.86-1.06,3.64,3.64,0,0,0-1.3-.67,5.27,5.27,0,0,0-1.61-.19,7.1,7.1,0,0,0-2.14.34,7.84,7.84,0,0,0-1.47.66c-.4.24-.74.46-1,.65a1.34,1.34,0,0,1-.75.3,1.2,1.2,0,0,1-1.17-.63Zm5,26.05a3.45,3.45,0,0,1,.21-1.32,3.15,3.15,0,0,1,.68-1.08,3.51,3.51,0,0,1,1.06-.75,3.49,3.49,0,0,1,2.64-.08,3.66,3.66,0,0,1,1.09.68,3.49,3.49,0,0,1,.74,1.05,3.21,3.21,0,0,1,.3,1.3,3.11,3.11,0,0,1-.23,1.33,3.51,3.51,0,0,1-.67,1.08,3.46,3.46,0,0,1-1.05.73,3.38,3.38,0,0,1-1.3.29,3.53,3.53,0,0,1-1.34-.22,3.29,3.29,0,0,1-1.1-.66,3.23,3.23,0,0,1-.74-1A3.35,3.35,0,0,1,302.25,409.17Z" transform="translate(-296.63 -379.1)"/></svg>