<?xml version="1.0" encoding="UTF-8"?><svg id="Capa_2" xmlns="http://www.w3.org/2000/svg" viewBox="0 0 19.53 19.53"><defs><style>.cls-1{fill:#3d65b1;}</style></defs><g id="Capa_1-2"><g id="_gfVzm.tif"><g><path class="cls-1" d="M0,5.7c4.15,0,8.31,0,12.46-.01,1.18,0,2.36-.02,3.54-.03,.28,0,.28,0,.28,.27,0,.5,0,1,0,1.51,0,.21-.02,.23-.22,.17-.6-.17-1.21-.25-1.82-.25-1.43,.01-2.76,.4-3.93,1.23-1.66,1.18-2.64,2.78-2.91,4.8-.12,.91-.05,1.81,.19,2.7,.06,.2,.05,.22-.17,.22-.69,0-1.38,0-2.08,0-1.26,0-2.53,0-3.79,.03-.82,.02-1.39-.37-1.56-1.15V5.7Z"/><path class="cls-1" d="M13.65,19.53c-.65-.1-1.28-.26-1.86-.58-1.57-.86-2.54-2.17-2.8-3.95-.43-2.93,1.58-5.59,4.51-6.01,2.93-.42,5.63,1.66,6,4.61,.36,2.87-1.69,5.52-4.56,5.9-.04,0-.07,.02-.11,.03h-1.18Zm-1.64-5.67c-.24,0-.46,.13-.55,.35-.11,.26-.04,.49,.15,.68,.45,.46,.9,.91,1.36,1.36,.31,.3,.66,.28,.94-.05,.54-.62,1.08-1.25,1.62-1.87,.32-.37,.65-.75,.97-1.13,.2-.23,.19-.55,0-.77-.18-.21-.48-.26-.73-.13-.14,.07-.23,.2-.33,.32-.65,.75-1.3,1.49-1.95,2.25-.09,.1-.15,.11-.24,.01-.26-.27-.53-.53-.79-.8-.13-.13-.28-.22-.47-.22Z"/><path class="cls-1" d="M14.37,4.49c-1.66,.02-3.33,.03-4.99,.03-.19,0-.28-.03-.3-.25-.1-1.23-.22-2.45-.34-3.68-.01-.15-.02-.29-.04-.44-.02-.12,.04-.15,.15-.15,1.34,0,2.68-.01,4.02,.01,.47,0,.81,.31,1.04,.71,.48,.84,.94,1.68,1.42,2.53,.19,.34,.38,.69,.57,1.03,.11,.2,.11,.21-.13,.21-.47,0-.94,0-1.41,0Z"/><path class="cls-1" d="M3.67,4.53c-1.07,0-2.15,0-3.22,0-.22,0-.23-.02-.12-.21C.98,3.13,1.63,1.95,2.29,.77,2.56,.27,3,.02,3.56,.01c1.24-.01,2.49,0,3.73,0,.21,0,.23,.02,.21,.23-.07,.8-.14,1.59-.21,2.39-.05,.57-.11,1.15-.15,1.72-.01,.18-.13,.18-.25,.18-1.07,0-2.15,0-3.22,0h0Z"/></g></g></g></svg>