<?xml version="1.0" encoding="UTF-8"?><svg id="Capa_2" xmlns="http://www.w3.org/2000/svg" viewBox="0 0 16.69 16.69"><defs><style>.cls-1{fill:#fff;}.cls-2{fill:#3d65b1;}</style></defs><g id="Capa_1-2"><g><circle class="cls-1" cx="8.34" cy="8.34" r="8.34"/><path class="cls-2" d="M7.1,10.21v-.43c0-.33,.04-.62,.12-.87,.08-.25,.21-.48,.39-.7s.42-.45,.73-.69c.31-.25,.56-.46,.75-.64,.19-.18,.32-.36,.41-.54s.13-.4,.13-.64c0-.38-.13-.67-.39-.87s-.62-.3-1.09-.3c-.42,0-.8,.06-1.17,.18-.37,.12-.73,.27-1.08,.45l-.57-1.2c.41-.22,.86-.4,1.34-.54,.48-.14,1.01-.21,1.59-.21,.92,0,1.63,.22,2.14,.67,.5,.45,.75,1.04,.75,1.77,0,.4-.06,.74-.19,1.03-.13,.29-.31,.55-.56,.79-.25,.24-.54,.5-.89,.76-.28,.23-.5,.42-.65,.59s-.25,.33-.31,.5c-.06,.17-.08,.37-.08,.6v.31h-1.35Zm-.26,2.18c0-.37,.1-.63,.29-.78s.43-.23,.71-.23,.5,.08,.7,.23c.19,.15,.29,.41,.29,.78s-.1,.62-.29,.78c-.19,.16-.43,.24-.7,.24s-.52-.08-.71-.24-.29-.42-.29-.78Z"/></g></g></svg>