<svg id="Capa_1" data-name="Capa 1" xmlns="http://www.w3.org/2000/svg" viewBox="0 0 50.38 22.91"><defs><style>.cls-1{fill:#fff;}.cls-2{fill:none;stroke:#fff;stroke-miterlimit:10;stroke-width:0.25px;}.cls-3,.cls-4{fill:#f2f2f2;}.cls-3{opacity:0.4;}</style></defs><title>Seccion4 bototon1</title><path class="cls-1" d="M287.85,403.9v-5.6c0-.16,0-.33,0-.51s0-.36,0-.56a4.49,4.49,0,0,1-.95.7,4.26,4.26,0,0,1-1.11.41l-.24-1.15a2.53,2.53,0,0,0,.6-.17,5.9,5.9,0,0,0,.72-.35,6.67,6.67,0,0,0,.68-.45,3.07,3.07,0,0,0,.48-.47h1.11v8.15Z" transform="translate(-280.63 -384.54)"/><path class="cls-1" d="M302.4,404v-1c.78-.56,1.44-1.05,2-1.48a10.86,10.86,0,0,0,1.27-1.18,4,4,0,0,0,.7-1,2.38,2.38,0,0,0,.22-1,1.45,1.45,0,0,0-.41-1.06,1.74,1.74,0,0,0-2.35.1,2.32,2.32,0,0,0-.51,1.41l-1.15-.53a3,3,0,0,1,.45-1.35,2.54,2.54,0,0,1,1-.88,3.72,3.72,0,0,1,2.69-.11,2.58,2.58,0,0,1,.89.55,2.69,2.69,0,0,1,.55.82,2.82,2.82,0,0,1,.19,1,3.11,3.11,0,0,1-.39,1.5,5.36,5.36,0,0,1-1.21,1.48,16.72,16.72,0,0,1-2.17,1.62v0a3.68,3.68,0,0,1,.41,0h3.5V404Z" transform="translate(-280.63 -384.54)"/><path class="cls-1" d="M322.92,404.07a3.59,3.59,0,0,1-1.94-.52,2.56,2.56,0,0,1-1.14-1.43l1-.51a2.57,2.57,0,0,0,.41.81,1.68,1.68,0,0,0,.69.53,2.82,2.82,0,0,0,1.08.19,2,2,0,0,0,.93-.2,1.51,1.51,0,0,0,.57-.55,1.57,1.57,0,0,0,.2-.79,1.54,1.54,0,0,0-.17-.75,1,1,0,0,0-.53-.44,2.52,2.52,0,0,0-.95-.15h-.3l-.34,0v-1h.42a1.91,1.91,0,0,0,1.3-.35,1.49,1.49,0,0,0,.38-1.12,1.19,1.19,0,0,0-.4-1,1.66,1.66,0,0,0-1.13-.34,1.81,1.81,0,0,0-1.2.34,2.29,2.29,0,0,0-.65.93l-.95-.45a2.45,2.45,0,0,1,.6-.92,2.72,2.72,0,0,1,1-.63,3.35,3.35,0,0,1,1.25-.22,3.16,3.16,0,0,1,1.43.29,2,2,0,0,1,1.12,1.86,2.24,2.24,0,0,1-.13.8,1.77,1.77,0,0,1-.34.62,2.14,2.14,0,0,1-.49.42,1.79,1.79,0,0,1-.59.2v0a1.7,1.7,0,0,1,1.27.56,1.87,1.87,0,0,1,.35.57,1.89,1.89,0,0,1,.12.67,2.31,2.31,0,0,1-.36,1.28,2.42,2.42,0,0,1-1,.88A3.21,3.21,0,0,1,322.92,404.07Z" transform="translate(-280.63 -384.54)"/><line class="cls-2" x1="15.34" y1="7.64" x2="15.34" y2="22.91"/><line class="cls-2" x1="0.13" y1="7.64" x2="0.13" y2="22.91"/><line class="cls-2" x1="33.02" y1="7.64" x2="33.02" y2="22.91"/><line class="cls-2" x1="50.26" y1="7.64" x2="50.26" y2="22.91"/><circle class="cls-3" cx="24.31" cy="2.68" r="2.68"/><circle class="cls-4" cx="8.13" cy="2.68" r="2.68"/><circle class="cls-3" cx="41.73" cy="2.68" r="2.68"/></svg>