<?xml version="1.0" encoding="UTF-8"?><svg id="Capa_2" xmlns="http://www.w3.org/2000/svg" viewBox="0 0 16.26 16.26"><defs><style>.cls-1{fill:#fff;}.cls-2{fill:#386bfb;}</style></defs><g id="Capa_1-2"><g><circle class="cls-2" cx="8.13" cy="8.13" r="8.13"/><path class="cls-1" d="M8.15,13.95c-.33,0-.58-.1-.77-.29-.19-.2-.29-.44-.29-.75s.1-.55,.29-.74,.45-.28,.77-.28,.56,.09,.75,.28c.18,.19,.28,.44,.28,.74s-.09,.55-.28,.75c-.18,.19-.43,.29-.75,.29Zm0-3.15c-.36,0-.55-.21-.57-.62l-.39-6.8c-.02-.33,.05-.59,.22-.78,.17-.2,.41-.29,.74-.29s.55,.1,.72,.29c.16,.19,.23,.46,.19,.78l-.39,6.8c-.02,.41-.2,.62-.52,.62Z"/></g></g></svg>