<svg id="Capa_1" data-name="Capa 1" xmlns="http://www.w3.org/2000/svg" viewBox="0 0 24.15 21.92"><defs><style>.cls-1{fill:#fff;}</style></defs><title>ingresar</title><path class="cls-1" d="M439.71,200.66H430a2.06,2.06,0,0,1-2.1-1.81,2,2,0,0,1,1.51-2.23,2.63,2.63,0,0,1,.74-.08h9.46l.07-.11c-.44-.41-.88-.82-1.3-1.24q-1-1-2-2a2,2,0,0,1-.45-2.35,2,2,0,0,1,3.23-.67c1.16,1.12,2.29,2.26,3.42,3.4l3.48,3.48a2,2,0,0,1,0,3l-6.69,6.78a2.08,2.08,0,0,1-2.24.63,2,2,0,0,1-1.38-1.52,2,2,0,0,1,.6-1.93c1-1,2-2,3-3Z" transform="translate(-422.61 -187.64)"/><path class="cls-1" d="M424.79,194.2v3.2c0,2.52,0,5,0,7.55,0,.3,0,.61,0,.92a1.4,1.4,0,0,0,1.43,1.44c.62.05,1.25,0,1.88,0a1.13,1.13,0,0,1,1.13,1.52.9.9,0,0,1-.8.7,19.06,19.06,0,0,1-2.93-.07,3.6,3.6,0,0,1-2.92-3.28c-.06-1.74,0-3.48,0-5.23v-1.19c0-2.75,0-5.51,0-8.27a4,4,0,0,1,.91-2.65,3,3,0,0,1,2.11-1.08,23.57,23.57,0,0,1,2.66-.13,1,1,0,0,1,1,1.16,1,1,0,0,1-1.15,1.06c-.7,0-1.41,0-2.11,0a1.35,1.35,0,0,0-1.22,1.42c0,.95-.07,1.91-.07,2.87Z" transform="translate(-422.61 -187.64)"/></svg>