<svg xmlns="http://www.w3.org/2000/svg" viewBox="0 0 128.19 24.22"><defs><style>.cls-1{fill:#fff;}</style></defs><g id="Capa_2" data-name="Capa 2"><g id="Capa_1-2" data-name="Capa 1"><path class="cls-1" d="M104.87,3.79c-.93,1-.94,1.26-2.06,1.29l-1.74,0c-.42,0-.61-.28-.31-.7L102.44,1c.56-.71,1-.9,1.39-.9L107.31,0c.64,0,.52.38.19.75Z"/><path class="cls-1" d="M27.26,7.73l-6,16.08H15.63L9.93,7.73h5.3L18,17.64a14.55,14.55,0,0,1,.55,2.86h.06a16.22,16.22,0,0,1,.58-2.77l2.86-10Z"/><path class="cls-1" d="M35.12,24.2A8.66,8.66,0,0,1,28.8,22a8.18,8.18,0,0,1-2.3-6.12,8.17,8.17,0,0,1,2.39-6.24,9,9,0,0,1,6.45-2.25,8.53,8.53,0,0,1,6.28,2.25,8,8,0,0,1,2.28,6,8.49,8.49,0,0,1-2.35,6.33A8.71,8.71,0,0,1,35.12,24.2Zm.13-13.06a3.3,3.3,0,0,0-2.73,1.21,5.3,5.3,0,0,0-1,3.42q0,4.64,3.74,4.63c2.38,0,3.57-1.58,3.57-4.76Q38.85,11.14,35.25,11.14Z"/><path class="cls-1" d="M50.32,18.36a2.19,2.19,0,0,0,.49,1.55,1.67,1.67,0,0,0,1.3.52,4.62,4.62,0,0,0,.82-.07l.81-.16v3.48a17,17,0,0,1-1.89.39,14,14,0,0,1-2.08.15,4.73,4.73,0,0,1-1.8-.33,3.83,3.83,0,0,1-1.38-.95,4.49,4.49,0,0,1-.89-1.5,5.88,5.88,0,0,1-.31-2V0h4.93Z"/><path class="cls-1" d="M69.5,23.81h-5V21.36h-.07a5.61,5.61,0,0,1-4.92,2.84Q54,24.2,54,17.43V7.73h5V17q0,3.41,2.7,3.4a2.66,2.66,0,0,0,2.13-.93,3.74,3.74,0,0,0,.8-2.54V7.73h5Z"/><path class="cls-1" d="M84.26,23.23a9.82,9.82,0,0,1-4.86,1,8.2,8.2,0,0,1-6-2.24,7.77,7.77,0,0,1-2.3-5.8A8.54,8.54,0,0,1,73.57,9.7a9.11,9.11,0,0,1,6.57-2.36,8.49,8.49,0,0,1,4.12.75V12.3a5.64,5.64,0,0,0-3.47-1.16,4.56,4.56,0,0,0-3.39,1.25,4.66,4.66,0,0,0-1.25,3.44,4.59,4.59,0,0,0,1.2,3.36,4.38,4.38,0,0,0,3.28,1.21,6.62,6.62,0,0,0,3.63-1.16Z"/><path class="cls-1" d="M90.79,2.54A2.54,2.54,0,1,1,88.25,0,2.54,2.54,0,0,1,90.79,2.54ZM90.7,18.36a2.23,2.23,0,0,0,.49,1.55,1.7,1.7,0,0,0,1.31.52,4.43,4.43,0,0,0,.81-.07l.82-.16v3.48a17.52,17.52,0,0,1-1.89.39,14.08,14.08,0,0,1-2.09.15,4.71,4.71,0,0,1-1.79-.33A3.83,3.83,0,0,1,87,22.94a4.33,4.33,0,0,1-.89-1.5,5.87,5.87,0,0,1-.32-2V7.73H90.7Z"/><path class="cls-1" d="M102.27,24.2A8.66,8.66,0,0,1,96,22a8.18,8.18,0,0,1-2.3-6.12A8.17,8.17,0,0,1,96,9.59a9,9,0,0,1,6.45-2.25,8.53,8.53,0,0,1,6.28,2.25,8,8,0,0,1,2.28,6,8.49,8.49,0,0,1-2.35,6.33A8.73,8.73,0,0,1,102.27,24.2Zm.13-13.06a3.31,3.31,0,0,0-2.74,1.21,5.36,5.36,0,0,0-1,3.42q0,4.64,3.74,4.63c2.37,0,3.56-1.58,3.56-4.76C106,12.64,104.8,11.14,102.4,11.14Z"/><path class="cls-1" d="M128.19,23.81h-5V14.87q0-3.73-2.67-3.73a2.63,2.63,0,0,0-2.11,1,3.73,3.73,0,0,0-.84,2.51v9.17h-5V7.73h5v2.54h.07a5.68,5.68,0,0,1,5.16-2.93q5.34,0,5.34,6.62Z"/><path class="cls-1" d="M9.72,20.35a3.8,3.8,0,0,1-.82.08,1.68,1.68,0,0,1-1.3-.52,2.19,2.19,0,0,1-.49-1.55V11.92a2.45,2.45,0,0,0,2.27.75,5,5,0,0,1-.55-.5,13.06,13.06,0,0,1-1-1.29h0l-.58-1,0,0h0l-.38-.66L5.6,7A1.06,1.06,0,0,0,3.77,7L2.49,9.19l-1,1.69a15.13,15.13,0,0,1-1,1.29,5,5,0,0,1-.55.5A2.48,2.48,0,0,0,2.18,12v7.45a5.87,5.87,0,0,0,.32,2,4.22,4.22,0,0,0,.88,1.5,3.92,3.92,0,0,0,1.38.95,4.73,4.73,0,0,0,1.8.33,14,14,0,0,0,2.08-.15c.67-.1,1.3-.23,1.9-.38V20.2Z"/><circle class="cls-1" cx="4.65" cy="2.54" r="2.54"/></g></g></svg>