<svg id="Capa_1" data-name="Capa 1" xmlns="http://www.w3.org/2000/svg" viewBox="0 0 76.45 13.57"><defs><style>.cls-1{fill:#fff;}</style></defs><title>Ivolucion</title><path class="cls-1" d="M286.8,394.39l-3.35,9h-3.16l-3.19-9h3l1.56,5.55a7.79,7.79,0,0,1,.31,1.6h0a9.31,9.31,0,0,1,.32-1.55l1.6-5.6Z" transform="translate(-266.84 -390.05)"/><path class="cls-1" d="M291.2,403.61a4.85,4.85,0,0,1-3.54-1.26,5.24,5.24,0,0,1,0-6.92,5.06,5.06,0,0,1,3.61-1.26,4.78,4.78,0,0,1,3.52,1.26,4.48,4.48,0,0,1,1.27,3.34,4.75,4.75,0,0,1-1.31,3.54A4.89,4.89,0,0,1,291.2,403.61Zm.07-7.31a1.87,1.87,0,0,0-1.53.67,3,3,0,0,0-.54,1.92c0,1.73.69,2.59,2.09,2.59s2-.89,2-2.66S292.61,396.3,291.27,396.3Z" transform="translate(-266.84 -390.05)"/><path class="cls-1" d="M299.71,400.34a1.26,1.26,0,0,0,.27.87,1,1,0,0,0,.73.29,2.45,2.45,0,0,0,.46,0l.45-.09v1.95a9.88,9.88,0,0,1-1.06.22,8.68,8.68,0,0,1-1.16.08,2.53,2.53,0,0,1-1-.19,2.08,2.08,0,0,1-.77-.53,2.35,2.35,0,0,1-.5-.84A3.18,3.18,0,0,1,297,401V390.07h2.76Z" transform="translate(-266.84 -390.05)"/><path class="cls-1" d="M310.44,403.39h-2.77V402h0a3.13,3.13,0,0,1-2.75,1.59q-3.13,0-3.13-3.79v-5.43h2.77v5.19c0,1.27.5,1.9,1.51,1.9a1.5,1.5,0,0,0,1.2-.52,2.1,2.1,0,0,0,.44-1.42v-5.15h2.77Z" transform="translate(-266.84 -390.05)"/><path class="cls-1" d="M318.7,403.06a5.41,5.41,0,0,1-2.71.55,4.57,4.57,0,0,1-3.36-1.26,4.32,4.32,0,0,1-1.28-3.24,4.77,4.77,0,0,1,1.37-3.62,5.09,5.09,0,0,1,3.68-1.32,4.71,4.71,0,0,1,2.3.42V397a3.13,3.13,0,0,0-1.94-.65,2.52,2.52,0,0,0-1.89.7,3,3,0,0,0,0,3.8,2.45,2.45,0,0,0,1.84.68,3.61,3.61,0,0,0,2-.65Z" transform="translate(-266.84 -390.05)"/><path class="cls-1" d="M321,393a1.64,1.64,0,0,1-1.16-.42,1.38,1.38,0,0,1-.44-1,1.34,1.34,0,0,1,.44-1,1.71,1.71,0,0,1,1.16-.39,1.67,1.67,0,0,1,1.15.39,1.4,1.4,0,0,1,0,2.06A1.63,1.63,0,0,1,321,393Zm1.34,7.37a1.26,1.26,0,0,0,.27.87,1,1,0,0,0,.73.29,2.38,2.38,0,0,0,.46,0l.46-.09v1.95c-.34.09-.69.16-1.06.22a8.72,8.72,0,0,1-1.17.08,2.48,2.48,0,0,1-1-.19,2.21,2.21,0,0,1-.78-.53,2.33,2.33,0,0,1-.49-.84,3.17,3.17,0,0,1-.18-1.1v-6.57h2.76Z" transform="translate(-266.84 -390.05)"/><path class="cls-1" d="M328.78,403.61a4.82,4.82,0,0,1-3.53-1.26,5.21,5.21,0,0,1,.05-6.92,5,5,0,0,1,3.61-1.26,4.78,4.78,0,0,1,3.51,1.26,4.48,4.48,0,0,1,1.28,3.34,4.75,4.75,0,0,1-1.32,3.54A4.86,4.86,0,0,1,328.78,403.61Zm.07-7.31a1.84,1.84,0,0,0-1.52.67,3,3,0,0,0-.55,1.92c0,1.73.7,2.59,2.09,2.59s2-.89,2-2.66S330.2,396.3,328.85,396.3Z" transform="translate(-266.84 -390.05)"/><path class="cls-1" d="M343.29,403.39h-2.77v-5c0-1.4-.49-2.09-1.49-2.09a1.48,1.48,0,0,0-1.19.55,2.12,2.12,0,0,0-.46,1.41v5.13H334.6v-9h2.78v1.42h0a3.19,3.19,0,0,1,2.89-1.64c2,0,3,1.24,3,3.71Z" transform="translate(-266.84 -390.05)"/><path class="cls-1" d="M268.44,393a1.61,1.61,0,0,1-1.15-.42,1.35,1.35,0,0,1-.45-1,1.28,1.28,0,0,1,.45-1,1.65,1.65,0,0,1,1.15-.4,1.67,1.67,0,0,1,1.16.4,1.3,1.3,0,0,1,.44,1,1.35,1.35,0,0,1-.44,1A1.68,1.68,0,0,1,268.44,393Zm1.34,7.37a1.26,1.26,0,0,0,.28.87,1,1,0,0,0,.73.29,2.28,2.28,0,0,0,.45,0l.46-.09v1.95a10.42,10.42,0,0,1-1.06.22,8.68,8.68,0,0,1-1.16.08,2.53,2.53,0,0,1-1-.19,2.08,2.08,0,0,1-.77-.53,2.35,2.35,0,0,1-.5-.84A3.17,3.17,0,0,1,267,401v-6.57h2.76Z" transform="translate(-266.84 -390.05)"/><path class="cls-1" d="M275.5,400.84a.4.4,0,0,1-.4.4l-1.49,0a.4.4,0,0,1-.4-.4l0-4.72a.39.39,0,0,1,.4-.39h1.49a.39.39,0,0,1,.39.4Z" transform="translate(-266.84 -390.05)"/><path class="cls-1" d="M276.73,397.33a.41.41,0,0,1,.4.4v1.5a.4.4,0,0,1-.4.39H272a.39.39,0,0,1-.39-.4v-1.49a.4.4,0,0,1,.4-.4Z" transform="translate(-266.84 -390.05)"/><path class="cls-1" d="M330.22,392.17c-.53.57-.53.71-1.16.73l-1,0c-.24,0-.34-.16-.18-.39l.95-2c.31-.4.54-.5.77-.5l2,0c.35,0,.29.21.1.42Z" transform="translate(-266.84 -390.05)"/></svg>