<svg xmlns="http://www.w3.org/2000/svg" viewBox="0 0 48.42 47.18"><defs><style>.cls-1{fill:#e73565;}</style></defs><g id="Capa_2" data-name="Capa 2"><g id="Capa_1-2" data-name="Capa 1"><path class="cls-1" d="M44.33,14.33l.46-.2c-.34.16-.68.31-1,.45a21.86,21.86,0,0,1,1.93,9A22.13,22.13,0,1,1,35.25,4.83a7.3,7.3,0,0,1,.94-1.17A23.6,23.6,0,1,0,45.1,13.92,7.08,7.08,0,0,1,44.33,14.33Z"/><path class="cls-1" d="M41,15.57a7.45,7.45,0,1,1,7.45-7.45A7.46,7.46,0,0,1,41,15.57Zm0-13.9a6.45,6.45,0,1,0,6.45,6.45A6.45,6.45,0,0,0,41,1.67Z"/><path class="cls-1" d="M46,7.05V9.17H35.92V7.05ZM42.13,2.86V13.38h-2.3V2.86Z"/><path class="cls-1" d="M23.22,22.5a6.58,6.58,0,1,1,6.57-6.58A6.59,6.59,0,0,1,23.22,22.5Zm0-11.65a5.08,5.08,0,1,0,5.07,5.07A5.08,5.08,0,0,0,23.22,10.85Z"/><path class="cls-1" d="M34.66,36.36H11.74a.74.74,0,0,1-.54-.23.72.72,0,0,1-.21-.54c0-.38.33-9.29,7.64-13a.75.75,0,0,1,.91.18,5.86,5.86,0,0,0,3.67,1.89h.06a5,5,0,0,0,3.51-1.88.75.75,0,0,1,.93-.18c4.62,2.45,7.28,6.91,7.7,12.91a.75.75,0,0,1-.75.8Zm-22.11-1.5H33.84c-.52-4.89-2.65-8.46-6.33-10.61a6.36,6.36,0,0,1-4.32,2,7.33,7.33,0,0,1-4.37-2C13.91,27,12.8,32.78,12.55,34.86Z"/></g></g></svg>