<svg id="Capa_1" data-name="Capa 1" xmlns="http://www.w3.org/2000/svg" viewBox="0 0 17.28 12.37"><defs><style>.cls-1{fill:#36c;}</style></defs><title>Ojo</title><g id="vTg6Ha"><path class="cls-1" d="M314.64,393.57c-.61.65-1.21,1.31-1.83,1.95a.58.58,0,0,1-.83-.79c.54-.59,1.09-1.18,1.67-1.74.33-.31.73-.15,1,.35Z" transform="translate(-297.36 -389.73)"/><path class="cls-1" d="M297.36,393.26c.36-.53.73-.56,1.17-.09l1.35,1.41c.32.33.34.68.06.94a.61.61,0,0,1-.9-.13l-1.68-1.82Z" transform="translate(-297.36 -389.73)"/><path class="cls-1" d="M305.82,402.1a9.65,9.65,0,0,1-7-3.88.32.32,0,0,1,0-.47,9.48,9.48,0,0,1,6.8-3.85,7.12,7.12,0,0,1,3.43.67,10.5,10.5,0,0,1,4,3.13.38.38,0,0,1,0,.56,9.82,9.82,0,0,1-6,3.72C306.69,402.06,306.21,402.07,305.82,402.1Zm-6-4.14c3.7,4.36,8.81,4.24,12.37,0a9.6,9.6,0,0,0-4.07-2.84c1,1.58.88,2.93-.22,4a2.81,2.81,0,0,1-3.5.23,2.67,2.67,0,0,1-1.08-2.85,2.8,2.8,0,0,0,.3.15.93.93,0,0,0,1.11-.35.88.88,0,0,0-.09-1.13.47.47,0,0,0-.35-.12A9.29,9.29,0,0,0,299.8,398Z" transform="translate(-297.36 -389.73)"/><path class="cls-1" d="M306.81,392.43c.11-.7.22-1.47.36-2.24a.56.56,0,0,1,.65-.46.58.58,0,0,1,.48.64c-.1.79-.22,1.57-.36,2.35a.52.52,0,0,1-.61.45C307,393.15,306.79,392.88,306.81,392.43Z" transform="translate(-297.36 -389.73)"/><path class="cls-1" d="M311.76,391.32c-.47.9-.88,1.74-1.35,2.55-.14.24-.46.18-.69,0a.49.49,0,0,1-.21-.64,23.73,23.73,0,0,1,1.12-2.26.69.69,0,0,1,.62-.18C311.43,390.87,311.57,391.12,311.76,391.32Z" transform="translate(-297.36 -389.73)"/><path class="cls-1" d="M305.19,392.53a.6.6,0,0,1-.54.64.52.52,0,0,1-.6-.41c-.15-.8-.28-1.61-.38-2.42a.54.54,0,0,1,.48-.6.51.51,0,0,1,.65.39C305,390.94,305.07,391.76,305.19,392.53Z" transform="translate(-297.36 -389.73)"/><path class="cls-1" d="M302.58,393.5a3,3,0,0,1-.48.46.44.44,0,0,1-.63-.19c-.39-.74-.76-1.49-1.11-2.26a.51.51,0,0,1,.25-.66c.25-.14.56-.16.69.09.43.79.81,1.61,1.21,2.42,0,0,0,.05,0,.07Z" transform="translate(-297.36 -389.73)"/></g></svg>