<svg id="Capa_1" data-name="Capa 1" xmlns="http://www.w3.org/2000/svg" viewBox="0 0 17.61 14.67"><defs><style>.cls-1{fill:#36c;}.cls-2{fill:#f42f63;}</style></defs><title>Ojo2</title><g id="vTg6Ha"><path class="cls-1" d="M314.47,392.89c-.6.65-1.2,1.31-1.82,1.94a.57.57,0,0,1-.84-.78c.54-.6,1.09-1.18,1.67-1.74.33-.32.74-.15,1,.35Z" transform="translate(-297.2 -388.67)"/><path class="cls-1" d="M297.2,392.58c.35-.53.72-.56,1.17-.09s.9.94,1.35,1.41.33.68.06.93a.61.61,0,0,1-.91-.12c-.56-.6-1.11-1.21-1.67-1.82Z" transform="translate(-297.2 -388.67)"/><path class="cls-1" d="M305.66,401.42a9.67,9.67,0,0,1-7-3.88.32.32,0,0,1,0-.47,9.46,9.46,0,0,1,6.8-3.85,7.26,7.26,0,0,1,3.43.66,10.7,10.7,0,0,1,4,3.14.37.37,0,0,1,0,.56,9.73,9.73,0,0,1-5.95,3.71C306.52,401.38,306.05,401.38,305.66,401.42Zm-6-4.14c3.71,4.36,8.81,4.24,12.38,0a9.71,9.71,0,0,0-4.07-2.85c1,1.59.87,2.93-.22,4a2.8,2.8,0,0,1-3.5.24,2.68,2.68,0,0,1-1.09-2.86,2.19,2.19,0,0,0,.3.16.93.93,0,0,0,1.12-.36.88.88,0,0,0-.09-1.12.45.45,0,0,0-.36-.12A9.32,9.32,0,0,0,299.63,397.28Z" transform="translate(-297.2 -388.67)"/><path class="cls-1" d="M306.64,391.75c.11-.71.22-1.48.36-2.24a.56.56,0,0,1,.65-.46.58.58,0,0,1,.49.64c-.11.78-.22,1.57-.36,2.35a.54.54,0,0,1-.62.45C306.82,392.47,306.62,392.19,306.64,391.75Z" transform="translate(-297.2 -388.67)"/><path class="cls-1" d="M311.59,390.64c-.46.9-.87,1.74-1.34,2.55-.14.24-.46.18-.7,0a.5.5,0,0,1-.21-.63c.35-.77.71-1.53,1.12-2.26a.71.71,0,0,1,.63-.18C311.27,390.18,311.4,390.44,311.59,390.64Z" transform="translate(-297.2 -388.67)"/><path class="cls-1" d="M305,391.85a.62.62,0,0,1-.54.64.52.52,0,0,1-.6-.42c-.15-.8-.28-1.6-.39-2.41a.54.54,0,0,1,.48-.6.51.51,0,0,1,.65.39C304.79,390.26,304.91,391.08,305,391.85Z" transform="translate(-297.2 -388.67)"/><path class="cls-1" d="M302.42,392.82a2.65,2.65,0,0,1-.49.46.44.44,0,0,1-.63-.19c-.39-.74-.76-1.5-1.1-2.26a.51.51,0,0,1,.25-.66c.24-.14.56-.16.69.08.43.79.81,1.61,1.2,2.42,0,0,0,.05,0,.08Z" transform="translate(-297.2 -388.67)"/></g><rect class="cls-2" x="295.97" y="395.5" width="21.12" height="1" transform="translate(-482.14 -88.75) rotate(-41.2)"/></svg>