<svg xmlns="http://www.w3.org/2000/svg" viewBox="0 0 73.2 64.49"><defs><style>.cls-1{fill:#3c63ab;}</style></defs><g id="Capa_2" data-name="Capa 2"><g id="Capa_1-2" data-name="Capa 1"><path class="cls-1" d="M69.81,64.49H3.39A3.39,3.39,0,0,1,0,61.1V55.68a3.39,3.39,0,0,1,3.39-3.39H69.81a3.39,3.39,0,0,1,3.39,3.39V61.1A3.39,3.39,0,0,1,69.81,64.49ZM3.39,54a1.67,1.67,0,0,0-1.67,1.67V61.1a1.68,1.68,0,0,0,1.67,1.68H69.81a1.68,1.68,0,0,0,1.68-1.68V55.68A1.68,1.68,0,0,0,69.81,54Z"/><path class="cls-1" d="M61.83,8.72H53.08a14.76,14.76,0,0,1,.42,2h8.33a5.52,5.52,0,0,1,5.52,5.51V46.33a5.52,5.52,0,0,1-5.52,5.51H11.37a5.51,5.51,0,0,1-5.51-5.51V13.71a3,3,0,0,1,3-3H19.36a11.25,11.25,0,0,1,0-2H8.83a5,5,0,0,0-5,5V46.33a7.54,7.54,0,0,0,7.53,7.53H61.83a7.53,7.53,0,0,0,7.53-7.53V16.25A7.53,7.53,0,0,0,61.83,8.72Z"/><path class="cls-1" d="M59.73,13.8H53.52c-.05.51-.13,1-.23,1.51h6.44a2.12,2.12,0,0,1,2.11,2.11v27a2.11,2.11,0,0,1-2.11,2.11H13.48a2.11,2.11,0,0,1-2.12-2.11V16.83a1.53,1.53,0,0,1,1.52-1.52h6.34c0-.5-.11-1-.16-1.51H12.88a3,3,0,0,0-3,3V44.39A3.64,3.64,0,0,0,13.48,48H59.73a3.63,3.63,0,0,0,3.62-3.63v-27A3.62,3.62,0,0,0,59.73,13.8Z"/><path class="cls-1" d="M51.82,4.45H49.41c0,.5,0,1,0,1.51h2.44a1,1,0,0,1,1,1V27.26a1,1,0,0,1-1,1H20.67a1,1,0,0,1-1-1V6.39A.43.43,0,0,1,20.07,6h1.74c0-.11,0-.21,0-.32,0-.45.08-.84.12-1.19H20.07a1.94,1.94,0,0,0-1.94,1.94V27.26a2.55,2.55,0,0,0,2.54,2.55H51.82a2.55,2.55,0,0,0,2.54-2.55V7A2.54,2.54,0,0,0,51.82,4.45Z"/><path class="cls-1" d="M43.25,64H42V62.77c0-1.77-.83-3-1.57-3H32.8c-.74,0-1.56,1.23-1.56,3V64H30V62.77c0-2.41,1.25-4.29,2.85-4.29h7.6c1.6,0,2.85,1.88,2.85,4.29Z"/><path class="cls-1" d="M35.89,29.51,22.82,24.59a2.32,2.32,0,0,1-1.49-2.16l.11-20.3A1.92,1.92,0,0,1,22.26.57,2,2,0,0,1,24,.32L35.73,4.43,47.6.13a2.16,2.16,0,0,1,2.9,2v20a2.59,2.59,0,0,1-1.66,2.4ZM23.37,1.5a.64.64,0,0,0-.64.64l-.11,20.3a1,1,0,0,0,.65.94l12.62,4.75,12.5-4.76a1.29,1.29,0,0,0,.82-1.2v-20a.86.86,0,0,0-.37-.71.85.85,0,0,0-.8-.11L35.73,5.79,23.58,1.54A.52.52,0,0,0,23.37,1.5Z"/><rect class="cls-1" x="35.09" y="5.11" width="1.29" height="23.71"/></g></g></svg>