<svg xmlns="http://www.w3.org/2000/svg" viewBox="0 0 73.41 69.29"><defs><style>.cls-1{fill:#3e64ac;}</style></defs><g id="Capa_2" data-name="Capa 2"><g id="Capa_1-2" data-name="Capa 1"><path class="cls-1" d="M28.8,51.78a1.33,1.33,0,0,1-.61-.14l-4.44-3.18a16.09,16.09,0,1,1,8.44-14.14c0,3.69-.5,6.82-2.92,10l.83,6a1.29,1.29,0,0,1-.51,1.27A1.34,1.34,0,0,1,28.8,51.78Zm-.5-1.28a.13.13,0,0,0,0,.06Zm-4.45-4.21,4.29,3.07-.79-5.59.25-.3c2.3-2.87,2.77-5.63,2.77-9.15a14.31,14.31,0,1,0-7,12.28Z"/><path class="cls-1" d="M70.71,24.69a1.38,1.38,0,0,1-.55-.13l-3.11-2.22a11.84,11.84,0,1,1,6.36-10.49,11.11,11.11,0,0,1-2.09,7.26l.58,4.18a1.16,1.16,0,0,1-.46,1.15A1.22,1.22,0,0,1,70.71,24.69Zm-.61-1.16a.17.17,0,0,0,0,.07Zm-2.94-3.36,2.74,2-.5-3.55.25-.31a9.28,9.28,0,0,0,1.94-6.43,10.06,10.06,0,1,0-4.94,8.63Z"/><path class="cls-1" d="M70.71,69.29a1.25,1.25,0,0,1-.55-.14l-3.11-2.21a11.84,11.84,0,1,1,6.36-10.49,11.11,11.11,0,0,1-2.09,7.26l.58,4.18A1.16,1.16,0,0,1,71.44,69,1.22,1.22,0,0,1,70.71,69.29Zm-.61-1.16a.17.17,0,0,0,0,.07Zm-2.94-3.36,2.74,2-.5-3.55.25-.31a9.28,9.28,0,0,0,1.94-6.43,10,10,0,1,0-4.94,8.63Z"/><path class="cls-1" d="M32.62,23.77A.91.91,0,0,1,32.23,22l14.41-6.79a.91.91,0,1,1,.77,1.65L33,23.68A.89.89,0,0,1,32.62,23.77Z"/><path class="cls-1" d="M48.05,51.75a.85.85,0,0,1-.38-.09L33.26,44.88a.92.92,0,0,1-.43-1.22A.91.91,0,0,1,34,43.23L48.44,50a.91.91,0,0,1-.39,1.73Z"/><circle class="cls-1" cx="9.15" cy="33.47" r="2.12"/><circle class="cls-1" cx="15.83" cy="33.47" r="2.12"/><circle class="cls-1" cx="23.49" cy="33.47" r="2.12"/></g></g></svg>