<svg id="Capa_1" data-name="Capa 1" xmlns="http://www.w3.org/2000/svg" viewBox="0 0 55.28 37"><defs><style>.cls-1,.cls-2{fill:#fdfeff;stroke:#36c;stroke-miterlimit:10;}.cls-1{stroke-width:1.42px;}.cls-2{stroke-width:1.64px;}.cls-3{fill:#36c;}</style></defs><title>Seccion5</title><path class="cls-1" d="M7.43.71H39.19a6.6,6.6,0,0,1,6.6,6.6v29a0,0,0,0,1,0,0H.71a0,0,0,0,1,0,0V7.43A6.72,6.72,0,0,1,7.43.71Z"/><polyline class="cls-1" points="0.71 7.43 23.25 20.96 45.79 7.31"/><circle class="cls-2" cx="44.39" cy="26.08" r="10.07"/><path class="cls-3" d="M323.13,408.27v-6.44c0-.19,0-.39,0-.59s0-.42,0-.65a4.93,4.93,0,0,1-1.1.8,4.8,4.8,0,0,1-1.27.48l-.29-1.32a3.65,3.65,0,0,0,.7-.2,8.83,8.83,0,0,0,.83-.4,7.55,7.55,0,0,0,.78-.52,2.85,2.85,0,0,0,.55-.55h1.28v9.39Z" transform="translate(-278.19 -377.5)"/></svg>