<svg xmlns="http://www.w3.org/2000/svg" viewBox="0 0 31.64 31.15"><defs><style>.cls-1{fill:#fff;}.cls-2{fill:#3c63ab;}.cls-3{fill:#fdffff;}.cls-4{fill:none;}</style></defs><g id="Capa_2" data-name="Capa 2"><g id="Capa_1-2" data-name="Capa 1"><path class="cls-1" d="M28.2,31.15H3.43A3.44,3.44,0,0,1,0,27.72V3.43A3.44,3.44,0,0,1,3.43,0H28.2a3.44,3.44,0,0,1,3.44,3.43V27.72A3.44,3.44,0,0,1,28.2,31.15ZM3.43,1A2.43,2.43,0,0,0,1,3.43V27.72a2.43,2.43,0,0,0,2.43,2.43H28.2a2.44,2.44,0,0,0,2.44-2.43V3.43A2.44,2.44,0,0,0,28.2,1Z"/><line class="cls-2" x1="0.46" y1="5.83" x2="30.76" y2="5.83"/><rect class="cls-3" x="0.46" y="5.33" width="30.3" height="1"/><circle class="cls-3" cx="22.52" cy="3.41" r="0.69"/><circle class="cls-3" cx="25.49" cy="3.41" r="0.69"/><circle class="cls-3" cx="28.46" cy="3.41" r="0.69"/><rect class="cls-4" x="4.48" y="8.68" width="3.74" height="3.74" rx="0.81"/><path class="cls-3" d="M7.41,12.79H5.3A1.19,1.19,0,0,1,4.11,11.6V9.49A1.19,1.19,0,0,1,5.3,8.3H7.41A1.19,1.19,0,0,1,8.6,9.49V11.6A1.19,1.19,0,0,1,7.41,12.79ZM5.3,9.05a.44.44,0,0,0-.44.44V11.6A.44.44,0,0,0,5.3,12H7.41a.44.44,0,0,0,.44-.44V9.49a.44.44,0,0,0-.44-.44Z"/><line class="cls-2" x1="10.93" y1="10.55" x2="26.23" y2="10.55"/><path class="cls-3" d="M26.23,11.05H10.93a.51.51,0,0,1-.5-.5.5.5,0,0,1,.5-.5h15.3a.5.5,0,0,1,.5.5A.51.51,0,0,1,26.23,11.05Z"/><rect class="cls-4" x="4.48" y="15.07" width="3.74" height="3.74" rx="0.81"/><path class="cls-3" d="M7.41,19.18H5.3A1.19,1.19,0,0,1,4.11,18V15.88A1.19,1.19,0,0,1,5.3,14.69H7.41A1.19,1.19,0,0,1,8.6,15.88V18A1.19,1.19,0,0,1,7.41,19.18ZM5.3,15.44a.44.44,0,0,0-.44.44V18a.44.44,0,0,0,.44.44H7.41A.44.44,0,0,0,7.85,18V15.88a.44.44,0,0,0-.44-.44Z"/><line class="cls-2" x1="10.93" y1="16.94" x2="26.23" y2="16.94"/><path class="cls-3" d="M26.23,17.44H10.93a.51.51,0,0,1-.5-.5.5.5,0,0,1,.5-.5h15.3a.5.5,0,0,1,.5.5A.51.51,0,0,1,26.23,17.44Z"/><rect class="cls-4" x="4.48" y="21.45" width="3.74" height="3.74" rx="0.81"/><path class="cls-3" d="M7.41,25.57H5.3a1.19,1.19,0,0,1-1.19-1.19V22.27A1.19,1.19,0,0,1,5.3,21.08H7.41A1.19,1.19,0,0,1,8.6,22.27v2.11A1.19,1.19,0,0,1,7.41,25.57ZM5.3,21.83a.44.44,0,0,0-.44.44v2.11a.44.44,0,0,0,.44.44H7.41a.44.44,0,0,0,.44-.44V22.27a.44.44,0,0,0-.44-.44Z"/><line class="cls-2" x1="10.93" y1="23.32" x2="26.23" y2="23.32"/><path class="cls-3" d="M26.23,23.82H10.93a.5.5,0,0,1-.5-.5.51.51,0,0,1,.5-.5h15.3a.51.51,0,0,1,.5.5A.5.5,0,0,1,26.23,23.82Z"/></g></g></svg>