<svg xmlns="http://www.w3.org/2000/svg" viewBox="0 0 32.61 32.44"><defs><style>.cls-1{fill:#fff;}.cls-2{fill:#fdffff;}.cls-3{fill:#3c63ab;}</style></defs><g id="Capa_2" data-name="Capa 2"><g id="Capa_1-2" data-name="Capa 1"><path class="cls-1" d="M17.9,32.44H14.49a2,2,0,0,1-2-2V29.39a13.35,13.35,0,0,1-3-1.26l-.91.81a2,2,0,0,1-2.78-.14L3.49,26.26a2,2,0,0,1,.15-2.78l.63-.57A13.64,13.64,0,0,1,3,19.9H2a2,2,0,0,1-2-2V14.52a2,2,0,0,1,2-2H3A13.62,13.62,0,0,1,4.12,9.8l-.71-.65a2,2,0,0,1-.15-2.79L5.54,3.83a2,2,0,0,1,2.79-.15l.87.79a13.85,13.85,0,0,1,3.23-1.4V2a2,2,0,0,1,2-2h3.41a2,2,0,0,1,2,2V3a13.31,13.31,0,0,1,3.55,1.52l1-.86a2,2,0,0,1,2.78.15l2.29,2.53a2,2,0,0,1-.15,2.79l-.85.76a13.31,13.31,0,0,1,1,2.63h1.25a2,2,0,0,1,2,2v3.41a2,2,0,0,1-2,2H29.38a13.47,13.47,0,0,1-1.17,2.89l.76.69a2,2,0,0,1,.14,2.78l-2.28,2.53a2,2,0,0,1-2.79.15l-1-.88a13.56,13.56,0,0,1-3.19,1.34v1.06A2,2,0,0,1,17.9,32.44ZM9.42,27a.6.6,0,0,1,.31.08,12.54,12.54,0,0,0,3.32,1.38.62.62,0,0,1,.47.6v1.36a1,1,0,0,0,1,1H17.9a1,1,0,0,0,1-1V29.1a.61.61,0,0,1,.47-.59,12.77,12.77,0,0,0,3.45-1.45.59.59,0,0,1,.73.07l1.19,1.07a1,1,0,0,0,1.38-.07l2.28-2.54a1,1,0,0,0-.07-1.37l-1-.89a.61.61,0,0,1-.12-.77,12.58,12.58,0,0,0,1.3-3.2.62.62,0,0,1,.59-.46h1.55a1,1,0,0,0,1-1V14.52a1,1,0,0,0-1-1H29.09a.62.62,0,0,1-.6-.46,12.93,12.93,0,0,0-1.16-3,.62.62,0,0,1,.13-.75l1.07-1a1,1,0,0,0,.32-.68A1,1,0,0,0,28.6,7L26.32,4.5A1,1,0,0,0,25,4.43l-1.17,1a.62.62,0,0,1-.74.07,12.4,12.4,0,0,0-3.79-1.63.61.61,0,0,1-.47-.59V2a1,1,0,0,0-1-1H14.4a1,1,0,0,0-1,1v1.4A.61.61,0,0,1,13,4,12.6,12.6,0,0,0,9.48,5.47a.6.6,0,0,1-.73-.07l-1.09-1a1,1,0,0,0-1.37.07L4,7a1,1,0,0,0,.08,1.38L5,9.26a.59.59,0,0,1,.12.76,13,13,0,0,0-1.22,3.06.61.61,0,0,1-.59.46H2a1,1,0,0,0-1,1v3.41a1,1,0,0,0,1,1H3.33a.61.61,0,0,1,.59.46,12.65,12.65,0,0,0,1.37,3.31.61.61,0,0,1-.12.77l-.86.78a1,1,0,0,0-.07,1.37l2.28,2.54a1,1,0,0,0,1.37.07l1.12-1A.61.61,0,0,1,9.42,27Zm10.16,2.44Zm-9.9-1.54Zm13.17-.07ZM3,19.61Zm0-6.78ZM28.21,9.64ZM4.27,9.52h0ZM23.11,4.73ZM9.41,4.66h0ZM12.72,3h0Zm6.77-.05Z"/><path class="cls-1" d="M16.3,26.29A10.08,10.08,0,1,1,26.38,16.22,10.08,10.08,0,0,1,16.3,26.29Zm0-19.4a9.33,9.33,0,1,0,9.33,9.33A9.34,9.34,0,0,0,16.3,6.89Z"/><path class="cls-2" d="M12.89,21.7H10.78a1.19,1.19,0,0,1-1.19-1.19V18.4a1.19,1.19,0,0,1,1.19-1.19h2.11a1.19,1.19,0,0,1,1.19,1.19v2.11A1.19,1.19,0,0,1,12.89,21.7ZM10.78,18a.44.44,0,0,0-.44.44v2.11a.44.44,0,0,0,.44.44h2.11a.44.44,0,0,0,.44-.44V18.4a.44.44,0,0,0-.44-.44Z"/><line class="cls-3" x1="16.41" y1="19.45" x2="22.72" y2="19.45"/><path class="cls-2" d="M22.72,20H16.41a.5.5,0,0,1-.5-.5.51.51,0,0,1,.5-.5h6.31a.5.5,0,0,1,.5.5A.5.5,0,0,1,22.72,20Z"/><path class="cls-2" d="M12.89,15.23H10.78A1.19,1.19,0,0,1,9.59,14V11.93a1.19,1.19,0,0,1,1.19-1.19h2.11a1.19,1.19,0,0,1,1.19,1.19V14A1.19,1.19,0,0,1,12.89,15.23Zm-2.11-3.74a.43.43,0,0,0-.44.44V14a.44.44,0,0,0,.44.44h2.11a.44.44,0,0,0,.44-.44V11.93a.44.44,0,0,0-.44-.44Z"/><line class="cls-3" x1="16.41" y1="12.98" x2="22.72" y2="12.98"/><path class="cls-2" d="M22.72,13.48H16.41a.5.5,0,0,1-.5-.5.51.51,0,0,1,.5-.5h6.31a.5.5,0,0,1,.5.5A.5.5,0,0,1,22.72,13.48Z"/></g></g></svg>