<svg xmlns="http://www.w3.org/2000/svg" viewBox="0 0 20.32 20.01"><defs><style>.cls-1{fill:#36c;}</style></defs><g id="Capa_2" data-name="Capa 2"><g id="Capa_1-2" data-name="Capa 1"><path class="cls-1" d="M17.37,20H3A3,3,0,0,1,0,17.07V3A3,3,0,0,1,3,0H17.37a3,3,0,0,1,2.95,3V17.07A3,3,0,0,1,17.37,20ZM3,.86A2.08,2.08,0,0,0,.86,3V17.07A2.08,2.08,0,0,0,3,19.15H17.37a2.09,2.09,0,0,0,2.09-2.08V3A2.09,2.09,0,0,0,17.37.86Z"/><line class="cls-1" x1="0.54" y1="3.81" x2="19.78" y2="3.81"/><rect class="cls-1" x="0.53" y="3.39" width="19.25" height="0.86"/><circle class="cls-1" cx="14.54" cy="2.28" r="0.44"/><circle class="cls-1" cx="16.43" cy="2.28" r="0.44"/><circle class="cls-1" cx="18.31" cy="2.28" r="0.44"/><path class="cls-1" d="M4.76,8.32h-1a1,1,0,0,1-1-1v-1a1,1,0,0,1,1-1h1a1,1,0,0,1,1,1v1A1,1,0,0,1,4.76,8.32ZM3.78,6a.36.36,0,0,0-.37.37v1a.37.37,0,0,0,.37.38h1a.38.38,0,0,0,.38-.38v-1A.37.37,0,0,0,4.76,6Z"/><line class="cls-1" x1="7.18" y1="6.81" x2="16.89" y2="6.81"/><path class="cls-1" d="M16.89,7.24H7.18a.43.43,0,1,1,0-.86h9.71a.43.43,0,0,1,0,.86Z"/><path class="cls-1" d="M10,17a8.87,8.87,0,0,1-6.4-3.57.29.29,0,0,1,0-.43A8.67,8.67,0,0,1,9.85,9.44a6.46,6.46,0,0,1,3.15.61,9.73,9.73,0,0,1,3.69,2.88.35.35,0,0,1,0,.52,9,9,0,0,1-5.47,3.41A11.92,11.92,0,0,1,10,17ZM4.47,13.17c3.41,4,8.1,3.9,11.38,0a8.84,8.84,0,0,0-3.75-2.61c.89,1.45.81,2.69-.2,3.64a2.59,2.59,0,0,1-3.22.21,2.46,2.46,0,0,1-1-2.62,1.74,1.74,0,0,0,.27.14.85.85,0,0,0,1-.33.79.79,0,0,0-.09-1,.43.43,0,0,0-.32-.11A8.55,8.55,0,0,0,4.47,13.17Z"/></g></g></svg>