<svg xmlns="http://www.w3.org/2000/svg" viewBox="0 0 322.2 176.26"><defs><style>.cls-1,.cls-3,.cls-4,.cls-5{fill:none;stroke:#606060;stroke-miterlimit:10;}.cls-1,.cls-4{stroke-width:0.75px;}.cls-2{fill:#606060;}.cls-3{stroke-width:2px;}.cls-4,.cls-5{stroke-linecap:round;}</style></defs><g id="Capa_2" data-name="Capa 2"><g id="Capa_1-2" data-name="Capa 1"><rect class="cls-1" x="0.38" y="0.38" width="321.45" height="175.51" rx="4.72"/><path class="cls-2" d="M123.4,18c0,1.94-1.4,3.11-3.59,3.11h-2.7v4.37h-.8V14.86h3.5C122,14.86,123.4,16,123.4,18Zm-.85,0c0-1.49-1-2.35-2.84-2.35h-2.6v4.7h2.6C121.57,20.3,122.55,19.46,122.55,18Z"/><path class="cls-2" d="M126.35,23.54c0,1,.34,1.34,1.06,1.34a2.08,2.08,0,0,0,1-.21l-.11.71a2.53,2.53,0,0,1-1.06.21c-1.14,0-1.7-.63-1.7-2V13.74h.8Z"/><path class="cls-2" d="M137.2,24.75l0,.64a1.45,1.45,0,0,1-2.09-1.28,3.17,3.17,0,0,1-2.83,1.48c-1.53,0-2.61-.72-2.61-2.07,0-1.2.84-1.92,2.28-2.21l3.16-.62v-.53A2,2,0,0,0,132.9,18a2.43,2.43,0,0,0-2.55,1.69l-.65-.41a3.13,3.13,0,0,1,3.21-2,2.63,2.63,0,0,1,3,2.76v4c0,.57.27.85.77.85A1.29,1.29,0,0,0,137.2,24.75Zm-2.14-2.14V21.36l-2.75.54c-1.27.26-1.88.72-1.88,1.56s.68,1.42,1.91,1.42A2.45,2.45,0,0,0,135.06,22.61Z"/><path class="cls-2" d="M145.81,20.24v5.19H145V20.5c0-1.77-1-2.53-2.34-2.53a2.8,2.8,0,0,0-2.86,2.94v4.52H139v-8h.72l.05,1.6a3.09,3.09,0,0,1,3-1.76A2.79,2.79,0,0,1,145.81,20.24Z"/><path class="cls-2" d="M153,24.91a2.59,2.59,0,0,1-1.81.68,1.94,1.94,0,0,1-2.11-2.16V18.11h-1.6v-.69h1.6v-2l.8-.22v2.22h3v.69h-3v5.2c0,1,.49,1.54,1.41,1.54a1.83,1.83,0,0,0,1.4-.59Z"/><path class="cls-2" d="M154.45,15.2a.67.67,0,1,1,.67.67A.64.64,0,0,1,154.45,15.2Zm1.07,10.23h-.8v-8h.8Z"/><path class="cls-2" d="M159.28,23.54c0,1,.34,1.34,1.06,1.34a2.11,2.11,0,0,0,1-.21l-.12.71a2.48,2.48,0,0,1-1,.21c-1.14,0-1.7-.63-1.7-2V13.74h.8Z"/><path class="cls-2" d="M163.82,23.54c0,1,.34,1.34,1.06,1.34a2.08,2.08,0,0,0,1-.21l-.11.71a2.5,2.5,0,0,1-1.06.21c-1.14,0-1.7-.63-1.7-2V13.74h.8Z"/><path class="cls-2" d="M174.68,24.75l-.05.64a1.36,1.36,0,0,1-.71.15,1.3,1.3,0,0,1-1.39-1.43,3.16,3.16,0,0,1-2.83,1.48c-1.52,0-2.61-.72-2.61-2.07,0-1.2.85-1.92,2.29-2.21l3.15-.62v-.53A2,2,0,0,0,170.37,18a2.43,2.43,0,0,0-2.55,1.69l-.65-.41a3.13,3.13,0,0,1,3.22-2A2.62,2.62,0,0,1,173.33,20v4c0,.57.27.85.77.85A1.34,1.34,0,0,0,174.68,24.75Zm-2.15-2.14V21.36l-2.75.54c-1.27.26-1.88.72-1.88,1.56s.68,1.42,1.91,1.42A2.45,2.45,0,0,0,172.53,22.61Z"/><path class="cls-2" d="M180.86,24.77c4-3.14,5.89-4.8,5.89-6.85a2.36,2.36,0,0,0-2.59-2.48,2.78,2.78,0,0,0-2.83,2.88l-.71-.4a3.36,3.36,0,0,1,3.56-3.22,3.1,3.1,0,0,1,3.41,3.22c0,2.14-1.78,3.94-5.56,6.77v0l1.06,0h4.83v.74h-7.06Z"/><path class="cls-2" d="M64.28,126.52h-.6V118.6h.6Z"/><path class="cls-2" d="M66.68,120.52h.54l0,1.25a2.31,2.31,0,0,1,2.19-1.37,2,2,0,0,1,2.13,1.46,2.37,2.37,0,0,1,2.29-1.47,2.09,2.09,0,0,1,2.26,2.23v3.88h-.6v-3.82a1.6,1.6,0,0,0-1.73-1.76,2.07,2.07,0,0,0-2.09,2.14v3.46h-.6v-3.83a1.58,1.58,0,0,0-1.72-1.76,2.09,2.09,0,0,0-2.1,2.19v3.4h-.6Z"/><path class="cls-2" d="M83.6,126l0,.48a1.07,1.07,0,0,1-.53.11,1,1,0,0,1-1-1.07,2.37,2.37,0,0,1-2.12,1.11c-1.14,0-2-.54-2-1.55s.64-1.44,1.72-1.66L82,123v-.4a1.49,1.49,0,0,0-1.62-1.64,1.83,1.83,0,0,0-1.91,1.27l-.49-.31a2.35,2.35,0,0,1,2.41-1.49,2,2,0,0,1,2.21,2.06v3c0,.43.2.64.57.64A1,1,0,0,0,83.6,126ZM82,124.4v-.93l-2.06.41c-1,.19-1.41.54-1.41,1.16s.51,1.07,1.43,1.07A1.84,1.84,0,0,0,82,124.4Z"/><path class="cls-2" d="M89.92,127.27c0,1.11-1.2,1.82-2.82,1.82-1.81,0-2.79-.69-2.79-1.61a1.31,1.31,0,0,1,1.17-1.29,1,1,0,0,1-.75-1,1.18,1.18,0,0,1,1-1.13,1.81,1.81,0,0,1-1.09-1.71c0-1.16,1-1.95,2.42-1.95a3,3,0,0,1,1.39.31,1.41,1.41,0,0,1,1.51-1.29l.14.52c-.76,0-1.22.36-1.27,1a1.75,1.75,0,0,1,.63,1.37c0,1.17-1,2-2.4,2a3.25,3.25,0,0,1-.79-.08c-.6.11-1,.42-1,.85s.47.81,1.13.81H88C89.2,125.9,89.92,126.44,89.92,127.27Zm-.56.07c0-.56-.48-.92-1.48-.92h-1.7c-.76,0-1.31.38-1.31,1s.84,1.2,2.23,1.2S89.36,128.05,89.36,127.34ZM87,123.83c1,0,1.78-.59,1.78-1.48s-.74-1.46-1.78-1.46-1.8.59-1.8,1.46S86,123.83,87,123.83Z"/><path class="cls-2" d="M96.2,123.64H91.43a2.26,2.26,0,0,0,2.26,2.47,2.09,2.09,0,0,0,2-1.13l.48.28a2.65,2.65,0,0,1-2.44,1.38,2.82,2.82,0,0,1-2.85-3.12c0-2,1.18-3.12,2.78-3.12a2.54,2.54,0,0,1,2.59,2.84C96.22,123.4,96.21,123.53,96.2,123.64Zm-4.74-.54h4.16a2,2,0,0,0-2-2.17A2.16,2.16,0,0,0,91.46,123.1Z"/><path class="cls-2" d="M103.16,122.63v3.89h-.6v-3.7a1.65,1.65,0,0,0-1.76-1.89,2.09,2.09,0,0,0-2.14,2.2v3.39h-.6v-6h.54l0,1.2a2.33,2.33,0,0,1,2.23-1.32A2.09,2.09,0,0,1,103.16,122.63Z"/><rect class="cls-3" x="55.77" y="59.01" width="55.17" height="51.81" rx="6.13"/><path class="cls-2" d="M103.23,108,95.61,95.8a4,4,0,0,0-6.73,0l-.81,1.3a1.42,1.42,0,0,1-2.5-.16l-5-10.89a3.83,3.83,0,0,0-7,0L62.45,110.16a.47.47,0,0,0,.42.67h37.89C102.74,110.83,104.06,109.31,103.23,108Z"/><circle class="cls-2" cx="93.48" cy="73.83" r="7.55"/><path class="cls-2" d="M204.48,47.39h-2.89v7.37H201V47.39H198.1v-.55h6.38Z"/><path class="cls-2" d="M207.12,45.87,206,47.77h-.49l1-1.9Zm-1,8.89h-.6v-6h.6Z"/><path class="cls-2" d="M211.75,54.37a1.93,1.93,0,0,1-1.36.51,1.45,1.45,0,0,1-1.58-1.62v-4h-1.2v-.52h1.2v-1.5l.6-.17v1.67h2.24v.52h-2.24v3.9c0,.75.37,1.15,1.06,1.15a1.37,1.37,0,0,0,1.05-.45Z"/><path class="cls-2" d="M213,52.72v-4h.6v3.82a1.54,1.54,0,0,0,1.72,1.77,2.07,2.07,0,0,0,2.11-2.15V48.76h.6v6h-.54l0-1.24a2.33,2.33,0,0,1-2.29,1.36A2,2,0,0,1,213,52.72Z"/><path class="cls-2" d="M220.84,53.34c0,.75.25,1,.79,1a1.53,1.53,0,0,0,.75-.16l-.08.53a1.85,1.85,0,0,1-.79.16c-.85,0-1.27-.47-1.27-1.51V46h.6Z"/><path class="cls-2" d="M228.94,51.76a2.87,2.87,0,1,1-5.71,0,2.87,2.87,0,1,1,5.71,0Zm-5.1,0c0,1.62.88,2.6,2.25,2.6s2.25-1,2.25-2.6-.88-2.6-2.25-2.6S223.84,50.14,223.84,51.76Z"/><polygon class="cls-4" points="238.23 60.05 189.83 60.05 189.83 41.51 238.53 41.51 238.23 60.05"/><path class="cls-2" d="M181.43,81.55c-2.19,0-3.6-1.57-3.6-4.07s1.43-4.08,3.58-4.08a2.91,2.91,0,0,1,3.07,1.95l-.58.28A2.3,2.3,0,0,0,181.45,74c-1.79,0-3,1.34-3,3.53s1.17,3.52,3,3.52A2.48,2.48,0,0,0,184,79.2l.6.23A3.13,3.13,0,0,1,181.43,81.55Z"/><path class="cls-2" d="M186.24,79.4v-4h.6v3.81c0,1.25.62,1.78,1.71,1.78a2.07,2.07,0,0,0,2.11-2.15V75.44h.6v6h-.53l0-1.23a2.33,2.33,0,0,1-2.29,1.35A2,2,0,0,1,186.24,79.4Z"/><path class="cls-2" d="M198.47,78.56H193.7A2.26,2.26,0,0,0,196,81a2.09,2.09,0,0,0,2-1.13l.47.27A2.6,2.6,0,0,1,196,81.55a2.82,2.82,0,0,1-2.85-3.11c0-2,1.18-3.12,2.78-3.12a2.54,2.54,0,0,1,2.59,2.84C198.49,78.32,198.48,78.45,198.47,78.56ZM193.73,78h4.16a2,2,0,0,0-2-2.17A2.16,2.16,0,0,0,193.73,78Z"/><path class="cls-2" d="M200.33,75.44h.5l.07,1.25a2,2,0,0,1,1.95-1.37,1.28,1.28,0,0,1,.75.2l-.14.53a1.21,1.21,0,0,0-.76-.18,2,2,0,0,0-1.77,2.21v3.35h-.6Z"/><path class="cls-2" d="M210.54,78.44c0,2-1.18,3.11-2.74,3.11a2.32,2.32,0,0,1-2.22-1.42V84H205V75.44h.54l0,1.34a2.34,2.34,0,0,1,2.27-1.46C209.37,75.32,210.54,76.48,210.54,78.44Zm-.6,0c0-1.61-.84-2.59-2.19-2.59s-2.17,1-2.17,2.59.89,2.59,2.15,2.59S209.94,80,209.94,78.44Z"/><path class="cls-2" d="M217.69,78.44a2.87,2.87,0,1,1-2.86-3.12A2.81,2.81,0,0,1,217.69,78.44Zm-5.11,0c0,1.62.89,2.6,2.25,2.6s2.26-1,2.26-2.6-.89-2.61-2.26-2.61S212.58,76.82,212.58,78.44Z"/><path class="cls-2" d="M226.5,81.05a1.93,1.93,0,0,1-1.36.5,1.45,1.45,0,0,1-1.58-1.61V76h-1.2v-.51h1.2v-1.5l.6-.17v1.67h2.24V76h-2.24v3.9c0,.76.37,1.15,1.05,1.15a1.38,1.38,0,0,0,1.06-.44Z"/><path class="cls-2" d="M232.75,78.56H228A2.25,2.25,0,0,0,230.24,81a2.08,2.08,0,0,0,2-1.13l.48.27a2.63,2.63,0,0,1-2.44,1.38,3.13,3.13,0,0,1-.07-6.23,2.54,2.54,0,0,1,2.59,2.84C232.77,78.32,232.76,78.45,232.75,78.56ZM228,78h4.16a2,2,0,0,0-2-2.17A2.16,2.16,0,0,0,228,78Z"/><path class="cls-2" d="M238.34,81.43l-2-2.62-2,2.62h-.72L236,78.36l-2.26-2.92h.77l1.88,2.44,1.83-2.44h.72l-2.2,2.89,2.38,3.1Z"/><path class="cls-2" d="M243.89,81.05a2,2,0,0,1-1.36.5A1.44,1.44,0,0,1,241,79.94V76h-1.2v-.51H241v-1.5l.6-.17v1.67h2.24V76h-2.24v3.9c0,.76.37,1.15,1,1.15a1.38,1.38,0,0,0,1.06-.44Z"/><path class="cls-2" d="M250.5,78.44a2.87,2.87,0,1,1-2.86-3.12A2.81,2.81,0,0,1,250.5,78.44Zm-5.11,0c0,1.62.88,2.6,2.25,2.6s2.26-1,2.26-2.6-.89-2.61-2.26-2.61S245.39,76.82,245.39,78.44Z"/><line class="cls-5" x1="158.6" y1="91.94" x2="269.75" y2="91.94"/><line class="cls-5" x1="158.6" y1="103.36" x2="269.75" y2="103.36"/><line class="cls-5" x1="158.6" y1="114.78" x2="269.75" y2="114.78"/><line class="cls-5" x1="158.6" y1="126.2" x2="269.75" y2="126.2"/><path class="cls-2" d="M212.13,145.63l-2.51,6H209l-2.5-6h.67l2.15,5.37,2.15-5.37Z"/><path class="cls-2" d="M215.1,142.74l-1.13,1.9h-.49l1-1.9Zm-1,8.89h-.6v-6h.6Z"/><path class="cls-2" d="M221.49,147.74v3.89h-.6v-3.7a1.64,1.64,0,0,0-1.75-1.89,2.1,2.1,0,0,0-2.15,2.21v3.38h-.6v-6h.54l0,1.2a2.31,2.31,0,0,1,2.23-1.32A2.09,2.09,0,0,1,221.49,147.74Z"/><path class="cls-2" d="M228.53,147.13l-.56.26A1.78,1.78,0,0,0,226.1,146c-1.32,0-2.22,1-2.22,2.59s.88,2.59,2.21,2.59a1.81,1.81,0,0,0,1.95-1.43l.55.19a2.44,2.44,0,0,1-2.49,1.77,3.14,3.14,0,0,1,0-6.24A2.39,2.39,0,0,1,228.53,147.13Z"/><path class="cls-2" d="M230.26,149.59v-4h.6v3.81a1.54,1.54,0,0,0,1.72,1.78,2.07,2.07,0,0,0,2.11-2.15v-3.44h.6v6h-.54l0-1.24a2.33,2.33,0,0,1-2.29,1.36A2,2,0,0,1,230.26,149.59Z"/><path class="cls-2" d="M238.1,150.21c0,.75.25,1,.79,1a1.57,1.57,0,0,0,.76-.16l-.09.53a1.82,1.82,0,0,1-.79.16c-.85,0-1.27-.47-1.27-1.51v-7.37h.6Z"/><path class="cls-2" d="M246.21,148.63a2.87,2.87,0,1,1-2.86-3.12A2.82,2.82,0,0,1,246.21,148.63Zm-5.11,0c0,1.62.89,2.6,2.25,2.6s2.26-1,2.26-2.6-.89-2.6-2.26-2.6S241.1,147,241.1,148.63Z"/><path class="cls-2" d="M186.59,156.86a4.2,4.2,0,0,1-3-1.23l-1-1a4.2,4.2,0,0,1,0-6l3.5-3.5a4.22,4.22,0,0,1,6,0,.69.69,0,0,1,0,1,.67.67,0,0,1-1,0,2.87,2.87,0,0,0-4,0l-3.5,3.5a2.85,2.85,0,0,0,0,4l1,1a2.85,2.85,0,0,0,4,0l2-2a.68.68,0,1,1,1,1l-2,2A4.2,4.2,0,0,1,186.59,156.86Z"/><path class="cls-2" d="M193.09,151.36a4.2,4.2,0,0,1-3-1.23.67.67,0,0,1,0-1,.69.69,0,0,1,1,0,2.85,2.85,0,0,0,4,0l3.5-3.5a2.87,2.87,0,0,0,0-4l-1-1a2.92,2.92,0,0,0-4,0l-2.49,2.48a.66.66,0,0,1-1,0,.67.67,0,0,1,0-1l2.48-2.48a4.22,4.22,0,0,1,6,0l1,1a4.22,4.22,0,0,1,0,6l-3.5,3.5A4.2,4.2,0,0,1,193.09,151.36Z"/><rect class="cls-2" x="184.55" y="139.18" width="1.37" height="5.84" rx="0.69" transform="translate(-40.02 203.48) rotate(-52.74)"/><rect class="cls-2" x="186.78" y="137.4" width="1.37" height="5.84" rx="0.69" transform="translate(-42.07 93.97) rotate(-25.4)"/></g></g></svg>