<svg xmlns="http://www.w3.org/2000/svg" viewBox="0 0 313.25 176.26"><defs><style>.cls-1{fill:#f2f2f2;}.cls-1,.cls-3,.cls-4{stroke:#606060;stroke-miterlimit:10;}.cls-1,.cls-3{stroke-width:0.75px;}.cls-2{fill:#606060;}.cls-3,.cls-4{fill:none;stroke-linecap:round;}</style></defs><g id="Capa_2" data-name="Capa 2"><g id="Capa_1-2" data-name="Capa 1"><rect class="cls-1" x="0.38" y="0.38" width="312.5" height="175.51" rx="4.72"/><path class="cls-2" d="M123.4,18c0,1.94-1.4,3.11-3.59,3.11h-2.7v4.37h-.8V14.86h3.5C122,14.86,123.4,16,123.4,18Zm-.85,0c0-1.49-1-2.35-2.84-2.35h-2.6v4.7h2.6C121.57,20.3,122.55,19.46,122.55,18Z"/><path class="cls-2" d="M126.35,23.54c0,1,.34,1.34,1.06,1.34a2.08,2.08,0,0,0,1-.21l-.11.71a2.53,2.53,0,0,1-1.06.21c-1.14,0-1.7-.63-1.7-2V13.74h.8Z"/><path class="cls-2" d="M137.2,24.75l0,.64a1.36,1.36,0,0,1-.71.15,1.3,1.3,0,0,1-1.39-1.43,3.17,3.17,0,0,1-2.83,1.48c-1.52,0-2.61-.72-2.61-2.07,0-1.2.84-1.92,2.29-2.21l3.15-.62v-.53A2,2,0,0,0,132.9,18a2.43,2.43,0,0,0-2.55,1.69l-.65-.41a3.13,3.13,0,0,1,3.21-2,2.63,2.63,0,0,1,3,2.76v4c0,.57.27.85.77.85A1.29,1.29,0,0,0,137.2,24.75Zm-2.14-2.14V21.36l-2.75.54c-1.27.26-1.88.73-1.88,1.56s.68,1.42,1.91,1.42A2.45,2.45,0,0,0,135.06,22.61Z"/><path class="cls-2" d="M145.81,20.24v5.19H145V20.5c0-1.76-1-2.53-2.34-2.53a2.8,2.8,0,0,0-2.86,2.94v4.52H139v-8h.72l.05,1.6a3.09,3.09,0,0,1,3-1.76A2.79,2.79,0,0,1,145.81,20.24Z"/><path class="cls-2" d="M153,24.91a2.59,2.59,0,0,1-1.81.68,1.94,1.94,0,0,1-2.11-2.17V18.11h-1.6v-.69h1.6v-2l.8-.22v2.22h3v.69h-3v5.2c0,1,.49,1.54,1.41,1.54a1.83,1.83,0,0,0,1.4-.59Z"/><path class="cls-2" d="M154.45,15.2a.67.67,0,1,1,.67.67A.64.64,0,0,1,154.45,15.2Zm1.07,10.23h-.8v-8h.8Z"/><path class="cls-2" d="M159.28,23.54c0,1,.34,1.34,1.06,1.34a2.08,2.08,0,0,0,1-.21l-.12.71a2.48,2.48,0,0,1-1,.21c-1.14,0-1.7-.63-1.7-2V13.74h.8Z"/><path class="cls-2" d="M163.83,23.54c0,1,.33,1.34,1,1.34a2.08,2.08,0,0,0,1-.21l-.11.71a2.5,2.5,0,0,1-1.06.21c-1.14,0-1.7-.63-1.7-2V13.74h.81Z"/><path class="cls-2" d="M174.68,24.75l-.05.64a1.36,1.36,0,0,1-.71.15,1.3,1.3,0,0,1-1.39-1.43,3.16,3.16,0,0,1-2.83,1.48c-1.52,0-2.61-.72-2.61-2.07,0-1.2.85-1.92,2.29-2.21l3.15-.62v-.53A2,2,0,0,0,170.37,18a2.43,2.43,0,0,0-2.55,1.69l-.65-.41a3.13,3.13,0,0,1,3.22-2A2.62,2.62,0,0,1,173.33,20v4c0,.57.27.85.77.85A1.34,1.34,0,0,0,174.68,24.75Zm-2.15-2.14V21.36l-2.75.54c-1.27.26-1.88.73-1.88,1.56s.68,1.42,1.91,1.42A2.45,2.45,0,0,0,172.53,22.61Z"/><path class="cls-2" d="M182.91,17.05c0-.35,0-.73,0-1.12a5.58,5.58,0,0,1-2.77,1.77L180,17a5.84,5.84,0,0,0,3-2.11h.72V25.43h-.8Z"/><path class="cls-2" d="M73.19,86,92,96.86a1.17,1.17,0,0,1,0,2L73.19,109.72a1.17,1.17,0,0,1-1.75-1V87A1.17,1.17,0,0,1,73.19,86Z"/><path class="cls-2" d="M51,67a2,2,0,1,1-2-2A2,2,0,0,1,51,67Z"/><path class="cls-2" d="M57.47,67a2,2,0,1,1-2-2A2,2,0,0,1,57.47,67Z"/><path class="cls-2" d="M63.9,67a2,2,0,1,1-2-2A2,2,0,0,1,63.9,67Z"/><path class="cls-2" d="M123.86,75.27H38.66V65.84A8.33,8.33,0,0,1,47,57.52h68.62a8.26,8.26,0,0,1,8.25,8.24ZM41,73h80.6V65.76a6,6,0,0,0-6-6H47a6,6,0,0,0-6,6Z"/><path class="cls-2" d="M116.59,123.81H45.47A6.82,6.82,0,0,1,38.66,117V73h85.2v43.57A7.28,7.28,0,0,1,116.59,123.81ZM41,75.27V117a4.52,4.52,0,0,0,4.51,4.52h71.12a5,5,0,0,0,5-5V75.27Z"/><path class="cls-2" d="M71.85,139.54h-.71l-3.06-7.92h.65l2.34,6.13.42,1.23.42-1.23,2.35-6.13h.63Z"/><path class="cls-2" d="M76.16,131.88a.5.5,0,1,1,1,0,.5.5,0,0,1-1,0Zm.8,7.66h-.6v-6H77Z"/><path class="cls-2" d="M84.37,130.79v8.75h-.54l0-1.41a2.23,2.23,0,0,1-2.23,1.53c-1.56,0-2.74-1.16-2.74-3.12a2.8,2.8,0,0,1,2.8-3.12,2.15,2.15,0,0,1,2.14,1.46v-4.09Zm-.6,5.7c0-1.57-.87-2.54-2.11-2.54s-2.23,1-2.23,2.59.85,2.59,2.21,2.59S83.77,138.11,83.77,136.49Z"/><path class="cls-2" d="M91.57,136.66H86.81a2.26,2.26,0,0,0,2.26,2.47A2.08,2.08,0,0,0,91,138l.48.27a2.63,2.63,0,0,1-2.43,1.38,3.14,3.14,0,0,1-.07-6.24,2.55,2.55,0,0,1,2.59,2.85A3.89,3.89,0,0,1,91.57,136.66Zm-4.73-.54H91A2,2,0,0,0,89,134,2.16,2.16,0,0,0,86.84,136.12Z"/><path class="cls-2" d="M98.74,136.54a2.87,2.87,0,1,1-2.86-3.12A2.82,2.82,0,0,1,98.74,136.54Zm-5.11,0c0,1.62.88,2.6,2.25,2.6s2.26-1,2.26-2.6-.89-2.6-2.26-2.6S93.63,134.92,93.63,136.54Z"/><path class="cls-2" d="M204,46.49h-2.89v7.36h-.6V46.49h-2.89v-.55H204Z"/><path class="cls-2" d="M206.61,45l-1.13,1.89H205L206,45Zm-1,8.88H205v-6h.6Z"/><path class="cls-2" d="M211.24,53.47a1.93,1.93,0,0,1-1.36.5,1.45,1.45,0,0,1-1.58-1.61v-4h-1.2v-.51h1.2v-1.5l.6-.17v1.67h2.24v.51H208.9v3.9c0,.76.37,1.15,1.06,1.15a1.36,1.36,0,0,0,1-.44Z"/><path class="cls-2" d="M212.49,51.82v-4h.6v3.81c0,1.25.62,1.78,1.71,1.78a2.08,2.08,0,0,0,2.12-2.15V47.86h.59v6H217l0-1.23A2.33,2.33,0,0,1,214.66,54,2,2,0,0,1,212.49,51.82Z"/><path class="cls-2" d="M220.33,52.44c0,.74.25,1,.79,1a1.53,1.53,0,0,0,.75-.16l-.08.53A2,2,0,0,1,221,54c-.85,0-1.27-.46-1.27-1.51V45.1h.6Z"/><path class="cls-2" d="M228.43,50.86a2.87,2.87,0,1,1-5.71,0,2.87,2.87,0,1,1,5.71,0Zm-5.1,0c0,1.62.88,2.6,2.25,2.6s2.25-1,2.25-2.6-.88-2.61-2.25-2.61S223.33,49.24,223.33,50.86Z"/><polygon class="cls-3" points="237.38 59.15 188.98 59.15 188.98 40.61 237.68 40.61 237.38 59.15"/><path class="cls-2" d="M180.58,82.89c-2.18,0-3.6-1.57-3.6-4.07s1.43-4.08,3.59-4.08a2.92,2.92,0,0,1,3.07,2l-.59.28a2.3,2.3,0,0,0-2.45-1.68c-1.78,0-3,1.34-3,3.53s1.16,3.52,3,3.52a2.49,2.49,0,0,0,2.57-1.8l.6.23A3.14,3.14,0,0,1,180.58,82.89Z"/><path class="cls-2" d="M185.39,80.74v-4h.6v3.81a1.54,1.54,0,0,0,1.72,1.78,2.08,2.08,0,0,0,2.11-2.15V76.78h.6v6h-.54l0-1.23a2.31,2.31,0,0,1-2.29,1.35A2,2,0,0,1,185.39,80.74Z"/><path class="cls-2" d="M197.62,79.9h-4.76a2.25,2.25,0,0,0,2.25,2.47,2.08,2.08,0,0,0,2-1.13l.48.27a2.62,2.62,0,0,1-2.44,1.38,3.13,3.13,0,0,1-.07-6.23,2.54,2.54,0,0,1,2.59,2.84C197.64,79.66,197.63,79.79,197.62,79.9Zm-4.74-.54H197a2,2,0,0,0-2-2.17A2.17,2.17,0,0,0,192.88,79.36Z"/><path class="cls-2" d="M199.48,76.78H200l.07,1.25A2,2,0,0,1,202,76.66a1.32,1.32,0,0,1,.76.2l-.15.53a1.18,1.18,0,0,0-.75-.18,2,2,0,0,0-1.78,2.21v3.35h-.6Z"/><path class="cls-2" d="M209.69,79.78c0,2-1.17,3.11-2.73,3.11a2.31,2.31,0,0,1-2.22-1.42v3.82h-.6V76.78h.54l0,1.34A2.34,2.34,0,0,1,207,76.66C208.53,76.66,209.69,77.82,209.69,79.78Zm-.6,0c0-1.61-.84-2.59-2.18-2.59s-2.17,1-2.17,2.59.88,2.59,2.14,2.59S209.09,81.38,209.09,79.78Z"/><path class="cls-2" d="M216.84,79.78A2.87,2.87,0,1,1,214,76.66,2.8,2.8,0,0,1,216.84,79.78Zm-5.11,0c0,1.62.89,2.6,2.26,2.6s2.25-1,2.25-2.6-.89-2.61-2.25-2.61S211.73,78.16,211.73,79.78Z"/><path class="cls-2" d="M225.65,82.39a1.92,1.92,0,0,1-1.35.5,1.45,1.45,0,0,1-1.59-1.61v-4h-1.2v-.51h1.2v-1.5l.6-.17v1.67h2.25v.51h-2.25v3.9c0,.76.37,1.15,1.06,1.15a1.36,1.36,0,0,0,1-.44Z"/><path class="cls-2" d="M231.9,79.9h-4.76a2.26,2.26,0,0,0,2.26,2.47,2.07,2.07,0,0,0,2-1.13l.48.27a2.61,2.61,0,0,1-2.43,1.38,3.13,3.13,0,0,1-.07-6.23,2.54,2.54,0,0,1,2.59,2.84A3.88,3.88,0,0,1,231.9,79.9Zm-4.73-.54h4.16a2,2,0,0,0-2-2.17A2.15,2.15,0,0,0,227.17,79.36Z"/><path class="cls-2" d="M237.5,82.77l-2-2.62-2,2.62h-.72l2.37-3.07-2.25-2.92h.77l1.88,2.44,1.82-2.44h.72l-2.19,2.89,2.37,3.1Z"/><path class="cls-2" d="M243,82.39a1.93,1.93,0,0,1-1.36.5,1.45,1.45,0,0,1-1.58-1.61v-4h-1.2v-.51h1.2v-1.5l.6-.17v1.67h2.24v.51H240.7v3.9c0,.76.37,1.15,1.06,1.15a1.36,1.36,0,0,0,1.05-.44Z"/><path class="cls-2" d="M249.65,79.78a2.87,2.87,0,1,1-2.86-3.12A2.81,2.81,0,0,1,249.65,79.78Zm-5.11,0c0,1.62.89,2.6,2.25,2.6s2.26-1,2.26-2.6-.89-2.61-2.26-2.61S244.54,78.16,244.54,79.78Z"/><line class="cls-4" x1="157.76" y1="93.28" x2="268.9" y2="93.28"/><line class="cls-4" x1="157.76" y1="104.7" x2="268.9" y2="104.7"/><line class="cls-4" x1="157.76" y1="116.12" x2="268.9" y2="116.12"/><line class="cls-4" x1="157.76" y1="127.54" x2="268.9" y2="127.54"/><path class="cls-2" d="M210.78,149.21l-2.5,6h-.6l-2.51-6h.67l2.15,5.38,2.16-5.38Z"/><path class="cls-2" d="M213.75,146.32l-1.13,1.9h-.49l1-1.9Zm-1,8.89h-.6v-6h.6Z"/><path class="cls-2" d="M220.14,151.33v3.88h-.6v-3.69c0-1.32-.72-1.9-1.75-1.9a2.1,2.1,0,0,0-2.14,2.21v3.38h-.6v-6h.54l0,1.2a2.31,2.31,0,0,1,2.23-1.32A2.09,2.09,0,0,1,220.14,151.33Z"/><path class="cls-2" d="M227.19,150.71l-.57.27a1.78,1.78,0,0,0-1.87-1.36c-1.32,0-2.22,1-2.22,2.59s.88,2.59,2.21,2.59a1.82,1.82,0,0,0,2-1.42l.55.19a2.45,2.45,0,0,1-2.5,1.76,3.14,3.14,0,0,1,0-6.24A2.39,2.39,0,0,1,227.19,150.71Z"/><path class="cls-2" d="M228.92,153.17v-4h.6V153c0,1.25.62,1.77,1.71,1.77a2.06,2.06,0,0,0,2.11-2.14v-3.45h.6v6h-.54l0-1.23a2.33,2.33,0,0,1-2.29,1.35A2,2,0,0,1,228.92,153.17Z"/><path class="cls-2" d="M236.75,153.8c0,.74.26,1,.8,1a1.53,1.53,0,0,0,.75-.15l-.08.52a1.85,1.85,0,0,1-.79.16c-.86,0-1.28-.47-1.28-1.51v-7.36h.6Z"/><path class="cls-2" d="M244.86,152.21a2.87,2.87,0,1,1-2.85-3.12A2.8,2.8,0,0,1,244.86,152.21Zm-5.11,0c0,1.62.89,2.61,2.26,2.61s2.25-1,2.25-2.61-.89-2.6-2.25-2.6S239.75,150.59,239.75,152.21Z"/><path class="cls-2" d="M186.24,160.45a4.2,4.2,0,0,1-3-1.23l-1-1a4.22,4.22,0,0,1,0-6l3.5-3.5a4.2,4.2,0,0,1,6,0,.68.68,0,1,1-1,1,2.85,2.85,0,0,0-4,0l-3.5,3.5a2.81,2.81,0,0,0-.84,2,2.85,2.85,0,0,0,.84,2l1,1a2.87,2.87,0,0,0,4,0l2-2a.67.67,0,0,1,1,0,.69.69,0,0,1,0,1l-2,2A4.2,4.2,0,0,1,186.24,160.45Z"/><path class="cls-2" d="M192.74,155a4.2,4.2,0,0,1-3-1.23.69.69,0,0,1,0-1,.67.67,0,0,1,1,0,2.87,2.87,0,0,0,4,0l3.5-3.5a2.85,2.85,0,0,0,.84-2,2.81,2.81,0,0,0-.84-2l-1-1a2.92,2.92,0,0,0-4,0l-2.48,2.48a.69.69,0,0,1-1,0,.67.67,0,0,1,0-1l2.48-2.48a4.2,4.2,0,0,1,6,0l1,1a4.22,4.22,0,0,1,0,6l-3.5,3.5A4.2,4.2,0,0,1,192.74,155Z"/><rect class="cls-2" x="184.2" y="142.77" width="1.37" height="5.84" rx="0.69" transform="matrix(0.61, -0.8, 0.8, 0.61, -43, 204.62)"/><rect class="cls-2" x="186.43" y="140.98" width="1.37" height="5.84" rx="0.69" transform="translate(-43.64 94.17) rotate(-25.4)"/></g></g></svg>