<svg xmlns="http://www.w3.org/2000/svg" viewBox="0 0 52.58 48.27"><defs><style>.cls-1{fill:#3d64ab;}.cls-2{fill:none;stroke:#3d64ab;stroke-miterlimit:10;}</style></defs><g id="Capa_2" data-name="Capa 2"><g id="Capa_1-2" data-name="Capa 1"><path class="cls-1" d="M44.83,14.69a8.16,8.16,0,0,1-1.25-.2c-.14,0-.27,0-.4,0a22.19,22.19,0,1,1-5.27-6.59A4.55,4.55,0,0,1,38,7a4.7,4.7,0,0,1,.17-.83A23.56,23.56,0,1,0,45,14.68Z"/><circle class="cls-2" cx="45.13" cy="7.45" r="6.95"/><path class="cls-1" d="M50.18,6.38V8.5H40.09V6.38ZM46.29,2.19V12.71H44V2.19Z"/><path class="cls-2" d="M23.92,22.76l1.13,2.29a.39.39,0,0,0,.28.2l2.53.37a.37.37,0,0,1,.2.63L26.24,28a.38.38,0,0,0-.11.33l.43,2.52a.37.37,0,0,1-.54.39l-2.26-1.19a.34.34,0,0,0-.34,0l-2.26,1.19a.37.37,0,0,1-.54-.39l.43-2.52a.38.38,0,0,0-.11-.33l-1.82-1.78a.37.37,0,0,1,.2-.63l2.53-.37a.39.39,0,0,0,.28-.2l1.13-2.29A.36.36,0,0,1,23.92,22.76Z"/><rect class="cls-2" x="12.14" y="15.34" width="22.9" height="18.7" rx="2.48"/><line class="cls-2" x1="12.09" y1="20.71" x2="35.09" y2="20.71"/><circle class="cls-1" cx="15.21" cy="18.12" r="0.97"/><circle class="cls-1" cx="18.04" cy="18.12" r="0.97"/><circle class="cls-1" cx="20.88" cy="18.12" r="0.97"/></g></g></svg>