<svg xmlns="http://www.w3.org/2000/svg" viewBox="0 0 52.67 48.15"><defs><style>.cls-1{fill:#3d64ab;}.cls-2{fill:#3c63ab;}</style></defs><g id="Capa_2" data-name="Capa 2"><g id="Capa_1-2" data-name="Capa 1"><path class="cls-1" d="M43.31,14.43h-.09a21.89,21.89,0,0,1,2.47,10.13A22.15,22.15,0,1,1,37.88,7.73a5.8,5.8,0,0,1,.19-.59,4.34,4.34,0,0,1,.22-1A23.55,23.55,0,1,0,45,14.58,4.55,4.55,0,0,1,43.31,14.43Z"/><path class="cls-1" d="M45.22,14.9a7.45,7.45,0,1,1,7.45-7.45A7.46,7.46,0,0,1,45.22,14.9Zm0-13.9a6.45,6.45,0,1,0,6.45,6.45A6.46,6.46,0,0,0,45.22,1Z"/><path class="cls-1" d="M50.27,6.38V8.5H40.18V6.38ZM46.38,2.19V12.71h-2.3V2.19Z"/><path class="cls-1" d="M26.67,30.24a.87.87,0,0,1-.44-.11l-2.67-1.4L21,30.13a.94.94,0,0,1-1.36-1l.51-3L18,24.12a1,1,0,0,1,.52-1.61l3-.43,1.29-2.67a1,1,0,0,1,1.68,0l1.34,2.7,2.94.4a1,1,0,0,1,.76.64,1,1,0,0,1-.24,1l-2.16,2.1.53,2.92a.94.94,0,0,1-.38.92A.93.93,0,0,1,26.67,30.24Zm-3.08-2.5a1,1,0,0,1,.44.1l2.56,1.35-.49-2.85a.94.94,0,0,1,.27-.83l2.07-2-2.86-.42a.94.94,0,0,1-.71-.51l-1.3-2.64-1.26,2.64a.94.94,0,0,1-.71.51l-2.86.42,2.07,2a.94.94,0,0,1,.27.83l-.49,2.85,2.56-1.35A1,1,0,0,1,23.59,27.74Z"/><path class="cls-2" d="M23.59,36.53a12,12,0,1,1,9.05-4.16l.64,3.13a.82.82,0,0,1-.3.8.81.81,0,0,1-.86.08L29.42,35A11.91,11.91,0,0,1,23.59,36.53Zm0-22.93A11,11,0,1,0,29.15,34l.24-.14,2.83,1.45-.66-3.23.17-.19A11,11,0,0,0,23.59,13.6Z"/></g></g></svg>