<svg xmlns="http://www.w3.org/2000/svg" viewBox="0 0 320.09 175.11"><defs><style>.cls-1{fill:#f2f2f1;}.cls-1,.cls-3,.cls-4,.cls-5{stroke:#616160;stroke-miterlimit:10;}.cls-1,.cls-4{stroke-width:0.75px;}.cls-2{fill:#616160;}.cls-3,.cls-4,.cls-5{fill:none;}.cls-3{stroke-width:2px;}.cls-4,.cls-5{stroke-linecap:round;}</style></defs><g id="Capa_2" data-name="Capa 2"><g id="Capa_1-2" data-name="Capa 1"><rect class="cls-1" x="0.38" y="0.38" width="319.34" height="174.36" rx="4.72"/><path class="cls-2" d="M122.59,17.84c0,1.92-1.39,3.08-3.56,3.08h-2.69v4.34h-.8V14.77H119C121.2,14.77,122.59,15.93,122.59,17.84Zm-.85,0c0-1.48-1-2.34-2.81-2.34h-2.59v4.68h2.59C120.78,20.18,121.74,19.33,121.74,17.84Z"/><path class="cls-2" d="M125.53,23.39c0,1,.33,1.33,1,1.33a2.06,2.06,0,0,0,1-.2l-.11.7a2.65,2.65,0,0,1-1,.2c-1.13,0-1.69-.62-1.69-2V13.66h.8Z"/><path class="cls-2" d="M136.3,24.6l0,.63a1.36,1.36,0,0,1-.7.14A1.29,1.29,0,0,1,134.17,24a3.13,3.13,0,0,1-2.81,1.46c-1.51,0-2.59-.71-2.59-2.05s.84-1.91,2.27-2.19l3.13-.62V20A2,2,0,0,0,132,17.85a2.42,2.42,0,0,0-2.53,1.69l-.65-.41a3.11,3.11,0,0,1,3.19-2c1.75,0,2.93.93,2.93,2.73v4c0,.58.27.85.76.85A1.26,1.26,0,0,0,136.3,24.6Zm-2.13-2.14V21.23l-2.73.54c-1.26.25-1.86.71-1.86,1.54s.67,1.41,1.89,1.41A2.43,2.43,0,0,0,134.17,22.46Z"/><path class="cls-2" d="M144.86,20.11v5.15h-.8V20.37c0-1.75-.95-2.52-2.32-2.52a2.79,2.79,0,0,0-2.85,2.93v4.48h-.79v-8h.71l.05,1.59a3.07,3.07,0,0,1,3-1.74A2.77,2.77,0,0,1,144.86,20.11Z"/><path class="cls-2" d="M152,24.75a2.57,2.57,0,0,1-1.8.67,1.92,1.92,0,0,1-2.1-2.14V18h-1.59v-.69h1.59v-2l.79-.23v2.21h3V18h-3v5.16c0,1,.5,1.53,1.4,1.53a1.83,1.83,0,0,0,1.4-.59Z"/><path class="cls-2" d="M153.44,15.1a.67.67,0,1,1,.66.67A.63.63,0,0,1,153.44,15.1Zm1.06,10.16h-.79v-8h.79Z"/><path class="cls-2" d="M158.24,23.39c0,1,.33,1.33,1,1.33a2.06,2.06,0,0,0,1-.2l-.11.7a2.65,2.65,0,0,1-1.05.2c-1.13,0-1.69-.62-1.69-2V13.66h.8Z"/><path class="cls-2" d="M162.75,23.39c0,1,.34,1.33,1.05,1.33a2,2,0,0,0,1-.2l-.11.7a2.62,2.62,0,0,1-1.05.2c-1.13,0-1.68-.62-1.68-2V13.66h.79Z"/><path class="cls-2" d="M173.53,24.6l-.05.63a1.36,1.36,0,0,1-.7.14A1.28,1.28,0,0,1,171.4,24a3.15,3.15,0,0,1-2.82,1.46c-1.51,0-2.59-.71-2.59-2.05s.85-1.91,2.28-2.19l3.13-.62V20a2,2,0,0,0-2.15-2.18,2.43,2.43,0,0,0-2.53,1.69l-.65-.41a3.11,3.11,0,0,1,3.2-2,2.59,2.59,0,0,1,2.92,2.73v4c0,.58.27.85.77.85A1.32,1.32,0,0,0,173.53,24.6Zm-2.13-2.14V21.23l-2.74.54c-1.25.25-1.86.71-1.86,1.54s.67,1.41,1.9,1.41A2.43,2.43,0,0,0,171.4,22.46Z"/><path class="cls-2" d="M179.68,24.61c4-3.12,5.85-4.77,5.85-6.8A2.36,2.36,0,0,0,183,15.34a2.76,2.76,0,0,0-2.81,2.86l-.7-.39a3.33,3.33,0,0,1,3.53-3.2,3.08,3.08,0,0,1,3.39,3.2c0,2.13-1.77,3.91-5.52,6.72v0l1,0h4.8v.73h-7Z"/><path class="cls-2" d="M63.86,135.79h-.6v-7.87h.6Z"/><path class="cls-2" d="M66.24,129.83h.54l0,1.24A2.27,2.27,0,0,1,69,129.71a2.06,2.06,0,0,1,2.13,1.45,2.34,2.34,0,0,1,2.27-1.46,2.08,2.08,0,0,1,2.24,2.22v3.86H75V132a1.6,1.6,0,0,0-1.72-1.76,2.07,2.07,0,0,0-2.07,2.14v3.43h-.6V132a1.58,1.58,0,0,0-1.72-1.75,2.08,2.08,0,0,0-2.08,2.18v3.37h-.6Z"/><path class="cls-2" d="M83.05,135.29l0,.48a1,1,0,0,1-.52.1,1,1,0,0,1-1-1.06,2.36,2.36,0,0,1-2.11,1.1c-1.13,0-1.94-.54-1.94-1.54s.63-1.43,1.71-1.64l2.34-.47v-.39a1.48,1.48,0,0,0-1.61-1.63A1.81,1.81,0,0,0,78,131.5l-.49-.31a2.35,2.35,0,0,1,2.4-1.48,2,2,0,0,1,2.19,2v3c0,.43.2.63.57.63A1,1,0,0,0,83.05,135.29Zm-1.6-1.6v-.93l-2,.41c-.94.19-1.39.53-1.39,1.15s.5,1.06,1.42,1.06A1.82,1.82,0,0,0,81.45,133.69Z"/><path class="cls-2" d="M89.33,136.54c0,1.1-1.19,1.81-2.8,1.81-1.8,0-2.77-.69-2.77-1.61a1.29,1.29,0,0,1,1.16-1.27,1,1,0,0,1-.75-1,1.16,1.16,0,0,1,1-1.12,1.81,1.81,0,0,1-1.09-1.7c0-1.15,1-1.94,2.41-1.94a2.93,2.93,0,0,1,1.38.31,1.4,1.4,0,0,1,1.5-1.29l.15.53c-.77,0-1.22.36-1.27,1a1.76,1.76,0,0,1,.62,1.37c0,1.16-1,2-2.38,2a3.24,3.24,0,0,1-.79-.09c-.59.11-.94.42-.94.85s.47.81,1.12.81h1.61C88.62,135.18,89.33,135.72,89.33,136.54Zm-.56.07c0-.56-.47-.92-1.46-.92h-1.7c-.75,0-1.29.38-1.29,1s.83,1.19,2.21,1.19S88.77,137.31,88.77,136.61Zm-2.32-3.49c1,0,1.77-.58,1.77-1.47s-.73-1.45-1.77-1.45-1.79.58-1.79,1.45S85.39,133.12,86.45,133.12Z"/><path class="cls-2" d="M95.57,132.93H90.84a2.23,2.23,0,0,0,2.24,2.45,2.06,2.06,0,0,0,2-1.12l.48.28a2.62,2.62,0,0,1-2.42,1.37,3.12,3.12,0,0,1-.07-6.2,2.53,2.53,0,0,1,2.57,2.83C95.59,132.69,95.58,132.82,95.57,132.93Zm-4.71-.54H95a1.94,1.94,0,0,0-2-2.15A2.14,2.14,0,0,0,90.86,132.39Z"/><path class="cls-2" d="M102.48,131.93v3.86h-.59v-3.67a1.64,1.64,0,0,0-1.74-1.88A2.09,2.09,0,0,0,98,132.43v3.36h-.59v-6H98L98,131a2.31,2.31,0,0,1,2.22-1.31A2.07,2.07,0,0,1,102.48,131.93Z"/><rect class="cls-3" x="55.41" y="72.14" width="54.81" height="51.47" rx="6.13"/><path class="cls-2" d="M102.55,120.78,95,108.68a3.94,3.94,0,0,0-6.68,0L87.49,110a1.41,1.41,0,0,1-2.48-.16L80,99a3.8,3.8,0,0,0-6.91,0L62,123a.47.47,0,0,0,.42.66H100.1C102.07,123.61,103.38,122.1,102.55,120.78Z"/><circle class="cls-2" cx="92.87" cy="86.85" r="7.5"/><path class="cls-2" d="M139.42,39.6h-2.88v7.32H136V39.6h-2.87v-.55h6.34Z"/><path class="cls-2" d="M142,38.09,140.92,40h-.49l1-1.88Zm-1,8.83h-.59V41h.59Z"/><path class="cls-2" d="M146.64,46.54a1.9,1.9,0,0,1-1.35.5,1.44,1.44,0,0,1-1.57-1.61v-4h-1.19V41h1.19V39.47l.6-.17V41h2.23v.51h-2.23v3.88c0,.75.37,1.14,1.05,1.14a1.34,1.34,0,0,0,1-.44Z"/><path class="cls-2" d="M147.88,44.89V41h.6v3.79c0,1.24.62,1.76,1.7,1.76a2.05,2.05,0,0,0,2.1-2.13V41h.59v6h-.53l0-1.23A2.31,2.31,0,0,1,150,47,2,2,0,0,1,147.88,44.89Z"/><path class="cls-2" d="M155.67,45.51c0,.74.25,1,.78,1a1.51,1.51,0,0,0,.75-.15l-.08.52a1.82,1.82,0,0,1-.79.16c-.84,0-1.26-.47-1.26-1.5V38.22h.6Z"/><path class="cls-2" d="M163.72,43.94a2.85,2.85,0,1,1-5.67,0,2.85,2.85,0,1,1,5.67,0Zm-5.07,0c0,1.61.88,2.59,2.24,2.59s2.24-1,2.24-2.59-.88-2.59-2.24-2.59S158.65,42.33,158.65,43.94Z"/><polygon class="cls-4" points="172.94 52.18 124.86 52.18 124.86 33.76 173.24 33.76 172.94 52.18"/><path class="cls-2" d="M180.24,72.65c-2.17,0-3.58-1.56-3.58-4.05s1.42-4,3.57-4a2.91,2.91,0,0,1,3.05,1.94l-.59.28a2.29,2.29,0,0,0-2.43-1.67c-1.77,0-3,1.33-3,3.5s1.16,3.5,3,3.5a2.48,2.48,0,0,0,2.55-1.78l.59.22A3.09,3.09,0,0,1,180.24,72.65Z"/><path class="cls-2" d="M185,70.51V66.57h.59v3.79a1.54,1.54,0,0,0,1.71,1.77,2.07,2.07,0,0,0,2.1-2.14V66.57H190v6h-.53l0-1.22a2.31,2.31,0,0,1-2.27,1.34A2,2,0,0,1,185,70.51Z"/><path class="cls-2" d="M197.16,69.67h-4.73a2.24,2.24,0,0,0,2.24,2.46,2.08,2.08,0,0,0,2-1.12l.48.27a2.63,2.63,0,0,1-2.42,1.37,3.12,3.12,0,0,1-.08-6.2,2.53,2.53,0,0,1,2.58,2.83A2.13,2.13,0,0,1,197.16,69.67Zm-4.7-.53h4.13a1.94,1.94,0,0,0-2-2.16A2.15,2.15,0,0,0,192.46,69.14Z"/><path class="cls-2" d="M199,66.57h.51l.07,1.24a2,2,0,0,1,1.93-1.36,1.28,1.28,0,0,1,.75.21l-.15.52a1.16,1.16,0,0,0-.75-.18,2,2,0,0,0-1.76,2.2v3.33H199Z"/><path class="cls-2" d="M209.16,69.55c0,2-1.17,3.1-2.72,3.1a2.27,2.27,0,0,1-2.2-1.42V75h-.6V66.57h.54l0,1.34a2.34,2.34,0,0,1,2.25-1.46C208,66.45,209.16,67.61,209.16,69.55Zm-.6,0c0-1.59-.83-2.57-2.17-2.57s-2.15,1-2.15,2.57.88,2.58,2.13,2.58S208.56,71.15,208.56,69.55Z"/><path class="cls-2" d="M216.26,69.55a2.85,2.85,0,1,1-2.83-3.1A2.79,2.79,0,0,1,216.26,69.55Zm-5.07,0c0,1.61.88,2.59,2.24,2.59s2.24-1,2.24-2.59S214.78,67,213.43,67,211.19,68,211.19,69.55Z"/><path class="cls-2" d="M225,72.15a1.89,1.89,0,0,1-1.34.5A1.45,1.45,0,0,1,222.09,71v-4H220.9v-.52h1.19V65.08l.6-.16v1.65h2.23v.52h-2.23V71c0,.75.37,1.14,1.05,1.14a1.37,1.37,0,0,0,1-.44Z"/><path class="cls-2" d="M231.22,69.67h-4.73a2.24,2.24,0,0,0,2.24,2.46,2.08,2.08,0,0,0,2-1.12l.47.27a2.61,2.61,0,0,1-2.42,1.37,3.12,3.12,0,0,1-.07-6.2,2.54,2.54,0,0,1,2.58,2.83A2.13,2.13,0,0,1,231.22,69.67Zm-4.7-.53h4.13a1.94,1.94,0,0,0-2-2.16A2.14,2.14,0,0,0,226.52,69.14Z"/><path class="cls-2" d="M236.78,72.53l-2-2.61-2,2.61h-.72l2.36-3-2.24-2.91H233L234.82,69l1.82-2.44h.71l-2.18,2.88,2.36,3.08Z"/><path class="cls-2" d="M242.29,72.15a1.92,1.92,0,0,1-1.35.5A1.44,1.44,0,0,1,239.37,71v-4h-1.2v-.52h1.2V65.08l.59-.16v1.65h2.23v.52H240V71c0,.75.37,1.14,1,1.14a1.36,1.36,0,0,0,1.05-.44Z"/><path class="cls-2" d="M248.85,69.55a2.85,2.85,0,1,1-2.83-3.1A2.79,2.79,0,0,1,248.85,69.55Zm-5.07,0c0,1.61.88,2.59,2.24,2.59s2.24-1,2.24-2.59S247.38,67,246,67,243.78,68,243.78,69.55Z"/><line class="cls-5" x1="157.56" y1="82.97" x2="267.98" y2="82.97"/><line class="cls-5" x1="157.56" y1="94.31" x2="267.98" y2="94.31"/><line class="cls-5" x1="157.56" y1="105.66" x2="267.98" y2="105.66"/><path class="cls-2" d="M210.74,119.42l-2.49,6h-.6l-2.49-6h.67l2.13,5.34,2.15-5.34Z"/><path class="cls-2" d="M213.69,116.55l-1.12,1.88h-.49l.95-1.88Zm-1,8.83h-.6v-6h.6Z"/><path class="cls-2" d="M220,121.52v3.86h-.6v-3.67c0-1.31-.71-1.89-1.74-1.89a2.09,2.09,0,0,0-2.13,2.2v3.36H215v-6h.54l0,1.19a2.3,2.3,0,0,1,2.21-1.31A2.08,2.08,0,0,1,220,121.52Z"/><path class="cls-2" d="M227,120.91l-.56.26a1.78,1.78,0,0,0-1.86-1.35c-1.31,0-2.21,1-2.21,2.58s.87,2.57,2.2,2.57a1.8,1.8,0,0,0,1.94-1.41l.55.19a2.44,2.44,0,0,1-2.48,1.75,3.12,3.12,0,0,1,0-6.2A2.39,2.39,0,0,1,227,120.91Z"/><path class="cls-2" d="M228.75,123.35v-3.93h.6v3.79c0,1.24.62,1.76,1.7,1.76a2.05,2.05,0,0,0,2.1-2.13v-3.42h.6v6h-.54l0-1.23a2.31,2.31,0,0,1-2.28,1.35A2,2,0,0,1,228.75,123.35Z"/><path class="cls-2" d="M236.54,124c0,.74.25,1,.79,1a1.55,1.55,0,0,0,.75-.15l-.09.52a1.77,1.77,0,0,1-.78.16c-.85,0-1.27-.47-1.27-1.5v-7.32h.6Z"/><path class="cls-2" d="M244.6,122.4a2.85,2.85,0,1,1-2.84-3.1A2.8,2.8,0,0,1,244.6,122.4Zm-5.08,0c0,1.61.88,2.59,2.24,2.59s2.24-1,2.24-2.59-.88-2.59-2.24-2.59S239.52,120.79,239.52,122.4Z"/><path class="cls-2" d="M185.36,130.58a4.17,4.17,0,0,1-3-1.23l-1-1a4.18,4.18,0,0,1,0-5.92l3.48-3.48a4.2,4.2,0,0,1,5.92,0,.68.68,0,0,1-1,1,2.83,2.83,0,0,0-4,0l-3.48,3.47a2.85,2.85,0,0,0,0,4l1,1a2.83,2.83,0,0,0,4,0l2-2a.66.66,0,0,1,.95,0,.68.68,0,0,1,0,1l-2,2A4.14,4.14,0,0,1,185.36,130.58Z"/><path class="cls-2" d="M191.82,125.11a4.16,4.16,0,0,1-3-1.22.68.68,0,0,1,0-1,.67.67,0,0,1,.95,0,2.86,2.86,0,0,0,4,0l3.48-3.48a2.84,2.84,0,0,0,0-4l-1-1a2.91,2.91,0,0,0-4,0l-2.47,2.47a.67.67,0,0,1-1-1l2.46-2.47a4.18,4.18,0,0,1,5.92,0l1,1a4.2,4.2,0,0,1,0,5.92l-3.48,3.48A4.15,4.15,0,0,1,191.82,125.11Z"/><rect class="cls-2" x="183.34" y="113.01" width="1.36" height="5.8" rx="0.45" transform="translate(-19.65 192.18) rotate(-52.74)"/><rect class="cls-2" x="185.55" y="111.24" width="1.36" height="5.8" rx="0.45" transform="translate(-30.96 90.91) rotate(-25.4)"/><path class="cls-2" d="M147.63,155.77c-2.16,0-3.57-1.56-3.57-4.05s1.42-4.05,3.56-4.05a2.88,2.88,0,0,1,3,1.94l-.58.27a2.29,2.29,0,0,0-2.43-1.67c-1.78,0-3,1.34-3,3.51s1.16,3.5,2.94,3.5a2.47,2.47,0,0,0,2.55-1.79l.6.23A3.12,3.12,0,0,1,147.63,155.77Z"/><path class="cls-2" d="M157.68,152.67a2.85,2.85,0,1,1-2.83-3.1A2.79,2.79,0,0,1,157.68,152.67Zm-5.07,0c0,1.61.88,2.59,2.24,2.59s2.24-1,2.24-2.59-.88-2.59-2.24-2.59S152.61,151.06,152.61,152.67Z"/><path class="cls-2" d="M164.57,151.79v3.86H164V152a1.64,1.64,0,0,0-1.74-1.88,2.09,2.09,0,0,0-2.14,2.19v3.36h-.59v-6H160l0,1.19a2.32,2.32,0,0,1,2.22-1.31A2.07,2.07,0,0,1,164.57,151.79Z"/><path class="cls-2" d="M169.91,155.27a1.89,1.89,0,0,1-1.34.5,1.45,1.45,0,0,1-1.58-1.61v-4H165.8v-.51H167V148.2l.6-.17v1.66h2.23v.51h-2.23v3.88c0,.75.37,1.14,1,1.14a1.37,1.37,0,0,0,1.05-.44Z"/><path class="cls-2" d="M176.46,155.15l0,.48a1,1,0,0,1-.52.1,1,1,0,0,1-1-1.06,2.36,2.36,0,0,1-2.11,1.1c-1.13,0-1.94-.54-1.94-1.54s.63-1.43,1.7-1.64l2.35-.47v-.39a1.48,1.48,0,0,0-1.61-1.63,1.81,1.81,0,0,0-1.89,1.26l-.49-.31a2.35,2.35,0,0,1,2.4-1.48,2,2,0,0,1,2.19,2.05v3c0,.43.2.63.57.63A1,1,0,0,0,176.46,155.15Zm-1.6-1.6v-.93l-2.05.41c-.94.19-1.39.53-1.39,1.15s.5,1.06,1.42,1.06A1.82,1.82,0,0,0,174.86,153.55Z"/><path class="cls-2" d="M182.62,151.18l-.56.26a1.77,1.77,0,0,0-1.86-1.34c-1.31,0-2.2,1-2.2,2.57s.87,2.57,2.19,2.57a1.8,1.8,0,0,0,1.94-1.41l.55.19a2.44,2.44,0,0,1-2.48,1.75,3.12,3.12,0,0,1,0-6.2A2.38,2.38,0,0,1,182.62,151.18Z"/><path class="cls-2" d="M187.71,155.27a1.89,1.89,0,0,1-1.34.5,1.45,1.45,0,0,1-1.58-1.61v-4H183.6v-.51h1.19V148.2l.6-.17v1.66h2.23v.51h-2.23v3.88c0,.75.37,1.14,1.05,1.14a1.37,1.37,0,0,0,1.05-.44Z"/><path class="cls-2" d="M194.28,152.67a2.85,2.85,0,1,1-2.84-3.1A2.8,2.8,0,0,1,194.28,152.67Zm-5.08,0c0,1.61.89,2.59,2.24,2.59s2.25-1,2.25-2.59-.89-2.59-2.25-2.59S189.2,151.06,189.2,152.67Z"/><path class="cls-2" d="M134.88,160.46a7.69,7.69,0,0,1-1.5-.31,13.28,13.28,0,0,1-4-2.17,17.69,17.69,0,0,1-4.66-5.2,10.43,10.43,0,0,1-1.29-3.26c0-.15-.06-.3-.08-.45a1.07,1.07,0,0,1,.16-.72,14,14,0,0,1,1.64-2.18,6.63,6.63,0,0,1,1.1-1,1,1,0,0,1,1.45.23,19.27,19.27,0,0,1,1.88,3.07,3.62,3.62,0,0,1,.2.55.87.87,0,0,1-.19.87,7.67,7.67,0,0,1-.94.86.28.28,0,0,0-.1.38,7.11,7.11,0,0,0,4.15,4.15.29.29,0,0,0,.38-.11,7.43,7.43,0,0,1,.84-.93.9.9,0,0,1,.89-.2,8.41,8.41,0,0,1,1.63.78c.65.38,1.27.8,1.89,1.23a1.28,1.28,0,0,1,.46.52.83.83,0,0,1,0,.86,6.25,6.25,0,0,1-1.09,1.21,13.58,13.58,0,0,1-2.14,1.63A1.05,1.05,0,0,1,134.88,160.46Zm-.09-1.09a.34.34,0,0,0,.24-.07l.54-.37a14.43,14.43,0,0,0,2.08-1.83c.07-.08.12-.14,0-.23a18.34,18.34,0,0,0-2.93-1.73.2.2,0,0,0-.28.05c-.21.26-.42.53-.64.77-.59.61-.59.6-1.3.36A7.79,7.79,0,0,1,129,154a7.55,7.55,0,0,1-1.66-3,.6.6,0,0,1,.14-.6,9.25,9.25,0,0,1,1-.89c.24-.21.25-.21.11-.5A18.05,18.05,0,0,0,127,146.2c-.13-.19-.14-.19-.3,0a16.08,16.08,0,0,0-2.05,2.39.92.92,0,0,0-.14.77,10.21,10.21,0,0,0,1.43,3.34,16.58,16.58,0,0,0,3.29,3.8,13.51,13.51,0,0,0,4.24,2.56A7.06,7.06,0,0,0,134.79,159.37Z"/><path class="cls-2" d="M137.82,152.18c-.12,0-.24,0-.35,0s-.19-.05-.19-.19a4.51,4.51,0,0,0-.24-1.46,5.6,5.6,0,0,0-4.2-3.9,3.65,3.65,0,0,0-1-.12c-.14,0-.21,0-.2-.2s0-.47,0-.71.05-.18.18-.18a6.21,6.21,0,0,1,2.62.6,6.72,6.72,0,0,1,4,5.95c0,.15,0,.22-.2.21h-.34Z"/><path class="cls-2" d="M135.23,152.18c-.12,0-.24,0-.36,0s-.18-.05-.18-.18a2.61,2.61,0,0,0-.11-.68,3.06,3.06,0,0,0-2.53-2.21H132c-.39,0-.39,0-.39-.42,0-.17,0-.33,0-.5s0-.17.17-.17a3.84,3.84,0,0,1,2,.62,4.08,4.08,0,0,1,1.94,3c0,.12,0,.23,0,.35s0,.21-.19.2A2,2,0,0,0,135.23,152.18Z"/><path class="cls-2" d="M61.89,58.77l-.5.38a2.44,2.44,0,0,0-2.52-1.57c-1.42,0-2.18.71-2.18,1.62,0,.73.39,1.2,1.67,1.48L59.9,61c1.52.33,2.09.94,2.09,1.93,0,1.3-1.19,2.19-2.94,2.19a3.19,3.19,0,0,1-3.29-1.9l.52-.41a2.64,2.64,0,0,0,2.79,1.77c1.35,0,2.3-.56,2.3-1.61,0-.66-.41-1.12-1.59-1.37l-1.62-.36c-1.52-.33-2.1-1-2.1-2,0-1.2,1.08-2.24,2.86-2.24A3,3,0,0,1,61.89,58.77Z"/><path class="cls-2" d="M68.72,62.16H64a2.23,2.23,0,0,0,2.24,2.45,2.08,2.08,0,0,0,2-1.12l.48.27a2.61,2.61,0,0,1-2.42,1.37,3.11,3.11,0,0,1-.07-6.19,2.52,2.52,0,0,1,2.57,2.82C68.74,61.92,68.73,62.05,68.72,62.16ZM64,61.62h4.13a2,2,0,0,0-2-2.16A2.15,2.15,0,0,0,64,61.62Z"/><path class="cls-2" d="M75.38,60.55l-.56.26A1.77,1.77,0,0,0,73,59.46c-1.31,0-2.2,1-2.2,2.58s.87,2.57,2.19,2.57a1.8,1.8,0,0,0,1.94-1.42l.55.19A2.43,2.43,0,0,1,73,65.13a3.11,3.11,0,0,1,0-6.19A2.37,2.37,0,0,1,75.38,60.55Z"/><path class="cls-2" d="M77.16,59.06h.5l.07,1.24a2,2,0,0,1,1.93-1.36,1.28,1.28,0,0,1,.75.2l-.14.52a1.28,1.28,0,0,0-.75-.17,2,2,0,0,0-1.77,2.19V65h-.59Z"/><path class="cls-2" d="M86.41,62.16H81.68a2.23,2.23,0,0,0,2.24,2.45,2.08,2.08,0,0,0,2-1.12l.48.27a2.61,2.61,0,0,1-2.42,1.37,3.11,3.11,0,0,1-.07-6.19,2.52,2.52,0,0,1,2.57,2.82C86.43,61.92,86.42,62.05,86.41,62.16Zm-4.71-.54h4.14a2,2,0,0,0-2-2.16A2.15,2.15,0,0,0,81.7,61.62Z"/><path class="cls-2" d="M91.44,64.63a1.92,1.92,0,0,1-1.35.5,1.44,1.44,0,0,1-1.57-1.6v-4H87.33v-.51h1.19V57.57l.59-.17v1.66h2.23v.51H89.11v3.87c0,.75.37,1.15,1,1.15a1.39,1.39,0,0,0,1-.44Z"/><path class="cls-2" d="M98,64.51,98,65a1.07,1.07,0,0,1-.53.11,1,1,0,0,1-1-1.06,2.36,2.36,0,0,1-2.11,1.09c-1.14,0-2-.53-2-1.53S93,62.17,94,62l2.35-.46v-.4a1.49,1.49,0,0,0-1.61-1.63,1.81,1.81,0,0,0-1.9,1.27l-.49-.31a2.33,2.33,0,0,1,2.4-1.48A2,2,0,0,1,97,61v3c0,.43.2.63.57.63A1,1,0,0,0,98,64.51Zm-1.59-1.59V62l-2,.4c-1,.19-1.4.54-1.4,1.16s.5,1.06,1.42,1.06A1.83,1.83,0,0,0,96.39,62.92Z"/><path class="cls-2" d="M99.33,59.06h.5l.07,1.24a2,2,0,0,1,1.93-1.36,1.32,1.32,0,0,1,.76.2l-.15.52a1.24,1.24,0,0,0-.75-.17,2,2,0,0,0-1.76,2.19V65h-.6Z"/><path class="cls-2" d="M105.52,56.18l-1.12,1.89h-.49l1-1.89Zm-1,8.84H104v-6h.59Z"/><path class="cls-2" d="M112.05,64.51l0,.48a1,1,0,0,1-.52.11,1,1,0,0,1-1-1.06,2.35,2.35,0,0,1-2.11,1.09c-1.13,0-1.94-.53-1.94-1.53s.63-1.43,1.71-1.65l2.34-.46v-.4a1.48,1.48,0,0,0-1.61-1.63A1.81,1.81,0,0,0,107,60.73l-.49-.31a2.33,2.33,0,0,1,2.4-1.48A2,2,0,0,1,111.05,61v3c0,.43.2.63.57.63A1,1,0,0,0,112.05,64.51Zm-1.6-1.59V62l-2,.4c-.94.19-1.39.54-1.39,1.16s.5,1.06,1.42,1.06A1.82,1.82,0,0,0,110.45,62.92Z"/></g></g></svg>