<svg xmlns="http://www.w3.org/2000/svg" viewBox="0 0 322.86 176.26"><defs><style>.cls-1{fill:#f2f2f2;}.cls-1,.cls-3,.cls-4{stroke:#616160;stroke-miterlimit:10;}.cls-1,.cls-3{stroke-width:0.75px;}.cls-2{fill:#616160;}.cls-3,.cls-4{fill:none;stroke-linecap:round;}</style></defs><g id="Capa_2" data-name="Capa 2"><g id="Capa_1-2" data-name="Capa 1"><rect class="cls-1" x="0.38" y="0.38" width="322.11" height="175.51" rx="4.72"/><path class="cls-2" d="M127.4,18c0,1.94-1.4,3.11-3.59,3.11H121.1v4.37h-.8V14.86h3.51C126,14.86,127.4,16,127.4,18Zm-.85,0c0-1.49-1-2.35-2.84-2.35H121.1v4.7h2.61C125.57,20.3,126.55,19.46,126.55,18Z"/><path class="cls-2" d="M130.35,23.54c0,1,.34,1.34,1.06,1.34a2.08,2.08,0,0,0,1-.21l-.12.71a2.48,2.48,0,0,1-1.05.21c-1.14,0-1.7-.63-1.7-2V13.74h.8Z"/><path class="cls-2" d="M141.2,24.75l0,.64a1.35,1.35,0,0,1-.7.15,1.3,1.3,0,0,1-1.39-1.43,3.18,3.18,0,0,1-2.84,1.48c-1.52,0-2.6-.72-2.6-2.07,0-1.2.84-1.92,2.28-2.21l3.16-.62v-.53A2,2,0,0,0,136.9,18a2.43,2.43,0,0,0-2.55,1.69l-.65-.41a3.13,3.13,0,0,1,3.21-2,2.63,2.63,0,0,1,3,2.76v4c0,.57.27.85.77.85A1.32,1.32,0,0,0,141.2,24.75Zm-2.14-2.14V21.36l-2.76.54c-1.26.26-1.87.73-1.87,1.56s.67,1.42,1.91,1.42A2.46,2.46,0,0,0,139.06,22.61Z"/><path class="cls-2" d="M149.81,20.24v5.19H149V20.5c0-1.77-1-2.53-2.34-2.53a2.8,2.8,0,0,0-2.86,2.94v4.52H143v-8h.72l.05,1.6a3.09,3.09,0,0,1,3-1.76A2.79,2.79,0,0,1,149.81,20.24Z"/><path class="cls-2" d="M157,24.91a2.59,2.59,0,0,1-1.81.68,1.94,1.94,0,0,1-2.11-2.17V18.11h-1.6v-.69h1.6v-2l.8-.22v2.22h3v.69h-3v5.2c0,1,.49,1.54,1.41,1.54a1.83,1.83,0,0,0,1.4-.59Z"/><path class="cls-2" d="M158.45,15.2a.67.67,0,1,1,.67.67A.64.64,0,0,1,158.45,15.2Zm1.07,10.23h-.8v-8h.8Z"/><path class="cls-2" d="M163.28,23.54c0,1,.34,1.34,1.06,1.34a2,2,0,0,0,1-.21l-.11.71a2.48,2.48,0,0,1-1,.21c-1.14,0-1.7-.63-1.7-2V13.74h.8Z"/><path class="cls-2" d="M167.82,23.54c0,1,.34,1.34,1.06,1.34a2.08,2.08,0,0,0,1-.21l-.11.71a2.53,2.53,0,0,1-1.06.21c-1.14,0-1.7-.63-1.7-2V13.74h.8Z"/><path class="cls-2" d="M178.67,24.75l0,.64a1.36,1.36,0,0,1-.71.15,1.3,1.3,0,0,1-1.39-1.43,3.16,3.16,0,0,1-2.83,1.48c-1.52,0-2.61-.72-2.61-2.07,0-1.2.85-1.92,2.29-2.21l3.15-.62v-.53A2,2,0,0,0,174.37,18a2.43,2.43,0,0,0-2.55,1.69l-.65-.41a3.13,3.13,0,0,1,3.21-2,2.62,2.62,0,0,1,3,2.76v4c0,.57.27.85.77.85A1.29,1.29,0,0,0,178.67,24.75Zm-2.14-2.14V21.36l-2.75.54c-1.27.26-1.88.73-1.88,1.56s.68,1.42,1.91,1.42A2.45,2.45,0,0,0,176.53,22.61Z"/><path class="cls-2" d="M186.91,17.05c0-.35,0-.73,0-1.12a5.58,5.58,0,0,1-2.77,1.77L184,17a5.84,5.84,0,0,0,3-2.11h.72V25.43h-.8Z"/><path class="cls-2" d="M77.19,101.37,96,112.2a1.17,1.17,0,0,1,0,2L77.19,125.06a1.17,1.17,0,0,1-1.75-1V102.38A1.17,1.17,0,0,1,77.19,101.37Z"/><path class="cls-2" d="M55,82.34a2,2,0,1,1-2-2A2,2,0,0,1,55,82.34Z"/><path class="cls-2" d="M61.47,82.34a2,2,0,1,1-2-2A2,2,0,0,1,61.47,82.34Z"/><path class="cls-2" d="M67.9,82.34a2,2,0,1,1-2-2A2,2,0,0,1,67.9,82.34Z"/><path class="cls-2" d="M127.86,90.61H42.66V81.18A8.33,8.33,0,0,1,51,72.86h68.62a8.26,8.26,0,0,1,8.25,8.24ZM45,88.31h80.6V81.1a6,6,0,0,0-6-5.95H51a6,6,0,0,0-6,6Z"/><path class="cls-2" d="M120.59,139.15H49.47a6.82,6.82,0,0,1-6.81-6.81v-44h85.2v43.57A7.28,7.28,0,0,1,120.59,139.15ZM45,90.61v41.73a4.52,4.52,0,0,0,4.51,4.52h71.12a5,5,0,0,0,5-5V90.61Z"/><path class="cls-2" d="M90.53,85.64h-.71l-3.06-7.91h.65l2.34,6.13.42,1.22.42-1.22,2.35-6.13h.63Z"/><path class="cls-2" d="M94.84,78a.5.5,0,1,1,1,0,.5.5,0,0,1-1,0Zm.8,7.66H95v-6h.6Z"/><path class="cls-2" d="M103.05,76.89v8.75h-.54l0-1.41a2.23,2.23,0,0,1-2.23,1.53c-1.56,0-2.74-1.16-2.74-3.12a2.8,2.8,0,0,1,2.8-3.11A2.16,2.16,0,0,1,102.45,81V76.89Zm-.6,5.71c0-1.57-.87-2.55-2.11-2.55s-2.23,1-2.23,2.59.85,2.59,2.21,2.59S102.45,84.22,102.45,82.6Z"/><path class="cls-2" d="M110.25,82.76h-4.76a2.26,2.26,0,0,0,2.26,2.47,2.06,2.06,0,0,0,2-1.12l.48.27a2.63,2.63,0,0,1-2.43,1.38,3.13,3.13,0,0,1-.07-6.23,2.54,2.54,0,0,1,2.59,2.84A3.66,3.66,0,0,1,110.25,82.76Zm-4.73-.54h4.16a2,2,0,0,0-2-2.17A2.16,2.16,0,0,0,105.52,82.22Z"/><path class="cls-2" d="M117.42,82.64a2.87,2.87,0,1,1-2.86-3.11A2.81,2.81,0,0,1,117.42,82.64Zm-5.11,0c0,1.62.88,2.61,2.25,2.61s2.26-1,2.26-2.61-.89-2.6-2.26-2.6S112.31,81,112.31,82.64Z"/><path class="cls-2" d="M138.51,41.49h-2.89v7.36H135V41.49h-2.89v-.55h6.38Z"/><path class="cls-2" d="M141.16,40,140,41.86h-.49l1-1.89Zm-1,8.88h-.6v-6h.6Z"/><path class="cls-2" d="M145.79,48.47a2,2,0,0,1-1.36.5,1.45,1.45,0,0,1-1.58-1.61v-4h-1.2v-.51h1.2v-1.5l.6-.17v1.67h2.24v.51h-2.24v3.9c0,.76.37,1.15,1.05,1.15a1.38,1.38,0,0,0,1.06-.44Z"/><path class="cls-2" d="M147,46.82v-4h.6v3.81c0,1.25.62,1.78,1.71,1.78a2.07,2.07,0,0,0,2.11-2.15V42.86h.6v6h-.54l0-1.23A2.33,2.33,0,0,1,149.21,49,2,2,0,0,1,147,46.82Z"/><path class="cls-2" d="M154.87,47.44c0,.74.25,1,.79,1a1.57,1.57,0,0,0,.76-.16l-.08.53a2,2,0,0,1-.8.15c-.85,0-1.27-.46-1.27-1.51V40.1h.6Z"/><path class="cls-2" d="M163,45.86a2.87,2.87,0,1,1-5.71,0,2.87,2.87,0,1,1,5.71,0Zm-5.11,0c0,1.62.89,2.6,2.26,2.6s2.25-1,2.25-2.6-.89-2.61-2.25-2.61S157.87,44.24,157.87,45.86Z"/><polygon class="cls-3" points="171.93 54.15 123.53 54.15 123.53 35.61 172.23 35.61 171.93 54.15"/><path class="cls-2" d="M63.29,58l-.5.38a2.46,2.46,0,0,0-2.53-1.58c-1.43,0-2.2.72-2.2,1.63,0,.73.4,1.21,1.68,1.49l1.55.33c1.53.34,2.11,1,2.11,2,0,1.3-1.2,2.2-3,2.2a3.21,3.21,0,0,1-3.31-1.92l.52-.4a2.65,2.65,0,0,0,2.81,1.77c1.35,0,2.31-.56,2.31-1.62,0-.66-.42-1.13-1.6-1.38l-1.63-.36c-1.53-.33-2.11-1-2.11-2,0-1.21,1.09-2.25,2.87-2.25A3,3,0,0,1,63.29,58Z"/><path class="cls-2" d="M70.17,61.41H65.4a2.26,2.26,0,0,0,2.26,2.47,2.08,2.08,0,0,0,2-1.12l.48.27a2.65,2.65,0,0,1-2.44,1.38,2.82,2.82,0,0,1-2.85-3.11c0-1.95,1.18-3.12,2.78-3.12A2.54,2.54,0,0,1,70.19,61C70.19,61.17,70.18,61.31,70.17,61.41Zm-4.74-.53h4.16a2,2,0,0,0-2-2.18A2.16,2.16,0,0,0,65.43,60.88Z"/><path class="cls-2" d="M76.87,59.8l-.56.26a1.78,1.78,0,0,0-1.87-1.36c-1.32,0-2.22,1-2.22,2.6s.88,2.58,2.21,2.58a1.81,1.81,0,0,0,1.95-1.42l.55.19a2.44,2.44,0,0,1-2.49,1.76,2.8,2.8,0,0,1-2.82-3.11,2.81,2.81,0,0,1,2.83-3.12A2.39,2.39,0,0,1,76.87,59.8Z"/><path class="cls-2" d="M78.66,58.3h.51l.07,1.24a2,2,0,0,1,1.94-1.36,1.32,1.32,0,0,1,.76.2l-.15.53a1.16,1.16,0,0,0-.75-.18,2,2,0,0,0-1.78,2.2v3.36h-.6Z"/><path class="cls-2" d="M88,61.41H83.21a2.26,2.26,0,0,0,2.26,2.47,2.06,2.06,0,0,0,2-1.12l.48.27a2.62,2.62,0,0,1-2.43,1.38,3.13,3.13,0,0,1-.07-6.23A2.54,2.54,0,0,1,88,61,2.13,2.13,0,0,1,88,61.41Zm-4.73-.53H87.4a2,2,0,0,0-2-2.18A2.16,2.16,0,0,0,83.24,60.88Z"/><path class="cls-2" d="M93,63.91a1.93,1.93,0,0,1-1.36.5,1.45,1.45,0,0,1-1.58-1.62v-4H88.9V58.3h1.2V56.8l.6-.17V58.3h2.24v.51H90.7v3.9c0,.76.37,1.15,1.06,1.15a1.36,1.36,0,0,0,1-.44Z"/><path class="cls-2" d="M99.63,63.79l0,.48a1.07,1.07,0,0,1-.53.11,1,1,0,0,1-1-1.07,2.36,2.36,0,0,1-2.12,1.1c-1.14,0-2-.54-2-1.54s.64-1.44,1.72-1.66L98,60.74v-.39A1.5,1.5,0,0,0,96.4,58.7,1.84,1.84,0,0,0,94.49,60L94,59.66a2.36,2.36,0,0,1,2.41-1.48,2,2,0,0,1,2.21,2.06v3c0,.43.2.63.57.63A1,1,0,0,0,99.63,63.79ZM98,62.18v-.93l-2.06.4c-.95.2-1.41.54-1.41,1.17s.51,1.06,1.43,1.06A1.83,1.83,0,0,0,98,62.18Z"/><path class="cls-2" d="M101,58.3h.51l.07,1.24a2,2,0,0,1,1.94-1.36,1.32,1.32,0,0,1,.76.2l-.15.53a1.16,1.16,0,0,0-.75-.18,2,2,0,0,0-1.78,2.2v3.36H101Z"/><path class="cls-2" d="M107.21,55.41l-1.13,1.89h-.49l1-1.89Zm-1,8.88h-.6v-6h.6Z"/><path class="cls-2" d="M113.79,63.79l0,.48a1.07,1.07,0,0,1-.53.11,1,1,0,0,1-1-1.07,2.36,2.36,0,0,1-2.12,1.1c-1.14,0-2-.54-2-1.54s.64-1.44,1.72-1.66l2.36-.47v-.39a1.5,1.5,0,0,0-1.62-1.65A1.84,1.84,0,0,0,108.65,60l-.49-.32a2.36,2.36,0,0,1,2.41-1.48,2,2,0,0,1,2.21,2.06v3c0,.43.2.63.57.63A1,1,0,0,0,113.79,63.79Zm-1.61-1.61v-.93l-2.06.4c-1,.2-1.41.54-1.41,1.17s.51,1.06,1.43,1.06A1.83,1.83,0,0,0,112.18,62.18Z"/><path class="cls-2" d="M184.58,65.89c-2.18,0-3.6-1.57-3.6-4.07s1.43-4.08,3.59-4.08a2.92,2.92,0,0,1,3.07,1.95l-.59.28a2.3,2.3,0,0,0-2.45-1.68c-1.78,0-3,1.34-3,3.53s1.16,3.52,3,3.52a2.49,2.49,0,0,0,2.57-1.8l.59.23A3.12,3.12,0,0,1,184.58,65.89Z"/><path class="cls-2" d="M189.39,63.73V59.78h.6v3.81a1.54,1.54,0,0,0,1.72,1.78,2.08,2.08,0,0,0,2.11-2.15V59.78h.6v6h-.54l0-1.23a2.32,2.32,0,0,1-2.29,1.35A2,2,0,0,1,189.39,63.73Z"/><path class="cls-2" d="M201.62,62.89h-4.76a2.25,2.25,0,0,0,2.25,2.48,2.08,2.08,0,0,0,2-1.13l.48.27a2.63,2.63,0,0,1-2.44,1.38,3.13,3.13,0,0,1-.07-6.23,2.54,2.54,0,0,1,2.59,2.84A3.84,3.84,0,0,1,201.62,62.89Zm-4.74-.53H201a2,2,0,0,0-2-2.18A2.17,2.17,0,0,0,196.88,62.36Z"/><path class="cls-2" d="M203.48,59.78h.5l.08,1.24A2,2,0,0,1,206,59.66a1.26,1.26,0,0,1,.75.2l-.14.53a1.18,1.18,0,0,0-.75-.18,2,2,0,0,0-1.78,2.21v3.35h-.6Z"/><path class="cls-2" d="M213.69,62.78c0,2-1.18,3.11-2.74,3.11a2.3,2.3,0,0,1-2.21-1.42v3.82h-.6V59.78h.54l0,1.34A2.34,2.34,0,0,1,211,59.66C212.53,59.66,213.69,60.82,213.69,62.78Zm-.6,0c0-1.61-.84-2.6-2.18-2.6s-2.17,1-2.17,2.6.88,2.59,2.14,2.59S213.09,64.38,213.09,62.78Z"/><path class="cls-2" d="M220.84,62.78A2.87,2.87,0,1,1,218,59.66,2.8,2.8,0,0,1,220.84,62.78Zm-5.11,0c0,1.61.89,2.6,2.26,2.6s2.25-1,2.25-2.6-.89-2.61-2.25-2.61S215.73,61.16,215.73,62.78Z"/><path class="cls-2" d="M229.65,65.39a1.93,1.93,0,0,1-1.36.5,1.45,1.45,0,0,1-1.58-1.62v-4h-1.2v-.51h1.2v-1.5l.6-.17v1.67h2.24v.51h-2.24v3.9c0,.76.37,1.15,1.06,1.15a1.36,1.36,0,0,0,1-.44Z"/><path class="cls-2" d="M235.9,62.89h-4.76a2.26,2.26,0,0,0,2.25,2.48,2.08,2.08,0,0,0,2-1.13l.48.27a2.61,2.61,0,0,1-2.43,1.38,3.13,3.13,0,0,1-.08-6.23,2.54,2.54,0,0,1,2.59,2.84A3.84,3.84,0,0,1,235.9,62.89Zm-4.74-.53h4.17a2,2,0,0,0-2-2.18A2.18,2.18,0,0,0,231.16,62.36Z"/><path class="cls-2" d="M241.49,65.77l-2-2.62-2,2.62h-.72l2.37-3.07-2.25-2.92h.76l1.89,2.44,1.82-2.44h.72l-2.2,2.89,2.38,3.1Z"/><path class="cls-2" d="M247,65.39a1.93,1.93,0,0,1-1.36.5,1.45,1.45,0,0,1-1.58-1.62v-4h-1.2v-.51h1.2v-1.5l.6-.17v1.67h2.24v.51H244.7v3.9c0,.76.37,1.15,1.05,1.15a1.38,1.38,0,0,0,1.06-.44Z"/><path class="cls-2" d="M253.65,62.78a2.87,2.87,0,1,1-2.86-3.12A2.81,2.81,0,0,1,253.65,62.78Zm-5.11,0c0,1.61.89,2.6,2.25,2.6s2.26-1,2.26-2.6-.89-2.61-2.26-2.61S248.54,61.16,248.54,62.78Z"/><line class="cls-4" x1="161.76" y1="76.28" x2="272.9" y2="76.28"/><line class="cls-4" x1="161.76" y1="87.7" x2="272.9" y2="87.7"/><line class="cls-4" x1="161.76" y1="99.12" x2="272.9" y2="99.12"/><line class="cls-4" x1="161.76" y1="110.54" x2="272.9" y2="110.54"/><path class="cls-2" d="M214.78,132.21l-2.5,6h-.6l-2.51-6h.67l2.15,5.38,2.16-5.38Z"/><path class="cls-2" d="M217.75,129.32l-1.13,1.9h-.49l1-1.9Zm-1,8.89h-.6v-6h.6Z"/><path class="cls-2" d="M224.14,134.33v3.88h-.6v-3.69c0-1.32-.72-1.9-1.75-1.9a2.1,2.1,0,0,0-2.14,2.21v3.38h-.6v-6h.54l0,1.2a2.31,2.31,0,0,1,2.23-1.32A2.09,2.09,0,0,1,224.14,134.33Z"/><path class="cls-2" d="M231.19,133.71l-.57.27a1.78,1.78,0,0,0-1.87-1.36c-1.32,0-2.22,1-2.22,2.59s.88,2.59,2.21,2.59a1.82,1.82,0,0,0,2-1.42l.55.19a2.45,2.45,0,0,1-2.5,1.76,3.14,3.14,0,0,1,0-6.24A2.39,2.39,0,0,1,231.19,133.71Z"/><path class="cls-2" d="M232.92,136.17v-4h.6V136c0,1.25.62,1.77,1.71,1.77a2.06,2.06,0,0,0,2.11-2.14v-3.45h.6v6h-.54l0-1.23a2.33,2.33,0,0,1-2.29,1.35A2,2,0,0,1,232.92,136.17Z"/><path class="cls-2" d="M240.75,136.8c0,.74.26,1,.8,1a1.53,1.53,0,0,0,.75-.15l-.08.52a1.85,1.85,0,0,1-.79.16c-.86,0-1.28-.47-1.28-1.51v-7.36h.6Z"/><path class="cls-2" d="M248.86,135.21a2.87,2.87,0,1,1-2.85-3.12A2.8,2.8,0,0,1,248.86,135.21Zm-5.11,0c0,1.62.89,2.6,2.26,2.6s2.25-1,2.25-2.6-.89-2.6-2.25-2.6S243.75,133.59,243.75,135.21Z"/><path class="cls-2" d="M190.24,143.45a4.2,4.2,0,0,1-3-1.23l-1-1a4.22,4.22,0,0,1,0-6l3.5-3.5a4.2,4.2,0,0,1,6,0,.68.68,0,1,1-1,1,2.85,2.85,0,0,0-4,0l-3.5,3.5a2.81,2.81,0,0,0-.84,2,2.85,2.85,0,0,0,.84,2l1,1a2.87,2.87,0,0,0,4,0l2-2a.67.67,0,0,1,1,0,.69.69,0,0,1,0,1l-2,2A4.2,4.2,0,0,1,190.24,143.45Z"/><path class="cls-2" d="M196.74,138a4.2,4.2,0,0,1-3-1.23.69.69,0,0,1,0-1,.67.67,0,0,1,1,0,2.87,2.87,0,0,0,4,0l3.5-3.5a2.85,2.85,0,0,0,.84-2,2.81,2.81,0,0,0-.84-2l-1-1a2.92,2.92,0,0,0-4,0l-2.48,2.48a.69.69,0,0,1-1,0,.67.67,0,0,1,0-1l2.48-2.48a4.2,4.2,0,0,1,6,0l1,1a4.22,4.22,0,0,1,0,6l-3.5,3.5A4.2,4.2,0,0,1,196.74,138Z"/><rect class="cls-2" x="188.2" y="125.77" width="1.37" height="5.84" rx="0.69" transform="translate(-27.9 201.1) rotate(-52.74)"/><rect class="cls-2" x="190.43" y="123.98" width="1.37" height="5.84" rx="0.69" transform="translate(-35.96 94.24) rotate(-25.4)"/><path class="cls-2" d="M149.61,161.05c-2.19,0-3.6-1.57-3.6-4.08s1.43-4.08,3.59-4.08a2.92,2.92,0,0,1,3.07,2l-.59.27a2.31,2.31,0,0,0-2.45-1.68c-1.79,0-3,1.35-3,3.53s1.17,3.53,3,3.53a2.49,2.49,0,0,0,2.56-1.8l.6.22A3.12,3.12,0,0,1,149.61,161.05Z"/><path class="cls-2" d="M159.72,157.93a2.87,2.87,0,1,1-2.85-3.12A2.81,2.81,0,0,1,159.72,157.93Zm-5.11,0c0,1.62.89,2.6,2.26,2.6s2.25-1,2.25-2.6-.89-2.6-2.25-2.6S154.61,156.31,154.61,157.93Z"/><path class="cls-2" d="M166.66,157v3.89h-.6v-3.7a1.64,1.64,0,0,0-1.75-1.89,2.1,2.1,0,0,0-2.15,2.2v3.39h-.6v-6h.54l0,1.2a2.31,2.31,0,0,1,2.23-1.32A2.09,2.09,0,0,1,166.66,157Z"/><path class="cls-2" d="M172,160.54a1.91,1.91,0,0,1-1.35.51,1.45,1.45,0,0,1-1.58-1.62v-4h-1.2v-.52h1.2v-1.5l.6-.17v1.67h2.24v.52H169.7v3.89c0,.76.37,1.16,1.05,1.16a1.39,1.39,0,0,0,1.06-.45Z"/><path class="cls-2" d="M178.62,160.42l0,.48a1.07,1.07,0,0,1-.53.11,1,1,0,0,1-1.05-1.07,2.35,2.35,0,0,1-2.12,1.11c-1.14,0-1.95-.54-1.95-1.55s.63-1.44,1.71-1.66l2.36-.46V157a1.49,1.49,0,0,0-1.62-1.64,1.81,1.81,0,0,0-1.9,1.27l-.49-.31a2.35,2.35,0,0,1,2.41-1.49,2,2,0,0,1,2.2,2.06v3c0,.43.21.64.58.64A1,1,0,0,0,178.62,160.42Zm-1.61-1.6v-.94l-2.06.41c-.95.19-1.4.54-1.4,1.16s.5,1.07,1.42,1.07A1.84,1.84,0,0,0,177,158.82Z"/><path class="cls-2" d="M184.83,156.43l-.57.26a1.78,1.78,0,0,0-1.87-1.35c-1.32,0-2.22,1-2.22,2.59s.88,2.59,2.21,2.59a1.81,1.81,0,0,0,2-1.43l.56.19a2.45,2.45,0,0,1-2.5,1.77,3.14,3.14,0,0,1,0-6.24A2.4,2.4,0,0,1,184.83,156.43Z"/><path class="cls-2" d="M190,160.54a1.92,1.92,0,0,1-1.35.51,1.46,1.46,0,0,1-1.59-1.62v-4h-1.2v-.52H187v-1.5l.6-.17v1.67h2.24v.52h-2.24v3.89c0,.76.37,1.16,1.06,1.16a1.37,1.37,0,0,0,1.05-.45Z"/><path class="cls-2" d="M196.56,157.93a2.87,2.87,0,1,1-2.85-3.12A2.81,2.81,0,0,1,196.56,157.93Zm-5.11,0c0,1.62.89,2.6,2.26,2.6s2.25-1,2.25-2.6-.89-2.6-2.25-2.6S191.45,156.31,191.45,157.93Z"/><path class="cls-2" d="M136.77,165.77a7,7,0,0,1-1.51-.32,13.46,13.46,0,0,1-4-2.18,17.82,17.82,0,0,1-4.69-5.24,10.71,10.71,0,0,1-1.3-3.28c0-.15,0-.3-.08-.45a1.06,1.06,0,0,1,.17-.73,13.51,13.51,0,0,1,1.65-2.19,6.37,6.37,0,0,1,1.11-1,1,1,0,0,1,1.45.24,20.83,20.83,0,0,1,1.9,3.09,5.14,5.14,0,0,1,.2.55.91.91,0,0,1-.19.88,7.86,7.86,0,0,1-1,.86.29.29,0,0,0-.1.38,7.18,7.18,0,0,0,4.18,4.18.29.29,0,0,0,.39-.11,8.3,8.3,0,0,1,.84-.94.89.89,0,0,1,.9-.19,7.63,7.63,0,0,1,1.63.78c.66.38,1.29.81,1.92,1.24a1.44,1.44,0,0,1,.46.52.81.81,0,0,1-.05.86,6,6,0,0,1-1.09,1.22,12.68,12.68,0,0,1-2.16,1.64A1,1,0,0,1,136.77,165.77Zm-.09-1.1a.34.34,0,0,0,.24-.07l.54-.37a13.57,13.57,0,0,0,2.09-1.85c.08-.08.13-.14,0-.23a18.58,18.58,0,0,0-3-1.74.2.2,0,0,0-.28.06c-.21.26-.42.52-.65.77-.59.62-.6.6-1.31.36a7.79,7.79,0,0,1-3.5-2.37,7.58,7.58,0,0,1-1.67-3.06.61.61,0,0,1,.14-.6,9.56,9.56,0,0,1,1-.9c.24-.21.25-.21.11-.5a18.31,18.31,0,0,0-1.65-2.76c-.14-.18-.14-.19-.3,0a14.81,14.81,0,0,0-2.07,2.4.92.92,0,0,0-.14.77,10.38,10.38,0,0,0,1.44,3.37,17,17,0,0,0,3.31,3.82,13.7,13.7,0,0,0,4.27,2.58A6.5,6.5,0,0,0,136.68,164.67Z"/><path class="cls-2" d="M139.73,157.43c-.12,0-.24,0-.36,0s-.19-.05-.19-.19a4.91,4.91,0,0,0-.23-1.47,5.68,5.68,0,0,0-4.23-3.93,4.13,4.13,0,0,0-1.05-.12c-.14,0-.21,0-.2-.2s0-.47,0-.71,0-.18.18-.18a6.19,6.19,0,0,1,2.64.61,6.7,6.7,0,0,1,3.88,5,4.85,4.85,0,0,1,.1,1c0,.16,0,.23-.2.21s-.23,0-.34,0Z"/><path class="cls-2" d="M137.12,157.43c-.12,0-.24,0-.36,0s-.19-.05-.19-.18a2.24,2.24,0,0,0-.1-.68,3.11,3.11,0,0,0-2.55-2.23h0c-.4,0-.4,0-.4-.43,0-.17,0-.34,0-.5s0-.18.17-.17a3.79,3.79,0,0,1,2,.62,4.08,4.08,0,0,1,1.95,3c0,.12,0,.23,0,.35s0,.21-.19.2S137.24,157.43,137.12,157.43Z"/></g></g></svg>