<svg id="Capa_1" data-name="Capa 1" xmlns="http://www.w3.org/2000/svg" viewBox="0 0 28.84 18.15"><defs><style>.cls-1,.cls-2,.cls-3{fill:#fff;}.cls-2,.cls-3{stroke:#f42f63;stroke-miterlimit:10;}.cls-2{stroke-width:0.25px;}.cls-3{stroke-width:0.15px;}</style></defs><title>que es</title><rect class="cls-1" x="5.44" y="4.14" width="20.45" height="0.38" rx="0.16"/><rect class="cls-1" x="5.44" y="5.16" width="20.45" height="0.38" rx="0.16"/><rect class="cls-1" x="5.44" y="6.16" width="20.45" height="0.38" rx="0.16"/><rect class="cls-1" x="4.05" y="11.65" width="20.45" height="0.38" rx="0.16"/><rect class="cls-1" x="4.05" y="12.67" width="20.45" height="0.38" rx="0.16"/><rect class="cls-1" x="4.05" y="13.67" width="20.45" height="0.38" rx="0.16"/><path class="cls-1" d="M426.37,200.07h16.31c2,0,1.8-.9,1.22-2.83h-18a2.34,2.34,0,0,1,0-4.67h20.07c.56-1.69,1-2.14,0-2.83H426.37a5.17,5.17,0,0,0,0,10.34Z" transform="translate(-420.36 -189.55)"/><path class="cls-1" d="M443.9,197.22H427.58c-2,0-.35,1.16-1.21,2.84h18a2.34,2.34,0,0,1,0,4.67H421.87c0,1.66-.41,1.42,0,2.84h22a5.18,5.18,0,0,0,0-10.35Z" transform="translate(-420.36 -189.55)"/><path class="cls-2" d="M445.94,192.56l2.65-1.13a.57.57,0,0,0-.12-.76l-2.53-.94Z" transform="translate(-420.36 -189.55)"/><path class="cls-3" d="M448.43,190.66s0,.84,0,.84l.64-.26a.16.16,0,0,0,0-.24Z" transform="translate(-420.36 -189.55)"/><path class="cls-2" d="M420.49,206.15a1.43,1.43,0,0,0,1.42,1.42v-2.84A1.42,1.42,0,0,0,420.49,206.15Z" transform="translate(-420.36 -189.55)"/></svg>