<svg xmlns="http://www.w3.org/2000/svg" viewBox="0 0 20.64 35.16"><defs><style>.cls-1{fill:#e73565;}</style></defs><g id="Capa_2" data-name="Capa 2"><g id="Capa_1-2" data-name="Capa 1"><polygon class="cls-1" points="17.07 20.21 17.07 20.21 17.07 20.21 17.07 20.21"/><path class="cls-1" d="M20.57,9.38A10.42,10.42,0,0,0,18.4,4.05a10.36,10.36,0,0,0-3.7-3A9.83,9.83,0,0,0,9.59,0a10.26,10.26,0,0,0-2.94.7A10.61,10.61,0,0,0,1.07,5.92c-.21.42-.37.86-.54,1.3a4.56,4.56,0,0,1-.18.6h0l-.22,1L.11,9,0,9.85s0,0,0,0V10a.22.22,0,0,1,0,.16v.65l0,.3a6,6,0,0,1,.06.61,0,0,0,0,1,0,0c.11.51.19,1,.33,1.53l0,.07a.11.11,0,0,1,0,.11,19.62,19.62,0,0,0,.71,1.85c.79,1.76,1.72,3.45,2.57,5.18,1,2,2,4,3,6L8,29c.27.55.55,1.09.83,1.64a1.75,1.75,0,0,0,1.33.94,1.6,1.6,0,0,0,1.59-.79,19.73,19.73,0,0,0,1-1.94l3-5.95a2.29,2.29,0,0,1,.29-.56,7.24,7.24,0,0,1,.57-1.15l.05-.09a.36.36,0,0,1,.11-.23h0l.19-.39s0,0,0,0,0,0,0-.05h0a.16.16,0,0,1,.08-.14h0a.07.07,0,0,1,0-.08.49.49,0,0,1,.13-.27l.51-1.05c.68-1.35,1.4-2.67,2-4.06A10.73,10.73,0,0,0,20.57,9.38Zm-5.52,2a.12.12,0,0,1,0,.08,4.58,4.58,0,0,1-1.19,2,4.78,4.78,0,0,1-2.72,1.4,4.66,4.66,0,0,1-2.8-.38,4.73,4.73,0,0,1-2.83-3.73,4.68,4.68,0,0,1,2-4.68,4.77,4.77,0,0,1,4.76-.6,2.83,2.83,0,0,1,.71.37.2.2,0,0,1,.16.11s0,0,0,0a3.14,3.14,0,0,1,.71.6l.05,0a.18.18,0,0,1,.1.12h0a.43.43,0,0,1,.15.18h0a.14.14,0,0,1,.08.1h0a.25.25,0,0,1,.11.12.1.1,0,0,1,.06.09.46.46,0,0,1,.13.21h0a1.12,1.12,0,0,1,.2.33h0a4,4,0,0,1,.51,1.61A4.48,4.48,0,0,1,15.05,11.35Z"/><circle class="cls-1" cx="10.39" cy="34.35" r="0.81"/></g></g></svg>