<svg xmlns="http://www.w3.org/2000/svg" width="26.888" height="29.794" viewBox="0 0 26.888 29.794">
  <g id="png" transform="translate(0.25 0.702)">
    <g id="Grupo_68" data-name="Grupo 68" transform="translate(-47.299 -138.023)">
      <path id="Trazado_131" data-name="Trazado 131" d="M66.217,138.135l-14.081-.112a2.621,2.621,0,0,0-2.642,2.624l.022,23.113a2.621,2.621,0,0,0,2.612,2.618l16.667.058a2.621,2.621,0,0,0,2.63-2.612l.067-20.452" fill="none" stroke="#36c" stroke-linecap="round" stroke-linejoin="round" stroke-width="1.356"/>
      <path id="Trazado_132" data-name="Trazado 132" d="M66.493,138.279l5,5h-5.01v-5" fill="none" stroke="#36c" stroke-linecap="round" stroke-linejoin="round" stroke-width="1.356"/>
    </g>
    <rect id="Rectángulo_44" data-name="Rectángulo 44" width="26.388" height="8.627" rx="2.159" transform="translate(0 15.746)" fill="#fff" stroke="#36c" stroke-miterlimit="10" stroke-width="0.5"/>
    <text id="PNG-2" data-name="PNG" transform="translate(13.194 23.479)" fill="#36c" font-size="10.382" font-family="AntipastoPro, Antipasto Pro"><tspan x="-8.991" y="0">PNG</tspan></text>
    <g id="Grupo_69" data-name="Grupo 69" transform="translate(-47.299 -138.023)">
      <rect id="Rectángulo_45" data-name="Rectángulo 45" width="1.093" height="1.093" transform="translate(57.778 144.832)" fill="#36c"/>
      <rect id="Rectángulo_46" data-name="Rectángulo 46" width="1.093" height="1.093" transform="translate(58.871 145.868)" fill="#36c"/>
      <rect id="Rectángulo_47" data-name="Rectángulo 47" width="1.093" height="1.093" transform="translate(57.778 146.961)" fill="#36c"/>
      <rect id="Rectángulo_48" data-name="Rectángulo 48" width="1.093" height="1.093" transform="translate(58.871 148.019)" fill="#36c"/>
      <rect id="Rectángulo_49" data-name="Rectángulo 49" width="1.093" height="1.093" transform="translate(59.952 149.09)" fill="#36c"/>
      <rect id="Rectángulo_50" data-name="Rectángulo 50" width="1.093" height="1.093" transform="translate(61.045 148.019)" fill="#36c"/>
      <rect id="Rectángulo_51" data-name="Rectángulo 51" width="1.093" height="1.093" transform="translate(61.045 145.832)" fill="#36c"/>
      <rect id="Rectángulo_52" data-name="Rectángulo 52" width="1.093" height="1.093" transform="translate(59.952 144.774)" fill="#36c"/>
      <rect id="Rectángulo_53" data-name="Rectángulo 53" width="1.093" height="1.093" transform="translate(62.138 144.774)" fill="#36c"/>
      <rect id="Rectángulo_54" data-name="Rectángulo 54" width="1.093" height="1.093" transform="translate(62.138 146.926)" fill="#36c"/>
      <rect id="Rectángulo_55" data-name="Rectángulo 55" width="1.093" height="1.093" transform="translate(62.138 149.09)" fill="#36c"/>
      <rect id="Rectángulo_56" data-name="Rectángulo 56" width="1.093" height="1.093" transform="translate(57.755 149.09)" fill="#36c"/>
      <rect id="Rectángulo_57" data-name="Rectángulo 57" width="1.093" height="1.093" transform="translate(59.964 146.926)" fill="#36c"/>
    </g>
  </g>
</svg>
