<svg xmlns="http://www.w3.org/2000/svg" width="19.838" height="15.334" viewBox="0 0 19.838 15.334">
  <g id="descargar" transform="translate(0.75)">
    <path id="Trazado_30" data-name="Trazado 30" d="M592.6,565.055v1.364a1.177,1.177,0,0,1-1.178,1.177H575.438a1.177,1.177,0,0,1-1.178-1.177v-1.372" transform="translate(-574.26 -553.012)" fill="none" stroke="#36c" stroke-linecap="round" stroke-miterlimit="10" stroke-width="1.5"/>
    <path id="Trazado_31" data-name="Trazado 31" d="M579.121,561.931l3.721,3.1a.915.915,0,0,0,1.174,0l3.721-3.1a.917.917,0,0,0-.587-1.622H584.9a1.565,1.565,0,0,0,.095-.518v-5.219a1.56,1.56,0,0,0-1.561-1.56h-.006a1.56,1.56,0,0,0-1.561,1.56v5.219a1.565,1.565,0,0,0,.1.518h-2.252A.917.917,0,0,0,579.121,561.931Z" transform="translate(-574.26 -553.012)" fill="#36c"/>
  </g>
</svg>
