<?xml version="1.0" encoding="utf-8"?>
<!-- Generator: Adobe Illustrator 23.0.3, SVG Export Plug-In . SVG Version: 6.00 Build 0)  -->
<svg version="1.1" id="Capa_1" xmlns="http://www.w3.org/2000/svg" xmlns:xlink="http://www.w3.org/1999/xlink" x="0px" y="0px"
	 viewBox="0 0 200 200" style="enable-background:new 0 0 200 200;" xml:space="preserve">
<style type="text/css">
	.st0{fill:#F32F63;}
</style>
<g>
	<path class="st0" d="M156.77,84.1c-0.95,1.34-1.91,2.68-2.86,4.02c-23.28,32.86-46.58,65.69-69.81,98.58
		c-5.1,7.22-11.78,11.14-20.72,10.75c-5.54-0.24-10.1-2.66-12.47-7.68c-9.94-21.06-24.03-39.57-35.96-59.4
		c-2.93-4.88-5.53-9.95-8.27-14.94c-2.3-4.2-1.37-7.83,2.42-10.46c4.11-2.85,6.61,0.06,8.95,3.06c11.45,14.7,23.1,29.2,37.29,41.47
		c3.99,3.45,5.81,3.27,8.74-1.31c16.7-26.04,33.74-51.87,50.67-77.77c0.88-1.37,1.76-2.74,2.65-4.11
		c12.29-17.82,24.51-35.69,36.88-53.45c6.91-9.93,17.56-12.9,28.02-8.11c12.2,5.59,15.87,17.55,8.46,28.74
		c-10.08,15.2-20.46,30.2-30.69,45.3C158.89,80.52,157.86,82.33,156.77,84.1z"/>
</g>
</svg>
