<svg xmlns="http://www.w3.org/2000/svg" viewBox="0 0 19.54 19.54"><defs><style>.cls-1{fill:#fff;}</style></defs><g id="Capa_2" data-name="Capa 2"><g id="Capa_1-2" data-name="Capa 1"><path class="cls-1" d="M19.1,8.11l-2.29-.56a6.17,6.17,0,0,0-.48-1.16l1.18-1.95a.57.57,0,0,0-.09-.7L15.8,2.12A.57.57,0,0,0,15.1,2L13.15,3.2A7.86,7.86,0,0,0,12,2.72L11.43.44A.57.57,0,0,0,10.88,0H8.59A.57.57,0,0,0,8,.44L7.48,2.72a7.55,7.55,0,0,0-1.17.48L4.36,2a.58.58,0,0,0-.7.09L2,3.74a.57.57,0,0,0-.09.7L3.13,6.39a6.17,6.17,0,0,0-.48,1.16L.43,8.11A.57.57,0,0,0,0,8.66V11a.59.59,0,0,0,.43.56l2.22.55a6.17,6.17,0,0,0,.48,1.16L2,15.18a.58.58,0,0,0,.09.7L3.66,17.5a.57.57,0,0,0,.7.08l1.95-1.17a7.55,7.55,0,0,0,1.17.48L8,19.1a.57.57,0,0,0,.56.44h2.29a.57.57,0,0,0,.55-.44L12,16.89a7.55,7.55,0,0,0,1.17-.48l1.95,1.17a.57.57,0,0,0,.7-.08l1.62-1.62a.58.58,0,0,0,.09-.7l-1.18-2a6.17,6.17,0,0,0,.48-1.16l2.29-.55a.57.57,0,0,0,.44-.56V8.66A.57.57,0,0,0,19.1,8.11Zm-.71,2.39L16.22,11a.55.55,0,0,0-.41.41A6.69,6.69,0,0,1,15.18,13a.6.6,0,0,0,0,.58l1.12,1.85-1,1-1.85-1.11a.55.55,0,0,0-.58,0,6.48,6.48,0,0,1-1.52.62.58.58,0,0,0-.41.42l-.52,2.09H9L8.51,16.3a.58.58,0,0,0-.41-.42,6.24,6.24,0,0,1-1.51-.62.57.57,0,0,0-.59,0L4.15,16.37l-1-1,1.11-1.85a.57.57,0,0,0,0-.58,6.24,6.24,0,0,1-.62-1.51A.6.6,0,0,0,3.24,11l-2.1-.53V9.11l2.1-.53a.58.58,0,0,0,.42-.4,6.15,6.15,0,0,1,.62-1.52.57.57,0,0,0,0-.58L3.17,4.23l1-1L6,4.35a.57.57,0,0,0,.58,0A6.26,6.26,0,0,1,8.1,3.73a.57.57,0,0,0,.41-.42L9,1.14h1.39L11,3.31a.57.57,0,0,0,.41.42,6.51,6.51,0,0,1,1.52.63.57.57,0,0,0,.58,0l1.85-1.11,1,1L15.18,6.08a.6.6,0,0,0,0,.58,6.58,6.58,0,0,1,.63,1.52.57.57,0,0,0,.41.41l2.17.52Z"/><path class="cls-1" d="M9.73,5.8a4,4,0,1,0,4,4A4,4,0,0,0,9.73,5.8Zm0,6.87a2.87,2.87,0,1,1,2.86-2.86A2.86,2.86,0,0,1,9.73,12.67Z"/></g></g></svg>