<svg xmlns="http://www.w3.org/2000/svg" viewBox="0 0 16.52 19.13"><defs><style>.cls-1{fill:#fff;}</style></defs><g id="Capa_2" data-name="Capa 2"><g id="Capa_1-2" data-name="Capa 1"><path class="cls-1" d="M12.29,19.13h-8a3,3,0,0,1-2.95-3V6.48a.68.68,0,0,1,1.35,0v9.69a1.61,1.61,0,0,0,1.6,1.61h8a1.87,1.87,0,0,0,1.87-1.87V6.61a.68.68,0,1,1,1.36,0v9.3A3.23,3.23,0,0,1,12.29,19.13Z"/><path class="cls-1" d="M14.14,7.24H2.38a2.38,2.38,0,0,1,0-4.76H14.14a2.38,2.38,0,0,1,0,4.76ZM2.38,3.84a1,1,0,0,0,0,2H14.14a1,1,0,0,0,0-2Z"/><path class="cls-1" d="M5.14,17.3a.67.67,0,0,1-.68-.68V9.83a.68.68,0,0,1,1.36,0v6.79A.68.68,0,0,1,5.14,17.3Z"/><path class="cls-1" d="M8.26,17.3a.67.67,0,0,1-.68-.68V9.83a.68.68,0,0,1,1.36,0v6.79A.68.68,0,0,1,8.26,17.3Z"/><path class="cls-1" d="M11.7,17.3a.68.68,0,0,1-.68-.68V9.83a.68.68,0,1,1,1.36,0v6.79A.67.67,0,0,1,11.7,17.3Z"/><path class="cls-1" d="M10.87,3.71A.68.68,0,0,1,10.2,3c0-.27-.14-1.68-2.2-1.68A1.6,1.6,0,0,0,6.32,3a.69.69,0,0,1-.68.68h0A.69.69,0,0,1,5,3,2.94,2.94,0,0,1,8,0c2.81,0,3.55,2,3.55,3A.68.68,0,0,1,10.87,3.71Z"/></g></g></svg>