<svg xmlns="http://www.w3.org/2000/svg" viewBox="0 0 18.07 20.06"><defs><style>.cls-1{fill:#fff;}</style></defs><g id="Capa_2" data-name="Capa 2"><g id="Capa_1-2" data-name="Capa 1"><path class="cls-1" d="M6.81,18.32a2.86,2.86,0,0,1-1.93-.75L.91,14a2.72,2.72,0,0,1-.46-3.53L4.58,4.1a1.38,1.38,0,0,1,.45-1A1.16,1.16,0,0,1,6,2.7a1.51,1.51,0,0,1,1,.66l7.89,7.13a1.5,1.5,0,0,1,.76.95,1.14,1.14,0,0,1-.32,1,1.44,1.44,0,0,1-1,.56L8.62,17.68A2.88,2.88,0,0,1,6.81,18.32ZM5.87,3.9c-.07.17-.09.24-.09.24a1.06,1.06,0,0,1-.18.62L1.46,11.11a1.54,1.54,0,0,0,.26,2l4,3.58a1.67,1.67,0,0,0,2.17.07l5.81-4.69a1.11,1.11,0,0,1,.64-.25s0-.05.15-.16a.85.85,0,0,0-.16-.11l-.14-.1L6.05,4.08A.51.51,0,0,0,5.87,3.9Z"/><path class="cls-1" d="M6.87,3.94,9.46,1.07a1.08,1.08,0,0,1,1.47,0"/><path class="cls-1" d="M6.87,4.55a.59.59,0,0,1-.41-.16.61.61,0,0,1,0-.85L9,.67A1.67,1.67,0,0,1,11.28.6a.61.61,0,1,1-.7,1c-.46-.32-.67-.11-.67-.11L7.32,4.35A.61.61,0,0,1,6.87,4.55Z"/><path class="cls-1" d="M14.46,10.79l2.59-2.87a1.07,1.07,0,0,0-.17-1.45"/><path class="cls-1" d="M14.46,11.4a.61.61,0,0,1-.45-1L16.6,7.52c0-.06.14-.28-.18-.66a.61.61,0,0,1,.92-.79,1.68,1.68,0,0,1,.16,2.26L14.91,11.2A.62.62,0,0,1,14.46,11.4Z"/><path class="cls-1" d="M16.52,7.15l-.22,0a1.83,1.83,0,0,1-1.23-.72c-.1-.13-.2-.27-.31-.39a10.32,10.32,0,0,0-2.49-2.27l-1.14-.69a1.79,1.79,0,0,1-.79-2l0-.13A1.28,1.28,0,0,1,11.88,0a1.56,1.56,0,0,1,.32.12l.38.16a12.11,12.11,0,0,1,5.2,4.58,2.11,2.11,0,0,1,.18.32,1.29,1.29,0,0,1-.4,1.57A1.65,1.65,0,0,1,16.52,7.15ZM11.84.65l-.33.74a.58.58,0,0,0,.25.64l1.14.69a11.46,11.46,0,0,1,2.79,2.52c.12.14.24.3.36.45a.6.6,0,0,0,.4.24.43.43,0,0,0,.34-.09l.05-.16-.07-.13A11.07,11.07,0,0,0,12.1,1.42l-.35-.14Z"/><path class="cls-1" d="M13.55,13.64a10,10,0,0,1,0,1.73,1.33,1.33,0,0,0,.88,1.34c.34.07.74-.07,1,.15a.83.83,0,0,1,.26.59,4.74,4.74,0,0,1,0,1.19c-.06.52-.12,1.21.37,1.39a.71.71,0,0,0,.83-.43,2,2,0,0,0,.11-1l-.58-9.28L14.9,10.84s.55.87-.69,1.49S13.55,13.64,13.55,13.64Z"/><path class="cls-1" d="M.83,12.29c1.57,1.15,5.42,1,7.13.79,1.12-.16,2.39-.17,3.52-.26,2.16-.18,2-.44,1.87.28C13,14.51,10.14,15.59,9,16.33c-1.41.91-2.53,1.74-4.07.86C4.52,17,.28,12.91.83,12.29Z"/></g></g></svg>