<svg xmlns="http://www.w3.org/2000/svg" viewBox="0 0 175.31 111.26"><defs><style>.cls-1{fill:#ebebeb;}.cls-2{fill:#386bfb;}.cls-3{fill:#a8a9aa;}</style></defs><g id="Capa_2" data-name="Capa 2"><g id="Capa_1-2" data-name="Capa 1"><rect class="cls-1" y="12.81" width="175.31" height="98.46"/><path class="cls-2" d="M14.09.46a3,3,0,0,1,2,.57,2,2,0,0,1,.64,1.59,2.57,2.57,0,0,1-.15.87,1.77,1.77,0,0,1-.47.74,2.14,2.14,0,0,1-.86.51A3.92,3.92,0,0,1,14,4.93h-.76V7.6H12V.46Zm-.07,1h-.83V4h.64a3.18,3.18,0,0,0,.94-.13,1.16,1.16,0,0,0,.58-.42,1.27,1.27,0,0,0,.2-.74,1.11,1.11,0,0,0-.37-.92A1.85,1.85,0,0,0,14,1.44Z"/><path class="cls-2" d="M19.2,7.6H18V0H19.2Z"/><path class="cls-2" d="M23,2.09a2.33,2.33,0,0,1,1.55.45A1.79,1.79,0,0,1,25,4V7.6h-.81L24,6.83h0a2.76,2.76,0,0,1-.47.49,1.55,1.55,0,0,1-.56.28,2.85,2.85,0,0,1-.78.1,2.05,2.05,0,0,1-.87-.18,1.38,1.38,0,0,1-.6-.55A1.83,1.83,0,0,1,20.46,6a1.4,1.4,0,0,1,.62-1.25A3.62,3.62,0,0,1,23,4.33l.93,0V4a1.07,1.07,0,0,0-.25-.8A1.06,1.06,0,0,0,22.9,3a2.54,2.54,0,0,0-.78.12,5.94,5.94,0,0,0-.74.28L21,2.56a4.55,4.55,0,0,1,.9-.34A4.11,4.11,0,0,1,23,2.09ZM23.89,5,23.2,5A2.24,2.24,0,0,0,22,5.33a.87.87,0,0,0-.35.72.69.69,0,0,0,.24.59,1,1,0,0,0,.63.18,1.44,1.44,0,0,0,1-.34,1.24,1.24,0,0,0,.39-1Z"/><path class="cls-2" d="M29.46,2.09a2,2,0,0,1,1.42.47,2,2,0,0,1,.51,1.51V7.6H30.24V4.29A1.41,1.41,0,0,0,30,3.35a1,1,0,0,0-.8-.32,1.17,1.17,0,0,0-1.09.49,2.63,2.63,0,0,0-.3,1.39V7.6H26.63V2.19h.9l.16.73h.07a1.57,1.57,0,0,1,.43-.46,2,2,0,0,1,.59-.28A2.54,2.54,0,0,1,29.46,2.09Z"/><path class="cls-2" d="M35,6.77a3.42,3.42,0,0,0,.45,0l.4-.1V7.5a2.85,2.85,0,0,1-.5.14,3.21,3.21,0,0,1-.63.06,2.14,2.14,0,0,1-.82-.16A1.19,1.19,0,0,1,33.32,7a2,2,0,0,1-.22-1V3.07h-.73V2.56l.79-.41L33.53,1h.73v1.2H35.8v.88H34.26V6a.82.82,0,0,0,.2.61A.77.77,0,0,0,35,6.77Z"/><path class="cls-2" d="M37.53.12A.75.75,0,0,1,38,.26a.58.58,0,0,1,.2.49.58.58,0,0,1-.2.49.7.7,0,0,1-.45.15.73.73,0,0,1-.47-.15.6.6,0,0,1-.19-.49.6.6,0,0,1,.19-.49A.79.79,0,0,1,37.53.12Zm.56,2.07V7.6H36.94V2.19Z"/><path class="cls-2" d="M40.89,7.6H39.73V0h1.16Z"/><path class="cls-2" d="M43.67,7.6H42.52V0h1.15Z"/><path class="cls-2" d="M47.43,2.09A2.33,2.33,0,0,1,49,2.54,1.79,1.79,0,0,1,49.5,4V7.6h-.81l-.23-.77h0a2.8,2.8,0,0,1-.48.49,1.55,1.55,0,0,1-.56.28,2.85,2.85,0,0,1-.78.1,2,2,0,0,1-.86-.18,1.28,1.28,0,0,1-.6-.55A1.73,1.73,0,0,1,44.93,6a1.42,1.42,0,0,1,.62-1.25,3.64,3.64,0,0,1,1.88-.46l.94,0V4a1.07,1.07,0,0,0-.26-.8A1,1,0,0,0,47.38,3a2.61,2.61,0,0,0-.79.12,6.61,6.61,0,0,0-.74.28l-.38-.81a4.42,4.42,0,0,1,.91-.34A4,4,0,0,1,47.43,2.09ZM48.36,5l-.69,0a2.26,2.26,0,0,0-1.21.29.86.86,0,0,0-.34.72.69.69,0,0,0,.24.59,1,1,0,0,0,.63.18,1.43,1.43,0,0,0,1-.34,1.24,1.24,0,0,0,.39-1Z"/><path class="cls-2" d="M57.9,2.09a1.74,1.74,0,0,1-.2.84,1.64,1.64,0,0,1-.53.58,2.44,2.44,0,0,1-.79.33v0a2.2,2.2,0,0,1,1.3.54,1.54,1.54,0,0,1,.43,1.14,2.12,2.12,0,0,1-.29,1.1,2,2,0,0,1-.92.77,4,4,0,0,1-1.58.28,6,6,0,0,1-1.08-.1,4.27,4.27,0,0,1-.94-.29v-1a4.29,4.29,0,0,0,1,.35,4.22,4.22,0,0,0,1,.12,1.92,1.92,0,0,0,1.27-.33,1.14,1.14,0,0,0,.38-.93,1,1,0,0,0-.19-.62,1.22,1.22,0,0,0-.61-.37A4,4,0,0,0,55,4.38H54.4V3.46H55a2.73,2.73,0,0,0,1-.15,1.11,1.11,0,0,0,.54-.41,1.14,1.14,0,0,0,.17-.61.89.89,0,0,0-.3-.72,1.32,1.32,0,0,0-.88-.26,2.71,2.71,0,0,0-.66.08,3.38,3.38,0,0,0-.54.21,5.5,5.5,0,0,0-.48.28l-.55-.8a3.85,3.85,0,0,1,1-.51A3.71,3.71,0,0,1,55.61.36,2.62,2.62,0,0,1,57.3.83,1.51,1.51,0,0,1,57.9,2.09Z"/><path class="cls-3" d="M72,26.92h-.75V21.15h-2v-.66H74v.66H72Z"/><path class="cls-3" d="M76.51,20v.09c-.06.08-.14.19-.24.3l-.34.38-.37.37a3,3,0,0,1-.35.3h-.48v-.1L75,21c.12-.16.22-.32.33-.49a3.65,3.65,0,0,0,.26-.45Zm-.91,6.9h-.73V22.1h.73Z"/><path class="cls-3" d="M78.69,26.41a2.31,2.31,0,0,0,.37,0,1.53,1.53,0,0,0,.31-.08v.57A1.17,1.17,0,0,1,79,27a2.25,2.25,0,0,1-.44,0,1.75,1.75,0,0,1-.7-.13,1.08,1.08,0,0,1-.5-.45,1.85,1.85,0,0,1-.18-.89V22.67h-.69v-.36L77.2,22,77.49,21h.44V22.1h1.41v.57H77.93v2.84a.94.94,0,0,0,.21.67A.72.72,0,0,0,78.69,26.41Z"/><path class="cls-3" d="M84.33,22.1v4.82h-.6l-.11-.68h0a1.4,1.4,0,0,1-.38.42,1.69,1.69,0,0,1-.54.26A2.18,2.18,0,0,1,82,27a2.28,2.28,0,0,1-1-.18,1.23,1.23,0,0,1-.58-.57,2.23,2.23,0,0,1-.19-1V22.1H81v3.1a1.26,1.26,0,0,0,.28.9,1.05,1.05,0,0,0,.83.3,1.62,1.62,0,0,0,.85-.2,1.16,1.16,0,0,0,.46-.6,3,3,0,0,0,.14-1V22.1Z"/><path class="cls-3" d="M86.6,26.92h-.73V20.08h.73Z"/><path class="cls-3" d="M92.29,24.5a3.48,3.48,0,0,1-.15,1.06,2,2,0,0,1-.45.78,1.74,1.74,0,0,1-.7.49,2.27,2.27,0,0,1-.93.17,2.13,2.13,0,0,1-.88-.17,1.89,1.89,0,0,1-.7-.49,2.29,2.29,0,0,1-.45-.78,3.19,3.19,0,0,1-.16-1.06,3.07,3.07,0,0,1,.27-1.35,1.93,1.93,0,0,1,.77-.85A2.32,2.32,0,0,1,90.09,22a2.2,2.2,0,0,1,1.16.3,2,2,0,0,1,.77.85A3,3,0,0,1,92.29,24.5Zm-3.66,0a3.07,3.07,0,0,0,.15,1,1.33,1.33,0,0,0,.47.65,1.56,1.56,0,0,0,1.66,0,1.33,1.33,0,0,0,.47-.65,3.06,3.06,0,0,0,.16-1,3,3,0,0,0-.16-1,1.3,1.3,0,0,0-.47-.64,1.36,1.36,0,0,0-.83-.23,1.25,1.25,0,0,0-1.1.49A2.33,2.33,0,0,0,88.63,24.5Z"/><path class="cls-3" d="M103.49,29.35l-.85-2.78H98.37l-.85,2.78H94.85L99,17.6h3l4.14,11.75Zm-1.44-4.86-.85-2.73c0-.18-.12-.41-.21-.7l-.27-.87-.21-.77c-.05.22-.13.49-.22.81s-.18.63-.27.92-.14.49-.18.61L99,24.49Z"/><path class="cls-3" d="M78.5,58V39.74a1.6,1.6,0,0,0,0-.21,3.15,3.15,0,0,1,3.06-2.34c5.73,0,11.47,0,17.2,0a3,3,0,0,1,3,3c0,5.76,0,11.52,0,17.28a3,3,0,0,1-.94,2.19,3.25,3.25,0,0,1-1.61.84H81a3.92,3.92,0,0,1-1-.36A3.13,3.13,0,0,1,78.5,58Zm21.72-8.35c.06,0,0-.1,0-.16,0-3,0-6.11,0-9.16a1.48,1.48,0,0,0-1.57-1.56h-17a1.66,1.66,0,0,0-.84.21,1.55,1.55,0,0,0-.74,1.44v8.85a.39.39,0,0,0,0,.25l.22-.16,5.76-4.51a1.79,1.79,0,0,1,2.69.21q2.23,2.39,4.46,4.78c.14.14.21.13.34,0,.65-.7,1.31-1.41,2-2.11a1.76,1.76,0,0,1,2.66,0l1.8,1.81C100.08,49.57,100.13,49.66,100.22,49.67Z"/><path class="cls-3" d="M91.81,44.26a1.57,1.57,0,0,1,3.14,0,1.57,1.57,0,1,1-3.14,0Z"/><path class="cls-3" d="M49.81,65.54a2.21,2.21,0,0,0-.87.16,1.81,1.81,0,0,0-.65.48,2.06,2.06,0,0,0-.41.76,3,3,0,0,0-.14,1A3.28,3.28,0,0,0,48,69.2a1.92,1.92,0,0,0,.69.84,2.1,2.1,0,0,0,1.14.29,4.23,4.23,0,0,0,.73-.06c.23,0,.46-.1.68-.17v.59a3.9,3.9,0,0,1-.67.18,5.08,5.08,0,0,1-.84.06,2.82,2.82,0,0,1-1.48-.37,2.32,2.32,0,0,1-.89-1,3.89,3.89,0,0,1-.3-1.59,3.84,3.84,0,0,1,.19-1.21,2.62,2.62,0,0,1,.54-1,2.4,2.4,0,0,1,.88-.61,2.94,2.94,0,0,1,1.19-.22,4,4,0,0,1,.85.09,3.22,3.22,0,0,1,.74.25l-.27.57c-.19-.08-.39-.15-.61-.22A2.73,2.73,0,0,0,49.81,65.54Z"/><path class="cls-3" d="M54,66.41a1.68,1.68,0,0,1,1.16.35,1.49,1.49,0,0,1,.38,1.12v3H55l-.12-.65h0a2.44,2.44,0,0,1-.38.4,1.19,1.19,0,0,1-.46.24,1.93,1.93,0,0,1-.64.09,1.71,1.71,0,0,1-.7-.14,1.14,1.14,0,0,1-.49-.43,1.27,1.27,0,0,1-.18-.71,1.17,1.17,0,0,1,.52-1,3,3,0,0,1,1.58-.38l.75,0V68a1.07,1.07,0,0,0-.24-.79,1,1,0,0,0-.69-.23,2.32,2.32,0,0,0-.65.1,5.19,5.19,0,0,0-.59.24l-.2-.5a3.47,3.47,0,0,1,.67-.26A3.1,3.1,0,0,1,54,66.41Zm.88,2.29-.66,0a2.26,2.26,0,0,0-1.15.27.79.79,0,0,0-.34.67.66.66,0,0,0,.23.55.93.93,0,0,0,.6.18,1.4,1.4,0,0,0,1-.32,1.22,1.22,0,0,0,.37-1Z"/><path class="cls-3" d="M58.87,66.4l.27,0,.26,0-.08.61-.24,0h-.25a1.11,1.11,0,0,0-.9.41,1.47,1.47,0,0,0-.28.47,2,2,0,0,0-.1.61v2.35h-.66V66.48h.55l.07.81h0a2.44,2.44,0,0,1,.32-.45,1.6,1.6,0,0,1,.45-.32A1.25,1.25,0,0,1,58.87,66.4Z"/><path class="cls-3" d="M62.2,66.4l.28,0,.25,0-.08.61-.24,0h-.25a1.16,1.16,0,0,0-.49.1,1.24,1.24,0,0,0-.41.31,1.47,1.47,0,0,0-.28.47,2,2,0,0,0-.1.61v2.35h-.66V66.48h.55l.07.81h0a2.44,2.44,0,0,1,.32-.45,1.6,1.6,0,0,1,.45-.32A1.28,1.28,0,0,1,62.2,66.4Z"/><path class="cls-3" d="M67.15,66.48v4.37h-.54l-.09-.62h0a1.44,1.44,0,0,1-.35.39,1.53,1.53,0,0,1-.48.23,2.12,2.12,0,0,1-.57.08,2,2,0,0,1-.87-.17,1.11,1.11,0,0,1-.53-.52,2,2,0,0,1-.18-.9V66.48h.67v2.81a1.15,1.15,0,0,0,.25.82,1,1,0,0,0,.75.27,1.39,1.39,0,0,0,.78-.19,1,1,0,0,0,.41-.54,2.45,2.45,0,0,0,.13-.87v-2.3Z"/><path class="cls-3" d="M71.37,69.65a1.14,1.14,0,0,1-.21.7,1.16,1.16,0,0,1-.59.43,2.59,2.59,0,0,1-.93.15,3.63,3.63,0,0,1-.79-.08,2,2,0,0,1-.59-.2V70a3.59,3.59,0,0,0,.64.24,2.79,2.79,0,0,0,.76.11,1.47,1.47,0,0,0,.82-.18.59.59,0,0,0,.25-.5.51.51,0,0,0-.1-.32,1.12,1.12,0,0,0-.34-.27,5.93,5.93,0,0,0-.66-.28,6.34,6.34,0,0,1-.72-.32,1.21,1.21,0,0,1-.47-.38,1,1,0,0,1-.17-.59,1,1,0,0,1,.45-.85,2.08,2.08,0,0,1,1.18-.3,3.33,3.33,0,0,1,.73.08,3.3,3.3,0,0,1,.65.21l-.23.53a4.23,4.23,0,0,0-.57-.2,2.65,2.65,0,0,0-.63-.08,1.34,1.34,0,0,0-.7.16.45.45,0,0,0-.24.41.44.44,0,0,0,.11.33,1.07,1.07,0,0,0,.36.25q.25.12.66.27a6.22,6.22,0,0,1,.71.31,1.38,1.38,0,0,1,.46.39A1,1,0,0,1,71.37,69.65Z"/><path class="cls-3" d="M74.12,66.4a1.79,1.79,0,0,1,.95.25,1.52,1.52,0,0,1,.61.69,2.41,2.41,0,0,1,.21,1v.41h-3A1.71,1.71,0,0,0,73.26,70a1.33,1.33,0,0,0,1,.4,3.29,3.29,0,0,0,.74-.08,3.93,3.93,0,0,0,.66-.22v.58a3.41,3.41,0,0,1-.66.22,4.1,4.1,0,0,1-.76.07,2.26,2.26,0,0,1-1.1-.26,1.73,1.73,0,0,1-.73-.76,2.61,2.61,0,0,1-.26-1.21,2.85,2.85,0,0,1,.24-1.22,1.83,1.83,0,0,1,.67-.8A1.9,1.9,0,0,1,74.12,66.4Zm0,.54a1.09,1.09,0,0,0-.85.35,1.62,1.62,0,0,0-.37,1H75.2a1.85,1.85,0,0,0-.12-.69,1,1,0,0,0-.36-.46A1,1,0,0,0,74.11,66.94Z"/><path class="cls-3" d="M77.68,70.85H77v-6.2h.67Z"/><path class="cls-3" d="M82.74,70.93a1.63,1.63,0,0,1-1.31-.57,3.19,3.19,0,0,1,0-3.38,1.63,1.63,0,0,1,1.31-.58,1.59,1.59,0,0,1,.61.1,1.61,1.61,0,0,1,.45.24,1.47,1.47,0,0,1,.31.35h0c0-.08,0-.2,0-.34s0-.26,0-.35V64.65h.66v6.2h-.53l-.1-.63h0a1.74,1.74,0,0,1-.31.36,1.41,1.41,0,0,1-.45.25A1.92,1.92,0,0,1,82.74,70.93Zm.11-.55a1.18,1.18,0,0,0,1-.4,2,2,0,0,0,.29-1.18v-.12a2.38,2.38,0,0,0-.28-1.28,1.08,1.08,0,0,0-1-.45,1,1,0,0,0-.92.47,2.35,2.35,0,0,0-.3,1.28,2.19,2.19,0,0,0,.3,1.24A1,1,0,0,0,82.85,70.38Z"/><path class="cls-3" d="M87.86,66.4a1.79,1.79,0,0,1,1,.25,1.52,1.52,0,0,1,.61.69,2.41,2.41,0,0,1,.21,1v.41h-3A1.71,1.71,0,0,0,87,70a1.35,1.35,0,0,0,1,.4,3.22,3.22,0,0,0,.74-.08,3.93,3.93,0,0,0,.66-.22v.58a3.41,3.41,0,0,1-.66.22,4.1,4.1,0,0,1-.76.07,2.26,2.26,0,0,1-1.1-.26,1.79,1.79,0,0,1-.73-.76,2.61,2.61,0,0,1-.25-1.21,2.86,2.86,0,0,1,.23-1.22,1.83,1.83,0,0,1,.67-.8A1.9,1.9,0,0,1,87.86,66.4Zm0,.54a1.09,1.09,0,0,0-.84.35,1.62,1.62,0,0,0-.38,1h2.31a1.85,1.85,0,0,0-.12-.69,1,1,0,0,0-.36-.46A1,1,0,0,0,87.85,66.94Z"/><path class="cls-3" d="M93.21,64.85a.4.4,0,0,1,.4.43.42.42,0,0,1-.12.33.41.41,0,0,1-.28.11.39.39,0,0,1-.28-.11.42.42,0,0,1-.12-.33.41.41,0,0,1,.12-.32A.39.39,0,0,1,93.21,64.85Zm.32,1.63v4.37h-.66V66.48Z"/><path class="cls-3" d="M99.67,66.4a1.47,1.47,0,0,1,1.09.38,1.7,1.7,0,0,1,.36,1.21v2.86h-.65V68a1.18,1.18,0,0,0-.23-.79.84.84,0,0,0-.68-.27,1.08,1.08,0,0,0-.92.37,1.72,1.72,0,0,0-.28,1.08v2.44H97.7V68a1.45,1.45,0,0,0-.1-.59.71.71,0,0,0-.31-.35,1,1,0,0,0-.5-.12,1.23,1.23,0,0,0-.7.18,1.06,1.06,0,0,0-.38.53,2.73,2.73,0,0,0-.12.87v2.31h-.66V66.48h.54l.09.62h0a1.35,1.35,0,0,1,.33-.38,1.39,1.39,0,0,1,.45-.24,1.77,1.77,0,0,1,.52-.08,1.68,1.68,0,0,1,.84.19,1.06,1.06,0,0,1,.48.56h0a1.33,1.33,0,0,1,.59-.56A1.74,1.74,0,0,1,99.67,66.4Z"/><path class="cls-3" d="M104.11,66.41a1.68,1.68,0,0,1,1.16.35,1.49,1.49,0,0,1,.38,1.12v3h-.48L105,70.2h0a2.44,2.44,0,0,1-.38.4,1.35,1.35,0,0,1-.46.24,2,2,0,0,1-.64.09,1.76,1.76,0,0,1-.71-.14,1.06,1.06,0,0,1-.48-.43,1.27,1.27,0,0,1-.18-.71,1.16,1.16,0,0,1,.51-1,3,3,0,0,1,1.58-.38l.75,0V68a1.07,1.07,0,0,0-.24-.79,1,1,0,0,0-.68-.23,2.39,2.39,0,0,0-.66.1,6.07,6.07,0,0,0-.59.24l-.2-.5a3.57,3.57,0,0,1,.68-.26A3,3,0,0,1,104.11,66.41ZM105,68.7l-.67,0a2.29,2.29,0,0,0-1.15.27.78.78,0,0,0-.33.67.66.66,0,0,0,.22.55.93.93,0,0,0,.6.18,1.44,1.44,0,0,0,1-.32,1.25,1.25,0,0,0,.37-1Zm.2-4.1v.08A2.89,2.89,0,0,1,105,65l-.31.33-.34.34a3.73,3.73,0,0,1-.31.28h-.44v-.1a4.15,4.15,0,0,0,.28-.36c.1-.15.2-.29.29-.44a3.87,3.87,0,0,0,.24-.41Z"/><path class="cls-3" d="M108.23,72.8a2.27,2.27,0,0,1-1.33-.32,1,1,0,0,1-.46-.89,1,1,0,0,1,.26-.7,1.21,1.21,0,0,1,.72-.39.67.67,0,0,1-.29-.24.62.62,0,0,1-.13-.37.71.71,0,0,1,.14-.42,1.32,1.32,0,0,1,.41-.34,1.18,1.18,0,0,1-.56-.48,1.41,1.41,0,0,1-.21-.77,1.55,1.55,0,0,1,.19-.8,1.29,1.29,0,0,1,.57-.51,2,2,0,0,1,.89-.17h.24l.22,0,.19,0h1.5v.43l-.81.1a1.31,1.31,0,0,1,.2.37,1.53,1.53,0,0,1,.08.49,1.34,1.34,0,0,1-.44,1,1.84,1.84,0,0,1-1.22.38l-.37,0a.93.93,0,0,0-.3.24.54.54,0,0,0-.1.3.26.26,0,0,0,.08.2.46.46,0,0,0,.22.11,1.28,1.28,0,0,0,.36,0h.77a1.73,1.73,0,0,1,1.09.3,1,1,0,0,1,.38.87,1.26,1.26,0,0,1-.59,1.11A3.08,3.08,0,0,1,108.23,72.8Zm0-.51a3.12,3.12,0,0,0,.89-.11,1.18,1.18,0,0,0,.54-.32.7.7,0,0,0,.18-.48.58.58,0,0,0-.12-.4.62.62,0,0,0-.35-.18,3.1,3.1,0,0,0-.57,0h-.76a1.36,1.36,0,0,0-.51.1.71.71,0,0,0-.34.27.84.84,0,0,0-.11.44.59.59,0,0,0,.3.54A1.62,1.62,0,0,0,108.25,72.29Zm.17-3.49a1,1,0,0,0,.71-.24.94.94,0,0,0,.24-.7.86.86,0,0,0-1-1,.94.94,0,0,0-.7.26,1,1,0,0,0-.24.74.92.92,0,0,0,.24.68A1,1,0,0,0,108.42,68.8Z"/><path class="cls-3" d="M113.12,66.4a1.79,1.79,0,0,1,.95.25,1.52,1.52,0,0,1,.61.69,2.41,2.41,0,0,1,.21,1v.41h-3a1.71,1.71,0,0,0,.38,1.17,1.33,1.33,0,0,0,1,.4,3.29,3.29,0,0,0,.74-.08,3.93,3.93,0,0,0,.66-.22v.58a3.41,3.41,0,0,1-.66.22,4.1,4.1,0,0,1-.76.07,2.26,2.26,0,0,1-1.1-.26,1.73,1.73,0,0,1-.73-.76,2.61,2.61,0,0,1-.26-1.21,2.85,2.85,0,0,1,.24-1.22,1.83,1.83,0,0,1,.67-.8A1.9,1.9,0,0,1,113.12,66.4Zm0,.54a1.09,1.09,0,0,0-.85.35,1.62,1.62,0,0,0-.37,1h2.31a1.85,1.85,0,0,0-.12-.69,1,1,0,0,0-.36-.46A1,1,0,0,0,113.11,66.94Z"/><path class="cls-3" d="M118.08,66.4a1.39,1.39,0,0,1,1.57,1.6v2.85H119v-2.8a1.15,1.15,0,0,0-.25-.82A1,1,0,0,0,118,67a1.19,1.19,0,0,0-1,.41,2,2,0,0,0-.3,1.19v2.29H116V66.48h.54l.1.63h0a1.48,1.48,0,0,1,.36-.39,1.8,1.8,0,0,1,.48-.24A2,2,0,0,1,118.08,66.4Z"/><path class="cls-3" d="M122.69,66.4a1.83,1.83,0,0,1,1,.25,1.52,1.52,0,0,1,.61.69,2.41,2.41,0,0,1,.21,1v.41h-3a1.66,1.66,0,0,0,.38,1.17,1.33,1.33,0,0,0,1,.4,3.13,3.13,0,0,0,.73-.08,3.41,3.41,0,0,0,.66-.22v.58a3.32,3.32,0,0,1-.65.22,4.22,4.22,0,0,1-.77.07,2.22,2.22,0,0,1-1.09-.26,1.68,1.68,0,0,1-.73-.76,2.61,2.61,0,0,1-.26-1.21,2.85,2.85,0,0,1,.24-1.22,1.76,1.76,0,0,1,1.68-1.08Zm0,.54a1.09,1.09,0,0,0-.85.35,1.62,1.62,0,0,0-.37,1h2.31a2.36,2.36,0,0,0-.12-.69,1,1,0,0,0-.36-.46A1,1,0,0,0,122.69,66.94Z"/><path class="cls-3" d="M128.41,69.65a1.2,1.2,0,0,1-.2.7,1.23,1.23,0,0,1-.6.43,2.59,2.59,0,0,1-.93.15,3.63,3.63,0,0,1-.79-.08,1.89,1.89,0,0,1-.58-.2V70a3.47,3.47,0,0,0,.63.24,2.79,2.79,0,0,0,.76.11,1.44,1.44,0,0,0,.82-.18.59.59,0,0,0,.25-.5.51.51,0,0,0-.1-.32,1.12,1.12,0,0,0-.34-.27,5.93,5.93,0,0,0-.66-.28,6.34,6.34,0,0,1-.72-.32,1.29,1.29,0,0,1-.47-.38,1,1,0,0,1-.17-.59,1,1,0,0,1,.45-.85,2.08,2.08,0,0,1,1.18-.3,3.5,3.5,0,0,1,.74.08,3.2,3.2,0,0,1,.64.21l-.22.53a4.94,4.94,0,0,0-.58-.2,2.65,2.65,0,0,0-.63-.08,1.34,1.34,0,0,0-.7.16.45.45,0,0,0-.24.41.44.44,0,0,0,.11.33,1.19,1.19,0,0,0,.36.25c.17.08.39.17.67.27a6.87,6.87,0,0,1,.7.31,1.29,1.29,0,0,1,.46.39A1,1,0,0,1,128.41,69.65Z"/><path class="cls-3" d="M104.5,52.92a.45.45,0,0,1-.32-.13.45.45,0,0,1,0-.64l3.53-3.53-3.53-3.53a.45.45,0,0,1,.64-.64l3.85,3.85a.45.45,0,0,1,0,.64l-3.85,3.85A.44.44,0,0,1,104.5,52.92Z"/><path class="cls-3" d="M75.55,52.92a.45.45,0,0,0,.32-.13.47.47,0,0,0,0-.64l-3.53-3.53,3.53-3.53a.47.47,0,0,0,0-.64.45.45,0,0,0-.64,0L71.38,48.3a.45.45,0,0,0,0,.64l3.85,3.85A.44.44,0,0,0,75.55,52.92Z"/><path class="cls-3" d="M63.53,105.2l-1.83-4.81h.78l1.06,2.91c.08.2.15.42.23.66s.13.43.16.58h0a5.29,5.29,0,0,1,.17-.58c.08-.24.16-.46.23-.66l1.06-2.91h.78l-1.83,4.81Z"/><path class="cls-3" d="M68.61,98.31v.09l-.24.3-.34.38-.37.37c-.13.11-.24.22-.35.3h-.48v-.11c.09-.11.19-.24.3-.4s.22-.32.33-.48l.26-.45Zm-.91,6.89H67v-4.81h.73Z"/><path class="cls-3" d="M71.52,100.3a1.83,1.83,0,0,1,1.3.42,1.81,1.81,0,0,1,.43,1.35v3.13h-.72v-3.09a1.31,1.31,0,0,0-.27-.9,1.08,1.08,0,0,0-.84-.3,1.31,1.31,0,0,0-1.13.46,2.28,2.28,0,0,0-.32,1.31v2.52h-.73v-4.81h.59l.11.69h0a1.45,1.45,0,0,1,.39-.43,1.87,1.87,0,0,1,.53-.26A2.11,2.11,0,0,1,71.52,100.3Z"/><path class="cls-3" d="M76.69,105.29a2.35,2.35,0,0,1-1.15-.27,1.78,1.78,0,0,1-.77-.81,3,3,0,0,1-.28-1.39,3.13,3.13,0,0,1,.29-1.43,1.94,1.94,0,0,1,.81-.82,2.46,2.46,0,0,1,1.17-.27,3.11,3.11,0,0,1,.69.07,2.64,2.64,0,0,1,.56.18l-.22.61a4.5,4.5,0,0,0-.51-.15,2.11,2.11,0,0,0-.54-.07,1.53,1.53,0,0,0-.83.21,1.3,1.3,0,0,0-.5.64,2.76,2.76,0,0,0-.16,1,2.69,2.69,0,0,0,.16,1,1.19,1.19,0,0,0,.48.63,1.32,1.32,0,0,0,.79.22,2.84,2.84,0,0,0,.69-.08,5.22,5.22,0,0,0,.56-.19V105a2.14,2.14,0,0,1-.54.18A2.85,2.85,0,0,1,76.69,105.29Z"/><path class="cls-3" d="M83.05,100.39v4.81h-.6l-.11-.67h0a1.51,1.51,0,0,1-.38.42,1.93,1.93,0,0,1-.54.26,2.47,2.47,0,0,1-.63.08,2.28,2.28,0,0,1-1-.18,1.33,1.33,0,0,1-.58-.57,2.23,2.23,0,0,1-.19-1v-3.15h.74v3.1a1.31,1.31,0,0,0,.27.9,1.07,1.07,0,0,0,.83.3,1.51,1.51,0,0,0,.85-.21,1.06,1.06,0,0,0,.46-.59,2.8,2.8,0,0,0,.14-1v-2.53Z"/><path class="cls-3" d="M85.32,105.2h-.73V98.37h.73Z"/><path class="cls-3" d="M91,102.79a3.48,3.48,0,0,1-.15,1.06,2.12,2.12,0,0,1-.44.78,1.85,1.85,0,0,1-.71.49,2.43,2.43,0,0,1-.92.17,2.31,2.31,0,0,1-.89-.17,1.78,1.78,0,0,1-.69-.49,2.15,2.15,0,0,1-.46-.78,3.47,3.47,0,0,1-.16-1.06,3.07,3.07,0,0,1,.27-1.35,1.93,1.93,0,0,1,.77-.85,2.36,2.36,0,0,1,1.19-.29,2.26,2.26,0,0,1,1.15.29,2,2,0,0,1,.77.85A3.07,3.07,0,0,1,91,102.79Zm-3.66,0a3,3,0,0,0,.15,1,1.27,1.27,0,0,0,.48.66,1.33,1.33,0,0,0,.82.24,1.36,1.36,0,0,0,.83-.24,1.31,1.31,0,0,0,.47-.66,2.76,2.76,0,0,0,.16-1,2.72,2.72,0,0,0-.16-1,1.33,1.33,0,0,0-.47-.65,1.41,1.41,0,0,0-.83-.23,1.25,1.25,0,0,0-1.1.5A2.31,2.31,0,0,0,87.35,102.79Z"/><path class="cls-3" d="M98.77,102.79a3.47,3.47,0,0,1-.16,1.06,2.12,2.12,0,0,1-.44.78,1.89,1.89,0,0,1-.7.49,2.52,2.52,0,0,1-.93.17,2.31,2.31,0,0,1-.89-.17,1.78,1.78,0,0,1-.69-.49,2.15,2.15,0,0,1-.46-.78,3.47,3.47,0,0,1-.16-1.06,3.07,3.07,0,0,1,.27-1.35,2,2,0,0,1,.77-.85,2.36,2.36,0,0,1,1.19-.29,2.26,2.26,0,0,1,1.15.29,2,2,0,0,1,.77.85A3.06,3.06,0,0,1,98.77,102.79Zm-3.67,0a3,3,0,0,0,.15,1,1.29,1.29,0,0,0,1.3.9,1.36,1.36,0,0,0,.83-.24,1.39,1.39,0,0,0,.48-.66,3,3,0,0,0,.15-1,3,3,0,0,0-.15-1,1.28,1.28,0,0,0-1.31-.88,1.25,1.25,0,0,0-1.1.5A2.39,2.39,0,0,0,95.1,102.79Z"/><path class="cls-3" d="M103.09,98.37v1.7c0,.2,0,.39,0,.58s0,.32,0,.43h0a1.71,1.71,0,0,1,.58-.55,1.78,1.78,0,0,1,1-.23,1.8,1.8,0,0,1,1.44.63,2.79,2.79,0,0,1,.54,1.86,3.47,3.47,0,0,1-.24,1.37,1.87,1.87,0,0,1-.7.85,1.93,1.93,0,0,1-1.06.28,1.9,1.9,0,0,1-.94-.21,1.66,1.66,0,0,1-.56-.52H103l-.15.64h-.52V98.37Zm1.41,2.54a1.46,1.46,0,0,0-.83.21,1.12,1.12,0,0,0-.44.61,3.44,3.44,0,0,0-.14,1v0a2.63,2.63,0,0,0,.31,1.39,1.18,1.18,0,0,0,1.1.49,1.14,1.14,0,0,0,1-.5,3.07,3.07,0,0,0,0-2.81A1.16,1.16,0,0,0,104.5,100.91Z"/><path class="cls-3" d="M112,102.79a3.48,3.48,0,0,1-.15,1.06,2.12,2.12,0,0,1-.44.78,1.85,1.85,0,0,1-.71.49,2.45,2.45,0,0,1-.93.17,2.3,2.3,0,0,1-.88-.17,1.78,1.78,0,0,1-.69-.49,2.15,2.15,0,0,1-.46-.78,3.47,3.47,0,0,1-.16-1.06,3.07,3.07,0,0,1,.27-1.35,1.93,1.93,0,0,1,.77-.85,2.36,2.36,0,0,1,1.19-.29,2.26,2.26,0,0,1,1.15.29,2,2,0,0,1,.77.85A3.07,3.07,0,0,1,112,102.79Zm-3.66,0a3,3,0,0,0,.15,1,1.27,1.27,0,0,0,.48.66,1.33,1.33,0,0,0,.82.24,1.36,1.36,0,0,0,.83-.24,1.31,1.31,0,0,0,.47-.66,2.76,2.76,0,0,0,.16-1,2.72,2.72,0,0,0-.16-1,1.33,1.33,0,0,0-.47-.65,1.43,1.43,0,0,0-.83-.23,1.25,1.25,0,0,0-1.1.5A2.31,2.31,0,0,0,108.36,102.79Zm2.73-4.48v.09l-.24.3-.34.38-.37.37a4.35,4.35,0,0,1-.35.3h-.48v-.11l.31-.4c.11-.15.22-.32.32-.48s.19-.32.26-.45Z"/><path class="cls-3" d="M114.84,104.69l.37,0a1.61,1.61,0,0,0,.31-.07v.56a1.79,1.79,0,0,1-.36.1,2.18,2.18,0,0,1-.44,0,1.73,1.73,0,0,1-.69-.13,1,1,0,0,1-.5-.46,1.71,1.71,0,0,1-.19-.89V101h-.68v-.36l.69-.28.29-1h.44v1.12h1.41V101h-1.41v2.83a1,1,0,0,0,.2.68A.73.73,0,0,0,114.84,104.69Z"/><path class="cls-3" d="M120.65,102.79a3.47,3.47,0,0,1-.16,1.06,2.12,2.12,0,0,1-.44.78,1.82,1.82,0,0,1-.7.49,2.52,2.52,0,0,1-.93.17,2.35,2.35,0,0,1-.89-.17,1.78,1.78,0,0,1-.69-.49,2,2,0,0,1-.45-.78,3.19,3.19,0,0,1-.16-1.06,3.07,3.07,0,0,1,.26-1.35,2,2,0,0,1,.77-.85,2.36,2.36,0,0,1,1.19-.29,2.26,2.26,0,0,1,1.15.29,2,2,0,0,1,.77.85A3.06,3.06,0,0,1,120.65,102.79Zm-3.67,0a3,3,0,0,0,.15,1,1.39,1.39,0,0,0,.48.66,1.54,1.54,0,0,0,1.65,0,1.33,1.33,0,0,0,.48-.66,3,3,0,0,0,.15-1,3,3,0,0,0-.15-1,1.34,1.34,0,0,0-.48-.65,1.41,1.41,0,0,0-.83-.23,1.25,1.25,0,0,0-1.1.5A2.39,2.39,0,0,0,117,102.79Z"/><path class="cls-3" d="M124.19,100.3a1.79,1.79,0,0,1,1.29.42,1.77,1.77,0,0,1,.44,1.35v3.13h-.72v-3.09a1.31,1.31,0,0,0-.27-.9,1.09,1.09,0,0,0-.84-.3,1.31,1.31,0,0,0-1.13.46,2.28,2.28,0,0,0-.32,1.31v2.52h-.73v-4.81h.59l.11.69h0a1.45,1.45,0,0,1,.39-.43,1.87,1.87,0,0,1,.53-.26A2.06,2.06,0,0,1,124.19,100.3Z"/><g id="Gg3kF0.tif"><path class="cls-3" d="M59.56,100.6a3,3,0,0,1-.85,1.77c-.56.56-1.12,1.13-1.67,1.7,0,0,0,.07-.08.05s0-.07,0-.1a3.87,3.87,0,0,0-.11-1.79.22.22,0,0,1,.06-.24c.28-.29.57-.57.84-.87a1.4,1.4,0,0,0-1.17-2.32,1.26,1.26,0,0,0-.8.34c-.68.69-1.37,1.37-2,2.08a1.33,1.33,0,0,0-.37.78,1.38,1.38,0,0,0,.5,1.25l.19.14c.09.06.11.12.06.21a5.06,5.06,0,0,1-.78.94.16.16,0,0,1-.22,0,2.83,2.83,0,0,1-1-1.29,3,3,0,0,1,.46-3,3.28,3.28,0,0,1,.31-.34c.57-.58,1.12-1.15,1.69-1.72a2.85,2.85,0,0,1,1.82-.83h.45l.26,0A3,3,0,0,1,59.32,99a3.16,3.16,0,0,1,.24.9Z"/><path class="cls-3" d="M56.36,103.36a3,3,0,0,1-.78,2c-.51.55-1,1.08-1.58,1.61a4.6,4.6,0,0,1-.84.75,3,3,0,0,1-3.63-4.65l1.6-1.63.07-.07s0,0,.06,0,0,0,0,.06a4.12,4.12,0,0,0-.05.7,4,4,0,0,0,.16,1.09.26.26,0,0,1-.07.29c-.27.26-.52.52-.78.79a1.35,1.35,0,0,0-.33,1.39,1.39,1.39,0,0,0,2.32.58c.64-.64,1.29-1.28,1.9-2a1.49,1.49,0,0,0,.41-.76,1.34,1.34,0,0,0-.57-1.38c-.21-.16-.27-.16-.09-.45a2.72,2.72,0,0,1,.67-.76.18.18,0,0,1,.26,0,2.88,2.88,0,0,1,1.21,1.91.77.77,0,0,1,0,.15C56.34,103.17,56.36,103.29,56.36,103.36Z"/></g><path class="cls-3" d="M49.89,91.73h-.75V86h-2v-.65H51.9V86h-2Z"/><path class="cls-3" d="M54.62,86.83a2,2,0,0,1,1.05.27,1.73,1.73,0,0,1,.68.76A2.74,2.74,0,0,1,56.58,89v.45H53.25a1.9,1.9,0,0,0,.42,1.29,1.49,1.49,0,0,0,1.16.44,3.23,3.23,0,0,0,.8-.08,4.44,4.44,0,0,0,.73-.24v.64a3.34,3.34,0,0,1-.72.23,4.16,4.16,0,0,1-.85.08,2.6,2.6,0,0,1-1.21-.28,2,2,0,0,1-.8-.84,2.86,2.86,0,0,1-.28-1.34A3.13,3.13,0,0,1,52.76,88a2,2,0,0,1,.74-.88A2,2,0,0,1,54.62,86.83Zm0,.59a1.18,1.18,0,0,0-.93.39,1.83,1.83,0,0,0-.42,1.06h2.55a1.93,1.93,0,0,0-.13-.75,1.06,1.06,0,0,0-1.07-.7Z"/><path class="cls-3" d="M59,89.27,57.3,86.91h.83l1.27,1.86,1.27-1.86h.83l-1.67,2.36,1.76,2.46h-.84l-1.35-2-1.35,2h-.83Z"/><path class="cls-3" d="M64.08,91.22a2.31,2.31,0,0,0,.37,0l.31-.07v.56a1.51,1.51,0,0,1-.35.1,3.42,3.42,0,0,1-.44,0,1.75,1.75,0,0,1-.7-.14,1.08,1.08,0,0,1-.5-.45,1.82,1.82,0,0,1-.18-.89V87.49H61.9v-.36l.69-.29.29-1h.44v1.11h1.41v.58H63.32v2.83a1,1,0,0,0,.21.68A.71.71,0,0,0,64.08,91.22Z"/><path class="cls-3" d="M69.89,89.31a3.43,3.43,0,0,1-.15,1.06,2.18,2.18,0,0,1-.45.79,1.85,1.85,0,0,1-.7.49,2.45,2.45,0,0,1-.93.17,2.26,2.26,0,0,1-.88-.17,2,2,0,0,1-.7-.49,2.33,2.33,0,0,1-.45-.79,3.15,3.15,0,0,1-.16-1.06A3,3,0,0,1,65.74,88a1.91,1.91,0,0,1,.76-.85,2.28,2.28,0,0,1,1.19-.29,2.2,2.2,0,0,1,1.16.29,2.05,2.05,0,0,1,.77.85A3,3,0,0,1,69.89,89.31Zm-3.67,0a3,3,0,0,0,.16,1,1.4,1.4,0,0,0,.47.66,1.43,1.43,0,0,0,.83.23A1.39,1.39,0,0,0,68.5,91a1.36,1.36,0,0,0,.48-.66,3,3,0,0,0,.15-1,3,3,0,0,0-.15-1,1.28,1.28,0,0,0-.48-.65,1.41,1.41,0,0,0-.83-.23,1.27,1.27,0,0,0-1.1.5A2.37,2.37,0,0,0,66.22,89.31Z"/><path class="cls-3" d="M75.2,91.82a1.81,1.81,0,0,1-1.45-.63,3.49,3.49,0,0,1,0-3.73,1.81,1.81,0,0,1,1.45-.63,1.91,1.91,0,0,1,.66.1,1.6,1.6,0,0,1,.5.27,1.75,1.75,0,0,1,.34.38h.06a2.6,2.6,0,0,1,0-.37c0-.16,0-.29,0-.39V84.89h.73v6.84h-.59L76.75,91h0a1.48,1.48,0,0,1-.84.67A2,2,0,0,1,75.2,91.82Zm.12-.61a1.24,1.24,0,0,0,1.09-.44,2.15,2.15,0,0,0,.32-1.3v-.13a2.75,2.75,0,0,0-.3-1.42,1.23,1.23,0,0,0-1.11-.49,1.11,1.11,0,0,0-1,.52A2.58,2.58,0,0,0,74,89.36a2.41,2.41,0,0,0,.33,1.37A1.15,1.15,0,0,0,75.32,91.21Z"/><path class="cls-3" d="M80.85,86.83a2,2,0,0,1,1.05.27,1.73,1.73,0,0,1,.68.76A2.74,2.74,0,0,1,82.81,89v.45H79.48a1.85,1.85,0,0,0,.43,1.29,1.46,1.46,0,0,0,1.15.44,3.37,3.37,0,0,0,.81-.08,4.67,4.67,0,0,0,.72-.24v.64a3.34,3.34,0,0,1-.72.23,4.13,4.13,0,0,1-.84.08,2.54,2.54,0,0,1-1.21-.28A1.94,1.94,0,0,1,79,90.7a2.86,2.86,0,0,1-.28-1.34A3.13,3.13,0,0,1,79,88a2,2,0,0,1,.74-.88A2,2,0,0,1,80.85,86.83Zm0,.59a1.18,1.18,0,0,0-.93.39,1.76,1.76,0,0,0-.41,1.06H82a1.93,1.93,0,0,0-.13-.75,1.06,1.06,0,0,0-.39-.51A1.12,1.12,0,0,0,80.84,87.42Z"/><path class="cls-3" d="M88.57,86.83h.31l.28,0-.09.68-.27,0-.27,0a1.33,1.33,0,0,0-.55.12,1.45,1.45,0,0,0-.45.33,1.53,1.53,0,0,0-.3.53,2.06,2.06,0,0,0-.11.68v2.58h-.73V86.91H87l.08.89h0a2.47,2.47,0,0,1,.36-.49A1.69,1.69,0,0,1,88,87,1.44,1.44,0,0,1,88.57,86.83Z"/><path class="cls-3" d="M91.92,86.83a2,2,0,0,1,1,.27,1.73,1.73,0,0,1,.68.76A2.74,2.74,0,0,1,93.88,89v.45H90.55A1.9,1.9,0,0,0,91,90.75a1.49,1.49,0,0,0,1.16.44,3.23,3.23,0,0,0,.8-.08,4.44,4.44,0,0,0,.73-.24v.64a3.34,3.34,0,0,1-.72.23,4.16,4.16,0,0,1-.85.08,2.6,2.6,0,0,1-1.21-.28,2,2,0,0,1-.8-.84,2.86,2.86,0,0,1-.28-1.34A3.13,3.13,0,0,1,90.06,88a2,2,0,0,1,.74-.88A2,2,0,0,1,91.92,86.83Zm0,.59a1.18,1.18,0,0,0-.93.39,1.76,1.76,0,0,0-.41,1.06h2.54a1.93,1.93,0,0,0-.13-.75,1.06,1.06,0,0,0-1.07-.7Z"/><path class="cls-3" d="M97.26,87.49h-1.2v4.24h-.73V87.49h-.85v-.36l.85-.24v-.32a2.37,2.37,0,0,1,.18-1A1.2,1.2,0,0,1,96,85a1.76,1.76,0,0,1,.83-.18,2.59,2.59,0,0,1,.51,0,3.44,3.44,0,0,1,.41.11l-.19.58-.34-.09a1.58,1.58,0,0,0-.38,0,.73.73,0,0,0-.62.27,1.44,1.44,0,0,0-.2.84v.35h1.2Z"/><path class="cls-3" d="M100,86.83a2,2,0,0,1,1,.27,1.73,1.73,0,0,1,.68.76A2.74,2.74,0,0,1,102,89v.45H98.63a1.85,1.85,0,0,0,.43,1.29,1.46,1.46,0,0,0,1.15.44,3.37,3.37,0,0,0,.81-.08,5.16,5.16,0,0,0,.73-.24v.64a3.61,3.61,0,0,1-.73.23,4.13,4.13,0,0,1-.84.08A2.54,2.54,0,0,1,99,91.54a1.94,1.94,0,0,1-.81-.84,2.86,2.86,0,0,1-.28-1.34A3.13,3.13,0,0,1,98.14,88a2,2,0,0,1,.74-.88A2.06,2.06,0,0,1,100,86.83Zm0,.59a1.18,1.18,0,0,0-.93.39,1.76,1.76,0,0,0-.41,1.06h2.55a2.13,2.13,0,0,0-.14-.75,1.06,1.06,0,0,0-.39-.51A1.12,1.12,0,0,0,100,87.42Z"/><path class="cls-3" d="M105.39,86.83h.3l.28,0-.09.68-.26,0-.27,0a1.26,1.26,0,0,0-.55.12,1.45,1.45,0,0,0-.45.33,1.72,1.72,0,0,0-.31.53,2.06,2.06,0,0,0-.11.68v2.58h-.73V86.91h.61l.08.89h0a2.47,2.47,0,0,1,.36-.49,1.57,1.57,0,0,1,.49-.35A1.38,1.38,0,0,1,105.39,86.83Z"/><path class="cls-3" d="M108.73,86.83a2,2,0,0,1,1.06.27,1.78,1.78,0,0,1,.67.76,2.6,2.6,0,0,1,.23,1.15v.45h-3.32a1.9,1.9,0,0,0,.42,1.29,1.46,1.46,0,0,0,1.15.44,3.37,3.37,0,0,0,.81-.08,4.77,4.77,0,0,0,.73-.24v.64a3.61,3.61,0,0,1-.73.23,4.06,4.06,0,0,1-.84.08,2.57,2.57,0,0,1-1.21-.28,1.91,1.91,0,0,1-.8-.84,2.86,2.86,0,0,1-.29-1.34,3.28,3.28,0,0,1,.26-1.35,1.92,1.92,0,0,1,1.86-1.18Zm0,.59a1.18,1.18,0,0,0-.93.39,1.76,1.76,0,0,0-.41,1.06h2.55a2.13,2.13,0,0,0-.14-.75,1,1,0,0,0-.39-.51A1.12,1.12,0,0,0,108.72,87.42Z"/><path class="cls-3" d="M114.21,86.83a1.81,1.81,0,0,1,1.3.42,1.78,1.78,0,0,1,.44,1.34v3.14h-.72V88.64a1.26,1.26,0,0,0-.28-.9,1.08,1.08,0,0,0-.84-.3,1.28,1.28,0,0,0-1.12.45,2.24,2.24,0,0,0-.33,1.32v2.52h-.73V86.91h.59l.11.7h0a1.45,1.45,0,0,1,.39-.43,1.74,1.74,0,0,1,.53-.26A2.16,2.16,0,0,1,114.21,86.83Z"/><path class="cls-3" d="M119.38,91.82a2.38,2.38,0,0,1-1.15-.27,1.86,1.86,0,0,1-.77-.82,3.08,3.08,0,0,1-.28-1.38,3,3,0,0,1,.3-1.43,1.89,1.89,0,0,1,.8-.83,2.61,2.61,0,0,1,1.17-.26,3.26,3.26,0,0,1,.7.07,2.53,2.53,0,0,1,.55.18l-.22.61a4.42,4.42,0,0,0-.51-.16,2.67,2.67,0,0,0-.54-.07,1.53,1.53,0,0,0-.83.22,1.28,1.28,0,0,0-.5.63,2.82,2.82,0,0,0-.16,1,2.72,2.72,0,0,0,.16,1,1.4,1.4,0,0,0,.48.63,1.42,1.42,0,0,0,.8.22,2.5,2.5,0,0,0,.69-.09,2.73,2.73,0,0,0,.55-.19v.65a1.86,1.86,0,0,1-.53.19A3,3,0,0,1,119.38,91.82Z"/><path class="cls-3" d="M122.14,85.11a.45.45,0,0,1,.31.12.56.56,0,0,1,0,.72.45.45,0,0,1-.31.12.45.45,0,0,1-.32-.12.6.6,0,0,1,0-.72A.45.45,0,0,1,122.14,85.11Zm.35,1.8v4.82h-.73V86.91Z"/><path class="cls-3" d="M125.84,86.83a1.83,1.83,0,0,1,1.28.39,1.65,1.65,0,0,1,.41,1.24v3.27H127l-.14-.71h0a3,3,0,0,1-.43.44,1.42,1.42,0,0,1-.5.27,2.45,2.45,0,0,1-.71.09,1.78,1.78,0,0,1-.78-.16,1.16,1.16,0,0,1-.54-.46,1.47,1.47,0,0,1-.19-.79,1.27,1.27,0,0,1,.57-1.11,3.26,3.26,0,0,1,1.74-.42l.83,0v-.29a1.17,1.17,0,0,0-.27-.88,1.09,1.09,0,0,0-.75-.25,2.36,2.36,0,0,0-.72.11,5.5,5.5,0,0,0-.65.26l-.23-.55A4.35,4.35,0,0,1,125,87,3.68,3.68,0,0,1,125.84,86.83Zm1,2.53-.73,0a2.46,2.46,0,0,0-1.27.29.85.85,0,0,0-.37.74.72.72,0,0,0,.25.61,1.05,1.05,0,0,0,.66.19,1.52,1.52,0,0,0,1.05-.35,1.32,1.32,0,0,0,.41-1.07Z"/></g></g></svg>