<svg xmlns="http://www.w3.org/2000/svg" viewBox="0 0 175.31 109.65"><defs><style>.cls-1{fill:#ebebeb;}.cls-2{fill:#a8a9aa;}.cls-3{fill:#d8d8d8;}.cls-4{fill:#386bfb;}</style></defs><g id="Capa_2" data-name="Capa 2"><g id="Capa_1-2" data-name="Capa 1"><rect class="cls-1" y="11.19" width="175.31" height="98.46"/><path class="cls-2" d="M16,57.15l-2.31,6.43H13l-2.31-6.43h.78l1.51,4.24.16.48c.05.16.09.31.13.45s.07.28.1.42c0-.14.06-.28.1-.42s.08-.3.13-.45.11-.32.17-.5l1.49-4.22Z"/><path class="cls-2" d="M17.16,57a.45.45,0,0,1,.31.12.48.48,0,0,1,.13.36.49.49,0,0,1-.13.36.45.45,0,0,1-.31.12.45.45,0,0,1-.32-.12.49.49,0,0,1-.12-.36.47.47,0,0,1,.12-.36A.45.45,0,0,1,17.16,57Zm.35,1.8v4.82h-.72V58.76Z"/><path class="cls-2" d="M20.77,63.67A1.81,1.81,0,0,1,19.32,63a2.8,2.8,0,0,1-.53-1.85,2.83,2.83,0,0,1,.54-1.88,1.84,1.84,0,0,1,1.45-.64,1.92,1.92,0,0,1,.67.11,1.29,1.29,0,0,1,.49.27,1.57,1.57,0,0,1,.35.38h.05c0-.09,0-.21,0-.37s0-.29,0-.39V56.74H23v6.84h-.59l-.11-.69h0a1.41,1.41,0,0,1-.34.39,1.62,1.62,0,0,1-.5.28A2,2,0,0,1,20.77,63.67Zm.12-.61A1.27,1.27,0,0,0,22,62.62a2.24,2.24,0,0,0,.32-1.31v-.13a2.74,2.74,0,0,0-.3-1.41,1.21,1.21,0,0,0-1.11-.49,1.11,1.11,0,0,0-1,.52,2.58,2.58,0,0,0-.34,1.41,2.43,2.43,0,0,0,.34,1.37A1.13,1.13,0,0,0,20.89,63.06Z"/><path class="cls-2" d="M26.42,58.67a2,2,0,0,1,1,.28,1.73,1.73,0,0,1,.68.76,2.73,2.73,0,0,1,.23,1.14v.46H25.05a1.92,1.92,0,0,0,.42,1.29,1.49,1.49,0,0,0,1.15.44,3.27,3.27,0,0,0,.81-.08,4.51,4.51,0,0,0,.73-.25v.64a3.38,3.38,0,0,1-.72.24,4.16,4.16,0,0,1-.85.08,2.49,2.49,0,0,1-1.21-.29,2,2,0,0,1-.8-.83,2.89,2.89,0,0,1-.28-1.34,3.13,3.13,0,0,1,.26-1.35A2,2,0,0,1,25.3,59,2,2,0,0,1,26.42,58.67Zm0,.6a1.21,1.21,0,0,0-.93.38,1.89,1.89,0,0,0-.42,1.07h2.55a2,2,0,0,0-.13-.76,1.25,1.25,0,0,0-.39-.51A1.21,1.21,0,0,0,26.41,59.27Z"/><path class="cls-2" d="M33.77,61.16a3.43,3.43,0,0,1-.15,1.06,2.27,2.27,0,0,1-.45.79,2,2,0,0,1-.7.49,2.45,2.45,0,0,1-.93.17,2.26,2.26,0,0,1-.88-.17A2.16,2.16,0,0,1,30,63a2.43,2.43,0,0,1-.45-.79,3.15,3.15,0,0,1-.16-1.06,3.1,3.1,0,0,1,.27-1.35,1.83,1.83,0,0,1,.76-.84,2.29,2.29,0,0,1,1.19-.3,2.2,2.2,0,0,1,1.16.3,2.05,2.05,0,0,1,.77.85A3,3,0,0,1,33.77,61.16Zm-3.67,0a3.06,3.06,0,0,0,.16,1,1.4,1.4,0,0,0,.47.66,1.43,1.43,0,0,0,.83.23,1.39,1.39,0,0,0,.82-.23,1.36,1.36,0,0,0,.48-.66,3.07,3.07,0,0,0,.15-1,3,3,0,0,0-.15-1,1.28,1.28,0,0,0-.48-.65,1.41,1.41,0,0,0-.83-.23,1.27,1.27,0,0,0-1.1.5A2.37,2.37,0,0,0,30.1,61.16Z"/><path class="cls-2" d="M72,34.31h-.75V28.54h-2v-.65H74v.65H72Z"/><path class="cls-2" d="M76.51,27.42v.08a3.83,3.83,0,0,1-.24.31c-.1.12-.22.24-.34.37s-.25.26-.37.37-.24.22-.34.31h-.49v-.11c.09-.11.19-.24.3-.4s.23-.32.33-.48.19-.32.26-.45Zm-.91,6.89h-.73V29.49h.73Z"/><path class="cls-2" d="M78.69,33.8a2.31,2.31,0,0,0,.37,0,1.53,1.53,0,0,0,.31-.08v.57a1.51,1.51,0,0,1-.35.1,3.42,3.42,0,0,1-.44,0,1.75,1.75,0,0,1-.7-.14,1.08,1.08,0,0,1-.5-.45,1.82,1.82,0,0,1-.18-.89V30.06h-.69v-.35l.69-.29.29-1h.44v1.11h1.41v.57H77.93V32.9a1,1,0,0,0,.21.68A.71.71,0,0,0,78.69,33.8Z"/><path class="cls-2" d="M84.33,29.49v4.82h-.6l-.11-.68h0a1.57,1.57,0,0,1-.38.43,1.67,1.67,0,0,1-.54.25,2.18,2.18,0,0,1-.63.09,2.13,2.13,0,0,1-1-.19,1.23,1.23,0,0,1-.58-.57,2.21,2.21,0,0,1-.19-1V29.49H81V32.6a1.22,1.22,0,0,0,.28.89,1.07,1.07,0,0,0,.83.3,1.62,1.62,0,0,0,.85-.2,1.12,1.12,0,0,0,.46-.6,3,3,0,0,0,.14-1V29.49Z"/><path class="cls-2" d="M86.6,34.31h-.73V27.47h.73Z"/><path class="cls-2" d="M92.29,31.89A3.43,3.43,0,0,1,92.14,33a2.12,2.12,0,0,1-.45.79,1.85,1.85,0,0,1-.7.49,2.45,2.45,0,0,1-.93.17,2.3,2.3,0,0,1-.88-.17,2,2,0,0,1-.7-.49A2.43,2.43,0,0,1,88,33a3.42,3.42,0,0,1-.16-1.06,3,3,0,0,1,.27-1.34,1.88,1.88,0,0,1,.77-.85,2.26,2.26,0,0,1,1.19-.29,2.19,2.19,0,0,1,1.15.29,2.05,2.05,0,0,1,.77.85A3,3,0,0,1,92.29,31.89Zm-3.66,0a3,3,0,0,0,.15,1,1.36,1.36,0,0,0,.48.66,1.37,1.37,0,0,0,.82.23,1.43,1.43,0,0,0,.83-.23,1.4,1.4,0,0,0,.47-.66,3,3,0,0,0,.16-1,2.93,2.93,0,0,0-.16-1,1.33,1.33,0,0,0-.47-.65,1.43,1.43,0,0,0-.83-.23,1.25,1.25,0,0,0-1.1.5A2.3,2.3,0,0,0,88.63,31.89Z"/><path class="cls-2" d="M103.49,36.75,102.64,34H98.37l-.85,2.79H94.85L99,25h3l4.14,11.76Zm-1.44-4.87-.85-2.72c0-.18-.12-.42-.21-.7l-.27-.88c-.08-.29-.16-.55-.21-.77-.05.22-.13.49-.22.81s-.18.63-.27.92-.14.49-.18.62L99,31.88Z"/><path class="cls-2" d="M39.4,70.14V56.07c.05-.15.09-.3.14-.45a3.2,3.2,0,0,1,3-2.19H62a3.19,3.19,0,0,1,3.16,3.16q0,6.52,0,13a2.66,2.66,0,0,1-.12.79,3.3,3.3,0,0,1-2.52,2.34H42A3.38,3.38,0,0,1,39.4,70.14Zm7.54-7.07c0,1.35,0,2.7,0,4.05a1.11,1.11,0,0,0,1.74,1.1c.78-.44,1.59-.8,2.39-1.2l5.85-2.92a1.09,1.09,0,0,0,.69-1,1,1,0,0,0-.63-1l-8.48-4.23a.94.94,0,0,0-.68-.12A1.08,1.08,0,0,0,46.94,59C46.93,60.35,46.94,61.71,46.94,63.07Z"/><path class="cls-2" d="M53.12,51.34H44.34c-.49,0-.53,0-.29-.47a3.12,3.12,0,0,1,2.83-1.72H66.25a3.21,3.21,0,0,1,3.22,3.22c0,4.31,0,8.62,0,12.93a3.08,3.08,0,0,1-1.72,2.82c-.41.23-.47.19-.47-.27,0-3.66,0-7.32,0-11a5.38,5.38,0,0,0-5.49-5.52C58.89,51.33,56,51.34,53.12,51.34Z"/><path class="cls-2" d="M49,63.08c0-.74,0-1.48,0-2.21,0-.28.07-.34.33-.21l4.55,2.27c.08,0,.19.07.19.17s-.1.13-.18.17l-4.58,2.29c-.25.13-.31,0-.31-.2C49,64.6,49,63.84,49,63.08Z"/><path class="cls-2" d="M95.25,52.72a2.4,2.4,0,0,0-1,.18,1.83,1.83,0,0,0-.72.53,2.47,2.47,0,0,0-.46.83,3.74,3.74,0,0,0-.16,1.1,3.58,3.58,0,0,0,.26,1.41,2.07,2.07,0,0,0,.75.92,2.36,2.36,0,0,0,1.26.32,4.14,4.14,0,0,0,.81-.07c.26,0,.5-.11.74-.18v.65a4.22,4.22,0,0,1-.74.19,5.81,5.81,0,0,1-.91.07,3.07,3.07,0,0,1-1.64-.41,2.48,2.48,0,0,1-1-1.15,4.44,4.44,0,0,1-.32-1.75,4.1,4.1,0,0,1,.2-1.34,3.05,3.05,0,0,1,.6-1,2.62,2.62,0,0,1,1-.68,3.36,3.36,0,0,1,1.31-.24,4.11,4.11,0,0,1,.94.1,3.29,3.29,0,0,1,.82.27l-.3.64a4.05,4.05,0,0,0-.67-.25A2.92,2.92,0,0,0,95.25,52.72Z"/><path class="cls-2" d="M102,53.76v4.82h-.59l-.11-.68h0a1.31,1.31,0,0,1-.39.42,1.54,1.54,0,0,1-.53.26,2.18,2.18,0,0,1-.63.09,2.28,2.28,0,0,1-1-.19,1.19,1.19,0,0,1-.58-.57,2.21,2.21,0,0,1-.2-1V53.76h.74v3.1a1.27,1.27,0,0,0,.27.9,1.08,1.08,0,0,0,.83.3,1.63,1.63,0,0,0,.86-.2,1.22,1.22,0,0,0,.46-.6,3,3,0,0,0,.14-1V53.76Z"/><path class="cls-2" d="M105.44,53.67a1.87,1.87,0,0,1,1,.28,1.73,1.73,0,0,1,.68.76,2.73,2.73,0,0,1,.23,1.14v.46h-3.33a1.92,1.92,0,0,0,.42,1.29,1.53,1.53,0,0,0,1.16.44,4,4,0,0,0,.81-.08,4.76,4.76,0,0,0,.72-.25v.64a3.38,3.38,0,0,1-.72.24,4.13,4.13,0,0,1-.84.08,2.5,2.5,0,0,1-1.22-.29,2,2,0,0,1-.8-.83,2.89,2.89,0,0,1-.28-1.34,3.13,3.13,0,0,1,.26-1.35,2,2,0,0,1,.74-.88A2.07,2.07,0,0,1,105.44,53.67Zm0,.6a1.21,1.21,0,0,0-.93.38,1.79,1.79,0,0,0-.41,1.07h2.55a2.19,2.19,0,0,0-.14-.76,1.25,1.25,0,0,0-.39-.51A1.19,1.19,0,0,0,105.43,54.27Z"/><path class="cls-2" d="M110.83,53.67l.3,0,.28,0-.09.68-.26,0-.28,0a1.35,1.35,0,0,0-1,.45,1.72,1.72,0,0,0-.31.53,2,2,0,0,0-.11.67v2.59h-.73V53.76h.6l.08.89h0a2.13,2.13,0,0,1,.36-.49,1.42,1.42,0,0,1,.49-.35A1.38,1.38,0,0,1,110.83,53.67Z"/><path class="cls-2" d="M114.58,53.67a1.82,1.82,0,0,1,1.44.62,2.86,2.86,0,0,1,.53,1.87,3.48,3.48,0,0,1-.24,1.38,1.8,1.8,0,0,1-1.75,1.13,2,2,0,0,1-.67-.11,1.42,1.42,0,0,1-.5-.27,2,2,0,0,1-.34-.37h0c0,.11,0,.25,0,.41s0,.3,0,.42v2h-.73v-7h.6l.1.71h0a2.12,2.12,0,0,1,.34-.4,1.53,1.53,0,0,1,.5-.29A2,2,0,0,1,114.58,53.67Zm-.13.62a1.46,1.46,0,0,0-.8.19,1.06,1.06,0,0,0-.45.58,3.24,3.24,0,0,0-.15,1v.14a3.8,3.8,0,0,0,.13,1,1.21,1.21,0,0,0,.45.64,1.36,1.36,0,0,0,.83.22,1.16,1.16,0,0,0,.75-.24,1.37,1.37,0,0,0,.44-.68,3,3,0,0,0,.15-1,2.47,2.47,0,0,0-.33-1.36A1.14,1.14,0,0,0,114.45,54.29Z"/><path class="cls-2" d="M122,56.16a3.42,3.42,0,0,1-.16,1.06,2.25,2.25,0,0,1-.44.79,2.06,2.06,0,0,1-.7.49,2.52,2.52,0,0,1-.93.17,2.35,2.35,0,0,1-.89-.17,2,2,0,0,1-.69-.49,2.12,2.12,0,0,1-.45-.79,3.15,3.15,0,0,1-.16-1.06,3.07,3.07,0,0,1,.26-1.35,1.91,1.91,0,0,1,.77-.84,2.26,2.26,0,0,1,1.19-.3,2.17,2.17,0,0,1,1.15.3,2,2,0,0,1,.77.85A2.91,2.91,0,0,1,122,56.16Zm-3.67,0a2.82,2.82,0,0,0,.16,1,1.34,1.34,0,0,0,.47.66,1.59,1.59,0,0,0,1.65,0,1.42,1.42,0,0,0,.48-.66,3.07,3.07,0,0,0,.15-1,3,3,0,0,0-.15-1,1.34,1.34,0,0,0-.48-.65,1.41,1.41,0,0,0-.83-.23,1.25,1.25,0,0,0-1.1.5A2.37,2.37,0,0,0,118.31,56.16Z"/><path class="cls-2" d="M94.11,68.67A1.81,1.81,0,0,1,92.66,68a2.8,2.8,0,0,1-.53-1.85,2.83,2.83,0,0,1,.54-1.88,1.84,1.84,0,0,1,1.45-.64,1.92,1.92,0,0,1,.67.11,1.43,1.43,0,0,1,.49.26,1.82,1.82,0,0,1,.35.39h.05c0-.09,0-.22,0-.37s0-.29,0-.39V61.74h.73v6.84h-.59l-.11-.69h0a1.41,1.41,0,0,1-.34.39,1.62,1.62,0,0,1-.5.28A2,2,0,0,1,94.11,68.67Zm.11-.61a1.28,1.28,0,0,0,1.1-.44,2.24,2.24,0,0,0,.32-1.31v-.13a2.63,2.63,0,0,0-.31-1.41,1.19,1.19,0,0,0-1.11-.49,1.1,1.1,0,0,0-1,.52,2.58,2.58,0,0,0-.33,1.41,2.36,2.36,0,0,0,.33,1.37A1.13,1.13,0,0,0,94.22,68.06Z"/><path class="cls-2" d="M99.76,63.67a1.87,1.87,0,0,1,1,.28,1.71,1.71,0,0,1,.67.76,2.58,2.58,0,0,1,.24,1.14v.46H98.39a1.92,1.92,0,0,0,.42,1.29A1.51,1.51,0,0,0,100,68a3.83,3.83,0,0,0,.81-.08,4.51,4.51,0,0,0,.73-.25v.64a3.38,3.38,0,0,1-.72.24,4.16,4.16,0,0,1-.85.08,2.49,2.49,0,0,1-1.21-.29,2,2,0,0,1-.8-.83,2.89,2.89,0,0,1-.28-1.34,3.13,3.13,0,0,1,.26-1.35,2,2,0,0,1,.74-.88A2,2,0,0,1,99.76,63.67Zm0,.6a1.21,1.21,0,0,0-.93.38,1.8,1.8,0,0,0-.42,1.07H101a2.2,2.2,0,0,0-.13-.76,1.19,1.19,0,0,0-.4-.51A1.15,1.15,0,0,0,99.75,64.27Z"/><path class="cls-2" d="M106.85,68.07l.37,0a1.53,1.53,0,0,0,.31-.08v.57a1.79,1.79,0,0,1-.36.1,3.27,3.27,0,0,1-.44,0,1.74,1.74,0,0,1-.69-.14,1,1,0,0,1-.5-.45,1.73,1.73,0,0,1-.19-.89V64.33h-.68V64l.69-.29.29-1h.44v1.11h1.41v.57h-1.41v2.84a.93.93,0,0,0,.21.67A.7.7,0,0,0,106.85,68.07Z"/><path class="cls-2" d="M110.36,63.67a1.87,1.87,0,0,1,1,.28,1.71,1.71,0,0,1,.67.76,2.58,2.58,0,0,1,.24,1.14v.46H109a1.92,1.92,0,0,0,.42,1.29,1.51,1.51,0,0,0,1.15.44,3.83,3.83,0,0,0,.81-.08,4.51,4.51,0,0,0,.73-.25v.64a3.38,3.38,0,0,1-.72.24,4.16,4.16,0,0,1-.85.08,2.49,2.49,0,0,1-1.21-.29,2,2,0,0,1-.8-.83,2.88,2.88,0,0,1-.29-1.34,3.13,3.13,0,0,1,.27-1.35,2.05,2.05,0,0,1,.73-.88A2.1,2.1,0,0,1,110.36,63.67Zm0,.6a1.21,1.21,0,0,0-.93.38,1.8,1.8,0,0,0-.42,1.07h2.55a2.2,2.2,0,0,0-.13-.76,1.19,1.19,0,0,0-.4-.51A1.15,1.15,0,0,0,110.35,64.27Z"/><path class="cls-2" d="M114.7,66.11,113,63.76h.83l1.27,1.86,1.27-1.86h.82l-1.66,2.35,1.76,2.47h-.84l-1.35-2-1.35,2H113Z"/><path class="cls-2" d="M119.82,68.07a2.31,2.31,0,0,0,.37,0,1.53,1.53,0,0,0,.31-.08v.57a1.68,1.68,0,0,1-.35.1,3.42,3.42,0,0,1-.44,0,1.75,1.75,0,0,1-.7-.14,1.08,1.08,0,0,1-.5-.45,1.84,1.84,0,0,1-.19-.89V64.33h-.68V64l.69-.29.29-1h.44v1.11h1.41v.57h-1.41v2.84a.93.93,0,0,0,.21.67A.72.72,0,0,0,119.82,68.07Z"/><path class="cls-2" d="M125.63,66.16a3.15,3.15,0,0,1-.16,1.06A2.25,2.25,0,0,1,125,68a2.06,2.06,0,0,1-.7.49,2.49,2.49,0,0,1-.93.17,2.35,2.35,0,0,1-.89-.17,2.12,2.12,0,0,1-.69-.49,2.27,2.27,0,0,1-.45-.79,3.15,3.15,0,0,1-.16-1.06,3.22,3.22,0,0,1,.26-1.35,1.91,1.91,0,0,1,.77-.84,2.26,2.26,0,0,1,1.19-.3,2.17,2.17,0,0,1,1.15.3,2,2,0,0,1,.77.85A2.91,2.91,0,0,1,125.63,66.16Zm-3.67,0a2.82,2.82,0,0,0,.16,1,1.4,1.4,0,0,0,.47.66,1.43,1.43,0,0,0,.83.23,1.39,1.39,0,0,0,.82-.23,1.36,1.36,0,0,0,.48-.66,3.07,3.07,0,0,0,.15-1,3,3,0,0,0-.15-1,1.28,1.28,0,0,0-.48-.65,1.41,1.41,0,0,0-.83-.23,1.27,1.27,0,0,0-1.1.5A2.37,2.37,0,0,0,122,66.16Z"/><rect class="cls-2" x="131.77" y="48.29" width="34.45" height="25.31" rx="1.22"/><path class="cls-3" d="M156,54.65H137.5a.75.75,0,0,1,0-1.5H156a.75.75,0,0,1,0,1.5Z"/><path class="cls-3" d="M156,63.71H137.5a.75.75,0,0,1,0-1.5H156a.75.75,0,0,1,0,1.5Z"/><path class="cls-3" d="M160.48,59.61h-23a.75.75,0,0,1,0-1.5h23a.75.75,0,0,1,0,1.5Z"/><path class="cls-3" d="M160.48,68h-23a.75.75,0,0,1,0-1.5h23a.75.75,0,0,1,0,1.5Z"/><path class="cls-2" d="M64.75,95.62l-1.83-4.81h.78l1.06,2.91c.07.2.15.42.23.66a4.56,4.56,0,0,1,.15.58h0c0-.15.1-.34.18-.58s.16-.46.23-.66l1-2.91h.79l-1.84,4.81Z"/><path class="cls-2" d="M69.82,88.73v.08a1.74,1.74,0,0,1-.24.31l-.33.37c-.13.13-.25.26-.37.37l-.35.31H68v-.11a3.74,3.74,0,0,0,.31-.4l.33-.48.26-.45Zm-.91,6.89h-.72V90.81h.72Z"/><path class="cls-2" d="M72.74,90.72a1.79,1.79,0,0,1,1.29.42,1.76,1.76,0,0,1,.44,1.34v3.14h-.72V92.53a1.31,1.31,0,0,0-.27-.9,1.09,1.09,0,0,0-.84-.3,1.28,1.28,0,0,0-1.13.46,2.19,2.19,0,0,0-.32,1.31v2.52h-.73V90.81h.59l.11.69h0a1.45,1.45,0,0,1,.39-.43,1.87,1.87,0,0,1,.53-.26A2.06,2.06,0,0,1,72.74,90.72Z"/><path class="cls-2" d="M77.91,95.71a2.35,2.35,0,0,1-1.15-.27,1.88,1.88,0,0,1-.78-.82,3.08,3.08,0,0,1-.27-1.38A3.13,3.13,0,0,1,76,91.81a2,2,0,0,1,.81-.83A2.58,2.58,0,0,1,78,90.72a3.11,3.11,0,0,1,.69.07,2.36,2.36,0,0,1,.55.18l-.22.61a3.7,3.7,0,0,0-.5-.16,2.67,2.67,0,0,0-.54-.07,1.53,1.53,0,0,0-.83.22,1.22,1.22,0,0,0-.5.63,2.82,2.82,0,0,0-.16,1,2.72,2.72,0,0,0,.16,1,1.32,1.32,0,0,0,.47.63,1.45,1.45,0,0,0,.8.22,2.84,2.84,0,0,0,.69-.08,3.65,3.65,0,0,0,.56-.2v.65a1.82,1.82,0,0,1-.54.19A2.91,2.91,0,0,1,77.91,95.71Z"/><path class="cls-2" d="M84.27,90.81v4.81h-.6l-.11-.68h0a1.42,1.42,0,0,1-.38.43,1.67,1.67,0,0,1-.54.25,2.18,2.18,0,0,1-.63.09,2.13,2.13,0,0,1-1-.19,1.23,1.23,0,0,1-.58-.57,2.18,2.18,0,0,1-.19-1V90.81H81v3.1a1.26,1.26,0,0,0,.28.9,1.1,1.1,0,0,0,.83.29,1.53,1.53,0,0,0,.85-.2,1.1,1.1,0,0,0,.46-.59,3.06,3.06,0,0,0,.14-1V90.81Z"/><path class="cls-2" d="M86.54,95.62h-.73V88.78h.73Z"/><path class="cls-2" d="M92.23,93.2a3.43,3.43,0,0,1-.15,1.06,2.32,2.32,0,0,1-.44.79,2,2,0,0,1-.71.49,2.45,2.45,0,0,1-.93.17,2.3,2.3,0,0,1-.88-.17,2,2,0,0,1-.7-.49,2.33,2.33,0,0,1-.45-.79,3.42,3.42,0,0,1-.16-1.06,3,3,0,0,1,.27-1.34,1.88,1.88,0,0,1,.77-.85A2.23,2.23,0,0,1,90,90.72a2.28,2.28,0,0,1,1.15.29,2.05,2.05,0,0,1,.77.85A3,3,0,0,1,92.23,93.2Zm-3.66,0a3,3,0,0,0,.15,1,1.27,1.27,0,0,0,.48.66,1.31,1.31,0,0,0,.82.23,1.36,1.36,0,0,0,.83-.23,1.31,1.31,0,0,0,.47-.66,3,3,0,0,0,.16-1,2.93,2.93,0,0,0-.16-1,1.33,1.33,0,0,0-.47-.65,1.43,1.43,0,0,0-.83-.23,1.25,1.25,0,0,0-1.1.5A2.3,2.3,0,0,0,88.57,93.2Z"/><path class="cls-2" d="M100,93.2a3.43,3.43,0,0,1-.15,1.06,2.16,2.16,0,0,1-.44.79,2,2,0,0,1-.7.49,2.52,2.52,0,0,1-.93.17,2.31,2.31,0,0,1-.89-.17,1.89,1.89,0,0,1-.69-.49,2.2,2.2,0,0,1-.46-.79,3.42,3.42,0,0,1-.16-1.06,3,3,0,0,1,.27-1.34A1.93,1.93,0,0,1,96.6,91a2.5,2.5,0,0,1,2.34,0,2,2,0,0,1,.77.85A3,3,0,0,1,100,93.2Zm-3.66,0a3,3,0,0,0,.15,1,1.27,1.27,0,0,0,.48.66,1.33,1.33,0,0,0,.82.23,1.36,1.36,0,0,0,.83-.23,1.31,1.31,0,0,0,.47-.66,2.78,2.78,0,0,0,.16-1,2.71,2.71,0,0,0-.16-1,1.33,1.33,0,0,0-.47-.65,1.41,1.41,0,0,0-.83-.23,1.25,1.25,0,0,0-1.1.5A2.37,2.37,0,0,0,96.32,93.2Z"/><path class="cls-2" d="M104.31,88.78v1.71c0,.2,0,.39,0,.57s0,.33,0,.43h0a1.75,1.75,0,0,1,1.53-.77,1.8,1.8,0,0,1,1.44.63,2.79,2.79,0,0,1,.54,1.86,3.29,3.29,0,0,1-.25,1.37,1.81,1.81,0,0,1-.69.84,1.93,1.93,0,0,1-1.06.29,1.9,1.9,0,0,1-.94-.21,1.76,1.76,0,0,1-.56-.52h-.06l-.15.64h-.53V88.78Zm1.41,2.55a1.44,1.44,0,0,0-.83.21,1.08,1.08,0,0,0-.44.61,3.4,3.4,0,0,0-.14,1v0a2.53,2.53,0,0,0,.31,1.39,1.2,1.2,0,0,0,1.1.48,1.14,1.14,0,0,0,1-.49,2.53,2.53,0,0,0,.33-1.41,2.45,2.45,0,0,0-.33-1.4A1.16,1.16,0,0,0,105.72,91.33Z"/><path class="cls-2" d="M113.24,93.2a3.43,3.43,0,0,1-.15,1.06,2.18,2.18,0,0,1-.45.79,1.85,1.85,0,0,1-.7.49,2.45,2.45,0,0,1-.93.17,2.3,2.3,0,0,1-.88-.17,2,2,0,0,1-.7-.49,2.33,2.33,0,0,1-.45-.79,3.42,3.42,0,0,1-.16-1.06,3,3,0,0,1,.27-1.34,1.88,1.88,0,0,1,.77-.85,2.23,2.23,0,0,1,1.19-.29,2.28,2.28,0,0,1,1.15.29,2.05,2.05,0,0,1,.77.85A3,3,0,0,1,113.24,93.2Zm-3.66,0a3,3,0,0,0,.15,1,1.27,1.27,0,0,0,.48.66,1.31,1.31,0,0,0,.82.23,1.36,1.36,0,0,0,.83-.23,1.31,1.31,0,0,0,.47-.66,3,3,0,0,0,.16-1,2.93,2.93,0,0,0-.16-1,1.33,1.33,0,0,0-.47-.65,1.43,1.43,0,0,0-.83-.23,1.25,1.25,0,0,0-1.1.5A2.3,2.3,0,0,0,109.58,93.2Zm2.73-4.47v.08a3.83,3.83,0,0,1-.24.31c-.1.12-.22.24-.34.37s-.25.26-.37.37l-.35.31h-.48v-.11c.09-.11.19-.24.3-.4s.22-.32.33-.48l.26-.45Z"/><path class="cls-2" d="M116.06,95.11l.37,0a1.8,1.8,0,0,0,.31-.07v.56a1.79,1.79,0,0,1-.36.1,2.25,2.25,0,0,1-.44,0,1.88,1.88,0,0,1-.69-.13,1.06,1.06,0,0,1-.5-.46,1.71,1.71,0,0,1-.19-.89V91.38h-.68V91l.68-.29.3-1h.44v1.12h1.41v.57H115.3v2.83a1,1,0,0,0,.2.68A.73.73,0,0,0,116.06,95.11Z"/><path class="cls-2" d="M121.87,93.2a3.42,3.42,0,0,1-.16,1.06,2.16,2.16,0,0,1-.44.79,2,2,0,0,1-.7.49,2.52,2.52,0,0,1-.93.17,2.31,2.31,0,0,1-.89-.17,1.89,1.89,0,0,1-.69-.49,2.2,2.2,0,0,1-.46-.79,3.42,3.42,0,0,1-.16-1.06,3,3,0,0,1,.27-1.34,1.93,1.93,0,0,1,.77-.85,2.5,2.5,0,0,1,2.34,0,2,2,0,0,1,.77.85A3,3,0,0,1,121.87,93.2Zm-3.67,0a3,3,0,0,0,.15,1,1.27,1.27,0,0,0,1.3.89,1.36,1.36,0,0,0,.83-.23,1.39,1.39,0,0,0,.48-.66,3,3,0,0,0,.15-1,3,3,0,0,0-.15-1,1.28,1.28,0,0,0-1.31-.88,1.25,1.25,0,0,0-1.1.5A2.37,2.37,0,0,0,118.2,93.2Z"/><path class="cls-2" d="M125.41,90.72a1.79,1.79,0,0,1,1.29.42,1.76,1.76,0,0,1,.44,1.34v3.14h-.72V92.53a1.31,1.31,0,0,0-.27-.9,1.09,1.09,0,0,0-.84-.3,1.28,1.28,0,0,0-1.13.46,2.19,2.19,0,0,0-.32,1.31v2.52h-.73V90.81h.59l.1.69h.05a1.45,1.45,0,0,1,.39-.43,1.75,1.75,0,0,1,.53-.26A2.06,2.06,0,0,1,125.41,90.72Z"/><g id="Gg3kF0.tif"><path class="cls-2" d="M61.31,89.67A4.5,4.5,0,0,1,61,90.86a4.09,4.09,0,0,1-.75,1.06L58.1,94.08s-.06.09-.11.07,0-.09,0-.13a4.84,4.84,0,0,0-.15-2.27.29.29,0,0,1,.08-.31c.36-.37.73-.73,1.07-1.11a1.78,1.78,0,0,0-1.48-3,1.58,1.58,0,0,0-1,.44c-.87.87-1.74,1.73-2.56,2.64a1.69,1.69,0,0,0-.48,1,1.82,1.82,0,0,0,.88,1.76c.12.09.14.16.07.28a5.91,5.91,0,0,1-1,1.19c-.09.09-.18.06-.28,0A3.52,3.52,0,0,1,51.81,93a3.76,3.76,0,0,1,.58-3.87c.12-.15.26-.29.4-.44.72-.72,1.42-1.46,2.15-2.18a3.59,3.59,0,0,1,2.31-1.05l.08,0h.49l.33,0A3.73,3.73,0,0,1,61,87.69a4.1,4.1,0,0,1,.31,1.14Z"/><path class="cls-2" d="M57.23,93.18a3.69,3.69,0,0,1-1,2.59c-.65.71-1.33,1.37-2,2.06a5.7,5.7,0,0,1-1.08.94,3.77,3.77,0,0,1-4.6-5.91l2-2.07.09-.09s0,0,.08,0,0,0,0,.08a6.65,6.65,0,0,0-.06.89A5,5,0,0,0,50.9,93a.31.31,0,0,1-.09.36c-.33.34-.66.67-1,1a1.72,1.72,0,0,0-.43,1.77,1.77,1.77,0,0,0,3,.74c.82-.82,1.64-1.63,2.42-2.48a1.88,1.88,0,0,0,.52-1,1.72,1.72,0,0,0-.72-1.76c-.27-.2-.34-.2-.12-.57a4.15,4.15,0,0,1,.85-1,.26.26,0,0,1,.34,0,3.7,3.7,0,0,1,1.53,2.43.64.64,0,0,1,0,.2A2.14,2.14,0,0,1,57.23,93.18Z"/></g><path class="cls-4" d="M8.84.46a2.94,2.94,0,0,1,2,.57,2,2,0,0,1,.64,1.59,2.57,2.57,0,0,1-.15.87,1.77,1.77,0,0,1-.47.74,2.14,2.14,0,0,1-.86.51,3.88,3.88,0,0,1-1.32.19H7.93V7.6H6.76V.46Zm-.08,1H7.93V4h.64a3.18,3.18,0,0,0,.94-.13,1.16,1.16,0,0,0,.58-.42,1.27,1.27,0,0,0,.2-.74,1.11,1.11,0,0,0-.37-.92A1.85,1.85,0,0,0,8.76,1.44Z"/><path class="cls-4" d="M13.94,7.6H12.79V0h1.15Z"/><path class="cls-4" d="M17.7,2.09a2.33,2.33,0,0,1,1.55.45A1.79,1.79,0,0,1,19.77,4V7.6H19l-.23-.77h0a2.76,2.76,0,0,1-.47.49,1.55,1.55,0,0,1-.56.28,2.85,2.85,0,0,1-.78.1A2.05,2.05,0,0,1,16,7.52,1.31,1.31,0,0,1,15.42,7,1.73,1.73,0,0,1,15.2,6a1.42,1.42,0,0,1,.62-1.25,3.64,3.64,0,0,1,1.88-.46l.94,0V4a1.07,1.07,0,0,0-.26-.8A1.06,1.06,0,0,0,17.64,3a2.54,2.54,0,0,0-.78.12,5.94,5.94,0,0,0-.74.28l-.38-.81a4.42,4.42,0,0,1,.91-.34A4,4,0,0,1,17.7,2.09ZM18.63,5l-.69,0a2.24,2.24,0,0,0-1.21.29.86.86,0,0,0-.34.72.72.72,0,0,0,.23.59,1,1,0,0,0,.63.18,1.44,1.44,0,0,0,1-.34,1.24,1.24,0,0,0,.39-1Z"/><path class="cls-4" d="M24.2,2.09a2,2,0,0,1,1.42.47,2,2,0,0,1,.51,1.51V7.6H25V4.29a1.41,1.41,0,0,0-.26-.94,1,1,0,0,0-.8-.32,1.18,1.18,0,0,0-1.09.49,2.63,2.63,0,0,0-.3,1.39V7.6H21.38V2.19h.89l.16.73h.07a1.72,1.72,0,0,1,.43-.46,2.13,2.13,0,0,1,.59-.28A2.54,2.54,0,0,1,24.2,2.09Z"/><path class="cls-4" d="M29.74,6.77a3.42,3.42,0,0,0,.45,0l.4-.1V7.5a3,3,0,0,1-.49.14,3.36,3.36,0,0,1-.63.06,2.19,2.19,0,0,1-.83-.16A1.19,1.19,0,0,1,28.06,7a2.15,2.15,0,0,1-.21-1V3.07h-.74V2.56l.79-.41L28.27,1H29v1.2h1.55v.88H29V6a.86.86,0,0,0,.2.61A.77.77,0,0,0,29.74,6.77Z"/><path class="cls-4" d="M32.27.12a.75.75,0,0,1,.45.14.58.58,0,0,1,.2.49.58.58,0,0,1-.2.49.7.7,0,0,1-.45.15.71.71,0,0,1-.46-.15.58.58,0,0,1-.2-.49.58.58,0,0,1,.2-.49A.76.76,0,0,1,32.27.12Zm.57,2.07V7.6H31.68V2.19Z"/><path class="cls-4" d="M35.63,7.6H34.47V0h1.16Z"/><path class="cls-4" d="M38.42,7.6H37.26V0h1.16Z"/><path class="cls-4" d="M42.17,2.09a2.33,2.33,0,0,1,1.55.45A1.8,1.8,0,0,1,44.25,4V7.6h-.82l-.22-.77h0a2.8,2.8,0,0,1-.48.49,1.55,1.55,0,0,1-.56.28,2.82,2.82,0,0,1-.77.1,2,2,0,0,1-.87-.18,1.28,1.28,0,0,1-.6-.55A1.73,1.73,0,0,1,39.67,6a1.42,1.42,0,0,1,.62-1.25,3.69,3.69,0,0,1,1.89-.46l.93,0V4a1.07,1.07,0,0,0-.26-.8A1,1,0,0,0,42.12,3a2.66,2.66,0,0,0-.79.12,6.61,6.61,0,0,0-.74.28l-.38-.81a4.42,4.42,0,0,1,.91-.34A4.08,4.08,0,0,1,42.17,2.09ZM43.1,5l-.69,0a2.29,2.29,0,0,0-1.21.29.86.86,0,0,0-.34.72.69.69,0,0,0,.24.59,1,1,0,0,0,.63.18,1.43,1.43,0,0,0,1-.34,1.24,1.24,0,0,0,.39-1Z"/><path class="cls-4" d="M51.45,7.6H50.3V2.54c0-.15,0-.3,0-.45s0-.28,0-.41l-.25.24-.32.27L49,2.85l-.57-.73L50.5.46h1Z"/></g></g></svg>