<svg xmlns="http://www.w3.org/2000/svg" viewBox="0 0 175.31 111.26"><defs><style>.cls-1{fill:#ebebeb;}.cls-2{fill:#a8a9aa;}.cls-3{fill:#386bfb;}</style></defs><g id="Capa_2" data-name="Capa 2"><g id="Capa_1-2" data-name="Capa 1"><rect class="cls-1" y="12.81" width="175.31" height="98.46"/><path class="cls-2" d="M69.16,25.62h-.75V19.85h-2v-.66h4.78v.66h-2Z"/><path class="cls-2" d="M73.67,18.72v.09c-.06.08-.14.19-.24.3l-.33.38-.38.37a4.07,4.07,0,0,1-.34.3h-.49v-.1c.09-.11.2-.25.31-.41a5.72,5.72,0,0,0,.32-.48,4.85,4.85,0,0,0,.27-.45Zm-.91,6.9H72V20.8h.73Z"/><path class="cls-2" d="M75.86,25.11a1.61,1.61,0,0,0,.37,0,1.8,1.8,0,0,0,.31-.07v.57a1.34,1.34,0,0,1-.36.09,2.25,2.25,0,0,1-.44,0,1.7,1.7,0,0,1-.69-.13,1,1,0,0,1-.5-.46,1.69,1.69,0,0,1-.19-.88V21.37h-.68V21l.68-.28.3-1.05h.44V20.8h1.41v.57H75.1v2.84a.94.94,0,0,0,.2.67A.74.74,0,0,0,75.86,25.11Z"/><path class="cls-2" d="M81.49,20.8v4.82h-.6l-.1-.68h0a1.31,1.31,0,0,1-.39.42,2,2,0,0,1-.53.26,2.59,2.59,0,0,1-.63.08,2.25,2.25,0,0,1-1-.18,1.19,1.19,0,0,1-.58-.57,2.1,2.1,0,0,1-.2-1V20.8h.74v3.1a1.31,1.31,0,0,0,.27.9,1.07,1.07,0,0,0,.83.3,1.56,1.56,0,0,0,.86-.21,1.08,1.08,0,0,0,.45-.59,2.71,2.71,0,0,0,.15-1V20.8Z"/><path class="cls-2" d="M83.77,25.62H83V18.78h.74Z"/><path class="cls-2" d="M89.46,23.2a3.47,3.47,0,0,1-.16,1.06,2.12,2.12,0,0,1-.44.78,1.82,1.82,0,0,1-.7.49,2.33,2.33,0,0,1-.93.17,2.17,2.17,0,0,1-.89-.17,1.78,1.78,0,0,1-.69-.49,2,2,0,0,1-.45-.78A3.19,3.19,0,0,1,85,23.2a3.07,3.07,0,0,1,.26-1.35,2,2,0,0,1,.77-.85,2.36,2.36,0,0,1,1.19-.29,2.17,2.17,0,0,1,1.15.3,1.93,1.93,0,0,1,.77.85A3,3,0,0,1,89.46,23.2Zm-3.67,0a3.11,3.11,0,0,0,.15,1,1.41,1.41,0,0,0,.48.65,1.38,1.38,0,0,0,2.13-.65,3.11,3.11,0,0,0,.15-1,3,3,0,0,0-.15-1,1.26,1.26,0,0,0-1.31-.87,1.25,1.25,0,0,0-1.1.49A2.39,2.39,0,0,0,85.79,23.2Z"/><path class="cls-2" d="M100.65,28.05l-.84-2.78H95.54l-.85,2.78H92L96.15,16.3h3l4.15,11.75Zm-1.44-4.87-.85-2.72c0-.18-.12-.41-.21-.7s-.17-.57-.26-.87-.16-.56-.21-.77c-.06.21-.13.49-.22.81s-.19.63-.27.92l-.19.61-.84,2.72Z"/><path class="cls-3" d="M14.1.46a2.94,2.94,0,0,1,2,.57,2,2,0,0,1,.64,1.59,2.57,2.57,0,0,1-.15.87,1.77,1.77,0,0,1-.47.74,2.14,2.14,0,0,1-.86.51A3.92,3.92,0,0,1,14,4.93h-.76V7.6H12V.46Zm-.08,1h-.83V4h.64a3.18,3.18,0,0,0,.94-.13,1.16,1.16,0,0,0,.58-.42,1.27,1.27,0,0,0,.2-.74,1.11,1.11,0,0,0-.37-.92A1.85,1.85,0,0,0,14,1.44Z"/><path class="cls-3" d="M19.2,7.6H18.05V0H19.2Z"/><path class="cls-3" d="M23,2.09a2.33,2.33,0,0,1,1.55.45A1.79,1.79,0,0,1,25,4V7.6h-.81L24,6.83h0a2.76,2.76,0,0,1-.47.49,1.55,1.55,0,0,1-.56.28,2.85,2.85,0,0,1-.78.1,2.05,2.05,0,0,1-.87-.18,1.38,1.38,0,0,1-.6-.55A1.83,1.83,0,0,1,20.46,6a1.4,1.4,0,0,1,.62-1.25A3.62,3.62,0,0,1,23,4.33l.93,0V4a1.07,1.07,0,0,0-.25-.8A1.06,1.06,0,0,0,22.9,3a2.54,2.54,0,0,0-.78.12,5.94,5.94,0,0,0-.74.28L21,2.56a4.55,4.55,0,0,1,.9-.34A4.11,4.11,0,0,1,23,2.09ZM23.89,5,23.2,5A2.24,2.24,0,0,0,22,5.33a.87.87,0,0,0-.35.72.69.69,0,0,0,.24.59,1,1,0,0,0,.63.18,1.44,1.44,0,0,0,1-.34,1.24,1.24,0,0,0,.39-1Z"/><path class="cls-3" d="M29.46,2.09a2,2,0,0,1,1.42.47,2,2,0,0,1,.51,1.51V7.6H30.24V4.29A1.41,1.41,0,0,0,30,3.35a1,1,0,0,0-.8-.32,1.18,1.18,0,0,0-1.09.49,2.63,2.63,0,0,0-.3,1.39V7.6H26.63V2.19h.9l.16.73h.07a1.57,1.57,0,0,1,.43-.46,2,2,0,0,1,.59-.28A2.54,2.54,0,0,1,29.46,2.09Z"/><path class="cls-3" d="M35,6.77a3.42,3.42,0,0,0,.45,0l.4-.1V7.5a2.85,2.85,0,0,1-.5.14,3.21,3.21,0,0,1-.63.06,2.14,2.14,0,0,1-.82-.16A1.19,1.19,0,0,1,33.32,7a2.14,2.14,0,0,1-.22-1V3.07h-.73V2.56l.79-.41L33.53,1h.73v1.2H35.8v.88H34.26V6a.82.82,0,0,0,.2.61A.77.77,0,0,0,35,6.77Z"/><path class="cls-3" d="M37.53.12A.75.75,0,0,1,38,.26a.58.58,0,0,1,.2.49.58.58,0,0,1-.2.49.7.7,0,0,1-.45.15.75.75,0,0,1-.47-.15.6.6,0,0,1-.19-.49.6.6,0,0,1,.19-.49A.82.82,0,0,1,37.53.12Zm.56,2.07V7.6H36.94V2.19Z"/><path class="cls-3" d="M40.89,7.6H39.73V0h1.16Z"/><path class="cls-3" d="M43.68,7.6H42.52V0h1.16Z"/><path class="cls-3" d="M47.43,2.09A2.33,2.33,0,0,1,49,2.54,1.8,1.8,0,0,1,49.51,4V7.6h-.82l-.22-.77h0a2.8,2.8,0,0,1-.48.49,1.55,1.55,0,0,1-.56.28,2.85,2.85,0,0,1-.78.1,2,2,0,0,1-.86-.18,1.28,1.28,0,0,1-.6-.55A1.73,1.73,0,0,1,44.93,6a1.42,1.42,0,0,1,.62-1.25,3.67,3.67,0,0,1,1.88-.46l.94,0V4a1.07,1.07,0,0,0-.26-.8A1,1,0,0,0,47.38,3a2.61,2.61,0,0,0-.79.12,6.61,6.61,0,0,0-.74.28l-.38-.81a4.42,4.42,0,0,1,.91-.34A4.08,4.08,0,0,1,47.43,2.09ZM48.36,5l-.69,0a2.26,2.26,0,0,0-1.21.29.86.86,0,0,0-.34.72.69.69,0,0,0,.24.59,1,1,0,0,0,.63.18,1.43,1.43,0,0,0,1-.34,1.24,1.24,0,0,0,.39-1Z"/><path class="cls-3" d="M55.76,3.13A2.92,2.92,0,0,1,57,3.38a2,2,0,0,1,.82.72,2.25,2.25,0,0,1,.29,1.17,2.52,2.52,0,0,1-.32,1.29,2,2,0,0,1-.93.84,3.4,3.4,0,0,1-1.5.3,5.76,5.76,0,0,1-1.05-.1,2.7,2.7,0,0,1-.83-.29v-1a3.16,3.16,0,0,0,.87.33,3.91,3.91,0,0,0,1,.13,2.44,2.44,0,0,0,.85-.14,1.17,1.17,0,0,0,.55-.45,1.4,1.4,0,0,0,.19-.77,1.19,1.19,0,0,0-.39-1,1.92,1.92,0,0,0-1.23-.33,4.56,4.56,0,0,0-.62,0c-.23,0-.41.07-.55.11L53.61,4l.28-3.5H57.6v1H54.9l-.16,1.78.42-.08A4.73,4.73,0,0,1,55.76,3.13Z"/><path class="cls-2" d="M21.72,65.32V58.89h.74v6.43Z"/><path class="cls-2" d="M26.05,65.4a2.35,2.35,0,0,1-1.15-.26,1.81,1.81,0,0,1-.77-.82,3,3,0,0,1-.28-1.39,3.16,3.16,0,0,1,.29-1.43,1.94,1.94,0,0,1,.81-.82,2.46,2.46,0,0,1,1.17-.27,3.84,3.84,0,0,1,.69.07,2.15,2.15,0,0,1,.56.19l-.22.61a4.42,4.42,0,0,0-.51-.16,2.11,2.11,0,0,0-.54-.07,1.53,1.53,0,0,0-.83.21,1.35,1.35,0,0,0-.5.64,2.82,2.82,0,0,0-.16,1,2.63,2.63,0,0,0,.16,1,1.19,1.19,0,0,0,.48.63,1.32,1.32,0,0,0,.79.22,2.84,2.84,0,0,0,.69-.08,3.33,3.33,0,0,0,.56-.19v.65a2.63,2.63,0,0,1-.54.19A3.58,3.58,0,0,1,26.05,65.4Z"/><path class="cls-2" d="M32.58,62.9A3.48,3.48,0,0,1,32.43,64a2.27,2.27,0,0,1-.45.79,2,2,0,0,1-.7.49,2.45,2.45,0,0,1-.93.16,2.3,2.3,0,0,1-.88-.16,2.16,2.16,0,0,1-.7-.49,2.43,2.43,0,0,1-.45-.79,3.47,3.47,0,0,1-.16-1.06,3.07,3.07,0,0,1,.27-1.35,1.93,1.93,0,0,1,.77-.85,2.33,2.33,0,0,1,1.19-.29,2.19,2.19,0,0,1,1.15.3,2,2,0,0,1,.77.85A3,3,0,0,1,32.58,62.9Zm-3.66,0a3.07,3.07,0,0,0,.15,1,1.28,1.28,0,0,0,.48.65,1.31,1.31,0,0,0,.82.24,1.36,1.36,0,0,0,.83-.24,1.33,1.33,0,0,0,.47-.65,3.06,3.06,0,0,0,.16-1,3,3,0,0,0-.16-1,1.3,1.3,0,0,0-.47-.64,1.36,1.36,0,0,0-.83-.23,1.25,1.25,0,0,0-1.1.49A2.33,2.33,0,0,0,28.92,62.9Z"/><path class="cls-2" d="M36.12,60.41a1.53,1.53,0,0,1,1.74,1.77v3.14h-.72V62.23a1.26,1.26,0,0,0-.28-.9A1.08,1.08,0,0,0,36,61a1.28,1.28,0,0,0-1.12.45,2.2,2.2,0,0,0-.33,1.31v2.53h-.73V60.5h.59l.11.69h0a1.31,1.31,0,0,1,.39-.42,1.77,1.77,0,0,1,.53-.27A2.16,2.16,0,0,1,36.12,60.41Z"/><path class="cls-2" d="M43.52,62.9A3.47,3.47,0,0,1,43.36,64a2.25,2.25,0,0,1-.44.79,2.16,2.16,0,0,1-.7.49,2.52,2.52,0,0,1-.93.16,2.35,2.35,0,0,1-.89-.16,2,2,0,0,1-.69-.49,2.29,2.29,0,0,1-.46-.79,3.47,3.47,0,0,1-.16-1.06,3.07,3.07,0,0,1,.27-1.35,2,2,0,0,1,.77-.85,2.36,2.36,0,0,1,1.19-.29,2.17,2.17,0,0,1,1.15.3,1.93,1.93,0,0,1,.77.85A3,3,0,0,1,43.52,62.9Zm-3.67,0a3.07,3.07,0,0,0,.15,1,1.3,1.3,0,0,0,1.3.89,1.36,1.36,0,0,0,.83-.24,1.41,1.41,0,0,0,.48-.65,3.07,3.07,0,0,0,.15-1,3,3,0,0,0-.15-1,1.38,1.38,0,0,0-.48-.64A1.34,1.34,0,0,0,41.3,61a1.25,1.25,0,0,0-1.1.49A2.41,2.41,0,0,0,39.85,62.9Z"/><path class="cls-2" d="M49.51,65.32h-.72V60.76c0-.17,0-.32,0-.44V60c0-.1,0-.21,0-.31l-.25.24-.29.24-.74.59-.38-.5,1.74-1.34h.61Z"/><path class="cls-2" d="M22.66,75.32,20.84,70.5h.78l1.06,2.91c.07.2.14.42.22.66a5.48,5.48,0,0,1,.16.58h0c0-.14.09-.34.18-.58l.22-.66,1.06-2.91h.78L23.5,75.32Z"/><path class="cls-2" d="M27.74,68.42v.09c-.06.08-.14.19-.24.3s-.21.25-.34.38-.24.25-.37.37a4.07,4.07,0,0,1-.34.3H26v-.1l.31-.4c.11-.16.22-.32.32-.49a3.82,3.82,0,0,0,.27-.45Zm-.91,6.9H26.1V70.5h.73Z"/><path class="cls-2" d="M30.65,70.41a1.53,1.53,0,0,1,1.74,1.77v3.14h-.72V72.23a1.26,1.26,0,0,0-.28-.9,1.08,1.08,0,0,0-.84-.3,1.28,1.28,0,0,0-1.12.45,2.2,2.2,0,0,0-.33,1.31v2.53h-.73V70.5H29l.11.69h0a1.31,1.31,0,0,1,.39-.42A1.77,1.77,0,0,1,30,70.5,2.16,2.16,0,0,1,30.65,70.41Z"/><path class="cls-2" d="M35.82,75.4a2.38,2.38,0,0,1-1.15-.26,1.86,1.86,0,0,1-.77-.82,3.15,3.15,0,0,1-.28-1.39,3,3,0,0,1,.3-1.43,1.87,1.87,0,0,1,.8-.82,2.49,2.49,0,0,1,1.17-.27,4.05,4.05,0,0,1,.7.07,2.07,2.07,0,0,1,.55.19l-.22.61a4.42,4.42,0,0,0-.51-.16,2.11,2.11,0,0,0-.54-.07,1.53,1.53,0,0,0-.83.21,1.27,1.27,0,0,0-.49.64,3.17,3.17,0,0,0,0,2,1.3,1.3,0,0,0,.48.63,1.35,1.35,0,0,0,.8.22,3,3,0,0,0,.69-.08,3.53,3.53,0,0,0,.55-.19v.65a2.76,2.76,0,0,1-.53.19A3.69,3.69,0,0,1,35.82,75.4Z"/><path class="cls-2" d="M42.18,70.5v4.82h-.6l-.1-.68h0a1.31,1.31,0,0,1-.39.42,1.74,1.74,0,0,1-.53.26,2.18,2.18,0,0,1-.63.08,2.25,2.25,0,0,1-1-.18,1.15,1.15,0,0,1-.58-.57,2.21,2.21,0,0,1-.2-1V70.5h.74v3.1a1.31,1.31,0,0,0,.27.9,1.07,1.07,0,0,0,.83.3,1.66,1.66,0,0,0,.86-.2,1.15,1.15,0,0,0,.45-.6,2.69,2.69,0,0,0,.15-1V70.5Z"/><path class="cls-2" d="M44.46,75.32h-.74V68.48h.74Z"/><path class="cls-2" d="M50.15,72.9A3.19,3.19,0,0,1,50,74a2.25,2.25,0,0,1-.44.79,2.06,2.06,0,0,1-.7.49,2.52,2.52,0,0,1-.93.16,2.35,2.35,0,0,1-.89-.16A2,2,0,0,1,45.89,74a3.19,3.19,0,0,1-.16-1.06A3.07,3.07,0,0,1,46,71.55a2,2,0,0,1,.77-.85A2.36,2.36,0,0,1,48,70.41a2.17,2.17,0,0,1,1.15.3,1.93,1.93,0,0,1,.77.85A3,3,0,0,1,50.15,72.9Zm-3.67,0a2.82,2.82,0,0,0,.16,1,1.33,1.33,0,0,0,.47.65,1.54,1.54,0,0,0,1.65,0,1.28,1.28,0,0,0,.48-.65,3.07,3.07,0,0,0,.15-1,3,3,0,0,0-.15-1,1.26,1.26,0,0,0-.48-.64,1.34,1.34,0,0,0-.83-.23,1.25,1.25,0,0,0-1.1.49A2.41,2.41,0,0,0,46.48,72.9Z"/><path class="cls-2" d="M22.4,94.58h-.75V88.81h-2v-.66h4.79v.66h-2Z"/><path class="cls-2" d="M27.13,89.67a1.93,1.93,0,0,1,1.06.28,1.71,1.71,0,0,1,.67.76,2.58,2.58,0,0,1,.23,1.14v.46H25.77a1.92,1.92,0,0,0,.42,1.29,1.51,1.51,0,0,0,1.15.44,4,4,0,0,0,.81-.08,4.86,4.86,0,0,0,.73-.25v.64a3.58,3.58,0,0,1-.72.24,4.16,4.16,0,0,1-.85.08,2.46,2.46,0,0,1-1.21-.29,1.89,1.89,0,0,1-.8-.83A2.88,2.88,0,0,1,25,92.21a3.28,3.28,0,0,1,.26-1.35,2,2,0,0,1,1.86-1.19Zm0,.6a1.21,1.21,0,0,0-.94.38,1.79,1.79,0,0,0-.41,1.07h2.55a2,2,0,0,0-.14-.76,1.1,1.1,0,0,0-.39-.51A1.15,1.15,0,0,0,27.13,90.27Z"/><path class="cls-2" d="M31.48,92.11l-1.67-2.35h.84l1.27,1.86,1.26-1.86H34l-1.66,2.35,1.75,2.47h-.83l-1.35-2-1.36,2h-.82Z"/><path class="cls-2" d="M36.6,94.07,37,94a1.73,1.73,0,0,0,.31-.08v.57a1.79,1.79,0,0,1-.36.1,3.42,3.42,0,0,1-.44,0,1.7,1.7,0,0,1-.69-.14,1,1,0,0,1-.5-.45,1.73,1.73,0,0,1-.19-.89V90.33h-.68V90l.68-.29.3-1h.44v1.11h1.41v.57H35.84v2.84a.93.93,0,0,0,.2.67A.74.74,0,0,0,36.6,94.07Z"/><path class="cls-2" d="M42.4,92.16a3.43,3.43,0,0,1-.15,1.06,2.25,2.25,0,0,1-.44.79,2.16,2.16,0,0,1-.7.49,2.52,2.52,0,0,1-.93.17,2.31,2.31,0,0,1-.89-.17A2,2,0,0,1,38.6,94a2.29,2.29,0,0,1-.46-.79A3.42,3.42,0,0,1,38,92.16a3.07,3.07,0,0,1,.27-1.35A1.91,1.91,0,0,1,39,90a2.26,2.26,0,0,1,1.19-.3,2.17,2.17,0,0,1,1.15.3,2,2,0,0,1,.77.85A3,3,0,0,1,42.4,92.16Zm-3.66,0a3.07,3.07,0,0,0,.15,1,1.42,1.42,0,0,0,.48.66,1.39,1.39,0,0,0,.82.23,1.43,1.43,0,0,0,.83-.23,1.4,1.4,0,0,0,.47-.66,2.82,2.82,0,0,0,.16-1,2.71,2.71,0,0,0-.16-1,1.33,1.33,0,0,0-.47-.65,1.41,1.41,0,0,0-.83-.23,1.25,1.25,0,0,0-1.1.5A2.37,2.37,0,0,0,38.74,92.16Z"/><path class="cls-2" d="M47.72,94.67A1.81,1.81,0,0,1,46.27,94a2.74,2.74,0,0,1-.53-1.85,2.83,2.83,0,0,1,.54-1.88,1.83,1.83,0,0,1,1.45-.64,1.92,1.92,0,0,1,.67.11,1.53,1.53,0,0,1,.49.26,2.13,2.13,0,0,1,.35.39h0c0-.09,0-.22,0-.37a3,3,0,0,1,0-.39V87.74H50v6.84h-.59l-.11-.69h0a1.44,1.44,0,0,1-.35.39,1.57,1.57,0,0,1-.49.28A2,2,0,0,1,47.72,94.67Zm.11-.61a1.29,1.29,0,0,0,1.1-.44,2.24,2.24,0,0,0,.32-1.31v-.13a2.73,2.73,0,0,0-.31-1.41,1.19,1.19,0,0,0-1.11-.49,1.09,1.09,0,0,0-1,.52,2.49,2.49,0,0,0-.34,1.41,2.43,2.43,0,0,0,.33,1.37A1.15,1.15,0,0,0,47.83,94.06Z"/><path class="cls-2" d="M53.36,89.67a1.91,1.91,0,0,1,1.06.28,1.71,1.71,0,0,1,.67.76,2.58,2.58,0,0,1,.24,1.14v.46H52a1.92,1.92,0,0,0,.42,1.29,1.51,1.51,0,0,0,1.15.44,3.83,3.83,0,0,0,.81-.08,4.86,4.86,0,0,0,.73-.25v.64a3.38,3.38,0,0,1-.72.24,4.16,4.16,0,0,1-.85.08,2.46,2.46,0,0,1-1.21-.29,2,2,0,0,1-.8-.83,2.88,2.88,0,0,1-.29-1.34,3.28,3.28,0,0,1,.26-1.35,2,2,0,0,1,1.86-1.19Zm0,.6a1.21,1.21,0,0,0-.93.38A1.8,1.8,0,0,0,52,91.72h2.55a2.2,2.2,0,0,0-.13-.76,1.19,1.19,0,0,0-.4-.51A1.15,1.15,0,0,0,53.36,90.27Z"/><path class="cls-2" d="M31,99.67l.3,0,.28,0-.09.68-.27,0-.27,0a1.35,1.35,0,0,0-1,.45,1.55,1.55,0,0,0-.31.53,2,2,0,0,0-.11.67v2.59h-.73V99.76h.6l.08.89h0a2.18,2.18,0,0,1,.37-.49,1.42,1.42,0,0,1,.49-.35A1.38,1.38,0,0,1,31,99.67Z"/><path class="cls-2" d="M34.34,99.67a1.93,1.93,0,0,1,1.06.28,1.78,1.78,0,0,1,.67.76,2.73,2.73,0,0,1,.23,1.14v.46H33a1.87,1.87,0,0,0,.43,1.29,1.49,1.49,0,0,0,1.15.44,4,4,0,0,0,.81-.08,5.28,5.28,0,0,0,.73-.25v.64a3.66,3.66,0,0,1-.73.24,4.13,4.13,0,0,1-.84.08,2.43,2.43,0,0,1-1.21-.29,1.84,1.84,0,0,1-.8-.83,2.76,2.76,0,0,1-.29-1.34,3.28,3.28,0,0,1,.26-1.35,2,2,0,0,1,.74-.88A2.07,2.07,0,0,1,34.34,99.67Zm0,.6a1.21,1.21,0,0,0-.93.38,1.79,1.79,0,0,0-.41,1.07h2.55a2.19,2.19,0,0,0-.14-.76,1.17,1.17,0,0,0-.39-.51A1.19,1.19,0,0,0,34.33,100.27Z"/><path class="cls-2" d="M39.68,100.33h-1.2v4.25h-.72v-4.25H36.9V100l.86-.24v-.32a2.35,2.35,0,0,1,.17-1,1.2,1.2,0,0,1,.53-.56,1.78,1.78,0,0,1,.83-.18,2.59,2.59,0,0,1,.51,0,3.44,3.44,0,0,1,.41.11l-.19.58a1.53,1.53,0,0,0-.34-.09,1.58,1.58,0,0,0-.38,0,.73.73,0,0,0-.62.27,1.48,1.48,0,0,0-.2.85v.35h1.2Z"/><path class="cls-2" d="M40.46,104.12a.49.49,0,0,1,.51-.57.6.6,0,0,1,.38.13.72.72,0,0,1,0,.88.51.51,0,0,1-.38.14.48.48,0,0,1-.36-.14A.57.57,0,0,1,40.46,104.12Z"/><path class="cls-2" d="M47.66,104.58H47v-5c0-.12,0-.24,0-.34s0-.21,0-.32l-.26.24-.29.24-.73.59-.39-.5,1.74-1.34h.61Z"/><path class="cls-2" d="M75,94.58h-.75V88.81h-2v-.66H77v.66H75Z"/><path class="cls-2" d="M79.71,89.67a1.93,1.93,0,0,1,1.06.28,1.78,1.78,0,0,1,.67.76,2.73,2.73,0,0,1,.23,1.14v.46H78.35a1.82,1.82,0,0,0,.42,1.29,1.49,1.49,0,0,0,1.15.44,4,4,0,0,0,.81-.08,4.86,4.86,0,0,0,.73-.25v.64a3.66,3.66,0,0,1-.73.24,4.13,4.13,0,0,1-.84.08,2.43,2.43,0,0,1-1.21-.29,1.84,1.84,0,0,1-.8-.83,2.76,2.76,0,0,1-.29-1.34,3.28,3.28,0,0,1,.26-1.35,2,2,0,0,1,1.86-1.19Zm0,.6a1.21,1.21,0,0,0-.93.38,1.79,1.79,0,0,0-.41,1.07h2.55a2.19,2.19,0,0,0-.14-.76,1.17,1.17,0,0,0-.39-.51A1.19,1.19,0,0,0,79.7,90.27Z"/><path class="cls-2" d="M84.06,92.11l-1.67-2.35h.84l1.27,1.86,1.26-1.86h.83l-1.67,2.35,1.76,2.47h-.83l-1.35-2-1.36,2h-.83Z"/><path class="cls-2" d="M89.18,94.07l.37,0a1.73,1.73,0,0,0,.31-.08v.57a1.79,1.79,0,0,1-.36.1,3.42,3.42,0,0,1-.44,0,1.67,1.67,0,0,1-.69-.14,1,1,0,0,1-.5-.45,1.73,1.73,0,0,1-.19-.89V90.33H87V90l.69-.29.29-1h.44v1.11h1.41v.57H88.41v2.84a.93.93,0,0,0,.21.67A.74.74,0,0,0,89.18,94.07Z"/><path class="cls-2" d="M95,92.16a3.43,3.43,0,0,1-.15,1.06,2.25,2.25,0,0,1-.44.79,2.1,2.1,0,0,1-.71.49,2.45,2.45,0,0,1-.93.17,2.3,2.3,0,0,1-.88-.17,2,2,0,0,1-.69-.49,2.29,2.29,0,0,1-.46-.79,3.42,3.42,0,0,1-.16-1.06,3.07,3.07,0,0,1,.27-1.35A1.85,1.85,0,0,1,91.6,90a2.26,2.26,0,0,1,1.19-.3,2.19,2.19,0,0,1,1.15.3,2,2,0,0,1,.77.85A3,3,0,0,1,95,92.16Zm-3.66,0a3.07,3.07,0,0,0,.15,1,1.36,1.36,0,0,0,.48.66,1.39,1.39,0,0,0,.82.23,1.43,1.43,0,0,0,.83-.23,1.4,1.4,0,0,0,.47-.66,2.82,2.82,0,0,0,.16-1,2.71,2.71,0,0,0-.16-1,1.33,1.33,0,0,0-.47-.65,1.41,1.41,0,0,0-.83-.23,1.25,1.25,0,0,0-1.1.5A2.3,2.3,0,0,0,91.32,92.16Z"/><path class="cls-2" d="M100.3,94.67A1.79,1.79,0,0,1,98.85,94a2.74,2.74,0,0,1-.54-1.85,2.83,2.83,0,0,1,.55-1.88,1.83,1.83,0,0,1,1.45-.64,2,2,0,0,1,.67.11,1.53,1.53,0,0,1,.49.26,2.13,2.13,0,0,1,.35.39h.05c0-.09,0-.22,0-.37s0-.29,0-.39V87.74h.73v6.84H102l-.11-.69h0a1.63,1.63,0,0,1-.35.39,1.51,1.51,0,0,1-.5.28A1.92,1.92,0,0,1,100.3,94.67Zm.11-.61a1.25,1.25,0,0,0,1.09-.44,2.17,2.17,0,0,0,.32-1.31v-.13a2.74,2.74,0,0,0-.3-1.41,1.19,1.19,0,0,0-1.11-.49,1.12,1.12,0,0,0-1,.52,2.58,2.58,0,0,0-.33,1.41,2.43,2.43,0,0,0,.33,1.37A1.15,1.15,0,0,0,100.41,94.06Z"/><path class="cls-2" d="M105.94,89.67A1.91,1.91,0,0,1,107,90a1.71,1.71,0,0,1,.67.76,2.58,2.58,0,0,1,.23,1.14v.46h-3.32A1.92,1.92,0,0,0,105,93.6a1.49,1.49,0,0,0,1.15.44A3.9,3.9,0,0,0,107,94a4.86,4.86,0,0,0,.73-.25v.64a3.58,3.58,0,0,1-.72.24,4.16,4.16,0,0,1-.85.08,2.46,2.46,0,0,1-1.21-.29,1.89,1.89,0,0,1-.8-.83,2.88,2.88,0,0,1-.29-1.34,3.28,3.28,0,0,1,.26-1.35,2,2,0,0,1,1.86-1.19Zm0,.6a1.23,1.23,0,0,0-.94.38,1.86,1.86,0,0,0-.41,1.07h2.55A2,2,0,0,0,107,91a1.1,1.1,0,0,0-.39-.51A1.15,1.15,0,0,0,105.94,90.27Z"/><path class="cls-2" d="M83.57,99.67l.31,0,.28,0-.09.68-.27,0-.27,0a1.33,1.33,0,0,0-.55.12,1.45,1.45,0,0,0-.45.33,1.53,1.53,0,0,0-.3.53,2,2,0,0,0-.11.67v2.59h-.73V99.76H82l.08.89h0a2.47,2.47,0,0,1,.36-.49,1.52,1.52,0,0,1,.49-.35A1.44,1.44,0,0,1,83.57,99.67Z"/><path class="cls-2" d="M86.92,99.67a1.87,1.87,0,0,1,1,.28,1.73,1.73,0,0,1,.68.76,2.73,2.73,0,0,1,.23,1.14v.46H85.55A1.92,1.92,0,0,0,86,103.6a1.53,1.53,0,0,0,1.16.44,4,4,0,0,0,.81-.08,4.76,4.76,0,0,0,.72-.25v.64a3.38,3.38,0,0,1-.72.24,4.13,4.13,0,0,1-.84.08,2.43,2.43,0,0,1-1.21-.29,1.91,1.91,0,0,1-.81-.83,2.89,2.89,0,0,1-.28-1.34,3.28,3.28,0,0,1,.26-1.35,2,2,0,0,1,.74-.88A2.07,2.07,0,0,1,86.92,99.67Zm0,.6a1.21,1.21,0,0,0-.93.38,1.79,1.79,0,0,0-.41,1.07h2.55A2.19,2.19,0,0,0,88,101a1.25,1.25,0,0,0-.39-.51A1.19,1.19,0,0,0,86.91,100.27Z"/><path class="cls-2" d="M92.26,100.33h-1.2v4.25h-.73v-4.25h-.85V100l.85-.24v-.32a2.34,2.34,0,0,1,.18-1,1.2,1.2,0,0,1,.53-.56,1.76,1.76,0,0,1,.83-.18,2.67,2.67,0,0,1,.51,0,3.44,3.44,0,0,1,.41.11l-.19.58a1.53,1.53,0,0,0-.34-.09,1.58,1.58,0,0,0-.38,0,.73.73,0,0,0-.62.27,1.48,1.48,0,0,0-.2.85v.35h1.2Z"/><path class="cls-2" d="M93,104.12a.49.49,0,0,1,.51-.57.6.6,0,0,1,.38.13.72.72,0,0,1,0,.88.51.51,0,0,1-.38.14.48.48,0,0,1-.36-.14A.57.57,0,0,1,93,104.12Z"/><path class="cls-2" d="M101.73,104.58H97.52V104l1.72-1.75c.32-.32.59-.61.81-.86a3.45,3.45,0,0,0,.5-.74,2,2,0,0,0,.17-.81,1,1,0,0,0-.33-.83,1.21,1.21,0,0,0-.84-.29,1.94,1.94,0,0,0-.82.16,3.08,3.08,0,0,0-.73.45l-.39-.5a3.58,3.58,0,0,1,.55-.38,2.85,2.85,0,0,1,.65-.26,2.5,2.5,0,0,1,.74-.1,2.32,2.32,0,0,1,1,.21,1.46,1.46,0,0,1,.66.59,1.65,1.65,0,0,1,.24.91,2.26,2.26,0,0,1-.2.94,4.32,4.32,0,0,1-.57.87c-.24.28-.53.59-.85.91l-1.4,1.39v0h3.28Z"/><path class="cls-2" d="M130,94.58h-.75V88.81h-2v-.66H132v.66h-2Z"/><path class="cls-2" d="M134.7,89.67a1.87,1.87,0,0,1,1.05.28,1.73,1.73,0,0,1,.68.76,2.73,2.73,0,0,1,.23,1.14v.46h-3.33a1.92,1.92,0,0,0,.42,1.29,1.52,1.52,0,0,0,1.15.44,3.83,3.83,0,0,0,.81-.08,4.51,4.51,0,0,0,.73-.25v.64a3.38,3.38,0,0,1-.72.24,4.16,4.16,0,0,1-.85.08,2.49,2.49,0,0,1-1.21-.29,2,2,0,0,1-.8-.83,2.89,2.89,0,0,1-.28-1.34,3.13,3.13,0,0,1,.26-1.35,2,2,0,0,1,.74-.88A2,2,0,0,1,134.7,89.67Zm0,.6a1.21,1.21,0,0,0-.93.38,1.86,1.86,0,0,0-.42,1.07h2.55a2,2,0,0,0-.13-.76,1.25,1.25,0,0,0-.39-.51A1.21,1.21,0,0,0,134.69,90.27Z"/><path class="cls-2" d="M139,92.11l-1.66-2.35h.83l1.27,1.86,1.27-1.86h.83l-1.67,2.35,1.76,2.47h-.84l-1.35-2-1.35,2h-.83Z"/><path class="cls-2" d="M144.16,94.07a2.31,2.31,0,0,0,.37,0,1.53,1.53,0,0,0,.31-.08v.57a1.51,1.51,0,0,1-.35.1,3.42,3.42,0,0,1-.44,0,1.75,1.75,0,0,1-.7-.14,1.08,1.08,0,0,1-.5-.45,1.85,1.85,0,0,1-.18-.89V90.33H142V90l.69-.29.29-1h.44v1.11h1.41v.57H143.4v2.84a.93.93,0,0,0,.21.67A.72.72,0,0,0,144.16,94.07Z"/><path class="cls-2" d="M150,92.16a3.15,3.15,0,0,1-.16,1.06,2.25,2.25,0,0,1-.44.79,2.06,2.06,0,0,1-.7.49,2.45,2.45,0,0,1-.93.17,2.26,2.26,0,0,1-.88-.17,2.16,2.16,0,0,1-.7-.49,2.43,2.43,0,0,1-.45-.79,3.15,3.15,0,0,1-.16-1.06,3.07,3.07,0,0,1,.27-1.35,1.83,1.83,0,0,1,.76-.84,2.29,2.29,0,0,1,1.19-.3,2.2,2.2,0,0,1,1.16.3,2,2,0,0,1,.76.85A2.91,2.91,0,0,1,150,92.16Zm-3.67,0a2.82,2.82,0,0,0,.16,1,1.4,1.4,0,0,0,.47.66,1.43,1.43,0,0,0,.83.23,1.39,1.39,0,0,0,.82-.23,1.36,1.36,0,0,0,.48-.66,3.07,3.07,0,0,0,.15-1,3,3,0,0,0-.15-1,1.28,1.28,0,0,0-.48-.65,1.41,1.41,0,0,0-.83-.23,1.27,1.27,0,0,0-1.1.5A2.37,2.37,0,0,0,146.3,92.16Z"/><path class="cls-2" d="M155.28,94.67a1.81,1.81,0,0,1-1.45-.63,3.49,3.49,0,0,1,0-3.73,1.82,1.82,0,0,1,1.45-.64,1.9,1.9,0,0,1,.66.11,1.58,1.58,0,0,1,.5.26,2.07,2.07,0,0,1,.34.39h.06a2.78,2.78,0,0,1,0-.37c0-.16,0-.29,0-.39V87.74h.73v6.84h-.59l-.11-.69h0a1.41,1.41,0,0,1-.34.39,1.62,1.62,0,0,1-.5.28A2,2,0,0,1,155.28,94.67Zm.12-.61a1.27,1.27,0,0,0,1.09-.44,2.24,2.24,0,0,0,.32-1.31v-.13a2.74,2.74,0,0,0-.3-1.41,1.21,1.21,0,0,0-1.11-.49,1.11,1.11,0,0,0-1,.52,2.58,2.58,0,0,0-.33,1.41,2.43,2.43,0,0,0,.33,1.37A1.13,1.13,0,0,0,155.4,94.06Z"/><path class="cls-2" d="M160.93,89.67a1.87,1.87,0,0,1,1,.28,1.73,1.73,0,0,1,.68.76,2.73,2.73,0,0,1,.23,1.14v.46h-3.33A1.92,1.92,0,0,0,160,93.6a1.53,1.53,0,0,0,1.16.44,3.8,3.8,0,0,0,.8-.08,4.51,4.51,0,0,0,.73-.25v.64a3.38,3.38,0,0,1-.72.24,4.16,4.16,0,0,1-.85.08,2.49,2.49,0,0,1-1.21-.29,2,2,0,0,1-.8-.83,2.89,2.89,0,0,1-.28-1.34,3.13,3.13,0,0,1,.26-1.35,2,2,0,0,1,.74-.88A2,2,0,0,1,160.93,89.67Zm0,.6a1.21,1.21,0,0,0-.93.38,1.79,1.79,0,0,0-.41,1.07h2.54A2,2,0,0,0,162,91a1.25,1.25,0,0,0-.39-.51A1.19,1.19,0,0,0,160.92,90.27Z"/><path class="cls-2" d="M138.56,99.67l.3,0,.29,0-.1.68-.26,0-.27,0a1.26,1.26,0,0,0-.55.12,1.45,1.45,0,0,0-.45.33,1.53,1.53,0,0,0-.3.53,1.81,1.81,0,0,0-.11.67v2.59h-.74V99.76H137l.08.89h0a2.47,2.47,0,0,1,.36-.49,1.56,1.56,0,0,1,1.11-.49Z"/><path class="cls-2" d="M141.91,99.67A1.87,1.87,0,0,1,143,100a1.71,1.71,0,0,1,.67.76,2.58,2.58,0,0,1,.24,1.14v.46h-3.33a1.92,1.92,0,0,0,.42,1.29,1.51,1.51,0,0,0,1.15.44,3.83,3.83,0,0,0,.81-.08,4.51,4.51,0,0,0,.73-.25v.64a3.38,3.38,0,0,1-.72.24,4.16,4.16,0,0,1-.85.08,2.49,2.49,0,0,1-1.21-.29,2,2,0,0,1-.8-.83,2.88,2.88,0,0,1-.29-1.34,3.13,3.13,0,0,1,.27-1.35,2.05,2.05,0,0,1,.73-.88A2.1,2.1,0,0,1,141.91,99.67Zm0,.6a1.21,1.21,0,0,0-.93.38,1.8,1.8,0,0,0-.42,1.07h2.55A2.2,2.2,0,0,0,143,101a1.19,1.19,0,0,0-.4-.51A1.15,1.15,0,0,0,141.9,100.27Z"/><path class="cls-2" d="M147.25,100.33h-1.2v4.25h-.73v-4.25h-.85V100l.85-.24v-.32a2.34,2.34,0,0,1,.18-1,1.18,1.18,0,0,1,.52-.56,1.8,1.8,0,0,1,.84-.18,2.76,2.76,0,0,1,.51,0,3.26,3.26,0,0,1,.4.11l-.19.58a1.59,1.59,0,0,0-.33-.09,1.65,1.65,0,0,0-.38,0,.72.72,0,0,0-.62.27,1.48,1.48,0,0,0-.2.85v.35h1.2Z"/><path class="cls-2" d="M148,104.12a.54.54,0,0,1,.89-.44.68.68,0,0,1,0,.88.56.56,0,0,1-.74,0A.57.57,0,0,1,148,104.12Z"/><path class="cls-2" d="M156.48,99.65a1.6,1.6,0,0,1-.16.75,1.56,1.56,0,0,1-.47.52,1.9,1.9,0,0,1-.7.27v0a1.89,1.89,0,0,1,1.15.49,1.46,1.46,0,0,1,.38,1,1.92,1.92,0,0,1-.26,1,1.72,1.72,0,0,1-.8.67,3.4,3.4,0,0,1-1.38.25,4.62,4.62,0,0,1-.94-.09,3,3,0,0,1-.83-.27v-.68a4.71,4.71,0,0,0,.87.31,4.18,4.18,0,0,0,.91.11,1.89,1.89,0,0,0,1.27-.35,1.21,1.21,0,0,0,.39-1,1,1,0,0,0-.22-.68,1.24,1.24,0,0,0-.62-.38,3.5,3.5,0,0,0-1-.12h-.64V101h.65a2.13,2.13,0,0,0,.88-.16,1.18,1.18,0,0,0,.56-.43,1.09,1.09,0,0,0,.19-.66.92.92,0,0,0-.32-.75,1.37,1.37,0,0,0-.89-.27,2.4,2.4,0,0,0-.62.07,2.76,2.76,0,0,0-.53.19c-.16.09-.33.18-.49.29l-.37-.5a3.32,3.32,0,0,1,.86-.47,3.13,3.13,0,0,1,1.14-.2,2.13,2.13,0,0,1,1.48.45A1.47,1.47,0,0,1,156.48,99.65Z"/><path class="cls-2" d="M41.35,55.25l-3.8-2a1.71,1.71,0,0,0-1.6,0l-3.84,2a1.71,1.71,0,0,1-2.47-1.83l.76-4.25a1.72,1.72,0,0,0-.48-1.52l-3.06-3a1.71,1.71,0,0,1,1-2.92L32.11,41a1.72,1.72,0,0,0,1.3-.93l1.94-3.85a1.71,1.71,0,0,1,3.07,0l1.88,3.89a1.74,1.74,0,0,0,1.29.95l4.26.65a1.72,1.72,0,0,1,.93,2.94l-3.12,3a1.74,1.74,0,0,0-.5,1.52l.69,4.25A1.71,1.71,0,0,1,41.35,55.25Z"/><path class="cls-2" d="M77,65.32V58.89h.75v6.43Z"/><path class="cls-2" d="M81.33,65.4a2.34,2.34,0,0,1-1.14-.26,1.83,1.83,0,0,1-.78-.82,3.16,3.16,0,0,1-.27-1.39,3,3,0,0,1,.29-1.43,1.87,1.87,0,0,1,.8-.82,2.52,2.52,0,0,1,1.17-.27,4,4,0,0,1,.7.07,2.07,2.07,0,0,1,.55.19l-.22.61a3.45,3.45,0,0,0-.51-.16,2.09,2.09,0,0,0-.53-.07,1.54,1.54,0,0,0-.84.21,1.33,1.33,0,0,0-.49.64,2.81,2.81,0,0,0-.17,1,2.85,2.85,0,0,0,.16,1,1.3,1.3,0,0,0,.48.63,1.35,1.35,0,0,0,.8.22,3,3,0,0,0,.69-.08,4.08,4.08,0,0,0,.56-.19v.65a2.63,2.63,0,0,1-.54.19A3.62,3.62,0,0,1,81.33,65.4Z"/><path class="cls-2" d="M87.87,62.9A3.19,3.19,0,0,1,87.71,64a2.25,2.25,0,0,1-.44.79,2.06,2.06,0,0,1-.7.49,2.49,2.49,0,0,1-.93.16,2.35,2.35,0,0,1-.89-.16A2,2,0,0,1,83.61,64a3.19,3.19,0,0,1-.16-1.06,3.07,3.07,0,0,1,.27-1.35,1.91,1.91,0,0,1,.76-.85,2.36,2.36,0,0,1,1.19-.29,2.17,2.17,0,0,1,1.15.3,1.93,1.93,0,0,1,.77.85A2.91,2.91,0,0,1,87.87,62.9Zm-3.67,0a2.82,2.82,0,0,0,.16,1,1.33,1.33,0,0,0,.47.65A1.38,1.38,0,0,0,87,63.91a3.07,3.07,0,0,0,.15-1,3,3,0,0,0-.15-1,1.31,1.31,0,0,0-.48-.64,1.34,1.34,0,0,0-.83-.23,1.25,1.25,0,0,0-1.1.49A2.41,2.41,0,0,0,84.2,62.9Z"/><path class="cls-2" d="M91.41,60.41a1.83,1.83,0,0,1,1.3.42,1.81,1.81,0,0,1,.43,1.35v3.14h-.72V62.23a1.31,1.31,0,0,0-.27-.9,1.08,1.08,0,0,0-.84-.3,1.3,1.3,0,0,0-1.13.45,2.28,2.28,0,0,0-.32,1.31v2.53h-.73V60.5h.59l.11.69h0a1.31,1.31,0,0,1,.39-.42,1.66,1.66,0,0,1,.53-.27A2.11,2.11,0,0,1,91.41,60.41Z"/><path class="cls-2" d="M98.8,62.9A3.48,3.48,0,0,1,98.65,64a2.27,2.27,0,0,1-.45.79,2,2,0,0,1-.7.49,2.45,2.45,0,0,1-.93.16,2.3,2.3,0,0,1-.88-.16,2.16,2.16,0,0,1-.7-.49,2.43,2.43,0,0,1-.45-.79,3.19,3.19,0,0,1-.16-1.06,3.07,3.07,0,0,1,.27-1.35,1.93,1.93,0,0,1,.77-.85,2.32,2.32,0,0,1,1.18-.29,2.2,2.2,0,0,1,1.16.3,2,2,0,0,1,.77.85A3,3,0,0,1,98.8,62.9Zm-3.66,0a3.07,3.07,0,0,0,.15,1,1.33,1.33,0,0,0,.47.65,1.36,1.36,0,0,0,.83.24,1.33,1.33,0,0,0,.82-.24,1.28,1.28,0,0,0,.48-.65,3.06,3.06,0,0,0,.16-1,3,3,0,0,0-.16-1,1.3,1.3,0,0,0-.47-.64,1.36,1.36,0,0,0-.83-.23,1.25,1.25,0,0,0-1.1.49A2.33,2.33,0,0,0,95.14,62.9Z"/><path class="cls-2" d="M106.29,65.32h-4.22v-.61L103.79,63c.32-.32.59-.61.81-.86a3.26,3.26,0,0,0,.5-.75,1.91,1.91,0,0,0,.17-.8,1.07,1.07,0,0,0-.32-.83,1.2,1.2,0,0,0-.85-.29,1.94,1.94,0,0,0-.82.16,3.37,3.37,0,0,0-.73.44l-.39-.49a3.58,3.58,0,0,1,.55-.38,3,3,0,0,1,.65-.26,2.55,2.55,0,0,1,.74-.1,2.32,2.32,0,0,1,1,.21,1.52,1.52,0,0,1,.67.58,1.78,1.78,0,0,1,.23.91,2.31,2.31,0,0,1-.2,1,3.93,3.93,0,0,1-.57.87c-.24.28-.53.59-.85.9l-1.4,1.4v0h3.29Z"/><path class="cls-2" d="M78,75.32,76.12,70.5h.78L78,73.41c.08.2.15.42.23.66s.13.44.16.58h0a6,6,0,0,1,.17-.58c.08-.24.16-.46.23-.66l1-2.91h.79l-1.84,4.82Z"/><path class="cls-2" d="M83,68.42v.09c-.06.08-.14.19-.24.3l-.34.38-.37.37a4.07,4.07,0,0,1-.35.3h-.48v-.1c.09-.11.19-.25.3-.4l.33-.49c.1-.16.19-.31.26-.45Zm-.91,6.9h-.73V70.5h.73Z"/><path class="cls-2" d="M85.94,70.41a1.79,1.79,0,0,1,1.29.42,1.77,1.77,0,0,1,.44,1.35v3.14H87V72.23a1.31,1.31,0,0,0-.27-.9,1.08,1.08,0,0,0-.84-.3,1.3,1.3,0,0,0-1.13.45,2.28,2.28,0,0,0-.32,1.31v2.53h-.73V70.5h.59l.11.69h0a1.31,1.31,0,0,1,.39-.42,1.66,1.66,0,0,1,.53-.27A2.06,2.06,0,0,1,85.94,70.41Z"/><path class="cls-2" d="M91.11,75.4A2.35,2.35,0,0,1,90,75.14a1.81,1.81,0,0,1-.77-.82,3,3,0,0,1-.28-1.39,3.16,3.16,0,0,1,.29-1.43,1.94,1.94,0,0,1,.81-.82,2.46,2.46,0,0,1,1.17-.27,3.84,3.84,0,0,1,.69.07,2.15,2.15,0,0,1,.56.19l-.22.61a4.42,4.42,0,0,0-.51-.16,2.11,2.11,0,0,0-.54-.07,1.53,1.53,0,0,0-.83.21,1.35,1.35,0,0,0-.5.64,2.82,2.82,0,0,0-.16,1,2.63,2.63,0,0,0,.16,1,1.23,1.23,0,0,0,.47.63,1.37,1.37,0,0,0,.8.22,2.84,2.84,0,0,0,.69-.08,3.67,3.67,0,0,0,.56-.19v.65a2.63,2.63,0,0,1-.54.19A3.58,3.58,0,0,1,91.11,75.4Z"/><path class="cls-2" d="M97.47,70.5v4.82h-.6l-.11-.68h0a1.4,1.4,0,0,1-.38.42,1.69,1.69,0,0,1-.54.26,2.18,2.18,0,0,1-.63.08,2.28,2.28,0,0,1-1-.18,1.23,1.23,0,0,1-.58-.57,2.21,2.21,0,0,1-.19-1V70.5h.73v3.1a1.26,1.26,0,0,0,.28.9,1.05,1.05,0,0,0,.83.3,1.62,1.62,0,0,0,.85-.2,1.16,1.16,0,0,0,.46-.6,3,3,0,0,0,.14-1V70.5Z"/><path class="cls-2" d="M99.74,75.32H99V68.48h.73Z"/><path class="cls-2" d="M105.43,72.9a3.48,3.48,0,0,1-.15,1.06,2.25,2.25,0,0,1-.44.79,2.1,2.1,0,0,1-.71.49,2.45,2.45,0,0,1-.93.16,2.3,2.3,0,0,1-.88-.16,2,2,0,0,1-.69-.49,2.29,2.29,0,0,1-.46-.79A3.47,3.47,0,0,1,101,72.9a3.07,3.07,0,0,1,.27-1.35,1.93,1.93,0,0,1,.77-.85,2.36,2.36,0,0,1,1.19-.29,2.17,2.17,0,0,1,1.15.3,2,2,0,0,1,.77.85A3,3,0,0,1,105.43,72.9Zm-3.66,0a3.07,3.07,0,0,0,.15,1,1.28,1.28,0,0,0,.48.65,1.33,1.33,0,0,0,.82.24,1.36,1.36,0,0,0,.83-.24,1.33,1.33,0,0,0,.47-.65,2.82,2.82,0,0,0,.16-1,2.76,2.76,0,0,0-.16-1,1.3,1.3,0,0,0-.47-.64,1.36,1.36,0,0,0-.83-.23,1.25,1.25,0,0,0-1.1.49A2.33,2.33,0,0,0,101.77,72.9Z"/><path class="cls-2" d="M96.63,55.25l-3.8-2a1.71,1.71,0,0,0-1.6,0l-3.83,2a1.72,1.72,0,0,1-2.48-1.83l.77-4.25a1.72,1.72,0,0,0-.48-1.52l-3.07-3a1.72,1.72,0,0,1,1-2.92L87.39,41a1.71,1.71,0,0,0,1.3-.93l1.94-3.85a1.72,1.72,0,0,1,3.08,0l1.88,3.89a1.7,1.7,0,0,0,1.28.95l4.26.65a1.72,1.72,0,0,1,.93,2.94l-3.11,3a1.72,1.72,0,0,0-.51,1.52l.7,4.25A1.72,1.72,0,0,1,96.63,55.25Z"/><path class="cls-2" d="M133.08,65.32V58.89h.75v6.43Z"/><path class="cls-2" d="M137.42,65.4a2.35,2.35,0,0,1-1.15-.26,1.88,1.88,0,0,1-.78-.82,3.69,3.69,0,0,1,0-2.82,1.89,1.89,0,0,1,.81-.82,2.46,2.46,0,0,1,1.17-.27,3.84,3.84,0,0,1,.69.07,2,2,0,0,1,.55.19l-.22.61a3.7,3.7,0,0,0-.5-.16,2.16,2.16,0,0,0-.54-.07,1.53,1.53,0,0,0-.83.21,1.29,1.29,0,0,0-.5.64,2.81,2.81,0,0,0-.17,1,2.62,2.62,0,0,0,.17,1,1.23,1.23,0,0,0,.47.63,1.37,1.37,0,0,0,.8.22,2.84,2.84,0,0,0,.69-.08,3.67,3.67,0,0,0,.56-.19v.65a2.63,2.63,0,0,1-.54.19A3.58,3.58,0,0,1,137.42,65.4Z"/><path class="cls-2" d="M144,62.9A3.48,3.48,0,0,1,143.8,64a2.27,2.27,0,0,1-.45.79,2,2,0,0,1-.7.49,2.45,2.45,0,0,1-.93.16,2.26,2.26,0,0,1-.88-.16,2.16,2.16,0,0,1-.7-.49,2.43,2.43,0,0,1-.45-.79,3.19,3.19,0,0,1-.16-1.06,3.07,3.07,0,0,1,.27-1.35,1.91,1.91,0,0,1,.76-.85,2.38,2.38,0,0,1,1.19-.29,2.2,2.2,0,0,1,1.16.3,2,2,0,0,1,.77.85A3,3,0,0,1,144,62.9Zm-3.66,0a3.07,3.07,0,0,0,.15,1,1.33,1.33,0,0,0,.47.65,1.36,1.36,0,0,0,.83.24,1.33,1.33,0,0,0,.82-.24,1.28,1.28,0,0,0,.48-.65,3.07,3.07,0,0,0,.15-1,3,3,0,0,0-.15-1,1.26,1.26,0,0,0-.48-.64,1.34,1.34,0,0,0-.83-.23,1.23,1.23,0,0,0-1.09.49A2.33,2.33,0,0,0,140.29,62.9Z"/><path class="cls-2" d="M147.49,60.41a1.83,1.83,0,0,1,1.3.42,1.81,1.81,0,0,1,.44,1.35v3.14h-.72V62.23a1.26,1.26,0,0,0-.28-.9,1.08,1.08,0,0,0-.84-.3,1.28,1.28,0,0,0-1.12.45,2.2,2.2,0,0,0-.33,1.31v2.53h-.73V60.5h.59l.11.69h0a1.31,1.31,0,0,1,.39-.42,1.77,1.77,0,0,1,.53-.27A2.16,2.16,0,0,1,147.49,60.41Z"/><path class="cls-2" d="M154.88,62.9a3.48,3.48,0,0,1-.15,1.06,2.25,2.25,0,0,1-.44.79,2.1,2.1,0,0,1-.71.49,2.45,2.45,0,0,1-.93.16,2.3,2.3,0,0,1-.88-.16,2,2,0,0,1-.69-.49,2.29,2.29,0,0,1-.46-.79,3.47,3.47,0,0,1-.16-1.06,3.07,3.07,0,0,1,.27-1.35,1.93,1.93,0,0,1,.77-.85,2.36,2.36,0,0,1,1.19-.29,2.17,2.17,0,0,1,1.15.3,1.93,1.93,0,0,1,.77.85A3,3,0,0,1,154.88,62.9Zm-3.66,0a3.07,3.07,0,0,0,.15,1,1.28,1.28,0,0,0,.48.65,1.33,1.33,0,0,0,.82.24,1.36,1.36,0,0,0,.83-.24,1.33,1.33,0,0,0,.47-.65,2.82,2.82,0,0,0,.16-1,2.76,2.76,0,0,0-.16-1,1.3,1.3,0,0,0-.47-.64,1.34,1.34,0,0,0-.83-.23,1.25,1.25,0,0,0-1.1.49A2.33,2.33,0,0,0,151.22,62.9Z"/><path class="cls-2" d="M162.13,60.39a1.6,1.6,0,0,1-.17.75,1.33,1.33,0,0,1-.46.51,1.79,1.79,0,0,1-.71.28v0a1.86,1.86,0,0,1,1.15.49,1.41,1.41,0,0,1,.39,1,1.92,1.92,0,0,1-.26,1,1.78,1.78,0,0,1-.8.67,3.42,3.42,0,0,1-1.38.24,4.58,4.58,0,0,1-.94-.08,3,3,0,0,1-.83-.27v-.68a4.46,4.46,0,0,0,.87.31,4.11,4.11,0,0,0,.91.11,1.91,1.91,0,0,0,1.27-.35,1.21,1.21,0,0,0,.39-1,1,1,0,0,0-.22-.67,1.24,1.24,0,0,0-.62-.38,3.5,3.5,0,0,0-1-.12h-.64v-.62h.64a2.15,2.15,0,0,0,.89-.16,1.18,1.18,0,0,0,.56-.43,1.22,1.22,0,0,0,.19-.66.92.92,0,0,0-.33-.76,1.38,1.38,0,0,0-.88-.26,2.35,2.35,0,0,0-.62.07,2.76,2.76,0,0,0-.53.19,3.5,3.5,0,0,0-.49.29l-.37-.5A3.42,3.42,0,0,1,159,59a3.19,3.19,0,0,1,1.15-.2,2.13,2.13,0,0,1,1.48.45A1.47,1.47,0,0,1,162.13,60.39Z"/><path class="cls-2" d="M134,75.32,132.2,70.5H133l1.06,2.91.22.66a5.48,5.48,0,0,1,.16.58h0a6,6,0,0,1,.17-.58c.09-.24.16-.46.23-.66l1.06-2.91h.78l-1.83,4.82Z"/><path class="cls-2" d="M139.11,68.42v.09c-.06.08-.14.19-.24.3l-.34.38-.37.37a4.07,4.07,0,0,1-.34.3h-.49v-.1l.31-.4c.11-.16.22-.32.32-.49a3.65,3.65,0,0,0,.26-.45Zm-.91,6.9h-.73V70.5h.73Z"/><path class="cls-2" d="M142,70.41a1.83,1.83,0,0,1,1.3.42,1.81,1.81,0,0,1,.44,1.35v3.14H143V72.23a1.26,1.26,0,0,0-.28-.9,1.08,1.08,0,0,0-.84-.3,1.28,1.28,0,0,0-1.12.45,2.2,2.2,0,0,0-.33,1.31v2.53h-.73V70.5h.59l.11.69h0a1.31,1.31,0,0,1,.39-.42,1.77,1.77,0,0,1,.53-.27A2.11,2.11,0,0,1,142,70.41Z"/><path class="cls-2" d="M147.19,75.4a2.38,2.38,0,0,1-1.15-.26,1.81,1.81,0,0,1-.77-.82,3,3,0,0,1-.28-1.39,3.16,3.16,0,0,1,.29-1.43,1.94,1.94,0,0,1,.81-.82,2.46,2.46,0,0,1,1.17-.27,4.05,4.05,0,0,1,.7.07,2.2,2.2,0,0,1,.55.19l-.22.61a4.42,4.42,0,0,0-.51-.16,2.11,2.11,0,0,0-.54-.07,1.53,1.53,0,0,0-.83.21,1.35,1.35,0,0,0-.5.64,2.82,2.82,0,0,0-.16,1,2.63,2.63,0,0,0,.16,1,1.24,1.24,0,0,0,.48.63,1.34,1.34,0,0,0,.79.22,3,3,0,0,0,.7-.08,3.53,3.53,0,0,0,.55-.19v.65a2.63,2.63,0,0,1-.54.19A3.51,3.51,0,0,1,147.19,75.4Z"/><path class="cls-2" d="M153.55,70.5v4.82H153l-.11-.68h0a1.18,1.18,0,0,1-.38.42,1.74,1.74,0,0,1-.53.26,2.6,2.6,0,0,1-1.59-.1,1.21,1.21,0,0,1-.59-.57,2.21,2.21,0,0,1-.19-1V70.5h.74v3.1a1.31,1.31,0,0,0,.27.9,1.07,1.07,0,0,0,.83.3,1.59,1.59,0,0,0,.85-.2,1.11,1.11,0,0,0,.46-.6,2.7,2.7,0,0,0,.14-1V70.5Z"/><path class="cls-2" d="M155.82,75.32h-.73V68.48h.73Z"/><path class="cls-2" d="M161.52,72.9a3.47,3.47,0,0,1-.16,1.06,2.25,2.25,0,0,1-.44.79,2.16,2.16,0,0,1-.7.49,2.52,2.52,0,0,1-.93.16,2.35,2.35,0,0,1-.89-.16,2,2,0,0,1-.69-.49,2.29,2.29,0,0,1-.46-.79,3.47,3.47,0,0,1-.16-1.06,3.07,3.07,0,0,1,.27-1.35,2,2,0,0,1,.77-.85,2.36,2.36,0,0,1,1.19-.29,2.17,2.17,0,0,1,1.15.3,1.93,1.93,0,0,1,.77.85A3,3,0,0,1,161.52,72.9Zm-3.67,0a3.07,3.07,0,0,0,.15,1,1.3,1.3,0,0,0,1.3.89,1.36,1.36,0,0,0,.83-.24,1.41,1.41,0,0,0,.48-.65,3.07,3.07,0,0,0,.15-1,3,3,0,0,0-.15-1,1.38,1.38,0,0,0-.48-.64,1.34,1.34,0,0,0-.83-.23,1.25,1.25,0,0,0-1.1.49A2.41,2.41,0,0,0,157.85,72.9Z"/><path class="cls-2" d="M152.72,55.25l-3.81-2a1.69,1.69,0,0,0-1.59,0l-3.84,2A1.71,1.71,0,0,1,141,53.35l.76-4.25a1.72,1.72,0,0,0-.48-1.52l-3.07-3a1.72,1.72,0,0,1,1-2.92l4.27-.59a1.71,1.71,0,0,0,1.3-.93l1.94-3.85a1.72,1.72,0,0,1,3.08,0l1.88,3.89a1.72,1.72,0,0,0,1.28.95l4.27.65a1.72,1.72,0,0,1,.92,2.94l-3.11,3a1.69,1.69,0,0,0-.5,1.52l.69,4.25A1.71,1.71,0,0,1,152.72,55.25Z"/></g></g></svg>