<svg xmlns="http://www.w3.org/2000/svg" viewBox="0 0 175.31 111.26"><defs><style>.cls-1{fill:#ebebeb;}.cls-2{fill:#a8a9aa;}.cls-3{fill:#386bfb;}.cls-4{fill:#d8d8d8;}</style></defs><g id="Capa_2" data-name="Capa 2"><g id="Capa_1-2" data-name="Capa 1"><rect class="cls-1" y="12.8" width="175.31" height="98.46"/><path class="cls-2" d="M72,34.92h-.75V29.16h-2V28.5H74v.66H72Z"/><path class="cls-2" d="M76.51,28v.08a3.83,3.83,0,0,1-.24.31c-.1.12-.22.24-.34.37s-.25.26-.37.37a4.6,4.6,0,0,1-.35.31h-.48v-.11c.09-.11.19-.24.3-.4s.22-.32.33-.48.19-.32.26-.45Zm-.91,6.89h-.73V30.1h.73Z"/><path class="cls-2" d="M78.69,34.41a2.31,2.31,0,0,0,.37,0l.31-.07v.56A1.51,1.51,0,0,1,79,35a2.25,2.25,0,0,1-.44,0,1.94,1.94,0,0,1-.7-.13,1.11,1.11,0,0,1-.5-.46,1.82,1.82,0,0,1-.18-.89V30.68h-.69v-.36L77.2,30l.29-1h.44V30.1h1.41v.58H77.93v2.83a1,1,0,0,0,.21.68A.71.71,0,0,0,78.69,34.41Z"/><path class="cls-2" d="M84.33,30.1v4.82h-.6l-.11-.68h0a1.57,1.57,0,0,1-.38.43,1.67,1.67,0,0,1-.54.25A2.18,2.18,0,0,1,82,35a2.13,2.13,0,0,1-1-.19,1.23,1.23,0,0,1-.58-.57,2.18,2.18,0,0,1-.19-1V30.1H81v3.11a1.26,1.26,0,0,0,.28.9,1.09,1.09,0,0,0,.83.29,1.62,1.62,0,0,0,.85-.2,1.09,1.09,0,0,0,.46-.6,3,3,0,0,0,.14-1V30.1Z"/><path class="cls-2" d="M86.6,34.92h-.73V28.08h.73Z"/><path class="cls-2" d="M92.29,32.5a3.43,3.43,0,0,1-.15,1.06,2,2,0,0,1-.45.79,1.85,1.85,0,0,1-.7.49,2.45,2.45,0,0,1-.93.17,2.3,2.3,0,0,1-.88-.17,2,2,0,0,1-.7-.49,2.33,2.33,0,0,1-.45-.79,3.15,3.15,0,0,1-.16-1.06,3,3,0,0,1,.27-1.34,1.88,1.88,0,0,1,.77-.85A2.22,2.22,0,0,1,90.09,30a2.29,2.29,0,0,1,1.16.29,2.05,2.05,0,0,1,.77.85A3,3,0,0,1,92.29,32.5Zm-3.66,0a3,3,0,0,0,.15,1,1.4,1.4,0,0,0,.47.66,1.61,1.61,0,0,0,1.66,0,1.4,1.4,0,0,0,.47-.66,3,3,0,0,0,.16-1,2.93,2.93,0,0,0-.16-1,1.33,1.33,0,0,0-.47-.65,1.43,1.43,0,0,0-.83-.23,1.25,1.25,0,0,0-1.1.5A2.3,2.3,0,0,0,88.63,32.5Z"/><path class="cls-2" d="M103.49,37.36l-.85-2.79H98.37l-.85,2.79H94.85L99,25.6h3l4.14,11.76Zm-1.44-4.87-.85-2.72c0-.18-.12-.42-.21-.7l-.27-.88c-.09-.29-.16-.55-.21-.77-.05.22-.13.49-.22.81s-.18.63-.27.92-.14.5-.18.62L99,32.49Z"/><path class="cls-3" d="M14.44.46a3,3,0,0,1,2,.57,2,2,0,0,1,.63,1.59,2.83,2.83,0,0,1-.14.87,2,2,0,0,1-.47.74,2.18,2.18,0,0,1-.87.51,3.82,3.82,0,0,1-1.31.19h-.76V7.6H12.36V.46Zm-.08,1h-.82V4h.64a3.11,3.11,0,0,0,.93-.13,1.11,1.11,0,0,0,.58-.42,1.2,1.2,0,0,0,.2-.74,1.11,1.11,0,0,0-.37-.92A1.83,1.83,0,0,0,14.36,1.44Z"/><path class="cls-3" d="M19.55,7.6H18.39V0h1.16Z"/><path class="cls-3" d="M23.3,2.09a2.31,2.31,0,0,1,1.55.45A1.8,1.8,0,0,1,25.38,4V7.6h-.82l-.22-.77h0a2.8,2.8,0,0,1-.48.49,1.55,1.55,0,0,1-.56.28,2.82,2.82,0,0,1-.77.1,2,2,0,0,1-.87-.18A1.28,1.28,0,0,1,21,7,1.73,1.73,0,0,1,20.8,6a1.42,1.42,0,0,1,.62-1.25,3.69,3.69,0,0,1,1.89-.46l.93,0V4a1.07,1.07,0,0,0-.26-.8A1,1,0,0,0,23.25,3a2.66,2.66,0,0,0-.79.12,6.61,6.61,0,0,0-.74.28l-.38-.81a4.42,4.42,0,0,1,.91-.34A4.08,4.08,0,0,1,23.3,2.09ZM24.23,5l-.69,0a2.22,2.22,0,0,0-1.2.29.85.85,0,0,0-.35.72.69.69,0,0,0,.24.59,1,1,0,0,0,.63.18,1.43,1.43,0,0,0,1-.34,1.24,1.24,0,0,0,.39-1Z"/><path class="cls-3" d="M29.8,2.09a2,2,0,0,1,1.42.47,2,2,0,0,1,.51,1.51V7.6H30.59V4.29a1.46,1.46,0,0,0-.26-.94,1,1,0,0,0-.8-.32,1.16,1.16,0,0,0-1.09.49,2.53,2.53,0,0,0-.31,1.39V7.6H27V2.19h.9l.16.73h.06a1.61,1.61,0,0,1,.44-.46,2,2,0,0,1,.58-.28A2.59,2.59,0,0,1,29.8,2.09Z"/><path class="cls-3" d="M35.35,6.77a3.13,3.13,0,0,0,.44,0,3.33,3.33,0,0,0,.4-.1V7.5a2.71,2.71,0,0,1-.49.14,3.21,3.21,0,0,1-.63.06,2.19,2.19,0,0,1-.83-.16A1.23,1.23,0,0,1,33.66,7a2.15,2.15,0,0,1-.21-1V3.07h-.74V2.56l.79-.41L33.88,1h.72v1.2h1.55v.88H34.6V6a.82.82,0,0,0,.21.61A.73.73,0,0,0,35.35,6.77Z"/><path class="cls-3" d="M37.87.12a.78.78,0,0,1,.46.14.57.57,0,0,1,.19.49.57.57,0,0,1-.19.49.78.78,0,0,1-.92,0,.57.57,0,0,1-.19-.49.57.57,0,0,1,.19-.49A.78.78,0,0,1,37.87.12Zm.57,2.07V7.6H37.29V2.19Z"/><path class="cls-3" d="M41.23,7.6H40.07V0h1.16Z"/><path class="cls-3" d="M44,7.6H42.86V0H44Z"/><path class="cls-3" d="M47.77,2.09a2.36,2.36,0,0,1,1.56.45A1.83,1.83,0,0,1,49.85,4V7.6H49l-.22-.77h0a2.76,2.76,0,0,1-.47.49,1.64,1.64,0,0,1-.56.28,3,3,0,0,1-.78.1,2,2,0,0,1-.87-.18,1.38,1.38,0,0,1-.6-.55A1.83,1.83,0,0,1,45.27,6a1.41,1.41,0,0,1,.63-1.25,3.62,3.62,0,0,1,1.88-.46l.93,0V4a1,1,0,0,0-.26-.8A1,1,0,0,0,47.72,3a2.66,2.66,0,0,0-.79.12,6.61,6.61,0,0,0-.74.28l-.37-.81a4.32,4.32,0,0,1,.9-.34A4.08,4.08,0,0,1,47.77,2.09ZM48.71,5,48,5a2.22,2.22,0,0,0-1.2.29.87.87,0,0,0-.35.72.69.69,0,0,0,.24.59,1,1,0,0,0,.63.18,1.44,1.44,0,0,0,1-.34,1.24,1.24,0,0,0,.39-1Z"/><path class="cls-3" d="M58.78,6h-1V7.6H56.68V6H53.42V5.16L56.69.44h1.12V5.08h1Zm-2.1-1V2.86c0-.15,0-.29,0-.44s0-.27,0-.38,0-.22,0-.3h0c-.06.13-.13.27-.2.4a3.68,3.68,0,0,1-.24.39L54.49,5.08Z"/><path class="cls-2" d="M44.39,69.29V49.1a1.55,1.55,0,0,0,.07-.23,3.49,3.49,0,0,1,3.37-2.59c6.33,0,12.66,0,19,0a3.35,3.35,0,0,1,3.36,3.36V68.73a3.31,3.31,0,0,1-1,2.42,3.65,3.65,0,0,1-1.78.93H47.19a5.19,5.19,0,0,1-1.08-.4A3.55,3.55,0,0,1,44.39,69.29Zm24-9.22c.06,0,0-.12,0-.18,0-3.37,0-6.74,0-10.12a1.64,1.64,0,0,0-1.73-1.72H47.88a1.76,1.76,0,0,0-.93.23,1.71,1.71,0,0,0-.82,1.59v9.77c0,.09,0,.18,0,.28l.23-.17,6.36-5a2,2,0,0,1,3,.22c1.65,1.76,3.29,3.51,4.93,5.28.15.16.23.15.38,0,.72-.79,1.45-1.56,2.18-2.33a1.94,1.94,0,0,1,2.94,0c.66.67,1.32,1.34,2,2C68.22,60,68.27,60.05,68.38,60.07Z"/><path class="cls-2" d="M59.09,54.09a1.74,1.74,0,1,1,1.75,1.73A1.75,1.75,0,0,1,59.09,54.09Z"/><path class="cls-2" d="M8.75,61.81V55.39h.74v6.42Z"/><path class="cls-2" d="M16.38,56.91a1.63,1.63,0,0,1,1.2.41,1.87,1.87,0,0,1,.4,1.34v3.15h-.72V58.69a1.32,1.32,0,0,0-.25-.88,1,1,0,0,0-.75-.29,1.21,1.21,0,0,0-1,.41,1.9,1.9,0,0,0-.32,1.19v2.69h-.72V58.69a1.54,1.54,0,0,0-.12-.65.79.79,0,0,0-.33-.39,1.08,1.08,0,0,0-.56-.13,1.35,1.35,0,0,0-.77.2,1.14,1.14,0,0,0-.42.59,2.91,2.91,0,0,0-.13.95v2.55h-.73V57h.59l.11.69h0a1.44,1.44,0,0,1,.86-.69,2.14,2.14,0,0,1,.58-.08,2,2,0,0,1,.92.2,1.27,1.27,0,0,1,.54.62h0a1.44,1.44,0,0,1,.65-.62A2,2,0,0,1,16.38,56.91Z"/><path class="cls-2" d="M21.28,56.92a1.8,1.8,0,0,1,1.28.38A1.62,1.62,0,0,1,23,58.54v3.27h-.53l-.14-.71h0a2.52,2.52,0,0,1-.42.44,1.38,1.38,0,0,1-.51.27,2.33,2.33,0,0,1-.7.09,1.78,1.78,0,0,1-.78-.16,1.16,1.16,0,0,1-.54-.46,1.47,1.47,0,0,1-.19-.79,1.27,1.27,0,0,1,.57-1.11A3.26,3.26,0,0,1,21.44,59l.83,0v-.29a1.17,1.17,0,0,0-.27-.88,1.09,1.09,0,0,0-.75-.25,2.48,2.48,0,0,0-.73.11c-.22.08-.44.16-.65.26l-.22-.55A4.35,4.35,0,0,1,20.4,57,3.6,3.6,0,0,1,21.28,56.92Zm1,2.52-.73,0a2.46,2.46,0,0,0-1.27.29.85.85,0,0,0-.37.74.72.72,0,0,0,.25.61,1,1,0,0,0,.66.2A1.52,1.52,0,0,0,21.85,61a1.35,1.35,0,0,0,.41-1.07Z"/><path class="cls-2" d="M25.83,64a2.6,2.6,0,0,1-1.46-.35,1.13,1.13,0,0,1-.52-1,1.16,1.16,0,0,1,.29-.78,1.44,1.44,0,0,1,.8-.42.86.86,0,0,1-.33-.27.62.62,0,0,1-.13-.4.73.73,0,0,1,.15-.46,1.49,1.49,0,0,1,.45-.39,1.29,1.29,0,0,1-.62-.52,1.59,1.59,0,0,1-.23-.85,1.78,1.78,0,0,1,.21-.89,1.49,1.49,0,0,1,.63-.56,2.27,2.27,0,0,1,1-.19h.25l.25,0,.21.05h1.65v.47l-.89.11a1.45,1.45,0,0,1,.22.41,1.53,1.53,0,0,1,.09.54,1.41,1.41,0,0,1-.49,1.14,2,2,0,0,1-1.34.42l-.41,0a1.31,1.31,0,0,0-.33.26.58.58,0,0,0-.11.34.29.29,0,0,0,.09.22.42.42,0,0,0,.24.12,1.54,1.54,0,0,0,.4,0h.84a1.92,1.92,0,0,1,1.21.33,1.15,1.15,0,0,1,.42,1,1.4,1.4,0,0,1-.65,1.23A3.47,3.47,0,0,1,25.83,64Zm0-.57a3.43,3.43,0,0,0,1-.12,1.26,1.26,0,0,0,.59-.35.79.79,0,0,0,.2-.53.63.63,0,0,0-.14-.44.61.61,0,0,0-.38-.2,3.65,3.65,0,0,0-.63,0h-.83a1.42,1.42,0,0,0-.57.1.79.79,0,0,0-.5.79.67.67,0,0,0,.33.6A1.85,1.85,0,0,0,25.85,63.4ZM26,59.55a1.11,1.11,0,0,0,.79-.26,1.07,1.07,0,0,0,.26-.77,1.1,1.1,0,0,0-.27-.81,1.07,1.07,0,0,0-.79-.27,1,1,0,0,0-.77.28,1.12,1.12,0,0,0-.27.81,1,1,0,0,0,.27.76A1.1,1.1,0,0,0,26,59.55Z"/><path class="cls-2" d="M31.22,56.91a2,2,0,0,1,1.06.27,1.71,1.71,0,0,1,.67.76,2.6,2.6,0,0,1,.24,1.15v.45H29.86a1.9,1.9,0,0,0,.42,1.29,1.47,1.47,0,0,0,1.15.44,3.27,3.27,0,0,0,.81-.08A4.77,4.77,0,0,0,33,61v.64a3.34,3.34,0,0,1-.72.23,4.16,4.16,0,0,1-.85.08,2.57,2.57,0,0,1-1.21-.28,2,2,0,0,1-.8-.84,2.86,2.86,0,0,1-.29-1.34,3.28,3.28,0,0,1,.26-1.35,1.92,1.92,0,0,1,1.86-1.18Zm0,.59a1.18,1.18,0,0,0-.93.39A1.77,1.77,0,0,0,29.87,59h2.55a2.14,2.14,0,0,0-.13-.75,1.09,1.09,0,0,0-1.07-.7Z"/><path class="cls-2" d="M36.71,56.91a1.53,1.53,0,0,1,1.73,1.76v3.14h-.72V58.72a1.31,1.31,0,0,0-.27-.9,1.11,1.11,0,0,0-.85-.3,1.27,1.27,0,0,0-1.12.46,2.18,2.18,0,0,0-.33,1.31v2.52h-.73V57H35l.11.7h0a1.6,1.6,0,0,1,.39-.43,1.93,1.93,0,0,1,.54-.26A2.06,2.06,0,0,1,36.71,56.91Z"/><path class="cls-2" d="M93.24,49.59a2.45,2.45,0,0,0-1,.18,2,2,0,0,0-.72.53,2.29,2.29,0,0,0-.45.83,3.44,3.44,0,0,0-.16,1.1,3.5,3.5,0,0,0,.25,1.4,1.93,1.93,0,0,0,.76.92,2.23,2.23,0,0,0,1.26.33,4.28,4.28,0,0,0,.81-.07,6.17,6.17,0,0,0,.74-.19v.65a3.67,3.67,0,0,1-.74.2,6.07,6.07,0,0,1-.92.06,3.09,3.09,0,0,1-1.64-.4,2.57,2.57,0,0,1-1-1.15,4.3,4.3,0,0,1-.33-1.75,4.05,4.05,0,0,1,.21-1.34,2.88,2.88,0,0,1,.59-1,2.66,2.66,0,0,1,1-.68,3.38,3.38,0,0,1,1.32-.24,4.17,4.17,0,0,1,.94.1,3.43,3.43,0,0,1,.82.27l-.3.64a4.17,4.17,0,0,0-.68-.25A2.85,2.85,0,0,0,93.24,49.59Z"/><path class="cls-2" d="M100,50.63v4.82h-.6l-.11-.68h0a1.31,1.31,0,0,1-.39.42,1.69,1.69,0,0,1-.54.26,2.09,2.09,0,0,1-.63.08,2.21,2.21,0,0,1-1-.18,1.21,1.21,0,0,1-.59-.57,2.21,2.21,0,0,1-.19-1V50.63h.74v3.1a1.31,1.31,0,0,0,.27.9,1.07,1.07,0,0,0,.83.3,1.59,1.59,0,0,0,.85-.2,1.11,1.11,0,0,0,.46-.6,2.7,2.7,0,0,0,.14-1V50.63Z"/><path class="cls-2" d="M103.42,50.54a2,2,0,0,1,1.06.27,1.8,1.8,0,0,1,.67.77,2.55,2.55,0,0,1,.24,1.14v.45h-3.33a1.93,1.93,0,0,0,.42,1.3,1.51,1.51,0,0,0,1.15.44,3.83,3.83,0,0,0,.81-.08,4.86,4.86,0,0,0,.73-.25v.64a3.38,3.38,0,0,1-.72.24,4.22,4.22,0,0,1-.85.07,2.46,2.46,0,0,1-1.21-.28,2,2,0,0,1-.8-.83,2.93,2.93,0,0,1-.29-1.35,3.23,3.23,0,0,1,.26-1.34,2,2,0,0,1,.74-.88A2,2,0,0,1,103.42,50.54Zm0,.6a1.24,1.24,0,0,0-.94.38,1.86,1.86,0,0,0-.41,1.07h2.55a2.2,2.2,0,0,0-.13-.76,1.08,1.08,0,0,0-.4-.51A1.15,1.15,0,0,0,103.42,51.14Z"/><path class="cls-2" d="M108.81,50.54l.31,0,.28,0-.1.68-.26-.05-.27,0a1.3,1.3,0,0,0-.55.12,1.31,1.31,0,0,0-.45.33,1.58,1.58,0,0,0-.3.52,1.87,1.87,0,0,0-.11.68v2.59h-.74V50.63h.61l.08.89h0a2.47,2.47,0,0,1,.36-.49,1.6,1.6,0,0,1,.49-.36A1.56,1.56,0,0,1,108.81,50.54Z"/><path class="cls-2" d="M112.57,50.54a1.8,1.8,0,0,1,1.43.62,2.79,2.79,0,0,1,.54,1.86,3.39,3.39,0,0,1-.25,1.39,1.81,1.81,0,0,1-.69.84,1.92,1.92,0,0,1-1,.28,2,2,0,0,1-.68-.1,1.55,1.55,0,0,1-.49-.27,1.68,1.68,0,0,1-.34-.37H111c0,.11,0,.25,0,.41s0,.3,0,.42v2h-.74v-7h.6l.1.71h0a1.81,1.81,0,0,1,.34-.4,1.48,1.48,0,0,1,.49-.29A2.1,2.1,0,0,1,112.57,50.54Zm-.13.62a1.47,1.47,0,0,0-.81.19,1.09,1.09,0,0,0-.44.58,2.65,2.65,0,0,0-.15,1V53a3.47,3.47,0,0,0,.13,1,1.25,1.25,0,0,0,.44.64,1.49,1.49,0,0,0,.84.22,1.13,1.13,0,0,0,.74-.24,1.45,1.45,0,0,0,.45-.68,3,3,0,0,0,.15-1,2.38,2.38,0,0,0-.34-1.36A1.14,1.14,0,0,0,112.44,51.16Z"/><path class="cls-2" d="M120,53a3.48,3.48,0,0,1-.15,1.06,2.27,2.27,0,0,1-.45.79,2,2,0,0,1-.7.49,2.45,2.45,0,0,1-.93.16,2.3,2.3,0,0,1-.88-.16,2.16,2.16,0,0,1-.7-.49,2.43,2.43,0,0,1-.45-.79,3.19,3.19,0,0,1-.16-1.06,3.07,3.07,0,0,1,.27-1.35,1.93,1.93,0,0,1,.77-.85,2.32,2.32,0,0,1,1.18-.29,2.2,2.2,0,0,1,1.16.3,2,2,0,0,1,.77.85A3,3,0,0,1,120,53Zm-3.66,0a3.07,3.07,0,0,0,.15,1,1.33,1.33,0,0,0,.47.65,1.36,1.36,0,0,0,.83.24,1.33,1.33,0,0,0,.82-.24,1.28,1.28,0,0,0,.48-.65,3.06,3.06,0,0,0,.16-1,3,3,0,0,0-.16-1,1.3,1.3,0,0,0-.47-.64,1.36,1.36,0,0,0-.83-.23,1.25,1.25,0,0,0-1.1.49A2.33,2.33,0,0,0,116.3,53Z"/><path class="cls-2" d="M92.1,65.53a1.79,1.79,0,0,1-1.45-.62,2.76,2.76,0,0,1-.54-1.85,2.83,2.83,0,0,1,.55-1.88,1.8,1.8,0,0,1,1.45-.64,2.25,2.25,0,0,1,.67.1,1.77,1.77,0,0,1,.49.27,1.85,1.85,0,0,1,.35.39h0c0-.09,0-.22,0-.38s0-.28,0-.38V58.61h.73v6.84h-.59l-.11-.69h0a1.85,1.85,0,0,1-.35.39,1.51,1.51,0,0,1-.5.28A1.93,1.93,0,0,1,92.1,65.53Zm.11-.6a1.25,1.25,0,0,0,1.09-.44,2.17,2.17,0,0,0,.32-1.31v-.13a2.74,2.74,0,0,0-.3-1.41,1.19,1.19,0,0,0-1.11-.49,1.12,1.12,0,0,0-1,.52,2.57,2.57,0,0,0-.33,1.4,2.39,2.39,0,0,0,.33,1.37A1.13,1.13,0,0,0,92.21,64.93Z"/><path class="cls-2" d="M97.74,60.54a2,2,0,0,1,1.06.27,1.86,1.86,0,0,1,.67.77,2.7,2.7,0,0,1,.23,1.14v.45H96.38a1.83,1.83,0,0,0,.42,1.3,1.49,1.49,0,0,0,1.15.44,4,4,0,0,0,.81-.08,5.28,5.28,0,0,0,.73-.25v.64a3.66,3.66,0,0,1-.73.24,4.19,4.19,0,0,1-.84.07,2.43,2.43,0,0,1-1.21-.28,1.94,1.94,0,0,1-.8-.83,2.81,2.81,0,0,1-.29-1.35,3.23,3.23,0,0,1,.26-1.34,2,2,0,0,1,.74-.88A2,2,0,0,1,97.74,60.54Zm0,.6a1.21,1.21,0,0,0-.93.38,1.79,1.79,0,0,0-.41,1.07h2.55a2.19,2.19,0,0,0-.14-.76,1,1,0,0,0-.39-.51A1.19,1.19,0,0,0,97.73,61.14Z"/><path class="cls-2" d="M104.84,64.94a2.19,2.19,0,0,0,.36,0,1.53,1.53,0,0,0,.31-.08v.57a1.51,1.51,0,0,1-.35.1l-.44,0a1.75,1.75,0,0,1-.7-.13,1.13,1.13,0,0,1-.5-.45,1.85,1.85,0,0,1-.18-.89V61.2h-.69v-.36l.69-.28.29-1.05h.44v1.12h1.41v.57h-1.41V64a.94.94,0,0,0,.21.67A.72.72,0,0,0,104.84,64.94Z"/><path class="cls-2" d="M108.34,60.54a2,2,0,0,1,1.06.27,1.86,1.86,0,0,1,.67.77,2.7,2.7,0,0,1,.23,1.14v.45H107a1.83,1.83,0,0,0,.42,1.3,1.49,1.49,0,0,0,1.15.44,4,4,0,0,0,.81-.08,5.28,5.28,0,0,0,.73-.25v.64a3.66,3.66,0,0,1-.73.24,4.19,4.19,0,0,1-.84.07,2.43,2.43,0,0,1-1.21-.28,1.89,1.89,0,0,1-.8-.83,2.81,2.81,0,0,1-.29-1.35,3.23,3.23,0,0,1,.26-1.34,2,2,0,0,1,.74-.88A2,2,0,0,1,108.34,60.54Zm0,.6a1.21,1.21,0,0,0-.93.38,1.79,1.79,0,0,0-.41,1.07h2.55a2.19,2.19,0,0,0-.14-.76,1,1,0,0,0-.39-.51A1.19,1.19,0,0,0,108.33,61.14Z"/><path class="cls-2" d="M112.69,63,111,60.63h.84l1.27,1.85,1.26-1.85h.83L113.55,63l1.76,2.47h-.83l-1.35-2-1.36,2h-.83Z"/><path class="cls-2" d="M117.81,64.94l.37,0a1.73,1.73,0,0,0,.31-.08v.57a1.79,1.79,0,0,1-.36.1l-.44,0a1.7,1.7,0,0,1-.69-.13,1,1,0,0,1-.5-.45,1.73,1.73,0,0,1-.19-.89V61.2h-.69v-.36l.69-.28.3-1.05H117v1.12h1.41v.57H117V64a.94.94,0,0,0,.21.67A.74.74,0,0,0,117.81,64.94Z"/><path class="cls-2" d="M123.61,63a3.48,3.48,0,0,1-.15,1.06,2.25,2.25,0,0,1-.44.79,2.1,2.1,0,0,1-.71.49,2.45,2.45,0,0,1-.93.16,2.3,2.3,0,0,1-.88-.16,2,2,0,0,1-.69-.49,2.29,2.29,0,0,1-.46-.79,3.47,3.47,0,0,1-.16-1.06,3.07,3.07,0,0,1,.27-1.35,1.93,1.93,0,0,1,.77-.85,2.36,2.36,0,0,1,1.19-.29,2.17,2.17,0,0,1,1.15.3,2,2,0,0,1,.77.85A3,3,0,0,1,123.61,63ZM120,63a3.07,3.07,0,0,0,.15,1,1.28,1.28,0,0,0,.48.65,1.33,1.33,0,0,0,.82.24,1.36,1.36,0,0,0,.83-.24,1.33,1.33,0,0,0,.47-.65,2.82,2.82,0,0,0,.16-1,2.76,2.76,0,0,0-.16-1,1.3,1.3,0,0,0-.47-.64,1.36,1.36,0,0,0-.83-.23,1.25,1.25,0,0,0-1.1.49A2.33,2.33,0,0,0,120,63Z"/><rect class="cls-2" x="129.75" y="45.16" width="34.45" height="25.31" rx="1.22"/><path class="cls-4" d="M154,51.51H135.49a.75.75,0,0,1,0-1.5H154a.75.75,0,0,1,0,1.5Z"/><path class="cls-4" d="M154,60.58H135.49a.75.75,0,0,1,0-1.5H154a.75.75,0,0,1,0,1.5Z"/><path class="cls-4" d="M158.46,56.48h-23a.75.75,0,0,1,0-1.5h23a.75.75,0,0,1,0,1.5Z"/><path class="cls-4" d="M158.46,64.89h-23a.75.75,0,0,1,0-1.5h23a.75.75,0,0,1,0,1.5Z"/><path class="cls-2" d="M64.75,94.49l-1.83-4.82h.78l1.06,2.92c.08.2.15.42.23.66a4.56,4.56,0,0,1,.15.58h0c0-.15.1-.34.18-.59s.16-.46.23-.65l1-2.92h.79l-1.84,4.82Z"/><path class="cls-2" d="M69.82,87.6v.08a2.21,2.21,0,0,1-.23.31l-.34.37c-.12.13-.25.26-.37.37l-.35.31h-.48v-.11c.09-.11.19-.24.3-.4l.33-.48.26-.45Zm-.91,6.89h-.72V89.67h.72Z"/><path class="cls-2" d="M72.74,89.59A1.79,1.79,0,0,1,74,90a1.75,1.75,0,0,1,.44,1.34v3.14h-.72V91.4a1.31,1.31,0,0,0-.27-.9,1.09,1.09,0,0,0-.84-.3,1.3,1.3,0,0,0-1.13.45A2.32,2.32,0,0,0,71.19,92v2.52h-.73V89.67h.59l.11.7h0a1.45,1.45,0,0,1,.39-.43,1.64,1.64,0,0,1,.53-.26A2.06,2.06,0,0,1,72.74,89.59Z"/><path class="cls-2" d="M77.91,94.58a2.35,2.35,0,0,1-1.15-.27,1.81,1.81,0,0,1-.77-.82,3,3,0,0,1-.28-1.38A3.13,3.13,0,0,1,76,90.68a1.91,1.91,0,0,1,.81-.83A2.58,2.58,0,0,1,78,89.59a3.11,3.11,0,0,1,.69.07,2.36,2.36,0,0,1,.55.18l-.22.61a3.7,3.7,0,0,0-.5-.16,2.67,2.67,0,0,0-.54-.07,1.53,1.53,0,0,0-.83.22,1.28,1.28,0,0,0-.5.63,2.81,2.81,0,0,0-.17,1,2.72,2.72,0,0,0,.17,1,1.32,1.32,0,0,0,.47.63,1.45,1.45,0,0,0,.8.22,2.4,2.4,0,0,0,.69-.09,2.83,2.83,0,0,0,.56-.19v.65a1.82,1.82,0,0,1-.54.19A2.91,2.91,0,0,1,77.91,94.58Z"/><path class="cls-2" d="M84.27,89.67v4.82h-.6l-.11-.68h0a1.42,1.42,0,0,1-.38.43,1.67,1.67,0,0,1-.54.25,2.18,2.18,0,0,1-.63.09,2.13,2.13,0,0,1-1-.19,1.23,1.23,0,0,1-.58-.57,2.21,2.21,0,0,1-.19-1V89.67H81v3.11a1.26,1.26,0,0,0,.28.9,1.1,1.1,0,0,0,.83.29,1.62,1.62,0,0,0,.85-.2,1.09,1.09,0,0,0,.46-.6,3,3,0,0,0,.14-1V89.67Z"/><path class="cls-2" d="M86.54,94.49h-.73V87.65h.73Z"/><path class="cls-2" d="M92.23,92.07a3.43,3.43,0,0,1-.15,1.06,2,2,0,0,1-.45.79,1.85,1.85,0,0,1-.7.49,2.45,2.45,0,0,1-.93.17,2.3,2.3,0,0,1-.88-.17,2,2,0,0,1-.7-.49,2.33,2.33,0,0,1-.45-.79,3.42,3.42,0,0,1-.16-1.06,3,3,0,0,1,.27-1.34,1.88,1.88,0,0,1,.77-.85A2.26,2.26,0,0,1,90,89.59a2.28,2.28,0,0,1,1.15.29,2.05,2.05,0,0,1,.77.85A3,3,0,0,1,92.23,92.07Zm-3.66,0a3,3,0,0,0,.15,1,1.36,1.36,0,0,0,.48.66A1.31,1.31,0,0,0,90,94a1.36,1.36,0,0,0,.83-.23,1.4,1.4,0,0,0,.47-.66,3,3,0,0,0,.16-1,2.93,2.93,0,0,0-.16-1,1.33,1.33,0,0,0-.47-.65A1.43,1.43,0,0,0,90,90.2a1.25,1.25,0,0,0-1.1.5A2.3,2.3,0,0,0,88.57,92.07Z"/><path class="cls-2" d="M100,92.07a3.43,3.43,0,0,1-.15,1.06,2.16,2.16,0,0,1-.44.79,2,2,0,0,1-.7.49,2.52,2.52,0,0,1-.93.17,2.31,2.31,0,0,1-.89-.17,1.89,1.89,0,0,1-.69-.49,2.2,2.2,0,0,1-.46-.79,3.42,3.42,0,0,1-.16-1.06,3,3,0,0,1,.27-1.34,1.93,1.93,0,0,1,.77-.85,2.5,2.5,0,0,1,2.34,0,2,2,0,0,1,.77.85A3,3,0,0,1,100,92.07Zm-3.66,0a3,3,0,0,0,.15,1,1.42,1.42,0,0,0,.48.66,1.33,1.33,0,0,0,.82.23,1.36,1.36,0,0,0,.83-.23,1.4,1.4,0,0,0,.47-.66,2.78,2.78,0,0,0,.16-1,2.71,2.71,0,0,0-.16-1,1.33,1.33,0,0,0-.47-.65,1.41,1.41,0,0,0-.83-.23,1.25,1.25,0,0,0-1.1.5A2.37,2.37,0,0,0,96.32,92.07Z"/><path class="cls-2" d="M104.31,87.65v1.71c0,.2,0,.39,0,.57s0,.33,0,.43h0a1.77,1.77,0,0,1,.57-.55,2,2,0,0,1,1-.22,1.8,1.8,0,0,1,1.44.63,2.77,2.77,0,0,1,.54,1.86,3.29,3.29,0,0,1-.25,1.37,1.81,1.81,0,0,1-.69.84,1.93,1.93,0,0,1-1.06.29,1.9,1.9,0,0,1-.94-.21,1.68,1.68,0,0,1-.56-.53h-.06l-.15.65h-.53V87.65Zm1.41,2.55a1.44,1.44,0,0,0-.83.21,1.08,1.08,0,0,0-.44.61,3.4,3.4,0,0,0-.14,1v0a2.53,2.53,0,0,0,.31,1.39,1.2,1.2,0,0,0,1.1.48,1.14,1.14,0,0,0,1-.49,2.53,2.53,0,0,0,.33-1.41,2.45,2.45,0,0,0-.33-1.4A1.16,1.16,0,0,0,105.72,90.2Z"/><path class="cls-2" d="M113.24,92.07a3.43,3.43,0,0,1-.15,1.06,2,2,0,0,1-.45.79,1.85,1.85,0,0,1-.7.49,2.45,2.45,0,0,1-.93.17,2.3,2.3,0,0,1-.88-.17,2,2,0,0,1-.7-.49,2.33,2.33,0,0,1-.45-.79,3.42,3.42,0,0,1-.16-1.06,3,3,0,0,1,.27-1.34,1.88,1.88,0,0,1,.77-.85,2.26,2.26,0,0,1,1.19-.29,2.28,2.28,0,0,1,1.15.29,2.05,2.05,0,0,1,.77.85A3,3,0,0,1,113.24,92.07Zm-3.66,0a3,3,0,0,0,.15,1,1.36,1.36,0,0,0,.48.66A1.31,1.31,0,0,0,111,94a1.36,1.36,0,0,0,.83-.23,1.4,1.4,0,0,0,.47-.66,3,3,0,0,0,.16-1,2.93,2.93,0,0,0-.16-1,1.33,1.33,0,0,0-.47-.65,1.43,1.43,0,0,0-.83-.23,1.25,1.25,0,0,0-1.1.5A2.3,2.3,0,0,0,109.58,92.07Zm2.73-4.47v.08a3.83,3.83,0,0,1-.24.31c-.1.12-.22.24-.34.37s-.25.26-.37.37L111,89h-.48v-.11c.09-.11.19-.24.3-.4s.22-.32.33-.48l.26-.45Z"/><path class="cls-2" d="M116.06,94l.37,0,.31-.07v.56a1.79,1.79,0,0,1-.36.1,3.42,3.42,0,0,1-.44,0,1.7,1.7,0,0,1-.69-.14,1,1,0,0,1-.5-.45,1.71,1.71,0,0,1-.19-.89V90.25h-.68v-.36l.68-.29.3-1h.44v1.11h1.41v.58H115.3v2.83a1,1,0,0,0,.2.68A.73.73,0,0,0,116.06,94Z"/><path class="cls-2" d="M121.87,92.07a3.42,3.42,0,0,1-.16,1.06,2.16,2.16,0,0,1-.44.79,2,2,0,0,1-.7.49,2.52,2.52,0,0,1-.93.17,2.31,2.31,0,0,1-.89-.17,1.89,1.89,0,0,1-.69-.49,2.2,2.2,0,0,1-.46-.79,3.42,3.42,0,0,1-.16-1.06,3,3,0,0,1,.27-1.34,1.93,1.93,0,0,1,.77-.85,2.5,2.5,0,0,1,2.34,0,2,2,0,0,1,.77.85A3,3,0,0,1,121.87,92.07Zm-3.67,0a3,3,0,0,0,.15,1,1.42,1.42,0,0,0,.48.66,1.33,1.33,0,0,0,.82.23,1.36,1.36,0,0,0,.83-.23,1.49,1.49,0,0,0,.48-.66,3,3,0,0,0,.15-1,3,3,0,0,0-.15-1,1.28,1.28,0,0,0-1.31-.88,1.25,1.25,0,0,0-1.1.5A2.37,2.37,0,0,0,118.2,92.07Z"/><path class="cls-2" d="M125.41,89.59a1.79,1.79,0,0,1,1.29.42,1.75,1.75,0,0,1,.44,1.34v3.14h-.72V91.4a1.31,1.31,0,0,0-.27-.9,1.1,1.1,0,0,0-.84-.3,1.3,1.3,0,0,0-1.13.45,2.24,2.24,0,0,0-.32,1.32v2.52h-.73V89.67h.58l.12.7h0a1.45,1.45,0,0,1,.39-.43,1.54,1.54,0,0,1,.53-.26A2.06,2.06,0,0,1,125.41,89.59Z"/><g id="Gg3kF0.tif"><path class="cls-2" d="M61.31,88.54A4.5,4.5,0,0,1,61,89.73a4.09,4.09,0,0,1-.75,1.06L58.1,93S58,93,58,93s0-.09,0-.13a4.89,4.89,0,0,0-.15-2.28.28.28,0,0,1,.08-.3c.36-.37.73-.73,1.07-1.11a1.78,1.78,0,0,0-1.48-3,1.58,1.58,0,0,0-1,.44c-.87.87-1.74,1.73-2.56,2.64a1.69,1.69,0,0,0-.48,1,1.82,1.82,0,0,0,.88,1.76c.12.08.15.16.07.28a5.91,5.91,0,0,1-1,1.19c-.09.09-.18.06-.28,0a3.52,3.52,0,0,1-1.3-1.65A3.76,3.76,0,0,1,52.39,88c.12-.15.26-.29.4-.44.72-.72,1.42-1.46,2.15-2.18a3.59,3.59,0,0,1,2.31-1l.08,0h.49l.33,0A3.71,3.71,0,0,1,61,86.56a4.1,4.1,0,0,1,.31,1.14Z"/><path class="cls-2" d="M57.23,92.05a3.69,3.69,0,0,1-1,2.59c-.65.71-1.33,1.37-2,2.06a6,6,0,0,1-1.07.94,3.77,3.77,0,0,1-4.61-5.91l2-2.07.09-.09s0,0,.08,0,0,0,0,.08a6.65,6.65,0,0,0-.06.89,5,5,0,0,0,.2,1.39.31.31,0,0,1-.09.36c-.33.34-.66.67-1,1A1.71,1.71,0,0,0,49.4,95a1.68,1.68,0,0,0,1.33,1.22,1.71,1.71,0,0,0,1.63-.48c.81-.82,1.63-1.63,2.41-2.48a1.88,1.88,0,0,0,.52-1,1.72,1.72,0,0,0-.72-1.76c-.27-.2-.34-.2-.12-.57a4,4,0,0,1,.85-1,.26.26,0,0,1,.34,0,3.7,3.7,0,0,1,1.53,2.43.64.64,0,0,1,0,.2A2.14,2.14,0,0,1,57.23,92.05Z"/></g></g></g></svg>