<svg xmlns="http://www.w3.org/2000/svg" viewBox="0 0 175.31 111.26"><defs><style>.cls-1{fill:#ebebeb;}.cls-2{fill:#a8a9aa;}.cls-3{fill:#386bfb;}</style></defs><g id="Capa_2" data-name="Capa 2"><g id="Capa_1-2" data-name="Capa 1"><rect class="cls-1" y="12.8" width="175.31" height="98.46"/><path class="cls-2" d="M69,26.92h-.76V21.15h-2v-.66H71v.66H69Z"/><path class="cls-2" d="M73.46,20v.09c-.06.08-.14.19-.24.3s-.21.25-.34.38-.24.25-.37.37a4.07,4.07,0,0,1-.34.3h-.49v-.1L72,21c.11-.16.22-.32.32-.49a3.82,3.82,0,0,0,.27-.45Zm-.91,6.9h-.73V22.1h.73Z"/><path class="cls-2" d="M75.65,26.41l.37,0a1.6,1.6,0,0,0,.3-.08v.57A1.17,1.17,0,0,1,76,27a2.25,2.25,0,0,1-.44,0,1.75,1.75,0,0,1-.7-.13,1.06,1.06,0,0,1-.49-.45,1.73,1.73,0,0,1-.19-.89V22.67h-.69v-.36l.69-.28L74.44,21h.44V22.1h1.41v.57H74.88v2.84a.94.94,0,0,0,.21.67A.74.74,0,0,0,75.65,26.41Z"/><path class="cls-2" d="M81.28,22.1v4.82h-.6l-.11-.68h0a1.31,1.31,0,0,1-.39.42,1.69,1.69,0,0,1-.54.26A2.09,2.09,0,0,1,79,27a2.21,2.21,0,0,1-1-.18,1.21,1.21,0,0,1-.59-.57,2.23,2.23,0,0,1-.19-1V22.1H78v3.1a1.31,1.31,0,0,0,.27.9,1.07,1.07,0,0,0,.83.3,1.59,1.59,0,0,0,.85-.2,1.11,1.11,0,0,0,.46-.6,2.73,2.73,0,0,0,.14-1V22.1Z"/><path class="cls-2" d="M83.55,26.92h-.73V20.08h.73Z"/><path class="cls-2" d="M89.24,24.5a3.48,3.48,0,0,1-.15,1.06,2.12,2.12,0,0,1-.44.78,1.89,1.89,0,0,1-.7.49A2.33,2.33,0,0,1,87,27a2.14,2.14,0,0,1-.89-.17,1.78,1.78,0,0,1-.69-.49,2.15,2.15,0,0,1-.46-.78,3.47,3.47,0,0,1-.16-1.06,3.07,3.07,0,0,1,.27-1.35,2,2,0,0,1,.77-.85A2.36,2.36,0,0,1,87.05,22a2.17,2.17,0,0,1,1.15.3,1.93,1.93,0,0,1,.77.85A3,3,0,0,1,89.24,24.5Zm-3.66,0a3.07,3.07,0,0,0,.15,1,1.3,1.3,0,0,0,1.3.89,1.36,1.36,0,0,0,.83-.24,1.33,1.33,0,0,0,.47-.65,2.82,2.82,0,0,0,.16-1,2.76,2.76,0,0,0-.16-1,1.3,1.3,0,0,0-.47-.64,1.34,1.34,0,0,0-.83-.23,1.25,1.25,0,0,0-1.1.49A2.41,2.41,0,0,0,85.58,24.5Z"/><path class="cls-2" d="M100.44,29.35l-.85-2.78H95.33l-.85,2.78H91.8L95.94,17.6h3l4.15,11.75ZM99,24.49l-.85-2.73c-.05-.18-.12-.41-.21-.7s-.18-.57-.26-.87-.16-.55-.22-.77c0,.22-.12.49-.22.81l-.26.92-.19.61L96,24.49Z"/><path class="cls-3" d="M14.1.46a2.94,2.94,0,0,1,2,.57,2,2,0,0,1,.64,1.59,2.57,2.57,0,0,1-.15.87,1.77,1.77,0,0,1-.47.74,2.14,2.14,0,0,1-.86.51A3.92,3.92,0,0,1,14,4.93h-.76V7.6H12V.46Zm-.08,1h-.83V4h.64a3.18,3.18,0,0,0,.94-.13,1.16,1.16,0,0,0,.58-.42,1.27,1.27,0,0,0,.2-.74,1.11,1.11,0,0,0-.37-.92A1.85,1.85,0,0,0,14,1.44Z"/><path class="cls-3" d="M19.2,7.6H18.05V0H19.2Z"/><path class="cls-3" d="M23,2.09a2.33,2.33,0,0,1,1.55.45A1.79,1.79,0,0,1,25,4V7.6h-.81L24,6.83h0a2.76,2.76,0,0,1-.47.49,1.55,1.55,0,0,1-.56.28,2.85,2.85,0,0,1-.78.1,2.05,2.05,0,0,1-.87-.18,1.38,1.38,0,0,1-.6-.55A1.83,1.83,0,0,1,20.46,6a1.4,1.4,0,0,1,.62-1.25A3.62,3.62,0,0,1,23,4.33l.94,0V4a1.07,1.07,0,0,0-.26-.8A1.06,1.06,0,0,0,22.9,3a2.54,2.54,0,0,0-.78.12,5.94,5.94,0,0,0-.74.28L21,2.56a4.55,4.55,0,0,1,.9-.34A4.11,4.11,0,0,1,23,2.09ZM23.89,5,23.2,5A2.24,2.24,0,0,0,22,5.33a.87.87,0,0,0-.35.72.69.69,0,0,0,.24.59,1,1,0,0,0,.63.18,1.44,1.44,0,0,0,1-.34,1.24,1.24,0,0,0,.39-1Z"/><path class="cls-3" d="M29.46,2.09a2,2,0,0,1,1.42.47,2,2,0,0,1,.51,1.51V7.6H30.24V4.29A1.41,1.41,0,0,0,30,3.35a1,1,0,0,0-.8-.32,1.18,1.18,0,0,0-1.09.49,2.63,2.63,0,0,0-.3,1.39V7.6H26.63V2.19h.9l.16.73h.07a1.57,1.57,0,0,1,.43-.46,2,2,0,0,1,.59-.28A2.54,2.54,0,0,1,29.46,2.09Z"/><path class="cls-3" d="M35,6.77a3.42,3.42,0,0,0,.45,0l.4-.1V7.5a3,3,0,0,1-.49.14,3.36,3.36,0,0,1-.63.06,2.15,2.15,0,0,1-.83-.16A1.19,1.19,0,0,1,33.32,7a2.14,2.14,0,0,1-.22-1V3.07h-.73V2.56l.79-.41L33.53,1h.73v1.2H35.8v.88H34.26V6a.82.82,0,0,0,.2.61A.77.77,0,0,0,35,6.77Z"/><path class="cls-3" d="M37.53.12A.75.75,0,0,1,38,.26a.58.58,0,0,1,.2.49.58.58,0,0,1-.2.49.7.7,0,0,1-.45.15.75.75,0,0,1-.47-.15.6.6,0,0,1-.19-.49.6.6,0,0,1,.19-.49A.82.82,0,0,1,37.53.12Zm.56,2.07V7.6H36.94V2.19Z"/><path class="cls-3" d="M40.89,7.6H39.73V0h1.16Z"/><path class="cls-3" d="M43.68,7.6H42.52V0h1.16Z"/><path class="cls-3" d="M47.43,2.09A2.33,2.33,0,0,1,49,2.54,1.8,1.8,0,0,1,49.51,4V7.6h-.82l-.22-.77h0a2.8,2.8,0,0,1-.48.49,1.55,1.55,0,0,1-.56.28,2.85,2.85,0,0,1-.78.1,2,2,0,0,1-.86-.18,1.28,1.28,0,0,1-.6-.55A1.73,1.73,0,0,1,44.93,6a1.42,1.42,0,0,1,.62-1.25,3.69,3.69,0,0,1,1.89-.46l.93,0V4a1.07,1.07,0,0,0-.26-.8A1,1,0,0,0,47.38,3a2.61,2.61,0,0,0-.79.12,6.61,6.61,0,0,0-.74.28l-.38-.81a4.42,4.42,0,0,1,.91-.34A4.08,4.08,0,0,1,47.43,2.09ZM48.36,5l-.69,0a2.26,2.26,0,0,0-1.21.29.86.86,0,0,0-.34.72.69.69,0,0,0,.24.59,1,1,0,0,0,.63.18,1.43,1.43,0,0,0,1-.34,1.24,1.24,0,0,0,.39-1Z"/><path class="cls-3" d="M58.17,7.6H53.33V6.73l1.85-1.87c.36-.37.66-.68.89-1a3.51,3.51,0,0,0,.52-.75,1.85,1.85,0,0,0,.17-.78,1,1,0,0,0-.3-.78,1.17,1.17,0,0,0-.79-.26,2,2,0,0,0-.85.18A4,4,0,0,0,54,2l-.63-.76A5.64,5.64,0,0,1,54,.82a3.51,3.51,0,0,1,.76-.34,3.52,3.52,0,0,1,1-.12A2.66,2.66,0,0,1,56.9.6a1.78,1.78,0,0,1,.76.67,1.93,1.93,0,0,1,.26,1,2.39,2.39,0,0,1-.23,1.07,4.17,4.17,0,0,1-.65,1c-.28.32-.62.67-1,1l-1.24,1.2v0h3.38Z"/><path class="cls-2" d="M27.34,60.2V40l.06-.24a3.49,3.49,0,0,1,3.37-2.59c6.33,0,12.66,0,19,0a3.34,3.34,0,0,1,3.36,3.36q0,9.52,0,19.07a3.3,3.3,0,0,1-1,2.42,3.64,3.64,0,0,1-1.79.93H30.13a4.06,4.06,0,0,1-1.07-.4A3.47,3.47,0,0,1,27.34,60.2Zm24-9.22c.07,0,0-.12,0-.17,0-3.38,0-6.75,0-10.12A1.64,1.64,0,0,0,49.63,39H30.82a1.78,1.78,0,0,0-.93.23,1.69,1.69,0,0,0-.81,1.59v9.76a.4.4,0,0,0,0,.28l.24-.17,6.36-5a2,2,0,0,1,3,.23c1.65,1.75,3.3,3.51,4.93,5.27.16.16.24.16.38,0,.72-.78,1.45-1.56,2.18-2.33a1.94,1.94,0,0,1,2.94,0c.67.66,1.33,1.33,2,2C51.17,50.87,51.22,51,51.32,51Z"/><path class="cls-2" d="M42,45a1.73,1.73,0,1,1,3.46,0A1.73,1.73,0,1,1,42,45Z"/><path class="cls-2" d="M21.71,74.35V67.93h.75v6.42Z"/><path class="cls-2" d="M29.35,69.45a1.63,1.63,0,0,1,1.2.41A1.88,1.88,0,0,1,31,71.2v3.15h-.72V71.23a1.27,1.27,0,0,0-.25-.87.93.93,0,0,0-.75-.3,1.23,1.23,0,0,0-1,.41,1.92,1.92,0,0,0-.31,1.19v2.69h-.73V71.23a1.58,1.58,0,0,0-.11-.65.85.85,0,0,0-.33-.39,1.19,1.19,0,0,0-.56-.13,1.35,1.35,0,0,0-.77.2,1,1,0,0,0-.42.59,3,3,0,0,0-.13,1v2.55h-.73V69.54h.59l.11.68h0a1.22,1.22,0,0,1,.36-.42,1.54,1.54,0,0,1,.49-.26,1.9,1.9,0,0,1,.58-.09,1.93,1.93,0,0,1,.92.2,1.2,1.2,0,0,1,.54.63h0a1.58,1.58,0,0,1,.65-.63A2.13,2.13,0,0,1,29.35,69.45Z"/><path class="cls-2" d="M34.25,69.46a1.86,1.86,0,0,1,1.28.38A1.62,1.62,0,0,1,36,71.08v3.27h-.53l-.14-.71h0a2.21,2.21,0,0,1-.42.44,1.56,1.56,0,0,1-.51.27,2.38,2.38,0,0,1-.7.09,1.87,1.87,0,0,1-.78-.15,1.18,1.18,0,0,1-.54-.47,1.47,1.47,0,0,1-.2-.79,1.25,1.25,0,0,1,.58-1.11,3.46,3.46,0,0,1,1.74-.42l.83,0v-.3A1.15,1.15,0,0,0,35,70.3a1.06,1.06,0,0,0-.76-.25,2.17,2.17,0,0,0-.72.11,4.64,4.64,0,0,0-.65.26l-.22-.56a4,4,0,0,1,.74-.28A3.3,3.3,0,0,1,34.25,69.46Zm1,2.52-.74,0a2.47,2.47,0,0,0-1.27.3.84.84,0,0,0-.36.73.71.71,0,0,0,.25.61,1,1,0,0,0,.66.2,1.52,1.52,0,0,0,1-.36,1.35,1.35,0,0,0,.41-1.07Z"/><path class="cls-2" d="M38.8,76.52a2.55,2.55,0,0,1-1.47-.36,1.12,1.12,0,0,1-.51-1,1.07,1.07,0,0,1,.29-.77A1.36,1.36,0,0,1,37.9,74a.88.88,0,0,1-.32-.26.65.65,0,0,1-.13-.41.81.81,0,0,1,.14-.46,1.6,1.6,0,0,1,.45-.38,1.35,1.35,0,0,1-.61-.53,1.59,1.59,0,0,1-.23-.85,1.78,1.78,0,0,1,.21-.89,1.44,1.44,0,0,1,.63-.56,2.26,2.26,0,0,1,1-.19h.26l.25,0,.21,0h1.65V70l-.89.11a1.45,1.45,0,0,1,.22.41,1.53,1.53,0,0,1,.09.54,1.41,1.41,0,0,1-.49,1.14,1.93,1.93,0,0,1-1.34.43,2,2,0,0,1-.41,0,1,1,0,0,0-.33.27.52.52,0,0,0-.11.33.31.31,0,0,0,.08.22.45.45,0,0,0,.25.12,1.51,1.51,0,0,0,.39,0h.85a1.92,1.92,0,0,1,1.21.33,1.15,1.15,0,0,1,.42,1,1.39,1.39,0,0,1-.65,1.23A3.49,3.49,0,0,1,38.8,76.52Zm0-.58a3.43,3.43,0,0,0,1-.12,1.25,1.25,0,0,0,.59-.34.79.79,0,0,0,.19-.54.63.63,0,0,0-.13-.44.73.73,0,0,0-.39-.2,3.53,3.53,0,0,0-.62,0h-.83a1.61,1.61,0,0,0-.57.1.8.8,0,0,0-.37.3.85.85,0,0,0-.13.49.66.66,0,0,0,.33.6A1.75,1.75,0,0,0,38.82,75.94ZM39,72.09a.93.93,0,0,0,1.05-1,1.1,1.1,0,0,0-.27-.81A1.07,1.07,0,0,0,39,70a1,1,0,0,0-.77.28,1.14,1.14,0,0,0-.27.82,1,1,0,0,0,.27.75A1.05,1.05,0,0,0,39,72.09Z"/><path class="cls-2" d="M44.19,69.45a2,2,0,0,1,1.06.27,1.84,1.84,0,0,1,.67.76,2.74,2.74,0,0,1,.23,1.15v.45H42.83a1.83,1.83,0,0,0,.42,1.29,1.46,1.46,0,0,0,1.15.45,3.35,3.35,0,0,0,.81-.09,3.88,3.88,0,0,0,.73-.24v.64a3.66,3.66,0,0,1-.73.24,4.12,4.12,0,0,1-.84.07,2.43,2.43,0,0,1-1.21-.28,1.94,1.94,0,0,1-.8-.83A2.81,2.81,0,0,1,42.07,72a3.28,3.28,0,0,1,.26-1.35,2,2,0,0,1,1.86-1.18Zm0,.6a1.17,1.17,0,0,0-.93.38,1.77,1.77,0,0,0-.41,1.07h2.55a2.19,2.19,0,0,0-.14-.76,1,1,0,0,0-.39-.51A1.19,1.19,0,0,0,44.18,70.05Z"/><path class="cls-2" d="M49.67,69.45a1.53,1.53,0,0,1,1.74,1.77v3.13h-.72V71.26a1.26,1.26,0,0,0-.28-.9,1.08,1.08,0,0,0-.84-.3,1.29,1.29,0,0,0-1.12.46,2.2,2.2,0,0,0-.33,1.31v2.52h-.73V69.54H48l.11.69h0a1.45,1.45,0,0,1,.39-.43,2,2,0,0,1,.53-.26A2.16,2.16,0,0,1,49.67,69.45Z"/><path class="cls-2" d="M57.64,74.35h-.71v-5c0-.12,0-.23,0-.34s0-.21,0-.32a1.84,1.84,0,0,1-.26.24l-.29.25-.73.59-.39-.5L57,67.93h.61Z"/><path class="cls-2" d="M79.5,60.2V40c0-.08,0-.16.07-.24a3.47,3.47,0,0,1,3.36-2.59c6.34,0,12.67,0,19,0a3.35,3.35,0,0,1,3.36,3.36V59.64a3.31,3.31,0,0,1-1,2.42,3.57,3.57,0,0,1-1.78.93H82.29a4.34,4.34,0,0,1-1.07-.4A3.5,3.5,0,0,1,79.5,60.2Zm24-9.22c.06,0,0-.12,0-.17V40.69A1.64,1.64,0,0,0,101.8,39H83a1.75,1.75,0,0,0-.92.23,1.7,1.7,0,0,0-.82,1.59v9.76c0,.09,0,.18.05.28l.23-.17,6.36-5a2,2,0,0,1,3,.23l4.93,5.27c.15.16.23.16.37,0,.73-.78,1.45-1.56,2.19-2.33a1.94,1.94,0,0,1,2.94,0l2,2C103.33,50.87,103.38,51,103.49,51Z"/><path class="cls-2" d="M94.2,45a1.73,1.73,0,1,1,3.46,0,1.73,1.73,0,1,1-3.46,0Z"/><path class="cls-2" d="M73.88,74.35V67.93h.75v6.42Z"/><path class="cls-2" d="M81.51,69.45a1.63,1.63,0,0,1,1.2.41,1.88,1.88,0,0,1,.41,1.34v3.15H82.4V71.23a1.27,1.27,0,0,0-.26-.87.9.9,0,0,0-.75-.3,1.21,1.21,0,0,0-1,.41,1.92,1.92,0,0,0-.32,1.19v2.69h-.72V71.23a1.76,1.76,0,0,0-.11-.65.87.87,0,0,0-.34-.39,1.16,1.16,0,0,0-.56-.13,1.37,1.37,0,0,0-.77.2,1.14,1.14,0,0,0-.42.59,3.25,3.25,0,0,0-.13,1v2.55h-.73V69.54h.59l.11.68h0a1.37,1.37,0,0,1,.37-.42,1.44,1.44,0,0,1,.49-.26,1.81,1.81,0,0,1,.58-.09,2,2,0,0,1,.92.2,1.2,1.2,0,0,1,.54.63h0a1.52,1.52,0,0,1,.65-.63A2,2,0,0,1,81.51,69.45Z"/><path class="cls-2" d="M86.42,69.46a1.88,1.88,0,0,1,1.28.38,1.65,1.65,0,0,1,.41,1.24v3.27h-.53l-.14-.71h0a2.57,2.57,0,0,1-.43.44,1.42,1.42,0,0,1-.5.27,2.45,2.45,0,0,1-.71.09,1.94,1.94,0,0,1-.78-.15,1.23,1.23,0,0,1-.54-.47,1.47,1.47,0,0,1-.19-.79,1.27,1.27,0,0,1,.57-1.11,3.46,3.46,0,0,1,1.74-.42l.83,0v-.3a1.15,1.15,0,0,0-.27-.87,1,1,0,0,0-.75-.25,2.17,2.17,0,0,0-.72.11,4.2,4.2,0,0,0-.65.26l-.23-.56a4.35,4.35,0,0,1,.75-.28A3.24,3.24,0,0,1,86.42,69.46Zm1,2.52-.73,0a2.47,2.47,0,0,0-1.27.3A.82.82,0,0,0,85,73a.71.71,0,0,0,.25.61,1.06,1.06,0,0,0,.66.2,1.52,1.52,0,0,0,1-.36,1.32,1.32,0,0,0,.41-1.07Z"/><path class="cls-2" d="M91,76.52a2.52,2.52,0,0,1-1.46-.36,1.19,1.19,0,0,1-.23-1.76,1.39,1.39,0,0,1,.8-.43.8.8,0,0,1-.32-.26.66.66,0,0,1-.14-.41.75.75,0,0,1,.15-.46,1.6,1.6,0,0,1,.45-.38,1.3,1.3,0,0,1-.61-.53,1.51,1.51,0,0,1-.24-.85,1.68,1.68,0,0,1,.22-.89,1.41,1.41,0,0,1,.62-.56,2.27,2.27,0,0,1,1-.19h.26l.24,0,.21,0h1.65V70l-.88.11a1.75,1.75,0,0,1,.22.41,1.8,1.8,0,0,1,.08.54,1.44,1.44,0,0,1-.48,1.14,2,2,0,0,1-1.34.43,2,2,0,0,1-.42,0,1.14,1.14,0,0,0-.33.27.52.52,0,0,0-.11.33.28.28,0,0,0,.09.22.45.45,0,0,0,.25.12,1.46,1.46,0,0,0,.39,0h.85a1.9,1.9,0,0,1,1.2.33,1.15,1.15,0,0,1,.42,1,1.37,1.37,0,0,1-.65,1.23A3.46,3.46,0,0,1,91,76.52Zm0-.58a3.43,3.43,0,0,0,1-.12,1.2,1.2,0,0,0,.59-.34.8.8,0,0,0,.2-.54.68.68,0,0,0-.13-.44.73.73,0,0,0-.39-.2,3.61,3.61,0,0,0-.62,0h-.84a1.61,1.61,0,0,0-.57.1.85.85,0,0,0-.37.3.94.94,0,0,0-.13.49.66.66,0,0,0,.33.6A1.78,1.78,0,0,0,91,75.94Zm.19-3.85a.92.92,0,0,0,1-1,1.1,1.1,0,0,0-.27-.81,1,1,0,0,0-.79-.27,1,1,0,0,0-.77.28,1.14,1.14,0,0,0-.27.82,1,1,0,0,0,.27.75A1.07,1.07,0,0,0,91.17,72.09Z"/><path class="cls-2" d="M96.36,69.45a2,2,0,0,1,1,.27,1.77,1.77,0,0,1,.67.76,2.6,2.6,0,0,1,.24,1.15v.45H95a1.88,1.88,0,0,0,.42,1.29,1.49,1.49,0,0,0,1.15.45,3.23,3.23,0,0,0,.81-.09,3.66,3.66,0,0,0,.73-.24v.64a3.38,3.38,0,0,1-.72.24,4.22,4.22,0,0,1-.85.07,2.49,2.49,0,0,1-1.21-.28,2,2,0,0,1-.8-.83A2.93,2.93,0,0,1,94.23,72a3.13,3.13,0,0,1,.27-1.35,2,2,0,0,1,.73-.87A2,2,0,0,1,96.36,69.45Zm0,.6a1.17,1.17,0,0,0-.93.38A1.84,1.84,0,0,0,95,71.5h2.55a2,2,0,0,0-.13-.76,1.13,1.13,0,0,0-.39-.51A1.21,1.21,0,0,0,96.35,70.05Z"/><path class="cls-2" d="M101.84,69.45a1.79,1.79,0,0,1,1.29.42,1.77,1.77,0,0,1,.44,1.35v3.13h-.72V71.26a1.31,1.31,0,0,0-.27-.9,1.09,1.09,0,0,0-.84-.3,1.31,1.31,0,0,0-1.13.46,2.21,2.21,0,0,0-.32,1.31v2.52h-.73V69.54h.59l.11.69h0a1.45,1.45,0,0,1,.39-.43,1.75,1.75,0,0,1,.53-.26A2.06,2.06,0,0,1,101.84,69.45Z"/><path class="cls-2" d="M111.3,74.35h-4.21v-.61L108.81,72c.32-.32.59-.61.8-.86a3.16,3.16,0,0,0,.5-.75,1.77,1.77,0,0,0,.17-.8,1,1,0,0,0-.32-.84,1.23,1.23,0,0,0-.85-.29,2.1,2.1,0,0,0-.82.16,4.25,4.25,0,0,0-.73.45l-.39-.49a3.67,3.67,0,0,1,.56-.38,3.32,3.32,0,0,1,.64-.27,2.94,2.94,0,0,1,.74-.09,2.41,2.41,0,0,1,1,.2,1.61,1.61,0,0,1,.67.59,1.69,1.69,0,0,1,.24.91,2.17,2.17,0,0,1-.21.95,3.61,3.61,0,0,1-.56.86c-.25.29-.53.59-.86.91L108,73.65v0h3.28Z"/><path class="cls-2" d="M131.67,60.2V40l.06-.24a3.49,3.49,0,0,1,3.37-2.59c6.33,0,12.66,0,19,0a3.34,3.34,0,0,1,3.36,3.36V59.64a3.34,3.34,0,0,1-1,2.42,3.64,3.64,0,0,1-1.79.93H134.46a4.06,4.06,0,0,1-1.07-.4A3.47,3.47,0,0,1,131.67,60.2Zm24-9.22c.07,0,0-.12,0-.17,0-3.38,0-6.75,0-10.12A1.64,1.64,0,0,0,154,39H135.15a1.78,1.78,0,0,0-.93.23,1.7,1.7,0,0,0-.82,1.59c0,3.25,0,6.51,0,9.76a.4.4,0,0,0,0,.28l.24-.17,6.36-5a2,2,0,0,1,3,.23q2.48,2.63,4.93,5.27c.15.16.24.16.38,0,.72-.78,1.45-1.56,2.18-2.33a1.94,1.94,0,0,1,2.94,0c.67.66,1.32,1.33,2,2C155.49,50.87,155.55,51,155.65,51Z"/><path class="cls-2" d="M146.36,45a1.74,1.74,0,0,1,3.47,0,1.74,1.74,0,0,1-3.47,0Z"/><path class="cls-2" d="M126,74.35V67.93h.75v6.42Z"/><path class="cls-2" d="M133.68,69.45a1.63,1.63,0,0,1,1.2.41,1.88,1.88,0,0,1,.4,1.34v3.15h-.72V71.23a1.27,1.27,0,0,0-.25-.87.93.93,0,0,0-.75-.3,1.21,1.21,0,0,0-1,.41,1.92,1.92,0,0,0-.31,1.19v2.69h-.73V71.23a1.76,1.76,0,0,0-.11-.65.85.85,0,0,0-.33-.39,1.2,1.2,0,0,0-.57-.13,1.34,1.34,0,0,0-.76.2,1,1,0,0,0-.42.59,3,3,0,0,0-.13,1v2.55h-.73V69.54H129l.11.68h0a1.22,1.22,0,0,1,.36-.42,1.54,1.54,0,0,1,.49-.26,1.85,1.85,0,0,1,.58-.09,1.93,1.93,0,0,1,.92.2,1.2,1.2,0,0,1,.54.63h0a1.58,1.58,0,0,1,.65-.63A2.13,2.13,0,0,1,133.68,69.45Z"/><path class="cls-2" d="M138.58,69.46a1.88,1.88,0,0,1,1.28.38,1.62,1.62,0,0,1,.42,1.24v3.27h-.53l-.14-.71h0a2.54,2.54,0,0,1-.42.44,1.56,1.56,0,0,1-.51.27,2.38,2.38,0,0,1-.7.09,2,2,0,0,1-.79-.15,1.2,1.2,0,0,1-.53-.47,1.47,1.47,0,0,1-.2-.79,1.27,1.27,0,0,1,.57-1.11,3.52,3.52,0,0,1,1.74-.42l.84,0v-.3a1.15,1.15,0,0,0-.27-.87,1.06,1.06,0,0,0-.76-.25,2.17,2.17,0,0,0-.72.11,4.64,4.64,0,0,0-.65.26l-.22-.56a4,4,0,0,1,.74-.28A3.3,3.3,0,0,1,138.58,69.46Zm1,2.52-.74,0a2.47,2.47,0,0,0-1.27.3.84.84,0,0,0-.37.73.74.74,0,0,0,.25.61,1.07,1.07,0,0,0,.67.2,1.52,1.52,0,0,0,1.05-.36,1.35,1.35,0,0,0,.41-1.07Z"/><path class="cls-2" d="M143.12,76.52a2.52,2.52,0,0,1-1.46-.36,1.12,1.12,0,0,1-.51-1,1.07,1.07,0,0,1,.29-.77,1.36,1.36,0,0,1,.79-.43.88.88,0,0,1-.32-.26.65.65,0,0,1-.13-.41.74.74,0,0,1,.14-.46,1.6,1.6,0,0,1,.45-.38,1.35,1.35,0,0,1-.61-.53,1.51,1.51,0,0,1-.23-.85,1.78,1.78,0,0,1,.21-.89,1.41,1.41,0,0,1,.62-.56,2.33,2.33,0,0,1,1-.19h.26l.25,0,.21,0h1.65V70l-.89.11a1.45,1.45,0,0,1,.22.41,1.53,1.53,0,0,1,.09.54,1.41,1.41,0,0,1-.49,1.14,1.94,1.94,0,0,1-1.34.43,1.9,1.9,0,0,1-.41,0,.92.92,0,0,0-.33.27.47.47,0,0,0-.11.33.31.31,0,0,0,.08.22.45.45,0,0,0,.25.12,1.51,1.51,0,0,0,.39,0H144a1.94,1.94,0,0,1,1.21.33,1.15,1.15,0,0,1,.42,1,1.39,1.39,0,0,1-.65,1.23A3.52,3.52,0,0,1,143.12,76.52Zm0-.58a3.43,3.43,0,0,0,1-.12,1.25,1.25,0,0,0,.59-.34.79.79,0,0,0,.19-.54.63.63,0,0,0-.13-.44.73.73,0,0,0-.39-.2,3.53,3.53,0,0,0-.62,0h-.84a1.6,1.6,0,0,0-.56.1.8.8,0,0,0-.37.3.85.85,0,0,0-.13.49.66.66,0,0,0,.33.6A1.75,1.75,0,0,0,143.15,75.94Zm.19-3.85a1,1,0,0,0,.78-.26,1,1,0,0,0,.27-.77,1.1,1.1,0,0,0-.27-.81,1.07,1.07,0,0,0-.79-.27,1,1,0,0,0-.77.28,1.14,1.14,0,0,0-.27.82,1,1,0,0,0,.27.75A1.05,1.05,0,0,0,143.34,72.09Z"/><path class="cls-2" d="M148.52,69.45a2,2,0,0,1,1.06.27,1.84,1.84,0,0,1,.67.76,2.74,2.74,0,0,1,.23,1.15v.45h-3.33a1.84,1.84,0,0,0,.43,1.29,1.46,1.46,0,0,0,1.15.45,3.35,3.35,0,0,0,.81-.09,4.13,4.13,0,0,0,.73-.24v.64a3.66,3.66,0,0,1-.73.24,4.19,4.19,0,0,1-.84.07,2.43,2.43,0,0,1-1.21-.28,1.89,1.89,0,0,1-.8-.83A2.81,2.81,0,0,1,146.4,72a3.28,3.28,0,0,1,.26-1.35,1.93,1.93,0,0,1,.74-.87A2,2,0,0,1,148.52,69.45Zm0,.6a1.17,1.17,0,0,0-.93.38,1.77,1.77,0,0,0-.41,1.07h2.55a2.19,2.19,0,0,0-.14-.76,1.06,1.06,0,0,0-.39-.51A1.19,1.19,0,0,0,148.51,70.05Z"/><path class="cls-2" d="M154,69.45a1.83,1.83,0,0,1,1.3.42,1.81,1.81,0,0,1,.44,1.35v3.13H155V71.26a1.26,1.26,0,0,0-.28-.9,1.08,1.08,0,0,0-.84-.3,1.29,1.29,0,0,0-1.12.46,2.2,2.2,0,0,0-.33,1.31v2.52h-.73V69.54h.59l.11.69h0a1.45,1.45,0,0,1,.39-.43,2,2,0,0,1,.53-.26A2.11,2.11,0,0,1,154,69.45Z"/><path class="cls-2" d="M163.23,69.43a1.58,1.58,0,0,1-.17.74,1.38,1.38,0,0,1-.47.52,1.91,1.91,0,0,1-.7.28v0a1.89,1.89,0,0,1,1.15.5,1.4,1.4,0,0,1,.38,1,1.79,1.79,0,0,1-.26,1,1.69,1.69,0,0,1-.8.68,3.42,3.42,0,0,1-1.38.24,5.49,5.49,0,0,1-.94-.08,3.1,3.1,0,0,1-.83-.27V73.4a3.6,3.6,0,0,0,.87.31,3.74,3.74,0,0,0,.91.12,1.89,1.89,0,0,0,1.27-.35,1.23,1.23,0,0,0,.39-1,1,1,0,0,0-.21-.67,1.25,1.25,0,0,0-.63-.38,3.45,3.45,0,0,0-1-.12h-.64v-.63h.65a2.37,2.37,0,0,0,.89-.15,1.21,1.21,0,0,0,.55-.43,1.14,1.14,0,0,0,.19-.66.92.92,0,0,0-.32-.76,1.34,1.34,0,0,0-.88-.26,2.48,2.48,0,0,0-.63.07,2.39,2.39,0,0,0-.53.19,5.21,5.21,0,0,0-.49.29l-.37-.51a3.86,3.86,0,0,1,.86-.47,3.19,3.19,0,0,1,1.15-.19,2.12,2.12,0,0,1,1.47.45A1.45,1.45,0,0,1,163.23,69.43Z"/><path class="cls-2" d="M22.4,93.58h-.75V87.81h-2v-.66h4.79v.66h-2Z"/><path class="cls-2" d="M27.13,88.67a1.91,1.91,0,0,1,1.06.28,1.71,1.71,0,0,1,.67.76,2.55,2.55,0,0,1,.23,1.14v.46H25.77a1.92,1.92,0,0,0,.42,1.29,1.51,1.51,0,0,0,1.15.44,3.9,3.9,0,0,0,.81-.08,4.86,4.86,0,0,0,.73-.25v.64a3.58,3.58,0,0,1-.72.24,4.16,4.16,0,0,1-.85.08,2.46,2.46,0,0,1-1.21-.29,1.89,1.89,0,0,1-.8-.83A2.93,2.93,0,0,1,25,91.2a3.27,3.27,0,0,1,.26-1.34,2,2,0,0,1,1.86-1.19Zm0,.6a1.21,1.21,0,0,0-.94.38,1.79,1.79,0,0,0-.41,1.07h2.55a2,2,0,0,0-.14-.76,1,1,0,0,0-.39-.51A1.15,1.15,0,0,0,27.13,89.27Z"/><path class="cls-2" d="M31.48,91.11l-1.67-2.35h.84l1.27,1.86,1.27-1.86H34l-1.66,2.35,1.75,2.47h-.83l-1.35-2-1.36,2h-.82Z"/><path class="cls-2" d="M36.6,93.07,37,93a1.73,1.73,0,0,0,.31-.08v.57a1.79,1.79,0,0,1-.36.1,3.42,3.42,0,0,1-.44,0,1.7,1.7,0,0,1-.69-.14,1,1,0,0,1-.5-.45,1.73,1.73,0,0,1-.19-.89V89.33h-.68V89l.69-.29.29-1h.44v1.12h1.41v.57H35.84v2.84a.94.94,0,0,0,.2.67A.74.74,0,0,0,36.6,93.07Z"/><path class="cls-2" d="M42.4,91.16a3.43,3.43,0,0,1-.15,1.06,2.25,2.25,0,0,1-.44.79,2.16,2.16,0,0,1-.7.49,2.52,2.52,0,0,1-.93.17,2.31,2.31,0,0,1-.89-.17A2,2,0,0,1,38.6,93a2.29,2.29,0,0,1-.46-.79A3.42,3.42,0,0,1,38,91.16a3.07,3.07,0,0,1,.27-1.35A2,2,0,0,1,39,89a2.36,2.36,0,0,1,1.19-.29,2.17,2.17,0,0,1,1.15.3,1.93,1.93,0,0,1,.77.85A3,3,0,0,1,42.4,91.16Zm-3.66,0a3.07,3.07,0,0,0,.15,1,1.42,1.42,0,0,0,.48.66,1.39,1.39,0,0,0,.82.23,1.43,1.43,0,0,0,.83-.23,1.4,1.4,0,0,0,.47-.66,2.82,2.82,0,0,0,.16-1,2.67,2.67,0,0,0-.16-1,1.28,1.28,0,0,0-.47-.65,1.34,1.34,0,0,0-.83-.23,1.25,1.25,0,0,0-1.1.49A2.41,2.41,0,0,0,38.74,91.16Z"/><path class="cls-2" d="M47.72,93.67A1.81,1.81,0,0,1,46.27,93a2.76,2.76,0,0,1-.53-1.85,2.83,2.83,0,0,1,.54-1.88,1.8,1.8,0,0,1,1.45-.64,2.2,2.2,0,0,1,.67.1,1.77,1.77,0,0,1,.49.27,2.13,2.13,0,0,1,.35.39h0c0-.09,0-.22,0-.37a3,3,0,0,1,0-.39V86.74H50v6.84h-.59l-.11-.69h0a1.44,1.44,0,0,1-.35.39,1.57,1.57,0,0,1-.49.28A2,2,0,0,1,47.72,93.67Zm.11-.61a1.29,1.29,0,0,0,1.1-.44,2.24,2.24,0,0,0,.32-1.31v-.13a2.63,2.63,0,0,0-.31-1.41,1.19,1.19,0,0,0-1.11-.49,1.09,1.09,0,0,0-1,.52,2.48,2.48,0,0,0-.34,1.4,2.45,2.45,0,0,0,.33,1.38A1.15,1.15,0,0,0,47.83,93.06Z"/><path class="cls-2" d="M53.36,88.67a1.88,1.88,0,0,1,1.06.28,1.71,1.71,0,0,1,.67.76,2.55,2.55,0,0,1,.24,1.14v.46H52a1.92,1.92,0,0,0,.42,1.29,1.51,1.51,0,0,0,1.15.44,3.83,3.83,0,0,0,.81-.08,4.86,4.86,0,0,0,.73-.25v.64a3.38,3.38,0,0,1-.72.24,4.16,4.16,0,0,1-.85.08,2.46,2.46,0,0,1-1.21-.29,2,2,0,0,1-.8-.83,2.93,2.93,0,0,1-.29-1.35,3.27,3.27,0,0,1,.26-1.34,2,2,0,0,1,1.86-1.19Zm0,.6a1.21,1.21,0,0,0-.93.38A1.8,1.8,0,0,0,52,90.72h2.55a2.2,2.2,0,0,0-.13-.76,1.08,1.08,0,0,0-.4-.51A1.15,1.15,0,0,0,53.36,89.27Z"/><path class="cls-2" d="M31,98.67l.3,0,.28,0-.09.68-.26,0-.28,0a1.35,1.35,0,0,0-1,.45,1.79,1.79,0,0,0-.31.52,2.11,2.11,0,0,0-.11.68v2.59h-.73V98.76h.6l.08.89h0a1.88,1.88,0,0,1,.36-.49,1.6,1.6,0,0,1,.49-.36A1.52,1.52,0,0,1,31,98.67Z"/><path class="cls-2" d="M34.34,98.67A1.93,1.93,0,0,1,35.4,99a1.78,1.78,0,0,1,.67.76,2.7,2.7,0,0,1,.23,1.14v.46H33a1.82,1.82,0,0,0,.42,1.29,1.49,1.49,0,0,0,1.15.44,4,4,0,0,0,.81-.08,5.28,5.28,0,0,0,.73-.25v.64a3.66,3.66,0,0,1-.73.24,4.13,4.13,0,0,1-.84.08,2.43,2.43,0,0,1-1.21-.29,1.84,1.84,0,0,1-.8-.83,2.81,2.81,0,0,1-.29-1.35,3.27,3.27,0,0,1,.26-1.34,2,2,0,0,1,.74-.88A2.07,2.07,0,0,1,34.34,98.67Zm0,.6a1.21,1.21,0,0,0-.93.38,1.79,1.79,0,0,0-.41,1.07h2.55a2.19,2.19,0,0,0-.14-.76,1,1,0,0,0-.39-.51A1.19,1.19,0,0,0,34.33,99.27Z"/><path class="cls-2" d="M39.69,99.33H38.48v4.25h-.72V99.33H36.9V99l.86-.24v-.32a2.31,2.31,0,0,1,.18-1,1.18,1.18,0,0,1,.52-.56,1.78,1.78,0,0,1,.83-.18,2.59,2.59,0,0,1,.51,0,3.44,3.44,0,0,1,.41.11l-.19.57-.34-.09a2.33,2.33,0,0,0-.38,0,.7.7,0,0,0-.61.27,1.4,1.4,0,0,0-.21.85v.35h1.21Z"/><path class="cls-2" d="M40.46,103.12a.49.49,0,0,1,.51-.57.6.6,0,0,1,.38.13.72.72,0,0,1,0,.88.56.56,0,0,1-.38.14.52.52,0,0,1-.36-.14A.57.57,0,0,1,40.46,103.12Z"/><path class="cls-2" d="M47.66,103.58H47v-5c0-.13,0-.24,0-.34s0-.21,0-.32l-.25.24-.3.24L45.7,99l-.39-.5,1.74-1.34h.61Z"/><path class="cls-2" d="M75,93.58h-.75V87.81h-2v-.66H77v.66H75Z"/><path class="cls-2" d="M79.71,88.67a1.93,1.93,0,0,1,1.06.28,1.78,1.78,0,0,1,.67.76,2.7,2.7,0,0,1,.23,1.14v.46H78.35a1.82,1.82,0,0,0,.42,1.29,1.49,1.49,0,0,0,1.15.44,4,4,0,0,0,.81-.08,5.28,5.28,0,0,0,.73-.25v.64a3.66,3.66,0,0,1-.73.24,4.13,4.13,0,0,1-.84.08,2.43,2.43,0,0,1-1.21-.29,1.89,1.89,0,0,1-.8-.83,2.81,2.81,0,0,1-.29-1.35,3.27,3.27,0,0,1,.26-1.34,2,2,0,0,1,1.86-1.19Zm0,.6a1.21,1.21,0,0,0-.93.38,1.79,1.79,0,0,0-.41,1.07h2.55a2.19,2.19,0,0,0-.14-.76,1,1,0,0,0-.39-.51A1.19,1.19,0,0,0,79.7,89.27Z"/><path class="cls-2" d="M84.06,91.11l-1.67-2.35h.84l1.27,1.86,1.26-1.86h.83l-1.67,2.35,1.76,2.47h-.83l-1.35-2-1.36,2h-.83Z"/><path class="cls-2" d="M89.18,93.07l.37,0a1.73,1.73,0,0,0,.31-.08v.57a1.79,1.79,0,0,1-.36.1,3.42,3.42,0,0,1-.44,0,1.75,1.75,0,0,1-.7-.14,1.06,1.06,0,0,1-.49-.45,1.73,1.73,0,0,1-.19-.89V89.33H87V89l.69-.29.29-1h.44v1.12h1.41v.57H88.41v2.84a.94.94,0,0,0,.21.67A.74.74,0,0,0,89.18,93.07Z"/><path class="cls-2" d="M95,91.16a3.43,3.43,0,0,1-.15,1.06,2.25,2.25,0,0,1-.44.79,2.1,2.1,0,0,1-.71.49,2.45,2.45,0,0,1-.93.17,2.3,2.3,0,0,1-.88-.17,2,2,0,0,1-.69-.49,2.29,2.29,0,0,1-.46-.79,3.42,3.42,0,0,1-.16-1.06,3.07,3.07,0,0,1,.27-1.35A1.93,1.93,0,0,1,91.6,89a2.36,2.36,0,0,1,1.19-.29,2.17,2.17,0,0,1,1.15.3,1.93,1.93,0,0,1,.77.85A3,3,0,0,1,95,91.16Zm-3.66,0a3.07,3.07,0,0,0,.15,1,1.36,1.36,0,0,0,.48.66,1.39,1.39,0,0,0,.82.23,1.43,1.43,0,0,0,.83-.23,1.4,1.4,0,0,0,.47-.66,2.82,2.82,0,0,0,.16-1,2.67,2.67,0,0,0-.16-1,1.28,1.28,0,0,0-.47-.65,1.36,1.36,0,0,0-.83-.23,1.25,1.25,0,0,0-1.1.49A2.33,2.33,0,0,0,91.32,91.16Z"/><path class="cls-2" d="M100.3,93.67A1.79,1.79,0,0,1,98.85,93a2.76,2.76,0,0,1-.54-1.85,2.83,2.83,0,0,1,.55-1.88,1.8,1.8,0,0,1,1.45-.64,2.25,2.25,0,0,1,.67.1,1.77,1.77,0,0,1,.49.27,2.13,2.13,0,0,1,.35.39h.05c0-.09,0-.22,0-.37s0-.29,0-.39V86.74h.73v6.84H102l-.11-.69h0a1.44,1.44,0,0,1-.35.39,1.57,1.57,0,0,1-.49.28A2,2,0,0,1,100.3,93.67Zm.11-.61a1.25,1.25,0,0,0,1.09-.44,2.17,2.17,0,0,0,.32-1.31v-.13a2.74,2.74,0,0,0-.3-1.41,1.19,1.19,0,0,0-1.11-.49,1.12,1.12,0,0,0-1,.52,2.57,2.57,0,0,0-.33,1.4,2.45,2.45,0,0,0,.33,1.38A1.15,1.15,0,0,0,100.41,93.06Z"/><path class="cls-2" d="M105.94,88.67A1.93,1.93,0,0,1,107,89a1.71,1.71,0,0,1,.67.76,2.55,2.55,0,0,1,.23,1.14v.46h-3.32A1.92,1.92,0,0,0,105,92.6a1.49,1.49,0,0,0,1.15.44A4,4,0,0,0,107,93a4.86,4.86,0,0,0,.73-.25v.64a3.8,3.8,0,0,1-.72.24,4.23,4.23,0,0,1-.85.08,2.46,2.46,0,0,1-1.21-.29,1.89,1.89,0,0,1-.8-.83,2.93,2.93,0,0,1-.29-1.35,3.27,3.27,0,0,1,.26-1.34,2,2,0,0,1,1.86-1.19Zm0,.6a1.21,1.21,0,0,0-.94.38,1.79,1.79,0,0,0-.41,1.07h2.55A2,2,0,0,0,107,90a1,1,0,0,0-.39-.51A1.15,1.15,0,0,0,105.94,89.27Z"/><path class="cls-2" d="M83.57,98.67l.31,0,.28,0-.09.68-.27,0-.27,0a1.33,1.33,0,0,0-.55.12,1.45,1.45,0,0,0-.45.33,1.58,1.58,0,0,0-.3.52,2.11,2.11,0,0,0-.11.68v2.59h-.73V98.76H82l.08.89h0a2.47,2.47,0,0,1,.36-.49A1.72,1.72,0,0,1,83,98.8,1.6,1.6,0,0,1,83.57,98.67Z"/><path class="cls-2" d="M86.92,98.67A1.87,1.87,0,0,1,88,99a1.73,1.73,0,0,1,.68.76,2.7,2.7,0,0,1,.23,1.14v.46H85.55A1.87,1.87,0,0,0,86,102.6a1.49,1.49,0,0,0,1.15.44,4,4,0,0,0,.81-.08,4.76,4.76,0,0,0,.72-.25v.64a3.38,3.38,0,0,1-.72.24,4.13,4.13,0,0,1-.84.08,2.43,2.43,0,0,1-1.21-.29,1.91,1.91,0,0,1-.81-.83,2.93,2.93,0,0,1-.28-1.35,3.11,3.11,0,0,1,.26-1.34A2,2,0,0,1,85.8,99,2,2,0,0,1,86.92,98.67Zm0,.6a1.21,1.21,0,0,0-.93.38,1.79,1.79,0,0,0-.41,1.07h2.54A2,2,0,0,0,88,100a1.06,1.06,0,0,0-.39-.51A1.19,1.19,0,0,0,86.91,99.27Z"/><path class="cls-2" d="M92.26,99.33h-1.2v4.25h-.73V99.33h-.85V99l.85-.24v-.32a2.31,2.31,0,0,1,.18-1,1.2,1.2,0,0,1,.53-.56,1.76,1.76,0,0,1,.83-.18,2.59,2.59,0,0,1,.51,0,3.44,3.44,0,0,1,.41.11l-.19.57-.34-.09a2.33,2.33,0,0,0-.38,0,.73.73,0,0,0-.62.27,1.48,1.48,0,0,0-.2.85v.35h1.2Z"/><path class="cls-2" d="M93,103.12a.49.49,0,0,1,.51-.57.6.6,0,0,1,.38.13.72.72,0,0,1,0,.88.56.56,0,0,1-.38.14.52.52,0,0,1-.36-.14A.57.57,0,0,1,93,103.12Z"/><path class="cls-2" d="M101.73,103.58H97.52V103l1.72-1.75c.32-.32.59-.61.81-.86a3.45,3.45,0,0,0,.5-.74,2,2,0,0,0,.17-.81,1.07,1.07,0,0,0-.32-.83,1.21,1.21,0,0,0-.86-.29,1.89,1.89,0,0,0-.81.16,3.37,3.37,0,0,0-.73.44l-.39-.49a3.58,3.58,0,0,1,.55-.38,2.85,2.85,0,0,1,.65-.26,2.48,2.48,0,0,1,.73-.1,2.34,2.34,0,0,1,1,.21,1.41,1.41,0,0,1,.66.59,1.63,1.63,0,0,1,.24.9,2.28,2.28,0,0,1-.2.95,4.32,4.32,0,0,1-.57.87c-.24.28-.53.59-.85.91l-1.4,1.39v0h3.28Z"/><path class="cls-2" d="M130,93.58h-.75V87.81h-2v-.66H132v.66h-2Z"/><path class="cls-2" d="M134.7,88.67a1.87,1.87,0,0,1,1.05.28,1.8,1.8,0,0,1,.68.76,2.7,2.7,0,0,1,.23,1.14v.46h-3.33a1.92,1.92,0,0,0,.42,1.29,1.52,1.52,0,0,0,1.15.44,3.83,3.83,0,0,0,.81-.08,4.51,4.51,0,0,0,.73-.25v.64a3.38,3.38,0,0,1-.72.24,4.16,4.16,0,0,1-.85.08,2.49,2.49,0,0,1-1.21-.29,2,2,0,0,1-.8-.83,2.93,2.93,0,0,1-.28-1.35,3.11,3.11,0,0,1,.26-1.34,2,2,0,0,1,.74-.88A2,2,0,0,1,134.7,88.67Zm0,.6a1.21,1.21,0,0,0-.93.38,1.86,1.86,0,0,0-.42,1.07h2.55a2,2,0,0,0-.13-.76,1.08,1.08,0,0,0-.4-.51A1.15,1.15,0,0,0,134.69,89.27Z"/><path class="cls-2" d="M139,91.11l-1.66-2.35h.83l1.27,1.86,1.27-1.86h.83l-1.67,2.35,1.76,2.47h-.84l-1.35-2-1.35,2h-.83Z"/><path class="cls-2" d="M144.16,93.07a2.31,2.31,0,0,0,.37,0,1.53,1.53,0,0,0,.31-.08v.57a1.51,1.51,0,0,1-.35.1,3.42,3.42,0,0,1-.45,0,1.74,1.74,0,0,1-.69-.14,1.08,1.08,0,0,1-.5-.45,1.85,1.85,0,0,1-.18-.89V89.33H142V89l.69-.29.29-1h.44v1.12h1.41v.57H143.4v2.84a.94.94,0,0,0,.21.67A.72.72,0,0,0,144.16,93.07Z"/><path class="cls-2" d="M150,91.16a3.15,3.15,0,0,1-.16,1.06,2.25,2.25,0,0,1-.44.79,2.06,2.06,0,0,1-.7.49,2.45,2.45,0,0,1-.93.17,2.26,2.26,0,0,1-.88-.17,2.16,2.16,0,0,1-.7-.49,2.43,2.43,0,0,1-.45-.79,3.15,3.15,0,0,1-.16-1.06,3.07,3.07,0,0,1,.27-1.35,1.91,1.91,0,0,1,.76-.85,2.38,2.38,0,0,1,1.19-.29,2.2,2.2,0,0,1,1.16.3,1.91,1.91,0,0,1,.76.85A2.91,2.91,0,0,1,150,91.16Zm-3.67,0a3.06,3.06,0,0,0,.16,1,1.4,1.4,0,0,0,.47.66,1.43,1.43,0,0,0,.83.23,1.39,1.39,0,0,0,.82-.23,1.36,1.36,0,0,0,.48-.66,3.07,3.07,0,0,0,.15-1,2.9,2.9,0,0,0-.15-1,1.24,1.24,0,0,0-.48-.65,1.34,1.34,0,0,0-.83-.23,1.26,1.26,0,0,0-1.1.49A2.41,2.41,0,0,0,146.3,91.16Z"/><path class="cls-2" d="M155.28,93.67a1.81,1.81,0,0,1-1.45-.63,2.81,2.81,0,0,1-.53-1.85,2.78,2.78,0,0,1,.55-1.88,1.78,1.78,0,0,1,1.44-.64,2.2,2.2,0,0,1,.67.1,1.64,1.64,0,0,1,.49.27,1.82,1.82,0,0,1,.35.39h.06a2.78,2.78,0,0,1,0-.37c0-.16,0-.29,0-.39V86.74h.73v6.84h-.59l-.11-.69h0a1.41,1.41,0,0,1-.34.39,1.62,1.62,0,0,1-.5.28A2,2,0,0,1,155.28,93.67Zm.12-.61a1.27,1.27,0,0,0,1.09-.44,2.24,2.24,0,0,0,.32-1.31v-.13a2.74,2.74,0,0,0-.3-1.41,1.21,1.21,0,0,0-1.11-.49,1.11,1.11,0,0,0-1,.52,2.57,2.57,0,0,0-.33,1.4,2.45,2.45,0,0,0,.33,1.38A1.13,1.13,0,0,0,155.4,93.06Z"/><path class="cls-2" d="M160.93,88.67a1.87,1.87,0,0,1,1,.28,1.73,1.73,0,0,1,.68.76,2.7,2.7,0,0,1,.23,1.14v.46h-3.33A1.92,1.92,0,0,0,160,92.6a1.53,1.53,0,0,0,1.16.44,3.8,3.8,0,0,0,.8-.08,4.51,4.51,0,0,0,.73-.25v.64a3.38,3.38,0,0,1-.72.24,4.13,4.13,0,0,1-.84.08,2.5,2.5,0,0,1-1.22-.29,2,2,0,0,1-.8-.83,2.93,2.93,0,0,1-.28-1.35,3.11,3.11,0,0,1,.26-1.34,2,2,0,0,1,.74-.88A2,2,0,0,1,160.93,88.67Zm0,.6a1.21,1.21,0,0,0-.93.38,1.79,1.79,0,0,0-.41,1.07h2.54A2,2,0,0,0,162,90a1.13,1.13,0,0,0-.39-.51A1.21,1.21,0,0,0,160.92,89.27Z"/><path class="cls-2" d="M138.56,98.67l.3,0,.29,0-.1.68-.26,0-.27,0a1.26,1.26,0,0,0-.55.12,1.45,1.45,0,0,0-.45.33,1.58,1.58,0,0,0-.3.52,1.87,1.87,0,0,0-.11.68v2.59h-.74V98.76H137l.08.89h0a2.47,2.47,0,0,1,.36-.49,1.6,1.6,0,0,1,.49-.36A1.52,1.52,0,0,1,138.56,98.67Z"/><path class="cls-2" d="M141.91,98.67A1.87,1.87,0,0,1,143,99a1.71,1.71,0,0,1,.67.76,2.55,2.55,0,0,1,.24,1.14v.46h-3.33a1.92,1.92,0,0,0,.42,1.29,1.51,1.51,0,0,0,1.15.44,3.83,3.83,0,0,0,.81-.08,4.51,4.51,0,0,0,.73-.25v.64a3.38,3.38,0,0,1-.72.24,4.16,4.16,0,0,1-.85.08,2.46,2.46,0,0,1-1.21-.29,2,2,0,0,1-.8-.83,2.93,2.93,0,0,1-.29-1.35,3.27,3.27,0,0,1,.26-1.34,2.07,2.07,0,0,1,.74-.88A2.1,2.1,0,0,1,141.91,98.67Zm0,.6a1.21,1.21,0,0,0-.93.38,1.8,1.8,0,0,0-.42,1.07h2.55A2.2,2.2,0,0,0,143,100a1.08,1.08,0,0,0-.4-.51A1.15,1.15,0,0,0,141.9,99.27Z"/><path class="cls-2" d="M147.25,99.33h-1.2v4.25h-.73V99.33h-.85V99l.85-.24v-.32a2.31,2.31,0,0,1,.18-1,1.18,1.18,0,0,1,.52-.56,1.8,1.8,0,0,1,.84-.18,2.57,2.57,0,0,1,.5,0,3,3,0,0,1,.41.11l-.19.57-.33-.09a2.45,2.45,0,0,0-.38,0,.72.72,0,0,0-.62.27,1.4,1.4,0,0,0-.2.85v.35h1.2Z"/><path class="cls-2" d="M148,103.12a.54.54,0,0,1,.89-.44.68.68,0,0,1,0,.88.56.56,0,0,1-.74,0A.57.57,0,0,1,148,103.12Z"/><path class="cls-2" d="M156.48,98.65a1.6,1.6,0,0,1-.16.75,1.44,1.44,0,0,1-.47.51,1.75,1.75,0,0,1-.7.28v0a1.83,1.83,0,0,1,1.14.49,1.41,1.41,0,0,1,.39,1,1.92,1.92,0,0,1-.26,1,1.78,1.78,0,0,1-.8.67,3.4,3.4,0,0,1-1.38.25,4.62,4.62,0,0,1-.94-.09,3,3,0,0,1-.83-.27v-.68a4.71,4.71,0,0,0,.87.31,4.18,4.18,0,0,0,.91.11,1.89,1.89,0,0,0,1.27-.35,1.21,1.21,0,0,0,.39-1,1,1,0,0,0-.22-.68,1.24,1.24,0,0,0-.62-.38,3.5,3.5,0,0,0-1-.12h-.64V100h.65a2.13,2.13,0,0,0,.88-.16,1.18,1.18,0,0,0,.56-.43,1.14,1.14,0,0,0,.19-.66.91.91,0,0,0-.32-.75,1.37,1.37,0,0,0-.89-.27,2.4,2.4,0,0,0-.62.07,2.76,2.76,0,0,0-.53.19c-.16.09-.33.18-.49.29l-.37-.5a3.32,3.32,0,0,1,.86-.47,3.13,3.13,0,0,1,1.14-.2,2.13,2.13,0,0,1,1.48.45A1.47,1.47,0,0,1,156.48,98.65Z"/></g></g></svg>