<?xml version="1.0" encoding="UTF-8"?><svg xmlns="http://www.w3.org/2000/svg" viewBox="0 0 175.31 109.09"><g id="a"/><g id="b"><g id="c"><g><rect y="12.55" width="175.31" height="96.53" fill="#ebebeb"/><g><g><path d="M71.99,28.41h-.75v-5.65h-2.02v-.65h4.79v.65h-2.01v5.65Z" fill="#a8a9aa"/><path d="M76.51,21.65v.09c-.06,.08-.14,.18-.24,.3-.1,.12-.21,.24-.34,.37s-.25,.25-.37,.36c-.12,.12-.24,.21-.34,.3h-.49v-.1c.09-.11,.2-.24,.31-.39s.22-.31,.33-.47c.11-.16,.19-.31,.26-.44h.88Zm-.91,6.76h-.73v-4.72h.73v4.72Z" fill="#a8a9aa"/><path d="M78.7,27.91c.12,0,.24,0,.37-.03,.13-.02,.23-.04,.31-.07v.56c-.09,.04-.2,.07-.35,.09-.15,.03-.3,.04-.44,.04-.25,0-.49-.04-.69-.13s-.37-.24-.5-.45c-.12-.21-.19-.5-.19-.87v-2.8h-.69v-.35l.69-.28,.29-1.03h.44v1.09h1.41v.56h-1.41v2.78c0,.3,.07,.52,.21,.66,.14,.15,.32,.22,.56,.22Z" fill="#a8a9aa"/><path d="M84.32,23.69v4.72h-.6l-.11-.66h-.04c-.1,.16-.23,.3-.39,.41s-.34,.2-.53,.25c-.2,.06-.41,.08-.63,.08-.38,0-.7-.06-.96-.18s-.45-.31-.58-.56c-.13-.25-.2-.58-.2-.97v-3.09h.74v3.04c0,.39,.09,.69,.27,.88s.46,.29,.83,.29,.64-.07,.85-.2c.21-.13,.37-.33,.46-.58,.09-.26,.14-.57,.14-.95v-2.49h.73Z" fill="#a8a9aa"/><path d="M86.6,28.41h-.73v-6.7h.73v6.7Z" fill="#a8a9aa"/><path d="M92.29,26.04c0,.39-.05,.73-.15,1.04-.1,.3-.25,.56-.44,.77-.19,.21-.43,.37-.7,.48-.27,.11-.58,.17-.93,.17-.32,0-.62-.06-.88-.17-.27-.11-.5-.27-.69-.48-.2-.21-.35-.47-.45-.77-.11-.3-.16-.65-.16-1.04,0-.52,.09-.96,.27-1.32,.18-.36,.43-.64,.77-.83,.33-.19,.73-.29,1.19-.29s.82,.1,1.15,.29c.33,.19,.59,.47,.77,.83,.18,.36,.27,.8,.27,1.32Zm-3.67,0c0,.38,.05,.71,.15,.99,.1,.28,.26,.49,.47,.65s.49,.23,.83,.23,.61-.08,.82-.23c.22-.15,.37-.37,.48-.65,.1-.28,.15-.61,.15-.99s-.05-.7-.15-.98-.26-.49-.47-.64c-.21-.15-.49-.22-.83-.22-.5,0-.87,.16-1.1,.49-.23,.32-.35,.77-.35,1.35Z" fill="#a8a9aa"/></g><path d="M103.49,30.8l-.85-2.73h-4.27l-.85,2.73h-2.67l4.13-11.52h3.03l4.15,11.52h-2.67Zm-1.44-4.77l-.85-2.67c-.05-.18-.12-.41-.21-.69-.09-.28-.18-.57-.26-.86-.09-.29-.16-.54-.21-.76-.05,.21-.13,.48-.22,.8-.09,.32-.18,.62-.27,.9-.09,.28-.15,.48-.18,.6l-.84,2.67h3.05Z" fill="#a8a9aa"/></g><g><path d="M14.62,.45c.92,0,1.59,.19,2.02,.56s.63,.89,.63,1.56c0,.3-.05,.59-.14,.86-.1,.27-.25,.51-.47,.73-.22,.21-.51,.38-.86,.5-.36,.12-.8,.18-1.32,.18h-.76v2.62h-1.17V.45h2.08Zm-.08,.96h-.83V3.87h.64c.37,0,.68-.04,.93-.13,.26-.08,.45-.22,.58-.4s.2-.43,.2-.73c0-.41-.12-.71-.37-.91-.25-.2-.63-.3-1.16-.3Z" fill="#386bfb"/><path d="M19.73,7.45h-1.16V0h1.16V7.45Z" fill="#386bfb"/><path d="M23.48,2.05c.68,0,1.2,.15,1.55,.45,.35,.3,.52,.76,.52,1.39v3.57h-.82l-.22-.75h-.04c-.15,.19-.31,.35-.47,.48s-.35,.22-.56,.28c-.21,.06-.47,.09-.78,.09-.33,0-.62-.06-.87-.17s-.45-.29-.6-.53c-.14-.24-.22-.54-.22-.91,0-.55,.21-.96,.62-1.23,.41-.27,1.04-.43,1.88-.45l.93-.03v-.28c0-.36-.09-.62-.26-.78-.17-.16-.42-.23-.73-.23-.27,0-.53,.04-.79,.11s-.5,.17-.74,.28l-.38-.79c.27-.14,.57-.25,.91-.33,.34-.09,.69-.13,1.05-.13Zm.93,2.87l-.69,.03c-.57,.02-.97,.11-1.21,.28-.23,.17-.35,.41-.35,.71,0,.26,.08,.45,.24,.57s.37,.18,.63,.18c.4,0,.73-.11,.99-.33,.26-.22,.39-.55,.39-.97v-.46Z" fill="#386bfb"/><path d="M29.98,2.05c.61,0,1.08,.15,1.42,.46,.34,.31,.51,.8,.51,1.48v3.46h-1.15v-3.25c0-.41-.09-.72-.26-.92s-.44-.31-.8-.31c-.52,0-.89,.16-1.09,.47-.2,.32-.31,.77-.31,1.37v2.63h-1.15V2.15h.9l.16,.72h.06c.12-.19,.26-.34,.44-.46,.17-.12,.37-.21,.59-.27,.22-.06,.44-.09,.68-.09Z" fill="#386bfb"/><path d="M35.53,6.64c.15,0,.3-.01,.44-.04,.15-.03,.28-.06,.4-.1v.85c-.13,.05-.29,.1-.49,.14-.2,.04-.41,.06-.63,.06-.31,0-.58-.05-.83-.15s-.44-.27-.58-.52c-.14-.25-.21-.59-.21-1.02V3.01h-.74v-.5l.79-.4,.38-1.13h.72v1.18h1.55v.86h-1.55v2.83c0,.27,.07,.47,.21,.6s.32,.2,.54,.2Z" fill="#386bfb"/><path d="M38.05,.12c.18,0,.33,.05,.46,.14,.13,.09,.19,.25,.19,.48s-.06,.38-.19,.48c-.13,.1-.28,.14-.46,.14s-.34-.05-.46-.14c-.13-.1-.19-.25-.19-.48s.06-.39,.19-.48c.13-.09,.28-.14,.46-.14Zm.57,2.03V7.45h-1.15V2.15h1.15Z" fill="#386bfb"/><path d="M41.41,7.45h-1.16V0h1.16V7.45Z" fill="#386bfb"/><path d="M44.2,7.45h-1.16V0h1.16V7.45Z" fill="#386bfb"/><path d="M47.95,2.05c.68,0,1.2,.15,1.55,.45,.35,.3,.52,.76,.52,1.39v3.57h-.82l-.22-.75h-.04c-.15,.19-.31,.35-.47,.48s-.35,.22-.56,.28c-.21,.06-.47,.09-.78,.09-.33,0-.62-.06-.87-.17s-.45-.29-.6-.53c-.14-.24-.22-.54-.22-.91,0-.55,.21-.96,.62-1.23,.41-.27,1.04-.43,1.88-.45l.93-.03v-.28c0-.36-.09-.62-.26-.78-.17-.16-.42-.23-.73-.23-.27,0-.53,.04-.79,.11s-.5,.17-.74,.28l-.38-.79c.27-.14,.57-.25,.91-.33,.34-.09,.69-.13,1.05-.13Zm.93,2.87l-.69,.03c-.57,.02-.97,.11-1.21,.28-.23,.17-.35,.41-.35,.71,0,.26,.08,.45,.24,.57s.37,.18,.63,.18c.4,0,.73-.11,.99-.33,.26-.22,.39-.55,.39-.97v-.46Z" fill="#386bfb"/><path d="M53.87,4.47c0-.41,.03-.82,.09-1.21,.06-.4,.16-.77,.31-1.12s.35-.66,.61-.92c.26-.27,.59-.48,.98-.63,.39-.15,.87-.23,1.42-.23,.14,0,.3,0,.48,.02s.33,.03,.44,.06v.93c-.13-.04-.27-.06-.42-.08-.15-.02-.3-.03-.45-.03-.6,0-1.07,.11-1.4,.33-.33,.22-.57,.52-.72,.91-.14,.38-.23,.82-.25,1.32h.06c.1-.16,.22-.3,.37-.43s.33-.22,.54-.3c.21-.07,.46-.11,.74-.11,.42,0,.78,.09,1.09,.26,.31,.17,.55,.42,.71,.74,.17,.32,.25,.71,.25,1.17,0,.5-.1,.92-.29,1.28-.19,.36-.46,.63-.81,.82-.35,.19-.77,.29-1.25,.29-.36,0-.69-.06-.99-.19-.3-.13-.57-.32-.79-.57-.23-.26-.4-.58-.53-.96-.13-.38-.19-.84-.19-1.36Zm2.49,2.15c.37,0,.67-.12,.89-.36,.23-.24,.34-.6,.34-1.09,0-.4-.1-.71-.3-.95s-.5-.35-.9-.35c-.27,0-.51,.06-.71,.17s-.36,.26-.48,.43c-.11,.17-.17,.35-.17,.53s.03,.37,.08,.56c.06,.19,.14,.36,.25,.52,.11,.16,.25,.29,.42,.38s.36,.14,.58,.14Z" fill="#386bfb"/></g><g><g><path d="M23.99,59.6v-19.79c.02-.08,.05-.15,.06-.23,.4-1.57,1.89-2.54,3.37-2.54,6.33,.02,12.66,0,18.99,.01,1.86,0,3.36,1.47,3.36,3.29,0,6.23,0,12.47,0,18.7,0,.94-.36,1.72-1.03,2.38-.5,.49-1.11,.75-1.78,.91H26.78c-.37-.1-.74-.2-1.07-.39-.94-.53-1.48-1.33-1.72-2.35Zm23.99-9.04c.06-.05,.04-.12,.04-.17,0-3.31,0-6.61,0-9.92,0-1.01-.7-1.69-1.73-1.69-6.27,0-12.54,0-18.81,0-.32,0-.64,.06-.93,.23-.6,.35-.82,.9-.82,1.56,0,3.19,0,6.38,0,9.58,0,.08-.03,.17,.05,.27,.08-.06,.16-.11,.23-.17,2.12-1.63,4.24-3.25,6.36-4.88,1.05-.81,2.05-.73,2.97,.22,1.65,1.72,3.29,3.44,4.93,5.17,.15,.16,.23,.15,.38,0,.72-.77,1.45-1.53,2.18-2.29,.86-.89,2.05-.91,2.94-.04,.67,.65,1.32,1.31,1.99,1.96,.07,.07,.12,.16,.22,.17Z" fill="#a8a9aa"/><path d="M38.69,44.7c0-.94,.78-1.7,1.74-1.7,.94,0,1.72,.77,1.72,1.69,0,.91-.78,1.69-1.72,1.7-.94,.01-1.75-.77-1.75-1.7Z" fill="#a8a9aa"/></g><g><path d="M18.37,73.48v-6.3h.75v6.3h-.75Z" fill="#a8a9aa"/><path d="M26,68.67c.53,0,.93,.14,1.2,.41,.27,.27,.4,.71,.4,1.31v3.09h-.72v-3.06c0-.38-.08-.67-.25-.86-.17-.19-.42-.29-.75-.29-.47,0-.8,.13-1.01,.4s-.32,.65-.32,1.17v2.64h-.73v-3.06c0-.26-.04-.47-.11-.64-.07-.17-.19-.3-.33-.38-.15-.08-.33-.13-.56-.13-.32,0-.58,.06-.77,.19s-.33,.32-.42,.58c-.09,.25-.13,.57-.13,.94v2.5h-.73v-4.72h.59l.11,.67h.04c.1-.16,.22-.3,.36-.41,.15-.11,.31-.2,.49-.25,.18-.06,.38-.09,.58-.09,.37,0,.67,.07,.92,.2,.25,.13,.43,.34,.54,.61h.04c.16-.27,.37-.48,.65-.61,.27-.13,.58-.2,.9-.2Z" fill="#a8a9aa"/><path d="M30.9,68.68c.57,0,1,.13,1.28,.38s.42,.66,.42,1.21v3.21h-.53l-.14-.7h-.04c-.13,.17-.28,.32-.42,.43-.15,.12-.32,.2-.51,.26-.19,.06-.43,.09-.71,.09-.29,0-.55-.05-.78-.15-.23-.1-.41-.25-.54-.46-.13-.2-.2-.46-.2-.78,0-.47,.19-.83,.57-1.09,.38-.25,.96-.39,1.74-.41l.83-.03v-.29c0-.41-.09-.69-.27-.86-.18-.16-.43-.25-.76-.25-.25,0-.49,.04-.72,.11s-.45,.16-.65,.25l-.22-.54c.22-.11,.47-.2,.75-.28,.28-.08,.58-.12,.89-.12Zm.98,2.47l-.73,.03c-.6,.02-1.02,.12-1.27,.29s-.37,.41-.37,.72c0,.27,.08,.47,.25,.6,.17,.13,.39,.19,.66,.19,.43,0,.78-.12,1.05-.35,.27-.23,.41-.58,.41-1.05v-.44Z" fill="#a8a9aa"/><path d="M35.45,75.6c-.63,0-1.12-.12-1.46-.35-.34-.23-.51-.56-.51-.97,0-.3,.1-.55,.29-.76,.19-.21,.46-.35,.8-.42-.13-.06-.23-.14-.32-.26-.09-.11-.13-.25-.13-.4,0-.17,.05-.32,.15-.45,.1-.13,.25-.26,.45-.38-.25-.1-.46-.27-.61-.51-.16-.24-.24-.52-.24-.84,0-.34,.07-.63,.22-.87,.14-.24,.35-.42,.62-.55,.27-.13,.6-.19,.99-.19,.08,0,.17,0,.26,.01,.09,0,.17,.02,.25,.03,.08,.01,.15,.03,.21,.05h1.65v.46l-.89,.11c.09,.11,.16,.25,.22,.41,.06,.16,.09,.33,.09,.53,0,.47-.16,.85-.49,1.12s-.77,.42-1.34,.42c-.14,0-.27-.01-.41-.03-.14,.08-.25,.16-.33,.26-.07,.09-.11,.2-.11,.33,0,.09,.03,.17,.09,.22,.06,.05,.14,.09,.25,.12s.24,.04,.39,.04h.85c.52,0,.93,.11,1.21,.32,.28,.22,.42,.53,.42,.94,0,.52-.22,.92-.65,1.2-.43,.28-1.06,.42-1.88,.42Zm.02-.56c.4,0,.73-.04,.99-.12,.26-.08,.46-.19,.59-.34,.13-.15,.2-.32,.2-.53,0-.19-.04-.33-.13-.43s-.22-.16-.39-.19c-.17-.03-.38-.05-.62-.05h-.83c-.22,0-.41,.03-.57,.1-.16,.07-.29,.16-.37,.29-.09,.13-.13,.29-.13,.48,0,.26,.11,.45,.33,.58,.22,.13,.53,.2,.94,.2Zm.19-3.77c.35,0,.61-.09,.79-.26s.26-.42,.26-.75c0-.35-.09-.62-.27-.79-.18-.18-.44-.27-.79-.27s-.59,.09-.77,.27c-.18,.18-.27,.45-.27,.8,0,.32,.09,.57,.27,.74s.44,.26,.78,.26Z" fill="#a8a9aa"/><path d="M40.84,68.67c.41,0,.76,.09,1.05,.27s.52,.43,.67,.75,.23,.69,.23,1.12v.44h-3.33c0,.55,.15,.98,.42,1.27,.27,.29,.66,.44,1.15,.44,.3,0,.57-.03,.81-.08s.48-.13,.73-.24v.63c-.24,.11-.48,.18-.72,.23-.24,.05-.52,.07-.85,.07-.46,0-.87-.09-1.21-.28-.34-.19-.61-.46-.8-.82-.19-.36-.29-.8-.29-1.32s.09-.95,.26-1.32c.17-.37,.42-.66,.74-.86,.32-.2,.69-.3,1.12-.3Zm0,.59c-.39,0-.7,.12-.93,.37-.23,.25-.37,.6-.41,1.05h2.55c0-.28-.05-.53-.13-.74-.09-.21-.22-.38-.39-.5s-.4-.18-.68-.18Z" fill="#a8a9aa"/><path d="M46.32,68.67c.57,0,1,.14,1.3,.41,.29,.27,.44,.71,.44,1.32v3.08h-.72v-3.03c0-.39-.09-.69-.27-.88-.18-.2-.46-.29-.84-.29-.53,0-.91,.15-1.12,.44-.22,.3-.33,.73-.33,1.29v2.47h-.73v-4.72h.59l.11,.68h.04c.1-.17,.23-.31,.39-.42,.16-.11,.33-.2,.53-.26,.2-.06,.4-.09,.62-.09Z" fill="#a8a9aa"/><path d="M54.29,73.48h-.71v-4.46c0-.17,0-.32,0-.44,0-.12,0-.23,0-.34,0-.1,.01-.21,.02-.31-.09,.09-.18,.17-.25,.23s-.18,.14-.29,.24l-.73,.58-.38-.49,1.74-1.31h.61v6.3Z" fill="#a8a9aa"/></g></g><g><g><path d="M78.17,59.6v-19.79c.02-.08,.05-.15,.06-.23,.4-1.57,1.89-2.54,3.37-2.54,6.33,.02,12.66,0,18.99,.01,1.86,0,3.36,1.47,3.36,3.29,0,6.23,0,12.47,0,18.7,0,.94-.36,1.72-1.03,2.38-.5,.49-1.11,.75-1.78,.91h-20.18c-.37-.1-.74-.2-1.07-.39-.94-.53-1.48-1.33-1.72-2.35Zm23.99-9.04c.06-.05,.04-.12,.04-.17,0-3.31,0-6.61,0-9.92,0-1.01-.7-1.69-1.73-1.69-6.27,0-12.54,0-18.81,0-.32,0-.64,.06-.93,.23-.6,.35-.82,.9-.82,1.56,0,3.19,0,6.38,0,9.58,0,.08-.03,.17,.05,.27,.08-.06,.16-.11,.23-.17,2.12-1.63,4.24-3.25,6.36-4.88,1.05-.81,2.05-.73,2.97,.22,1.65,1.72,3.29,3.44,4.93,5.17,.15,.16,.23,.15,.38,0,.72-.77,1.45-1.53,2.18-2.29,.86-.89,2.05-.91,2.94-.04,.67,.65,1.32,1.31,1.99,1.96,.07,.07,.12,.16,.22,.17Z" fill="#a8a9aa"/><path d="M92.87,44.7c0-.94,.78-1.7,1.74-1.7,.94,0,1.72,.77,1.72,1.69,0,.91-.78,1.69-1.72,1.7-.94,.01-1.75-.77-1.75-1.7Z" fill="#a8a9aa"/></g><g><path d="M72.55,73.48v-6.3h.75v6.3h-.75Z" fill="#a8a9aa"/><path d="M80.18,68.67c.53,0,.93,.14,1.2,.41,.27,.27,.4,.71,.4,1.31v3.09h-.72v-3.06c0-.38-.08-.67-.25-.86-.17-.19-.42-.29-.75-.29-.47,0-.8,.13-1.01,.4s-.32,.65-.32,1.17v2.64h-.73v-3.06c0-.26-.04-.47-.11-.64-.07-.17-.19-.3-.33-.38-.15-.08-.33-.13-.56-.13-.32,0-.58,.06-.77,.19s-.33,.32-.42,.58c-.09,.25-.13,.57-.13,.94v2.5h-.73v-4.72h.59l.11,.67h.04c.1-.16,.22-.3,.36-.41,.15-.11,.31-.2,.49-.25,.18-.06,.38-.09,.58-.09,.37,0,.67,.07,.92,.2,.25,.13,.43,.34,.54,.61h.04c.16-.27,.37-.48,.65-.61,.27-.13,.58-.2,.9-.2Z" fill="#a8a9aa"/><path d="M85.09,68.68c.57,0,1,.13,1.28,.38s.42,.66,.42,1.21v3.21h-.53l-.14-.7h-.04c-.13,.17-.28,.32-.42,.43-.15,.12-.32,.2-.51,.26-.19,.06-.43,.09-.71,.09-.29,0-.55-.05-.78-.15-.23-.1-.41-.25-.54-.46-.13-.2-.2-.46-.2-.78,0-.47,.19-.83,.57-1.09,.38-.25,.96-.39,1.74-.41l.83-.03v-.29c0-.41-.09-.69-.27-.86-.18-.16-.43-.25-.76-.25-.25,0-.49,.04-.72,.11s-.45,.16-.65,.25l-.22-.54c.22-.11,.47-.2,.75-.28,.28-.08,.58-.12,.89-.12Zm.98,2.47l-.73,.03c-.6,.02-1.02,.12-1.27,.29s-.37,.41-.37,.72c0,.27,.08,.47,.25,.6,.17,.13,.39,.19,.66,.19,.43,0,.78-.12,1.05-.35,.27-.23,.41-.58,.41-1.05v-.44Z" fill="#a8a9aa"/><path d="M89.63,75.6c-.63,0-1.12-.12-1.46-.35-.34-.23-.51-.56-.51-.97,0-.3,.1-.55,.29-.76,.19-.21,.46-.35,.8-.42-.13-.06-.23-.14-.32-.26-.09-.11-.13-.25-.13-.4,0-.17,.05-.32,.15-.45,.1-.13,.25-.26,.45-.38-.25-.1-.46-.27-.61-.51-.16-.24-.24-.52-.24-.84,0-.34,.07-.63,.22-.87,.14-.24,.35-.42,.62-.55,.27-.13,.6-.19,.99-.19,.08,0,.17,0,.26,.01,.09,0,.17,.02,.25,.03,.08,.01,.15,.03,.21,.05h1.65v.46l-.89,.11c.09,.11,.16,.25,.22,.41,.06,.16,.09,.33,.09,.53,0,.47-.16,.85-.49,1.12s-.77,.42-1.34,.42c-.14,0-.27-.01-.41-.03-.14,.08-.25,.16-.33,.26-.07,.09-.11,.2-.11,.33,0,.09,.03,.17,.09,.22,.06,.05,.14,.09,.25,.12s.24,.04,.39,.04h.85c.52,0,.93,.11,1.21,.32,.28,.22,.42,.53,.42,.94,0,.52-.22,.92-.65,1.2-.43,.28-1.06,.42-1.88,.42Zm.02-.56c.4,0,.73-.04,.99-.12,.26-.08,.46-.19,.59-.34,.13-.15,.2-.32,.2-.53,0-.19-.04-.33-.13-.43s-.22-.16-.39-.19c-.17-.03-.38-.05-.62-.05h-.83c-.22,0-.41,.03-.57,.1-.16,.07-.29,.16-.37,.29-.09,.13-.13,.29-.13,.48,0,.26,.11,.45,.33,.58,.22,.13,.53,.2,.94,.2Zm.19-3.77c.35,0,.61-.09,.79-.26s.26-.42,.26-.75c0-.35-.09-.62-.27-.79-.18-.18-.44-.27-.79-.27s-.59,.09-.77,.27c-.18,.18-.27,.45-.27,.8,0,.32,.09,.57,.27,.74s.44,.26,.78,.26Z" fill="#a8a9aa"/><path d="M95.03,68.67c.41,0,.76,.09,1.05,.27s.52,.43,.67,.75,.23,.69,.23,1.12v.44h-3.33c0,.55,.15,.98,.42,1.27,.27,.29,.66,.44,1.15,.44,.3,0,.57-.03,.81-.08s.48-.13,.73-.24v.63c-.24,.11-.48,.18-.72,.23-.24,.05-.52,.07-.85,.07-.46,0-.87-.09-1.21-.28-.34-.19-.61-.46-.8-.82-.19-.36-.29-.8-.29-1.32s.09-.95,.26-1.32c.17-.37,.42-.66,.74-.86,.32-.2,.69-.3,1.12-.3Zm0,.59c-.39,0-.7,.12-.93,.37-.23,.25-.37,.6-.41,1.05h2.55c0-.28-.05-.53-.13-.74-.09-.21-.22-.38-.39-.5s-.4-.18-.68-.18Z" fill="#a8a9aa"/><path d="M100.51,68.67c.57,0,1,.14,1.3,.41,.29,.27,.44,.71,.44,1.32v3.08h-.72v-3.03c0-.39-.09-.69-.27-.88-.18-.2-.46-.29-.84-.29-.53,0-.91,.15-1.12,.44-.22,.3-.33,.73-.33,1.29v2.47h-.73v-4.72h.59l.11,.68h.04c.1-.17,.23-.31,.39-.42,.16-.11,.33-.2,.53-.26,.2-.06,.4-.09,.62-.09Z" fill="#a8a9aa"/><path d="M109.97,73.48h-4.21v-.6l1.72-1.71c.32-.32,.59-.6,.81-.84,.22-.25,.38-.49,.5-.73,.12-.24,.17-.5,.17-.79,0-.36-.11-.63-.32-.82-.21-.19-.5-.28-.85-.28-.31,0-.58,.05-.82,.16-.24,.1-.48,.25-.73,.44l-.39-.48c.17-.14,.36-.27,.56-.38,.2-.11,.42-.2,.65-.26,.23-.06,.47-.09,.74-.09,.4,0,.74,.07,1.02,.2,.29,.14,.51,.33,.67,.58,.16,.25,.24,.55,.24,.89s-.07,.64-.2,.93c-.13,.29-.32,.57-.57,.85-.24,.28-.53,.58-.85,.89l-1.4,1.37v.03h3.28v.65Z" fill="#a8a9aa"/></g></g><g><g><path d="M130.23,59.6v-19.79c.02-.08,.05-.15,.06-.23,.4-1.57,1.89-2.54,3.37-2.54,6.33,.02,12.66,0,18.99,.01,1.86,0,3.36,1.47,3.36,3.29,0,6.23,0,12.47,0,18.7,0,.94-.36,1.72-1.03,2.38-.5,.49-1.11,.75-1.78,.91h-20.18c-.37-.1-.74-.2-1.07-.39-.94-.53-1.48-1.33-1.72-2.35Zm23.99-9.04c.06-.05,.04-.12,.04-.17,0-3.31,0-6.61,0-9.92,0-1.01-.7-1.69-1.73-1.69-6.27,0-12.54,0-18.81,0-.32,0-.64,.06-.93,.23-.6,.35-.82,.9-.82,1.56,0,3.19,0,6.38,0,9.58,0,.08-.03,.17,.05,.27,.08-.06,.16-.11,.23-.17,2.12-1.63,4.24-3.25,6.36-4.88,1.05-.81,2.05-.73,2.97,.22,1.65,1.72,3.29,3.44,4.93,5.17,.15,.16,.23,.15,.38,0,.72-.77,1.45-1.53,2.18-2.29,.86-.89,2.05-.91,2.94-.04,.67,.65,1.32,1.31,1.99,1.96,.07,.07,.12,.16,.22,.17Z" fill="#a8a9aa"/><path d="M144.93,44.7c0-.94,.78-1.7,1.74-1.7,.94,0,1.72,.77,1.72,1.69,0,.91-.78,1.69-1.72,1.7-.94,.01-1.75-.77-1.75-1.7Z" fill="#a8a9aa"/></g><g><path d="M124.61,73.48v-6.3h.75v6.3h-.75Z" fill="#a8a9aa"/><path d="M132.25,68.67c.53,0,.93,.14,1.2,.41,.27,.27,.4,.71,.4,1.31v3.09h-.72v-3.06c0-.38-.08-.67-.25-.86-.17-.19-.42-.29-.75-.29-.47,0-.8,.13-1.01,.4s-.32,.65-.32,1.17v2.64h-.73v-3.06c0-.26-.04-.47-.11-.64-.07-.17-.19-.3-.33-.38-.15-.08-.33-.13-.56-.13-.32,0-.58,.06-.77,.19s-.33,.32-.42,.58c-.09,.25-.13,.57-.13,.94v2.5h-.73v-4.72h.59l.11,.67h.04c.1-.16,.22-.3,.36-.41,.15-.11,.31-.2,.49-.25,.18-.06,.38-.09,.58-.09,.37,0,.67,.07,.92,.2,.25,.13,.43,.34,.54,.61h.04c.16-.27,.37-.48,.65-.61,.27-.13,.58-.2,.9-.2Z" fill="#a8a9aa"/><path d="M137.15,68.68c.57,0,1,.13,1.28,.38s.42,.66,.42,1.21v3.21h-.53l-.14-.7h-.04c-.13,.17-.28,.32-.42,.43-.15,.12-.32,.2-.51,.26-.19,.06-.43,.09-.71,.09-.29,0-.55-.05-.78-.15-.23-.1-.41-.25-.54-.46-.13-.2-.2-.46-.2-.78,0-.47,.19-.83,.57-1.09,.38-.25,.96-.39,1.74-.41l.83-.03v-.29c0-.41-.09-.69-.27-.86-.18-.16-.43-.25-.76-.25-.25,0-.49,.04-.72,.11s-.45,.16-.65,.25l-.22-.54c.22-.11,.47-.2,.75-.28,.28-.08,.58-.12,.89-.12Zm.98,2.47l-.73,.03c-.6,.02-1.02,.12-1.27,.29s-.37,.41-.37,.72c0,.27,.08,.47,.25,.6,.17,.13,.39,.19,.66,.19,.43,0,.78-.12,1.05-.35,.27-.23,.41-.58,.41-1.05v-.44Z" fill="#a8a9aa"/><path d="M141.69,75.6c-.63,0-1.12-.12-1.46-.35-.34-.23-.51-.56-.51-.97,0-.3,.1-.55,.29-.76,.19-.21,.46-.35,.8-.42-.13-.06-.23-.14-.32-.26-.09-.11-.13-.25-.13-.4,0-.17,.05-.32,.15-.45,.1-.13,.25-.26,.45-.38-.25-.1-.46-.27-.61-.51-.16-.24-.24-.52-.24-.84,0-.34,.07-.63,.22-.87,.14-.24,.35-.42,.62-.55,.27-.13,.6-.19,.99-.19,.08,0,.17,0,.26,.01,.09,0,.17,.02,.25,.03,.08,.01,.15,.03,.21,.05h1.65v.46l-.89,.11c.09,.11,.16,.25,.22,.41,.06,.16,.09,.33,.09,.53,0,.47-.16,.85-.49,1.12s-.77,.42-1.34,.42c-.14,0-.27-.01-.41-.03-.14,.08-.25,.16-.33,.26-.07,.09-.11,.2-.11,.33,0,.09,.03,.17,.09,.22,.06,.05,.14,.09,.25,.12s.24,.04,.39,.04h.85c.52,0,.93,.11,1.21,.32,.28,.22,.42,.53,.42,.94,0,.52-.22,.92-.65,1.2-.43,.28-1.06,.42-1.88,.42Zm.02-.56c.4,0,.73-.04,.99-.12,.26-.08,.46-.19,.59-.34,.13-.15,.2-.32,.2-.53,0-.19-.04-.33-.13-.43s-.22-.16-.39-.19c-.17-.03-.38-.05-.62-.05h-.83c-.22,0-.41,.03-.57,.1-.16,.07-.29,.16-.37,.29-.09,.13-.13,.29-.13,.48,0,.26,.11,.45,.33,.58,.22,.13,.53,.2,.94,.2Zm.19-3.77c.35,0,.61-.09,.79-.26s.26-.42,.26-.75c0-.35-.09-.62-.27-.79-.18-.18-.44-.27-.79-.27s-.59,.09-.77,.27c-.18,.18-.27,.45-.27,.8,0,.32,.09,.57,.27,.74s.44,.26,.78,.26Z" fill="#a8a9aa"/><path d="M147.09,68.67c.41,0,.76,.09,1.05,.27s.52,.43,.67,.75,.23,.69,.23,1.12v.44h-3.33c0,.55,.15,.98,.42,1.27,.27,.29,.66,.44,1.15,.44,.3,0,.57-.03,.81-.08s.48-.13,.73-.24v.63c-.24,.11-.48,.18-.72,.23-.24,.05-.52,.07-.85,.07-.46,0-.87-.09-1.21-.28-.34-.19-.61-.46-.8-.82-.19-.36-.29-.8-.29-1.32s.09-.95,.26-1.32c.17-.37,.42-.66,.74-.86,.32-.2,.69-.3,1.12-.3Zm0,.59c-.39,0-.7,.12-.93,.37-.23,.25-.37,.6-.41,1.05h2.55c0-.28-.05-.53-.13-.74-.09-.21-.22-.38-.39-.5s-.4-.18-.68-.18Z" fill="#a8a9aa"/><path d="M152.57,68.67c.57,0,1,.14,1.3,.41,.29,.27,.44,.71,.44,1.32v3.08h-.72v-3.03c0-.39-.09-.69-.27-.88-.18-.2-.46-.29-.84-.29-.53,0-.91,.15-1.12,.44-.22,.3-.33,.73-.33,1.29v2.47h-.73v-4.72h.59l.11,.68h.04c.1-.17,.23-.31,.39-.42,.16-.11,.33-.2,.53-.26,.2-.06,.4-.09,.62-.09Z" fill="#a8a9aa"/><path d="M161.79,68.65c0,.28-.06,.53-.17,.73-.11,.21-.27,.38-.47,.51-.2,.13-.43,.22-.7,.27v.03c.51,.06,.89,.22,1.15,.48,.26,.26,.38,.6,.38,1.02,0,.36-.09,.69-.26,.97-.17,.28-.44,.5-.8,.66-.36,.16-.82,.24-1.38,.24-.34,0-.65-.03-.94-.08-.29-.05-.56-.14-.83-.26v-.67c.27,.13,.56,.23,.87,.3s.62,.11,.91,.11c.59,0,1.01-.11,1.27-.34s.39-.54,.39-.94c0-.27-.07-.49-.22-.66-.15-.17-.35-.29-.62-.37-.27-.08-.6-.12-.98-.12h-.64v-.61h.65c.35,0,.64-.05,.89-.15s.43-.24,.56-.42c.13-.18,.19-.4,.19-.65,0-.32-.11-.57-.33-.74s-.51-.26-.88-.26c-.23,0-.44,.02-.62,.07s-.36,.11-.53,.19-.33,.17-.49,.28l-.37-.49c.23-.18,.52-.33,.86-.46,.34-.13,.72-.19,1.15-.19,.66,0,1.15,.15,1.48,.44s.49,.67,.49,1.12Z" fill="#a8a9aa"/></g></g><g><path d="M24.32,87.41h-.75v-5.65h-2.02v-.65h4.79v.65h-2.01v5.65Z" fill="#a8a9aa"/><path d="M29.05,82.6c.41,0,.76,.09,1.05,.27,.29,.18,.52,.43,.67,.75s.23,.69,.23,1.12v.44h-3.33c0,.55,.15,.98,.42,1.27s.66,.44,1.15,.44c.3,0,.57-.03,.81-.08s.48-.14,.73-.24v.63c-.24,.11-.48,.18-.72,.23-.24,.05-.52,.07-.85,.07-.46,0-.87-.09-1.21-.28-.34-.19-.61-.46-.8-.82-.19-.36-.29-.8-.29-1.32s.09-.95,.26-1.32c.17-.37,.42-.66,.74-.86,.32-.2,.69-.3,1.12-.3Zm0,.59c-.39,0-.7,.12-.93,.37-.23,.25-.37,.6-.41,1.05h2.55c0-.28-.05-.53-.13-.74-.09-.21-.22-.38-.39-.5s-.4-.18-.68-.18Z" fill="#a8a9aa"/><path d="M33.4,85l-1.67-2.31h.84l1.27,1.82,1.27-1.82h.83l-1.67,2.31,1.76,2.42h-.83l-1.35-1.93-1.36,1.93h-.83l1.74-2.42Z" fill="#a8a9aa"/><path d="M38.52,86.91c.12,0,.24,0,.37-.03s.23-.04,.31-.07v.56c-.09,.04-.2,.07-.35,.09-.15,.03-.3,.04-.44,.04-.25,0-.49-.04-.69-.13-.21-.09-.37-.24-.5-.45-.12-.21-.19-.5-.19-.87v-2.8h-.69v-.35l.69-.28,.29-1.03h.44v1.09h1.41v.56h-1.41v2.78c0,.3,.07,.52,.21,.66,.14,.15,.32,.22,.56,.22Z" fill="#a8a9aa"/><path d="M44.32,85.04c0,.39-.05,.73-.15,1.04-.1,.3-.25,.56-.44,.77s-.43,.37-.7,.48c-.27,.11-.58,.17-.93,.17-.32,0-.62-.06-.88-.17-.27-.11-.5-.27-.69-.48-.2-.21-.35-.47-.45-.77-.11-.3-.16-.65-.16-1.04,0-.52,.09-.96,.27-1.32,.18-.36,.43-.64,.77-.83,.33-.19,.73-.29,1.19-.29s.82,.1,1.15,.29c.33,.19,.59,.47,.77,.83,.18,.36,.27,.8,.27,1.32Zm-3.67,0c0,.38,.05,.71,.15,.99,.1,.28,.26,.49,.47,.65s.49,.23,.83,.23,.61-.08,.82-.23c.22-.15,.37-.37,.48-.65,.1-.28,.15-.61,.15-.99s-.05-.7-.15-.98-.26-.49-.47-.64-.49-.22-.83-.22c-.5,0-.87,.16-1.1,.49-.23,.32-.35,.77-.35,1.35Z" fill="#a8a9aa"/><path d="M50.31,87.41h-.71v-4.46c0-.17,0-.31,0-.44,0-.12,0-.23,0-.34,0-.1,.01-.21,.02-.31-.09,.09-.18,.17-.25,.23s-.18,.14-.29,.24l-.73,.58-.38-.49,1.74-1.31h.61v6.3Z" fill="#a8a9aa"/></g><g><path d="M21.34,95.27h1.82c.8,0,1.41,.12,1.81,.35,.4,.24,.61,.64,.61,1.2,0,.24-.05,.46-.14,.66-.1,.19-.23,.35-.42,.48-.18,.13-.41,.21-.67,.26v.04c.28,.04,.53,.12,.75,.24,.22,.12,.39,.28,.51,.48,.12,.21,.18,.47,.18,.79,0,.39-.09,.72-.27,.98-.18,.27-.44,.47-.78,.61s-.73,.2-1.19,.2h-2.21v-6.3Zm.75,2.7h1.23c.56,0,.95-.09,1.16-.27,.22-.18,.32-.45,.32-.79s-.13-.62-.38-.78c-.26-.16-.66-.24-1.22-.24h-1.11v2.08Zm0,.62v2.36h1.34c.57,0,.98-.11,1.21-.33,.24-.22,.36-.52,.36-.89,0-.24-.05-.44-.16-.61-.11-.17-.28-.3-.52-.39-.24-.09-.56-.14-.96-.14h-1.27Z" fill="#a8a9aa"/><path d="M31.19,99.2c0,.39-.05,.73-.15,1.04-.1,.3-.25,.56-.44,.77s-.43,.37-.7,.48c-.27,.11-.58,.17-.93,.17-.32,0-.62-.06-.88-.17-.27-.11-.5-.27-.69-.48-.2-.21-.35-.47-.45-.77-.11-.3-.16-.65-.16-1.04,0-.52,.09-.96,.27-1.32,.18-.36,.43-.64,.77-.83,.33-.19,.73-.29,1.19-.29s.82,.1,1.15,.29c.33,.19,.59,.47,.77,.83,.18,.36,.27,.8,.27,1.32Zm-3.67,0c0,.38,.05,.71,.15,.99,.1,.28,.26,.49,.47,.65s.49,.23,.83,.23,.61-.08,.82-.23c.22-.15,.37-.37,.48-.65,.1-.28,.15-.61,.15-.99s-.05-.7-.15-.98-.26-.49-.47-.64-.49-.22-.83-.22c-.5,0-.87,.16-1.1,.49-.23,.32-.35,.77-.35,1.35Z" fill="#a8a9aa"/><path d="M34.01,101.07c.12,0,.24,0,.37-.03s.23-.04,.31-.07v.56c-.09,.04-.2,.07-.35,.09-.15,.03-.3,.04-.44,.04-.25,0-.49-.04-.69-.13-.21-.09-.37-.24-.5-.45-.12-.21-.19-.5-.19-.87v-2.8h-.69v-.35l.69-.28,.29-1.03h.44v1.09h1.41v.56h-1.41v2.78c0,.3,.07,.52,.21,.66,.14,.15,.32,.22,.56,.22Z" fill="#a8a9aa"/><path d="M39.82,99.2c0,.39-.05,.73-.15,1.04-.1,.3-.25,.56-.44,.77s-.43,.37-.7,.48c-.27,.11-.58,.17-.93,.17-.32,0-.62-.06-.88-.17-.27-.11-.5-.27-.69-.48-.2-.21-.35-.47-.45-.77-.11-.3-.16-.65-.16-1.04,0-.52,.09-.96,.27-1.32,.18-.36,.43-.64,.77-.83,.33-.19,.73-.29,1.19-.29s.82,.1,1.15,.29c.33,.19,.59,.47,.77,.83,.18,.36,.27,.8,.27,1.32Zm-3.67,0c0,.38,.05,.71,.15,.99,.1,.28,.26,.49,.47,.65s.49,.23,.83,.23,.61-.08,.82-.23c.22-.15,.37-.37,.48-.65,.1-.28,.15-.61,.15-.99s-.05-.7-.15-.98-.26-.49-.47-.64-.49-.22-.83-.22c-.5,0-.87,.16-1.1,.49-.23,.32-.35,.77-.35,1.35Zm2.73-4.39v.09c-.06,.08-.14,.18-.24,.3-.1,.12-.21,.24-.34,.37s-.25,.25-.37,.36c-.12,.12-.24,.21-.35,.3h-.49v-.1c.09-.11,.2-.24,.31-.39s.22-.31,.33-.47c.11-.16,.19-.31,.26-.44h.88Z" fill="#a8a9aa"/><path d="M43.36,96.76c.57,0,1,.14,1.3,.41s.44,.71,.44,1.32v3.08h-.72v-3.03c0-.39-.09-.69-.27-.88-.18-.2-.46-.29-.84-.29-.53,0-.91,.15-1.12,.44-.22,.3-.33,.73-.33,1.29v2.47h-.73v-4.72h.59l.11,.68h.04c.1-.17,.23-.31,.39-.42,.16-.11,.33-.2,.53-.26,.2-.06,.4-.09,.62-.09Z" fill="#a8a9aa"/><path d="M51.33,101.57h-.71v-4.46c0-.17,0-.31,0-.44,0-.12,0-.23,0-.34,0-.1,.01-.21,.02-.31-.09,.09-.18,.17-.25,.23-.08,.06-.18,.14-.29,.24l-.73,.58-.38-.49,1.74-1.31h.61v6.3Z" fill="#a8a9aa"/></g><g><path d="M78.5,87.41h-.75v-5.65h-2.02v-.65h4.79v.65h-2.01v5.65Z" fill="#a8a9aa"/><path d="M83.23,82.6c.41,0,.76,.09,1.05,.27,.29,.18,.52,.43,.67,.75s.23,.69,.23,1.12v.44h-3.33c0,.55,.15,.98,.42,1.27s.66,.44,1.15,.44c.3,0,.57-.03,.81-.08s.48-.14,.73-.24v.63c-.24,.11-.48,.18-.72,.23-.24,.05-.52,.07-.85,.07-.46,0-.87-.09-1.21-.28-.34-.19-.61-.46-.8-.82-.19-.36-.29-.8-.29-1.32s.09-.95,.26-1.32c.17-.37,.42-.66,.74-.86,.32-.2,.69-.3,1.12-.3Zm0,.59c-.39,0-.7,.12-.93,.37-.23,.25-.37,.6-.41,1.05h2.55c0-.28-.05-.53-.13-.74-.09-.21-.22-.38-.39-.5s-.4-.18-.68-.18Z" fill="#a8a9aa"/><path d="M87.58,85l-1.67-2.31h.84l1.27,1.82,1.27-1.82h.83l-1.67,2.31,1.76,2.42h-.83l-1.35-1.93-1.36,1.93h-.83l1.74-2.42Z" fill="#a8a9aa"/><path d="M92.7,86.91c.12,0,.24,0,.37-.03s.23-.04,.31-.07v.56c-.09,.04-.2,.07-.35,.09-.15,.03-.3,.04-.44,.04-.25,0-.49-.04-.69-.13-.21-.09-.37-.24-.5-.45-.12-.21-.19-.5-.19-.87v-2.8h-.69v-.35l.69-.28,.29-1.03h.44v1.09h1.41v.56h-1.41v2.78c0,.3,.07,.52,.21,.66,.14,.15,.32,.22,.56,.22Z" fill="#a8a9aa"/><path d="M98.5,85.04c0,.39-.05,.73-.15,1.04-.1,.3-.25,.56-.44,.77s-.43,.37-.7,.48c-.27,.11-.58,.17-.93,.17-.32,0-.62-.06-.88-.17-.27-.11-.5-.27-.69-.48-.2-.21-.35-.47-.45-.77-.11-.3-.16-.65-.16-1.04,0-.52,.09-.96,.27-1.32,.18-.36,.43-.64,.77-.83,.33-.19,.73-.29,1.19-.29s.82,.1,1.15,.29c.33,.19,.59,.47,.77,.83,.18,.36,.27,.8,.27,1.32Zm-3.67,0c0,.38,.05,.71,.15,.99,.1,.28,.26,.49,.47,.65s.49,.23,.83,.23,.61-.08,.82-.23c.22-.15,.37-.37,.48-.65,.1-.28,.15-.61,.15-.99s-.05-.7-.15-.98-.26-.49-.47-.64-.49-.22-.83-.22c-.5,0-.87,.16-1.1,.49-.23,.32-.35,.77-.35,1.35Z" fill="#a8a9aa"/><path d="M105.99,87.41h-4.21v-.6l1.72-1.71c.32-.32,.59-.6,.81-.84,.22-.25,.38-.49,.5-.73,.12-.24,.17-.5,.17-.79,0-.36-.11-.63-.32-.82-.21-.19-.5-.28-.85-.28-.31,0-.58,.05-.82,.16-.24,.1-.48,.25-.73,.44l-.39-.48c.17-.14,.36-.27,.56-.38,.2-.11,.42-.2,.65-.26,.23-.06,.47-.09,.74-.09,.4,0,.74,.07,1.02,.2,.29,.14,.51,.33,.67,.58,.16,.25,.24,.55,.24,.89s-.07,.64-.2,.93c-.13,.29-.32,.57-.57,.85-.24,.28-.53,.58-.85,.89l-1.4,1.37v.03h3.28v.65Z" fill="#a8a9aa"/></g><g><path d="M75.52,95.27h1.82c.8,0,1.41,.12,1.81,.35,.4,.24,.61,.64,.61,1.2,0,.24-.05,.46-.14,.66-.1,.19-.23,.35-.42,.48-.18,.13-.41,.21-.67,.26v.04c.28,.04,.53,.12,.75,.24,.22,.12,.39,.28,.51,.48,.12,.21,.18,.47,.18,.79,0,.39-.09,.72-.27,.98-.18,.27-.44,.47-.78,.61s-.73,.2-1.19,.2h-2.21v-6.3Zm.75,2.7h1.23c.56,0,.95-.09,1.16-.27,.22-.18,.32-.45,.32-.79s-.13-.62-.38-.78c-.26-.16-.66-.24-1.22-.24h-1.11v2.08Zm0,.62v2.36h1.34c.57,0,.98-.11,1.21-.33,.24-.22,.36-.52,.36-.89,0-.24-.05-.44-.16-.61-.11-.17-.28-.3-.52-.39-.24-.09-.56-.14-.96-.14h-1.27Z" fill="#a8a9aa"/><path d="M85.38,99.2c0,.39-.05,.73-.15,1.04-.1,.3-.25,.56-.44,.77s-.43,.37-.7,.48c-.27,.11-.58,.17-.93,.17-.32,0-.62-.06-.88-.17-.27-.11-.5-.27-.69-.48-.2-.21-.35-.47-.45-.77-.11-.3-.16-.65-.16-1.04,0-.52,.09-.96,.27-1.32,.18-.36,.43-.64,.77-.83,.33-.19,.73-.29,1.19-.29s.82,.1,1.15,.29c.33,.19,.59,.47,.77,.83,.18,.36,.27,.8,.27,1.32Zm-3.67,0c0,.38,.05,.71,.15,.99,.1,.28,.26,.49,.47,.65s.49,.23,.83,.23,.61-.08,.82-.23c.22-.15,.37-.37,.48-.65,.1-.28,.15-.61,.15-.99s-.05-.7-.15-.98-.26-.49-.47-.64-.49-.22-.83-.22c-.5,0-.87,.16-1.1,.49-.23,.32-.35,.77-.35,1.35Z" fill="#a8a9aa"/><path d="M88.19,101.07c.12,0,.24,0,.37-.03s.23-.04,.31-.07v.56c-.09,.04-.2,.07-.35,.09-.15,.03-.3,.04-.44,.04-.25,0-.49-.04-.69-.13-.21-.09-.37-.24-.5-.45-.12-.21-.19-.5-.19-.87v-2.8h-.69v-.35l.69-.28,.29-1.03h.44v1.09h1.41v.56h-1.41v2.78c0,.3,.07,.52,.21,.66,.14,.15,.32,.22,.56,.22Z" fill="#a8a9aa"/><path d="M94,99.2c0,.39-.05,.73-.15,1.04-.1,.3-.25,.56-.44,.77s-.43,.37-.7,.48c-.27,.11-.58,.17-.93,.17-.32,0-.62-.06-.88-.17-.27-.11-.5-.27-.69-.48-.2-.21-.35-.47-.45-.77-.11-.3-.16-.65-.16-1.04,0-.52,.09-.96,.27-1.32,.18-.36,.43-.64,.77-.83,.33-.19,.73-.29,1.19-.29s.82,.1,1.15,.29c.33,.19,.59,.47,.77,.83,.18,.36,.27,.8,.27,1.32Zm-3.67,0c0,.38,.05,.71,.15,.99,.1,.28,.26,.49,.47,.65s.49,.23,.83,.23,.61-.08,.82-.23c.22-.15,.37-.37,.48-.65,.1-.28,.15-.61,.15-.99s-.05-.7-.15-.98-.26-.49-.47-.64-.49-.22-.83-.22c-.5,0-.87,.16-1.1,.49-.23,.32-.35,.77-.35,1.35Zm2.73-4.39v.09c-.06,.08-.14,.18-.24,.3-.1,.12-.21,.24-.34,.37s-.25,.25-.37,.36c-.12,.12-.24,.21-.35,.3h-.49v-.1c.09-.11,.2-.24,.31-.39s.22-.31,.33-.47c.11-.16,.19-.31,.26-.44h.88Z" fill="#a8a9aa"/><path d="M97.54,96.76c.57,0,1,.14,1.3,.41s.44,.71,.44,1.32v3.08h-.72v-3.03c0-.39-.09-.69-.27-.88-.18-.2-.46-.29-.84-.29-.53,0-.91,.15-1.12,.44-.22,.3-.33,.73-.33,1.29v2.47h-.73v-4.72h.59l.11,.68h.04c.1-.17,.23-.31,.39-.42,.16-.11,.33-.2,.53-.26,.2-.06,.4-.09,.62-.09Z" fill="#a8a9aa"/><path d="M107,101.57h-4.21v-.6l1.72-1.71c.32-.32,.59-.6,.81-.84,.22-.25,.38-.49,.5-.73,.12-.24,.17-.5,.17-.79,0-.36-.11-.63-.32-.82-.21-.19-.5-.28-.85-.28-.31,0-.58,.05-.82,.15-.24,.1-.48,.25-.73,.44l-.39-.48c.17-.14,.36-.27,.56-.38,.2-.11,.42-.2,.65-.26,.23-.06,.47-.09,.74-.09,.4,0,.74,.07,1.02,.2,.29,.13,.51,.33,.67,.58,.16,.25,.24,.55,.24,.89s-.07,.64-.2,.93c-.13,.29-.32,.57-.57,.85-.24,.28-.53,.58-.85,.89l-1.4,1.37v.03h3.28v.65Z" fill="#a8a9aa"/></g><g><path d="M130.57,87.41h-.75v-5.65h-2.02v-.65h4.79v.65h-2.01v5.65Z" fill="#a8a9aa"/><path d="M135.29,82.6c.41,0,.76,.09,1.05,.27,.29,.18,.52,.43,.67,.75s.23,.69,.23,1.12v.44h-3.33c0,.55,.15,.98,.42,1.27s.66,.44,1.15,.44c.3,0,.57-.03,.81-.08s.48-.14,.73-.24v.63c-.24,.11-.48,.18-.72,.23-.24,.05-.52,.07-.85,.07-.46,0-.87-.09-1.21-.28-.34-.19-.61-.46-.8-.82-.19-.36-.29-.8-.29-1.32s.09-.95,.26-1.32c.17-.37,.42-.66,.74-.86,.32-.2,.69-.3,1.12-.3Zm0,.59c-.39,0-.7,.12-.93,.37-.23,.25-.37,.6-.41,1.05h2.55c0-.28-.05-.53-.13-.74-.09-.21-.22-.38-.39-.5s-.4-.18-.68-.18Z" fill="#a8a9aa"/><path d="M139.64,85l-1.67-2.31h.84l1.27,1.82,1.27-1.82h.83l-1.67,2.31,1.76,2.42h-.83l-1.35-1.93-1.36,1.93h-.83l1.74-2.42Z" fill="#a8a9aa"/><path d="M144.76,86.91c.12,0,.24,0,.37-.03s.23-.04,.31-.07v.56c-.09,.04-.2,.07-.35,.09-.15,.03-.3,.04-.44,.04-.25,0-.49-.04-.69-.13-.21-.09-.37-.24-.5-.45-.12-.21-.19-.5-.19-.87v-2.8h-.69v-.35l.69-.28,.29-1.03h.44v1.09h1.41v.56h-1.41v2.78c0,.3,.07,.52,.21,.66,.14,.15,.32,.22,.56,.22Z" fill="#a8a9aa"/><path d="M150.57,85.04c0,.39-.05,.73-.15,1.04-.1,.3-.25,.56-.44,.77s-.43,.37-.7,.48c-.27,.11-.58,.17-.93,.17-.32,0-.62-.06-.88-.17-.27-.11-.5-.27-.69-.48-.2-.21-.35-.47-.45-.77-.11-.3-.16-.65-.16-1.04,0-.52,.09-.96,.27-1.32,.18-.36,.43-.64,.77-.83,.33-.19,.73-.29,1.19-.29s.82,.1,1.15,.29c.33,.19,.59,.47,.77,.83,.18,.36,.27,.8,.27,1.32Zm-3.67,0c0,.38,.05,.71,.15,.99,.1,.28,.26,.49,.47,.65s.49,.23,.83,.23,.61-.08,.82-.23c.22-.15,.37-.37,.48-.65,.1-.28,.15-.61,.15-.99s-.05-.7-.15-.98-.26-.49-.47-.64-.49-.22-.83-.22c-.5,0-.87,.16-1.1,.49-.23,.32-.35,.77-.35,1.35Z" fill="#a8a9aa"/><path d="M157.81,82.58c0,.28-.06,.53-.17,.73-.11,.21-.27,.38-.47,.51-.2,.13-.43,.22-.7,.27v.03c.51,.06,.89,.22,1.15,.48,.26,.26,.38,.6,.38,1.02,0,.36-.09,.69-.26,.97-.17,.28-.44,.5-.8,.66-.36,.16-.82,.24-1.38,.24-.34,0-.65-.03-.94-.08-.29-.05-.56-.14-.83-.26v-.67c.27,.13,.56,.23,.87,.3s.62,.11,.91,.11c.59,0,1.01-.11,1.27-.34,.26-.23,.39-.54,.39-.94,0-.27-.07-.49-.22-.66-.15-.17-.35-.29-.62-.37-.27-.08-.6-.12-.98-.12h-.64v-.61h.65c.35,0,.64-.05,.89-.15s.43-.24,.56-.42c.13-.18,.19-.4,.19-.65,0-.32-.11-.56-.33-.74s-.51-.26-.88-.26c-.23,0-.44,.02-.62,.07s-.36,.11-.53,.19-.33,.17-.49,.28l-.37-.49c.23-.18,.52-.33,.86-.46,.34-.13,.72-.19,1.15-.19,.66,0,1.15,.15,1.48,.44s.49,.67,.49,1.12Z" fill="#a8a9aa"/></g><g><path d="M127.58,95.27h1.82c.8,0,1.41,.12,1.81,.35,.4,.24,.61,.64,.61,1.2,0,.24-.05,.46-.14,.66-.1,.19-.23,.35-.42,.48-.18,.13-.41,.21-.67,.26v.04c.28,.04,.53,.12,.75,.24,.22,.12,.39,.28,.51,.48,.12,.21,.18,.47,.18,.79,0,.39-.09,.72-.27,.98-.18,.27-.44,.47-.78,.61s-.73,.2-1.19,.2h-2.21v-6.3Zm.75,2.7h1.23c.56,0,.95-.09,1.16-.27,.22-.18,.32-.45,.32-.79s-.13-.62-.38-.78c-.26-.16-.66-.24-1.22-.24h-1.11v2.08Zm0,.62v2.36h1.34c.57,0,.98-.11,1.21-.33,.24-.22,.36-.52,.36-.89,0-.24-.05-.44-.16-.61-.11-.17-.28-.3-.52-.39-.24-.09-.56-.14-.96-.14h-1.27Z" fill="#a8a9aa"/><path d="M137.44,99.2c0,.39-.05,.73-.15,1.04-.1,.3-.25,.56-.44,.77s-.43,.37-.7,.48c-.27,.11-.58,.17-.93,.17-.32,0-.62-.06-.88-.17-.27-.11-.5-.27-.69-.48-.2-.21-.35-.47-.45-.77-.11-.3-.16-.65-.16-1.04,0-.52,.09-.96,.27-1.32,.18-.36,.43-.64,.77-.83,.33-.19,.73-.29,1.19-.29s.82,.1,1.15,.29c.33,.19,.59,.47,.77,.83,.18,.36,.27,.8,.27,1.32Zm-3.67,0c0,.38,.05,.71,.15,.99,.1,.28,.26,.49,.47,.65s.49,.23,.83,.23,.61-.08,.82-.23c.22-.15,.37-.37,.48-.65,.1-.28,.15-.61,.15-.99s-.05-.7-.15-.98-.26-.49-.47-.64-.49-.22-.83-.22c-.5,0-.87,.16-1.1,.49-.23,.32-.35,.77-.35,1.35Z" fill="#a8a9aa"/><path d="M140.25,101.07c.12,0,.24,0,.37-.03s.23-.04,.31-.07v.56c-.09,.04-.2,.07-.35,.09-.15,.03-.3,.04-.44,.04-.25,0-.49-.04-.69-.13-.21-.09-.37-.24-.5-.45-.12-.21-.19-.5-.19-.87v-2.8h-.69v-.35l.69-.28,.29-1.03h.44v1.09h1.41v.56h-1.41v2.78c0,.3,.07,.52,.21,.66,.14,.15,.32,.22,.56,.22Z" fill="#a8a9aa"/><path d="M146.06,99.2c0,.39-.05,.73-.15,1.04-.1,.3-.25,.56-.44,.77s-.43,.37-.7,.48c-.27,.11-.58,.17-.93,.17-.32,0-.62-.06-.88-.17-.27-.11-.5-.27-.69-.48-.2-.21-.35-.47-.45-.77-.11-.3-.16-.65-.16-1.04,0-.52,.09-.96,.27-1.32,.18-.36,.43-.64,.77-.83,.33-.19,.73-.29,1.19-.29s.82,.1,1.15,.29c.33,.19,.59,.47,.77,.83,.18,.36,.27,.8,.27,1.32Zm-3.67,0c0,.38,.05,.71,.15,.99,.1,.28,.26,.49,.47,.65s.49,.23,.83,.23,.61-.08,.82-.23c.22-.15,.37-.37,.48-.65,.1-.28,.15-.61,.15-.99s-.05-.7-.15-.98-.26-.49-.47-.64-.49-.22-.83-.22c-.5,0-.87,.16-1.1,.49-.23,.32-.35,.77-.35,1.35Zm2.73-4.39v.09c-.06,.08-.14,.18-.24,.3-.1,.12-.21,.24-.34,.37s-.25,.25-.37,.36c-.12,.12-.24,.21-.35,.3h-.49v-.1c.09-.11,.2-.24,.31-.39s.22-.31,.33-.47c.11-.16,.19-.31,.26-.44h.88Z" fill="#a8a9aa"/><path d="M149.6,96.76c.57,0,1,.14,1.3,.41s.44,.71,.44,1.32v3.08h-.72v-3.03c0-.39-.09-.69-.27-.88-.18-.2-.46-.29-.84-.29-.53,0-.91,.15-1.12,.44-.22,.3-.33,.73-.33,1.29v2.47h-.73v-4.72h.59l.11,.68h.04c.1-.17,.23-.31,.39-.42,.16-.11,.33-.2,.53-.26,.2-.06,.4-.09,.62-.09Z" fill="#a8a9aa"/><path d="M158.83,96.74c0,.28-.06,.53-.17,.73-.11,.21-.27,.38-.47,.51-.2,.13-.43,.22-.7,.27v.03c.51,.06,.89,.22,1.15,.48,.26,.26,.38,.6,.38,1.02,0,.36-.09,.69-.26,.97-.17,.28-.44,.5-.8,.66-.36,.16-.82,.24-1.38,.24-.34,0-.65-.03-.94-.08-.29-.05-.56-.14-.83-.26v-.67c.27,.13,.56,.23,.87,.3s.62,.11,.91,.11c.59,0,1.01-.11,1.27-.34,.26-.23,.39-.54,.39-.94,0-.27-.07-.49-.22-.66-.15-.17-.35-.29-.62-.37-.27-.08-.6-.12-.98-.12h-.64v-.61h.65c.35,0,.64-.05,.89-.15s.43-.24,.56-.42c.13-.18,.19-.4,.19-.65,0-.32-.11-.56-.33-.74s-.51-.26-.88-.26c-.23,0-.44,.02-.62,.07s-.36,.11-.53,.19c-.16,.08-.33,.17-.49,.28l-.37-.49c.23-.18,.52-.33,.86-.46s.72-.19,1.15-.19c.66,0,1.15,.15,1.48,.44s.49,.67,.49,1.12Z" fill="#a8a9aa"/></g></g></g></g></svg>