<?xml version="1.0" encoding="UTF-8"?><svg xmlns="http://www.w3.org/2000/svg" viewBox="0 0 175.31 111.26"><defs><style>.d{fill:#ebebeb;}.e{fill:#d8d8d8;}.f{fill:#a8a9aa;}.g{fill:#386bfb;}</style></defs><g id="a"/><g id="b"><g id="c"><g><rect class="d" y="12.81" width="175.31" height="98.46"/><g><g><path class="f" d="M69.16,31.79h-.75v-5.77h-2.02v-.66h4.79v.66h-2.01v5.77Z"/><path class="f" d="M73.67,24.89v.09c-.06,.08-.14,.19-.24,.3-.1,.12-.21,.24-.34,.37-.12,.13-.25,.25-.37,.37-.12,.12-.24,.22-.34,.3h-.49v-.11c.09-.11,.2-.25,.31-.4,.11-.16,.22-.32,.33-.48,.11-.17,.19-.32,.26-.45h.88Zm-.91,6.89h-.73v-4.82h.73v4.82Z"/><path class="f" d="M75.86,31.28c.12,0,.24,0,.37-.03,.13-.02,.23-.04,.31-.07v.57c-.09,.04-.2,.07-.35,.1-.15,.03-.3,.04-.44,.04-.25,0-.49-.04-.69-.13-.21-.09-.37-.24-.5-.46-.12-.21-.19-.51-.19-.89v-2.86h-.69v-.36l.69-.29,.29-1.05h.44v1.12h1.41v.57h-1.41v2.83c0,.3,.07,.53,.21,.68,.14,.15,.32,.22,.56,.22Z"/><path class="f" d="M81.49,26.97v4.82h-.6l-.11-.68h-.04c-.1,.17-.23,.31-.39,.42s-.34,.2-.53,.26c-.2,.06-.41,.09-.63,.09-.38,0-.7-.06-.96-.18s-.45-.31-.58-.57c-.13-.26-.2-.59-.2-.99v-3.16h.74v3.1c0,.4,.09,.7,.27,.9,.18,.2,.46,.3,.83,.3s.64-.07,.85-.2c.21-.13,.37-.33,.46-.6,.09-.26,.14-.58,.14-.96v-2.54h.73Z"/><path class="f" d="M83.77,31.79h-.73v-6.84h.73v6.84Z"/><path class="f" d="M89.46,29.37c0,.4-.05,.75-.15,1.06s-.25,.57-.44,.79-.43,.38-.7,.49c-.27,.11-.58,.17-.93,.17-.32,0-.62-.06-.88-.17-.27-.11-.5-.28-.69-.49-.2-.21-.35-.48-.45-.79-.11-.31-.16-.66-.16-1.06,0-.53,.09-.98,.27-1.35,.18-.37,.43-.65,.77-.85,.33-.19,.73-.29,1.19-.29s.82,.1,1.15,.29c.33,.2,.59,.48,.77,.85,.18,.37,.27,.82,.27,1.34Zm-3.67,0c0,.39,.05,.72,.15,1.01s.26,.5,.47,.66c.21,.16,.49,.23,.83,.23s.61-.08,.82-.23c.22-.15,.37-.37,.48-.66s.15-.62,.15-1.01-.05-.72-.15-1c-.1-.28-.26-.5-.47-.65s-.49-.23-.83-.23c-.5,0-.87,.17-1.1,.5-.23,.33-.35,.79-.35,1.38Z"/></g><path class="f" d="M100.65,34.22l-.85-2.79h-4.27l-.85,2.79h-2.67l4.13-11.75h3.03l4.15,11.75h-2.67Zm-1.44-4.87l-.85-2.72c-.05-.18-.12-.42-.21-.7s-.18-.58-.26-.87c-.09-.3-.16-.55-.21-.77-.05,.22-.13,.49-.22,.81-.09,.32-.18,.63-.27,.92-.09,.29-.15,.49-.18,.62l-.84,2.72h3.05Z"/></g><g><path class="g" d="M14.1,.46c.92,0,1.59,.19,2.02,.57s.63,.91,.63,1.59c0,.31-.05,.6-.14,.88-.1,.28-.25,.52-.47,.74s-.51,.38-.86,.51c-.36,.12-.8,.19-1.32,.19h-.76v2.67h-1.17V.46h2.08Zm-.08,.98h-.83V3.95h.64c.37,0,.68-.04,.93-.13,.26-.09,.45-.22,.58-.41s.2-.44,.2-.74c0-.41-.12-.72-.37-.92-.25-.2-.63-.3-1.16-.3Z"/><path class="g" d="M19.2,7.6h-1.16V0h1.16V7.6Z"/><path class="g" d="M22.96,2.09c.68,0,1.2,.15,1.55,.45,.35,.3,.52,.77,.52,1.42v3.64h-.82l-.22-.77h-.04c-.15,.2-.31,.36-.47,.49-.16,.13-.35,.22-.56,.29s-.47,.09-.78,.09c-.33,0-.62-.06-.87-.18-.25-.12-.45-.3-.6-.54-.14-.24-.22-.55-.22-.93,0-.56,.21-.97,.62-1.25,.41-.28,1.04-.43,1.88-.46l.93-.03v-.28c0-.37-.09-.64-.26-.8s-.42-.24-.73-.24c-.27,0-.53,.04-.79,.12s-.5,.17-.74,.28l-.38-.81c.27-.14,.57-.25,.91-.34,.34-.09,.69-.13,1.05-.13Zm.93,2.92l-.69,.03c-.57,.02-.97,.12-1.21,.29-.23,.17-.35,.42-.35,.72,0,.27,.08,.46,.24,.58,.16,.12,.37,.18,.63,.18,.4,0,.73-.11,.99-.34,.26-.23,.39-.56,.39-.99v-.47Z"/><path class="g" d="M29.46,2.09c.61,0,1.08,.16,1.42,.47,.34,.31,.51,.82,.51,1.51v3.53h-1.15v-3.31c0-.42-.09-.73-.26-.94-.17-.21-.44-.32-.8-.32-.52,0-.89,.16-1.09,.48-.2,.32-.31,.79-.31,1.4v2.69h-1.15V2.19h.9l.16,.73h.06c.12-.19,.26-.34,.44-.47,.17-.12,.37-.21,.59-.28,.22-.06,.44-.09,.68-.09Z"/><path class="g" d="M35,6.77c.15,0,.3-.01,.44-.04,.15-.03,.28-.06,.4-.1v.87c-.13,.06-.29,.1-.49,.14s-.41,.06-.63,.06c-.31,0-.58-.05-.83-.15-.24-.1-.44-.28-.58-.53s-.21-.6-.21-1.04V3.07h-.74v-.51l.79-.41,.38-1.16h.72v1.2h1.55v.88h-1.55v2.89c0,.27,.07,.48,.21,.61s.32,.2,.54,.2Z"/><path class="g" d="M37.53,.12c.18,0,.33,.05,.46,.14,.13,.09,.19,.26,.19,.49s-.06,.39-.19,.49c-.13,.1-.28,.15-.46,.15s-.34-.05-.46-.15-.19-.26-.19-.49,.06-.39,.19-.49,.28-.14,.46-.14Zm.57,2.07V7.6h-1.15V2.19h1.15Z"/><path class="g" d="M40.89,7.6h-1.16V0h1.16V7.6Z"/><path class="g" d="M43.68,7.6h-1.16V0h1.16V7.6Z"/><path class="g" d="M47.43,2.09c.68,0,1.2,.15,1.55,.45,.35,.3,.52,.77,.52,1.42v3.64h-.82l-.22-.77h-.04c-.15,.2-.31,.36-.47,.49-.16,.13-.35,.22-.56,.29s-.47,.09-.78,.09c-.33,0-.62-.06-.87-.18-.25-.12-.45-.3-.6-.54-.14-.24-.22-.55-.22-.93,0-.56,.21-.97,.62-1.25,.41-.28,1.04-.43,1.88-.46l.93-.03v-.28c0-.37-.09-.64-.26-.8s-.42-.24-.73-.24c-.27,0-.53,.04-.79,.12s-.5,.17-.74,.28l-.38-.81c.27-.14,.57-.25,.91-.34,.34-.09,.69-.13,1.05-.13Zm.93,2.92l-.69,.03c-.57,.02-.97,.12-1.21,.29-.23,.17-.35,.42-.35,.72,0,.27,.08,.46,.24,.58,.16,.12,.37,.18,.63,.18,.4,0,.73-.11,.99-.34,.26-.23,.39-.56,.39-.99v-.47Z"/><path class="g" d="M53.35,4.56c0-.42,.03-.83,.09-1.24,.06-.41,.16-.79,.31-1.14s.35-.67,.61-.94c.26-.27,.59-.49,.98-.64,.39-.15,.87-.23,1.42-.23,.14,0,.3,0,.48,.02s.33,.03,.44,.06v.95c-.13-.04-.27-.06-.42-.08-.15-.02-.3-.03-.45-.03-.6,0-1.07,.11-1.4,.34-.33,.23-.57,.54-.72,.93s-.23,.84-.25,1.34h.06c.1-.16,.22-.31,.37-.43s.33-.23,.54-.3c.21-.08,.46-.12,.74-.12,.42,0,.78,.09,1.09,.26,.31,.17,.55,.42,.71,.75,.17,.33,.25,.73,.25,1.2,0,.5-.1,.94-.29,1.3-.19,.36-.46,.64-.81,.84-.35,.2-.77,.29-1.25,.29-.36,0-.69-.06-.99-.19-.3-.13-.57-.32-.79-.58-.23-.26-.4-.59-.53-.98-.13-.39-.19-.85-.19-1.38Zm2.49,2.19c.37,0,.67-.12,.89-.36,.23-.24,.34-.62,.34-1.12,0-.41-.1-.73-.3-.96-.2-.24-.5-.35-.9-.35-.27,0-.51,.06-.71,.18s-.36,.26-.48,.44c-.11,.18-.17,.36-.17,.54s.03,.38,.08,.57,.14,.37,.25,.53c.11,.16,.25,.29,.42,.39s.36,.15,.58,.15Z"/></g><g><path class="f" d="M23.69,74.78h-.75v-5.77h-2.02v-.66h4.79v.66h-2.01v5.77Z"/><path class="f" d="M28.42,69.87c.41,0,.76,.09,1.05,.27s.52,.44,.67,.76c.16,.33,.23,.71,.23,1.14v.45h-3.33c0,.57,.15,1,.42,1.29,.27,.3,.66,.44,1.15,.44,.3,0,.57-.03,.81-.08s.48-.14,.73-.25v.64c-.24,.11-.48,.19-.72,.24-.24,.05-.52,.07-.85,.07-.46,0-.87-.09-1.21-.28-.34-.19-.61-.47-.8-.83-.19-.37-.29-.81-.29-1.34s.09-.97,.26-1.35c.17-.38,.42-.67,.74-.88,.32-.21,.69-.31,1.12-.31Zm0,.6c-.39,0-.7,.13-.93,.38-.23,.25-.37,.61-.41,1.07h2.55c0-.29-.05-.54-.13-.76-.09-.22-.22-.39-.39-.51-.18-.12-.4-.18-.68-.18Z"/><path class="f" d="M32.76,72.31l-1.67-2.35h.84l1.27,1.85,1.27-1.85h.83l-1.67,2.35,1.76,2.46h-.83l-1.35-1.96-1.36,1.96h-.83l1.74-2.46Z"/><path class="f" d="M37.88,74.27c.12,0,.24,0,.37-.03,.13-.02,.23-.04,.31-.07v.57c-.09,.04-.2,.07-.35,.1-.15,.03-.3,.04-.44,.04-.25,0-.49-.04-.69-.13-.21-.09-.37-.24-.5-.46-.12-.21-.19-.51-.19-.89v-2.86h-.69v-.36l.69-.29,.29-1.05h.44v1.12h1.41v.57h-1.41v2.83c0,.3,.07,.53,.21,.68,.14,.15,.32,.22,.56,.22Z"/><path class="f" d="M43.69,72.36c0,.4-.05,.75-.15,1.06s-.25,.57-.44,.79-.43,.38-.7,.49c-.27,.11-.58,.17-.93,.17-.32,0-.62-.06-.88-.17-.27-.11-.5-.28-.69-.49-.2-.21-.35-.48-.45-.79-.11-.31-.16-.66-.16-1.06,0-.53,.09-.98,.27-1.35,.18-.37,.43-.65,.77-.85,.33-.19,.73-.29,1.19-.29s.82,.1,1.15,.29c.33,.2,.59,.48,.77,.85,.18,.37,.27,.82,.27,1.34Zm-3.67,0c0,.39,.05,.72,.15,1.01s.26,.5,.47,.66c.21,.16,.49,.23,.83,.23s.61-.08,.82-.23c.22-.15,.37-.37,.48-.66s.15-.62,.15-1.01-.05-.72-.15-1c-.1-.28-.26-.5-.47-.65s-.49-.23-.83-.23c-.5,0-.87,.17-1.1,.5-.23,.33-.35,.79-.35,1.38Z"/><path class="f" d="M49.68,74.78h-.71v-4.55c0-.17,0-.32,0-.45,0-.12,0-.24,0-.34,0-.1,.01-.21,.02-.32-.09,.09-.18,.17-.25,.24-.08,.07-.18,.15-.29,.24l-.73,.59-.38-.5,1.74-1.34h.61v6.42Z"/></g><g><path class="f" d="M22.41,94.58h-.75v-5.77h-2.02v-.66h4.79v.66h-2.01v5.77Z"/><path class="f" d="M27.13,89.67c.41,0,.76,.09,1.05,.27s.52,.44,.67,.76c.16,.33,.23,.71,.23,1.14v.45h-3.33c0,.57,.15,1,.42,1.29,.27,.3,.66,.44,1.15,.44,.3,0,.57-.03,.81-.08s.48-.14,.73-.25v.64c-.24,.11-.48,.19-.72,.24-.24,.05-.52,.07-.85,.07-.46,0-.87-.09-1.21-.28-.34-.19-.61-.47-.8-.83-.19-.37-.29-.81-.29-1.34s.09-.97,.26-1.35c.17-.38,.42-.67,.74-.88,.32-.21,.69-.31,1.12-.31Zm0,.6c-.39,0-.7,.13-.93,.38-.23,.25-.37,.61-.41,1.07h2.55c0-.29-.05-.54-.13-.76-.09-.22-.22-.39-.39-.51-.18-.12-.4-.18-.68-.18Z"/><path class="f" d="M31.48,92.11l-1.67-2.35h.84l1.27,1.85,1.27-1.85h.83l-1.67,2.35,1.76,2.46h-.83l-1.35-1.96-1.36,1.96h-.83l1.74-2.46Z"/><path class="f" d="M36.6,94.07c.12,0,.24,0,.37-.03,.13-.02,.23-.04,.31-.07v.57c-.09,.04-.2,.07-.35,.1-.15,.03-.3,.04-.44,.04-.25,0-.49-.04-.69-.13-.21-.09-.37-.24-.5-.46-.12-.21-.19-.51-.19-.89v-2.86h-.69v-.36l.69-.29,.29-1.05h.44v1.12h1.41v.57h-1.41v2.83c0,.3,.07,.53,.21,.68,.14,.15,.32,.22,.56,.22Z"/><path class="f" d="M42.41,92.16c0,.4-.05,.75-.15,1.06s-.25,.57-.44,.79-.43,.38-.7,.49c-.27,.11-.58,.17-.93,.17-.32,0-.62-.06-.88-.17-.27-.11-.5-.28-.69-.49-.2-.21-.35-.48-.45-.79-.11-.31-.16-.66-.16-1.06,0-.53,.09-.98,.27-1.35,.18-.37,.43-.65,.77-.85,.33-.19,.73-.29,1.19-.29s.82,.1,1.15,.29c.33,.2,.59,.48,.77,.85,.18,.37,.27,.82,.27,1.34Zm-3.67,0c0,.39,.05,.72,.15,1.01s.26,.5,.47,.66c.21,.16,.49,.23,.83,.23s.61-.08,.82-.23c.22-.15,.37-.37,.48-.66s.15-.62,.15-1.01-.05-.72-.15-1c-.1-.28-.26-.5-.47-.65s-.49-.23-.83-.23c-.5,0-.87,.17-1.1,.5-.23,.33-.35,.79-.35,1.38Z"/><path class="f" d="M47.72,94.67c-.61,0-1.09-.21-1.45-.62-.36-.42-.53-1.03-.53-1.85s.18-1.46,.54-1.88c.36-.42,.85-.63,1.45-.63,.25,0,.48,.03,.67,.1s.35,.16,.49,.27c.14,.11,.25,.24,.35,.38h.05c-.01-.09-.02-.21-.04-.37-.01-.16-.02-.29-.02-.39v-1.93h.73v6.84h-.59l-.11-.69h-.03c-.09,.14-.21,.27-.35,.39-.14,.12-.3,.21-.5,.28-.19,.07-.42,.1-.68,.1Zm.12-.61c.51,0,.88-.15,1.09-.44s.32-.73,.32-1.31v-.13c0-.61-.1-1.08-.3-1.41-.2-.33-.57-.49-1.11-.49-.45,0-.78,.17-1.01,.52-.22,.34-.33,.81-.33,1.41s.11,1.05,.33,1.37c.22,.32,.56,.48,1.01,.48Z"/><path class="f" d="M53.37,89.67c.41,0,.76,.09,1.05,.27s.52,.44,.67,.76c.16,.33,.23,.71,.23,1.14v.45h-3.33c0,.57,.15,1,.42,1.29,.27,.3,.66,.44,1.15,.44,.3,0,.57-.03,.81-.08s.48-.14,.73-.25v.64c-.24,.11-.48,.19-.72,.24-.24,.05-.52,.07-.85,.07-.46,0-.87-.09-1.21-.28-.34-.19-.61-.47-.8-.83-.19-.37-.29-.81-.29-1.34s.09-.97,.26-1.35c.17-.38,.42-.67,.74-.88,.32-.21,.69-.31,1.12-.31Zm0,.6c-.39,0-.7,.13-.93,.38-.23,.25-.37,.61-.41,1.07h2.55c0-.29-.05-.54-.13-.76-.09-.22-.22-.39-.39-.51-.18-.12-.4-.18-.68-.18Z"/><path class="f" d="M31,99.67c.1,0,.2,0,.3,.02,.11,0,.2,.02,.28,.04l-.09,.68c-.08-.02-.17-.04-.26-.05-.1-.01-.19-.02-.27-.02-.19,0-.38,.04-.55,.12-.17,.08-.32,.19-.45,.33-.13,.15-.23,.32-.3,.52-.07,.2-.11,.43-.11,.68v2.58h-.73v-4.82h.61l.08,.89h.03c.1-.18,.22-.34,.36-.49,.14-.15,.3-.27,.49-.35,.19-.09,.39-.13,.62-.13Z"/><path class="f" d="M34.34,99.67c.41,0,.76,.09,1.05,.27s.52,.44,.67,.76c.16,.33,.23,.71,.23,1.14v.45h-3.33c0,.57,.15,1,.42,1.29,.27,.3,.66,.44,1.15,.44,.3,0,.57-.03,.81-.08s.48-.14,.73-.25v.64c-.24,.11-.48,.19-.72,.24-.24,.05-.52,.07-.85,.07-.46,0-.87-.09-1.21-.28-.34-.19-.61-.47-.8-.83-.19-.37-.29-.81-.29-1.34s.09-.97,.26-1.35c.17-.38,.42-.67,.74-.88,.32-.21,.69-.31,1.12-.31Zm0,.6c-.39,0-.7,.13-.93,.38-.23,.25-.37,.61-.41,1.07h2.55c0-.29-.05-.54-.13-.76-.09-.22-.22-.39-.39-.51-.18-.12-.4-.18-.68-.18Z"/><path class="f" d="M39.69,100.33h-1.2v4.25h-.73v-4.25h-.85v-.35l.85-.24v-.32c0-.4,.06-.73,.18-.99,.12-.25,.29-.44,.52-.56s.51-.18,.83-.18c.18,0,.35,.02,.51,.05,.15,.03,.29,.07,.41,.11l-.19,.58c-.1-.03-.21-.06-.34-.09-.12-.03-.25-.04-.38-.04-.28,0-.48,.09-.62,.27-.13,.18-.2,.46-.2,.85v.35h1.2v.57Z"/><path class="f" d="M40.46,104.12c0-.21,.05-.35,.15-.44,.1-.09,.22-.13,.37-.13s.27,.04,.38,.13c.1,.09,.15,.23,.15,.44s-.05,.35-.15,.44c-.1,.09-.23,.14-.38,.14s-.27-.05-.37-.14c-.1-.09-.15-.24-.15-.44Z"/><path class="f" d="M47.66,104.58h-.71v-4.55c0-.17,0-.32,0-.45,0-.12,0-.24,0-.34,0-.1,.01-.21,.02-.32-.09,.09-.18,.17-.25,.24-.08,.07-.18,.15-.29,.24l-.73,.59-.38-.5,1.74-1.34h.61v6.42Z"/></g><g><path class="f" d="M74.98,94.58h-.75v-5.77h-2.02v-.66h4.79v.66h-2.01v5.77Z"/><path class="f" d="M79.71,89.67c.41,0,.76,.09,1.05,.27s.52,.44,.67,.76c.16,.33,.23,.71,.23,1.14v.45h-3.33c0,.57,.15,1,.42,1.29,.27,.3,.66,.44,1.15,.44,.3,0,.57-.03,.81-.08s.48-.14,.73-.25v.64c-.24,.11-.48,.19-.72,.24-.24,.05-.52,.07-.85,.07-.46,0-.87-.09-1.21-.28-.34-.19-.61-.47-.8-.83-.19-.37-.29-.81-.29-1.34s.09-.97,.26-1.35c.17-.38,.42-.67,.74-.88,.32-.21,.69-.31,1.12-.31Zm0,.6c-.39,0-.7,.13-.93,.38-.23,.25-.37,.61-.41,1.07h2.55c0-.29-.05-.54-.13-.76-.09-.22-.22-.39-.39-.51-.18-.12-.4-.18-.68-.18Z"/><path class="f" d="M84.06,92.11l-1.67-2.35h.84l1.27,1.85,1.27-1.85h.83l-1.67,2.35,1.76,2.46h-.83l-1.35-1.96-1.36,1.96h-.83l1.74-2.46Z"/><path class="f" d="M89.18,94.07c.12,0,.24,0,.37-.03,.13-.02,.23-.04,.31-.07v.57c-.09,.04-.2,.07-.35,.1-.15,.03-.3,.04-.44,.04-.25,0-.49-.04-.69-.13-.21-.09-.37-.24-.5-.46-.12-.21-.19-.51-.19-.89v-2.86h-.69v-.36l.69-.29,.29-1.05h.44v1.12h1.41v.57h-1.41v2.83c0,.3,.07,.53,.21,.68,.14,.15,.32,.22,.56,.22Z"/><path class="f" d="M94.98,92.16c0,.4-.05,.75-.15,1.06s-.25,.57-.44,.79-.43,.38-.7,.49c-.27,.11-.58,.17-.93,.17-.32,0-.62-.06-.88-.17-.27-.11-.5-.28-.69-.49-.2-.21-.35-.48-.45-.79-.11-.31-.16-.66-.16-1.06,0-.53,.09-.98,.27-1.35,.18-.37,.43-.65,.77-.85,.33-.19,.73-.29,1.19-.29s.82,.1,1.15,.29c.33,.2,.59,.48,.77,.85,.18,.37,.27,.82,.27,1.34Zm-3.67,0c0,.39,.05,.72,.15,1.01s.26,.5,.47,.66c.21,.16,.49,.23,.83,.23s.61-.08,.82-.23c.22-.15,.37-.37,.48-.66s.15-.62,.15-1.01-.05-.72-.15-1c-.1-.28-.26-.5-.47-.65s-.49-.23-.83-.23c-.5,0-.87,.17-1.1,.5-.23,.33-.35,.79-.35,1.38Z"/><path class="f" d="M100.3,94.67c-.61,0-1.09-.21-1.45-.62-.36-.42-.53-1.03-.53-1.85s.18-1.46,.54-1.88c.36-.42,.85-.63,1.45-.63,.25,0,.48,.03,.67,.1s.35,.16,.49,.27c.14,.11,.25,.24,.35,.38h.05c-.01-.09-.02-.21-.04-.37-.01-.16-.02-.29-.02-.39v-1.93h.73v6.84h-.59l-.11-.69h-.03c-.09,.14-.21,.27-.35,.39-.14,.12-.3,.21-.5,.28-.19,.07-.42,.1-.68,.1Zm.12-.61c.51,0,.88-.15,1.09-.44s.32-.73,.32-1.31v-.13c0-.61-.1-1.08-.3-1.41-.2-.33-.57-.49-1.11-.49-.45,0-.78,.17-1.01,.52-.22,.34-.33,.81-.33,1.41s.11,1.05,.33,1.37c.22,.32,.56,.48,1.01,.48Z"/><path class="f" d="M105.94,89.67c.41,0,.76,.09,1.05,.27s.52,.44,.67,.76c.16,.33,.23,.71,.23,1.14v.45h-3.33c0,.57,.15,1,.42,1.29,.27,.3,.66,.44,1.15,.44,.3,0,.57-.03,.81-.08s.48-.14,.73-.25v.64c-.24,.11-.48,.19-.72,.24-.24,.05-.52,.07-.85,.07-.46,0-.87-.09-1.21-.28-.34-.19-.61-.47-.8-.83-.19-.37-.29-.81-.29-1.34s.09-.97,.26-1.35c.17-.38,.42-.67,.74-.88,.32-.21,.69-.31,1.12-.31Zm0,.6c-.39,0-.7,.13-.93,.38-.23,.25-.37,.61-.41,1.07h2.55c0-.29-.05-.54-.13-.76-.09-.22-.22-.39-.39-.51-.18-.12-.4-.18-.68-.18Z"/><path class="f" d="M83.58,99.67c.1,0,.2,0,.3,.02,.11,0,.2,.02,.28,.04l-.09,.68c-.08-.02-.17-.04-.26-.05-.1-.01-.19-.02-.27-.02-.19,0-.38,.04-.55,.12-.17,.08-.32,.19-.45,.33-.13,.15-.23,.32-.3,.52-.07,.2-.11,.43-.11,.68v2.58h-.73v-4.82h.61l.08,.89h.03c.1-.18,.22-.34,.36-.49,.14-.15,.3-.27,.49-.35,.19-.09,.39-.13,.62-.13Z"/><path class="f" d="M86.92,99.67c.41,0,.76,.09,1.05,.27s.52,.44,.67,.76c.16,.33,.23,.71,.23,1.14v.45h-3.33c0,.57,.15,1,.42,1.29,.27,.3,.66,.44,1.15,.44,.3,0,.57-.03,.81-.08s.48-.14,.73-.25v.64c-.24,.11-.48,.19-.72,.24-.24,.05-.52,.07-.85,.07-.46,0-.87-.09-1.21-.28-.34-.19-.61-.47-.8-.83-.19-.37-.29-.81-.29-1.34s.09-.97,.26-1.35c.17-.38,.42-.67,.74-.88,.32-.21,.69-.31,1.12-.31Zm0,.6c-.39,0-.7,.13-.93,.38-.23,.25-.37,.61-.41,1.07h2.55c0-.29-.05-.54-.13-.76-.09-.22-.22-.39-.39-.51-.18-.12-.4-.18-.68-.18Z"/><path class="f" d="M92.26,100.33h-1.2v4.25h-.73v-4.25h-.85v-.35l.85-.24v-.32c0-.4,.06-.73,.18-.99,.12-.25,.29-.44,.52-.56s.51-.18,.83-.18c.18,0,.35,.02,.51,.05,.15,.03,.29,.07,.41,.11l-.19,.58c-.1-.03-.21-.06-.34-.09-.12-.03-.25-.04-.38-.04-.28,0-.48,.09-.62,.27-.13,.18-.2,.46-.2,.85v.35h1.2v.57Z"/><path class="f" d="M93.04,104.12c0-.21,.05-.35,.15-.44,.1-.09,.22-.13,.37-.13s.27,.04,.38,.13c.1,.09,.15,.23,.15,.44s-.05,.35-.15,.44c-.1,.09-.23,.14-.38,.14s-.27-.05-.37-.14c-.1-.09-.15-.24-.15-.44Z"/><path class="f" d="M101.73,104.58h-4.21v-.61l1.72-1.74c.32-.32,.59-.61,.81-.86,.22-.25,.38-.5,.5-.75,.12-.24,.17-.51,.17-.81,0-.36-.11-.64-.32-.83-.21-.19-.5-.29-.85-.29-.31,0-.58,.05-.82,.16-.24,.11-.48,.25-.73,.45l-.39-.49c.17-.14,.36-.27,.56-.38,.2-.11,.42-.2,.65-.26,.23-.06,.47-.1,.74-.1,.4,0,.74,.07,1.02,.21s.51,.33,.67,.59c.16,.25,.24,.56,.24,.91s-.07,.66-.2,.95c-.13,.29-.32,.58-.57,.87-.24,.29-.53,.59-.85,.91l-1.4,1.39v.03h3.28v.67Z"/></g><g><path class="f" d="M129.97,94.58h-.75v-5.77h-2.02v-.66h4.79v.66h-2.01v5.77Z"/><path class="f" d="M134.7,89.67c.41,0,.76,.09,1.05,.27s.52,.44,.67,.76c.16,.33,.23,.71,.23,1.14v.45h-3.33c0,.57,.15,1,.42,1.29,.27,.3,.66,.44,1.15,.44,.3,0,.57-.03,.81-.08s.48-.14,.73-.25v.64c-.24,.11-.48,.19-.72,.24-.24,.05-.52,.07-.85,.07-.46,0-.87-.09-1.21-.28-.34-.19-.61-.47-.8-.83-.19-.37-.29-.81-.29-1.34s.09-.97,.26-1.35c.17-.38,.42-.67,.74-.88,.32-.21,.69-.31,1.12-.31Zm0,.6c-.39,0-.7,.13-.93,.38-.23,.25-.37,.61-.41,1.07h2.55c0-.29-.05-.54-.13-.76-.09-.22-.22-.39-.39-.51-.18-.12-.4-.18-.68-.18Z"/><path class="f" d="M139.04,92.11l-1.67-2.35h.84l1.27,1.85,1.27-1.85h.83l-1.67,2.35,1.76,2.46h-.83l-1.35-1.96-1.36,1.96h-.83l1.74-2.46Z"/><path class="f" d="M144.16,94.07c.12,0,.24,0,.37-.03,.13-.02,.23-.04,.31-.07v.57c-.09,.04-.2,.07-.35,.1-.15,.03-.3,.04-.44,.04-.25,0-.49-.04-.69-.13-.21-.09-.37-.24-.5-.46-.12-.21-.19-.51-.19-.89v-2.86h-.69v-.36l.69-.29,.29-1.05h.44v1.12h1.41v.57h-1.41v2.83c0,.3,.07,.53,.21,.68,.14,.15,.32,.22,.56,.22Z"/><path class="f" d="M149.97,92.16c0,.4-.05,.75-.15,1.06s-.25,.57-.44,.79-.43,.38-.7,.49c-.27,.11-.58,.17-.93,.17-.32,0-.62-.06-.88-.17-.27-.11-.5-.28-.69-.49-.2-.21-.35-.48-.45-.79-.11-.31-.16-.66-.16-1.06,0-.53,.09-.98,.27-1.35,.18-.37,.43-.65,.77-.85,.33-.19,.73-.29,1.19-.29s.82,.1,1.15,.29c.33,.2,.59,.48,.77,.85,.18,.37,.27,.82,.27,1.34Zm-3.67,0c0,.39,.05,.72,.15,1.01s.26,.5,.47,.66c.21,.16,.49,.23,.83,.23s.61-.08,.82-.23c.22-.15,.37-.37,.48-.66s.15-.62,.15-1.01-.05-.72-.15-1c-.1-.28-.26-.5-.47-.65s-.49-.23-.83-.23c-.5,0-.87,.17-1.1,.5-.23,.33-.35,.79-.35,1.38Z"/><path class="f" d="M155.28,94.67c-.61,0-1.09-.21-1.45-.62-.36-.42-.53-1.03-.53-1.85s.18-1.46,.54-1.88c.36-.42,.85-.63,1.45-.63,.25,0,.48,.03,.67,.1s.35,.16,.49,.27c.14,.11,.25,.24,.35,.38h.05c-.01-.09-.02-.21-.04-.37-.01-.16-.02-.29-.02-.39v-1.93h.73v6.84h-.59l-.11-.69h-.03c-.09,.14-.21,.27-.35,.39-.14,.12-.3,.21-.5,.28-.19,.07-.42,.1-.68,.1Zm.12-.61c.51,0,.88-.15,1.09-.44s.32-.73,.32-1.31v-.13c0-.61-.1-1.08-.3-1.41-.2-.33-.57-.49-1.11-.49-.45,0-.78,.17-1.01,.52-.22,.34-.33,.81-.33,1.41s.11,1.05,.33,1.37c.22,.32,.56,.48,1.01,.48Z"/><path class="f" d="M160.93,89.67c.41,0,.76,.09,1.05,.27s.52,.44,.67,.76c.16,.33,.23,.71,.23,1.14v.45h-3.33c0,.57,.15,1,.42,1.29,.27,.3,.66,.44,1.15,.44,.3,0,.57-.03,.81-.08s.48-.14,.73-.25v.64c-.24,.11-.48,.19-.72,.24-.24,.05-.52,.07-.85,.07-.46,0-.87-.09-1.21-.28-.34-.19-.61-.47-.8-.83-.19-.37-.29-.81-.29-1.34s.09-.97,.26-1.35c.17-.38,.42-.67,.74-.88,.32-.21,.69-.31,1.12-.31Zm0,.6c-.39,0-.7,.13-.93,.38-.23,.25-.37,.61-.41,1.07h2.55c0-.29-.05-.54-.13-.76-.09-.22-.22-.39-.39-.51-.18-.12-.4-.18-.68-.18Z"/><path class="f" d="M138.56,99.67c.1,0,.2,0,.3,.02,.11,0,.2,.02,.28,.04l-.09,.68c-.08-.02-.17-.04-.26-.05-.1-.01-.19-.02-.27-.02-.19,0-.38,.04-.55,.12-.17,.08-.32,.19-.45,.33-.13,.15-.23,.32-.3,.52-.07,.2-.11,.43-.11,.68v2.58h-.73v-4.82h.61l.08,.89h.03c.1-.18,.22-.34,.36-.49,.14-.15,.3-.27,.49-.35,.19-.09,.39-.13,.62-.13Z"/><path class="f" d="M141.91,99.67c.41,0,.76,.09,1.05,.27s.52,.44,.67,.76c.16,.33,.23,.71,.23,1.14v.45h-3.33c0,.57,.15,1,.42,1.29,.27,.3,.66,.44,1.15,.44,.3,0,.57-.03,.81-.08s.48-.14,.73-.25v.64c-.24,.11-.48,.19-.72,.24-.24,.05-.52,.07-.85,.07-.46,0-.87-.09-1.21-.28-.34-.19-.61-.47-.8-.83-.19-.37-.29-.81-.29-1.34s.09-.97,.26-1.35c.17-.38,.42-.67,.74-.88,.32-.21,.69-.31,1.12-.31Zm0,.6c-.39,0-.7,.13-.93,.38-.23,.25-.37,.61-.41,1.07h2.55c0-.29-.05-.54-.13-.76-.09-.22-.22-.39-.39-.51-.18-.12-.4-.18-.68-.18Z"/><path class="f" d="M147.25,100.33h-1.2v4.25h-.73v-4.25h-.85v-.35l.85-.24v-.32c0-.4,.06-.73,.18-.99,.12-.25,.29-.44,.52-.56s.51-.18,.83-.18c.18,0,.35,.02,.51,.05,.15,.03,.29,.07,.41,.11l-.19,.58c-.1-.03-.21-.06-.34-.09-.12-.03-.25-.04-.38-.04-.28,0-.48,.09-.62,.27-.13,.18-.2,.46-.2,.85v.35h1.2v.57Z"/><path class="f" d="M148.02,104.12c0-.21,.05-.35,.15-.44,.1-.09,.22-.13,.37-.13s.27,.04,.38,.13c.1,.09,.15,.23,.15,.44s-.05,.35-.15,.44c-.1,.09-.23,.14-.38,.14s-.27-.05-.37-.14c-.1-.09-.15-.24-.15-.44Z"/><path class="f" d="M156.48,99.65c0,.29-.06,.54-.17,.75-.11,.21-.27,.38-.47,.52-.2,.13-.43,.23-.7,.28v.04c.51,.06,.89,.23,1.15,.49,.26,.26,.38,.61,.38,1.04,0,.37-.09,.7-.26,.99-.17,.29-.44,.51-.8,.67-.36,.16-.82,.24-1.38,.24-.34,0-.65-.03-.94-.08-.29-.05-.56-.14-.83-.27v-.69c.27,.13,.56,.24,.87,.31,.31,.08,.62,.11,.91,.11,.59,0,1.01-.12,1.27-.35,.26-.23,.39-.55,.39-.96,0-.28-.07-.5-.22-.67-.15-.17-.35-.3-.62-.38-.27-.08-.6-.12-.98-.12h-.64v-.62h.65c.35,0,.64-.05,.89-.15s.43-.25,.56-.43c.13-.19,.19-.41,.19-.66,0-.33-.11-.58-.33-.75-.22-.18-.51-.27-.88-.27-.23,0-.44,.02-.62,.07s-.36,.11-.53,.19-.33,.18-.49,.29l-.37-.5c.23-.18,.52-.34,.86-.47s.72-.2,1.15-.2c.66,0,1.15,.15,1.48,.45s.49,.68,.49,1.14Z"/></g><g><path class="f" d="M78.97,74.78h-.75v-5.77h-2.02v-.66h4.79v.66h-2.01v5.77Z"/><path class="f" d="M83.7,69.87c.41,0,.76,.09,1.05,.27s.52,.44,.67,.76c.16,.33,.23,.71,.23,1.14v.45h-3.33c0,.57,.15,1,.42,1.29,.27,.3,.66,.44,1.15,.44,.3,0,.57-.03,.81-.08s.48-.14,.73-.25v.64c-.24,.11-.48,.19-.72,.24-.24,.05-.52,.07-.85,.07-.46,0-.87-.09-1.21-.28-.34-.19-.61-.47-.8-.83-.19-.37-.29-.81-.29-1.34s.09-.97,.26-1.35c.17-.38,.42-.67,.74-.88,.32-.21,.69-.31,1.12-.31Zm0,.6c-.39,0-.7,.13-.93,.38-.23,.25-.37,.61-.41,1.07h2.55c0-.29-.05-.54-.13-.76-.09-.22-.22-.39-.39-.51-.18-.12-.4-.18-.68-.18Z"/><path class="f" d="M88.05,72.31l-1.67-2.35h.84l1.27,1.85,1.27-1.85h.83l-1.67,2.35,1.76,2.46h-.83l-1.35-1.96-1.36,1.96h-.83l1.74-2.46Z"/><path class="f" d="M93.17,74.27c.12,0,.24,0,.37-.03,.13-.02,.23-.04,.31-.07v.57c-.09,.04-.2,.07-.35,.1-.15,.03-.3,.04-.44,.04-.25,0-.49-.04-.69-.13-.21-.09-.37-.24-.5-.46-.12-.21-.19-.51-.19-.89v-2.86h-.69v-.36l.69-.29,.29-1.05h.44v1.12h1.41v.57h-1.41v2.83c0,.3,.07,.53,.21,.68,.14,.15,.32,.22,.56,.22Z"/><path class="f" d="M98.97,72.36c0,.4-.05,.75-.15,1.06s-.25,.57-.44,.79-.43,.38-.7,.49c-.27,.11-.58,.17-.93,.17-.32,0-.62-.06-.88-.17-.27-.11-.5-.28-.69-.49-.2-.21-.35-.48-.45-.79-.11-.31-.16-.66-.16-1.06,0-.53,.09-.98,.27-1.35,.18-.37,.43-.65,.77-.85,.33-.19,.73-.29,1.19-.29s.82,.1,1.15,.29c.33,.2,.59,.48,.77,.85,.18,.37,.27,.82,.27,1.34Zm-3.67,0c0,.39,.05,.72,.15,1.01s.26,.5,.47,.66c.21,.16,.49,.23,.83,.23s.61-.08,.82-.23c.22-.15,.37-.37,.48-.66s.15-.62,.15-1.01-.05-.72-.15-1c-.1-.28-.26-.5-.47-.65s-.49-.23-.83-.23c-.5,0-.87,.17-1.1,.5-.23,.33-.35,.79-.35,1.38Z"/><path class="f" d="M106.46,74.78h-4.21v-.61l1.72-1.74c.32-.32,.59-.61,.81-.86,.22-.25,.38-.5,.5-.75,.12-.24,.17-.51,.17-.81,0-.36-.11-.64-.32-.83-.21-.19-.5-.29-.85-.29-.31,0-.58,.05-.82,.16-.24,.11-.48,.25-.73,.45l-.39-.49c.17-.14,.36-.27,.56-.38,.2-.11,.42-.2,.65-.26,.23-.06,.47-.1,.74-.1,.4,0,.74,.07,1.02,.21s.51,.33,.67,.59c.16,.25,.24,.56,.24,.91s-.07,.66-.2,.95c-.13,.29-.32,.58-.57,.87-.24,.29-.53,.59-.85,.91l-1.4,1.39v.03h3.28v.67Z"/></g><g><path class="f" d="M135.06,74.78h-.75v-5.77h-2.02v-.66h4.79v.66h-2.01v5.77Z"/><path class="f" d="M139.78,69.87c.41,0,.76,.09,1.05,.27s.52,.44,.67,.76c.16,.33,.23,.71,.23,1.14v.45h-3.33c0,.57,.15,1,.42,1.29,.27,.3,.66,.44,1.15,.44,.3,0,.57-.03,.81-.08s.48-.14,.73-.25v.64c-.24,.11-.48,.19-.72,.24-.24,.05-.52,.07-.85,.07-.46,0-.87-.09-1.21-.28-.34-.19-.61-.47-.8-.83-.19-.37-.29-.81-.29-1.34s.09-.97,.26-1.35c.17-.38,.42-.67,.74-.88,.32-.21,.69-.31,1.12-.31Zm0,.6c-.39,0-.7,.13-.93,.38-.23,.25-.37,.61-.41,1.07h2.55c0-.29-.05-.54-.13-.76-.09-.22-.22-.39-.39-.51-.18-.12-.4-.18-.68-.18Z"/><path class="f" d="M144.13,72.31l-1.67-2.35h.84l1.27,1.85,1.27-1.85h.83l-1.67,2.35,1.76,2.46h-.83l-1.35-1.96-1.36,1.96h-.83l1.74-2.46Z"/><path class="f" d="M149.25,74.27c.12,0,.24,0,.37-.03,.13-.02,.23-.04,.31-.07v.57c-.09,.04-.2,.07-.35,.1-.15,.03-.3,.04-.44,.04-.25,0-.49-.04-.69-.13-.21-.09-.37-.24-.5-.46-.12-.21-.19-.51-.19-.89v-2.86h-.69v-.36l.69-.29,.29-1.05h.44v1.12h1.41v.57h-1.41v2.83c0,.3,.07,.53,.21,.68,.14,.15,.32,.22,.56,.22Z"/><path class="f" d="M155.06,72.36c0,.4-.05,.75-.15,1.06s-.25,.57-.44,.79-.43,.38-.7,.49c-.27,.11-.58,.17-.93,.17-.32,0-.62-.06-.88-.17-.27-.11-.5-.28-.69-.49-.2-.21-.35-.48-.45-.79-.11-.31-.16-.66-.16-1.06,0-.53,.09-.98,.27-1.35,.18-.37,.43-.65,.77-.85,.33-.19,.73-.29,1.19-.29s.82,.1,1.15,.29c.33,.2,.59,.48,.77,.85,.18,.37,.27,.82,.27,1.34Zm-3.67,0c0,.39,.05,.72,.15,1.01s.26,.5,.47,.66c.21,.16,.49,.23,.83,.23s.61-.08,.82-.23c.22-.15,.37-.37,.48-.66s.15-.62,.15-1.01-.05-.72-.15-1c-.1-.28-.26-.5-.47-.65s-.49-.23-.83-.23c-.5,0-.87,.17-1.1,.5-.23,.33-.35,.79-.35,1.38Z"/><path class="f" d="M162.3,69.85c0,.29-.06,.54-.17,.75-.11,.21-.27,.38-.47,.52-.2,.13-.43,.23-.7,.28v.04c.51,.06,.89,.23,1.15,.49,.26,.26,.38,.61,.38,1.04,0,.37-.09,.7-.26,.99-.17,.29-.44,.51-.8,.67-.36,.16-.82,.24-1.38,.24-.34,0-.65-.03-.94-.08-.29-.05-.56-.14-.83-.27v-.69c.27,.13,.56,.24,.87,.31,.31,.08,.62,.11,.91,.11,.59,0,1.01-.12,1.27-.35,.26-.23,.39-.55,.39-.96,0-.28-.07-.5-.22-.67-.15-.17-.35-.3-.62-.38-.27-.08-.6-.12-.98-.12h-.64v-.62h.65c.35,0,.64-.05,.89-.15s.43-.25,.56-.43c.13-.19,.19-.41,.19-.66,0-.33-.11-.58-.33-.75-.22-.18-.51-.27-.88-.27-.23,0-.44,.02-.62,.07s-.36,.11-.53,.19-.33,.18-.49,.29l-.37-.5c.23-.18,.52-.34,.86-.47s.72-.2,1.15-.2c.66,0,1.15,.15,1.48,.45s.49,.68,.49,1.14Z"/></g><g><rect class="f" x="21.52" y="43.76" width="25.25" height="18.55" rx="1.22" ry="1.22"/><g><path class="e" d="M39.27,48.41h-13.54c-.3,0-.55-.25-.55-.55s.25-.55,.55-.55h13.54c.3,0,.55,.25,.55,.55s-.25,.55-.55,.55Z"/><path class="e" d="M39.27,55.06h-13.54c-.3,0-.55-.25-.55-.55s.25-.55,.55-.55h13.54c.3,0,.55,.25,.55,.55s-.25,.55-.55,.55Z"/><path class="e" d="M42.56,52.05H25.73c-.3,0-.55-.25-.55-.55s.25-.55,.55-.55h16.84c.3,0,.55,.25,.55,.55s-.25,.55-.55,.55Z"/><path class="e" d="M42.56,58.22H25.73c-.3,0-.55-.25-.55-.55s.25-.55,.55-.55h16.84c.3,0,.55,.25,.55,.55s-.25,.55-.55,.55Z"/></g></g><g><rect class="f" x="77.88" y="43.76" width="25.25" height="18.55" rx="1.22" ry="1.22"/><g><path class="e" d="M95.62,48.41h-13.54c-.3,0-.55-.25-.55-.55s.25-.55,.55-.55h13.54c.3,0,.55,.25,.55,.55s-.25,.55-.55,.55Z"/><path class="e" d="M95.62,55.06h-13.54c-.3,0-.55-.25-.55-.55s.25-.55,.55-.55h13.54c.3,0,.55,.25,.55,.55s-.25,.55-.55,.55Z"/><path class="e" d="M98.92,52.05h-16.84c-.3,0-.55-.25-.55-.55s.25-.55,.55-.55h16.84c.3,0,.55,.25,.55,.55s-.25,.55-.55,.55Z"/><path class="e" d="M98.92,58.22h-16.84c-.3,0-.55-.25-.55-.55s.25-.55,.55-.55h16.84c.3,0,.55,.25,.55,.55s-.25,.55-.55,.55Z"/></g></g><g><rect class="f" x="134.23" y="43.76" width="25.25" height="18.55" rx="1.22" ry="1.22"/><g><path class="e" d="M151.98,48.41h-13.54c-.3,0-.55-.25-.55-.55s.25-.55,.55-.55h13.54c.3,0,.55,.25,.55,.55s-.25,.55-.55,.55Z"/><path class="e" d="M151.98,55.06h-13.54c-.3,0-.55-.25-.55-.55s.25-.55,.55-.55h13.54c.3,0,.55,.25,.55,.55s-.25,.55-.55,.55Z"/><path class="e" d="M155.27,52.05h-16.84c-.3,0-.55-.25-.55-.55s.25-.55,.55-.55h16.84c.3,0,.55,.25,.55,.55s-.25,.55-.55,.55Z"/><path class="e" d="M155.27,58.22h-16.84c-.3,0-.55-.25-.55-.55s.25-.55,.55-.55h16.84c.3,0,.55,.25,.55,.55s-.25,.55-.55,.55Z"/></g></g></g></g></g></svg>