<svg id="Capa_1" data-name="Capa 1" xmlns="http://www.w3.org/2000/svg" viewBox="0 0 28.46 17.84"><defs><style>.cls-1{fill:#fff;}</style></defs><title>1</title><rect class="cls-1" x="5.19" y="3.96" width="20.45" height="0.38" rx="0.16"/><rect class="cls-1" x="5.19" y="4.98" width="20.45" height="0.38" rx="0.16"/><rect class="cls-1" x="5.19" y="5.98" width="20.45" height="0.38" rx="0.16"/><rect class="cls-1" x="3.8" y="11.47" width="20.45" height="0.38" rx="0.16"/><rect class="cls-1" x="3.8" y="12.49" width="20.45" height="0.38" rx="0.16"/><rect class="cls-1" x="3.8" y="13.49" width="20.45" height="0.38" rx="0.16"/><path class="cls-1" d="M319.56,388.13l-2.34-1.05v2.85l2.41-1.24c0-.19,0-.34,0-.44A.45.45,0,0,0,319.56,388.13Z" transform="translate(-291.77 -387.08)"/><polygon class="cls-1" points="27.96 1.6 27.95 1.34 27.94 1.09 28.17 1.21 28.4 1.33 28.18 1.47 27.96 1.6"/><path class="cls-1" d="M315.06,394.58H298.74c-2,0-.35,1.15-1.21,2.83h18a2.34,2.34,0,0,1,0,4.67H293.19v2.84h21.87a5.17,5.17,0,0,0,0-10.34Z" transform="translate(-291.77 -387.08)"/><path class="cls-1" d="M291.77,403.5a1.41,1.41,0,0,0,1.27,1.4v-.22a2.83,2.83,0,0,1,0-1.51v-1.06A1.41,1.41,0,0,0,291.77,403.5Z" transform="translate(-291.77 -387.08)"/><path class="cls-1" d="M293,404.68v-1.51A2.83,2.83,0,0,0,293,404.68Z" transform="translate(-291.77 -387.08)"/><path class="cls-1" d="M297,389.92H317.1v-2.82H297.53a5.17,5.17,0,1,0,0,10.34h16.31c2,0,1.79-.9,1.22-2.83H297a2.34,2.34,0,1,1,0-4.67Z" transform="translate(-291.77 -387.08)"/><polygon class="cls-1" points="27.85 1.17 27.78 1.05 27.85 1.07 27.85 1.17"/></svg>