<svg id="Capa_1" data-name="Capa 1" xmlns="http://www.w3.org/2000/svg" viewBox="0 0 19.67 25.57"><defs><style>.cls-1,.cls-2{fill:#fff;}.cls-2{stroke:#fff;stroke-miterlimit:10;stroke-width:0.24px;}.cls-3{fill:none;}</style></defs><title>3</title><path class="cls-1" d="M315.68,385.81l-.11,0v21.26a1.49,1.49,0,0,1-1.49,1.49H297.9a1.49,1.49,0,0,1-1.48-1.49V385a1.49,1.49,0,0,1,1.48-1.49H313a1.72,1.72,0,0,0,.57,1,1.5,1.5,0,0,0,.92,1,1.59,1.59,0,0,0,.79.28l.25,0a.83.83,0,0,1-.35-.32,1.24,1.24,0,0,1-.55-.21l0,0a1.3,1.3,0,0,1-.8-.86v0l0,0a1.4,1.4,0,0,1-.38-.52.68.68,0,0,1-.27-.23l-.09-.06a1.32,1.32,0,0,1-.19-.29H297.9a1.74,1.74,0,0,0-1.73,1.74v22.09a1.74,1.74,0,0,0,1.73,1.74h16.18a1.74,1.74,0,0,0,1.74-1.74V385.86Z" transform="translate(-296.17 -383.21)"/><polygon class="cls-2" points="18.86 2.54 19.36 2.54 16.81 0.27 16.81 2.54 18.86 2.54"/><rect class="cls-1" x="308.43" y="395.65" width="1.65" height="11.01" rx="0.82" transform="translate(-455.31 -174.84) rotate(-30)"/><path class="cls-1" d="M311.6,406.13a.92.92,0,0,1-.8-.45l-4.68-8.12a.93.93,0,0,1,.33-1.25.92.92,0,0,1,1.25.34l4.69,8.11a.91.91,0,0,1-.79,1.37Zm-4.69-9.76a.71.71,0,0,0-.37.1.74.74,0,0,0-.34.44.73.73,0,0,0,.08.56l4.68,8.11a.73.73,0,0,0,1.27-.73l-4.69-8.11A.71.71,0,0,0,306.91,396.37Z" transform="translate(-296.17 -383.21)"/><path class="cls-3" d="M304.54,388.38a5.21,5.21,0,1,0,5.2,5.2A5.21,5.21,0,0,0,304.54,388.38Zm0,10.28a5.08,5.08,0,1,1,5.08-5.08A5.08,5.08,0,0,1,304.54,398.66Z" transform="translate(-296.17 -383.21)"/><path class="cls-1" d="M304.54,388.25a5.34,5.34,0,1,0,5.33,5.34A5.33,5.33,0,0,0,304.54,388.25Zm0,10.66a5.33,5.33,0,1,1,5.33-5.33A5.33,5.33,0,0,1,304.54,398.91Z" transform="translate(-296.17 -383.21)"/><path class="cls-1" d="M304.54,388.26a5.33,5.33,0,1,0,5.33,5.32A5.33,5.33,0,0,0,304.54,388.26Zm0,10.53a5.21,5.21,0,1,1,5.2-5.21A5.21,5.21,0,0,1,304.54,398.79Z" transform="translate(-296.17 -383.21)"/><path class="cls-1" d="M304.54,388.51a5.08,5.08,0,1,0,5.08,5.07A5.08,5.08,0,0,0,304.54,388.51Zm.41,7.95a.69.69,0,0,1-.21.51.73.73,0,0,1-.52.21h0V392H305Zm0-5.41a.52.52,0,0,1-.38.16.49.49,0,0,1-.38-.16.53.53,0,0,1,0-.76.49.49,0,0,1,.38-.16.52.52,0,0,1,.38.16.56.56,0,0,1,0,.76Zm3,2.62A3.39,3.39,0,0,0,307,392c-.32-.37-.82-.61-.84-1.14a.36.36,0,0,1,.36-.36c.61,0,.93.73,1.13,1.23a6.49,6.49,0,0,1,.32,1.92S307.93,393.71,307.92,393.67Z" transform="translate(-296.17 -383.21)"/></svg>