<svg id="Capa_1" data-name="Capa 1" xmlns="http://www.w3.org/2000/svg" viewBox="0 0 22.36 27.78"><defs><style>.cls-1{fill:#fff;}</style></defs><title>4</title><path class="cls-1" d="M297.32,410.26l.2-.42c.11-.25.23-.5.33-.76a14.54,14.54,0,0,0,.93-3.12,6.79,6.79,0,0,0-1.48-5.23,13.66,13.66,0,0,1-2.38-9.19c.31-4.75,2.8-7.66,7.39-8.67,5.15-1.13,9.38.18,12.6,3.89a8.71,8.71,0,0,1,2.16,6.08,6.87,6.87,0,0,1-.73,2.68,2.65,2.65,0,0,0,.34,2.81h0c.37.55.63,1,.54,1.36s-.48.63-1,.94c-.3.17-.28.35-.21.75l0,.09c0,.1.05.2.08.3a1.31,1.31,0,0,1,0,1,.92.92,0,0,1-.51.4c-.05,1-.9,1.27-1.48,1.44a1,1,0,0,0,0,.27c0,.06,0,.12,0,.17a1.65,1.65,0,0,1-1.69,1.59,6.81,6.81,0,0,1-2.27-.3c-1.07-.27-1.58-.12-2.1.62a1.9,1.9,0,0,0,0,2.43,1.16,1.16,0,0,0,.19.21,2.35,2.35,0,0,1,.22.26l.28.39H297.32ZM305.73,383a15.57,15.57,0,0,0-3.31.38c-4.41,1-6.7,3.65-7,8.21a13.19,13.19,0,0,0,2.28,8.87,7.19,7.19,0,0,1,1.57,5.6,14.9,14.9,0,0,1-.95,3.23l-.21.48h9.51a.19.19,0,0,1-.06-.07,2.39,2.39,0,0,1,0-3,2.1,2.1,0,0,1,2.64-.82,6.2,6.2,0,0,0,2.1.29,1.15,1.15,0,0,0,1.23-1.16s0-.09,0-.13c0-.25,0-.61.38-.72.73-.22,1.17-.41,1.13-1.13v-.2l.19-.05a.63.63,0,0,0,.39-.22c.08-.14,0-.37-.05-.61a2.58,2.58,0,0,1-.09-.35l0-.09a1,1,0,0,1,.46-1.28c.46-.26.76-.45.8-.62s-.15-.49-.47-1h0a3.13,3.13,0,0,1-.39-3.29,6.37,6.37,0,0,0,.69-2.49,8.26,8.26,0,0,0-2-5.75A11.22,11.22,0,0,0,305.73,383Z" transform="translate(-294.88 -382.48)"/><path class="cls-1" d="M299.63,388.75a3.77,3.77,0,0,0,.57.75,3.42,3.42,0,0,0-.46,1.26c-.51.07-.89.12-.94.14s-.16.75,0,1a4.4,4.4,0,0,0,1,.13,3.35,3.35,0,0,0,.55,1.18c-.32.43-.56.75-.58.79s.41.64.74.7a4.49,4.49,0,0,0,.8-.61,3.19,3.19,0,0,0,1.28.46,7.46,7.46,0,0,0,.2,1c.1.14,1,0,1,0s0-.45.06-1.07a3.25,3.25,0,0,0,1.17-.56,7.06,7.06,0,0,0,.88.59c.16,0,.69-.75.69-.75l-.7-.78a3.21,3.21,0,0,0,.45-1.24,9.48,9.48,0,0,0,1-.2c.14-.1,0-1,0-1l-1-.06a3.33,3.33,0,0,0-.57-1.22,7.27,7.27,0,0,0,.54-.83c0-.16-.74-.69-.74-.69l-.74.66a3.4,3.4,0,0,0-1.22-.45c-.06-.5-.11-.86-.13-.91s-.75-.16-1,0a4,4,0,0,0-.13.91,3.21,3.21,0,0,0-1.23.57c-.4-.31-.7-.53-.74-.55S299.69,388.42,299.63,388.75Zm4.64,1.21a1.78,1.78,0,1,1-2.51.08A1.78,1.78,0,0,1,304.27,390Z" transform="translate(-294.88 -382.48)"/><path class="cls-1" d="M308,387.89a2.66,2.66,0,0,0,.38.34,1.79,1.79,0,0,0-.12.72l-.48.17c-.07,0,0,.42.12.54a1.8,1.8,0,0,0,.53,0,1.73,1.73,0,0,0,.42.58c-.13.26-.23.46-.23.48s.29.3.47.3a2.73,2.73,0,0,0,.36-.41,1.69,1.69,0,0,0,.73.11,4.37,4.37,0,0,0,.22.54c.07.06.55-.13.55-.13s0-.24-.08-.58a1.91,1.91,0,0,0,.57-.42,2.9,2.9,0,0,0,.52.22c.09,0,.3-.47.3-.47l-.46-.34a1.81,1.81,0,0,0,.11-.72,3.35,3.35,0,0,0,.52-.21c.06-.06-.12-.54-.12-.54l-.56.08a1.7,1.7,0,0,0-.43-.6,4.78,4.78,0,0,0,.21-.5c0-.09-.47-.29-.47-.29l-.33.43a1.91,1.91,0,0,0-.7-.12l-.16-.47a.62.62,0,0,0-.55.13,2.94,2.94,0,0,0,0,.5,1.84,1.84,0,0,0-.6.43l-.46-.22C308.17,387.4,307.94,387.7,308,387.89Zm2.6.16a1,1,0,1,1-1.33.31A1,1,0,0,1,310.55,388.05Z" transform="translate(-294.88 -382.48)"/></svg>