<svg id="Capa_1" data-name="Capa 1" xmlns="http://www.w3.org/2000/svg" viewBox="0 0 24.65 28.52"><defs><style>.cls-1{fill:#fff;}.cls-2{fill:#fafbfc;}</style></defs><title>5</title><path class="cls-1" d="M305.88,398.09a6.69,6.69,0,1,1,6.69-6.68A6.69,6.69,0,0,1,305.88,398.09Zm0-12.87a6.19,6.19,0,1,0,6.19,6.19A6.19,6.19,0,0,0,305.88,385.22Z" transform="translate(-293.67 -381.74)"/><path class="cls-1" d="M318.33,410.26H293.67V410c0-6.82,1.89-11.77,5.45-14.3l.22-.15.14.22a7.58,7.58,0,0,0,12.92-.07l.14-.22.22.15c3.64,2.51,5.57,7.48,5.57,14.37Zm-24.15-.5h23.64c0-4.58-1-10.51-5.13-13.56a8.09,8.09,0,0,1-13.49.07C295.13,399.34,294.21,405.23,294.18,409.76Z" transform="translate(-293.67 -381.74)"/><path class="cls-1" d="M298.12,390.78a8,8,0,0,1,.68-2.34.88.88,0,0,0-.49-.24c0,.08,0,.17,0,.25H298a2.28,2.28,0,0,1,0-.26,1,1,0,0,0-.81.93v0a2.25,2.25,0,0,1,1-.22Z" transform="translate(-293.67 -381.74)"/><path class="cls-1" d="M298.12,393.4a2.25,2.25,0,0,1-1-.22v0a1,1,0,0,0,1,1,.81.81,0,0,0,.31-.06,7.22,7.22,0,0,1-.31-1.41Z" transform="translate(-293.67 -381.74)"/><path class="cls-1" d="M299,393.53a7.08,7.08,0,0,1-.23-1.79,7.22,7.22,0,0,1,.29-2v-.59a1,1,0,0,0-.28-.68,8,8,0,0,0-.68,2.34v1.92a7.22,7.22,0,0,0,.31,1.41A.94.94,0,0,0,299,393.53Z" transform="translate(-293.67 -381.74)"/><path class="cls-1" d="M299.08,389.71a7.22,7.22,0,0,0-.29,2,7.08,7.08,0,0,0,.23,1.79,1.13,1.13,0,0,0,.06-.32Z" transform="translate(-293.67 -381.74)"/><path class="cls-1" d="M295.89,391.17a2.23,2.23,0,0,0,1.27,2v-4A2.23,2.23,0,0,0,295.89,391.17Z" transform="translate(-293.67 -381.74)"/><path class="cls-1" d="M298.12,392.7c0-.31-.06-.63-.06-1s0-.64.06-1v-1.85a2.25,2.25,0,0,0-1,.22v4a2.25,2.25,0,0,0,1,.22Z" transform="translate(-293.67 -381.74)"/><path class="cls-1" d="M298.12,392.7v-1.92c0,.32-.06.64-.06,1S298.09,392.39,298.12,392.7Z" transform="translate(-293.67 -381.74)"/><path class="cls-1" d="M313.18,388.45c0-.05,0-.09,0-.14l-.14.09a7.72,7.72,0,0,1,.62,2v-1.43a2.18,2.18,0,0,1,1,.22v0a1,1,0,0,0-1-1,.7.7,0,0,0-.14,0c0,.09,0,.17,0,.26Z" transform="translate(-293.67 -381.74)"/><path class="cls-1" d="M313.65,393.13a6.5,6.5,0,0,1-.24,1,.69.69,0,0,0,.24.05,1,1,0,0,0,1-1v0a2.18,2.18,0,0,1-1,.22Z" transform="translate(-293.67 -381.74)"/><path class="cls-1" d="M313.65,390.36a7.72,7.72,0,0,0-.62-2,1,1,0,0,0-.33.72v.39a7.14,7.14,0,0,1,.36,2.23,7.31,7.31,0,0,1-.26,1.89.91.91,0,0,0,.61.49,6.5,6.5,0,0,0,.24-1Z" transform="translate(-293.67 -381.74)"/><path class="cls-1" d="M312.8,393.63a7.31,7.31,0,0,0,.26-1.89,7.14,7.14,0,0,0-.36-2.23v3.7A1,1,0,0,0,312.8,393.63Z" transform="translate(-293.67 -381.74)"/><path class="cls-1" d="M315.89,391.17a2.22,2.22,0,0,0-1.28-2v4A2.22,2.22,0,0,0,315.89,391.17Z" transform="translate(-293.67 -381.74)"/><path class="cls-1" d="M313.65,390.36a7.44,7.44,0,0,1,0,2.77v.27a2.18,2.18,0,0,0,1-.22v-4a2.18,2.18,0,0,0-1-.22Z" transform="translate(-293.67 -381.74)"/><path class="cls-1" d="M313.78,391.74a7,7,0,0,0-.13-1.38v2.77A7,7,0,0,0,313.78,391.74Z" transform="translate(-293.67 -381.74)"/><path class="cls-1" d="M298.31,388.2c.17-3.34,3.5-6.11,7.44-6.11h0v-.35c-4.12,0-7.61,2.93-7.78,6.45l.15,0A.58.58,0,0,1,298.31,388.2Z" transform="translate(-293.67 -381.74)"/><path class="cls-1" d="M298.3,388.45c0-.08,0-.17,0-.25a.58.58,0,0,0-.19,0l-.15,0a2.28,2.28,0,0,0,0,.26Z" transform="translate(-293.67 -381.74)"/><path class="cls-1" d="M305.75,382.09A8,8,0,0,1,311,384a5.86,5.86,0,0,1,2.18,4.34,1,1,0,0,1,.34-.12,6.22,6.22,0,0,0-2.29-4.49,8.48,8.48,0,0,0-5.47-2v.35Z" transform="translate(-293.67 -381.74)"/><path class="cls-1" d="M313.18,388.45h.34c0-.09,0-.17,0-.26a1,1,0,0,0-.34.12C313.17,388.36,313.18,388.4,313.18,388.45Z" transform="translate(-293.67 -381.74)"/><polygon class="cls-1" points="12.07 0.34 12.07 0.34 12.07 0.17 12.07 0.34 12.07 0.34"/><path class="cls-1" d="M311,395a.89.89,0,0,0-.87-.8h-2.57a.9.9,0,1,0,0,1.79h2.57a.89.89,0,0,0,.89-.9A.29.29,0,0,0,311,395Z" transform="translate(-293.67 -381.74)"/><path class="cls-2" d="M313.83,394.17h-.35c0,.07-.06.15-.17.23a3.8,3.8,0,0,1-.18.47C313.55,394.7,313.83,394.47,313.83,394.17Z" transform="translate(-293.67 -381.74)"/><path class="cls-2" d="M311,395l.37.16.16-.27a4.52,4.52,0,0,1-.53,0Z" transform="translate(-293.67 -381.74)"/><path class="cls-2" d="M311,395v.26h.32l.05-.09Z" transform="translate(-293.67 -381.74)"/><path class="cls-2" d="M312.21,395.12a4.22,4.22,0,0,0,.92-.25,3.8,3.8,0,0,0,.18-.47,2.65,2.65,0,0,1-.92.34C312.33,394.87,312.28,395,312.21,395.12Z" transform="translate(-293.67 -381.74)"/><path class="cls-2" d="M311.36,395.12l.18.08.67-.08c.07-.12.12-.25.18-.38a6.42,6.42,0,0,1-.87.11Z" transform="translate(-293.67 -381.74)"/><path class="cls-2" d="M311.31,395.21h.23l-.18-.08Z" transform="translate(-293.67 -381.74)"/></svg>