<svg id="Capa_1" data-name="Capa 1" xmlns="http://www.w3.org/2000/svg" viewBox="0 0 24.65 22.42"><defs><style>.cls-1{fill:none;stroke:#fff;stroke-miterlimit:10;stroke-width:0.5px;}</style></defs><title>6</title><path class="cls-1" d="M311,398.06h-9.7a2.06,2.06,0,0,1-2.1-1.81,2,2,0,0,1,1.51-2.23,2.59,2.59,0,0,1,.74-.08h9.46l.06-.1c-.43-.41-.87-.82-1.29-1.24-.67-.66-1.33-1.31-2-2a2,2,0,0,1-.45-2.35,2,2,0,0,1,3.23-.67c1.16,1.12,2.28,2.26,3.42,3.4l3.48,3.48a2,2,0,0,1,0,2.95c-2.23,2.26-4.47,4.51-6.69,6.78a2.1,2.1,0,0,1-2.24.63,2,2,0,0,1-1.38-1.52,2,2,0,0,1,.6-1.93c1-1,2-2,3-3Z" transform="translate(-293.67 -384.79)"/><path class="cls-1" d="M296.11,391.6v3.2c0,2.52,0,5,.05,7.55a7.08,7.08,0,0,0,0,.92,1.38,1.38,0,0,0,1.43,1.43c.62.06,1.25,0,1.87,0a1.12,1.12,0,0,1,1.14,1.52.88.88,0,0,1-.81.69,19,19,0,0,1-2.92-.06,3.6,3.6,0,0,1-2.92-3.28c-.06-1.74,0-3.49,0-5.23,0-.39,0-.79,0-1.19,0-2.75,0-5.51,0-8.27a4.16,4.16,0,0,1,.92-2.66,3.06,3.06,0,0,1,2.11-1.07,23.57,23.57,0,0,1,2.66-.13,1,1,0,0,1,1.05,1.16,1,1,0,0,1-1.15,1.06c-.7,0-1.41,0-2.11.05a1.35,1.35,0,0,0-1.22,1.42c0,.95-.07,1.91-.07,2.87Z" transform="translate(-293.67 -384.79)"/></svg>