<svg xmlns="http://www.w3.org/2000/svg" viewBox="0 0 23.09 22.22"><defs><style>.cls-1{fill:#fff;}</style></defs><g id="Capa_2" data-name="Capa 2"><g id="Capa_1-2" data-name="Capa 1"><path class="cls-1" d="M23.09,19.9a1.73,1.73,0,0,0-.6-1.21l-6.82-6a.39.39,0,0,1-.06.11,5.45,5.45,0,0,1-.44.6l6.76,5.94a.87.87,0,0,1,.3.61.93.93,0,0,1-.22.66l-.4.44a.89.89,0,0,1-.61.31,1,1,0,0,1-.66-.22L13.4,15a5.3,5.3,0,0,1-.73.51l7.11,6.24a1.71,1.71,0,0,0,1.15.44h.12a1.73,1.73,0,0,0,1.21-.6l.39-.45h0A1.74,1.74,0,0,0,23.09,19.9Z"/><path class="cls-1" d="M8.6,17.19l-.57,0a8.59,8.59,0,1,1,9.14-8h0A8.61,8.61,0,0,1,8.6,17.19ZM8.59.86a7.85,7.85,0,1,0,.51,0Z"/><path class="cls-1" d="M8.6,15.66l-.47,0a7.07,7.07,0,1,1,7.51-6.58h0A7.07,7.07,0,0,1,8.6,15.66Zm0-13.27A6.1,6.1,0,1,0,9,2.4Z"/><rect class="cls-1" x="15.71" y="16.13" width="3.19" height="1.22" transform="translate(-6.69 18.69) rotate(-48.68)"/></g></g></svg>