<svg xmlns="http://www.w3.org/2000/svg" viewBox="0 0 21.85 22.32"><defs><style>.cls-1{fill:#a7a8a9;}</style></defs><g id="Capa_2" data-name="Capa 2"><g id="Capa_1-2" data-name="Capa 1"><path class="cls-1" d="M8.86,22.32c-2.23-.13-4.73.33-6.59-.93A4.94,4.94,0,0,1,0,17.83a5.17,5.17,0,0,1,0-.68C0,13,0,8.94,0,4.84a2.45,2.45,0,0,1,.21-1C1.69.47,4.62-.47,7.53,1.05A3.54,3.54,0,0,0,11.37.82c1.1-.88,2.1-.44,2.1.39a.85.85,0,0,1-.93.85H2a.22.22,0,0,0-.22.22V19a.22.22,0,0,0,.11.2c.91.6,2.4,1.55,3.9,1.17a19.79,19.79,0,0,1,10.08-.05,3.31,3.31,0,0,0,4.32-3.17V9.63A.86.86,0,0,1,21.57,9a1.07,1.07,0,0,1,.28.44v8.35l0,.15a4.92,4.92,0,0,1-2.3,3.55,7.1,7.1,0,0,1-3.59.88Z"/><path class="cls-1" d="M20.62,3.93a1.82,1.82,0,0,1-.39.56c-.47.45-.93.91-1.37,1.38L15.1,2.11C15.84,1.42,16.52.68,17.26,0c1,1,2,2,3,3a1.37,1.37,0,0,1,.31.48Z"/><path class="cls-1" d="M8.33,14.66a4.4,4.4,0,0,1-1.95-.24,24.61,24.61,0,0,1,0-3.54L14,3.26,17.71,7l-7.35,7.35a1.08,1.08,0,0,1-.81.31Z"/></g></g></svg>