<svg xmlns="http://www.w3.org/2000/svg" viewBox="0 0 29.07 30.96"><defs><style>.cls-1{fill:#a7a8a9;}</style></defs><g id="Capa_2" data-name="Capa 2"><g id="Capa_1-2" data-name="Capa 1"><path class="cls-1" d="M21.3,18.18c-.21,0-.43,0-.64,0H9.26c-.57,0-1.14,0-1.71,0a1,1,0,0,0-.93,1,1,1,0,0,0,.94,1.06h13.2a4,4,0,0,0,.6,0,1,1,0,0,0,.84-1.05A1,1,0,0,0,21.3,18.18Z"/><path class="cls-1" d="M26,4A7.66,7.66,0,0,0,21.73,2.3c-.36,0-.54-.15-.51-.54a4.45,4.45,0,0,0,0-.73,1.07,1.07,0,0,0-2.13,0,3.37,3.37,0,0,0,0,.55c.05.47-.14.61-.6.6-2.44,0-4.88,0-7.32,0C10,2.21,10,2.21,10,1.09,10,1,10,1,10,.91A1.06,1.06,0,0,0,8.87,0c-.62,0-1,.5-1,1.24,0,.94,0,.94-.9,1.09A8.16,8.16,0,0,0,0,10.45c0,3.47,0,8.84,0,12.31A8.13,8.13,0,0,0,8.19,31c2.1,0,4.21,0,6.31,0s4.3,0,6.44,0a8.13,8.13,0,0,0,8.11-8.08c0-3.54,0-9,0-12.54A7.88,7.88,0,0,0,26,4ZM2.2,9.7A6.1,6.1,0,0,1,7.31,4.45c.38,0,.59,0,.54.48a2.74,2.74,0,0,0,0,.64,1.06,1.06,0,0,0,1.1,1,1,1,0,0,0,1-1,.28.28,0,0,0,0-.09c0-1.1,0-1.1,1.16-1.1h7.27c.64,0,.65,0,.66.63,0,.19,0,.37,0,.56a1.07,1.07,0,0,0,2.13,0,3.42,3.42,0,0,0,0-.64c0-.43.15-.52.54-.48A6.11,6.11,0,0,1,26.87,9.7c0,.25-.07.38-.32.39l-.56,0H3.07l-.55,0C2.27,10.08,2.18,10,2.2,9.7ZM26.9,23.08a5.94,5.94,0,0,1-5.71,5.71q-6.64,0-13.3,0a6,6,0,0,1-5.73-5.7c0-2.79,0-7.49,0-10.28,0-.59,0-.62.63-.62H26.17c.74,0,.75,0,.75.73C26.91,15.68,26.93,20.33,26.9,23.08Z"/><path class="cls-1" d="M14.42,23.79c-2.26,0-4.51,0-6.76,0a1,1,0,0,0-.81.38,1.05,1.05,0,0,0,.8,1.71h6.71a1.07,1.07,0,0,0,1.12-1.05A1,1,0,0,0,14.42,23.79Z"/></g></g></svg>