<svg xmlns="http://www.w3.org/2000/svg" viewBox="0 0 32.46 29.56"><defs><style>.cls-1{fill:#a7a8a9;}</style></defs><g id="Capa_2" data-name="Capa 2"><g id="Capa_1-2" data-name="Capa 1"><path class="cls-1" d="M31.89,18l-12-11.84a2.11,2.11,0,0,0-1.56-.66l-6.56.06a15.76,15.76,0,0,0-2.89-2.8C6.62,1,4.17,0,2.44,0A2.4,2.4,0,0,0,.4.84C-.24,1.67-.11,3,.76,4.45a14.37,14.37,0,0,0,3.72,4A16,16,0,0,0,8.25,10.6l.05,5a2.13,2.13,0,0,0,.64,1.51l0,0L21,29c1.07,1,2.18.44,3.24-.63l7.05-7.17C32.37,20.13,33,19,31.89,18ZM12.08,9.69a1.44,1.44,0,0,1-1.14.43,1.94,1.94,0,0,1,0-.24,1.6,1.6,0,0,1,1.21-1.55A1.55,1.55,0,0,1,12.08,9.69Zm-7-2.08A13.39,13.39,0,0,1,1.67,3.92c-.62-1.07-.78-2-.43-2.44a1.5,1.5,0,0,1,1.2-.42c1.51,0,3.71,1,5.75,2.5a15.35,15.35,0,0,1,2.16,2A2.14,2.14,0,0,0,8.23,7.69V9.46A15.19,15.19,0,0,1,5.12,7.61Zm7.41,3.87a1.59,1.59,0,0,1-1-.36,2.14,2.14,0,0,0,1.4-.79,2.27,2.27,0,0,0,.32-1.88,1.59,1.59,0,0,1,.89,1.43A1.6,1.6,0,0,1,12.53,11.48Z"/></g></g></svg>