<svg xmlns="http://www.w3.org/2000/svg" viewBox="0 0 23.79 23.77"><defs><style>.cls-1{fill:#a6a7a8;}</style></defs><g id="Capa_2" data-name="Capa 2"><g id="Capa_1-2" data-name="Capa 1"><g id="_1ylWGu.tif" data-name="1ylWGu.tif"><path class="cls-1" d="M11.4,0h.95a2.21,2.21,0,0,1,1.56,1,1.59,1.59,0,0,0,1.37.84A8.52,8.52,0,0,1,22,9.08a.56.56,0,0,0,.36.51,2.52,2.52,0,0,1,.36,4.32,1.8,1.8,0,0,0-.83,1.35A8.48,8.48,0,0,1,14.56,22a.41.41,0,0,0-.36.27,2.44,2.44,0,0,1-2.31,1.48,2.47,2.47,0,0,1-2.34-1.49A.4.4,0,0,0,9.16,22c-.09,0-.19,0-.29,0a8.51,8.51,0,0,1-7.14-7.43c0-.13,0-.25-.18-.3A2.65,2.65,0,0,1,0,12.35V11.4A2.63,2.63,0,0,1,1.55,9.51a.29.29,0,0,0,.18-.27c0-.13,0-.25.05-.37A8.5,8.5,0,0,1,9.21,1.73a.32.32,0,0,0,.3-.18A2.63,2.63,0,0,1,11.4,0Zm3,20.28h.05a6.79,6.79,0,0,0,5.79-5.8.25.25,0,0,0-.17-.28,2.47,2.47,0,0,1-1.45-2.31A2.44,2.44,0,0,1,20.1,9.57a.27.27,0,0,0,.16-.34,6.75,6.75,0,0,0-5.72-5.74.29.29,0,0,0-.37.2,2.34,2.34,0,0,1-.57.76,2.55,2.55,0,0,1-4-.73c-.08-.15-.14-.27-.36-.23A6.75,6.75,0,0,0,3.5,9.18a.33.33,0,0,0,.22.42,2.45,2.45,0,0,1,1.39,2.22,2.49,2.49,0,0,1-1.43,2.36c-.14.07-.22.13-.2.32a6.78,6.78,0,0,0,5.68,5.75A.35.35,0,0,0,9.61,20a2.53,2.53,0,0,1,2.86-1.31,2.47,2.47,0,0,1,1.7,1.35C14.23,20.17,14.26,20.3,14.43,20.28Z"/><path class="cls-1" d="M11.88,17.84H7.74a.87.87,0,0,1-1-1A5.11,5.11,0,0,1,16.9,16a3.78,3.78,0,0,1,.09,1,.86.86,0,0,1-.9.9Z"/><path class="cls-1" d="M11.86,11.05a2.57,2.57,0,1,1,2.58-2.54A2.54,2.54,0,0,1,11.86,11.05Z"/></g></g></g></svg>