<?xml version="1.0" encoding="UTF-8"?><svg xmlns="http://www.w3.org/2000/svg" viewBox="0 0 21.65 21.64"><defs><style>.e{fill:#a6a7a8;}</style></defs><g id="a"/><g id="b"><g id="c"><g id="d"><path class="e" d="M19.03,21.64H2.65s-.03-.01-.04-.02C1.1,21.37,0,20.03,0,18.37,.03,12.58,.01,6.8,.01,1.01c0-.09,0-.18,0-.27,0-.2,.09-.37,.23-.51C.43,.04,.66,0,.92,0c5.07,0,10.13,0,15.2,0,.06,0,.11,0,.17,0,.36,.02,.66,.27,.73,.62,.03,.14,.03,.28,.03,.42,0,1.36,0,2.72,0,4.08,0,.27,.01,.28,.29,.28,1.14,0,2.28,0,3.42,0,.43,0,.73,.17,.89,.57v13.05c-.1,.47-.26,.91-.54,1.31-.51,.72-1.22,1.13-2.08,1.31Zm-1.98-8.68c0,1.8,0,3.6,0,5.4,0,.18,0,.37,.04,.55,.2,.75,.9,1.24,1.65,1.15,.77-.09,1.33-.73,1.33-1.52,0-3.76,0-7.51,0-11.27,0-.2-.06-.27-.27-.27-.78,0-1.56,0-2.34,0q-.42,0-.42,.41c0,1.85,0,3.7,0,5.55Zm-8.53-.62h0c.6,0,1.2,0,1.79,0,.95,0,1.9,0,2.85,0,.41,0,.71-.3,.74-.7,.03-.36-.24-.69-.62-.76-.11-.02-.22-.03-.33-.03-2.95,0-5.91,0-8.86,0-.13,0-.27,.01-.4,.04-.3,.08-.51,.33-.53,.64-.03,.48,.27,.81,.76,.81,1.53,0,3.07,0,4.6,0Zm0-3.09h0c1.23,0,2.46,0,3.69,0,.32,0,.65,0,.97,0,.51-.02,.84-.51,.67-.99-.12-.32-.4-.5-.82-.5-3,0-6.01,0-9.01,0-.06,0-.11,0-.17,0-.38,.04-.66,.3-.69,.65-.04,.48,.27,.83,.76,.83,1.53,0,3.07,0,4.6,0Zm0,6.17c.79,0,1.58,0,2.36,0,.76,0,1.52,0,2.28,0,.43,0,.74-.33,.75-.73,0-.4-.31-.71-.74-.74-.08,0-.17,0-.25,0-2.93,0-5.85,0-8.78,0-.11,0-.21,0-.32,0-.35,.03-.61,.28-.65,.61-.05,.39,.14,.7,.48,.82,.14,.05,.28,.04,.42,.04,1.48,0,2.97,0,4.45,0Zm0,1.61c-1.53,0-3.05,0-4.58,0-.48,0-.78,.29-.78,.72,0,.45,.29,.73,.78,.75,.06,0,.11,0,.17,0,2.95,0,5.89,0,8.84,0,.11,0,.23,0,.34-.01,.4-.05,.69-.47,.6-.87-.09-.39-.36-.59-.81-.59-1.52,0-3.04,0-4.56,0Zm.02-13.13h0c-.77,0-1.55,0-2.32,0-.37,0-.65,.22-.73,.56-.12,.52,.24,.93,.84,.93,1.46,0,2.91,0,4.37,0,.14,0,.27-.02,.39-.06,.32-.11,.53-.45,.48-.78-.05-.36-.34-.64-.7-.64-.78,0-1.56,0-2.34,0Z"/></g></g></g></svg>