<svg xmlns="http://www.w3.org/2000/svg" viewBox="0 0 23.91 24.11"><defs><style>.cls-1{fill:#a6a7a8;}</style></defs><g id="Capa_2" data-name="Capa 2"><g id="Capa_1-2" data-name="Capa 1"><path class="cls-1" d="M21.67,19l-1.41-1.42,0-7.2h3.6l0,7.2L22.41,19A.53.53,0,0,1,21.67,19Z"/><path class="cls-1" d="M23.84,9.86H20.31V8.41a.77.77,0,0,1,.77-.78h2a.78.78,0,0,1,.78.78Z"/><path class="cls-1" d="M14.79,4.45V0H1.35A1.22,1.22,0,0,0,0,1.37V22.76a1.22,1.22,0,0,0,1.35,1.35H17.7c1,0,1.22-.16,1.58-1V4.45Zm2.65,15.31a.72.72,0,0,1-.72.73H2.59a.72.72,0,0,1-.73-.73V17.62a.72.72,0,0,1,.73-.73H16.72a.72.72,0,0,1,.72.73Zm0-4.94a.73.73,0,0,1-.72.73H2.59a.73.73,0,0,1-.73-.73V12.67a.73.73,0,0,1,.73-.73H16.72a.73.73,0,0,1,.72.73Zm0-4.94a.72.72,0,0,1-.72.72H2.59a.72.72,0,0,1-.73-.72V7.73A.73.73,0,0,1,2.59,7H16.72a.73.73,0,0,1,.72.73Z"/><polygon class="cls-1" points="15.52 0 15.52 3.76 19.1 3.73 15.52 0"/></g></g></svg>