<svg xmlns="http://www.w3.org/2000/svg" viewBox="0 0 34.27 31.97"><defs><style>.cls-1{fill:#a7a8a9;}</style></defs><g id="Capa_2" data-name="Capa 2"><g id="Capa_1-2" data-name="Capa 1"><path class="cls-1" d="M32.77,8.66a1.92,1.92,0,0,0-2.3,1.44l-2.22,9.67-16.76-.15-4-16.15a1.93,1.93,0,0,0-.94-1.22L2.85.24A1.92,1.92,0,1,0,1,3.61L3.93,5.22,8,21.67,5.82,23.41a1.12,1.12,0,0,0-.41.87V27a1.08,1.08,0,0,0,1.08,1.09l3.1.05a2.19,2.19,0,1,0,3,0l14.51.21a2.2,2.2,0,1,0,3.48,0l1.89,0h0a1.08,1.08,0,0,0,1.09-1.08,1.1,1.1,0,0,0-1.08-1.12L7.6,25.94V24.81l1.83-1.44a1.91,1.91,0,0,0,.54.08l19.79.19h0a1.92,1.92,0,0,0,1.87-1.5L34.22,11A1.93,1.93,0,0,0,32.77,8.66Z"/><path class="cls-1" d="M24.45,9.44H22.66V4.26a1.15,1.15,0,0,0-1.15-1.14H18.06a1.15,1.15,0,0,0-1.15,1.14V9.44H15.12c-.79,0-1,.52-.58,1.15l1.34,1.79,1.71,2.31,1.34,1.78a1,1,0,0,0,1.71,0L22,14.69l1.71-2.31L25,10.59C25.5,10,25.24,9.44,24.45,9.44Z"/></g></g></svg>