<svg xmlns="http://www.w3.org/2000/svg" viewBox="0 0 23.03 31.63"><defs><style>.cls-1,.cls-2{fill:#36c;}.cls-2{font-size:12.43px;font-family:Lato-Bold, Lato;font-weight:700;}</style></defs><g id="Capa_2" data-name="Capa 2"><g id="Capa_1-2" data-name="Capa 1"><path class="cls-1" d="M15.38,23.24h0l-3.86-.07H7.65a.4.4,0,0,1-.31-.13.43.43,0,0,1-.12-.32,6.8,6.8,0,0,0-1.85-4.5A9.58,9.58,0,0,1,4.06,8.69c1.23-2.78,3.88-4.32,7.46-4.33h0c3.58,0,6.23,1.55,7.45,4.33a9.58,9.58,0,0,1-1.31,9.54,6.84,6.84,0,0,0-1.85,4.56.44.44,0,0,1-.43.45Zm-3.86-.93,3.44.06A7.87,7.87,0,0,1,17,17.65,8.64,8.64,0,0,0,18.19,9c-.76-1.74-2.54-3.81-6.67-3.82S5.61,7.3,4.84,9A8.67,8.67,0,0,0,6,17.65a7.82,7.82,0,0,1,2.06,4.68Z" transform="translate(0 0)"/><path class="cls-1" d="M15.59,26.79H7.45A.83.83,0,0,1,6.62,26V24.34a.83.83,0,0,1,.83-.82h8.14a.82.82,0,0,1,.82.82V26A.82.82,0,0,1,15.59,26.79Zm-8.11-.85h8.07V24.38H7.48Z" transform="translate(0 0)"/><path class="cls-1" d="M11.52,31.63a4.18,4.18,0,0,1-4.1-4.25A.43.43,0,0,1,7.85,27h7.34a.43.43,0,0,1,.43.43A4.18,4.18,0,0,1,11.52,31.63ZM8.3,27.81a3.3,3.3,0,0,0,3.22,3,3.29,3.29,0,0,0,3.21-3Z" transform="translate(0 0)"/><path class="cls-1" d="M2.14,11.78a.24.24,0,0,1-.19.27L.48,12.3a.23.23,0,0,1-.26-.19h0a.23.23,0,0,1,.19-.27l1.46-.25a.24.24,0,0,1,.27.19Z" transform="translate(0 0)"/><path class="cls-1" d="M.44,12.51a.38.38,0,0,1-.25-.08A.43.43,0,0,1,0,12.14a.44.44,0,0,1,.36-.51l1.46-.25a.5.5,0,0,1,.34.07.5.5,0,0,1,.18.29h0a.45.45,0,0,1-.37.52l-1.46.25Zm1.48-.71-1.48.25,1.49-.23Z" transform="translate(0 0)"/><path class="cls-1" d="M2.92,7.46a.23.23,0,0,1-.29.15L1.22,7.17a.24.24,0,0,1-.16-.29h0a.23.23,0,0,1,.29-.15l1.42.44a.23.23,0,0,1,.15.29Z" transform="translate(0 0)"/><path class="cls-1" d="M2.7,7.84l-.13,0L1.15,7.38a.51.51,0,0,1-.26-.22.45.45,0,0,1,0-.34.44.44,0,0,1,.22-.26.41.41,0,0,1,.34,0L2.83,7a.45.45,0,0,1,.3.56h0A.45.45,0,0,1,2.7,7.84Zm-1.41-.9,1.41.47.22,0-.2-.06s0,0,0,0Z" transform="translate(0 0)"/><path class="cls-1" d="M5.58,4a.22.22,0,0,1-.32,0l-1.07-1a.24.24,0,0,1,0-.33h0a.24.24,0,0,1,.33,0l1.06,1a.24.24,0,0,1,0,.33Z" transform="translate(0 0)"/><path class="cls-1" d="M5.42,4.26a.44.44,0,0,1-.31-.13L4,3.09a.45.45,0,0,1,0-.63.44.44,0,0,1,.63,0l1.06,1a.45.45,0,0,1,0,.63h0A.47.47,0,0,1,5.42,4.26Zm-1-1.5,1,1.06L5.58,4l-.15-.15s0,0,0,0Z" transform="translate(0 0)"/><path class="cls-1" d="M9.54,2.07a.22.22,0,0,1-.29-.15L8.77.52A.23.23,0,0,1,8.91.23h0a.23.23,0,0,1,.3.14l.47,1.41a.22.22,0,0,1-.14.29Z" transform="translate(0 0)"/><path class="cls-1" d="M9.46,2.3a.53.53,0,0,1-.2,0A.47.47,0,0,1,9,2L8.57.59a.44.44,0,0,1,0-.34A.42.42,0,0,1,8.85,0,.45.45,0,0,1,9.41.3l.48,1.41a.45.45,0,0,1-.28.56h0A.4.4,0,0,1,9.46,2.3ZM9,.44l.44,1.42.09.21-.07-.2h0Z" transform="translate(0 0)"/><path class="cls-1" d="M13.93,2.17a.23.23,0,0,1-.2-.26L14,.44a.23.23,0,0,1,.26-.2h0a.24.24,0,0,1,.19.27L14.19,2a.23.23,0,0,1-.26.19Z" transform="translate(0 0)"/><path class="cls-1" d="M14,2.39H13.9a.44.44,0,0,1-.3-.17.44.44,0,0,1-.08-.33L13.73.41a.43.43,0,0,1,.18-.29A.47.47,0,0,1,14.24,0a.46.46,0,0,1,.38.51L14.4,2a.48.48,0,0,1-.17.29A.44.44,0,0,1,14,2.39ZM14.19.48l-.25,1.46,0,0h0Z" transform="translate(0 0)"/><path class="cls-1" d="M17.79,4.25a.24.24,0,0,1-.06-.32l.86-1.21a.24.24,0,0,1,.32-.06h0A.24.24,0,0,1,19,3L18.11,4.2a.23.23,0,0,1-.32,0Z" transform="translate(0 0)"/><path class="cls-1" d="M17.92,4.51a.44.44,0,0,1-.25-.08.44.44,0,0,1-.19-.29.42.42,0,0,1,.08-.33l.86-1.21A.45.45,0,0,1,19,2.49a.44.44,0,0,1,.1.62l-.85,1.21A.47.47,0,0,1,17.92,4.51Zm.88-1.65-.89,1.19v0h0Z" transform="translate(0 0)"/><path class="cls-1" d="M20.29,7.86a.23.23,0,0,1,.09-.31l1.32-.69A.22.22,0,0,1,22,7h0a.22.22,0,0,1-.1.31L20.6,8a.22.22,0,0,1-.31-.1Z" transform="translate(0 0)"/><path class="cls-1" d="M20.49,8.2l-.13,0A.41.41,0,0,1,20.1,8a.44.44,0,0,1,.18-.6l1.32-.69a.44.44,0,0,1,.34,0,.47.47,0,0,1,.26.22.44.44,0,0,1-.19.6l-1.31.69A.54.54,0,0,1,20.49,8.2Zm1.32-1.12-1.33.68h0Z" transform="translate(0 0)"/><path class="cls-1" d="M20.87,12.21A.23.23,0,0,1,21.1,12l1.49,0a.23.23,0,0,1,.23.23h0a.23.23,0,0,1-.23.23l-1.48,0a.23.23,0,0,1-.24-.23Z" transform="translate(0 0)"/><path class="cls-1" d="M21.1,12.65a.47.47,0,0,1-.31-.12.48.48,0,0,1-.13-.32.4.4,0,0,1,.13-.31.41.41,0,0,1,.31-.14h1.49a.44.44,0,0,1,.44.44.45.45,0,0,1-.44.45H21.1Zm0-.46v0h1.5Z" transform="translate(0 0)"/><text class="cls-2" transform="translate(6.93 17.16)">C</text></g></g></svg>