<svg xmlns="http://www.w3.org/2000/svg" viewBox="0 0 32.43 30.73"><defs><style>.cls-1{fill:#36c;}</style></defs><g id="Capa_2" data-name="Capa 2"><g id="Capa_1-2" data-name="Capa 1"><path class="cls-1" d="M12.12,11.82H28.78a3.56,3.56,0,0,1,3.62,3.11,3.51,3.51,0,0,1-2.6,3.83,4.57,4.57,0,0,1-1.28.14H12.26l-.11.18c.75.71,1.5,1.41,2.24,2.13,1.14,1.13,2.28,2.26,3.4,3.41a3.41,3.41,0,0,1,.77,4A3.51,3.51,0,0,1,13,29.82C11,27.89,9.08,25.93,7.12,24l-6-6a3.44,3.44,0,0,1,0-5.07C4.92,9,8.77,5.16,12.59,1.26A3.62,3.62,0,0,1,16.44.18a3.35,3.35,0,0,1,2.37,2.61,3.4,3.4,0,0,1-1,3.32c-1.69,1.71-3.4,3.41-5.1,5.11C12.53,11.37,12.39,11.53,12.12,11.82Z"/></g></g></svg>