<svg xmlns="http://www.w3.org/2000/svg" viewBox="0 0 60.07 60.16"><defs><style>.cls-1{fill:#f42f63;}</style></defs><g id="Capa_2" data-name="Capa 2"><g id="Capa_1-2" data-name="Capa 1"><path class="cls-1" d="M55.61,52.13H12.17a4.45,4.45,0,0,1-3.3-7.44A23.37,23.37,0,0,0,14.92,29v-.6a19,19,0,0,1,19.32-19c10.27.19,18.62,9,18.62,19.56a23.37,23.37,0,0,0,6,15.7,4.45,4.45,0,0,1-3.3,7.44ZM33.89,11.56A16.83,16.83,0,0,0,17.06,28.39V29a25.47,25.47,0,0,1-6.61,17.13A2.32,2.32,0,0,0,12.17,50H55.61a2.32,2.32,0,0,0,1.72-3.88A25.47,25.47,0,0,1,50.72,29c0-9.44-7.41-17.26-16.52-17.42Z"/><path class="cls-1" d="M33.89,60.16A8.15,8.15,0,0,1,26.32,55a1.07,1.07,0,0,1,2-.77A6,6,0,0,0,33.89,58a5.93,5.93,0,0,0,5.55-3.79,1.08,1.08,0,0,1,1.39-.61,1.07,1.07,0,0,1,.6,1.39A8,8,0,0,1,33.89,60.16Z"/><path class="cls-1" d="M38.53,12.22a1.45,1.45,0,0,1-.29,0,16,16,0,0,0-4-.61,16.64,16.64,0,0,0-4.68.58,1.07,1.07,0,0,1-1.35-1V5.71a5.71,5.71,0,0,1,11.42,0v5.44a1.09,1.09,0,0,1-.42.85A1.11,1.11,0,0,1,38.53,12.22ZM33.91,9.43h.33a17.84,17.84,0,0,1,3.22.36V5.71a3.57,3.57,0,1,0-7.14,0V9.78A18.2,18.2,0,0,1,33.91,9.43Z"/><path class="cls-1" d="M5.85,25.7a1.05,1.05,0,0,1-.7-.93A26,26,0,0,1,12.06,5.22a1.07,1.07,0,0,1,1.56,1.46A23.88,23.88,0,0,0,7.28,24.62a1.07,1.07,0,0,1-1,1.14A1,1,0,0,1,5.85,25.7Z"/><path class="cls-1" d="M11.36,24a1.16,1.16,0,0,1-.77-.74A13.18,13.18,0,0,1,15.33,9.61a1.3,1.3,0,0,1,1.45.11c.45.34.54.84.2,1.11a12.07,12.07,0,0,0-4.35,12.51c.1.44-.28.77-.84.74A1.5,1.5,0,0,1,11.36,24Z"/><path class="cls-1" d="M.81,27.48a1.07,1.07,0,0,1-.69-.91A32.25,32.25,0,0,1,9.85.72a1.07,1.07,0,1,1,1.48,1.54A30.12,30.12,0,0,0,2.24,26.38a1.06,1.06,0,0,1-1,1.16A1.17,1.17,0,0,1,.81,27.48Z"/></g></g></svg>