<svg xmlns="http://www.w3.org/2000/svg" viewBox="0 0 25.26 26.65"><defs><style>.cls-1{fill:#36c;}</style></defs><g id="Capa_2" data-name="Capa 2"><g id="Capa_1-2" data-name="Capa 1"><path class="cls-1" d="M15.54,16.7V3A2.93,2.93,0,0,0,13,0,2.9,2.9,0,0,0,9.84,2.16a4.08,4.08,0,0,0-.12,1V16.57l-.15.09c-.58-.61-1.16-1.23-1.75-1.83C6.89,13.89,6,13,5,12A2.81,2.81,0,0,0,1.7,11.4,2.88,2.88,0,0,0,.75,16C2.33,17.6,4,19.19,5.56,20.8s3.28,3.27,4.91,4.92a2.84,2.84,0,0,0,4.17,0l9.58-9.46a3,3,0,0,0,.89-3.16A2.73,2.73,0,0,0,23,11.2a2.79,2.79,0,0,0-2.73.84c-1.41,1.39-2.8,2.79-4.2,4.19Z"/></g></g></svg>