<svg xmlns="http://www.w3.org/2000/svg" viewBox="0 0 32.3 37.02"><defs><style>.cls-1{fill:#e83665;}</style></defs><g id="Capa_2" data-name="Capa 2"><g id="Capa_1-2" data-name="Capa 1"><path class="cls-1" d="M30.8,37a1.51,1.51,0,0,1-1.06-.44L17.62,24.46a2.08,2.08,0,0,0-2.94,0L2.56,36.58a1.51,1.51,0,0,1-2.12,0,1.49,1.49,0,0,1,0-2.12L12.56,22.34a5.08,5.08,0,0,1,7.18,0L31.86,34.46a1.49,1.49,0,0,1,0,2.12A1.51,1.51,0,0,1,30.8,37Z"/><path class="cls-1" d="M30.8,26.46A1.51,1.51,0,0,1,29.74,26L17.62,13.9a2.12,2.12,0,0,0-2.94,0L2.56,26A1.5,1.5,0,1,1,.44,23.9L12.56,11.78a5.07,5.07,0,0,1,7.18,0L31.86,23.9a1.49,1.49,0,0,1,0,2.12A1.51,1.51,0,0,1,30.8,26.46Z"/><path class="cls-1" d="M30.8,16.17a1.51,1.51,0,0,1-1.06-.44L17.62,3.6a2.1,2.1,0,0,0-2.94,0L2.56,15.73A1.5,1.5,0,0,1,.44,13.6L12.56,1.48a5.09,5.09,0,0,1,7.18,0L31.86,13.6a1.51,1.51,0,0,1-1.06,2.57Z"/></g></g></svg>