<svg xmlns="http://www.w3.org/2000/svg" viewBox="0 0 63.97 65.42"><defs><style>.cls-1{fill:none;stroke:#36c;stroke-miterlimit:10;stroke-width:1.5px;}.cls-2{fill:#36c;}</style></defs><g id="Capa_2" data-name="Capa 2"><g id="Capa_1-2" data-name="Capa 1"><path class="cls-1" d="M51.47,64.47.75,64.21,1.1.75,44.2,1a7.61,7.61,0,0,1,7.57,7.66Z"/><rect class="cls-2" x="9.21" y="11.73" width="32.87" height="2.94" rx="1.22"/><rect class="cls-2" x="9.21" y="18.37" width="32.87" height="2.94" rx="1.22"/><rect class="cls-2" x="9.21" y="24.77" width="32.87" height="2.94" rx="1.22"/><path class="cls-2" d="M48.43,55.47V54.38c0-4.21,0-8.41,0-12.61a2.9,2.9,0,0,1,5.7-.84,3.72,3.72,0,0,1,.11,1q0,6.36,0,12.71v.65l.15.09c.58-.61,1.16-1.23,1.75-1.83.93-.94,1.86-1.87,2.8-2.8a2.83,2.83,0,0,1,3.32-.63,2.88,2.88,0,0,1,.94,4.57C61.63,56.37,60,58,58.41,59.57s-3.28,3.27-4.91,4.92a2.83,2.83,0,0,1-4.17,0l-9.58-9.46a2.93,2.93,0,0,1-.89-3.16A2.74,2.74,0,0,1,41,50a2.79,2.79,0,0,1,2.73.84c1.41,1.39,2.8,2.79,4.2,4.19Z"/></g></g></svg>