<svg xmlns="http://www.w3.org/2000/svg" viewBox="0 0 32.43 30.73"><defs><style>.cls-1{fill:#36c;}</style></defs><g id="Capa_2" data-name="Capa 2"><g id="Capa_1-2" data-name="Capa 1"><path class="cls-1" d="M20.31,18.91H3.65A3.55,3.55,0,0,1,0,15.8,3.52,3.52,0,0,1,2.63,12a4.57,4.57,0,0,1,1.28-.14H20.17l.11-.18c-.75-.71-1.5-1.4-2.24-2.13-1.14-1.12-2.28-2.25-3.4-3.4a3.41,3.41,0,0,1-.76-4A3.49,3.49,0,0,1,19.43.92c2,1.92,3.92,3.89,5.88,5.84l6,6a3.44,3.44,0,0,1,.05,5.07c-3.83,3.89-7.68,7.77-11.5,11.66A3.62,3.62,0,0,1,16,30.56,3.36,3.36,0,0,1,13.62,28a3.42,3.42,0,0,1,1-3.33c1.69-1.71,3.4-3.41,5.1-5.11C19.9,19.36,20,19.2,20.31,18.91Z"/></g></g></svg>