<svg xmlns="http://www.w3.org/2000/svg" viewBox="0 0 74.25 57.78"><defs><style>.cls-1{fill:#36c;}.cls-2{fill:none;stroke:#36c;stroke-miterlimit:10;stroke-width:2px;}</style></defs><g id="Capa_2" data-name="Capa 2"><g id="Capa_1-2" data-name="Capa 1"><path class="cls-1" d="M30.09,24.85l16.37,9.44a1,1,0,0,1,0,1.77L30.09,45.5a1,1,0,0,1-1.52-.88V25.73A1,1,0,0,1,30.09,24.85Z"/><path class="cls-1" d="M10.79,8.27A1.74,1.74,0,1,1,9.05,6.54,1.74,1.74,0,0,1,10.79,8.27Z"/><path class="cls-1" d="M16.39,8.27a1.73,1.73,0,1,1-1.73-1.73A1.73,1.73,0,0,1,16.39,8.27Z"/><path class="cls-1" d="M22,8.27a1.73,1.73,0,1,1-1.73-1.73A1.73,1.73,0,0,1,22,8.27Z"/><path class="cls-2" d="M7.26,1H67.07a6.19,6.19,0,0,1,6.19,6.19v7.28a0,0,0,0,1,0,0H1a0,0,0,0,1,0,0V7.26A6.26,6.26,0,0,1,7.26,1Z"/><path class="cls-2" d="M1,14.47H73.25a0,0,0,0,1,0,0v37a5.34,5.34,0,0,1-5.34,5.34h-62A4.93,4.93,0,0,1,1,51.85V14.47A0,0,0,0,1,1,14.47Z"/></g></g></svg>