<svg xmlns="http://www.w3.org/2000/svg" viewBox="0 0 40.25 37.99"><defs><style>.cls-1{fill:#36c;}</style></defs><g id="Capa_2" data-name="Capa 2"><g id="Capa_1-2" data-name="Capa 1"><path class="cls-1" d="M15.79,28.39a.76.76,0,0,1-.33-.08L13,26.57a8.82,8.82,0,1,1,4.63-7.76A8.26,8.26,0,0,1,16,24.29l.46,3.26a.7.7,0,0,1-.27.69A.73.73,0,0,1,15.79,28.39Zm-.28-.7v0Zm-2.43-2.31,2.35,1.68L15,24l.13-.17a7.18,7.18,0,0,0,1.52-5,7.85,7.85,0,1,0-3.86,6.74Z"/><path class="cls-1" d="M38.77,13.54a.64.64,0,0,1-.3-.08l-1.71-1.21A6.49,6.49,0,1,1,40.25,6.5a6.11,6.11,0,0,1-1.15,4l.32,2.29a.65.65,0,0,1-.25.63A.67.67,0,0,1,38.77,13.54Zm-.34-.64a.06.06,0,0,0,0,0Zm-1.61-1.84,1.5,1.08-.27-2,.14-.17A5.08,5.08,0,0,0,39.25,6.5a5.5,5.5,0,1,0-2.71,4.73Z"/><path class="cls-1" d="M38.77,38a.64.64,0,0,1-.3-.08L36.76,36.7A6.49,6.49,0,1,1,40.25,31a6.09,6.09,0,0,1-1.15,4l.32,2.29a.64.64,0,0,1-.25.63A.67.67,0,0,1,38.77,38Zm-.34-.64s0,0,0,0Zm-1.61-1.84,1.5,1.08-.27-2,.14-.16A5.11,5.11,0,0,0,39.25,31a5.52,5.52,0,1,0-2.71,4.73Z"/><path class="cls-1" d="M17.89,13a.5.5,0,0,1-.22-.95l7.9-3.72a.5.5,0,0,1,.43.9L18.1,13A.52.52,0,0,1,17.89,13Z"/><path class="cls-1" d="M26.35,28.37a.54.54,0,0,1-.22,0L18.24,24.6a.49.49,0,0,1-.24-.66.5.5,0,0,1,.66-.24l7.9,3.72a.5.5,0,0,1-.21.95Z"/><circle class="cls-1" cx="5.02" cy="18.35" r="1.16"/><circle class="cls-1" cx="8.68" cy="18.35" r="1.16"/><circle class="cls-1" cx="12.88" cy="18.35" r="1.16"/></g></g></svg>