<svg xmlns="http://www.w3.org/2000/svg" viewBox="0 0 33.53 37.24"><defs><style>.cls-1{font-size:12.1px;font-family:WorkSans-Medium, Work Sans;font-weight:500;}.cls-1,.cls-2{fill:#36c;}</style></defs><g id="Capa_2" data-name="Capa 2"><g id="Capa_1-2" data-name="Capa 1"><text class="cls-1" transform="translate(11.15 19.29)">@</text><path class="cls-2" d="M32.5,14.59l-1.71-1.71V9.45a4,4,0,0,0-4-4H23.38L18.84.93a3.2,3.2,0,0,0-4.51,0L9.79,5.48H6.94a4,4,0,0,0-4,4v2.87L1,14.23a3.62,3.62,0,0,0-.79,1.21A3.72,3.72,0,0,0,0,16.76L.15,32.5a4.81,4.81,0,0,0,4.79,4.74H28.61a4.93,4.93,0,0,0,4.92-4.92V17.08A3.51,3.51,0,0,0,32.5,14.59Zm-.71.7a2.42,2.42,0,0,1,.51.76l-1.51,1.53V14.29ZM15,1.64a2.21,2.21,0,0,1,3.11,0L22,5.48H11.2ZM6.94,6.48H26.79a3,3,0,0,1,3,3v9h.14L19,29.5a2.62,2.62,0,0,1-3.7,0L3.94,18.15V9.45A3,3,0,0,1,6.94,6.48Zm-4,7.26v3.41L1.32,15.53a2.26,2.26,0,0,1,.42-.59ZM1.15,32.49,1,16.75s0-.08,0-.12l9.68,9.68L2.06,34.87A3.73,3.73,0,0,1,1.15,32.49Zm3.79,3.75a3.79,3.79,0,0,1-2.15-.68L11.39,27l3.2,3.19a3.6,3.6,0,0,0,5.1,0l3-3L31,35.41a3.88,3.88,0,0,1-2.38.83ZM31.7,34.71l-8.3-8.24,9.13-9.23V32.32A3.93,3.93,0,0,1,31.7,34.71Z"/></g></g></svg>