<svg xmlns="http://www.w3.org/2000/svg" viewBox="0 0 36.95 36.28"><defs><style>.cls-1{fill:#fff;}</style></defs><g id="Capa_2" data-name="Capa 2"><g id="Capa_1-2" data-name="Capa 1"><path class="cls-1" d="M36.2,15.81,20.39.79A2.36,2.36,0,0,0,18.75,0,2.44,2.44,0,0,0,17,.61L11.09,6V4.5a1.9,1.9,0,0,0-1.9-1.9H6.29a1.9,1.9,0,0,0-1.9,1.9v7.24a2.13,2.13,0,0,0,0,.25L.79,15.27a2.39,2.39,0,0,0-.18,3.37l1,1.13a2.39,2.39,0,0,0,1.65.78,2.32,2.32,0,0,0,.59-.05V33.07a3.21,3.21,0,0,0,3.2,3.21h22.8a3.21,3.21,0,0,0,3.21-3.21V21a2,2,0,0,0,.43,0h.07a2.39,2.39,0,0,0,1.67-.74l1-1.11a2.4,2.4,0,0,0-.09-3.38ZM29.87,34.9H22.55V26.35a2.29,2.29,0,0,0-2.28-2.28H16.68a2.29,2.29,0,0,0-2.29,2.28V34.9H7.07a1.83,1.83,0,0,1-1.82-1.83V19.72L18.15,8.08a.51.51,0,0,1,.7,0L31.69,20.22V33.07A1.82,1.82,0,0,1,29.87,34.9Zm-14.1-.22V26.35a.91.91,0,0,1,.91-.9h3.59a.9.9,0,0,1,.9.9v8.33ZM32.82,19.39,19.8,7.08a1.93,1.93,0,0,0-2.58,0L4.08,18.92a1,1,0,0,1-.73.25,1,1,0,0,1-.69-.33l-1-1.13A1,1,0,0,1,1.38,17a1,1,0,0,1,.33-.7L18,1.64a1,1,0,0,1,.72-.26,1.1,1.1,0,0,1,.74.37L35.25,16.82a1,1,0,0,1,0,1.42l-1,1.11a1,1,0,0,1-.7.31A1,1,0,0,1,32.82,19.39ZM6.29,3.77h2.9a.73.73,0,0,1,.73.73V7L5.56,11V4.5A.73.73,0,0,1,6.29,3.77Z"/></g></g></svg>