<svg xmlns="http://www.w3.org/2000/svg" viewBox="0 0 15.81 20.93"><defs><style>.cls-1{fill:none;stroke:#3d64ad;stroke-linecap:round;stroke-linejoin:round;}</style></defs><g id="Capa_2" data-name="Capa 2"><g id="Capa_1-2" data-name="Capa 1"><path class="cls-1" d="M13.66,7.47V6A5.55,5.55,0,0,0,8.12.5H7.7A5.55,5.55,0,0,0,2.15,6V7.47A2,2,0,0,0,.5,9.41v9.05a2,2,0,0,0,2,2H13.34a2,2,0,0,0,2-2v-9A2,2,0,0,0,13.66,7.47ZM11.3,7H4.54V6.08A3.15,3.15,0,0,1,7.77,3h.3A3.15,3.15,0,0,1,11.3,6.08ZM6.18,15.53c-.49-.49-1-1-1-1l-1.07,1m6.73-.29a2.86,2.86,0,1,1-5.72,0m4.56-2.51c.49.49,1,1,1,1l1.07-1M5,13a2.86,2.86,0,0,1,5.72,0"/></g></g></svg>