<svg xmlns="http://www.w3.org/2000/svg" viewBox="0 0 42.66 37.58"><defs><style>.cls-1{fill:#36c;}</style></defs><g id="Capa_2" data-name="Capa 2"><g id="Capa_1-2" data-name="Capa 1"><path class="cls-1" d="M40.68,37.58H2a2,2,0,0,1-2-2V32.45a2,2,0,0,1,2-2h38.7a2,2,0,0,1,2,2v3.16A2,2,0,0,1,40.68,37.58ZM2,31.47a1,1,0,0,0-1,1v3.16a1,1,0,0,0,1,1h38.7a1,1,0,0,0,1-1V32.45a1,1,0,0,0-1-1Z"/><path class="cls-1" d="M36,5.08h-5.1a8.81,8.81,0,0,1,.25,1.18H36a3.22,3.22,0,0,1,3.22,3.21V27A3.22,3.22,0,0,1,36,30.21H6.63A3.22,3.22,0,0,1,3.41,27V8A1.74,1.74,0,0,1,5.14,6.26h6.14a7.62,7.62,0,0,1,0-1.17H5.14A2.91,2.91,0,0,0,2.24,8V27a4.4,4.4,0,0,0,4.39,4.39H36A4.4,4.4,0,0,0,40.42,27V9.47A4.4,4.4,0,0,0,36,5.08Z"/><path class="cls-1" d="M34.8,8H31.19c0,.3-.08.59-.13.88H34.8A1.24,1.24,0,0,1,36,10.15V25.87A1.24,1.24,0,0,1,34.8,27.1H7.85a1.23,1.23,0,0,1-1.23-1.23V9.81a.89.89,0,0,1,.89-.89H11.2c0-.29-.07-.59-.09-.88H7.51A1.77,1.77,0,0,0,5.74,9.81V25.87A2.12,2.12,0,0,0,7.85,28H34.8a2.12,2.12,0,0,0,2.12-2.11V10.15A2.12,2.12,0,0,0,34.8,8Z"/><path class="cls-1" d="M30.2,2.59H28.79c0,.29,0,.59,0,.88H30.2a.6.6,0,0,1,.6.6V15.89a.6.6,0,0,1-.6.6H12.05a.6.6,0,0,1-.61-.6V3.73a.26.26,0,0,1,.26-.26h1a1.08,1.08,0,0,1,0-.18c0-.27,0-.49.06-.7H11.7a1.14,1.14,0,0,0-1.14,1.14V15.89a1.49,1.49,0,0,0,1.49,1.48H30.2a1.49,1.49,0,0,0,1.48-1.48V4.07A1.49,1.49,0,0,0,30.2,2.59Z"/><path class="cls-1" d="M25.21,37.31h-.75v-.73c0-1-.49-1.75-.92-1.75H19.11c-.43,0-.91.72-.91,1.75v.73h-.75v-.73c0-1.4.73-2.5,1.66-2.5h4.43c.94,0,1.67,1.1,1.67,2.5Z"/><path class="cls-1" d="M20.92,17.19,13.3,14.33a1.35,1.35,0,0,1-.87-1.26l.06-11.83A1.14,1.14,0,0,1,13,.33a1.13,1.13,0,0,1,1-.14l6.83,2.39L27.74.08a1.24,1.24,0,0,1,1.15.15,1.24,1.24,0,0,1,.54,1V12.92a1.5,1.5,0,0,1-1,1.4ZM13.62.87a.44.44,0,0,0-.22.07.41.41,0,0,0-.16.31l-.06,11.83a.59.59,0,0,0,.38.55l7.36,2.76,7.28-2.77a.76.76,0,0,0,.48-.7V1.26A.51.51,0,0,0,28,.78l-7.18,2.6L13.74.9A.27.27,0,0,0,13.62.87Z"/><rect class="cls-1" x="20.45" y="2.98" width="0.75" height="13.82"/></g></g></svg>