<svg xmlns="http://www.w3.org/2000/svg" viewBox="0 0 30.55 30.55"><defs><style>.cls-1{fill:#36c;}</style></defs><g id="Capa_2" data-name="Capa 2"><g id="Capa_1-2" data-name="Capa 1"><path class="cls-1" d="M15.28,30.55A15.29,15.29,0,1,1,26.79,25.3l.83,4.1a.9.9,0,0,1-1.29,1l-3.54-1.82A15.18,15.18,0,0,1,15.28,30.55ZM15.28,1a14.28,14.28,0,1,0,7.24,26.56l.24-.14,3.84,2L25.71,25l.16-.19A14.26,14.26,0,0,0,15.28,1Z"/><path class="cls-1" d="M17.64,13.36V25.2a7.3,7.3,0,0,1-1.49.12,7.41,7.41,0,0,1-1.5-.12V14.58a1.78,1.78,0,0,0-.29-1.16,1.21,1.21,0,0,0-1-.35h-.32A4.77,4.77,0,0,1,12.91,12a5.33,5.33,0,0,1,.15-1.11,16.58,16.58,0,0,1,1.82-.11h.41a2.22,2.22,0,0,1,1.73.69A2.78,2.78,0,0,1,17.64,13.36ZM14,8.17a2.92,2.92,0,0,1-.26-1.28c0-.79.15-1.26.44-1.41a3.81,3.81,0,0,1,1.45-.25,2.71,2.71,0,0,1,1.48.3c.21.17.33.62.35,1.36a2,2,0,0,1-.35,1.33,2.49,2.49,0,0,1-1.48.32A2.74,2.74,0,0,1,14,8.17Z"/></g></g></svg>