<svg xmlns="http://www.w3.org/2000/svg" viewBox="0 0 38.55 38.55"><defs><style>.cls-1{fill:#f42f63;}.cls-2{fill:#fff;}</style></defs><g id="Capa_2" data-name="Capa 2"><g id="Capa_1-2" data-name="Capa 1"><circle class="cls-1" cx="19.27" cy="19.27" r="19.27"/><path class="cls-2" d="M19.27,17.74a6.12,6.12,0,1,1,6.13-6.12A6.13,6.13,0,0,1,19.27,17.74Zm0-10.84A4.72,4.72,0,1,0,24,11.62,4.71,4.71,0,0,0,19.27,6.9Z"/><path class="cls-2" d="M19.22,30.85A26.56,26.56,0,0,1,8.16,28.23c-.57-.28-.62-.62.17-3.57a12.19,12.19,0,0,1,1.12-2.89,6.15,6.15,0,0,1,4.39-3.32,6.31,6.31,0,0,1,3.26.72,6.24,6.24,0,0,0,2.2.64,6.3,6.3,0,0,0,2.15-.64,6.31,6.31,0,0,1,3.26-.72,6.15,6.15,0,0,1,4.39,3.32,12.19,12.19,0,0,1,1.12,2.89c.78,2.95.74,3.29.18,3.57a26.75,26.75,0,0,1-11.13,2.62Zm-10-3.68a25.84,25.84,0,0,0,10.09,2.28,25.83,25.83,0,0,0,10.1-2.28c-.07-.42-.24-1.16-.5-2.15h0a10.69,10.69,0,0,0-1-2.56,4.78,4.78,0,0,0-3.33-2.62,5.21,5.21,0,0,0-2.55.62,7.57,7.57,0,0,1-2.7.75,7.56,7.56,0,0,1-2.75-.75A5.18,5.18,0,0,0,14,19.84a4.78,4.78,0,0,0-3.33,2.62,10.86,10.86,0,0,0-1,2.56C9.45,25.89,9.26,26.71,9.18,27.17Z"/><path class="cls-2" d="M19.33,27.62a20.93,20.93,0,0,1-8.08-1.55.7.7,0,0,1,.58-1.28,20.51,20.51,0,0,0,14.92,0,.7.7,0,1,1,.52,1.3A21.13,21.13,0,0,1,19.33,27.62Z"/></g></g></svg>