<svg xmlns="http://www.w3.org/2000/svg" viewBox="0 0 46.5 42.55"><defs><style>.cls-1{fill:#36c;}.cls-2{fill:none;stroke:#36c;stroke-miterlimit:10;}</style></defs><g id="Capa_2" data-name="Capa 2"><g id="Capa_1-2" data-name="Capa 1"><path class="cls-1" d="M40.38,15.64a20,20,0,1,1-7-10.17,3.51,3.51,0,0,1,.71-1.15,21.28,21.28,0,1,0,7.57,10.87A4.08,4.08,0,0,1,40.38,15.64Z"/><circle class="cls-2" cx="39.05" cy="8.92" r="6.95"/><path class="cls-1" d="M44.1,7.85V10H34V7.85ZM40.21,3.66V14.18h-2.3V3.66Z"/><path class="cls-1" d="M32.64,13.1l-.63.56.63-.56a2.49,2.49,0,0,0-1.75-.83,2.53,2.53,0,0,0-1.82.64L17.42,23.39l-5.17-3.3a1.94,1.94,0,0,0-2.31.16,1.89,1.89,0,0,0-.69,1.32A2,2,0,0,0,9.7,23l5.77,6.83a1.88,1.88,0,0,0,.24.25,3,3,0,0,0,2.07.82A3,3,0,0,0,20,30L32.6,16.52A2.56,2.56,0,0,0,32.64,13.1Z"/></g></g></svg>