<svg xmlns="http://www.w3.org/2000/svg" viewBox="0 0 47.04 42.55"><defs><style>.cls-1{fill:#36c;}.cls-2{fill:none;stroke:#36c;stroke-miterlimit:10;}</style></defs><g id="Capa_2" data-name="Capa 2"><g id="Capa_1-2" data-name="Capa 1"><path class="cls-1" d="M41.34,14.53c-.22,0-.44.07-.66.08a4.35,4.35,0,0,1-.51,0H40a19.77,19.77,0,0,1,1.17,6.64A20,20,0,1,1,33.32,5.44a5.89,5.89,0,0,1,.59-1.24,21.25,21.25,0,1,0,8.64,17.07,21.34,21.34,0,0,0-1.12-6.76Z"/><circle class="cls-2" cx="39.59" cy="8.02" r="6.95"/><path class="cls-1" d="M44.63,7V9.07H34.54V7ZM40.75,2.76V13.28h-2.3V2.76Z"/><path class="cls-1" d="M13.44,16a7.7,7.7,0,0,1,.65-3.06,8.15,8.15,0,0,1,1.7-2.49,7.89,7.89,0,0,1,2.5-1.67,7.85,7.85,0,0,1,6.14,0A8,8,0,0,1,27,10.45,8.19,8.19,0,0,1,28.66,13a7.87,7.87,0,0,1,.62,3.1,7.45,7.45,0,0,1-.63,3.06,8.12,8.12,0,0,1-1.72,2.47,8.1,8.1,0,0,1-5.63,2.26h-.64v3a1.35,1.35,0,0,1-.36.94,1.23,1.23,0,0,1-.9.38,1.27,1.27,0,0,1-.93-.38,1.32,1.32,0,0,1-.38-.94V22.6a1.24,1.24,0,0,1,.39-.93,1.28,1.28,0,0,1,.92-.38h2a5.39,5.39,0,0,0,2.08-.4,5.52,5.52,0,0,0,1.7-1.12,5.16,5.16,0,0,0,1.15-1.65,5,5,0,0,0,.42-2A5.55,5.55,0,0,0,26.3,14a5.18,5.18,0,0,0-1.14-1.71,5.27,5.27,0,0,0-1.7-1.15,5.43,5.43,0,0,0-2.1-.42,5.34,5.34,0,0,0-2,.4,5.39,5.39,0,0,0-1.69,1.11,5.26,5.26,0,0,0-1.16,1.67A5.12,5.12,0,0,0,16,16v.1a1.33,1.33,0,0,1-.36.94,1.17,1.17,0,0,1-.89.39,1.28,1.28,0,0,1-.95-.39,1.3,1.3,0,0,1-.37-.94Zm4.43,17.2a1.5,1.5,0,0,1,1.51-1.54,1.5,1.5,0,0,1,1.08.44,1.49,1.49,0,0,1,.45,1.1,1.39,1.39,0,0,1-.12.57,2,2,0,0,1-.33.48,1.51,1.51,0,0,1-.49.33,1.37,1.37,0,0,1-.59.13,1.34,1.34,0,0,1-.59-.13,1.43,1.43,0,0,1-.47-.33,1.71,1.71,0,0,1-.33-.48A1.39,1.39,0,0,1,17.87,33.16Z"/></g></g></svg>