<svg id="evs_rol" data-name="evs rol" xmlns="http://www.w3.org/2000/svg" width="47.181" height="47.181" viewBox="0 0 47.181 47.181">
  <g id="Grupo_7" data-name="Grupo 7" transform="translate(-941.246 -449.814)">
    <g id="Grupo_5" data-name="Grupo 5">
      <path id="Trazado_6" data-name="Trazado 6" d="M964.837,496.995a23.59,23.59,0,1,1,23.59-23.591A23.618,23.618,0,0,1,964.837,496.995Zm0-45.692a22.1,22.1,0,1,0,22.1,22.1A22.127,22.127,0,0,0,964.837,451.3Z" fill="#36c"/>
    </g>
    <g id="Grupo_6" data-name="Grupo 6">
      <path id="Trazado_7" data-name="Trazado 7" d="M984.8,472.1v2.588H972.463V472.1Zm-4.753-5.126v12.865H977.24V466.972Z" fill="#36c"/>
    </g>
  </g>
  <g id="Grupo_8" data-name="Grupo 8" transform="translate(-941.246 -449.814)">
    <circle id="Elipse_7" data-name="Elipse 7" cx="5.825" cy="5.825" r="5.825" transform="translate(955.681 461.118)" fill="none" stroke="#36c" stroke-miterlimit="10" stroke-width="2"/>
    <path id="Trazado_8" data-name="Trazado 8" d="M950.027,486.631s.236-8.8,7.232-12.3a6.539,6.539,0,0,0,4.229,2.147,5.74,5.74,0,0,0,4.16-2.147c2.048,1.086,6.733,4.1,7.3,12.3Z" fill="none" stroke="#36c" stroke-linecap="round" stroke-linejoin="round" stroke-width="2"/>
  </g>
</svg>
