<svg id="ver_rol" data-name="ver rol" xmlns="http://www.w3.org/2000/svg" width="24.238" height="24.238" viewBox="0 0 24.238 24.238">
  <g id="Grupo_10" data-name="Grupo 10" transform="translate(-410.387 -1190.953)">
    <g id="Grupo_9" data-name="Grupo 9">
      <rect id="Rectángulo_8" data-name="Rectángulo 8" width="24.238" height="24.238" rx="6.432" transform="translate(410.387 1190.953)" fill="#f42f63"/>
    </g>
  </g>
  <g id="Grupo_12" data-name="Grupo 12" transform="translate(-410.387 -1190.953)">
    <path id="Trazado_29" data-name="Trazado 29" d="M422.319,1207.293a10.971,10.971,0,0,1-7.9-4.4.364.364,0,0,1-.025-.516l.019-.019a10.722,10.722,0,0,1,7.715-4.369,8.05,8.05,0,0,1,3.9.75,11.987,11.987,0,0,1,4.554,3.561.429.429,0,0,1,.039.6c-.01.012-.022.024-.033.035a11.132,11.132,0,0,1-6.752,4.217C423.306,1207.248,422.761,1207.254,422.319,1207.293Zm-6.838-4.7c4.207,4.95,10,4.815,14.05,0a10.9,10.9,0,0,0-4.623-3.233c1.1,1.8.993,3.326-.246,4.494a3.187,3.187,0,0,1-3.976.265,3.042,3.042,0,0,1-1.231-3.239,3.418,3.418,0,0,0,.339.178,1.064,1.064,0,0,0,1.265-.405.994.994,0,0,0-.1-1.278.508.508,0,0,0-.4-.133,10.534,10.534,0,0,0-5.071,3.351Z" fill="#fff"/>
  </g>
</svg>
