<svg xmlns="http://www.w3.org/2000/svg" viewBox="0 0 22.67 24.14"><defs><style>.cls-1{fill:#4b68ae;}</style></defs><g id="Capa_2" data-name="Capa 2"><g id="Capa_1-2" data-name="Capa 1"><path class="cls-1" d="M16.61,14.18a4.1,4.1,0,0,0-.5,0H7.22c-.44,0-.89,0-1.33,0a.79.79,0,0,0-.73.79.81.81,0,0,0,.74.82H16.19a2.47,2.47,0,0,0,.47,0,.81.81,0,0,0,.66-.82A.8.8,0,0,0,16.61,14.18Z" transform="translate(0)"/><path class="cls-1" d="M20.25,3.13A6,6,0,0,0,17,1.79c-.28,0-.43-.12-.4-.41a3.74,3.74,0,0,0,0-.58.84.84,0,0,0-1.67,0,2.06,2.06,0,0,0,0,.43c0,.37-.11.48-.47.47-1.9,0-3.8,0-5.71,0-.87,0-.87,0-.91-.88a.61.61,0,0,0,0-.14A.84.84,0,0,0,6.92,0c-.49,0-.79.39-.8,1,0,.74,0,.74-.7.85A6.37,6.37,0,0,0,0,8.15c0,2.7,0,6.9,0,9.6a6.34,6.34,0,0,0,6.38,6.39h10a6.34,6.34,0,0,0,6.32-6.3c0-2.77,0-7,0-9.78A6.18,6.18,0,0,0,20.25,3.13ZM1.71,7.57a4.77,4.77,0,0,1,4-4.1c.3,0,.46,0,.42.37a2.9,2.9,0,0,0,0,.51.84.84,0,0,0,1.67,0V4.26c0-.86,0-.86.91-.86h5.67c.5,0,.5,0,.51.5,0,.14,0,.28,0,.43a.83.83,0,0,0,1.66,0,2.1,2.1,0,0,0,0-.5c0-.34.12-.41.42-.38a4.78,4.78,0,0,1,4,4.1c0,.19-.06.3-.25.3H2C1.77,7.87,1.7,7.76,1.71,7.57ZM21,18a4.64,4.64,0,0,1-4.45,4.46q-5.19,0-10.38,0A4.64,4.64,0,0,1,1.69,18c0-2.18,0-5.84,0-8,0-.46,0-.48.49-.48H20.41c.58,0,.58,0,.58.57C21,12.23,21,15.86,21,18Z" transform="translate(0)"/><path class="cls-1" d="M11.24,18.55c-1.75,0-3.51,0-5.27,0a.74.74,0,0,0-.62.29.78.78,0,0,0-.12.84.76.76,0,0,0,.73.49H11.2a.84.84,0,0,0,.87-.82A.8.8,0,0,0,11.24,18.55Z" transform="translate(0)"/></g></g></svg>