<svg xmlns="http://www.w3.org/2000/svg" viewBox="0 0 22.31 22.8"><defs><style>.cls-1{fill:#4b68ae;}</style></defs><g id="Capa_2" data-name="Capa 2"><g id="Capa_1-2" data-name="Capa 1"><g id="_7BbJlI.tif" data-name="7BbJlI.tif"><path class="cls-1" d="M9.05,22.79c-2.28-.13-4.83.34-6.74-.95A5.06,5.06,0,0,1,0,18.21a5.48,5.48,0,0,1,0-.7C0,13.32,0,9.13,0,4.94A2.57,2.57,0,0,1,.22,3.88C1.73.48,4.72-.48,7.69,1.07A3.6,3.6,0,0,0,11.61.83c1.12-.89,2.15-.44,2.15.4a.88.88,0,0,1-1,.88H2a.22.22,0,0,0-.22.23c0,5.69,0,11.39,0,17.09a.23.23,0,0,0,.11.2c.93.61,2.45,1.58,4,1.19a20.39,20.39,0,0,1,10.29-.05,3.37,3.37,0,0,0,4.41-3.23q0-3.85,0-7.71A.88.88,0,0,1,22,9.14a1,1,0,0,1,.28.45v8.52l0,.16a5.05,5.05,0,0,1-2.35,3.63,7.36,7.36,0,0,1-3.66.9Z"/><path class="cls-1" d="M22.31,4a1.44,1.44,0,0,1-.4.57C21.44,5,21,5.51,20.52,6,19.24,4.71,18,3.43,16.68,2.16,17.43,1.45,18.13.69,18.89,0L22,3.1a1.41,1.41,0,0,1,.31.49Z"/><path class="cls-1" d="M9.77,15a4.45,4.45,0,0,1-2-.24,25.73,25.73,0,0,1,0-3.62l7.78-7.78,3.83,3.82-7.51,7.5A1.08,1.08,0,0,1,11,15Z"/></g></g></g></svg>