<?xml version="1.0" encoding="UTF-8"?><svg id="Capa_2" xmlns="http://www.w3.org/2000/svg" viewBox="0 0 37.89 40.35"><g id="Capa_1-2"><g><path d="M27.76,23.7c-.28-.03-.56-.03-.84-.03-2.72,0-5.43,0-8.15,0-2.24,0-4.47,0-6.71,0-.74,0-1.48-.01-2.22,.03-.71,.04-1.21,.62-1.22,1.31,0,.72,.51,1.31,1.23,1.38,.22,.02,.44,.02,.66,.02,5.51,0,11.03,0,16.54,0,.26,0,.52,0,.78-.03,.65-.11,1.12-.71,1.1-1.37-.01-.67-.5-1.22-1.17-1.3Z" fill="#4b68ae"/><path d="M33.85,5.24c-1.61-1.31-3.46-2.06-5.53-2.24-.46-.04-.71-.19-.66-.7,.03-.32,.02-.64,0-.96C27.58,.54,26.99,0,26.23,0c-.75,0-1.32,.58-1.36,1.39-.01,.24-.03,.48,0,.72,.07,.61-.18,.79-.78,.79-3.18-.03-6.36-.01-9.54-.01q-1.45,0-1.53-1.47c0-.08,0-.16-.02-.24C12.87,.46,12.27-.03,11.56,0c-.81,.04-1.32,.66-1.34,1.61q-.02,1.23-1.17,1.42C3.78,3.89,.03,8.27,.01,13.62c-.01,4.52-.01,11.53,0,16.05,.02,5.97,4.7,10.65,10.67,10.68,2.74,.01,5.48,0,8.22,0,2.8,0,5.6,.01,8.4,0,5.83-.03,10.54-4.72,10.57-10.53,.02-4.62,.03-11.73,0-16.35-.02-3.37-1.41-6.11-4.02-8.23ZM2.86,12.65c.21-3.26,3.39-6.53,6.66-6.84,.5-.05,.77,.06,.7,.62-.03,.28-.02,.56,0,.84,.07,.8,.66,1.33,1.44,1.31,.75-.02,1.28-.55,1.34-1.34,0-.04,0-.08,0-.12q.06-1.43,1.51-1.43c3.16,0,6.32,0,9.48,0,.84,0,.85,.01,.85,.83,0,.24,0,.48,0,.72,.06,.79,.59,1.32,1.34,1.34,.78,.02,1.36-.5,1.44-1.31,.03-.28,.04-.56,0-.84-.07-.57,.2-.67,.7-.63,3.27,.32,6.44,3.58,6.66,6.84,.02,.33-.09,.5-.42,.51-.24,.01-.48,.01-.72,.01-4.98,0-9.96,0-14.94,0s-9.96,0-14.94,0c-.24,0-.48,0-.72-.01-.33-.01-.44-.18-.42-.51ZM35.06,30.08c-.05,3.92-3.53,7.42-7.44,7.45-5.78,.04-11.56,.04-17.34,0-3.93-.03-7.42-3.5-7.46-7.42-.05-3.64-.02-9.77-.02-13.41,0-.77,.03-.8,.82-.8,5.12,0,10.24,0,15.36,0,5.04,0,10.08,0,15.12,0,.97,0,.97,0,.97,.95,0,3.58,.02,9.65-.02,13.23Z" fill="#4b68ae"/><path d="M18.79,31c-2.94-.02-5.87,0-8.81,0-.42,0-.78,.15-1.05,.49-.33,.43-.42,.9-.19,1.41,.24,.52,.64,.81,1.22,.82,1.48,0,2.96,0,4.44,0h0c1.44,0,2.88,.01,4.32,0,.84,0,1.45-.6,1.45-1.36,0-.75-.56-1.35-1.38-1.35Z" fill="#4b68ae"/></g></g></svg>