<?xml version="1.0" encoding="utf-8"?>
<!-- Generator: Adobe Illustrator 16.0.0, SVG Export Plug-In . SVG Version: 6.00 Build 0)  -->
<!DOCTYPE svg PUBLIC "-//W3C//DTD SVG 1.1//EN" "http://www.w3.org/Graphics/SVG/1.1/DTD/svg11.dtd">
<svg version="1.1" id="Capa_1" xmlns="http://www.w3.org/2000/svg" xmlns:xlink="http://www.w3.org/1999/xlink" x="0px" y="0px"
	 width="12px" height="54.015px" viewBox="0 0 12 54.015" enable-background="new 0 0 12 54.015" xml:space="preserve">
<path fill="#AAAAAA" d="M6.044,0c-2.19,0-4.029,1.839-4.029,4.029v2.015H0v7.971h12V6.044H9.985V4.029C9.985,1.839,8.233,0,6.044,0z
	 M6.044,2.015c1.139,0,2.015,0.875,2.015,2.014v2.015H4.029V4.029C4.029,2.891,4.905,2.015,6.044,2.015z"/>
<path fill="#555555" d="M6.044,40c-2.19,0-4.029,1.839-4.029,4.029v2.015H0v7.971h12v-7.971H9.986v-2.015
	C9.986,41.839,8.234,40,6.044,40z M6.044,42.015c1.139,0,2.015,0.875,2.015,2.014v2.015H4.029v-2.015
	C4.029,42.891,4.905,42.015,6.044,42.015z"/>
</svg>
