<svg xmlns="http://www.w3.org/2000/svg" viewBox="0 0 24.02 24.02"><defs><style>.cls-1,.cls-2{fill:none;stroke:#ccc;stroke-miterlimit:10;}.cls-1{stroke-width:2px;}.cls-2{stroke-linecap:round;stroke-width:1.5px;}</style></defs><g id="Capa_2" data-name="Capa 2"><g id="Capa_1-2" data-name="Capa 1"><circle class="cls-1" cx="12.01" cy="12.01" r="11.01"/><path class="cls-2" d="M11.17,12.25l.57.57a1.76,1.76,0,0,0,2.49,0l2.39-2.39a1.76,1.76,0,0,0,0-2.48L16,7.37a1.76,1.76,0,0,0-2.48,0l-.94.78"/><path class="cls-2" d="M13.17,11.11l-.58-.58a1.76,1.76,0,0,0-2.48,0L7.72,12.92a1.76,1.76,0,0,0,0,2.49l.57.57a1.74,1.74,0,0,0,2.48,0l.94-.77"/></g></g></svg>