<svg xmlns="http://www.w3.org/2000/svg" viewBox="0 0 16.14 17.11"><defs><style>.cls-1{fill:#4b68b0;}</style></defs><g id="Capa_2" data-name="Capa 2"><g id="Capa_1-2" data-name="Capa 1"><path class="cls-1" d="M7.24,13.4c.85,0,1.9,0,2.95-.05A6.67,6.67,0,0,0,10.89.2,27.69,27.69,0,0,0,5.58.06a1.06,1.06,0,0,0-.94,1,1.13,1.13,0,0,0,.82,1.11,2.16,2.16,0,0,0,.57,0c1.32,0,2.64-.08,4,.06a4.44,4.44,0,0,1,.4,8.76,16,16,0,0,1-2.85.11H4.42c-.15,0-.34.05-.41-.08s.12-.24.22-.34l1.3-1.31A1.12,1.12,0,1,0,4,7.88L.41,11.42a1.13,1.13,0,0,0,0,1.75C1.6,14.35,2.77,15.53,4,16.7a1.12,1.12,0,1,0,1.56-1.58c-.45-.47-.92-.93-1.38-1.39-.06-.07-.17-.14-.14-.24s.19-.08.29-.08Z"/></g></g></svg>