<?xml version="1.0" encoding="utf-8"?>
<!-- Generator: Adobe Illustrator 16.0.0, SVG Export Plug-In . SVG Version: 6.00 Build 0)  -->
<!DOCTYPE svg PUBLIC "-//W3C//DTD SVG 1.1//EN" "http://www.w3.org/Graphics/SVG/1.1/DTD/svg11.dtd">
<svg version="1.1" id="Layer_1" xmlns="http://www.w3.org/2000/svg" xmlns:xlink="http://www.w3.org/1999/xlink" x="0px" y="0px"
	 width="341.9px" height="97.7px" viewBox="0 0 341.9 97.7" enable-background="new 0 0 341.9 97.7" xml:space="preserve">
<path fill="#404041" d="M19.8,25.4c-3.6,4.9-3.6,11,0,13.6c3.6,2.6,9.4,0.8,12.9-4.1c3.6-4.9,3.6-11,0-13.6
	C29.2,18.6,23.4,20.5,19.8,25.4 M19.4,16.5c4.2-3.8,6.8-7.7,5.9-8.7c-0.9-1-5,1.2-9.2,5c-4.2,3.8-6.8,7.7-5.9,8.7
	C11.1,22.5,15.2,20.3,19.4,16.5 M27.7,66.9c-2.5-6.3-8-10.1-12.2-8.4c-4.3,1.7-5.7,8.1-3.2,14.5c2.5,6.3,8,10.1,12.2,8.4
	C28.8,79.7,30.2,73.2,27.7,66.9 M6.6,29.6c-2.9-0.2-5.8,6.8-6.4,15.7c-0.6,8.9,1.2,16.3,4.1,16.5C7.2,62,10,55,10.7,46.1
	C11.3,37.2,9.5,29.8,6.6,29.6 M45.8,9.6c7.7-0.6,13.8-3.3,13.6-6c-0.1-1.6-2.3-2.8-5.7-3.4C53.3,0.2,51.5,0.1,51,0
	C49.2,0,47.4,0,45.5,0.1c-2,0.1-3.9,0.4-5.8,0.8c-0.3,0.1-0.6,0.1-0.9,0.2c-0.5,0.1-0.9,0.2-1.3,0.4c-3.7,1.2-6,2.8-5.9,4.5
	C31.7,8.6,38.1,10.3,45.8,9.6 M74.6,18.5c5.2,4.5,10.8,6.7,12.6,4.8c1.8-1.8-1-7-6.2-11.5c-5.2-4.5-10.8-6.7-12.6-4.8
	C66.7,8.9,69.5,14,74.6,18.5 M55.6,25.6c-1.4,3.1-0.2,6.8,2.8,8.2c3,1.4,6.6,0.1,8-3c1.4-3.1,0.2-6.8-2.8-8.2
	C60.6,21.2,57,22.5,55.6,25.6 M67.1,66.9c0.7-1.6,0.8-3.6,0.1-5.2c-0.8-1.8-2.6-2.7-4-3.9c-2.7-2.2-4.4-5.3-4-8.9
	c0.1-1.1,0.4-2.3,0.9-3.2c0.5-1,1-1.9,1.8-2.7c0.7-0.7,1.5-1.4,2.4-1.9c0.8-0.4,1.8-0.8,2.7-1c0.9-0.2,1.8-0.2,2.7-0.1
	c1.9,0.2,3.6,1.1,5.5,1.1c2.3,0.1,4.6-1.3,5.7-3.6c1-2,0.7-4.3-0.4-6.1c-0.9-1.5-2.6-2.5-4.5-2.7c-1.7-0.1-3.5,0.5-4.7,1.7
	c-0.2,0.2-0.4,0.4-0.6,0.7c-0.1,0.1-0.1,0.2-0.2,0.3c-1.4,2.1-2.9,4.2-5.2,5.4c-0.9,0.4-1.8,0.7-2.8,0.9c-1.8,0.3-3.8,0.1-5.6-0.7
	c-1.8-0.9-3.3-2.3-4.2-4.1c-0.6-1.1-0.9-2.2-1.1-3.4c-0.3-2.1,0.2-4.1,0.8-6.2c0.1-0.3,0.2-0.6,0.2-0.9c0.1-0.6,0.1-1.1,0.1-1.7
	c-0.2-2-1.3-3.7-3-4.7c-0.2-0.1-0.4-0.2-0.7-0.3c-3-1.3-6.5,0.1-7.8,3.2c-1.1,2.3-0.6,5,0.9,6.7c1,1.2,2.5,1.9,3.7,3
	c1.1,1,2.1,2.2,2.8,3.6c0.7,1.6,1,3.4,0.7,5.1c-0.2,1-0.4,2.1-0.8,3c-0.4,0.9-1,1.8-1.7,2.5c-2.9,3.3-7.4,3.7-11.3,2.4
	c-3.1-1-6.4,0.1-7.8,3.2c-1.4,3.1-0.2,6.8,2.8,8.2c1.5,0.7,3.2,0.7,4.7,0.1c1.8-0.7,2.7-2,3.7-3.5c0.6-0.8,1.2-1.5,1.9-2.2
	c2.3-2.4,5.9-3.5,9.1-2.6c0.5,0.1,1.1,0.3,1.6,0.6c0.9,0.4,1.8,1,2.5,1.8c1.9,1.9,2.9,4.6,2.8,7.3c-0.1,2.9-1.8,5.7-0.8,8.7
	c0.5,1.5,1.7,2.8,3.1,3.5C62.1,71.3,65.7,70,67.1,66.9 M84.5,46.7c-4.1-1.7-9.3,1.3-11.5,6.6c-2.2,5.4-0.6,11.1,3.5,12.8
	c4.1,1.7,9.3-1.3,11.5-6.6C90.2,54.1,88.7,48.4,84.5,46.7 M93.2,34.6c-0.5-3.4-2.6-5.9-4.8-5.6c-2.2,0.3-3.6,3.3-3.1,6.7
	c0.5,3.4,2.6,5.9,4.8,5.6C92.2,41,93.6,38,93.2,34.6 M36,90c-6.7-2-12.5-2.4-13-0.8c-0.1,0.4,0.1,0.9,0.7,1.5
	c0.2,0.2,0.4,0.4,0.7,0.6c1,0.8,4.2,2.3,4.5,2.4c3.8,1.7,7.9,3,12.2,3.7c3.4,0.5,5.8,0.2,6.1-0.8C47.8,95,42.7,92.1,36,90
	 M97.3,47.7c-1.1-0.3-3.2,4.5-4.6,10.9c-1.5,6.5-1.7,12-0.5,12.3c1.1,0.3,3.2-4.8,4.7-11.2C98.2,53.3,98.4,48,97.3,47.7 M67.1,78.1
	c-7,4.3-10.9,10.6-8.6,14c1.8,2.7,6.8,2.9,12.3,0.7c0.4-0.2,2-0.9,2.4-1.2c2.3-1.3,4.4-2.8,6.5-4.4c0.3-0.3,0.6-0.6,0.9-0.9
	c3.4-3.6,4.9-7.4,3.3-9.8C81.6,73.2,74.1,73.8,67.1,78.1 M40,68c-4,2.6-5.5,7.8-3.1,11.8c2.5,4.3,8.2,5.8,12.8,3
	c4.7-2.8,5.9-8.6,2.9-12.8C49.8,66.2,44.2,65.3,40,68"/>
<path fill="#808284" d="M132.1,57.9c-8,0-14.5,6.6-14.5,14.7c0,8.1,6.5,14.7,14.5,14.7c3.5,0,6.7-1.3,9.2-3.4c0.9,2,2.8,3.3,5.1,3.4
	h0.2V72.3h0C146.4,64.3,140,57.9,132.1,57.9 M132.1,81.6c-4.9,0-8.8-4-8.8-9s3.9-9,8.8-9s8.8,4,8.8,9
	C140.9,77.6,137,81.6,132.1,81.6 M162.7,48.1c8,0,14.5-6.6,14.5-14.7c0-8.1-6.5-14.7-14.5-14.7c-8,0-14.5,6.6-14.5,14.7
	C148.2,41.5,154.7,48.1,162.7,48.1 M162.7,24.4c4.9,0,8.8,4,8.8,9c0,5-3.9,9-8.8,9c-4.9,0-8.8-4-8.8-9
	C153.9,28.5,157.8,24.4,162.7,24.4 M341.6,76.3c-0.7-2.2-2.4-3.9-4.5-4.8c-1.5-0.7-3.2-1-4.8-1.4c-0.5-0.1-0.9-0.2-1.4-0.3
	c-1.3-0.3-2.8-0.6-3.7-1.6c-0.4-0.5-0.7-1.2-0.7-1.9c0-1.7,1.5-2.8,3-3.1c0.4-0.1,0.9-0.1,1.3-0.1c0.9,0,1.8,0.2,2.6,0.6
	c0.5,0.2,0.9,0.5,1.3,0.8c1.1,0.6,2.4,1.1,3.7,1.1h0v0h3.3v-0.1c0-0.1-0.1-0.3-0.1-0.4c-0.3-1-0.8-2-1.5-2.9c-1-1.3-2.3-2.4-3.8-3.2
	c-0.2-0.1-0.4-0.2-0.6-0.3c-1.4-0.6-3-1-4.6-1H331c-1.4,0-2.8,0.3-4.2,0.8c-0.2,0.1-0.4,0.2-0.6,0.3c-2,1-3.6,2.5-4.7,4.3
	c-0.6,1.2-1,2.4-1,3.8c0,2.4,1.1,4.2,3.1,5.5c1.3,0.8,2.7,1.3,4.2,1.7c1.3,0.3,2.7,0.7,4,1.1c1,0.3,2.1,0.5,3,1
	c0.5,0.2,0.9,0.7,1.1,1.1c0.6,1.3,0.2,2.8-0.9,3.6c-0.3,0.2-0.6,0.4-0.9,0.5c-1.6,0.6-3.4,0.5-5,0.1c-0.8-0.2-1.5-0.5-2.2-0.9
	c-0.4-0.3-0.9-0.6-1.3-0.9c-0.8-0.4-1.7-0.6-2.6-0.6h0c0,0-2.4,0-2.4,0c0,0.3,0.1,0.6,0.1,0.9c0.9,4.1,5.4,7.2,10.5,7.2
	c0.3,0,0.7,0,1,0c2.3-0.2,4.5-1,6.3-2.4c1.7-1.4,3.1-3.3,3.3-5.6C342,78.3,341.9,77.3,341.6,76.3 M288.1,48.1c1.4,0,2.8-0.2,4.1-0.6
	c3.6-1.1,6.7-3.7,8.5-7c0.2-0.4,0.5-0.9,0.7-1.4h-4.1c-0.1,0-0.3,0-0.3,0c-1.2,0-2.4,0.5-3.3,1.2c-0.1,0.1-0.1,0.1-0.2,0.2
	c-1.5,1.2-3.3,1.9-5.3,1.9c-4.9,0-8.8-4-8.8-9s3.9-9,8.8-9c2,0,3.9,0.7,5.3,1.9c0.1,0,0.1,0.1,0.2,0.1c0.9,0.7,2,1.1,3.3,1.2
	c0.1,0,4.5,0,4.5,0c-0.2-0.5-0.4-0.9-0.7-1.4c-1.8-3.3-4.8-5.9-8.5-7c-1.3-0.4-2.7-0.6-4.1-0.6c-8,0-14.5,6.6-14.5,14.7
	C273.6,41.5,280.1,48.1,288.1,48.1 M189.8,68.3c-0.1-1.2-0.4-2.4-0.8-3.5c-0.6-1.4-1.4-2.6-2.4-3.6c-0.8-0.8-1.6-1.4-2.5-1.9
	c-0.3-0.2-0.7-0.4-1-0.5c-1.4-0.6-2.9-0.9-4.4-0.9c-1.5,0-3,0.3-4.4,0.9c-0.8,0.3-1.5,0.8-2.2,1.3c-0.5,0.4-0.9,0.7-1.3,1.2
	c-0.1,0.1-0.3,0.3-0.4,0.4c-0.1-0.1-0.3-0.3-0.4-0.4c-0.8-0.8-1.6-1.4-2.5-1.9c-0.3-0.2-0.7-0.4-1.1-0.5c-1.4-0.6-2.9-0.9-4.4-0.9
	c-1.5,0-3,0.3-4.4,0.9c-0.8,0.3-1.5,0.8-2.2,1.3c-0.5,0.3-0.9,0.7-1.3,1.2c-1,1-1.8,2.3-2.4,3.6c-0.6,1.4-0.9,2.9-0.9,4.4v12.4
	c0,3.1,2.5,5.7,5.6,5.7h0.2v-7.8l0-10V69c0.1-3,2.5-5.3,5.5-5.3c2.9,0,5.2,2.2,5.4,5.1v12.9c0,3.1,2.5,5.7,5.6,5.7h0.2l0-7.8v-9.7
	c0-0.2,0-0.4,0-0.6v0c0-3.1,2.5-5.6,5.5-5.6c2.8,0,5.1,2.1,5.4,4.9v13.1c0,3.1,2.5,5.7,5.6,5.7h0.2l0-17.1c0-0.3,0-0.6,0-0.9
	C189.9,68.9,189.8,68.6,189.8,68.3 M132.1,48.1c1.4,0,2.8-0.2,4.1-0.6c3.7-1.1,6.7-3.7,8.5-7c0.2-0.4,0.5-0.9,0.7-1.4h-4.1
	c-0.1,0-0.3,0-0.3,0c-1.2,0-2.4,0.5-3.3,1.2c-0.1,0.1-0.1,0.1-0.2,0.2c-1.5,1.2-3.3,1.9-5.3,1.9c-4.9,0-8.8-4-8.8-9c0-5,3.9-9,8.8-9
	c2,0,3.9,0.7,5.3,1.9c0.1,0,0.1,0.1,0.2,0.1c0.9,0.7,2,1.1,3.3,1.2c0.1,0,4.5,0,4.5,0c-0.2-0.5-0.4-0.9-0.7-1.4
	c-1.8-3.3-4.9-5.9-8.5-7c-1.3-0.4-2.7-0.6-4.1-0.6c-8,0-14.5,6.6-14.5,14.7C117.7,41.5,124.1,48.1,132.1,48.1 M186.7,48.1h0.2V31.4
	c0-3.9,3.2-7.1,7.1-7.1c3.9,0,7.1,3.2,7.1,7.1v11c0,3.1,2.5,5.6,5.6,5.7h0.2V31.4c0-2.3-0.6-4.5-1.7-6.3c-2.2-3.9-6.4-6.5-11.1-6.5
	c-4.3,0-8.1,2.1-10.4,5.4c-1.5,2.1-2.4,4.7-2.4,7.5v11C181.2,45.6,183.7,48.1,186.7,48.1 M313.4,42.5c-1.5-0.6-2.2-2-2.2-4.1V24.3
	h0.4c3-0.1,5.4-2.5,5.5-5.6h-5.9V16c0-3.1-2.5-5.7-5.7-5.7h-0.2v28.5c0,2.3,0.5,4.2,1.5,5.6c1.7,2.4,4.7,3.7,9.1,3.7h1.2v-0.3
	C317.2,45.4,315.6,43.3,313.4,42.5 M302,57.9c-8,0-14.5,6.6-14.5,14.7c0,8.1,6.5,14.7,14.5,14.7c3.5,0,6.7-1.3,9.2-3.4
	c0.9,2,2.8,3.3,5.1,3.4h0.2V72.3h0C316.3,64.3,309.9,57.9,302,57.9 M302,81.6c-4.9,0-8.8-4-8.8-9c0-5,3.9-9,8.8-9c4.9,0,8.8,4,8.8,9
	S306.9,81.6,302,81.6 M246.7,62.3h-0.1v19.3c0,3.1,2.5,5.7,5.6,5.7h0.2V67.9C252.3,64.8,249.8,62.3,246.7,62.3 M249.4,59.3
	c1.6,0,2.9-1.3,2.9-2.9c0-1.6-1.3-2.9-2.9-2.9c-1.6,0-2.9,1.3-2.9,2.9C246.5,57.9,247.8,59.2,249.4,59.3 M270.9,63.6
	c2,0,3.9,0.7,5.3,1.9c0.1,0,0.1,0.1,0.2,0.1c0.9,0.7,2,1.1,3.3,1.2h4.5c-0.2-0.5-0.4-0.9-0.6-1.4c-1.8-3.3-4.9-5.9-8.5-7
	c-1.3-0.4-2.7-0.6-4.1-0.6c-8,0-14.5,6.6-14.5,14.7c0,8.1,6.5,14.7,14.5,14.7c1.4,0,2.8-0.2,4.1-0.6c3.7-1.1,6.7-3.7,8.5-7
	c0.2-0.4,0.5-0.9,0.6-1.4H280c-0.1,0-0.3,0-0.3,0c-1.2,0-2.4,0.5-3.3,1.2c-0.1,0.1-0.1,0.1-0.2,0.2c-1.5,1.2-3.3,1.9-5.3,1.9
	c-4.9,0-8.8-4-8.8-9C262.1,67.7,266,63.6,270.9,63.6 M264.7,44.4c1.2-1.1,2.2-2.4,3-3.9c0,0,0,0,0,0c0.2-0.4,0.5-0.9,0.6-1.3h-3.9
	c-0.1,0-0.6,0-0.7,0c-1.2,0.1-2.2,0.5-3.1,1.2c0,0-0.1,0.1-0.1,0.1c-1.5,1.2-3.4,1.9-5.4,1.9c-3,0-5.6-1.5-7.2-3.8
	c-0.7-1.1-1.2-2.3-1.4-3.6h23.1c0.1-0.5,0.1-1,0.1-1.5c0-1-0.1-1.9-0.3-2.8c-1.3-6.8-7.2-11.9-14.2-11.9c-8,0-14.5,6.6-14.5,14.7
	c0,8.1,6.5,14.7,14.5,14.7c1.4,0,2.8-0.2,4.2-0.6C261.3,46.9,263.2,45.8,264.7,44.4 M255.1,24.4c3.9,0,7.2,2.6,8.4,6.1h-16.7
	C247.9,27,251.2,24.4,255.1,24.4 M208.4,57.9c-8,0-14.5,6.6-14.5,14.7c0,8.1,6.5,14.7,14.5,14.7c1.4,0,2.8-0.2,4.2-0.6
	c2.1-0.6,3.9-1.7,5.5-3.1c1.2-1.1,2.2-2.4,3-3.9c0,0,0,0,0,0c0.2-0.4,0.5-0.9,0.6-1.3h-3.9c-0.1,0-0.6,0-0.7,0
	c-1.2,0.1-2.2,0.5-3.1,1.2c0,0-0.1,0.1-0.1,0.1c-1.5,1.2-3.4,1.9-5.4,1.9c-3,0-5.6-1.5-7.2-3.9c-0.7-1.1-1.2-2.3-1.4-3.6h23.1
	c0-0.5,0.1-1,0.1-1.5c0-1-0.1-1.9-0.3-2.8C221.3,63,215.4,57.9,208.4,57.9 M199.8,69.8c1.2-3.6,4.5-6.1,8.4-6.1
	c3.9,0,7.2,2.6,8.3,6.1H199.8z M230.8,31.4v11c0,3.1,2.5,5.6,5.6,5.7h0.2V31.4c0-2.3-0.6-4.5-1.7-6.3c-2.2-3.9-6.4-6.5-11.1-6.5
	c-4.3,0-8.1,2.1-10.4,5.4c-1.5,2.1-2.4,4.7-2.4,7.5v11c0,3.1,2.5,5.6,5.6,5.7h0.2V31.4c0-3.9,3.2-7.1,7.1-7.1
	C227.7,24.3,230.8,27.5,230.8,31.4 M239.7,57.8h-0.1c-2.9,0-5.6,1-7.8,2.7c-1,0.8-1.8,1.6-2.5,2.6c-1.5,2.1-2.4,4.7-2.4,7.5v11
	c0,3.1,2.5,5.6,5.6,5.7h0.2V70.7c0-3.3,2.2-6,5.3-6.8c0.2,0,0.3-0.1,0.5-0.1c2.3-0.6,4-2.8,4.1-5.3v-0.6H239.7L239.7,57.8z"/>
</svg>
