<svg xmlns="http://www.w3.org/2000/svg" viewBox="0 0 15.95 13.13"><defs><style>.cls-1{fill:#386bfb;}</style></defs><g id="Capa_2" data-name="Capa 2"><g id="Capa_1-2" data-name="Capa 1"><path class="cls-1" d="M15.88,1.57A6.57,6.57,0,0,1,14.27,2c.26,0,.64-.51.79-.7a3,3,0,0,0,.54-1s0-.06,0-.08a.08.08,0,0,0-.08,0A8.66,8.66,0,0,1,13.6,1a.14.14,0,0,1-.14,0A1.29,1.29,0,0,0,13.3.8a3.3,3.3,0,0,0-.93-.56A3.15,3.15,0,0,0,11,0,3.37,3.37,0,0,0,9.6.39a3.47,3.47,0,0,0-1.09.89,3.24,3.24,0,0,0-.64,1.3A3.33,3.33,0,0,0,7.83,4c0,.08,0,.09-.06.08A10.25,10.25,0,0,1,1.19.68C1.12.59,1.08.59,1,.69a3.34,3.34,0,0,0,.57,3.93A3.52,3.52,0,0,0,2,5,3.3,3.3,0,0,1,.72,4.62c-.08,0-.12,0-.12.07a1.64,1.64,0,0,0,0,.38A3.35,3.35,0,0,0,2.69,7.75a1.69,1.69,0,0,0,.42.13,3.51,3.51,0,0,1-1.24,0c-.09,0-.12,0-.09.12a3.49,3.49,0,0,0,2.61,2.18c.12,0,.24,0,.36,0l0,0a4.19,4.19,0,0,1-1.79,1,6.57,6.57,0,0,1-2.71.35c-.14,0-.17,0-.21,0s0,.05,0,.09.37.23.56.34a9.11,9.11,0,0,0,1.81.72,9.64,9.64,0,0,0,9.37-2.19,9.83,9.83,0,0,0,2.59-7.17c0-.1.13-.16.2-.21a6.41,6.41,0,0,0,1.27-1.33A.37.37,0,0,0,16,1.59v0S16,1.54,15.88,1.57Z"/></g></g></svg>