<svg id="carpeta_blanca" data-name="carpeta blanca" xmlns="http://www.w3.org/2000/svg" width="21.22" height="16.714" viewBox="0 0 21.22 16.714">
  <path id="Trazado_36" data-name="Trazado 36" d="M508.89,531.28H493.859a2.475,2.475,0,0,1-2.471-2.472V517.93a2.294,2.294,0,0,1,2.292-2.292h2.292a2.287,2.287,0,0,1,2.184,1.595l.259.812,10.475-.006a2.474,2.474,0,0,1,2.472,2.471v8.3A2.475,2.475,0,0,1,508.89,531.28Zm-15.21-14.562a1.212,1.212,0,0,0-1.212,1.212v10.878a1.393,1.393,0,0,0,1.391,1.392H508.89a1.394,1.394,0,0,0,1.392-1.392v-8.3a1.394,1.394,0,0,0-1.392-1.392H498.4a1.066,1.066,0,0,1-1.019-.744l-.26-.812a1.208,1.208,0,0,0-1.154-.844Z" transform="translate(-490.142 -515.638)" fill="#f2f2f2"/>
  <path id="Trazado_37" data-name="Trazado 37" d="M507.415,520.795H496.738a.539.539,0,0,1-.515-.351l-.264-.772a1.776,1.776,0,0,0-1.7-1.159h-2.334a1.727,1.727,0,0,0-1.784,1.665v10.338a1.9,1.9,0,0,0,1.967,1.836h15.306a1.9,1.9,0,0,0,1.967-1.836V522.63A1.9,1.9,0,0,0,507.415,520.795Z" transform="translate(-490.142 -515.638)" fill="#f2f2f2"/>
</svg>
