<svg xmlns="http://www.w3.org/2000/svg" width="17.201" height="18.059" viewBox="0 0 17.201 18.059">
  <g id="vinculo" transform="translate(0.678)">
    <g id="Grupo_17" data-name="Grupo 17" transform="translate(-569.034 -588.505)">
      <g id="Grupo_16" data-name="Grupo 16">
        <path id="Trazado_34" data-name="Trazado 34" d="M576.956,603.225l-1.754,1.753a3.1,3.1,0,0,1-4.384,0l-.876-.877a3.1,3.1,0,0,1,0-4.384l3.068-3.068a3.1,3.1,0,0,1,4.384,0h0" fill="none" stroke="#36c" stroke-linecap="round" stroke-miterlimit="10" stroke-width="1.356"/>
        <path id="Trazado_35" data-name="Trazado 35" d="M576.533,594l2.176-2.177a3.1,3.1,0,0,1,4.384,0l.877.877a3.1,3.1,0,0,1,0,4.384l-3.069,3.069a3.1,3.1,0,0,1-4.383,0h0" fill="none" stroke="#36c" stroke-linecap="round" stroke-miterlimit="10" stroke-width="1.356"/>
      </g>
    </g>
    <rect id="Rect치ngulo_3" data-name="Rect치ngulo 3" width="1.203" height="5.122" rx="0.602" transform="matrix(0.605, -0.796, 0.796, 0.605, 0.388, 3.064)" fill="#36c"/>
    <rect id="Rect치ngulo_4" data-name="Rect치ngulo 4" width="1.203" height="5.122" rx="0.602" transform="translate(3.104 0.516) rotate(-25.399)" fill="#36c"/>
  </g>
</svg>
