<svg id="Capa_1" data-name="Capa 1" xmlns="http://www.w3.org/2000/svg" viewBox="0 0 44.15 33.27"><defs><style>.cls-1{fill:#36c;}</style></defs><title>anterior</title><path class="cls-1" d="M281.14,410.15l3.17-7.92H285l3.17,7.92h-.64l-2.59-6.5-.29-.84h0l-.29.82-2.59,6.52Zm1.41-2.49v-.55h4.21v.55Z" transform="translate(-281.14 -377)"/><path class="cls-1" d="M289.48,410.15v-6H290l.05,1.5-.1-.09a2.23,2.23,0,0,1,.51-.84,2.17,2.17,0,0,1,.8-.52,2.78,2.78,0,0,1,1-.17,2.67,2.67,0,0,1,1.19.25,1.93,1.93,0,0,1,.81.74,2.45,2.45,0,0,1,.29,1.24v3.89H294v-3.7a1.89,1.89,0,0,0-.48-1.44,1.82,1.82,0,0,0-1.27-.46,2.21,2.21,0,0,0-1.05.26,2,2,0,0,0-.79.75,2.19,2.19,0,0,0-.31,1.2v3.39Z" transform="translate(-281.14 -377)"/><path class="cls-1" d="M299.74,404.15v.51h-4v-.51Zm-2.24-1.67v6.08a1.23,1.23,0,0,0,.27.86,1,1,0,0,0,.78.29,1.4,1.4,0,0,0,.6-.11,1.62,1.62,0,0,0,.46-.33l.23.49a1.7,1.7,0,0,1-.58.37,2.13,2.13,0,0,1-.78.14,1.84,1.84,0,0,1-.83-.18,1.22,1.22,0,0,1-.55-.53,1.8,1.8,0,0,1-.2-.91v-6Z" transform="translate(-281.14 -377)"/><path class="cls-1" d="M302,409.89a2.66,2.66,0,0,1-1-1.08,4,4,0,0,1,0-3.32,2.68,2.68,0,0,1,1-1.09,2.75,2.75,0,0,1,1.43-.37,2.58,2.58,0,0,1,1.38.35,2.36,2.36,0,0,1,.9,1,3.36,3.36,0,0,1,.31,1.49v.21c0,.07,0,.13,0,.19h-5v-.54h4.72l-.32.22a2.44,2.44,0,0,0-.49-1.75,1.86,1.86,0,0,0-1.51-.65,2.16,2.16,0,0,0-1.14.31,2,2,0,0,0-.77.9,3.35,3.35,0,0,0-.27,1.39,3.15,3.15,0,0,0,.28,1.38,2,2,0,0,0,.79.9,2.19,2.19,0,0,0,1.18.31,2.29,2.29,0,0,0,1.19-.3,1.9,1.9,0,0,0,.78-.83l.48.28a2.42,2.42,0,0,1-1,1,2.94,2.94,0,0,1-1.47.37A2.87,2.87,0,0,1,302,409.89Z" transform="translate(-281.14 -377)"/><path class="cls-1" d="M307.71,410.15v-6h.5l.08,1.24a2.08,2.08,0,0,1,.73-1,2,2,0,0,1,1.21-.37,1.91,1.91,0,0,1,.43,0,1,1,0,0,1,.33.16l-.15.53a1.3,1.3,0,0,0-.29-.14,1.81,1.81,0,0,0-.46,0,1.48,1.48,0,0,0-.87.28,2.12,2.12,0,0,0-.66.78,2.47,2.47,0,0,0-.25,1.15v3.36Z" transform="translate(-281.14 -377)"/><path class="cls-1" d="M312.55,403a.46.46,0,0,1-.37-.14.49.49,0,0,1-.14-.36.51.51,0,0,1,.14-.37.5.5,0,0,1,.37-.14.49.49,0,0,1,.36.14.51.51,0,0,1,.14.37.49.49,0,0,1-.14.36A.45.45,0,0,1,312.55,403Zm.3,1.17v6h-.6v-6Z" transform="translate(-281.14 -377)"/><path class="cls-1" d="M317.44,404a2.85,2.85,0,0,1,1.48.37,2.55,2.55,0,0,1,1,1.07,4,4,0,0,1,0,3.35,2.49,2.49,0,0,1-1,1.07,3.07,3.07,0,0,1-3,0,2.55,2.55,0,0,1-1-1.07,4.08,4.08,0,0,1,0-3.35,2.61,2.61,0,0,1,1-1.07A2.88,2.88,0,0,1,317.44,404Zm0,.51a2.32,2.32,0,0,0-1.19.31,2.15,2.15,0,0,0-.78.9,3.62,3.62,0,0,0,0,2.79,2.15,2.15,0,0,0,.78.9,2.22,2.22,0,0,0,1.19.31,2.2,2.2,0,0,0,1.19-.31,2.11,2.11,0,0,0,.79-.9,3.62,3.62,0,0,0,0-2.79,2.11,2.11,0,0,0-.79-.9A2.29,2.29,0,0,0,317.44,404.54Z" transform="translate(-281.14 -377)"/><path class="cls-1" d="M322,410.15v-6h.51l.07,1.24a2.15,2.15,0,0,1,.73-1,2,2,0,0,1,1.21-.37,1.85,1.85,0,0,1,.43,0,1,1,0,0,1,.33.16l-.14.53a1.55,1.55,0,0,0-.29-.14,1.89,1.89,0,0,0-.47,0,1.45,1.45,0,0,0-.86.28,1.94,1.94,0,0,0-.66.78,2.47,2.47,0,0,0-.26,1.15v3.36Z" transform="translate(-281.14 -377)"/><path class="cls-1" d="M300.31,385h11.34a2.4,2.4,0,0,1,.69,4.72,3.14,3.14,0,0,1-.87.09H300.41l-.07.12c.51.49,1,1,1.52,1.45.78.77,1.55,1.54,2.31,2.32a2.31,2.31,0,0,1,.52,2.74,2.38,2.38,0,0,1-3.78.79c-1.34-1.31-2.66-2.65-4-4l-4.07-4.06a2.34,2.34,0,0,1,0-3.45c2.61-2.65,5.23-5.28,7.83-7.93a2.45,2.45,0,0,1,2.62-.74,2.29,2.29,0,0,1,1.61,1.77,2.32,2.32,0,0,1-.7,2.26c-1.15,1.17-2.31,2.32-3.47,3.48Z" transform="translate(-281.14 -377)"/></svg>