<svg id="Capa_1" data-name="Capa 1" xmlns="http://www.w3.org/2000/svg" viewBox="0 0 80.34 74.45"><defs><style>.cls-1{fill:#36c;}.cls-2{fill:#fdfeff;stroke:#36c;stroke-miterlimit:10;stroke-width:1.5px;}</style></defs><title>descargar_guia</title><path class="cls-1" d="M266.06,421.49a4,4,0,0,1,2.93,1,3.86,3.86,0,0,1,1,2.89,4.07,4.07,0,0,1-1,3,4,4,0,0,1-2.93,1h-2.49v-7.92Zm.05,7.37a3.16,3.16,0,0,0,2.43-.9,3.57,3.57,0,0,0,.85-2.57,3.37,3.37,0,0,0-.85-2.47,3.19,3.19,0,0,0-2.43-.88h-1.94v6.82Z" transform="translate(-263.57 -357.54)"/><path class="cls-1" d="M272.8,429.16a2.72,2.72,0,0,1-1-1.08,3.64,3.64,0,0,1-.36-1.67,3.58,3.58,0,0,1,.36-1.65,2.62,2.62,0,0,1,1-1.09,2.73,2.73,0,0,1,1.43-.38,2.58,2.58,0,0,1,1.38.36,2.3,2.3,0,0,1,.9,1,3.36,3.36,0,0,1,.31,1.49v.21c0,.07,0,.13,0,.18h-5V426h4.71l-.31.23a2.48,2.48,0,0,0-.49-1.75,1.86,1.86,0,0,0-1.51-.65,2.07,2.07,0,0,0-1.14.31,2,2,0,0,0-.77.9,3.3,3.3,0,0,0-.28,1.38,3.2,3.2,0,0,0,.29,1.39,1.94,1.94,0,0,0,.79.9,2.53,2.53,0,0,0,2.37,0,2,2,0,0,0,.78-.83l.48.27a2.57,2.57,0,0,1-1,1,3,3,0,0,1-1.47.36A2.87,2.87,0,0,1,272.8,429.16Z" transform="translate(-263.57 -357.54)"/><path class="cls-1" d="M278.92,429.16a2.14,2.14,0,0,1-1-1.07l.52-.34a1.72,1.72,0,0,0,.77.93,2.63,2.63,0,0,0,1.36.32,2.15,2.15,0,0,0,1.24-.31,1,1,0,0,0,.46-.82.84.84,0,0,0-.24-.62,1.65,1.65,0,0,0-.82-.38l-1.4-.3a2.4,2.4,0,0,1-1.22-.57,1.37,1.37,0,0,1-.38-1,1.44,1.44,0,0,1,.29-.86,1.91,1.91,0,0,1,.81-.62,3.15,3.15,0,0,1,2.67.12,1.9,1.9,0,0,1,.83,1.06l-.51.32a1.56,1.56,0,0,0-.65-.91,2.13,2.13,0,0,0-1.16-.3,2.42,2.42,0,0,0-.88.15,1.38,1.38,0,0,0-.59.42.9.9,0,0,0-.21.58.91.91,0,0,0,.25.65,1.73,1.73,0,0,0,.84.4l1.44.31a2.2,2.2,0,0,1,1.17.53,1.25,1.25,0,0,1,.36.92,1.53,1.53,0,0,1-.64,1.28,2.74,2.74,0,0,1-1.7.47A3.34,3.34,0,0,1,278.92,429.16Z" transform="translate(-263.57 -357.54)"/><path class="cls-1" d="M287,423.29a2.86,2.86,0,0,1,1.09.2,2.12,2.12,0,0,1,.82.55,2.52,2.52,0,0,1,.52.87l-.57.27a1.88,1.88,0,0,0-.66-1,2,2,0,0,0-1.21-.36,2.12,2.12,0,0,0-1.16.31,2,2,0,0,0-.78.89,3.11,3.11,0,0,0-.28,1.39,3.21,3.21,0,0,0,.28,1.4,2,2,0,0,0,.76.89,2.21,2.21,0,0,0,1.17.3,2.51,2.51,0,0,0,.92-.16,1.78,1.78,0,0,0,.68-.49,1.65,1.65,0,0,0,.35-.77l.56.19a2.56,2.56,0,0,1-.51,1,2.47,2.47,0,0,1-.86.6,2.92,2.92,0,0,1-1.13.21,2.86,2.86,0,0,1-1.46-.37,2.53,2.53,0,0,1-1-1.07,3.65,3.65,0,0,1-.36-1.68,3.52,3.52,0,0,1,.37-1.67,2.53,2.53,0,0,1,1-1.07A2.86,2.86,0,0,1,287,423.29Z" transform="translate(-263.57 -357.54)"/><path class="cls-1" d="M294.34,424.25a1.59,1.59,0,0,0-1.2-.43,2.16,2.16,0,0,0-1.2.31,1.75,1.75,0,0,0-.71,1l-.49-.31a2.06,2.06,0,0,1,.88-1.1,2.85,2.85,0,0,1,1.53-.39,2.29,2.29,0,0,1,1.61.54,1.92,1.92,0,0,1,.6,1.53v3q0,.63.57.63a.94.94,0,0,0,.43-.08l0,.48a1.16,1.16,0,0,1-.53.11,1,1,0,0,1-.76-.28,1.08,1.08,0,0,1-.28-.87v-.27l.15-.07a1.67,1.67,0,0,1-.47.84,2.25,2.25,0,0,1-.82.52,3,3,0,0,1-1,.16,2.23,2.23,0,0,1-1.41-.41,1.34,1.34,0,0,1-.54-1.13,1.37,1.37,0,0,1,.44-1.08,2.54,2.54,0,0,1,1.27-.58l2.49-.49v.5l-2.19.43a2.73,2.73,0,0,0-1.06.43.88.88,0,0,0-.34.74.91.91,0,0,0,.37.78,1.71,1.71,0,0,0,1.06.28,2.72,2.72,0,0,0,1-.18,1.75,1.75,0,0,0,.77-.57,1.5,1.5,0,0,0,.31-.95v-1.84A1.68,1.68,0,0,0,294.34,424.25Z" transform="translate(-263.57 -357.54)"/><path class="cls-1" d="M297.6,429.41v-6h.5l.08,1.25a2,2,0,0,1,.73-1,2,2,0,0,1,1.21-.38,1.88,1.88,0,0,1,.43,0,.85.85,0,0,1,.33.16l-.15.53a1.3,1.3,0,0,0-.29-.14,1.81,1.81,0,0,0-.46,0,1.48,1.48,0,0,0-.87.28,2.12,2.12,0,0,0-.66.78,2.45,2.45,0,0,0-.25,1.14v3.36Z" transform="translate(-263.57 -357.54)"/><path class="cls-1" d="M305,428.8a2.36,2.36,0,0,1,1.39.37,1.19,1.19,0,0,1,.5,1,1.4,1.4,0,0,1-.36,1,2.55,2.55,0,0,1-1,.64A4.29,4.29,0,0,1,304,432a3.83,3.83,0,0,1-2.07-.46,1.35,1.35,0,0,1-.72-1.16,1.22,1.22,0,0,1,.36-.87,1.71,1.71,0,0,1,1.08-.45l-.05.11a1.56,1.56,0,0,1-.69-.35.94.94,0,0,1-.28-.73,1,1,0,0,1,.4-.84,1.76,1.76,0,0,1,1.06-.37l.37.23a1.62,1.62,0,0,0-.95.27.74.74,0,0,0-.33.62.67.67,0,0,0,.32.61,1.51,1.51,0,0,0,.8.2Zm-1-5.51a3.06,3.06,0,0,1,1.25.25,1.94,1.94,0,0,1,.85.68,1.81,1.81,0,0,1,.3,1,1.83,1.83,0,0,1-.3,1,1.89,1.89,0,0,1-.85.69,2.91,2.91,0,0,1-1.25.25,2.62,2.62,0,0,1-1.78-.55,1.78,1.78,0,0,1-.65-1.42,1.74,1.74,0,0,1,.31-1,2,2,0,0,1,.85-.68A3.13,3.13,0,0,1,304,423.29Zm.08,8.2a3.88,3.88,0,0,0,1.21-.17,1.83,1.83,0,0,0,.78-.45.9.9,0,0,0,.27-.63.77.77,0,0,0-.37-.67,1.94,1.94,0,0,0-1.11-.25h-1.7a1.63,1.63,0,0,0-.94.26.82.82,0,0,0-.37.71,1,1,0,0,0,.59.87A3.4,3.4,0,0,0,304,431.49Zm-.08-7.7a2,2,0,0,0-1.3.4,1.3,1.3,0,0,0-.5,1.06,1.32,1.32,0,0,0,.5,1.07,2,2,0,0,0,1.3.41,2,2,0,0,0,1.29-.41,1.32,1.32,0,0,0,.5-1.07,1.3,1.3,0,0,0-.5-1.06A2,2,0,0,0,304,423.79Zm2.9-1.48.15.53a1.62,1.62,0,0,0-.7.13,1,1,0,0,0-.44.39,1.26,1.26,0,0,0-.14.64l-.39-.17a1.61,1.61,0,0,1,.11-.63,1.37,1.37,0,0,1,.31-.48,1.31,1.31,0,0,1,.48-.3A1.8,1.8,0,0,1,306.85,422.31Z" transform="translate(-263.57 -357.54)"/><path class="cls-1" d="M311.32,424.25a1.59,1.59,0,0,0-1.2-.43,2.16,2.16,0,0,0-1.2.31,1.75,1.75,0,0,0-.71,1l-.49-.31a2.06,2.06,0,0,1,.88-1.1,2.85,2.85,0,0,1,1.53-.39,2.29,2.29,0,0,1,1.61.54,1.92,1.92,0,0,1,.6,1.53v3q0,.63.57.63a.94.94,0,0,0,.43-.08l0,.48a1.16,1.16,0,0,1-.53.11,1,1,0,0,1-.76-.28,1.08,1.08,0,0,1-.28-.87v-.27l.15-.07a1.67,1.67,0,0,1-.47.84,2.25,2.25,0,0,1-.82.52,3,3,0,0,1-1,.16,2.23,2.23,0,0,1-1.41-.41,1.34,1.34,0,0,1-.54-1.13,1.37,1.37,0,0,1,.44-1.08,2.54,2.54,0,0,1,1.27-.58l2.49-.49v.5l-2.19.43a2.73,2.73,0,0,0-1.06.43.88.88,0,0,0-.34.74.91.91,0,0,0,.37.78,1.71,1.71,0,0,0,1.06.28,2.72,2.72,0,0,0,1-.18,1.75,1.75,0,0,0,.77-.57,1.5,1.5,0,0,0,.31-.95v-1.84A1.68,1.68,0,0,0,311.32,424.25Z" transform="translate(-263.57 -357.54)"/><path class="cls-1" d="M314.58,429.41v-6h.5l.08,1.25a2,2,0,0,1,.73-1,2,2,0,0,1,1.21-.38,1.88,1.88,0,0,1,.43,0,.85.85,0,0,1,.33.16l-.15.53a1.3,1.3,0,0,0-.29-.14,1.81,1.81,0,0,0-.46,0,1.48,1.48,0,0,0-.87.28,2.12,2.12,0,0,0-.66.78,2.45,2.45,0,0,0-.25,1.14v3.36Z" transform="translate(-263.57 -357.54)"/><path class="cls-1" d="M325.67,428.8a2.36,2.36,0,0,1,1.39.37,1.17,1.17,0,0,1,.5,1,1.4,1.4,0,0,1-.36,1,2.58,2.58,0,0,1-1,.64,4.39,4.39,0,0,1-1.46.22,3.83,3.83,0,0,1-2.07-.46,1.35,1.35,0,0,1-.72-1.16,1.22,1.22,0,0,1,.36-.87,1.73,1.73,0,0,1,1.08-.45l-.05.11a1.53,1.53,0,0,1-.68-.35.91.91,0,0,1-.29-.73,1,1,0,0,1,.4-.84,1.76,1.76,0,0,1,1.06-.37l.37.23a1.62,1.62,0,0,0-.95.27.74.74,0,0,0-.33.62.69.69,0,0,0,.32.61,1.52,1.52,0,0,0,.81.2Zm-1-5.51a3.06,3.06,0,0,1,1.25.25,1.94,1.94,0,0,1,.85.68,1.81,1.81,0,0,1,.3,1,1.83,1.83,0,0,1-.3,1,1.89,1.89,0,0,1-.85.69,2.91,2.91,0,0,1-1.25.25,2.63,2.63,0,0,1-1.78-.55,1.77,1.77,0,0,1-.64-1.42,1.81,1.81,0,0,1,.3-1,2.06,2.06,0,0,1,.85-.68A3.16,3.16,0,0,1,324.66,423.29Zm.08,8.2a4,4,0,0,0,1.22-.17,1.85,1.85,0,0,0,.77-.45.9.9,0,0,0,.27-.63.77.77,0,0,0-.37-.67,1.94,1.94,0,0,0-1.11-.25h-1.7a1.63,1.63,0,0,0-.94.26.85.85,0,0,0-.37.71,1,1,0,0,0,.6.87A3.36,3.36,0,0,0,324.74,431.49Zm-.08-7.7a2,2,0,0,0-1.3.4,1.3,1.3,0,0,0-.5,1.06,1.32,1.32,0,0,0,.5,1.07,2,2,0,0,0,1.3.41,2,2,0,0,0,1.29-.41,1.32,1.32,0,0,0,.5-1.07,1.3,1.3,0,0,0-.5-1.06A2,2,0,0,0,324.66,423.79Zm2.9-1.48.15.53a1.65,1.65,0,0,0-.7.13,1,1,0,0,0-.44.39,1.17,1.17,0,0,0-.13.64l-.4-.17a1.81,1.81,0,0,1,.11-.63,1.37,1.37,0,0,1,.31-.48,1.44,1.44,0,0,1,.49-.3A1.7,1.7,0,0,1,327.56,422.31Z" transform="translate(-263.57 -357.54)"/><path class="cls-1" d="M330.89,429.53a2.67,2.67,0,0,1-1.12-.22,1.73,1.73,0,0,1-.77-.72,2.37,2.37,0,0,1-.28-1.22v-4h.6v3.82a1.76,1.76,0,0,0,.45,1.35A1.73,1.73,0,0,0,331,429a2.21,2.21,0,0,0,.87-.16,2,2,0,0,0,.67-.47,2.2,2.2,0,0,0,.42-.69,2.25,2.25,0,0,0,.15-.82v-3.45h.6v6h-.54l0-1.23a2.07,2.07,0,0,1-.86,1A2.74,2.74,0,0,1,330.89,429.53Z" transform="translate(-263.57 -357.54)"/><path class="cls-1" d="M336.79,420.52h.66l-1.13,1.9h-.49Zm-.31,2.89v6h-.6v-6Z" transform="translate(-263.57 -357.54)"/><path class="cls-1" d="M341.88,424.25a1.59,1.59,0,0,0-1.2-.43,2.13,2.13,0,0,0-1.19.31,1.72,1.72,0,0,0-.72,1l-.49-.31a2.08,2.08,0,0,1,.89-1.1,2.79,2.79,0,0,1,1.52-.39,2.33,2.33,0,0,1,1.62.54,2,2,0,0,1,.59,1.53v3c0,.42.19.63.58.63a1,1,0,0,0,.43-.08l0,.48a1.13,1.13,0,0,1-.53.11,1.05,1.05,0,0,1-.76-.28,1.11,1.11,0,0,1-.28-.87v-.27l.16-.07a1.75,1.75,0,0,1-.47.84,2.29,2.29,0,0,1-.83.52,3,3,0,0,1-1,.16,2.24,2.24,0,0,1-1.42-.41,1.34,1.34,0,0,1-.54-1.13,1.41,1.41,0,0,1,.44-1.08,2.54,2.54,0,0,1,1.28-.58l2.48-.49v.5l-2.18.43a2.78,2.78,0,0,0-1.07.43.9.9,0,0,0-.34.74.94.94,0,0,0,.37.78,1.71,1.71,0,0,0,1.06.28,2.64,2.64,0,0,0,1-.18,1.75,1.75,0,0,0,.77-.57,1.45,1.45,0,0,0,.31-.95v-1.84A1.68,1.68,0,0,0,341.88,424.25Z" transform="translate(-263.57 -357.54)"/><path class="cls-2" d="M324.52,411l-42-.22.29-52.51,35.66.18a6.31,6.31,0,0,1,6.27,6.34Z" transform="translate(-263.57 -357.54)"/><rect class="cls-1" x="25.98" y="9.83" width="27.21" height="2.43" rx="1.22"/><rect class="cls-1" x="25.98" y="15.34" width="27.21" height="2.43" rx="1.22"/><rect class="cls-1" x="25.98" y="20.63" width="27.21" height="2.43" rx="1.22"/><path class="cls-1" d="M322,403.58V392.24a2.43,2.43,0,0,1,2.12-2.46,2.4,2.4,0,0,1,2.6,1.77,3.14,3.14,0,0,1,.1.87v11.06l.13.07c.48-.51.95-1,1.44-1.52.77-.77,1.54-1.55,2.32-2.31a2.32,2.32,0,0,1,2.75-.52,2.38,2.38,0,0,1,.78,3.78c-1.31,1.35-2.64,2.66-4,4L326.2,411a2.34,2.34,0,0,1-3.45,0l-7.93-7.83a2.44,2.44,0,0,1-.74-2.61,2.27,2.27,0,0,1,1.78-1.61,2.31,2.31,0,0,1,2.26.69l3.47,3.47Z" transform="translate(-263.57 -357.54)"/></svg>