<svg id="Capa_1" data-name="Capa 1" xmlns="http://www.w3.org/2000/svg" viewBox="0 0 49.92 35.73"><defs><style>.cls-1{fill:#36c;}</style></defs><title>siguiente</title><path class="cls-1" d="M281.21,402.2a3.64,3.64,0,0,1,1.85.44A2.66,2.66,0,0,1,284.2,404l-.5.38a2.41,2.41,0,0,0-1-1.21,3,3,0,0,0-1.55-.37,2.83,2.83,0,0,0-1.2.22,1.74,1.74,0,0,0-.75.59,1.37,1.37,0,0,0-.25.82,1.25,1.25,0,0,0,.35.9,2.71,2.71,0,0,0,1.33.59l1.55.33a3.44,3.44,0,0,1,1.64.72,1.67,1.67,0,0,1,.47,1.23,1.89,1.89,0,0,1-.38,1.15,2.53,2.53,0,0,1-1,.78,4,4,0,0,1-1.54.27,4.46,4.46,0,0,1-1.52-.23,3.17,3.17,0,0,1-1.12-.66,2.58,2.58,0,0,1-.68-1l.53-.4a2.32,2.32,0,0,0,.56,1,2.47,2.47,0,0,0,1,.61,4,4,0,0,0,1.28.2,3.69,3.69,0,0,0,1.2-.18,1.83,1.83,0,0,0,.82-.55,1.35,1.35,0,0,0,.3-.89,1.14,1.14,0,0,0-.36-.85,2.48,2.48,0,0,0-1.25-.53l-1.63-.36a4.26,4.26,0,0,1-1.23-.44,1.69,1.69,0,0,1-.89-1.55,2,2,0,0,1,.35-1.12,2.41,2.41,0,0,1,1-.82A3.45,3.45,0,0,1,281.21,402.2Z" transform="translate(-278.03 -377.1)"/><path class="cls-1" d="M286.28,403.08a.51.51,0,0,1-.37-.14.49.49,0,0,1-.14-.36.5.5,0,0,1,.14-.37.51.51,0,0,1,.37-.14.49.49,0,0,1,.36.14.46.46,0,0,1,.14.37.45.45,0,0,1-.14.36A.49.49,0,0,1,286.28,403.08Zm.3,1.16v6H286v-6Z" transform="translate(-278.03 -377.1)"/><path class="cls-1" d="M291.8,409.63a2.36,2.36,0,0,1,1.39.37,1.17,1.17,0,0,1,.5,1,1.4,1.4,0,0,1-.36,1,2.58,2.58,0,0,1-1,.64,4.39,4.39,0,0,1-1.46.22,3.83,3.83,0,0,1-2.07-.46,1.35,1.35,0,0,1-.72-1.16,1.22,1.22,0,0,1,.36-.87,1.73,1.73,0,0,1,1.08-.45l0,.11a1.53,1.53,0,0,1-.68-.35.91.91,0,0,1-.29-.73,1,1,0,0,1,.4-.84,1.76,1.76,0,0,1,1.06-.37l.37.23a1.59,1.59,0,0,0-.94.27.73.73,0,0,0-.34.62.69.69,0,0,0,.32.61,1.52,1.52,0,0,0,.81.2Zm-1-5.51a3.06,3.06,0,0,1,1.25.25,1.94,1.94,0,0,1,.85.68,1.81,1.81,0,0,1,.3,1,1.83,1.83,0,0,1-.3,1,1.89,1.89,0,0,1-.85.69,2.91,2.91,0,0,1-1.25.25,2.63,2.63,0,0,1-1.78-.55,1.77,1.77,0,0,1-.64-1.42,1.81,1.81,0,0,1,.3-1,2.06,2.06,0,0,1,.85-.68A3.16,3.16,0,0,1,290.79,404.12Zm.08,8.2a4,4,0,0,0,1.22-.17,1.85,1.85,0,0,0,.77-.45.9.9,0,0,0,.27-.63.77.77,0,0,0-.37-.67,1.94,1.94,0,0,0-1.11-.25H290a1.63,1.63,0,0,0-.94.26.85.85,0,0,0-.37.71,1,1,0,0,0,.6.87A3.36,3.36,0,0,0,290.87,412.32Zm-.08-7.7a2,2,0,0,0-1.3.4,1.3,1.3,0,0,0-.5,1.06,1.32,1.32,0,0,0,.5,1.07,2,2,0,0,0,1.3.41,2,2,0,0,0,1.29-.41,1.32,1.32,0,0,0,.5-1.07,1.3,1.3,0,0,0-.5-1.06A2,2,0,0,0,290.79,404.62Zm2.9-1.48.15.53a1.65,1.65,0,0,0-.7.13,1,1,0,0,0-.44.39,1.17,1.17,0,0,0-.13.64l-.4-.17a1.81,1.81,0,0,1,.11-.63,1.37,1.37,0,0,1,.31-.48,1.44,1.44,0,0,1,.49-.3A1.7,1.7,0,0,1,293.69,403.14Z" transform="translate(-278.03 -377.1)"/><path class="cls-1" d="M297,410.36a2.67,2.67,0,0,1-1.12-.22,1.73,1.73,0,0,1-.77-.72,2.37,2.37,0,0,1-.28-1.22v-4h.6v3.82a1.8,1.8,0,0,0,.45,1.36,1.78,1.78,0,0,0,1.26.42,2.21,2.21,0,0,0,.87-.17,2,2,0,0,0,.67-.47,2.2,2.2,0,0,0,.42-.69,2.25,2.25,0,0,0,.15-.82v-3.45h.6v6h-.54l0-1.23a2.07,2.07,0,0,1-.86,1A2.74,2.74,0,0,1,297,410.36Z" transform="translate(-278.03 -377.1)"/><path class="cls-1" d="M302.31,403.08a.53.53,0,0,1-.37-.14.48.48,0,0,1-.13-.36.49.49,0,0,1,.13-.37.56.56,0,0,1,.74,0,.49.49,0,0,1,.13.37.48.48,0,0,1-.13.36A.53.53,0,0,1,302.31,403.08Zm.3,1.16v6H302v-6Z" transform="translate(-278.03 -377.1)"/><path class="cls-1" d="M305.73,410a2.7,2.7,0,0,1-1-1.08,3.52,3.52,0,0,1-.37-1.67,3.58,3.58,0,0,1,.36-1.65,2.62,2.62,0,0,1,1-1.09,2.75,2.75,0,0,1,1.43-.38,2.58,2.58,0,0,1,1.38.36,2.19,2.19,0,0,1,.9,1,3.37,3.37,0,0,1,.32,1.49c0,.07,0,.14,0,.21a.9.9,0,0,1,0,.18h-5v-.54h4.72l-.31.23a2.49,2.49,0,0,0-.5-1.75,1.86,1.86,0,0,0-1.51-.65A2.07,2.07,0,0,0,306,405a2,2,0,0,0-.77.9,3.3,3.3,0,0,0-.27,1.38,3.19,3.19,0,0,0,.28,1.39,2,2,0,0,0,.79.9,2.31,2.31,0,0,0,1.18.31,2.26,2.26,0,0,0,1.19-.3,1.9,1.9,0,0,0,.78-.83l.48.27a2.45,2.45,0,0,1-1,1,3.14,3.14,0,0,1-2.94,0Z" transform="translate(-278.03 -377.1)"/><path class="cls-1" d="M311.44,410.24v-6H312l0,1.5-.1-.08a2.23,2.23,0,0,1,.51-.84,2.06,2.06,0,0,1,.8-.52,2.79,2.79,0,0,1,1-.18,2.67,2.67,0,0,1,1.19.26,1.87,1.87,0,0,1,.81.74,2.45,2.45,0,0,1,.29,1.24v3.88h-.6v-3.69a1.89,1.89,0,0,0-.48-1.44,1.77,1.77,0,0,0-1.27-.46,2.21,2.21,0,0,0-1.05.26,2,2,0,0,0-.79.75,2.19,2.19,0,0,0-.31,1.2v3.38Z" transform="translate(-278.03 -377.1)"/><path class="cls-1" d="M321.7,404.24v.52h-4v-.52Zm-2.24-1.66v6.08a1.23,1.23,0,0,0,.27.86,1,1,0,0,0,.78.29,1.57,1.57,0,0,0,.6-.11,1.62,1.62,0,0,0,.46-.33l.23.49a1.86,1.86,0,0,1-.58.37,2.13,2.13,0,0,1-.78.13,1.84,1.84,0,0,1-.83-.17,1.28,1.28,0,0,1-.55-.53,1.82,1.82,0,0,1-.2-.92v-6Z" transform="translate(-278.03 -377.1)"/><path class="cls-1" d="M324,410a2.79,2.79,0,0,1-1-1.08,3.64,3.64,0,0,1-.36-1.67,3.58,3.58,0,0,1,.36-1.65,2.62,2.62,0,0,1,1-1.09,2.75,2.75,0,0,1,1.43-.38,2.58,2.58,0,0,1,1.38.36,2.3,2.3,0,0,1,.9,1A3.36,3.36,0,0,1,328,407v.21c0,.07,0,.13,0,.18h-5v-.54h4.72l-.32.23a2.44,2.44,0,0,0-.49-1.75,1.86,1.86,0,0,0-1.51-.65,2.07,2.07,0,0,0-1.14.31,2,2,0,0,0-.77.9,3.3,3.3,0,0,0-.27,1.38,3.19,3.19,0,0,0,.28,1.39,2,2,0,0,0,.79.9,2.45,2.45,0,0,0,2.37,0,1.9,1.9,0,0,0,.78-.83l.48.27a2.45,2.45,0,0,1-1,1,2.94,2.94,0,0,1-1.47.36A2.87,2.87,0,0,1,324,410Z" transform="translate(-278.03 -377.1)"/><path class="cls-1" d="M305.85,390H294.51a2.42,2.42,0,0,1-2.46-2.12,2.4,2.4,0,0,1,1.77-2.6,3.63,3.63,0,0,1,.87-.1h11.06l.07-.12c-.5-.49-1-1-1.51-1.45-.78-.77-1.56-1.54-2.32-2.32a2.32,2.32,0,0,1-.52-2.75,2.38,2.38,0,0,1,3.78-.78c1.35,1.31,2.67,2.65,4,4s2.71,2.72,4.08,4.07a2.35,2.35,0,0,1,0,3.45l-7.83,7.93a2.43,2.43,0,0,1-2.61.74,2.26,2.26,0,0,1-1.61-1.77,2.3,2.3,0,0,1,.69-2.26l3.47-3.48Z" transform="translate(-278.03 -377.1)"/></svg>