<svg id="Capa_1" data-name="Capa 1" xmlns="http://www.w3.org/2000/svg" viewBox="0 0 140.81 38.75"><defs><style>.cls-1{fill:#36c;}</style></defs><title>terminardiagnostico</title><path class="cls-1" d="M238.85,403.85v.55H236v7.37h-.6V404.4h-2.9v-.55Z" transform="translate(-232.46 -375.6)"/><path class="cls-1" d="M239.81,411.51a2.58,2.58,0,0,1-1-1.08,3.48,3.48,0,0,1-.37-1.66,3.63,3.63,0,0,1,.36-1.66,2.59,2.59,0,0,1,1-1.08,2.89,2.89,0,0,1,2.81,0,2.24,2.24,0,0,1,.9,1,3.4,3.4,0,0,1,.32,1.49c0,.07,0,.14,0,.21s0,.13,0,.19h-5v-.54h4.72l-.31.23a2.47,2.47,0,0,0-.5-1.75,1.83,1.83,0,0,0-1.51-.65,2.16,2.16,0,0,0-1.14.3,2.13,2.13,0,0,0-.77.9,3.35,3.35,0,0,0-.27,1.39,3.19,3.19,0,0,0,.28,1.39,2,2,0,0,0,.79.89,2.21,2.21,0,0,0,1.18.31,2.36,2.36,0,0,0,1.19-.29,2,2,0,0,0,.78-.84l.48.28a2.42,2.42,0,0,1-1,1,2.81,2.81,0,0,1-1.46.37A2.88,2.88,0,0,1,239.81,411.51Z" transform="translate(-232.46 -375.6)"/><path class="cls-1" d="M245.52,411.77v-6H246l.07,1.25a2.06,2.06,0,0,1,.73-1,2,2,0,0,1,1.21-.37,1.88,1.88,0,0,1,.43.05.84.84,0,0,1,.33.15l-.15.53a1.2,1.2,0,0,0-.28-.13,1.81,1.81,0,0,0-.47-.05,1.48,1.48,0,0,0-.87.28,2.12,2.12,0,0,0-.66.78,2.63,2.63,0,0,0-.25,1.15v3.36Z" transform="translate(-232.46 -375.6)"/><path class="cls-1" d="M250.06,411.77v-6h.54l0,1.25a2.08,2.08,0,0,1,.86-1,2.53,2.53,0,0,1,1.33-.36,2.4,2.4,0,0,1,1.35.37,1.88,1.88,0,0,1,.78,1.09,2,2,0,0,1,.51-.78,2.42,2.42,0,0,1,.81-.51,2.7,2.7,0,0,1,1-.18,2.63,2.63,0,0,1,1.13.24,2,2,0,0,1,.82.75,2.35,2.35,0,0,1,.3,1.24v3.89h-.6v-3.83a1.75,1.75,0,0,0-.47-1.33,1.8,1.8,0,0,0-1.26-.43,2.09,2.09,0,0,0-1,.26,2.05,2.05,0,0,0-.76.76,2.17,2.17,0,0,0-.29,1.12v3.46h-.59v-3.83a1.66,1.66,0,0,0-.49-1.32,1.71,1.71,0,0,0-1.24-.44,2,2,0,0,0-1,.26,2.1,2.1,0,0,0-.78.76,2.21,2.21,0,0,0-.3,1.17v3.4Z" transform="translate(-232.46 -375.6)"/><path class="cls-1" d="M261.88,404.6a.49.49,0,0,1-.37-.13.51.51,0,0,1-.14-.37.53.53,0,0,1,.14-.37.49.49,0,0,1,.37-.13.48.48,0,0,1,.36.13.53.53,0,0,1,.14.37.51.51,0,0,1-.14.37A.48.48,0,0,1,261.88,404.6Zm.3,1.17v6h-.6v-6Z" transform="translate(-232.46 -375.6)"/><path class="cls-1" d="M264.33,411.77v-6h.54l0,1.5-.09-.09a2.38,2.38,0,0,1,.5-.84,2.17,2.17,0,0,1,.8-.52,3.06,3.06,0,0,1,1-.17,2.64,2.64,0,0,1,1.19.25,1.93,1.93,0,0,1,.81.74,2.35,2.35,0,0,1,.29,1.24v3.89h-.59v-3.7a1.93,1.93,0,0,0-.49-1.44,1.81,1.81,0,0,0-1.27-.45,2.26,2.26,0,0,0-1.05.25,2.18,2.18,0,0,0-.79.75,2.28,2.28,0,0,0-.31,1.2v3.39Z" transform="translate(-232.46 -375.6)"/><path class="cls-1" d="M274.75,406.61a1.59,1.59,0,0,0-1.2-.43,2.21,2.21,0,0,0-1.19.3,1.82,1.82,0,0,0-.72,1l-.49-.31A2.14,2.14,0,0,1,272,406a2.9,2.9,0,0,1,1.52-.38,2.38,2.38,0,0,1,1.62.53,2,2,0,0,1,.59,1.53v3c0,.43.19.64.58.64a.94.94,0,0,0,.43-.09l0,.49a1.12,1.12,0,0,1-.52.1,1.05,1.05,0,0,1-.76-.27,1.15,1.15,0,0,1-.29-.88v-.26l.16-.07a1.85,1.85,0,0,1-.47.84,2.15,2.15,0,0,1-.83.51,3,3,0,0,1-1,.17,2.3,2.3,0,0,1-1.42-.41,1.34,1.34,0,0,1-.54-1.14,1.38,1.38,0,0,1,.45-1.08,2.68,2.68,0,0,1,1.27-.58l2.48-.49v.51l-2.18.43a2.67,2.67,0,0,0-1.06.42.89.89,0,0,0-.34.74.93.93,0,0,0,.37.79,1.68,1.68,0,0,0,1.05.28,2.45,2.45,0,0,0,1-.19,1.84,1.84,0,0,0,.78-.57,1.47,1.47,0,0,0,.3-.94v-1.84A1.66,1.66,0,0,0,274.75,406.61Z" transform="translate(-232.46 -375.6)"/><path class="cls-1" d="M278,411.77v-6h.5l.07,1.25a2.13,2.13,0,0,1,.73-1,2,2,0,0,1,1.22-.37,1.88,1.88,0,0,1,.43.05.79.79,0,0,1,.32.15l-.14.53a1.51,1.51,0,0,0-.29-.13,1.75,1.75,0,0,0-.47-.05,1.47,1.47,0,0,0-.86.28,2.12,2.12,0,0,0-.66.78,2.5,2.5,0,0,0-.25,1.15v3.36Z" transform="translate(-232.46 -375.6)"/><path class="cls-1" d="M289.28,406.61a1.59,1.59,0,0,0-1.2-.43,2.21,2.21,0,0,0-1.19.3,1.81,1.81,0,0,0-.71,1l-.5-.31a2.19,2.19,0,0,1,.89-1.11,2.94,2.94,0,0,1,1.53-.38,2.35,2.35,0,0,1,1.61.53,2,2,0,0,1,.59,1.53v3c0,.43.2.64.58.64a.94.94,0,0,0,.43-.09l0,.49a1.19,1.19,0,0,1-.53.1,1.07,1.07,0,0,1-.76-.27,1.15,1.15,0,0,1-.29-.88v-.26l.16-.07a1.85,1.85,0,0,1-.47.84,2.15,2.15,0,0,1-.83.51,3,3,0,0,1-1,.17,2.32,2.32,0,0,1-1.42-.41,1.34,1.34,0,0,1-.54-1.14,1.38,1.38,0,0,1,.45-1.08,2.68,2.68,0,0,1,1.27-.58l2.48-.49v.51l-2.18.43a2.74,2.74,0,0,0-1.06.42.89.89,0,0,0-.34.74.93.93,0,0,0,.37.79,1.7,1.7,0,0,0,1.05.28,2.45,2.45,0,0,0,1-.19,1.78,1.78,0,0,0,.78-.57,1.47,1.47,0,0,0,.3-.94v-1.84A1.66,1.66,0,0,0,289.28,406.61Z" transform="translate(-232.46 -375.6)"/><path class="cls-1" d="M294.66,411.89a2.67,2.67,0,0,1-1.12-.23,1.76,1.76,0,0,1-.77-.71,2.39,2.39,0,0,1-.28-1.22v-4h.6v3.81a1.54,1.54,0,0,0,1.71,1.78,2.21,2.21,0,0,0,.87-.17,1.89,1.89,0,0,0,.67-.47,2.18,2.18,0,0,0,.43-.68,2.31,2.31,0,0,0,.15-.83v-3.44h.6v6H297l0-1.24a2,2,0,0,1-.86,1A2.74,2.74,0,0,1,294.66,411.89Z" transform="translate(-232.46 -375.6)"/><path class="cls-1" d="M302.89,405.77v.52h-4v-.52Zm-2.24-1.67v6.08a1.22,1.22,0,0,0,.27.86,1,1,0,0,0,.78.3,1.4,1.4,0,0,0,.6-.12,1.31,1.31,0,0,0,.46-.33l.23.49a1.56,1.56,0,0,1-.58.37,2.13,2.13,0,0,1-.78.14,1.84,1.84,0,0,1-.83-.18,1.18,1.18,0,0,1-.55-.53,1.78,1.78,0,0,1-.2-.91v-6Z" transform="translate(-232.46 -375.6)"/><path class="cls-1" d="M306.62,405.65a2.92,2.92,0,0,1,1.49.37,2.65,2.65,0,0,1,1,1.07,3.53,3.53,0,0,1,.37,1.68,3.49,3.49,0,0,1-.37,1.67,2.62,2.62,0,0,1-1,1.08,3,3,0,0,1-1.49.37,3,3,0,0,1-1.48-.37,2.64,2.64,0,0,1-1-1.08,3.61,3.61,0,0,1-.36-1.67,3.65,3.65,0,0,1,.36-1.68,2.67,2.67,0,0,1,1-1.07A2.88,2.88,0,0,1,306.62,405.65Zm0,.52a2.16,2.16,0,0,0-1.18.31,2,2,0,0,0-.79.89,3.62,3.62,0,0,0,0,2.79,2.11,2.11,0,0,0,.79.9,2.42,2.42,0,0,0,2.37,0,2.11,2.11,0,0,0,.79-.9,3.62,3.62,0,0,0,0-2.79,2,2,0,0,0-.79-.89A2.18,2.18,0,0,0,306.62,406.17Z" transform="translate(-232.46 -375.6)"/><path class="cls-1" d="M313.54,411.89a2.8,2.8,0,0,1-1.41-.37,2.64,2.64,0,0,1-1-1.08,3.74,3.74,0,0,1-.35-1.67,3.49,3.49,0,0,1,.37-1.69,2.68,2.68,0,0,1,1-1.07,2.83,2.83,0,0,1,1.42-.36,2.35,2.35,0,0,1,1.42.44,2.24,2.24,0,0,1,.8,1.23l-.08.06V403h.6v8.76h-.54l0-1.67.07,0a2.14,2.14,0,0,1-1.25,1.6A2.66,2.66,0,0,1,313.54,411.89Zm.07-.53a2,2,0,0,0,1.11-.32,2,2,0,0,0,.75-.92,3.36,3.36,0,0,0,.27-1.4,3.14,3.14,0,0,0-.27-1.36,2.07,2.07,0,0,0-.74-.88,2,2,0,0,0-1.1-.3,2,2,0,0,0-1.63.69,2.83,2.83,0,0,0-.6,1.9,2.88,2.88,0,0,0,.59,1.9A2,2,0,0,0,313.61,411.36Z" transform="translate(-232.46 -375.6)"/><path class="cls-1" d="M318.78,404.6a.52.52,0,0,1-.37-.13.51.51,0,0,1-.13-.37.5.5,0,1,1,1,0,.51.51,0,0,1-.13.37A.52.52,0,0,1,318.78,404.6Zm.3,1.17v6h-.6v-6Z" transform="translate(-232.46 -375.6)"/><path class="cls-1" d="M324.48,406.61a1.59,1.59,0,0,0-1.2-.43,2.21,2.21,0,0,0-1.19.3,1.78,1.78,0,0,0-.72,1l-.49-.31a2.14,2.14,0,0,1,.89-1.11,2.88,2.88,0,0,1,1.52-.38,2.38,2.38,0,0,1,1.62.53,2,2,0,0,1,.59,1.53v3c0,.43.19.64.58.64a1,1,0,0,0,.43-.09l0,.49a1.14,1.14,0,0,1-.53.1,1.09,1.09,0,0,1-.76-.27,1.15,1.15,0,0,1-.28-.88v-.26l.16-.07a1.85,1.85,0,0,1-.47.84,2.15,2.15,0,0,1-.83.51,3,3,0,0,1-1,.17,2.3,2.3,0,0,1-1.42-.41,1.34,1.34,0,0,1-.54-1.14,1.41,1.41,0,0,1,.44-1.08,2.72,2.72,0,0,1,1.28-.58l2.48-.49v.51l-2.18.43a2.79,2.79,0,0,0-1.07.42.92.92,0,0,0-.34.74,1,1,0,0,0,.37.79,1.71,1.71,0,0,0,1.06.28,2.45,2.45,0,0,0,1-.19,1.75,1.75,0,0,0,.77-.57,1.42,1.42,0,0,0,.31-.94v-1.84A1.66,1.66,0,0,0,324.48,406.61Z" transform="translate(-232.46 -375.6)"/><path class="cls-1" d="M330.82,411.16a2.29,2.29,0,0,1,1.39.37,1.19,1.19,0,0,1,.5,1,1.4,1.4,0,0,1-.36,1,2.34,2.34,0,0,1-1,.64,4.28,4.28,0,0,1-1.45.23,3.92,3.92,0,0,1-2.07-.46,1.36,1.36,0,0,1-.72-1.16,1.22,1.22,0,0,1,.36-.88,1.71,1.71,0,0,1,1.08-.44l-.05.11a1.69,1.69,0,0,1-.69-.36.91.91,0,0,1-.28-.72,1,1,0,0,1,.4-.85,1.82,1.82,0,0,1,1.06-.37l.37.23a1.78,1.78,0,0,0-1,.27.75.75,0,0,0-.33.62.66.66,0,0,0,.32.61,1.43,1.43,0,0,0,.81.21Zm-1-5.51a3.06,3.06,0,0,1,1.25.24,2,2,0,0,1,.85.69,1.75,1.75,0,0,1,.3,1,1.81,1.81,0,0,1-.3,1,2,2,0,0,1-.85.7,3.06,3.06,0,0,1-1.25.24A2.67,2.67,0,0,1,328,409a1.79,1.79,0,0,1-.65-1.43,1.76,1.76,0,0,1,.31-1,2.09,2.09,0,0,1,.85-.69A3.16,3.16,0,0,1,329.81,405.65Zm.08,8.19a3.9,3.9,0,0,0,1.21-.16,1.94,1.94,0,0,0,.78-.45.9.9,0,0,0,.27-.63.78.78,0,0,0-.37-.68,2,2,0,0,0-1.11-.25H329a1.56,1.56,0,0,0-.94.27.81.81,0,0,0-.37.7,1,1,0,0,0,.59.87A3.43,3.43,0,0,0,329.89,413.84Zm-.08-7.7a2,2,0,0,0-1.3.4,1.38,1.38,0,0,0,0,2.13,2,2,0,0,0,1.3.41,1.92,1.92,0,0,0,1.29-.41,1.38,1.38,0,0,0,0-2.13A2,2,0,0,0,329.81,406.14Zm2.9-1.47.15.52a1.62,1.62,0,0,0-.7.14.91.91,0,0,0-.44.38,1.3,1.3,0,0,0-.14.65l-.39-.17a1.61,1.61,0,0,1,.11-.63,1.21,1.21,0,0,1,.31-.48,1.42,1.42,0,0,1,.48-.31A1.79,1.79,0,0,1,332.71,404.67Z" transform="translate(-232.46 -375.6)"/><path class="cls-1" d="M333.92,411.77v-6h.54l.05,1.5-.09-.09a2.38,2.38,0,0,1,.5-.84,2.17,2.17,0,0,1,.8-.52,3.06,3.06,0,0,1,1-.17,2.64,2.64,0,0,1,1.19.25,2,2,0,0,1,.81.74,2.35,2.35,0,0,1,.29,1.24v3.89h-.6v-3.7a1.92,1.92,0,0,0-.48-1.44,1.81,1.81,0,0,0-1.27-.45,2.23,2.23,0,0,0-1.05.25,2.11,2.11,0,0,0-1.1,1.95v3.39Z" transform="translate(-232.46 -375.6)"/><path class="cls-1" d="M343.55,405.65A2.88,2.88,0,0,1,345,406a2.67,2.67,0,0,1,1,1.07,3.65,3.65,0,0,1,.36,1.68,3.61,3.61,0,0,1-.36,1.67,2.64,2.64,0,0,1-1,1.08,3.14,3.14,0,0,1-3,0,2.58,2.58,0,0,1-1-1.08,3.49,3.49,0,0,1-.37-1.67,3.53,3.53,0,0,1,.37-1.68,2.61,2.61,0,0,1,1-1.07A2.85,2.85,0,0,1,343.55,405.65Zm0,.52a2.2,2.2,0,0,0-1.19.31,2,2,0,0,0-.79.89,3.62,3.62,0,0,0,0,2.79,2.11,2.11,0,0,0,.79.9,2.2,2.2,0,0,0,1.19.31,2.22,2.22,0,0,0,1.19-.31,2.15,2.15,0,0,0,.78-.9,3.62,3.62,0,0,0,0-2.79,2.07,2.07,0,0,0-.78-.89A2.22,2.22,0,0,0,343.55,406.17Zm.61-3.27h.66l-1.13,1.9h-.49Z" transform="translate(-232.46 -375.6)"/><path class="cls-1" d="M348.53,411.51a2.12,2.12,0,0,1-1-1.06l.52-.35a1.72,1.72,0,0,0,.77.93,2.67,2.67,0,0,0,1.37.33,2.11,2.11,0,0,0,1.23-.31,1,1,0,0,0,.46-.83.86.86,0,0,0-.24-.62,1.69,1.69,0,0,0-.82-.38l-1.4-.3a2.28,2.28,0,0,1-1.21-.57,1.33,1.33,0,0,1-.39-1,1.42,1.42,0,0,1,.29-.86,2,2,0,0,1,.81-.63,3,3,0,0,1,1.18-.23,2.91,2.91,0,0,1,1.49.35,1.93,1.93,0,0,1,.83,1.06l-.51.33a1.52,1.52,0,0,0-.65-.91,2.13,2.13,0,0,0-1.16-.3,2.33,2.33,0,0,0-.87.15,1.34,1.34,0,0,0-.6.41.94.94,0,0,0,0,1.23,1.57,1.57,0,0,0,.84.4l1.44.31a2.28,2.28,0,0,1,1.17.53,1.26,1.26,0,0,1,.36.93,1.52,1.52,0,0,1-.64,1.28,2.81,2.81,0,0,1-1.7.47A3.34,3.34,0,0,1,348.53,411.51Z" transform="translate(-232.46 -375.6)"/><path class="cls-1" d="M357.42,405.77v.52h-4v-.52Zm-2.24-1.67v6.08a1.22,1.22,0,0,0,.27.86,1,1,0,0,0,.78.3,1.43,1.43,0,0,0,.6-.12,1.31,1.31,0,0,0,.46-.33l.23.49a1.65,1.65,0,0,1-.58.37,2.13,2.13,0,0,1-.78.14,1.84,1.84,0,0,1-.83-.18,1.24,1.24,0,0,1-.56-.53,1.89,1.89,0,0,1-.19-.91v-6Z" transform="translate(-232.46 -375.6)"/><path class="cls-1" d="M359,404.6a.48.48,0,0,1-.36-.13.51.51,0,0,1-.14-.37.53.53,0,0,1,.14-.37.48.48,0,0,1,.36-.13.49.49,0,0,1,.37.13.53.53,0,0,1,.14.37.51.51,0,0,1-.14.37A.49.49,0,0,1,359,404.6Zm.3,1.17v6h-.6v-6Z" transform="translate(-232.46 -375.6)"/><path class="cls-1" d="M363.88,405.65a2.9,2.9,0,0,1,1.09.19,2.2,2.2,0,0,1,.81.55,2.34,2.34,0,0,1,.52.88l-.56.26a1.88,1.88,0,0,0-.67-1,2,2,0,0,0-1.21-.35,2.23,2.23,0,0,0-1.16.3,2,2,0,0,0-.78.89,3.62,3.62,0,0,0,0,2.79,2,2,0,0,0,.77.89,2.1,2.1,0,0,0,1.16.31,2.47,2.47,0,0,0,.92-.17,1.61,1.61,0,0,0,.68-.49,1.72,1.72,0,0,0,.36-.77l.55.19a2.24,2.24,0,0,1-.51.95,2.29,2.29,0,0,1-.86.61,3.08,3.08,0,0,1-2.58-.16,2.58,2.58,0,0,1-1-1.08,3.61,3.61,0,0,1-.36-1.67,3.65,3.65,0,0,1,.37-1.68,2.61,2.61,0,0,1,1-1.07A2.83,2.83,0,0,1,363.88,405.65Z" transform="translate(-232.46 -375.6)"/><path class="cls-1" d="M370.42,405.65a2.88,2.88,0,0,1,1.48.37,2.67,2.67,0,0,1,1,1.07,3.65,3.65,0,0,1,.36,1.68,3.61,3.61,0,0,1-.36,1.67,2.64,2.64,0,0,1-1,1.08,3,3,0,0,1-1.48.37,3,3,0,0,1-1.49-.37,2.55,2.55,0,0,1-1-1.08,3.49,3.49,0,0,1-.37-1.67,3.53,3.53,0,0,1,.37-1.68,2.59,2.59,0,0,1,1-1.07A2.92,2.92,0,0,1,370.42,405.65Zm0,.52a2.18,2.18,0,0,0-1.19.31,2,2,0,0,0-.79.89,3.62,3.62,0,0,0,0,2.79,2.11,2.11,0,0,0,.79.9,2.42,2.42,0,0,0,2.37,0,2.11,2.11,0,0,0,.79-.9,3.62,3.62,0,0,0,0-2.79,2,2,0,0,0-.79-.89A2.16,2.16,0,0,0,370.42,406.17Z" transform="translate(-232.46 -375.6)"/><path class="cls-1" d="M314.48,375.94a2.56,2.56,0,0,0-3.42.9l-11.83,15.38a31.23,31.23,0,0,1-4.16-5.39c-1.67-2.75-6-.24-4.32,2.52a36.36,36.36,0,0,0,7,8.36,2.55,2.55,0,0,0,3.93-.5l13.73-17.85A2.52,2.52,0,0,0,314.48,375.94Z" transform="translate(-232.46 -375.6)"/></svg>