<svg id="Capa_1" data-name="Capa 1" xmlns="http://www.w3.org/2000/svg" viewBox="0 0 87.65 59.26"><defs><style>.cls-1{fill:#36c;}</style></defs><title>ver resultado</title><path class="cls-1" d="M273.11,401.9l-3.05,7.92h-.71l-3.06-7.92h.65l2.34,6.13.42,1.23.42-1.23,2.35-6.13Z" transform="translate(-259.24 -365.14)"/><path class="cls-1" d="M274.87,409.56a2.58,2.58,0,0,1-1-1.08,3.48,3.48,0,0,1-.37-1.66,3.58,3.58,0,0,1,.36-1.65,2.56,2.56,0,0,1,1-1.09,2.76,2.76,0,0,1,1.44-.38,2.72,2.72,0,0,1,1.38.35,2.33,2.33,0,0,1,.9,1,3.46,3.46,0,0,1,.31,1.48,1.34,1.34,0,0,1,0,.21,1.11,1.11,0,0,1,0,.19h-5v-.54h4.72l-.31.23a2.47,2.47,0,0,0-.49-1.75,1.85,1.85,0,0,0-1.52-.65,2.16,2.16,0,0,0-1.14.3,2.11,2.11,0,0,0-.76.9,3.59,3.59,0,0,0,0,2.78,2.11,2.11,0,0,0,.79.9,2.31,2.31,0,0,0,1.19.3,2.34,2.34,0,0,0,1.18-.29,2,2,0,0,0,.78-.84l.48.28a2.36,2.36,0,0,1-1,1,2.81,2.81,0,0,1-1.46.37A2.91,2.91,0,0,1,274.87,409.56Z" transform="translate(-259.24 -365.14)"/><path class="cls-1" d="M280.58,409.82v-6h.51l.07,1.25a2.13,2.13,0,0,1,.73-1,2.11,2.11,0,0,1,1.65-.32.86.86,0,0,1,.32.15l-.14.53a1.51,1.51,0,0,0-.29-.13,1.81,1.81,0,0,0-.47-.05,1.54,1.54,0,0,0-.86.28,1.94,1.94,0,0,0-.66.78,2.53,2.53,0,0,0-.26,1.15v3.36Z" transform="translate(-259.24 -365.14)"/><path class="cls-1" d="M288.6,409.82v-6h.5l.08,1.25a2.06,2.06,0,0,1,.73-1,2,2,0,0,1,1.21-.37,1.88,1.88,0,0,1,.43.05.84.84,0,0,1,.33.15l-.15.53a1.28,1.28,0,0,0-.29-.13,1.72,1.72,0,0,0-.46-.05,1.55,1.55,0,0,0-.87.28,2.12,2.12,0,0,0-.66.78,2.52,2.52,0,0,0-.25,1.15v3.36Z" transform="translate(-259.24 -365.14)"/><path class="cls-1" d="M293.83,409.56a2.58,2.58,0,0,1-1-1.08,3.48,3.48,0,0,1-.37-1.66,3.58,3.58,0,0,1,.36-1.65,2.56,2.56,0,0,1,1-1.09,2.76,2.76,0,0,1,1.44-.38,2.72,2.72,0,0,1,1.38.35,2.33,2.33,0,0,1,.9,1,3.46,3.46,0,0,1,.31,1.48,1.34,1.34,0,0,1,0,.21,1.11,1.11,0,0,1,0,.19h-5v-.54h4.72l-.31.23a2.47,2.47,0,0,0-.49-1.75,1.85,1.85,0,0,0-1.52-.65,2.16,2.16,0,0,0-1.14.3,2.11,2.11,0,0,0-.76.9,3.59,3.59,0,0,0,0,2.78,2.11,2.11,0,0,0,.79.9,2.31,2.31,0,0,0,1.19.3,2.34,2.34,0,0,0,1.18-.29,2,2,0,0,0,.78-.84l.48.28a2.36,2.36,0,0,1-1,1,2.81,2.81,0,0,1-1.46.37A2.91,2.91,0,0,1,293.83,409.56Z" transform="translate(-259.24 -365.14)"/><path class="cls-1" d="M300,409.56a2.1,2.1,0,0,1-1-1.06l.51-.35a1.78,1.78,0,0,0,.78.93,2.61,2.61,0,0,0,1.36.33,2.17,2.17,0,0,0,1.24-.31,1,1,0,0,0,.45-.83.86.86,0,0,0-.24-.62,1.61,1.61,0,0,0-.81-.37l-1.41-.3a2.4,2.4,0,0,1-1.21-.57,1.33,1.33,0,0,1-.38-1,1.41,1.41,0,0,1,.28-.86,2.16,2.16,0,0,1,.81-.63,3,3,0,0,1,1.19-.23,2.87,2.87,0,0,1,1.48.35,1.88,1.88,0,0,1,.83,1.07l-.5.32a1.53,1.53,0,0,0-.66-.91,2.09,2.09,0,0,0-1.15-.3,2.42,2.42,0,0,0-.88.15,1.38,1.38,0,0,0-.59.41,1,1,0,0,0-.21.59.89.89,0,0,0,.25.64,1.57,1.57,0,0,0,.84.4l1.44.32a2.28,2.28,0,0,1,1.17.52,1.29,1.29,0,0,1,.35.93,1.53,1.53,0,0,1-.63,1.28,2.86,2.86,0,0,1-1.71.47A3.4,3.4,0,0,1,300,409.56Z" transform="translate(-259.24 -365.14)"/><path class="cls-1" d="M307.71,409.94a2.65,2.65,0,0,1-1.11-.23,1.66,1.66,0,0,1-.77-.71,2.39,2.39,0,0,1-.29-1.22v-4h.6v3.82a1.77,1.77,0,0,0,.45,1.35,1.8,1.8,0,0,0,1.27.42,2,2,0,0,0,.87-.17,2,2,0,0,0,.67-.46,2.2,2.2,0,0,0,.42-.69,2.31,2.31,0,0,0,.15-.83v-3.44h.6v6H310l0-1.24a2.07,2.07,0,0,1-.87,1A2.71,2.71,0,0,1,307.71,409.94Z" transform="translate(-259.24 -365.14)"/><path class="cls-1" d="M313.26,401.06v7.34a1.2,1.2,0,0,0,.19.78.72.72,0,0,0,.6.23,2.1,2.1,0,0,0,.4,0l.36-.12-.09.52a1.6,1.6,0,0,1-.35.12,2,2,0,0,1-.44,0,1.17,1.17,0,0,1-.95-.37,1.65,1.65,0,0,1-.32-1.14v-7.37Z" transform="translate(-259.24 -365.14)"/><path class="cls-1" d="M319.07,403.82v.52H315v-.52Zm-2.25-1.67v6.09a1.2,1.2,0,0,0,.27.85,1,1,0,0,0,.79.3,1.38,1.38,0,0,0,.59-.12,1.23,1.23,0,0,0,.46-.33l.23.5a1.64,1.64,0,0,1-.57.36,2.21,2.21,0,0,1-.78.14,2,2,0,0,1-.83-.17,1.27,1.27,0,0,1-.56-.54,1.89,1.89,0,0,1-.2-.91v-6Z" transform="translate(-259.24 -365.14)"/><path class="cls-1" d="M323.6,404.66a1.59,1.59,0,0,0-1.2-.43,2.21,2.21,0,0,0-1.19.3,1.76,1.76,0,0,0-.71,1l-.5-.31a2.19,2.19,0,0,1,.89-1.11,2.94,2.94,0,0,1,1.53-.38,2.37,2.37,0,0,1,1.61.53,2,2,0,0,1,.59,1.53v3c0,.43.2.64.58.64a1.1,1.1,0,0,0,.43-.08l0,.48a1.12,1.12,0,0,1-.52.1,1.05,1.05,0,0,1-.76-.27,1.15,1.15,0,0,1-.29-.88v-.26l.16-.07a1.8,1.8,0,0,1-.47.84,2.15,2.15,0,0,1-.83.51,3,3,0,0,1-1,.17,2.32,2.32,0,0,1-1.42-.41,1.34,1.34,0,0,1-.54-1.14,1.38,1.38,0,0,1,.45-1.08,2.59,2.59,0,0,1,1.27-.57l2.48-.5v.51l-2.18.43a2.52,2.52,0,0,0-1.06.43.87.87,0,0,0-.34.73.93.93,0,0,0,.37.79,1.68,1.68,0,0,0,1.05.28,2.64,2.64,0,0,0,1-.18,2,2,0,0,0,.78-.57,1.52,1.52,0,0,0,.3-1v-1.84A1.66,1.66,0,0,0,323.6,404.66Z" transform="translate(-259.24 -365.14)"/><path class="cls-1" d="M329.21,409.94a2.7,2.7,0,0,1-1.41-.37,2.55,2.55,0,0,1-1-1.08,3.58,3.58,0,0,1-.36-1.67,3.52,3.52,0,0,1,.37-1.69,2.65,2.65,0,0,1,1-1.06,2.74,2.74,0,0,1,1.42-.37,2.35,2.35,0,0,1,1.42.44,2.24,2.24,0,0,1,.8,1.23l-.07.06v-4.37H332v8.76h-.54l0-1.67.07,0a2.14,2.14,0,0,1-1.25,1.6A2.66,2.66,0,0,1,329.21,409.94Zm.07-.53a1.88,1.88,0,0,0,1.11-.32,2.07,2.07,0,0,0,.75-.91,3.26,3.26,0,0,0,.28-1.41,3,3,0,0,0-.28-1.36,2.07,2.07,0,0,0-.74-.88,2,2,0,0,0-1.1-.3,2,2,0,0,0-1.63.69,3.31,3.31,0,0,0,0,3.8A2,2,0,0,0,329.28,409.41Z" transform="translate(-259.24 -365.14)"/><path class="cls-1" d="M336.6,403.7a2.88,2.88,0,0,1,1.48.37,2.64,2.64,0,0,1,1,1.08,4,4,0,0,1,0,3.34,2.64,2.64,0,0,1-1,1.08,3.14,3.14,0,0,1-3,0,2.58,2.58,0,0,1-1-1.08,4,4,0,0,1,0-3.34,2.58,2.58,0,0,1,1-1.08A2.85,2.85,0,0,1,336.6,403.7Zm0,.52a2.2,2.2,0,0,0-1.19.31,2.15,2.15,0,0,0-.79.89,3.33,3.33,0,0,0-.28,1.4,3.28,3.28,0,0,0,.28,1.39,2.17,2.17,0,0,0,.79.9,2.2,2.2,0,0,0,1.19.31,2.22,2.22,0,0,0,1.19-.31,2.15,2.15,0,0,0,.78-.9,3.13,3.13,0,0,0,.29-1.39,3.18,3.18,0,0,0-.29-1.4,2.13,2.13,0,0,0-.78-.89A2.22,2.22,0,0,0,336.6,404.22Z" transform="translate(-259.24 -365.14)"/><path class="cls-1" d="M262.9,416.66a1.59,1.59,0,0,0-1.2-.43,2.21,2.21,0,0,0-1.19.3,1.82,1.82,0,0,0-.72,1l-.49-.31a2.14,2.14,0,0,1,.89-1.11,2.9,2.9,0,0,1,1.52-.38,2.38,2.38,0,0,1,1.62.53,2,2,0,0,1,.59,1.53v3c0,.43.19.64.58.64a1.1,1.1,0,0,0,.43-.08l0,.48a1.12,1.12,0,0,1-.52.1,1.1,1.1,0,0,1-.77-.27,1.15,1.15,0,0,1-.28-.88v-.26l.16-.07a1.8,1.8,0,0,1-.47.84,2.15,2.15,0,0,1-.83.51,3,3,0,0,1-1,.17,2.3,2.3,0,0,1-1.42-.41,1.34,1.34,0,0,1-.54-1.14,1.38,1.38,0,0,1,.45-1.08,2.59,2.59,0,0,1,1.27-.57l2.48-.5v.51l-2.18.43a2.52,2.52,0,0,0-1.06.43.88.88,0,0,0-.35.73.94.94,0,0,0,.38.79,1.68,1.68,0,0,0,1,.28,2.64,2.64,0,0,0,1-.18,2,2,0,0,0,.78-.57,1.52,1.52,0,0,0,.3-1v-1.84A1.66,1.66,0,0,0,262.9,416.66Z" transform="translate(-259.24 -365.14)"/><path class="cls-1" d="M268.28,421.94a2.67,2.67,0,0,1-1.12-.23,1.7,1.7,0,0,1-.77-.71,2.39,2.39,0,0,1-.28-1.22v-4h.6v3.82a1.54,1.54,0,0,0,1.71,1.77,2,2,0,0,0,.87-.17,2,2,0,0,0,.67-.46,2.2,2.2,0,0,0,.42-.69,2.31,2.31,0,0,0,.15-.83v-3.44h.6v6h-.54l0-1.24a2,2,0,0,1-.86,1A2.74,2.74,0,0,1,268.28,421.94Z" transform="translate(-259.24 -365.14)"/><path class="cls-1" d="M276.51,415.82v.52h-4v-.52Zm-2.24-1.67v6.09a1.2,1.2,0,0,0,.27.85,1,1,0,0,0,.78.3,1.43,1.43,0,0,0,.6-.12,1.31,1.31,0,0,0,.46-.33l.23.5a1.78,1.78,0,0,1-.58.36,2.13,2.13,0,0,1-.78.14,2,2,0,0,1-.83-.17,1.32,1.32,0,0,1-.56-.54,1.89,1.89,0,0,1-.19-.91v-6Z" transform="translate(-259.24 -365.14)"/><path class="cls-1" d="M280.24,415.7a2.85,2.85,0,0,1,1.48.37,2.58,2.58,0,0,1,1,1.08,4,4,0,0,1,0,3.34,2.58,2.58,0,0,1-1,1.08,3.14,3.14,0,0,1-3,0,2.64,2.64,0,0,1-1-1.08,4.05,4.05,0,0,1,0-3.34,2.64,2.64,0,0,1,1-1.08A2.88,2.88,0,0,1,280.24,415.7Zm0,.52a2.22,2.22,0,0,0-1.19.31,2.13,2.13,0,0,0-.78.89,3.18,3.18,0,0,0-.28,1.4,3.13,3.13,0,0,0,.28,1.39,2.15,2.15,0,0,0,.78.9,2.22,2.22,0,0,0,1.19.31,2.2,2.2,0,0,0,1.19-.31,2.11,2.11,0,0,0,.79-.9,3.28,3.28,0,0,0,.28-1.39,3.33,3.33,0,0,0-.28-1.4,2.08,2.08,0,0,0-.79-.89A2.2,2.2,0,0,0,280.24,416.22Z" transform="translate(-259.24 -365.14)"/><path class="cls-1" d="M287.15,421.94a2.66,2.66,0,0,1-1.4-.37,2.57,2.57,0,0,1-1-1.08,3.71,3.71,0,0,1-.35-1.67,3.52,3.52,0,0,1,.37-1.69,2.59,2.59,0,0,1,1-1.06,2.7,2.7,0,0,1,1.41-.37,2.36,2.36,0,0,1,1.43.44,2.24,2.24,0,0,1,.8,1.23l-.08.06v-4.37h.6v8.76h-.54l0-1.67.07,0a2.15,2.15,0,0,1-.44,1,2.1,2.1,0,0,1-.82.62A2.59,2.59,0,0,1,287.15,421.94Zm.08-.53a1.9,1.9,0,0,0,1.11-.32,2.07,2.07,0,0,0,.75-.91,3.41,3.41,0,0,0,.27-1.41,3.14,3.14,0,0,0-.27-1.36,2.15,2.15,0,0,0-.74-.88,2,2,0,0,0-1.1-.3,2,2,0,0,0-1.63.69,2.83,2.83,0,0,0-.6,1.9,2.88,2.88,0,0,0,.59,1.9A2,2,0,0,0,287.23,421.41Z" transform="translate(-259.24 -365.14)"/><path class="cls-1" d="M292.4,414.66a.51.51,0,0,1-.37-.14.51.51,0,0,1-.13-.37.48.48,0,0,1,.13-.36.48.48,0,0,1,.37-.14.49.49,0,0,1,.37.14.48.48,0,0,1,.13.36.51.51,0,0,1-.13.37A.53.53,0,0,1,292.4,414.66Zm.3,1.16v6h-.6v-6Z" transform="translate(-259.24 -365.14)"/><path class="cls-1" d="M298.1,416.66a1.59,1.59,0,0,0-1.2-.43,2.27,2.27,0,0,0-1.2.3,1.81,1.81,0,0,0-.71,1l-.49-.31a2.09,2.09,0,0,1,.89-1.11,2.88,2.88,0,0,1,1.52-.38,2.33,2.33,0,0,1,1.61.53,2,2,0,0,1,.6,1.53v3c0,.43.19.64.57.64a1.15,1.15,0,0,0,.44-.08l0,.48a1.17,1.17,0,0,1-.53.1,1.09,1.09,0,0,1-.76-.27,1.12,1.12,0,0,1-.28-.88v-.26l.15-.07a1.78,1.78,0,0,1-.46.84,2.22,2.22,0,0,1-.83.51,3,3,0,0,1-1,.17,2.29,2.29,0,0,1-1.41-.41,1.34,1.34,0,0,1-.54-1.14,1.41,1.41,0,0,1,.44-1.08,2.63,2.63,0,0,1,1.27-.57l2.49-.5v.51l-2.19.43a2.58,2.58,0,0,0-1.06.43.87.87,0,0,0-.34.73.93.93,0,0,0,.37.79,1.71,1.71,0,0,0,1.06.28,2.64,2.64,0,0,0,1-.18,1.92,1.92,0,0,0,.77-.57,1.47,1.47,0,0,0,.31-1v-1.84A1.66,1.66,0,0,0,298.1,416.66Z" transform="translate(-259.24 -365.14)"/><path class="cls-1" d="M304.43,421.21a2.31,2.31,0,0,1,1.4.37,1.19,1.19,0,0,1,.5,1,1.4,1.4,0,0,1-.37,1,2.33,2.33,0,0,1-1,.63,4.32,4.32,0,0,1-1.45.23,3.87,3.87,0,0,1-2.08-.46,1.36,1.36,0,0,1-.72-1.16,1.23,1.23,0,0,1,.37-.88,1.73,1.73,0,0,1,1.07-.44l0,.11a1.53,1.53,0,0,1-.69-.36.92.92,0,0,1-.29-.72,1,1,0,0,1,.41-.85,1.73,1.73,0,0,1,1.06-.36l.37.22a1.78,1.78,0,0,0-1,.27.75.75,0,0,0-.33.62.66.66,0,0,0,.31.61,1.48,1.48,0,0,0,.81.21Zm-1-5.51a2.91,2.91,0,0,1,1.25.25,2,2,0,0,1,.85.68,1.76,1.76,0,0,1,.3,1,1.8,1.8,0,0,1-.3,1,2,2,0,0,1-.85.7,3.06,3.06,0,0,1-1.25.24,2.71,2.71,0,0,1-1.79-.54,1.81,1.81,0,0,1-.64-1.42,1.7,1.7,0,0,1,.31-1,2,2,0,0,1,.85-.68A3,3,0,0,1,303.43,415.7Zm.08,8.2a3.88,3.88,0,0,0,1.21-.17,1.83,1.83,0,0,0,.78-.45.9.9,0,0,0,.27-.63.78.78,0,0,0-.37-.67,1.93,1.93,0,0,0-1.11-.26h-1.7a1.56,1.56,0,0,0-.94.27.81.81,0,0,0-.37.71,1,1,0,0,0,.59.87A3.4,3.4,0,0,0,303.51,423.9Zm-.08-7.71a2.08,2.08,0,0,0-1.3.4,1.29,1.29,0,0,0-.5,1.07,1.28,1.28,0,0,0,.5,1.06,2.25,2.25,0,0,0,2.59,0,1.3,1.3,0,0,0,.49-1.06,1.31,1.31,0,0,0-.49-1.07A2.07,2.07,0,0,0,303.43,416.19Zm2.9-1.47.14.52a1.6,1.6,0,0,0-.69.14.88.88,0,0,0-.44.39,1.15,1.15,0,0,0-.14.64l-.39-.17a1.81,1.81,0,0,1,.1-.63,1.35,1.35,0,0,1,.32-.48,1.47,1.47,0,0,1,.48-.31A1.79,1.79,0,0,1,306.33,414.72Z" transform="translate(-259.24 -365.14)"/><path class="cls-1" d="M307.54,421.82v-6h.54l.05,1.5-.1-.08a2.23,2.23,0,0,1,.51-.84,2.06,2.06,0,0,1,.8-.52,2.79,2.79,0,0,1,1-.18,2.67,2.67,0,0,1,1.19.25,2,2,0,0,1,.81.75,2.41,2.41,0,0,1,.29,1.23v3.89H312v-3.7a1.92,1.92,0,0,0-.48-1.44,1.81,1.81,0,0,0-1.27-.45,2.1,2.1,0,0,0-1.05.26,2,2,0,0,0-.79.75,2.14,2.14,0,0,0-.31,1.2v3.38Z" transform="translate(-259.24 -365.14)"/><path class="cls-1" d="M317.17,415.7a2.88,2.88,0,0,1,1.48.37,2.64,2.64,0,0,1,1,1.08,4.05,4.05,0,0,1,0,3.34,2.64,2.64,0,0,1-1,1.08,2.88,2.88,0,0,1-1.48.37,2.92,2.92,0,0,1-1.49-.37,2.55,2.55,0,0,1-1-1.08,4,4,0,0,1,0-3.34,2.55,2.55,0,0,1,1-1.08A2.92,2.92,0,0,1,317.17,415.7Zm0,.52a2.18,2.18,0,0,0-1.19.31,2.08,2.08,0,0,0-.79.89,3.18,3.18,0,0,0-.28,1.4,3.13,3.13,0,0,0,.28,1.39,2.11,2.11,0,0,0,.79.9,2.42,2.42,0,0,0,2.37,0,2.11,2.11,0,0,0,.79-.9,3.13,3.13,0,0,0,.28-1.39,3.18,3.18,0,0,0-.28-1.4,2.08,2.08,0,0,0-.79-.89A2.16,2.16,0,0,0,317.17,416.22Zm.61-3.27h.66l-1.13,1.9h-.49Z" transform="translate(-259.24 -365.14)"/><path class="cls-1" d="M322.14,421.56a2.1,2.1,0,0,1-1-1.06l.52-.35a1.72,1.72,0,0,0,.77.93,2.63,2.63,0,0,0,1.36.33,2.15,2.15,0,0,0,1.24-.31,1,1,0,0,0,.45-.83.86.86,0,0,0-.24-.62,1.61,1.61,0,0,0-.81-.37L323,419a2.4,2.4,0,0,1-1.21-.57,1.37,1.37,0,0,1-.38-1,1.35,1.35,0,0,1,.29-.86,2,2,0,0,1,.81-.63,3.25,3.25,0,0,1,2.67.12,1.9,1.9,0,0,1,.82,1.07l-.5.32a1.56,1.56,0,0,0-.65-.91,2.15,2.15,0,0,0-1.16-.3,2.42,2.42,0,0,0-.88.15,1.45,1.45,0,0,0-.59.41,1,1,0,0,0-.21.59.89.89,0,0,0,.25.64,1.57,1.57,0,0,0,.84.4l1.44.32a2.28,2.28,0,0,1,1.17.52,1.25,1.25,0,0,1,.35.93,1.53,1.53,0,0,1-.63,1.28,2.84,2.84,0,0,1-1.71.47A3.4,3.4,0,0,1,322.14,421.56Z" transform="translate(-259.24 -365.14)"/><path class="cls-1" d="M331,415.82v.52H327v-.52Zm-2.25-1.67v6.09a1.2,1.2,0,0,0,.27.85,1,1,0,0,0,.79.3,1.38,1.38,0,0,0,.59-.12,1.26,1.26,0,0,0,.47-.33l.22.5a1.64,1.64,0,0,1-.57.36,2.13,2.13,0,0,1-.78.14,2,2,0,0,1-.83-.17,1.27,1.27,0,0,1-.56-.54,1.89,1.89,0,0,1-.2-.91v-6Z" transform="translate(-259.24 -365.14)"/><path class="cls-1" d="M332.62,414.66a.53.53,0,0,1-.37-.14.51.51,0,0,1-.13-.37.48.48,0,0,1,.13-.36.56.56,0,0,1,.74,0,.48.48,0,0,1,.13.36.51.51,0,0,1-.13.37A.53.53,0,0,1,332.62,414.66Zm.3,1.16v6h-.6v-6Z" transform="translate(-259.24 -365.14)"/><path class="cls-1" d="M337.49,415.7a2.86,2.86,0,0,1,1.09.19,2.16,2.16,0,0,1,.82.55,2.57,2.57,0,0,1,.52.88l-.57.26a1.92,1.92,0,0,0-.66-1,2,2,0,0,0-1.21-.35,2.2,2.2,0,0,0-1.16.3,2,2,0,0,0-.78.89,3.18,3.18,0,0,0-.28,1.4,3.13,3.13,0,0,0,.28,1.39,2.11,2.11,0,0,0,.76.9,2.21,2.21,0,0,0,1.17.3,2.32,2.32,0,0,0,.92-.17,1.68,1.68,0,0,0,.68-.49,1.56,1.56,0,0,0,.35-.77l.56.2a2.52,2.52,0,0,1-.51.94,2.29,2.29,0,0,1-.86.61,2.92,2.92,0,0,1-1.13.21,2.86,2.86,0,0,1-1.46-.37,2.55,2.55,0,0,1-1-1.08,3.58,3.58,0,0,1-.36-1.67,3.46,3.46,0,0,1,.37-1.67,2.58,2.58,0,0,1,1-1.08A2.79,2.79,0,0,1,337.49,415.7Z" transform="translate(-259.24 -365.14)"/><path class="cls-1" d="M344,415.7a2.92,2.92,0,0,1,1.49.37,2.62,2.62,0,0,1,1,1.08,4,4,0,0,1,0,3.34,2.62,2.62,0,0,1-1,1.08,2.92,2.92,0,0,1-1.49.37,2.88,2.88,0,0,1-1.48-.37,2.64,2.64,0,0,1-1-1.08,4.05,4.05,0,0,1,0-3.34,2.64,2.64,0,0,1,1-1.08A2.88,2.88,0,0,1,344,415.7Zm0,.52a2.16,2.16,0,0,0-1.18.31,2.08,2.08,0,0,0-.79.89,3.18,3.18,0,0,0-.28,1.4,3.13,3.13,0,0,0,.28,1.39,2.11,2.11,0,0,0,.79.9,2.42,2.42,0,0,0,2.37,0,2.11,2.11,0,0,0,.79-.9,3.13,3.13,0,0,0,.28-1.39,3.18,3.18,0,0,0-.28-1.4,2.08,2.08,0,0,0-.79-.89A2.18,2.18,0,0,0,344,416.22Z" transform="translate(-259.24 -365.14)"/><path class="cls-1" d="M315.06,368.37l-.14,0v26.37a1.84,1.84,0,0,1-1.85,1.84H293a1.84,1.84,0,0,1-1.85-1.84V367.31a1.85,1.85,0,0,1,1.85-1.84h18.73a2.2,2.2,0,0,0,.71,1.25,1.85,1.85,0,0,0,1.15,1.21,2,2,0,0,0,1,.36l.32,0a1.14,1.14,0,0,1-.44-.4,1.5,1.5,0,0,1-.68-.27l0,0a1.59,1.59,0,0,1-1-1.06v0l0,0a2,2,0,0,1-.47-.64.8.8,0,0,1-.34-.29s-.08,0-.1-.08a1.21,1.21,0,0,1-.24-.35H293a2.16,2.16,0,0,0-2.16,2.15v27.41a2.16,2.16,0,0,0,2.16,2.15h20.06a2.16,2.16,0,0,0,2.16-2.15V368.43A.85.85,0,0,1,315.06,368.37Z" transform="translate(-259.24 -365.14)"/><polygon class="cls-1" points="55 3.16 55.62 3.16 52.46 0.35 52.46 3.16 55 3.16"/><path class="cls-1" d="M315.27,368.45h-3.72v-3.31Zm-3.41-.31h2.6l-2.6-2.31Z" transform="translate(-259.24 -365.14)"/><rect class="cls-1" x="36.35" y="7.92" width="16.07" height="1.01"/><rect class="cls-1" x="36.35" y="9.52" width="16.07" height="1.01"/><rect class="cls-1" x="36.35" y="11.31" width="16.07" height="1.01"/><g id="vTg6Ha"><path class="cls-1" d="M310,385c-.49.52-1,1-1.47,1.56a.42.42,0,0,1-.61,0,.43.43,0,0,1-.06-.63c.43-.48.88-.95,1.34-1.4.27-.25.6-.12.8.28Z" transform="translate(-259.24 -365.14)"/><path class="cls-1" d="M296.12,384.72c.29-.43.58-.45.94-.07l1.08,1.13a.48.48,0,0,1,.05.75c-.2.19-.48.16-.72-.1L296.12,385Z" transform="translate(-259.24 -365.14)"/><path class="cls-1" d="M302.92,391.82a7.76,7.76,0,0,1-5.6-3.12.26.26,0,0,1,0-.38,7.61,7.61,0,0,1,5.46-3.09,5.78,5.78,0,0,1,2.75.53,8.57,8.57,0,0,1,3.23,2.52.3.3,0,0,1,0,.45,7.87,7.87,0,0,1-4.78,3C303.61,391.79,303.23,391.79,302.92,391.82Zm-4.84-3.33c3,3.5,7.08,3.41,9.94,0a7.69,7.69,0,0,0-3.27-2.29c.77,1.27.7,2.35-.18,3.18a2.26,2.26,0,0,1-2.81.19,2.17,2.17,0,0,1-.87-2.3,1.41,1.41,0,0,0,.24.13.76.76,0,0,0,.9-.29.7.7,0,0,0-.08-.9.3.3,0,0,0-.28-.09A7.39,7.39,0,0,0,298.08,388.49Z" transform="translate(-259.24 -365.14)"/><path class="cls-1" d="M303.71,384.05c.09-.56.18-1.18.29-1.8a.44.44,0,0,1,.52-.37.48.48,0,0,1,.39.52c-.08.63-.18,1.26-.29,1.88a.44.44,0,0,1-.5.37C303.85,384.63,303.69,384.41,303.71,384.05Z" transform="translate(-259.24 -365.14)"/><path class="cls-1" d="M307.69,383.16c-.38.72-.71,1.4-1.09,2-.11.19-.36.14-.55,0a.39.39,0,0,1-.17-.51,18.08,18.08,0,0,1,.9-1.82.56.56,0,0,1,.5-.14C307.43,382.79,307.53,383,307.69,383.16Z" transform="translate(-259.24 -365.14)"/><path class="cls-1" d="M302.41,384.13a.49.49,0,0,1-.43.52.43.43,0,0,1-.49-.34c-.12-.64-.22-1.29-.3-1.94a.42.42,0,0,1,.38-.48.41.41,0,0,1,.52.31C302.22,382.85,302.31,383.51,302.41,384.13Z" transform="translate(-259.24 -365.14)"/><path class="cls-1" d="M300.31,384.91a2.26,2.26,0,0,1-.39.37.35.35,0,0,1-.5-.15c-.32-.6-.61-1.2-.89-1.82a.4.4,0,0,1,.2-.53c.2-.11.45-.13.56.07.34.63.64,1.29,1,1.94a.13.13,0,0,1,0,.06Z" transform="translate(-259.24 -365.14)"/></g></svg>