<svg id="Capa_1" data-name="Capa 1" xmlns="http://www.w3.org/2000/svg" viewBox="0 0 27.72 36.03"><defs><style>.cls-1,.cls-2{fill:#36c;}.cls-2{stroke:#36c;stroke-miterlimit:10;stroke-width:0.35px;}.cls-3{fill:none;}</style></defs><title>Q.informarme</title><path class="cls-1" d="M319.62,381.66a.66.66,0,0,1-.15,0v29.94a2.1,2.1,0,0,1-2.1,2.09H294.59a2.1,2.1,0,0,1-2.1-2.09V380.46a2.1,2.1,0,0,1,2.1-2.1h21.27a2.48,2.48,0,0,0,.8,1.43,2.14,2.14,0,0,0,1.3,1.37,2.2,2.2,0,0,0,1.11.4l.36.06a1.15,1.15,0,0,1-.5-.45,1.8,1.8,0,0,1-.77-.3l-.05,0a1.81,1.81,0,0,1-1.13-1.2v-.05l0,0a2,2,0,0,1-.53-.72.9.9,0,0,1-.39-.33l-.11-.09a1.23,1.23,0,0,1-.27-.4h-21a2.45,2.45,0,0,0-2.45,2.45v31.11a2.45,2.45,0,0,0,2.45,2.44h22.78a2.45,2.45,0,0,0,2.45-2.44V381.73Z" transform="translate(-292.14 -377.99)"/><polygon class="cls-2" points="26.56 3.59 27.26 3.59 23.67 0.39 23.67 3.59 26.56 3.59"/><rect class="cls-1" x="309.6" y="394.39" width="2.32" height="15.51" rx="1.16" transform="translate(-451.58 -168.73) rotate(-30)"/><path class="cls-1" d="M314.06,409.15a1.28,1.28,0,0,1-1.12-.65l-6.59-11.42a1.25,1.25,0,0,1-.13-1,1.29,1.29,0,0,1,2.36-.31l6.59,11.43a1.28,1.28,0,0,1-.47,1.76A1.33,1.33,0,0,1,314.06,409.15Zm-6.6-13.75a1.1,1.1,0,0,0-.52.14,1,1,0,0,0-.47.63,1,1,0,0,0,.1.78l6.59,11.43a1,1,0,0,0,1.79-1l-6.6-11.42A1,1,0,0,0,307.46,395.4Z" transform="translate(-292.14 -377.99)"/><path class="cls-3" d="M304.17,386.62a.73.73,0,0,0-.53.22.76.76,0,0,0,0,1.07.76.76,0,1,0,.53-1.29Z" transform="translate(-292.14 -377.99)"/><path class="cls-3" d="M303.66,396.55h0a1,1,0,0,0,1-1v-6.28h-1Z" transform="translate(-292.14 -377.99)"/><path class="cls-3" d="M304.12,384.15a7.33,7.33,0,1,0,7.33,7.33A7.34,7.34,0,0,0,304.12,384.15Zm0,14.48a7.15,7.15,0,1,1,7.16-7.15A7.16,7.16,0,0,1,304.12,398.63Z" transform="translate(-292.14 -377.99)"/><path class="cls-1" d="M304.12,384a7.51,7.51,0,1,0,7.51,7.51A7.51,7.51,0,0,0,304.12,384Zm0,15a7.51,7.51,0,1,1,7.51-7.5A7.5,7.5,0,0,1,304.12,399Z" transform="translate(-292.14 -377.99)"/><path class="cls-1" d="M304.12,384a7.51,7.51,0,1,0,7.51,7.51A7.51,7.51,0,0,0,304.12,384Zm0,14.84a7.33,7.33,0,1,1,7.33-7.33A7.34,7.34,0,0,1,304.12,398.81Z" transform="translate(-292.14 -377.99)"/><path class="cls-1" d="M304.12,384.33a7.15,7.15,0,1,0,7.16,7.15A7.15,7.15,0,0,0,304.12,384.33Zm.58,11.2a1,1,0,0,1-1,1h0v-7.3h1Zm0-7.62a.76.76,0,0,1-1.07,0,.76.76,0,0,1,0-1.07.76.76,0,0,1,1.07,1.07Zm4.18,3.68a5,5,0,0,0-1.27-2.32c-.45-.53-1.16-.87-1.19-1.61a.52.52,0,0,1,.52-.51c.85,0,1.3,1,1.58,1.72a9.22,9.22,0,0,1,.46,2.71A.05.05,0,0,1,308.89,391.59Z" transform="translate(-292.14 -377.99)"/></svg>