<svg id="Capa_1" data-name="Capa 1" xmlns="http://www.w3.org/2000/svg" viewBox="0 0 48.05 54.24"><defs><style>.cls-1,.cls-2{fill:#fdfeff;}.cls-1,.cls-2,.cls-4,.cls-5{stroke:#36c;stroke-miterlimit:10;}.cls-1{stroke-width:1.5px;}.cls-2{stroke-width:0.86px;}.cls-3{fill:#36c;}.cls-4,.cls-5{fill:none;}.cls-4{stroke-width:0.98px;}.cls-5{stroke-width:0.49px;}</style></defs><title>Seccion2</title><path class="cls-1" d="M324.53,422.37l-42-.22.29-52.52,35.66.19a6.31,6.31,0,0,1,6.27,6.34Z" transform="translate(-281.8 -368.88)"/><rect class="cls-2" x="315.82" y="396.8" width="6.11" height="24.43" rx="2.49" transform="translate(-481.54 43.83) rotate(-52.47)"/><circle class="cls-2" cx="19.88" cy="25.83" r="15.3"/><circle class="cls-2" cx="19.88" cy="25.83" r="12.44"/><rect class="cls-3" x="316" y="407.72" width="5.98" height="2.28" transform="translate(-481.37 43.86) rotate(-52.47)"/><path class="cls-3" d="M298.4,400.43c3.16,0,3.16-4.91,0-4.91s-3.17,4.91,0,4.91Z" transform="translate(-281.8 -368.88)"/><path class="cls-3" d="M312.08,376.73v-.16a1.46,1.46,0,0,0-.36-.87.88.88,0,0,0-.4-.25.93.93,0,0,0-.47-.11l-.33.05a1.34,1.34,0,0,0-.54.31l-.19.25a1.23,1.23,0,0,0-.17.62v.16a1,1,0,0,0,.11.48.9.9,0,0,0,.25.39,1,1,0,0,0,.4.26.93.93,0,0,0,.47.1l.33,0a1.36,1.36,0,0,0,.54-.32l.19-.25a1.2,1.2,0,0,0,.17-.62Z" transform="translate(-281.8 -368.88)"/><path class="cls-3" d="M319.37,380.79v-.16a.93.93,0,0,0-.11-.47,1,1,0,0,0-.65-.65.84.84,0,0,0-.47-.11l-.33.05a1.23,1.23,0,0,0-.54.31l-.19.25a1.23,1.23,0,0,0-.17.62v.16a.93.93,0,0,0,.11.47.88.88,0,0,0,.25.4.94.94,0,0,0,.4.25.84.84,0,0,0,.47.11l.33,0a1.18,1.18,0,0,0,.54-.31l.19-.25a1.23,1.23,0,0,0,.17-.62Z" transform="translate(-281.8 -368.88)"/><line class="cls-4" x1="16.59" y1="29.09" x2="24.99" y2="14.48"/><line class="cls-5" x1="26.46" y1="12.25" x2="29.2" y2="7.5"/><line class="cls-5" x1="29.05" y1="7.69" x2="36.66" y2="12.02"/></svg>