<svg xmlns="http://www.w3.org/2000/svg" viewBox="0 0 407.45 152.25"><defs><style>.cls-1{isolation:isolate;}.cls-2{fill:#706f6e;}.cls-10,.cls-3{fill:#4dc1f0;}.cls-4{fill:#f7a71f;}.cls-12,.cls-5{fill:#004a83;}.cls-11,.cls-6{fill:#fbc355;}.cls-7,.cls-9{fill:#fff;}.cls-10,.cls-11,.cls-12,.cls-13,.cls-7,.cls-8{mix-blend-mode:multiply;}.cls-13,.cls-15{fill:#6f91cb;}.cls-14{fill:#e73565;}.cls-16{fill:#00a66f;}.cls-17{fill:#812369;}</style></defs><g class="cls-1"><g id="Capa_2" data-name="Capa 2"><g id="Capa_1-2" data-name="Capa 1"><g id="Layer_1" data-name="Layer 1"><path class="cls-2" d="M130.24,116.22v-10h7.24v1.39h-5.62v2.87h4.4v1.36h-4.4v3h5.83v1.39Z"/><path class="cls-2" d="M143.29,106.06a4.93,4.93,0,0,1,2.33.51,4.52,4.52,0,0,1,1.67,1.49l-1.09,1a3.73,3.73,0,0,0-1.3-1.26,3.58,3.58,0,0,0-1.71-.39,3.24,3.24,0,0,0-1.19.2,1.45,1.45,0,0,0-.69.53,1.26,1.26,0,0,0-.22.73,1.12,1.12,0,0,0,.33.81,2.32,2.32,0,0,0,1.22.56l2,.45a3.84,3.84,0,0,1,2.07,1,2.33,2.33,0,0,1,.61,1.65,2.66,2.66,0,0,1-.51,1.61,3.1,3.1,0,0,1-1.38,1,5.28,5.28,0,0,1-2.08.37,6.13,6.13,0,0,1-1.91-.27,5.09,5.09,0,0,1-1.49-.75,4.45,4.45,0,0,1-1.05-1.07l1.12-1.13a4.13,4.13,0,0,0,.8,1,3.92,3.92,0,0,0,1.14.65,4.37,4.37,0,0,0,1.43.23,3.75,3.75,0,0,0,1.2-.17,1.75,1.75,0,0,0,.77-.49,1.18,1.18,0,0,0,.27-.78,1.1,1.1,0,0,0-.3-.77,2,2,0,0,0-1.1-.52l-2.19-.5a5.21,5.21,0,0,1-1.5-.56,2.5,2.5,0,0,1-.88-.89,2.54,2.54,0,0,1-.29-1.18,2.83,2.83,0,0,1,.46-1.54,3.29,3.29,0,0,1,1.35-1.1A4.71,4.71,0,0,1,143.29,106.06Z"/><path class="cls-2" d="M156.67,106.21v1.39h-3.43v8.6h-1.62v-8.6h-3.43v-1.39Z"/><path class="cls-2" d="M162.69,106.21a3.79,3.79,0,0,1,2.55.8,2.71,2.71,0,0,1,1,2.17,2.61,2.61,0,0,1-1,2.18,4,4,0,0,1-2.55.76l-.15.1h-2.32v4h-1.61v-10Zm-.12,4.66a2.25,2.25,0,0,0,1.46-.41,1.84,1.84,0,0,0,0-2.46,2.23,2.23,0,0,0-1.46-.41h-2.35v3.28Zm1,.32,3.26,5h-1.86l-2.79-4.39Z"/><path class="cls-2" d="M167.62,116.22l3.77-10h1.91l3.77,10h-1.7l-2.58-7.16-.46-1.44h0L171.9,109l-2.61,7.19Zm2-2.63v-1.32H175v1.32Z"/><path class="cls-2" d="M185,106.21v1.39h-3.42v8.6h-1.62v-8.6h-3.43v-1.39Z"/><path class="cls-2" d="M187,116.22v-10h7.25v1.39h-5.62v2.87H193v1.36h-4.39v3h5.83v1.39Z"/><path class="cls-2" d="M200.45,116.38a4.67,4.67,0,0,1-2.45-.63,4.19,4.19,0,0,1-1.6-1.76,6.12,6.12,0,0,1-.57-2.77,5.78,5.78,0,0,1,.6-2.74,4.15,4.15,0,0,1,1.69-1.78,5.06,5.06,0,0,1,2.53-.64,4.91,4.91,0,0,1,2.52.59,4,4,0,0,1,1.54,1.78l-1.5.72a2.26,2.26,0,0,0-1-1.25,2.91,2.91,0,0,0-1.6-.42,3,3,0,0,0-1.64.44,2.8,2.8,0,0,0-1.1,1.28,4.55,4.55,0,0,0-.39,2,5.24,5.24,0,0,0,.34,2,2.59,2.59,0,0,0,1,1.28,3.33,3.33,0,0,0,1.74.45,3.39,3.39,0,0,0,1-.16,2.29,2.29,0,0,0,.84-.42,1.72,1.72,0,0,0,.57-.71,2.26,2.26,0,0,0,.2-1v-.28h-2.86v-1.32h4.34v5.16h-1.21l-.08-2,.29.15a2.89,2.89,0,0,1-1.2,1.49A3.83,3.83,0,0,1,200.45,116.38Z"/><path class="cls-2" d="M209,106.21v10h-1.62v-10Z"/><path class="cls-2" d="M210.77,116.22l3.78-10h1.91l3.77,10h-1.71l-2.58-7.16-.46-1.44h0l-.43,1.41-2.6,7.19Zm2-2.63v-1.32h5.41v1.32Z"/><path class="cls-2" d="M229.89,106.21a5,5,0,0,1,.62,10c-.21,0-.42,0-.62,0h-3.54v-10Zm0,8.6a3.09,3.09,0,0,0,2.42-1,4.65,4.65,0,0,0,0-5.35,3,3,0,0,0-2.42-1H228v7.24Z"/><path class="cls-2" d="M237.26,116.22v-10h7.25v1.39h-5.62v2.87h4.43v1.36h-4.4v3h5.84v1.39Z"/><path class="cls-2" d="M259.06,107.6h-5.61v2.92h4.4v1.39h-4.4v4.31h-1.62v-10h7.23Z"/><path class="cls-2" d="M265.07,106.06a4.69,4.69,0,0,1,2.51.63,4,4,0,0,1,1.63,1.76,6.8,6.8,0,0,1,0,5.52,4,4,0,0,1-1.63,1.77,5.3,5.3,0,0,1-5,0,4.21,4.21,0,0,1-1.65-1.77,7,7,0,0,1,0-5.52,4.24,4.24,0,0,1,1.65-1.76A4.66,4.66,0,0,1,265.07,106.06Zm0,1.41a2.83,2.83,0,0,0-1.62.44,2.88,2.88,0,0,0-1,1.27,5.9,5.9,0,0,0,0,4.06,2.84,2.84,0,0,0,1,1.28,3.2,3.2,0,0,0,3.24,0,2.78,2.78,0,0,0,1-1.28,5.79,5.79,0,0,0,0-4.06,2.75,2.75,0,0,0-1-1.27A2.81,2.81,0,0,0,265.07,107.47Z"/><path class="cls-2" d="M276.28,106.21a3.78,3.78,0,0,1,2.55.8,2.71,2.71,0,0,1,1,2.17,2.61,2.61,0,0,1-1,2.18,3.92,3.92,0,0,1-2.55.76l-.15.1h-2.32v4H272.2v-10Zm-.12,4.66a2.23,2.23,0,0,0,1.46-.41,1.82,1.82,0,0,0,0-2.46,2.23,2.23,0,0,0-1.46-.41h-2.35v3.28Zm.95.32,3.26,5h-1.91l-2.79-4.39Z"/><path class="cls-2" d="M289.59,106.21v1.39h-3.42v8.6h-1.63v-8.6h-3.42v-1.39Z"/><path class="cls-2" d="M289,116.22l3.82-10h1.91l3.77,10h-1.71l-2.58-7.16-.45-1.44h0L293.3,109l-2.6,7.19Zm2-2.63v-1.32h5.41v1.32Z"/><path class="cls-2" d="M301.9,114.82h5.51v1.4h-7.13v-10h1.62Z"/><path class="cls-2" d="M309.36,116.22v-10h7.24v1.39H311v2.87h4.4v1.36H311v3h5.83v1.39Z"/><path class="cls-2" d="M327.11,113.56a3.93,3.93,0,0,1-1,1.54,3.84,3.84,0,0,1-1.42,1,5.21,5.21,0,0,1-1.8.32,4.77,4.77,0,0,1-2.5-.63,4.18,4.18,0,0,1-1.64-1.77,6.88,6.88,0,0,1,0-5.52,4.16,4.16,0,0,1,1.64-1.76,4.75,4.75,0,0,1,2.49-.64,5.6,5.6,0,0,1,1.77.28,3.65,3.65,0,0,1,1.36.82,3.53,3.53,0,0,1,.87,1.37l-1.53.68a2.62,2.62,0,0,0-.88-1.31,2.53,2.53,0,0,0-1.51-.42,2.87,2.87,0,0,0-2.7,1.71,4.73,4.73,0,0,0-.38,2,4.84,4.84,0,0,0,.36,2,2.78,2.78,0,0,0,1,1.28A3,3,0,0,0,323,115a2.76,2.76,0,0,0,1.6-.48,2.55,2.55,0,0,0,.95-1.43Z"/><path class="cls-2" d="M330.81,106.21v10h-1.63v-10Z"/><path class="cls-2" d="M344,106.21v10h-1.5v-5.8l.12-2.75h0l-3.05,8.55h-1.34l-3.05-8.55h0l.12,2.75v5.8h-1.53v-10h2.4l2,5.8.7,2.37h0l.71-2.37,2-5.8Z"/><path class="cls-2" d="M348.6,106.21v10H347v-10Z"/><path class="cls-2" d="M351.57,116.22v-10h7.24v1.39h-5.64v2.87h4.39v1.36h-4.39v3H359v1.39Z"/><path class="cls-2" d="M369.4,106.21v10h-1.91l-3.86-6.31-1-1.77h0l.07,1.62v6.46h-1.49v-10h1.91L367,112.5l.95,1.81h0l-.05-1.64v-6.46Z"/><path class="cls-2" d="M379.81,106.21v1.39h-3.42v8.6h-1.63v-8.6h-3.44v-1.39Z"/><path class="cls-2" d="M385.56,106.06a4.69,4.69,0,0,1,2.51.63,4,4,0,0,1,1.63,1.76,6.8,6.8,0,0,1,0,5.52,4,4,0,0,1-1.63,1.77,5.32,5.32,0,0,1-5,0,4.19,4.19,0,0,1-1.64-1.77,7,7,0,0,1,0-5.52,4.22,4.22,0,0,1,1.64-1.76A4.72,4.72,0,0,1,385.56,106.06Zm0,1.41a2.72,2.72,0,0,0-2.66,1.71,5.9,5.9,0,0,0,0,4.06,2.78,2.78,0,0,0,1,1.28,3.2,3.2,0,0,0,3.24,0,2.83,2.83,0,0,0,1-1.28,5.79,5.79,0,0,0,0-4.06,2.72,2.72,0,0,0-2.66-1.71Z"/><path class="cls-2" d="M395.84,116.22l3.77-10h1.91l3.82,10h-1.71l-2.58-7.16-.46-1.44h0l-.42,1.41-2.6,7.19Zm2-2.63v-1.32h5.41v1.32Z"/><path class="cls-2" d="M131.84,132h5.45v1.37h-7v-9.88h1.6Z"/><path class="cls-2" d="M138,133.36l3.73-9.88h1.91l3.74,9.88h-1.69l-2.56-7.06-.44-1.43h0l-.41,1.4-2.58,7.09Zm2-2.58v-1.3h5.35v1.3Z"/><path class="cls-2" d="M157.45,133.52a4.7,4.7,0,0,1-2.41-.61,4.2,4.2,0,0,1-1.59-1.75,6.69,6.69,0,0,1,0-5.45,4.17,4.17,0,0,1,1.68-1.75,5.55,5.55,0,0,1,5-.06,4,4,0,0,1,1.52,1.77l-1.49.7a2.22,2.22,0,0,0-1-1.23,2.8,2.8,0,0,0-1.57-.41,3.11,3.11,0,0,0-1.63.43,2.92,2.92,0,0,0-1.09,1.27,4.72,4.72,0,0,0-.38,2,5.14,5.14,0,0,0,.35,2,2.52,2.52,0,0,0,1,1.26,3.1,3.1,0,0,0,1.71.44,3.28,3.28,0,0,0,1-.14,2.65,2.65,0,0,0,.84-.42,1.94,1.94,0,0,0,.56-.71,2.34,2.34,0,0,0,.2-1v-.28h-2.86v-1.31h4.3v5.09h-1.2l-.09-2,.29.14a2.86,2.86,0,0,1-1.18,1.47A3.8,3.8,0,0,1,157.45,133.52Z"/><path class="cls-2" d="M164.28,133.36v-9.88h7.15v1.38h-5.55v2.87h4.34v1.35h-4.34V132h5.73v1.37Z"/><path class="cls-2" d="M177.17,123.34a4.79,4.79,0,0,1,2.3.49,4.55,4.55,0,0,1,1.66,1.48l-1.08,1a3.83,3.83,0,0,0-1.28-1.25,3.59,3.59,0,0,0-1.7-.38,3.12,3.12,0,0,0-1.17.19,1.45,1.45,0,0,0-.69.53,1.3,1.3,0,0,0-.22.72,1.18,1.18,0,0,0,.33.81,2.53,2.53,0,0,0,1.2.54l2,.45a3.9,3.9,0,0,1,2,1,2.35,2.35,0,0,1,.59,1.64,2.57,2.57,0,0,1-.48,1.58,3.13,3.13,0,0,1-1.38,1,5.32,5.32,0,0,1-2.05.37,6.17,6.17,0,0,1-1.91-.27,5.21,5.21,0,0,1-1.47-.74,4.55,4.55,0,0,1-1-1.06l1.11-1.1a4.25,4.25,0,0,0,.79,1,3.55,3.55,0,0,0,1.12.63,4.07,4.07,0,0,0,1.42.23,3.63,3.63,0,0,0,1.18-.17,1.48,1.48,0,0,0,.76-.49,1.06,1.06,0,0,0,.27-.76,1.17,1.17,0,0,0-.28-.76,2.09,2.09,0,0,0-1.09-.52l-2.17-.49a4.89,4.89,0,0,1-1.48-.55,2.3,2.3,0,0,1-1.16-2,2.78,2.78,0,0,1,.46-1.53,3.33,3.33,0,0,1,1.32-1.09A4.83,4.83,0,0,1,177.17,123.34Z"/><path class="cls-2" d="M190.39,123.48v1.38H187v8.5H185.4v-8.5H182v-1.38Z"/><path class="cls-2" d="M193.92,123.48v9.88h-1.61v-9.88Z"/><path class="cls-2" d="M201,123.34a4.72,4.72,0,0,1,2.49.61,4.06,4.06,0,0,1,1.61,1.75,6.88,6.88,0,0,1,0,5.45,4.14,4.14,0,0,1-1.61,1.76,5.35,5.35,0,0,1-5,0,4.11,4.11,0,0,1-1.62-1.76,6.88,6.88,0,0,1,0-5.45,4.09,4.09,0,0,1,1.62-1.75A4.63,4.63,0,0,1,201,123.34Zm0,1.39a2.65,2.65,0,0,0-2.62,1.69,5.74,5.74,0,0,0,0,4,2.82,2.82,0,0,0,1,1.24,3.18,3.18,0,0,0,3.21,0,2.84,2.84,0,0,0,1-1.27,5.74,5.74,0,0,0,0-4,2.8,2.8,0,0,0-1-1.26A3,3,0,0,0,201,124.73Zm.2-4.78h1.55l-1.31,2.4h-1.22Z"/><path class="cls-2" d="M216.1,123.48v9.88h-1.91l-3.82-6.22-1-1.75h0l.06,1.59v6.38H208v-9.88h1.91l3.82,6.22.95,1.78h0l-.06-1.62v-6.38Z"/><path class="cls-2" d="M223.89,133.36v-9.88H231v1.38h-5.55v2.87h4.34v1.35h-4.34V132h5.74v1.37Z"/><path class="cls-2" d="M236.9,123.48a4.94,4.94,0,1,1,.43,9.88h-3.92v-9.88Zm0,8.53a3.08,3.08,0,0,0,2.41-1,4.62,4.62,0,0,0,0-5.29,3,3,0,0,0-2.41-1H235V132Z"/><path class="cls-2" d="M252.07,123.48v6.1a3.88,3.88,0,0,1-1,2.94,5,5,0,0,1-6,0,3.84,3.84,0,0,1-1-2.94v-6.1h1.6v5.9a3.06,3.06,0,0,0,.6,2.07,2.85,2.85,0,0,0,3.67,0,3,3,0,0,0,.6-2.07v-5.9Z"/><path class="cls-2" d="M263,130.71a3.77,3.77,0,0,1-.89,1.52,3.9,3.9,0,0,1-1.42,1,4.66,4.66,0,0,1-1.77.32,4.88,4.88,0,0,1-2.48-.61,4.14,4.14,0,0,1-1.61-1.76,6.72,6.72,0,0,1,0-5.45,4.06,4.06,0,0,1,1.61-1.75,4.81,4.81,0,0,1,2.46-.61,5.52,5.52,0,0,1,1.76.26,3.57,3.57,0,0,1,1.34.82,3.27,3.27,0,0,1,.85,1.34l-1.51.67a2.23,2.23,0,0,0-2.35-1.7,3,3,0,0,0-1.6.43,2.85,2.85,0,0,0-1.07,1.26,4.48,4.48,0,0,0-.38,2,4.85,4.85,0,0,0,.36,2,2.79,2.79,0,0,0,1,1.27,2.9,2.9,0,0,0,1.62.43,2.43,2.43,0,0,0,2.52-1.85Z"/><path class="cls-2" d="M263.88,133.36l3.74-9.88h1.91l3.73,9.88h-1.69L269,126.3l-.45-1.43h0l-.41,1.4-2.58,7.09Zm2-2.58v-1.3h5.35v1.3Z"/><path class="cls-2" d="M281.05,123.48v1.38h-3.34v8.5H276.1v-8.5h-3.38v-1.38Z"/><path class="cls-2" d="M284.56,123.48v9.88H283v-9.88Z"/><path class="cls-2" d="M295.58,123.48l-3.67,9.88H290l-3.67-9.88H288l2.31,6.58.59,2,.61-1.91,2.31-6.59Z"/><path class="cls-2" d="M295.3,133.36l3.74-9.88H301l3.73,9.88H303l-2.55-7.06-.45-1.43h-.05l-.41,1.4L297,133.36Zm2-2.58v-1.3h5.35v1.3Z"/><path class="cls-2" d="M317.65,123.48v1.38h-3.39v8.5h-1.59v-8.5h-3.4v-1.38Z"/><path class="cls-2" d="M319.56,133.36v-9.88h7.17v1.38h-5.56v2.87h4.34v1.35h-4.34V132h5.73v1.37Z"/><path class="cls-2" d="M333.11,123.48a3.72,3.72,0,0,1,2.52.8,2.67,2.67,0,0,1,.95,2.14,2.62,2.62,0,0,1-.95,2.15,3.81,3.81,0,0,1-2.52.75l-.16.09h-2.29v4h-1.58v-9.88Zm-.13,4.6a2.19,2.19,0,0,0,1.45-.4,1.8,1.8,0,0,0,0-2.43,2.19,2.19,0,0,0-1.45-.41h-2.32v3.24Zm1,.33,3.22,5h-1.85L332.56,129Z"/><path class="cls-2" d="M343.17,123.48a3.8,3.8,0,0,1,2.54.8,2.67,2.67,0,0,1,1,2.14,2.62,2.62,0,0,1-1,2.15,3.91,3.91,0,0,1-2.54.75l-.14.09h-2.28v4h-1.59v-9.88Zm-.11,4.6a2.18,2.18,0,0,0,1.44-.4,1.78,1.78,0,0,0,0-2.43,2.16,2.16,0,0,0-1.44-.41h-2.31v3.24Zm1,.33,3.21,5h-1.84L342.66,129Z"/><path class="cls-2" d="M350.82,123.48v9.88h-1.61v-9.88Z"/><path class="cls-2" d="M361.1,123.48v1.38h-3.38v8.5h-1.6v-8.5h-3.38v-1.38Z"/><path class="cls-2" d="M366.78,123.34a4.69,4.69,0,0,1,2.48.61,4.11,4.11,0,0,1,1.63,1.75,6.88,6.88,0,0,1,0,5.45,4.13,4.13,0,0,1-1.63,1.76,5.37,5.37,0,0,1-5,0,4.14,4.14,0,0,1-1.61-1.76,6.88,6.88,0,0,1,0-5.45A4.06,4.06,0,0,1,364.3,124,4.69,4.69,0,0,1,366.78,123.34Zm0,1.39a2.84,2.84,0,0,0-1.6.43,2.8,2.8,0,0,0-1,1.26,5.74,5.74,0,0,0,0,4,3,3,0,0,0,4.23,1.27,2.74,2.74,0,0,0,1-1.27,5.63,5.63,0,0,0,0-4,2.73,2.73,0,0,0-1-1.26A2.92,2.92,0,0,0,366.78,124.73Z"/><path class="cls-2" d="M377.86,123.48a3.7,3.7,0,0,1,2.52.8,2.65,2.65,0,0,1,1,2.14,2.61,2.61,0,0,1-1,2.15,3.81,3.81,0,0,1-2.52.75l-.14.09h-2.3v4h-1.58v-9.88Zm-.12,4.6a2.19,2.19,0,0,0,1.45-.4,1.82,1.82,0,0,0,0-2.43,2.2,2.2,0,0,0-1.45-.41h-2.32v3.24Zm1,.33,3.22,5h-1.85L377.31,129Z"/><path class="cls-2" d="M385.5,123.48v9.88h-1.6v-9.88Z"/><path class="cls-2" d="M387.27,133.36l3.72-9.88h1.91l3.73,9.88h-1.69l-2.55-7.06-.44-1.43h-.05l-.42,1.4-2.58,7.09Zm2-2.58v-1.3h5.35v1.3Z"/><path class="cls-2" d="M400,132h5.46v1.37h-7.05v-9.88H400Z"/><path class="cls-3" d="M146.06,62.42V86.1l2.87.69V88.7l-5.84.17-.27-2a7.72,7.72,0,0,1-5.66,2.31A6.08,6.08,0,0,1,132,86.83a10.83,10.83,0,0,1-1.8-6.61,10.76,10.76,0,0,1,2.3-7.2q2.29-2.68,6.8-2.69a9.73,9.73,0,0,1,3.25.55V65.14l-2.91-.68V62.55ZM142.62,83.9V73.78a7.57,7.57,0,0,0-3.6-.68q-5.15,0-5.15,6.86a9.33,9.33,0,0,0,1,4.78,3.51,3.51,0,0,0,3.24,1.74,4.55,4.55,0,0,0,2.87-.89A7.31,7.31,0,0,0,142.62,83.9Z"/><path class="cls-3" d="M170.08,80.2l-11.84.06a7,7,0,0,0,1.35,4.5,4.47,4.47,0,0,0,3.63,1.69,9.42,9.42,0,0,0,1.51-.14c.5-.09,1-.21,1.43-.34a10.44,10.44,0,0,0,1.21-.47,7.3,7.3,0,0,0,1-.5l.68-.45,1.21,1.79a14.27,14.27,0,0,1-2.15,1.46,13.62,13.62,0,0,1-2.3,1,9.86,9.86,0,0,1-2.86.43,7.64,7.64,0,0,1-6.15-2.46,10,10,0,0,1-2.09-6.68,11.57,11.57,0,0,1,.62-3.92A9.15,9.15,0,0,1,157,73.06a7.88,7.88,0,0,1,6.06-2.73q7.2,0,7.2,8.07Zm-11.7-2.5h8.24a6,6,0,0,0-.89-3.41,3.25,3.25,0,0,0-2.87-1.3,3.89,3.89,0,0,0-3.12,1.32,5.72,5.72,0,0,0-1.36,3.39Z"/><path class="cls-3" d="M191.36,81.81l.69,3.6a6.77,6.77,0,0,0,1.68.61,9.28,9.28,0,0,0,2.1.25,7.44,7.44,0,0,0,2-.25,5.89,5.89,0,0,0,1.68-.74,4,4,0,0,0,1.15-1.16,2.7,2.7,0,0,0,.43-1.51,2.56,2.56,0,0,0-.55-1.68,5.31,5.31,0,0,0-1.42-1.16,11.7,11.7,0,0,0-2-.88l-2.23-.78c-.76-.28-1.57-.7-2.31-1a8.81,8.81,0,0,1-2-1.3,5.77,5.77,0,0,1-1.38-1.91,6.37,6.37,0,0,1-.52-2.72,6,6,0,0,1,2.46-5.08,7.85,7.85,0,0,1,2.6-1.22,12.41,12.41,0,0,1,3.15-.39,14.5,14.5,0,0,1,1.61.1c.57.07,1.13.16,1.68.26s1.06.22,1.55.34l1.23.33,1.1.34-.17,5.84h-2.24L200.5,68a11.72,11.72,0,0,0-1.91-.44,13.64,13.64,0,0,0-1.91-.14,5.83,5.83,0,0,0-1.81.26,4.5,4.5,0,0,0-1.38.7,3.43,3.43,0,0,0-.86,1,2.18,2.18,0,0,0-.32,1.14,3,3,0,0,0,1,2.26,8.2,8.2,0,0,0,2.3,1.4,30.85,30.85,0,0,0,3,1.1,16.09,16.09,0,0,1,3,1.29,7.26,7.26,0,0,1,2.26,2,5.29,5.29,0,0,1,.91,3.23A6.94,6.94,0,0,1,204,84.9a6.77,6.77,0,0,1-1.91,2.31,8.3,8.3,0,0,1-2.86,1.44,12.12,12.12,0,0,1-3.54.5A12.75,12.75,0,0,1,194,89c-.58-.06-1.16-.15-1.71-.25s-1-.21-1.57-.35-.88-.24-1.2-.35l-1-.35v-6Z"/><path class="cls-3" d="M227,80.2l-11.83.06a6.84,6.84,0,0,0,1.36,4.5,4.43,4.43,0,0,0,3.62,1.69,9.4,9.4,0,0,0,1.5-.14c.5-.09,1-.21,1.43-.34a11.35,11.35,0,0,0,1.22-.47,8.74,8.74,0,0,0,1-.5l.67-.45,1.21,1.79A14.7,14.7,0,0,1,225,87.8a14,14,0,0,1-2.3,1,9.64,9.64,0,0,1-2.87.43,7.64,7.64,0,0,1-6.15-2.46,10,10,0,0,1-2.09-6.68,11.57,11.57,0,0,1,.62-3.92,9.43,9.43,0,0,1,1.73-3.07A7.88,7.88,0,0,1,220,70.33q7.2,0,7.2,8.07Zm-11.7-2.5h8.24a6,6,0,0,0-.89-3.41,3.25,3.25,0,0,0-2.87-1.3,3.94,3.94,0,0,0-3.12,1.32A5.72,5.72,0,0,0,215.29,77.7Z"/><path class="cls-3" d="M247.77,76.32h-2.24L245,73.4a12.84,12.84,0,0,0-3.09-.34,4.71,4.71,0,0,0-3.82,1.58c-.9,1-1.33,2.68-1.33,4.91a8.08,8.08,0,0,0,1.4,5.11,4.72,4.72,0,0,0,3.92,1.79,8.54,8.54,0,0,0,1.42-.14,10.61,10.61,0,0,0,1.34-.36,9.61,9.61,0,0,0,1.14-.5,3.86,3.86,0,0,0,.83-.55l.59-.52,1.19,2.07-.37.3a7.86,7.86,0,0,1-1.14.77,11.82,11.82,0,0,1-1.59.8,17.63,17.63,0,0,1-1.86.62,7.65,7.65,0,0,1-1.91.26,8,8,0,0,1-6.39-2.5,10,10,0,0,1-2.2-6.81,11.46,11.46,0,0,1,.64-3.89,8.67,8.67,0,0,1,1.8-3,8,8,0,0,1,2.82-2,9.62,9.62,0,0,1,5.08-.6c.48.06,1,.14,1.4.24a10.72,10.72,0,0,1,1.27.32,6.87,6.87,0,0,1,1,.36l.75.35Z"/><path class="cls-3" d="M259.78,70.66l.31,2.5q2.54-2.86,5.18-2.87a9.23,9.23,0,0,1,2.71.41l.38.11-.17,5H266l-.52-2.57a6,6,0,0,0-5,2.67V86.1l3.43.86v1.91h-9.78V87L257,86.1V73.4l-2.92-.68V70.81Z"/><path class="cls-3" d="M289,80.2l-11.85.06a7,7,0,0,0,1.36,4.5,4.43,4.43,0,0,0,3.62,1.69,9.53,9.53,0,0,0,1.51-.14A14,14,0,0,0,285,86a9.93,9.93,0,0,0,1.22-.47,7.3,7.3,0,0,0,1-.5l.69-.45,1.2,1.79a14.27,14.27,0,0,1-2.15,1.46,13.62,13.62,0,0,1-2.3,1,9.6,9.6,0,0,1-2.87.43,7.68,7.68,0,0,1-6.17-2.42,10.08,10.08,0,0,1-2.09-6.69,12.06,12.06,0,0,1,.61-3.91,9.43,9.43,0,0,1,1.74-3.07,7.86,7.86,0,0,1,6.06-2.73q7.2,0,7.21,8.07Zm-11.71-2.5h8.24a5.87,5.87,0,0,0-.9-3.41,3.23,3.23,0,0,0-2.86-1.3,3.92,3.92,0,0,0-3.13,1.32A5.65,5.65,0,0,0,277.25,77.7Z"/><path class="cls-3" d="M301.31,65.81v5h5V73.4h-5v11c0,1.39.57,2.09,1.72,2.09a5.77,5.77,0,0,0,2.67-.86l1,1.83a8.07,8.07,0,0,1-4.78,1.72A3.85,3.85,0,0,1,299,88a5.41,5.41,0,0,1-1.1-3.82V73.4h-3.43V71.17l3.43-.34V66.5Z"/><path class="cls-3" d="M313.32,71.69a19.65,19.65,0,0,1,6.81-1.38,7.66,7.66,0,0,1,4.63,1.22c1.08.82,1.61,2.18,1.61,4.1V86.14l2.74.69v1.91l-5.32.17-.71-2.41c-1.84,1.84-3.64,2.75-5.43,2.75a5.41,5.41,0,0,1-4-1.34,5.18,5.18,0,0,1-1.35-3.82q0-5.31,7.9-5.32h2.74V76c0-2.07-1.08-3.09-3.25-3.09a10.56,10.56,0,0,0-3.06.37l-.41.14L315.73,76H313.5ZM322.93,81h-2.39a7.43,7.43,0,0,0-3.66.67,2.27,2.27,0,0,0-1.08,2.08,2.94,2.94,0,0,0,.63,2,2.38,2.38,0,0,0,1.84.71,3.69,3.69,0,0,0,1.19-.22,6.88,6.88,0,0,0,2.18-1.18,5.59,5.59,0,0,0,.71-.67l.58-.68Z"/><path class="cls-3" d="M340.62,70.66l.3,2.5q2.55-2.86,5.19-2.87a9.23,9.23,0,0,1,2.71.41l.37.11-.17,5H346.8l-.52-2.57a6,6,0,0,0-5,2.67V86.1l3.43.86v1.91H335V87l2.92-.86V73.4L335,72.72V70.81Z"/><path class="cls-3" d="M360.69,70.66V86.1l2.58.86v1.91h-8.93V87l2.92-.86V73.4l-2.92-.68V70.81Zm2.93-7-7.22,4.46-1.2-1.71,6.69-5.32Z"/><path class="cls-3" d="M370.47,71.69a19.65,19.65,0,0,1,6.81-1.38,7.66,7.66,0,0,1,4.63,1.22c1.08.82,1.61,2.18,1.61,4.1V86.14l2.75.69v1.91l-5.33.17-.71-2.41c-1.84,1.84-3.65,2.75-5.43,2.75a5.41,5.41,0,0,1-4-1.34,5.13,5.13,0,0,1-1.34-3.82q0-5.31,7.89-5.32h2.75V76c0-2.07-1.09-3.09-3.26-3.09a10.56,10.56,0,0,0-3.06.37l-.41.14L372.88,76h-2.23ZM380.09,81h-2.4a7.43,7.43,0,0,0-3.66.67A2.27,2.27,0,0,0,373,83.7a2.84,2.84,0,0,0,.64,2,2.37,2.37,0,0,0,1.83.71,3.69,3.69,0,0,0,1.19-.22,7,7,0,0,0,1.16-.5,7.37,7.37,0,0,0,1.74-1.35l.58-.68Z"/><path class="cls-3" d="M392.33,83.36h2.4l.38,3a4.93,4.93,0,0,0,1.08.22,11.8,11.8,0,0,0,1.46.09A6.11,6.11,0,0,0,400.9,86a2.3,2.3,0,0,0,1-2,1.76,1.76,0,0,0-.71-1.47,6.12,6.12,0,0,0-1.76-1c-.72-.26-1.48-.51-2.32-.77a11.43,11.43,0,0,1-2.32-.95A5.6,5.6,0,0,1,393,78.2a4.11,4.11,0,0,1-.71-2.54A4.72,4.72,0,0,1,394,71.73a7.56,7.56,0,0,1,4.57-1.43,21,21,0,0,1,2.45.19,13.83,13.83,0,0,1,2.55.57l.86.27-.1,4.64h-2.23l-.55-2.68a7.8,7.8,0,0,0-1.06-.26,9.54,9.54,0,0,0-1.68-.15,6.45,6.45,0,0,0-1.17.1,3.79,3.79,0,0,0-1,.34A1.8,1.8,0,0,0,396,74a2.21,2.21,0,0,0-.26,1.1,1.9,1.9,0,0,0,.71,1.56,6.55,6.55,0,0,0,1.76,1c.71.28,1.48.53,2.32.79a10.92,10.92,0,0,1,2.32,1,5.73,5.73,0,0,1,1.76,1.53,3.9,3.9,0,0,1,.71,2.43,5.11,5.11,0,0,1-.62,2.54,5.63,5.63,0,0,1-1.66,1.84,7.34,7.34,0,0,1-2.44,1.09,11.46,11.46,0,0,1-3,.37,10.29,10.29,0,0,1-1.22-.05L395.18,89c-.41-.06-.8-.12-1.15-.19a7.2,7.2,0,0,1-.88-.21l-.78-.21Z"/><path class="cls-4" d="M374.68,97a11.77,11.77,0,0,0-2.78.15l-.47-.26a7.66,7.66,0,0,1-1.91.27,1.17,1.17,0,0,1-.67-.06,2.22,2.22,0,0,0-1-.14h-.74a1.81,1.81,0,0,0-.73.08l1.86.1a3.49,3.49,0,0,1-1.12.09h-.57c-.64,0-.84-.11-.54-.27.05,0,.18,0,.2-.06s0-.06-.09-.08a1.5,1.5,0,0,0-.3,0,2.21,2.21,0,0,0-.42.12c-.1,0-.13.1-.21.14-.3.17-.3.14-1,.15a5.87,5.87,0,0,1-1.39-.16l-.75.1a17.61,17.61,0,0,0-1.78,0V96.9a10.36,10.36,0,0,1-2.61.09,2.91,2.91,0,0,0-1.31.12,5,5,0,0,1-.55,0l-.83,0c-.15-.12-.95,0-1.17-.13-.42,0,.16.27-.73.2a1.62,1.62,0,0,1,.2-.18,1.09,1.09,0,0,0-.47,0,2.71,2.71,0,0,1-1.2.07.91.91,0,0,0,.11-.16,7,7,0,0,1-2.54.22c0-.11.24-.22-.24-.31l-.8.13c.13.07.27.16-.37.15v-.26l-.58.15a5.23,5.23,0,0,0-2.19.14l-1.56-.12c.09-.15.72-.09,1-.19l-.69-.11c-.51.17-1.57,0-2.09.24l.08.07c-.49,0-.44-.07-.55-.13-1.19.11-2.31.22-3.39.39-.18-.06-.66-.09-.41-.2a3.44,3.44,0,0,1,1.11,0l.53-.24h.24l-1-.1c-.11.16-.39.21-1,.2s-.84.06-1.25.12l-.77.08L334,97a.42.42,0,0,0,.05.24h-.17l-.27-.08h-1.35a2.33,2.33,0,0,1-.46-.08,1.14,1.14,0,0,0-.85,0l-.73-.12c.44-.11.44-.11-.19-.28l-.07.19c-.42,0-.88.07-1.36.08-.73,0-.95,0-1.12-.16H327a.88.88,0,0,0-.05-.15h-.2a1.66,1.66,0,0,1-.83.15c-.53,0-1.05,0-1.62.06l-.31-.16c-.07,0-.52,0-.35-.09a5.61,5.61,0,0,0-.82,0,3.82,3.82,0,0,1-1.17,0h-.75l.16.2h-.2a16.54,16.54,0,0,0-2,.06h-.66a2,2,0,0,0-1,.15l-.71-.12a4.16,4.16,0,0,0-1.22-.07,6.93,6.93,0,0,1-1.82,0l.1.21a.2.2,0,0,1-.11,0,6.18,6.18,0,0,0-1.36,0,5.7,5.7,0,0,1-1.43-.06c-.22,0-.39-.09-.27-.17s-.09,0-.13-.08h-.17l-.18.17-.66-.15a2.56,2.56,0,0,1-1,.11,7.47,7.47,0,0,0-.95.12l-.79-.14-.42.18h.61c-.13.15-.54.21-1.13.13a4,4,0,0,0-.69,0,2.14,2.14,0,0,1-.44-.08,2.07,2.07,0,0,1,.42-.08A10.83,10.83,0,0,0,306,96.9a3.1,3.1,0,0,0-1.42,0l-.54-.12-.76.31c-.55,0-1,.06-1.4.07s-.61,0-.89,0a2.49,2.49,0,0,0-.77,0,2.82,2.82,0,0,1-1.32.1h-.28l.19.08h-1.44a2.3,2.3,0,0,1,.69,0l.43-.2h.59l-.91-.32c-.21.1-.2.19-.53.26a10.16,10.16,0,0,1-2.27.14,2.52,2.52,0,0,1-.47-.13h.7a6.39,6.39,0,0,0,1-.16c-.92,0-1.84-.1-2.75-.22,0,0-.06.13.06.15l1,.11V97h-.15a2.58,2.58,0,0,1-1.1.15.34.34,0,0,0,.09-.08v0l-1-.08v0l1-.17H293c-.17,0,.24-.13-.26-.13h-.1c.17.1-.22.19-.25.28s-.3.12-.61.08a23.45,23.45,0,0,0-2.65-.06l-.46-.16-.53.22a4.38,4.38,0,0,0-1.49-.08,1.86,1.86,0,0,0,1,.15h.84c.51,0,.51,0,.69.17-.25,0-.5,0-.76.06a3.57,3.57,0,0,0-1.13.07c-.12-.08-.2-.16-.32-.24l-1,.1a3.12,3.12,0,0,0-1-.08h-.88a1.12,1.12,0,0,0-.35.12,3.21,3.21,0,0,1-1.27.09,1.31,1.31,0,0,1-.28,0,8.42,8.42,0,0,1-1.42,0,6.11,6.11,0,0,0-1.48,0,3.32,3.32,0,0,1-.63,0,4,4,0,0,0-1.81,0c0,.08.83.06.4.2L276,97.46l-.24-.11h-1.9a4.2,4.2,0,0,0-1.83.18l-.56-.12c-.05.15-.09.14-.69.16-1.06,0-2.09,0-3.12,0a9,9,0,0,1-.91-.11,4.82,4.82,0,0,0-1.2,0l-1.18.11.41.1h-.95c.28-.12.57-.23,0-.3a4.38,4.38,0,0,1,1.49,0c.41-.11.23-.22.13-.32l2.19-.16.64-.2a1.06,1.06,0,0,0-.56,0c-.62.12-1.38.14-2.09.21h-1l.29.16a7.28,7.28,0,0,1-1.32,0,3.12,3.12,0,0,1-1.14,0c-.05-.1.19-.25-.47-.34l-.07.13c-.06.13-.3.21-.81.24-.25,0-.44,0-.37.11a5.78,5.78,0,0,1,2.71.17c0,.08-.71.08-.53.21l-.37.05h-1.13l-.65-.09c.53-.3.53-.3.06-.39s-.46.14-.2.24l-1.36.22c-.68.1-.88.07-1-.14l-.64.08c-.37-.15.2-.16.5-.2,0-.09.14-.17-.3-.19a2.19,2.19,0,0,0-.51.1c-.32,0-.82-.11-1,.09H257c.06.15-.34.17-.68.16-.55,0-.86,0-.91.2l-.62-.08.54-.12a3.25,3.25,0,0,0-.46-.22,2.22,2.22,0,0,0-.89,0h-1.8c-.41.19-.43.18-1.66.16-.44,0-.42-.07-.46-.16h-1.57l.38.19a3.45,3.45,0,0,0-.54.11c-.08,0,0,.08-.05.13-.59,0-.27-.11-.6-.15l-1.49.1a3,3,0,0,0-1.55,0,7.1,7.1,0,0,1-1.13,0h-.31c-.28-.14.3-.13.44-.2a1.59,1.59,0,0,0,.35-.22,2.87,2.87,0,0,0-1.83.13l1.07-.06c.07.14.07.14-.95.12.06.12.06.12.71.16-.32,0-.53.1-.76.11h-1.82a3.8,3.8,0,0,1-.58-.06l1.91-.16c-.22-.06,0-.18-.56-.2l.07.15-1.45.13a.2.2,0,0,0,0-.15,1.4,1.4,0,0,0-.29,0,1.27,1.27,0,0,0-.27.18h.57a.41.41,0,0,0,0,.09,7.24,7.24,0,0,0-1.23,0,2.91,2.91,0,0,1-.59,0c0-.14.35-.31-.56-.36l-1,.1h-.1l.5,0c-.3.22-.36.23-1.18.14l.21-.19H235l-1.44.19c.08-.22,0-.25-.8-.25a5.56,5.56,0,0,1-1-.07,11.92,11.92,0,0,1-2.92.12c-.21,0-.42,0-.62,0a4.6,4.6,0,0,0-1.86,0,4.23,4.23,0,0,0-1.42,0h-.53l-.2.13h-.41a12.2,12.2,0,0,0-1.71,0h-3c-.58,0-1.08-.06-1.61-.1a4.12,4.12,0,0,0-1.31.09,8.61,8.61,0,0,1-1,.09l-.77-.24a1.3,1.3,0,0,1-.84.2,5.77,5.77,0,0,0-.58.08c-.16-.12.22-.2.54-.28l-.48-.13h-.16a3.39,3.39,0,0,0-.43.11c-.1,0-.1.08-.14.13.38,0,.09.21.68.16l-.83.08c-.69-.1-.22-.19,0-.3-.59,0-.9,0-1,.17a7.33,7.33,0,0,0-2.09.1v-.18h-.22a17.86,17.86,0,0,0-2.23.16h-.47c.16-.13-.55-.14-.47-.27-.89.09.06.25-.39.36a1.73,1.73,0,0,0-1-.13,10.42,10.42,0,0,1-1.58,0,3,3,0,0,0-1.19,0l-.37.08-1.36-.16a3.45,3.45,0,0,1-1.91-.07h1.67c.13-.11-.29-.11-.49-.11a5.05,5.05,0,0,0-1.72.25l-3.61-.19a1.27,1.27,0,0,0,.13-.19h-.27l-1.19.13.44.06a2.74,2.74,0,0,1-1.27.17c-.78-.08-1.71-.06-2.4-.2h-.18v.1H188l.56,0h-.12l-.76-.07.54-.11-.63-.07c0,.1-.08.21-.11.31a9.25,9.25,0,0,1-2.52-.1c-.49.08-.49.08-.78-.06-.4,0-.5.14-.4.25a17.8,17.8,0,0,1-2.53,0l.41-.15.44.11H183l-.46-.18a.66.66,0,0,0-.28,0c-.63,0-1.27,0-1.91,0a11.42,11.42,0,0,0-1.94,0,4.29,4.29,0,0,1-1.24,0c-.1,0-.09-.09-.15-.14-.37,0-.68,0-.74.15s-.64.26-1.4.21h-.55a6.63,6.63,0,0,0-1.26,0,13.82,13.82,0,0,1-1.82,0,1.82,1.82,0,0,1-.55-.2l-.5.1-.89-.09.37.25c-.58,0-1.12,0-1.67,0h-1.77s-.23-.07-.26-.13-.25-.14-.68-.1l-1.39.08,1.11.16a3.34,3.34,0,0,1-1.54,0h-.15a1.76,1.76,0,0,1-.89-.06,6,6,0,0,1-1.64.16c.25-.1-.17-.15-.32-.22h-.67l-.17-.1-1,0c.13.19.13.19.73.19a.92.92,0,0,1,.33,0,4.43,4.43,0,0,0,1.15,0,.94.94,0,0,1-.28.1h-3.06l.24-.32h-1l.51.25h-1.09a2.91,2.91,0,0,0-1.21.08,3.7,3.7,0,0,1-.57.07,8.71,8.71,0,0,0-1.91-.09l.11-.17a5.45,5.45,0,0,1-1.71,0,5.17,5.17,0,0,1-1.57,0,2.17,2.17,0,0,0-.51,0c-.12,0-.15.08-.28.16a9.29,9.29,0,0,0-2,.2c-.5-.08-1-.14-1.39-.24s-.62-.19-.95-.28h-.25a3,3,0,0,1-1.47,0l-.54-.1h-.23c-.46.12-.46.12-.32.31h.68a.83.83,0,0,0,.08.12l-1.58.07c.3-.1.71-.16.27-.28l-.42.12-.37-.12-.19.07c0,.1-.27.13-.66.14l-.06-.1h-2.13c-.34-.09.13-.21-.44-.26l-.29.11-1.28.16v-.15l-.66.11h-.12a9.81,9.81,0,0,0-1.1-.27c-.32,0-.32-.12-.1-.2l.39-.14h-.14a2.51,2.51,0,0,0-.44.1,4.49,4.49,0,0,0-.64.08l.38-.23-.28,0-1,.21a2.65,2.65,0,0,1-1.24-.44,5,5,0,0,1,1.72,0,6,6,0,0,1,1.79,0l.58-.19,4-.12h0l-.32.06a2.19,2.19,0,0,0,1.29-.15,1.57,1.57,0,0,0,1,0,3.69,3.69,0,0,0,1.62,0,6.13,6.13,0,0,1,1.35-.09c0,.06.11.13.17.22l.48-.16a7.64,7.64,0,0,1,2.24,0,1.75,1.75,0,0,0,.85,0c.35-.06.81-.09,1.23-.13a1,1,0,0,1,.69.11l.9-.27h1c.06.14.06.14.66.15a1.61,1.61,0,0,1,.38.08,1.92,1.92,0,0,1,1-.11,8.9,8.9,0,0,0,1.55-.07c.28,0,.55,0,.82,0h.41a6.51,6.51,0,0,1,1.65,0L156,96h2.73a2,2,0,0,0,1-.19h.65c.25,0,.51,0,.76,0a2.39,2.39,0,0,0,.54-.15l.36.17c-.66.09-.71.1-1,.31l1.17-.19a.27.27,0,0,1,.07-.21,3.41,3.41,0,0,0,.95.14,2.64,2.64,0,0,0,1-.22l.39.14-1,.14h.67l-.07.15c.74-.14.74-.14.95-.44h.67l-.23.16.6.08c.34,0,.69-.08,1-.14a1.91,1.91,0,0,1,1,0,2.16,2.16,0,0,0,.36,0,3,3,0,0,1,1,.06,6,6,0,0,0,.85,0l-.09-.07a5.6,5.6,0,0,1,2,0l-.13.21a2.08,2.08,0,0,0,1-.06,4.7,4.7,0,0,1,1.3-.1h0l.05,0H176l.13-.11,1.35-.08v.2h-.76c0,.07.11.13,0,.17a1.21,1.21,0,0,1-.37.11,1.25,1.25,0,0,0,.76-.13,10.25,10.25,0,0,0,2.35-.14l-.54-.06.7-.06.18.18,1.43.08c.07-.05.08-.12.2-.15a5.85,5.85,0,0,1,.59,0l.16.24.48-.07h.38a8.46,8.46,0,0,0,1.59,0,4.25,4.25,0,0,1,.8,0,6.11,6.11,0,0,0,1.48,0h.65l-.42.18h1.09l-.08-.14c1-.06,2.07-.13,3.13-.13h.3a3.32,3.32,0,0,0,1.09,0h.77l-.87.24h1.49l-.34-.2.54-.06a3.47,3.47,0,0,0,1.39.22l.42-.26,1.91.31c.21-.1.07-.22.71-.21a1.89,1.89,0,0,0-.2.2h1l-.21-.21h1.23c.8,0,.8,0,1-.22a9.47,9.47,0,0,1,2.32.12l.83-.13c0,.07.19.13.11.16a2.67,2.67,0,0,1-.56.06h-.67l-.41.21,1.67.11.52-.08c-.17-.13-.17-.13,0-.24l3-.3L208,96l-1.37.13.26.31a3.11,3.11,0,0,0-1.18.07,10.63,10.63,0,0,1,2.11.21h.88l.23-.14a2,2,0,0,0-1-.07h-.75c-.07-.26,1.17-.21,1.27-.37h1.18v.26a5.53,5.53,0,0,1,1.1-.45l.26.12a5.46,5.46,0,0,0,1.61-.24l1.25.08c.23.11.23.11,1.2.12l-.81.18c.13.2.86.09,1.27.17.06,0,.16-.08.13-.1-.22-.16-.23-.16.35-.21h.31c.25-.26.59-.24,1.44-.17a.42.42,0,0,0,.1.17.91.91,0,0,1,.26.11h1l.47-.16a2.5,2.5,0,0,0-1.15-.14v-.22a8.07,8.07,0,0,1,1.39,0l-.52.16c.7,0,.54.14.75.25h.57c.12,0,.27,0,.16.08s.09.15.44.15.71,0,.73-.12.55-.19.81-.3a3.09,3.09,0,0,1,1,0l-.18.12,1.38.13v-.35c.61,0,.61,0,.65.2a3.72,3.72,0,0,1,1.66.12l-.39.14h.86l.33.22H229l-.82-.09a11.25,11.25,0,0,1,2.78,0l-1,.05a3.74,3.74,0,0,0-.66.09h.75c.2,0,.41,0,.61,0a11,11,0,0,0,1.4.05h.15c-.24-.07-.68-.1-.48-.23s-.2-.13-.36-.14a5.64,5.64,0,0,1-1.53-.26c-.25,0-.36.06-.14.12s0,.1-.17.1h-1.29a1.39,1.39,0,0,1-.44-.07l1.45-.17a3.76,3.76,0,0,1,1.53.08,5.65,5.65,0,0,0,1,.06h1.12l-.22.2,1.54-.29v.3h.59a1.71,1.71,0,0,1,1,0l-1,.14-.5-.14a2,2,0,0,1-.9.05,2,2,0,0,0-.35,0s0,.07,0,.1l.81.21a7.49,7.49,0,0,1,2.71-.15l.63-.11c0-.16-.4-.19-.85-.22h.28a6.19,6.19,0,0,0,1.67-.16,7.22,7.22,0,0,1,1.61,0c.1,0,.09.09.16.17l-1.61-.16-.5.21,1.73.08-.74.12.43.22,1-.1c0-.09-.17-.16-.11-.24a1.86,1.86,0,0,1,.46-.13c.66.07,0,.16.1.25s.27,0,.37,0a13.09,13.09,0,0,1,2,0,2.29,2.29,0,0,0,.37,0l-.41-.1a7.14,7.14,0,0,1,1.79,0,3.87,3.87,0,0,0,1.59,0,1.92,1.92,0,0,0,1.23.08v.22l.88-.07-.42-.17H249l.88-.24.59.1.3-.22a2.59,2.59,0,0,1,.62.1c.16,0,.08.13-.12.18h1.17s0-.12.41,0h0l-.12.15h.4c.24-.08.71-.11.77-.24a2.55,2.55,0,0,1,.66-.12h1l-.24.1a5.31,5.31,0,0,0,1.38,0h0c.06.16.2.31,1.08.34-.12-.09-.34-.17-.29-.23a3.23,3.23,0,0,1,.62-.21h-.2v-.1h.71l.41.16h1.29c.08-.15.77-.07,1.23-.13l.26.12.79,0-.12.2c.27.06.76-.06.79-.2a.6.6,0,0,0,0-.19,4.82,4.82,0,0,1,1.19.17,9.07,9.07,0,0,0,1.15.37,3.94,3.94,0,0,0,1.28.06l.1-.17a1.7,1.7,0,0,0-.71,0,1.31,1.31,0,0,1-.83,0l1.49-.17-.4-.22a2.64,2.64,0,0,1,1,.18.88.88,0,0,0,.64,0,2.58,2.58,0,0,1,1,0l-.36-.14.68-.21a4.9,4.9,0,0,0,1.66-.1,3.3,3.3,0,0,1,.77,0,7.53,7.53,0,0,0-.95.16c-.23.07-1,0-.73.22a3.93,3.93,0,0,0,2.09-.25,1.13,1.13,0,0,0,.78.19,1.42,1.42,0,0,0,.6-.14c.39.16.31.2-.61.27a8.54,8.54,0,0,0,1.6.07c.27,0-.12.14.36.12a1,1,0,0,0-.24.11,2,2,0,0,0,.35.07c-.05-.09-.09-.13-.11-.18h.55c.06.14.35.07.65.06-.16-.14-.4-.1-.68,0,.05-.08-.1-.11-.43-.11l.55-.08c-.17-.12-.5,0-.73-.06l-.69-.08a4,4,0,0,1,1.14-.07v-.18h.86a2.34,2.34,0,0,1,1-.14c.48,0,.45.14.44.25l.88.1a.88.88,0,0,1,.23,0,2.9,2.9,0,0,0,1.84.13c.39.21.23.31-.68.42.19.16.23.16.8.14a17.14,17.14,0,0,0,1.76-.09h.64l.46-.19a1.93,1.93,0,0,0,1.23-.1h-1.13l-.4-.32a1.57,1.57,0,0,1,1,0,1.63,1.63,0,0,0,.3.07l1.15.1a5.51,5.51,0,0,1,1.15,0c0,.08-.16.2.41.2-.31,0,.1-.18-.43-.2-.07-.09-.21-.17-.72-.17a2.22,2.22,0,0,1,1.2,0,6.86,6.86,0,0,1,.95,0l.05.09H289c-.67.11-.87.27-1.4.38l2.61-.06c-.28-.09-.47-.15-.63-.22a.92.92,0,0,1-.36-.17,1.33,1.33,0,0,1,.19-.17c.25.13,1.33,0,.95.25l1.64.15.68-.09-.31-.34c.34,0,.36-.25,1.07-.12l-.54.2h0l.28.13c.06.06,0,.11,0,.18l1.63.14c-.07.09-.16.18.33.24.1,0,.19.12.14.13-.5.07.05.13.07.2l-.31.09h.27a5.24,5.24,0,0,1,1.12,0,6.86,6.86,0,0,0,1.11,0,1.15,1.15,0,0,0,.51-.14,1.52,1.52,0,0,1,1-.17,3.17,3.17,0,0,0,.87-.08c-.43-.1-1.14-.1-1.24-.3s-.37-.27.18-.41l.35.07-.74.25,1.22-.1.54.26h.59l-.18-.36.49-.08c-.3-.1-1.32,0-1.11-.22h1.29l.11.32h1.79a1.09,1.09,0,0,1,.69.11,2.88,2.88,0,0,1,.39.3c1.11,0,1.11,0,1-.2h.61a1.09,1.09,0,0,0,.05.17h2.73a1.38,1.38,0,0,0-.72-.16h-.85c-.34,0-.55-.07-.46-.17a1.89,1.89,0,0,1,1,0,1.56,1.56,0,0,0,.57,0l1.3,0h0c-.45.16-.45.16.2.28.19-.07.36-.14.57-.2a1.59,1.59,0,0,1,1,0,1,1,0,0,0,.73.15,9.42,9.42,0,0,0,1-.11l.56.07c.09-.19-.61-.15-.89-.24a5.61,5.61,0,0,1,1.29-.09,2.65,2.65,0,0,0,1.5-.14c.55.43.31.39-.54.46a1.84,1.84,0,0,0,.81,0c.35,0,.65-.22.6-.33.35,0,.36,0,.32.11h.55l-.22.18h1.76l-.12.24a1,1,0,0,0,.56-.12l.49-.11-.42-.16a4.6,4.6,0,0,1-.83,0,1.13,1.13,0,0,1-.41-.06.63.63,0,0,1,.25-.12,2.46,2.46,0,0,0,1-.2l.95.21c.6,0,.41-.28,1.17-.31.31.11.06.2-.32.26l.1.2a1.83,1.83,0,0,0,.95-.12,1.34,1.34,0,0,1,.9.15h.66l-.17-.12.85-.12-.38-.13h1l.25.13a11.57,11.57,0,0,1,1.76.07.76.76,0,0,0,.3,0,4.51,4.51,0,0,1,.9,0,2.09,2.09,0,0,0,.5,0A3.85,3.85,0,0,1,330,96c.4.05.85.12.71.28a2.83,2.83,0,0,1,1.29-.18,2.9,2.9,0,0,1,1.13.2c.14.11.4.1,1,0h-.73l-.23-.25a2.13,2.13,0,0,0,.86-.1,4.21,4.21,0,0,1,.71,0h.95l.24-.33.7.11.28-.15h0c.1.13,0,.29.75.33.09.14.42.18.91.21.1,0,.15.07.24.11h.7l0-.12c.23,0,.17.1.54,0s1,0,1.51-.06h.16c.63,0,.63,0,.88-.11a3.49,3.49,0,0,1-1.54-.18c.27-.13,1.2-.09,1.27-.3.23.08.58.11.4.2a.08.08,0,0,0,.06.07l.53.23,1.14.06.24.28h.8c-.05-.07-.13-.12-.12-.18s.15-.12.54-.12h.88l-.07.12h.58l.2.11a5.4,5.4,0,0,0,1.47-.38h-3.22c-.4,0-.33-.08,0-.18a7.48,7.48,0,0,0-1.16,0,1.06,1.06,0,0,1-.35-.09,1.26,1.26,0,0,1,.36-.1h2.21c.33,0,.4.06.25.15h-.54c-.24,0-.07.13.42.19l2.13-.28.59.31c-.18.12-.19.12.36.18.26,0,.51,0,.46.14l.4.07.38-.37.14.21h.8a3.05,3.05,0,0,1,1.24.07c-.22.07-.22.07.14.13l.26-.23a2,2,0,0,0,.76-.06,1.49,1.49,0,0,1-.86-.13l-.26.12a3.16,3.16,0,0,1-1.39-.26l-.85.19.14-.12a2.07,2.07,0,0,0-.82,0c-.46,0-.71,0-.63-.18a5.24,5.24,0,0,1,.89,0,1.1,1.1,0,0,1,1,.21l.44-.22c.54,0,.56.09.69.18h.95l.14-.12c.27,0,.55.16.5.31a1.92,1.92,0,0,0,1-.26h.83a3.11,3.11,0,0,1,.61,0c.12,0,.08.12.12.19a3.83,3.83,0,0,0-.69-.09,3.3,3.3,0,0,0-.62.15c-.27.11-.49.22-.75.35h.72L356,96h.42l.06-.09h.15L358,96a2.76,2.76,0,0,0,1-.13,1.7,1.7,0,0,1,1.29,0h.34a2.38,2.38,0,0,1,.52-.15,4.81,4.81,0,0,1,.65.08l1.91.14A2,2,0,0,1,365,96a8.93,8.93,0,0,0,1.71-.25,2.88,2.88,0,0,0,1.48.18l-.15-.07h.51l.19.18c.53,0,.64,0,.73-.13H371a8.15,8.15,0,0,0,1.21,0,2.26,2.26,0,0,1,.82,0c.09,0-.09.13-.16.2a3.38,3.38,0,0,0,.45,0,5.77,5.77,0,0,0,1-.1,2.64,2.64,0,0,1,1.31,0,8.55,8.55,0,0,1,1.6,0h.18c-.08,0-.23,0-.24-.07s.11-.07.18-.07.38,0,.38.08a1.48,1.48,0,0,0,.1.27h.82l1.17-.05.82,0a3.42,3.42,0,0,1,.64,0,3.09,3.09,0,0,0,1.38-.14H383c.08.09.08.16.2.22s.38.18-.09.31a5,5,0,0,0,.55,0l.34-.13a1,1,0,0,1,.71-.12,1.87,1.87,0,0,0,.46-.09c.13.07,0,.18.55.13,0-.08,0-.17.38-.22s.61-.09.91-.1.66,0,1,.07c.09.09-.24.2.26.25L389,96l.64.19c0-.1,0-.16.05-.21l1.39.09-.65.12h0l2.34-.08a9.55,9.55,0,0,0,1.07,0c.46,0,.63,0,.73.11a1.39,1.39,0,0,0,.28.12c.16-.2.16-.2.77-.34l.74.12-.07.15c.5,0,1,0,1.41-.08a1.12,1.12,0,0,0,.35-.12l.51-.22a1.1,1.1,0,0,0,.4.17c.3,0,.68,0,1.16,0l.08.33,1,.12-.18.27h1.23a4.25,4.25,0,0,0,1.46.19l.34.33H404l-.8-.13a4.53,4.53,0,0,1-1.22.07.45.45,0,0,0-.23,0,2.79,2.79,0,0,1-1.22,0,14.42,14.42,0,0,1-2.08.1.57.57,0,0,1-.26,0c-.15-.14-.51-.11-1-.1-.68,0-1.3,0-1.91.08s-1.13.14-1.42-.06a5.72,5.72,0,0,1-1.17,0,3.83,3.83,0,0,1-1.07,0l-.05-.12c-.64.07-1.2.16-1.79.2h-1l.73-.12-.39-.13a7.62,7.62,0,0,1-1.43.23c-.55,0-1.07-.06-1.71-.1a5.23,5.23,0,0,1-1.25.08,10.65,10.65,0,0,0-1.31.14,3.28,3.28,0,0,1,.73-.24h-1.4a3.86,3.86,0,0,1-2.49,0,9.37,9.37,0,0,1-1.91.08,1.58,1.58,0,0,1-.35.16h-.62l.36-.3c-.67,0-.91.12-1.05.27h-1.43c-.12,0-.17-.06-.26-.09.28,0,.62,0,.48-.13a1.38,1.38,0,0,0-.64,0Zm-200.14.31-.44.1c.46,0,.46,0,.42-.1l1.2,0A2.06,2.06,0,0,0,174.54,97.28Zm159.79-.8c-.31,0-.49,0-.56.11a.74.74,0,0,0,.54-.12,5,5,0,0,0,1-.09h.08l-.58-.06c-.14,0-.63,0-.51.14Zm-180.8.8a1.75,1.75,0,0,0,1.11.33l.26-.28h-1.4l-.34-.14C153.13,97.28,153.13,97.28,153.53,97.28Zm237.16-1.16-.42.19a2.51,2.51,0,0,0,.67,0h.36c.95,0,1.12,0,1.26-.32l-1,.24-.53-.12-.3.09h-.86c.26.12.59,0,.83,0Zm-245.61,1v.15l1-.11v-.33l-1-.15c-.05.07-.16.15-.1.16.32,0,.16.1.13.16a.28.28,0,0,0,0,.13h-1.62l.17-.24-.67,0-.68.3a1.31,1.31,0,0,0,.68.09,2.53,2.53,0,0,1,.55,0,3.67,3.67,0,0,0,1.51-.08Zm157.43-1h.91l-.69-.08-.25.15c-.16.12-.61,0-.88.09.45-.17.43-.2-.3-.33.33.14-.24.15-.42.24l.74.09.34.23a2.86,2.86,0,0,1,1.2,0,6.36,6.36,0,0,0,1.51,0h1.7l-.25-.21a7.45,7.45,0,0,1-.95.08,2.21,2.21,0,0,1-.57-.17l-.47.06a9.11,9.11,0,0,1-1.65-.06Zm-33.07.09.23.14,1.68-.21c.61.09.61.09.72.22-.71.06-1.51.06-2.16.18-.1,0-.2,0-.3.06l1,0h1l1.33-.21c.23.26.23.26-.09.35,1.09,0,1.09,0,1.33-.14h-.33c.08-.12.35-.18.8-.19v-.24c-.52.11-.53-.18-1.19-.06l.26.09a.33.33,0,0,1,.14.1h-.28c-.09,0-.23,0-.22-.07s-.19-.09-.44-.1-.29,0-.53,0l.6-.19a8.85,8.85,0,0,0-2.3,0,3.32,3.32,0,0,1-.63,0c-.24.09,0,.22-.54.26v-.27c-.81,0-.68.17-1,.28a2.72,2.72,0,0,1,.9,0Zm-44.42.8c.86,0,1.79,0,2.68,0,.22,0,.49,0,.47-.11a.24.24,0,0,0-.09-.11c-.1-.07,0-.13.3-.15a3.64,3.64,0,0,1,.66,0,1.33,1.33,0,0,0,.45.07,1.74,1.74,0,0,1,.45.06,1.59,1.59,0,0,0,.78.07c.32,0,.47-.07.41-.14h-.08a12,12,0,0,1-1.79-.2,3.53,3.53,0,0,0-1.55.1l-.53.24a1.09,1.09,0,0,1-.3-.07c-.13,0-.22-.12-.35-.18s-.18,0-.33-.06l-.09.2h-.69c-.67,0-1.2.07-1.09.23a1.26,1.26,0,0,0,.33.1Zm53.91-.18a4.1,4.1,0,0,0,.49.06,4.82,4.82,0,0,1,1.2,0,1,1,0,0,0,.74,0c.17-.1.09-.15-.38-.18a6.35,6.35,0,0,1-1.3-.17,1.62,1.62,0,0,0-.44,0,8.2,8.2,0,0,1-1.4-.14,3.74,3.74,0,0,0,.43-.11c.09,0,.74-.16.39-.28a3.23,3.23,0,0,0-1.16,0h-.09c.1.08.33.15.29.22a2.54,2.54,0,0,1-.51.23,8.46,8.46,0,0,0,.85.16c.31,0,.68,0,1.07.06Zm14.53-.6v0l-.41-.09c-.21,0-.47.06-.62,0a5.73,5.73,0,0,0-1.31.07c-.33.06-.64.14-1,.23-.21-.07-.43-.13-.58-.2a1.1,1.1,0,0,0-.67,0l-1.16.35h.85c.24,0,.47,0,.69-.06l.54.11.42-.08c.38,0,.14.14.59.12a4.87,4.87,0,0,1,1,.07l-.14-.19h-.75c-.13-.11.14-.13.38-.15a4.7,4.7,0,0,0,1.29-.21ZM167.37,97h-1.22a4.21,4.21,0,0,1-.71,0,5.47,5.47,0,0,0-1.76-.08c.17-.12,0-.16-.39-.17l-.17,0,.67-.12-1.1,0c-.37.18.1.32.27.45a9.5,9.5,0,0,0-1.07.15c-.28.07-.82,0-1,.13a2.72,2.72,0,0,0,1.27-.08,5.31,5.31,0,0,1,1.05-.08,4.9,4.9,0,0,0,1.43-.09,8,8,0,0,0,2,.12,2.42,2.42,0,0,0,.69.14,1.11,1.11,0,0,1,0-.23Zm-13-.09a7.1,7.1,0,0,0-1.45-.12q-.67,0-1.35,0a2.52,2.52,0,0,0-1.22,0c-.38.14,0,.27.25.39h.23a6.84,6.84,0,0,1,1.91-.17,12.32,12.32,0,0,0,1.63-.07Zm91.08.56,1,.1c.55-.09-.2-.22.17-.33a2.48,2.48,0,0,0,1.15,0l.87-.22c-.52,0-.51-.25-1.32-.24l.25.15-.5.07c-.63.08-1.17.17-1.15.37a2.3,2.3,0,0,1-.42.14Zm-33.21-.71-2.38,0s-.08.11,0,.14.13.16-.18.21A1.22,1.22,0,0,1,209,97h-.42a4.83,4.83,0,0,1,.64.22,4.49,4.49,0,0,0,1.21.19,4.81,4.81,0,0,0,.53-.07l-.69-.07.56-.06c-.24-.1-.77-.18-.2-.31.23,0,.45,0,.69,0s.44,0,.66,0c.39,0,.42-.08.31-.14Zm98.92-.29c-.64.3-.66.37-.19.48l.67-.1h-.76c.15-.16.44-.26,1-.28a.86.86,0,0,0,.32,0,3.1,3.1,0,0,1,1.05-.06c.74,0,1.26-.11,1.1-.34l-1.06.13h-.16c-.7,0-.7,0-.79.13Zm-98.1-.36a1.52,1.52,0,0,1-.28.09h-.45a2.5,2.5,0,0,0-.51.16c-.06,0,0,.11.06.17a6.14,6.14,0,0,1,1.6-.12,2.35,2.35,0,0,0,.53-.09,3.42,3.42,0,0,0,.44-.18h-.76a4.42,4.42,0,0,1-.63,0Zm-10.68,1c-.48,0-1,0-1.06.18l.65,0a5.1,5.1,0,0,1,.68-.13h.89c.06-.07.06-.13.16-.18a3.47,3.47,0,0,1,.46-.13h-1.64Zm54.44-.15c-.32-.14.12-.31-.43-.38l-1.68.25c.51.06.49.14.41.24s.08,0,.15,0l.38-.15ZM218.43,97c.08.14.44.13.71.1a3.85,3.85,0,0,1,1,0l1.23-.28h-.76v-.18h-.95l.62.16c-.31.25-1.18.13-1.76.21Zm-26.21,0a8.3,8.3,0,0,0-1.11.09,3.55,3.55,0,0,0-.72.09,2.59,2.59,0,0,1-.95.15,13.62,13.62,0,0,0,2.12.09l-.52-.13a3.84,3.84,0,0,1,1.51-.12Zm-52.07.28h.17a4.79,4.79,0,0,1,.74-.21,1.67,1.67,0,0,1,1.08.07l.27-.18h-.75l.23-.21h-.27l-.52.17h-.8a3.1,3.1,0,0,0-.6.15l.57.06Zm66.43-.39h-2l.43.07-.95.35c.95.07.95-.2,1.65-.18l-.27-.13,1,.1Zm-7.39.4c.27-.22,1.23-.11,1.67-.25l-.24-.16a4.77,4.77,0,0,1-1.41.1l-1,.21Zm18.74-.76a1.76,1.76,0,0,0-.79,0,7.72,7.72,0,0,1-1,0c.34.09.69.1.64.2s.34.11.63.07.47-.08.64-.11Zm-51.36,0-2.06-.14c-.42.11-.42.11-.42.21a3.41,3.41,0,0,0,1.35-.1l.15.27a2.65,2.65,0,0,0,1-.26Zm-31.52.66a1.47,1.47,0,0,0,.37.13,1.1,1.1,0,0,0,.82-.23l-1.19-.17-.87.29h.07Zm125.54-.72.69,0c0-.12-.09-.18-.58-.16h-.55l-1-.06a.61.61,0,0,1,0,.27h.67a1,1,0,0,0-.05-.18Zm-26.34.76-1.66-.34-.75.19h.92c.24.23.24.23,1.51.13Zm93.46-1.26-.78,0a1.25,1.25,0,0,1-.17.16c-.44,0-.86,0-.95.14a3.09,3.09,0,0,0,.43,0l.42,0a3.72,3.72,0,0,0,1.33,0Zm-102.9.66h1.91l-.16-.13c-.23-.16-.5-.18-1.11-.1l-.62.07a.61.61,0,0,1,0,.14Zm59,.43h-.72c-.56,0-.57,0-.38-.17s0-.09,0-.13a5.51,5.51,0,0,0-.57.06,1.09,1.09,0,0,0-.33.19,3.85,3.85,0,0,0,2,0Zm-16.24,0h1.25c.22.08-.06.12-.39.16a2.93,2.93,0,0,0,1.44,0c-.53,0-.84-.09-.68-.25-.63,0-.72-.07-.82-.17a1.16,1.16,0,0,0-.8.25ZM196,97.41l.88-.13c.3-.07.73.08,1-.07a13.29,13.29,0,0,0-2.36,0Zm-29.28-.71a4,4,0,0,0,.75.16,5.22,5.22,0,0,0,1.53-.19,13.36,13.36,0,0,0-2.28,0Zm54.62.23c-.66.22.37.29.46.48l.6-.21-.47-.09.32-.18Zm55.23-.77c.19-.12,1.05-.15.89-.34a7.12,7.12,0,0,0-1.46,0,3.15,3.15,0,0,1,.57.33Zm-69.48,1-.19.28h.47l1.07-.2-.95-.19Zm8.86.27c.25-.09.74-.16.48-.3l-.85,0c-.59.17-.59.17.37.31Zm94.86-1.24H310a4.73,4.73,0,0,1-.75,0c-.19,0-.63,0-.68.09.29,0,.55,0,.81,0a10,10,0,0,0,1.23,0c.12,0,.55-.08.26-.18ZM215,96.85a9,9,0,0,0-1.47,0l-.19.21c1.12,0,1.32,0,1.66-.25Zm85.66-.1a3.45,3.45,0,0,0-1.91,0,5,5,0,0,1,1.54.22Zm-37.1-.29c-.44-.09,0-.17.28-.25a1.51,1.51,0,0,0-1,.14c-.25.11-.19.14.29.16l1.39.06a1.41,1.41,0,0,0,.45,0v0ZM148.8,97a8.36,8.36,0,0,0-2.12,0l1.39.15Zm120.79.08c.35.07,1,0,1,.17l1.21.06c.38,0,.41,0,.47-.08a6.66,6.66,0,0,1-1.47-.14,3.24,3.24,0,0,0-1.16,0Zm71.24-.75h1.75L342,96Zm-184.66.74c-.09.06-.32.15.18.2l.25-.16c.22-.12.17-.15-.29-.2a2.59,2.59,0,0,0-1,.08l.22,0Zm243.1-.68c.6-.14.6-.14.13-.28l-.85.23.66.25h.12Zm-161.8.49h.07c.38.08,1,0,1.32.08a2.26,2.26,0,0,0,.44-.08s0-.06,0-.09h-.89l-.6-.07Zm-91.16.66a1,1,0,0,0,.78.19c.47,0,.34-.13.43-.22a4.09,4.09,0,0,0-1.21,0Zm45.48-.73-.83-.26c-.06.15-1,.18-.68.4a3.51,3.51,0,0,1,1.51-.18Zm-17.48-.13-.83.27h.89a3.39,3.39,0,0,1,.55.13c.26-.11.25-.11.08-.16Zm142.56.16c.9-.1.95-.13.88-.35l-1.12.07.65.13Zm-131,0v0l.48,0v.18c.34,0,.58,0,.58-.07a.91.91,0,0,0-.08-.23Zm164.39-.2.4-.1a1.62,1.62,0,0,0-1,.08l.76.17C350.79,96.84,350.21,96.76,350.3,96.7Zm-88.74.08a4.46,4.46,0,0,0-1.41-.11l.3.2Zm-88.91-.2c.2.24-.82.13-1,.3h.41l.45,0c.74,0,.75,0,.12-.25Zm11.18.2-.8.12.56.22c.37-.11.51-.22.27-.34Zm164.1-.18h-1.3l.08.17c.51,0,1.16,0,1.25-.17Zm-103.41,0c.08.09-.28.21.29.25l1-.17ZM167.64,96l-.37.21c.75,0,.9,0,1.07-.2Zm69,1c-.36,0-.61-.08-.89-.1a2.4,2.4,0,0,0-.46.05.81.81,0,0,0,.31.1,3,3,0,0,0,1,0Zm99.45-1,1-.16a5.62,5.62,0,0,0-1.42,0Zm-49.49.61-1-.19-.66.19c.42,0,.5,0,.58-.07h.2l.28.16Zm-89.68,0-.29.17,1.25,0c0-.2-.52-.18-.93-.23Zm-17.28.25a2.71,2.71,0,0,0,1.2-.12,1.58,1.58,0,0,0-1.17.11ZM322,96.05l-1-.09-.36.09a2.3,2.3,0,0,0,1.35,0Zm1.66.3c-.09-.13-.13-.15-.34-.13l-1.37.12h1.71Zm-186.06,1.1c.17.23.84.07,1.18.12a3.43,3.43,0,0,0,.56,0l-1.53-.1-.18,0ZM336,96.94a2.27,2.27,0,0,0-.26-.28c-.33,0-.49,0-.46.12S335.31,97,336,96.94Zm-83.53-.08v0a4.17,4.17,0,0,1,.5,0c.16,0,.28.07.45.08a1.18,1.18,0,0,0,.41,0s0-.07,0-.08a6.64,6.64,0,0,0-.77,0l-.58.06Zm123.22-1.1-.65.13a4.38,4.38,0,0,0,1.2.14Zm-177.24.71a4.66,4.66,0,0,0,1.29.06A1.91,1.91,0,0,0,198.42,96.47ZM159,97.1A4.07,4.07,0,0,0,160,97a4.69,4.69,0,0,0-1.4-.12l.5.09ZM325.18,96l-1.4-.13c0,.15.57.2,1.41.13Zm21.83.28a2.69,2.69,0,0,0,1.56-.13,15.62,15.62,0,0,0-1.56.13ZM188.71,97h.15a2.28,2.28,0,0,0,.51-.09c.11-.08.28-.18,0-.26s-.48.06-.34.12-.08.17-.31.23Zm-31,0c.36,0,.43-.08.31-.14a1.6,1.6,0,0,0-.43-.11,2.59,2.59,0,0,0-.4.09Zm100.91.19c1.38,0,1.38,0,1.54-.13a4.53,4.53,0,0,1-.53,0,2,2,0,0,0-1,.08Zm140.89-.7.85,0c.3-.14-.06-.16-.44-.2ZM276,96.48a1.17,1.17,0,0,0-.76-.09l-.31.08a2.5,2.5,0,0,0,.38.06,3.17,3.17,0,0,0,.69,0Zm-91.86.06c1,.11,1,.11,1.28,0a3.39,3.39,0,0,0-1.27,0Zm196.47-.19a3.44,3.44,0,0,0,1.11,0c-.92,0-.92,0-1.1,0Zm-105.42.93a1,1,0,0,0,.23-.18c0-.06-.16,0-.26-.07s-.23.07-.22.08c.37.11-.22.11-.43.18ZM398.48,96a2.73,2.73,0,0,0-1.1,0l.45.14Zm-122.16.87.33.14c.59-.1.59-.1.58-.19Zm-23.7-.44a2.56,2.56,0,0,0-1,.12,1.43,1.43,0,0,0,1-.16Zm-84,1c-.29,0-.23-.19-.8-.16l.11.21ZM386,96.25c.66,0,.66,0,1-.19h-.43c-.37,0-.17,0-.53.12ZM376.49,96l.6.09c.46-.08.34-.14,0-.2Zm-60.82.37c.35,0,.67-.07.52-.16a1.23,1.23,0,0,0-.71,0Zm-112.86,0a3.63,3.63,0,0,0-1.34.26,4.28,4.28,0,0,0,1.32-.34Zm-7.91.68h.27c0-.06.15-.14,0-.18a1.09,1.09,0,0,0-.69,0Zm-23.82-.61a2.37,2.37,0,0,0-.36.17.33.33,0,0,0,.16.07.81.81,0,0,0,.31,0c.2-.14.21-.21-.13-.27Zm18-.13H190a2.11,2.11,0,0,0,.66-.06,4,4,0,0,0-1.5,0Zm207.28.19-.75-.24-.53.15Zm-32,.48a1.93,1.93,0,0,0-1.14-.11,2.63,2.63,0,0,0,1.08.07Zm-2.46-.27a1.53,1.53,0,0,0-.9,0,2.64,2.64,0,0,0,.84,0Zm-42-.7c0,.22,0,.22.71.15ZM138.47,97.17l-.08-.26-.76.18Zm248.88-.85a.54.54,0,0,1-.06.29l.76-.15ZM146.53,97.81l-.87-.07c.15.11.15.11.87,0Zm-9.2-.73a1.85,1.85,0,0,0-1-.07c.4,0,.4.14.92,0Zm232.4-.16h.63c0-.07-.07-.14-.11-.21a1.24,1.24,0,0,0-.52.18Zm-85.8-.24c.15.16.22.17,1,.09Zm-107.59-.11h-1.07c.3.11.3.11,1.07,0Zm202.72-.39H378a1.82,1.82,0,0,0,1.06,0Zm-94.61.43c0-.16,0-.16-.58-.14-.1.06.19.08.58.1Zm48.71.2a4.36,4.36,0,0,0-1.25,0,4.82,4.82,0,0,0,1.26,0Zm10.88,0c.35-.08.56-.15.56-.27-.36,0-.78.09-.55.24Zm-97.86-.08c.58,0,.51-.08.56-.16C246.18,96.55,246.23,96.64,246.18,96.73Zm146.93-.25a3.13,3.13,0,0,0,.81-.14c-.49,0-.79,0-.83.14Zm-142.38.61.08-.21c-.68,0-.68,0-.1.21Zm-11,.07.23.21c.35-.09.35-.09-.25-.21Zm22.69.22c-.09-.12-.42-.1-.74-.07Zm80.33-1.28.95.05-.45-.15ZM243,96.73a2,2,0,0,0-.75.14c.45,0,.63-.05.73-.14Zm109.07.12c.53.07.56.07.81,0Zm29.68-.11c-.42,0-.67,0-.73.09a1.23,1.23,0,0,0,.71-.09Zm-8.49-.17-.84.1c.64,0,.64,0,.83-.1Zm-217.52-.09a1.31,1.31,0,0,0-.68,0s0,.06.09.07a.81.81,0,0,0,.57-.07Zm-6.93.06a1.29,1.29,0,0,0,.8-.11c-.47-.05-.68,0-.84.11Zm-4.5.4c-.09-.09,0-.17-.42-.19-.24.11,0,.14.4.19Zm48.93.08.06.07.8,0a1.55,1.55,0,0,0-.88,0Zm-13.62-.27-.43-.15c-.1.19-.1.19.41.15Zm152.49.15.59.13c.19-.15,0-.16-.6-.13Zm-157.45-.28c.07-.15.07-.15-.55-.1Zm84.21.14-.1.08a4.12,4.12,0,0,0,.86,0ZM157.7,96.57v-.06h-.55v.07Zm228.37-.76.13,0a2.76,2.76,0,0,0,.4-.06l-.2-.1ZM178.15,97.1c.47,0,.55,0,.45-.13Zm134.07,0c.27-.14.27-.14-.08-.19H312Zm-70.75.17h.82a1.08,1.08,0,0,0-.83,0Zm-79.81-.28c-.53,0-.53,0-.44.13s.5,0,.42-.13Zm192.22-.21a.81.81,0,0,0,.62.14l.15-.05Zm-198.68.59c0-.07-.08-.12-.1-.18-.49.14-.49.14,0,.14ZM351,96.44c.41.11.41.11.68,0ZM150,97.44l.19-.07-.64-.07h-.06Zm159.17-.78c-.5,0-.5,0-.63.1Zm-2.25-.32-.09.06h.64Zm73.47,0-.07-.07-.54.06a.18.18,0,0,0,.07,0Zm.28-.29.28-.07a.3.3,0,0,1-.18-.06,1.11,1.11,0,0,0-.26.07s0,.05,0,.07Zm3.9.43c.33-.1.1-.13-.13-.16h-.2Zm-.38-.22H385a1.23,1.23,0,0,0-1,.06Zm-214,.23h.19l-.31-.15h-.16a.1.1,0,0,0,.07.09c.08,0,0,0,.1.07Zm85.2,0c.35,0,.52-.08.24-.14h-.28s-.09.09-.08.15Zm-10.25.66,0,.06h.44v0Zm-81.92.28c-.62-.06-.62-.06-.63.05Zm176.92-1.06c.31,0,.57,0,.53-.12C340.33,96.23,340,96.2,340.05,96.32Zm-116.86.17.2.05.3-.09a.43.43,0,0,0-.16,0Zm-4.71.79c.56,0,.73,0,.7-.14Zm-60.47,0a1.84,1.84,0,0,0-1,0Zm190.92-1.13c-.17.11-.08.15.33.15Zm-14.32-.4a1.24,1.24,0,0,0,.85,0Zm32.32,1,.63-.06c-.38-.08-.58,0-.65.08Zm-28.08-.23-.53-.12c-.05.14.1.17.52.14Zm30.87,0v0h-.32l-.25,0h.57Zm-114.31,0h-.76a1,1,0,0,0,.74,0Zm13.83.88-.18-.05-.33.11h.14Zm95.26-1.52-.14,0-.4.06h.54ZM197.92,97l.05,0h-.49l0,0Zm-38.84-.5c.34,0,.54,0,.43-.14Zm143.11.22.67-.08c-.32,0-.54,0-.69.11Zm-87.53-.19c-.25.08-.32.13,0,.15H215Zm-33.29.13.23-.07-.24,0a.61.61,0,0,0-.14.07Zm183.26-.56h.14l.39-.08h-.1Zm-44.28.47h.08l-.5-.06h-.07Zm-33.44-.25h0ZM243.69,97l.24-.08h-.18l-.26.07Zm-42.4.4-.1,0,.4.06.11,0ZM356,96.75h-.43c-.09,0-.2,0-.2,0s.09,0,.17,0A2.31,2.31,0,0,0,356,96.75Zm-2-.64.09,0h.23c.19,0,.26-.09.12-.09l-.41,0Zm-199.73.21h-.4l.06.07Zm64.21,0h-.11l.28.09h.14Zm-69,.49h.07l.48-.06h-.06Zm192.67,0a.74.74,0,0,0-.65,0Zm-151.4-.66h.15l.3-.08h-.09Zm58.21.83h.14l.29-.08h-.1Zm-104.32-.3h-.18v.12h.17Zm105,.15-.17-.06-.3,0a.43.43,0,0,0,.16,0Z"/><path class="cls-4" d="M295.9,96.1c-.18-.1-1,0-.95-.17l.76-.14c.13,0,.58,0,.67.11a2.18,2.18,0,0,0,.51,0l.5-.11c.77.15.77.15.37.29l.31.1.44.08-.78.07a2.82,2.82,0,0,0-1,.13,1.22,1.22,0,0,1-.8,0C295.63,96.32,295.63,96.25,295.9,96.1Zm1.43.06a3.09,3.09,0,0,0-1,.06c.55.1.67.1,1-.06Z"/><path class="cls-4" d="M329.86,95.51l1.35-.07-.21.11.86.09.95-.32a2.44,2.44,0,0,1,1,.08c.24.07,0,.13-.25.2-.53,0-1.1-.06-1.31.14a3,3,0,0,1-.42.05A4.43,4.43,0,0,1,329.86,95.51Z"/><path class="cls-4" d="M283.62,95.44l-.32,0h1.48l-.13.16-.29-.1c-.5.05-.12.13-.14.22l-.75-.07a10.65,10.65,0,0,1-1.1.21h-1.25L281,96h-1.31c.45-.07.77-.15.74-.32l1.69.1Z"/><path class="cls-4" d="M339.85,95.25c.1.12-.23.24.36.25-.06.15-.57.13-.83.2s-.29-.24-.95-.2l-.07.24-.78,0,.57-.12s0,0,0-.07c0-.24,0-.25,1-.22C339.37,95.28,339.61,95.27,339.85,95.25Z"/><path class="cls-4" d="M282,95.9V96L283.2,96l-.38.09-.36.07.39.16a1.16,1.16,0,0,1-.82,0,5.87,5.87,0,0,0-.72-.08l.46-.28Z"/><path class="cls-4" d="M217.1,95.84a1.92,1.92,0,0,0-.68.07,3.21,3.21,0,0,1-1.74,0A7.86,7.86,0,0,1,217.1,95.84Z"/><path class="cls-4" d="M253.94,97.48l-.55.14-1-.07a.42.42,0,0,0-.06-.23C252.87,97.47,253.58,97.28,253.94,97.48Z"/><path class="cls-4" d="M264.42,95.85l.29-.15c.42,0,1.17.07,1.13.15s-.28.11-.55.1Z"/><path class="cls-4" d="M253.38,96.32l-.42-.27.54.07.64-.23.49,0-1.27.37Z"/><path class="cls-4" d="M328.07,95.37a12.42,12.42,0,0,1,1.65-.1l.23.16C329.29,95.37,328.68,95.41,328.07,95.37Z"/><path class="cls-4" d="M143.88,97.81l-1.37.09c-.2-.1-.12-.15.16-.17a5.47,5.47,0,0,1,.81,0,2.74,2.74,0,0,1,.39.09Z"/><path class="cls-4" d="M257.24,96.16c.05-.12.19-.23.58-.3l.62.17h0a3.29,3.29,0,0,0-.53.1,1.94,1.94,0,0,1-.68,0Z"/><path class="cls-4" d="M405.7,97a2.49,2.49,0,0,1-1.37-.24,4.69,4.69,0,0,1,.53,0Z"/><path class="cls-4" d="M292.73,95.64a4.91,4.91,0,0,0,.67-.08,5.25,5.25,0,0,1,1.19-.07,1.71,1.71,0,0,1-.95.16h-.91Z"/><path class="cls-4" d="M402.41,96.42a1.65,1.65,0,0,1,1.23.17A5.07,5.07,0,0,1,402.41,96.42Z"/><path class="cls-4" d="M234.46,95.93a5.67,5.67,0,0,1,1.54,0l-.34.1Z"/><path class="cls-4" d="M179.73,97.28l.82-.09.25.24h-.16l-.87-.12Z"/><path class="cls-4" d="M211.12,95.81c.66-.18.95.11,1.48,0A3.36,3.36,0,0,1,211.12,95.81Z"/><path class="cls-4" d="M275.8,97.61a5.46,5.46,0,0,1-1.71.09.92.92,0,0,1,.67-.07,4.51,4.51,0,0,0,.52,0Z"/><path class="cls-4" d="M334.73,95.62c-.52-.18.4-.15.23-.29l-.29-.1h.21l.63.1Z"/><path class="cls-4" d="M260.76,97.89h-1.65c.22-.13.37-.14,1.63-.1A.16.16,0,0,0,260.76,97.89Z"/><path class="cls-4" d="M293.33,97.53,292,97.41A2,2,0,0,1,293.33,97.53Z"/><path class="cls-4" d="M237.47,96.17l-.7-.13,1-.08C238.2,96.08,237.74,96.1,237.47,96.17Z"/><path class="cls-4" d="M288.75,97.6h.95l.08.2-1-.13S288.74,97.62,288.75,97.6Z"/><path class="cls-4" d="M210.74,96H210a1.14,1.14,0,0,1-.26-.09,2.23,2.23,0,0,1,.36-.05C210.44,95.82,210.67,95.85,210.74,96Z"/><path class="cls-4" d="M328.24,97.1l-.62.15-.52-.09A3.36,3.36,0,0,1,328.24,97.1Z"/><path class="cls-4" d="M309.93,97.46c-.08-.15.56-.16.79-.25C310.7,97.34,310.18,97.38,309.93,97.46Z"/><path class="cls-4" d="M258.79,95.84l1-.2C259.93,95.79,259.81,95.82,258.79,95.84Z"/><path class="cls-4" d="M249.79,97.71c-.44,0-.38-.1-.31-.17C250.18,97.55,250.19,97.55,249.79,97.71Z"/><path class="cls-4" d="M294.81,95.47c.07-.12.07-.12.81-.11A1.72,1.72,0,0,1,294.81,95.47Z"/><path class="cls-4" d="M221.54,95.82a2.29,2.29,0,0,1,1.27,0Z"/><path class="cls-4" d="M323.13,95.58l-.88-.09a3.77,3.77,0,0,1,.95-.06Z"/><path class="cls-4" d="M340.42,95.22c.71,0,.71,0,.69.09Z"/><path class="cls-4" d="M174.73,96v-.18h.71l-.73.18Z"/><path class="cls-4" d="M319.29,97.28c-.71-.07-.71-.07-.76-.12C319.25,97.15,319.25,97.15,319.29,97.28Z"/><path class="cls-4" d="M143.87,97.82l.37-.09.49.18a1.88,1.88,0,0,1-.85-.1Z"/><path class="cls-4" d="M278.89,97.75l-.6.12c-.08-.17-.08-.17.42-.17Z"/><path class="cls-4" d="M384.07,95.77h-.56v-.09h.54A.64.64,0,0,1,384.07,95.77Z"/><path class="cls-4" d="M275.85,97.88,275,98C275.15,97.82,275.16,97.82,275.85,97.88Z"/><path class="cls-4" d="M334.29,97.28a1.76,1.76,0,0,1,.91,0h-.91Z"/><path class="cls-4" d="M251.61,95.86a1.94,1.94,0,0,1,.83,0A1.94,1.94,0,0,1,251.61,95.86Z"/><path class="cls-4" d="M274.09,97.91a1.94,1.94,0,0,1-.83,0A2.32,2.32,0,0,1,274.09,97.91Z"/><path class="cls-4" d="M357.38,97.11h.87a1.92,1.92,0,0,1-.89.06A.11.11,0,0,0,357.38,97.11Z"/><path class="cls-4" d="M358.71,95.28h.81A1.25,1.25,0,0,1,358.71,95.28Z"/><path class="cls-4" d="M322.86,96.89c-.2.12-.2.12-1,.1Z"/><path class="cls-4" d="M402.84,96.19l-.58-.07.3-.05C402.93,96.05,403,96.09,402.84,96.19Z"/><path class="cls-4" d="M309.43,95.82l.21-.21c.38.15.38.15-.23.21Z"/><path class="cls-4" d="M290.31,97.35l-.79.07A1.34,1.34,0,0,1,290.31,97.35Z"/><path class="cls-4" d="M306.65,95.48h-.73A1.14,1.14,0,0,1,306.65,95.48Z"/><path class="cls-4" d="M180.35,96l.37-.08C180.79,96,180.79,96,180.35,96Z"/><path class="cls-4" d="M343.4,95.52c0-.07-.08-.1-.07-.12s.06,0,.12-.09C343.81,95.37,343.72,95.44,343.4,95.52Z"/><path class="cls-4" d="M227.91,95.83l-.42,0a1,1,0,0,1-.38,0,.6.6,0,0,1,.19-.06Z"/><path class="cls-4" d="M268.15,95.62l-.24.19-.28-.17Z"/><path class="cls-4" d="M263.55,97.75h.69c-.08,0-.11.06-.15.06h-.54Z"/><path class="cls-4" d="M262.71,95.84l-.31-.13h.21C262.86,95.71,262.94,95.76,262.71,95.84Z"/><path class="cls-4" d="M305,95.62c.52.1.52.11.07.18Z"/><path class="cls-4" d="M242.81,96.07h.58s-.06.06-.11.07C243,96.19,242.88,96.18,242.81,96.07Z"/><path class="cls-4" d="M202.49,97.6c-.11.12-.21.17-.65.1Z"/><path class="cls-4" d="M327,95.44h.75A1.08,1.08,0,0,1,327,95.44Z"/><path class="cls-4" d="M322.07,95.41a.52.52,0,0,0-.06.16C321.64,95.52,321.64,95.52,322.07,95.41Z"/><path class="cls-4" d="M336.72,95.37c.24,0,.54-.11.79,0Z"/><path class="cls-4" d="M344.24,95.58a1,1,0,0,1-.49.06.65.65,0,0,1,.2,0A1,1,0,0,1,344.24,95.58Z"/><path class="cls-4" d="M200.59,96h0Z"/><path class="cls-4" d="M199.46,96h0Z"/><path class="cls-4" d="M330.08,97.32c-.08,0-.16,0-.14,0a.51.51,0,0,1,.17-.07c.06,0,.16,0,.16.06S330.17,97.28,330.08,97.32Z"/><path class="cls-4" d="M331.9,97.61l-.28.06c-.05,0-.13,0-.15-.07s.11,0,.15,0Z"/><path class="cls-4" d="M277,97.77a5.41,5.41,0,0,1-.58-.07c-.09,0,.2,0,.33,0Z"/><path class="cls-4" d="M380.72,95.59l.46-.06h.09l-.46.06Z"/><path class="cls-4" d="M149,97.82l.39-.07h.11l-.31.1Z"/><path class="cls-4" d="M182.86,96.1l-.23-.06H183Z"/><path class="cls-4" d="M318,95.62h-.35v-.06H318Z"/><path class="cls-4" d="M279.11,95.49l.16,0h.15Z"/><path class="cls-4" d="M358.11,95.37h0Z"/><path class="cls-4" d="M298.37,95.65a1.5,1.5,0,0,1-.29.06.49.49,0,0,1-.17-.06h.46Z"/><path class="cls-4" d="M312.44,95.66l-.36.1H312l.32-.11Z"/><path class="cls-5" d="M146.35,30.41h-8.42v8.42h9V42h-9v9.56h9l.78-3.91h2.55v7H130.49V52.31l3.32-.79V30.41l-3.32-.78V27.47l7.44-.19h11.94V34h-2.55Z"/><path class="cls-5" d="M154.41,48.39h2.74l.43,3.36a5.27,5.27,0,0,0,1.24.26,13.21,13.21,0,0,0,1.66.1,7,7,0,0,0,3.7-.77A2.58,2.58,0,0,0,165.34,49a2,2,0,0,0-.81-1.68,7,7,0,0,0-2-1.06c-.81-.29-1.69-.57-2.65-.86a12.46,12.46,0,0,1-2.63-1.12,6.28,6.28,0,0,1-2-1.77,4.72,4.72,0,0,1-.8-2.87,5.37,5.37,0,0,1,2-4.48,8.46,8.46,0,0,1,5.21-1.62,22.54,22.54,0,0,1,2.8.21,16.11,16.11,0,0,1,2.91.65l1,.31L168.12,40h-2.54L165,37a8.2,8.2,0,0,0-1.21-.29,9.44,9.44,0,0,0-1.91-.18,6.58,6.58,0,0,0-1.33.12,3.73,3.73,0,0,0-1.12.39,2.19,2.19,0,0,0-.78.79,2.51,2.51,0,0,0-.29,1.23,2.12,2.12,0,0,0,.8,1.78,8,8,0,0,0,2.06,1.09c.8.31,1.68.61,2.64.89a13.34,13.34,0,0,1,2.64,1.12,6.53,6.53,0,0,1,2,1.75,4.44,4.44,0,0,1,.8,2.78,5.7,5.7,0,0,1-.71,2.86,6,6,0,0,1-1.91,2.1,8.54,8.54,0,0,1-2.78,1.26,14.21,14.21,0,0,1-3.38.41A9.52,9.52,0,0,1,159.1,55c-.49-.07-1-.09-1.43-.15s-.95-.14-1.31-.21a8.87,8.87,0,0,1-1-.24l-.91-.24Z"/><path class="cls-5" d="M189.26,40.36h-2.55L186.13,37a13.92,13.92,0,0,0-3.52-.39,5.43,5.43,0,0,0-4.35,1.8c-1,1.2-1.53,3.06-1.53,5.6a9.23,9.23,0,0,0,1.61,5.83,5.32,5.32,0,0,0,4.46,2,8.12,8.12,0,0,0,1.63-.16,10,10,0,0,0,1.52-.41,9.5,9.5,0,0,0,1.32-.56,4.61,4.61,0,0,0,.95-.63l.67-.59,1.37,2.35-.43.35a10.21,10.21,0,0,1-1.29.89,14,14,0,0,1-1.83.89,15.38,15.38,0,0,1-2.11.71,8.88,8.88,0,0,1-2.18.3q-4.77,0-7.27-2.87a11.3,11.3,0,0,1-2.51-7.76,13.53,13.53,0,0,1,.72-4.46,10.15,10.15,0,0,1,2.06-3.44,9.52,9.52,0,0,1,3.21-2.23,10.56,10.56,0,0,1,4.19-.8,12.32,12.32,0,0,1,1.61.11c.54.08,1.08.18,1.6.28a14.67,14.67,0,0,1,1.45.37c.45.15.82.28,1.13.41l.86.4Z"/><path class="cls-5" d="M212.17,33.9V51.52l3.32.79v2.15l-6.45.2-.4-2.75a12.92,12.92,0,0,1-3.71,2.29,9.77,9.77,0,0,1-3.53.85,5.84,5.84,0,0,1-4.7-1.85A7.71,7.71,0,0,1,195.14,48V37l-3.34-.78V34.09l7.25-.19V47.61a4.7,4.7,0,0,0,.83,3.06,3,3,0,0,0,2.5,1,6.18,6.18,0,0,0,3.09-.79,8,8,0,0,0,2.08-1.53l.7-.78V37l-3.32-.78V34.09Z"/><path class="cls-5" d="M235.68,44.74l-13.52.09A8,8,0,0,0,223.71,50a5,5,0,0,0,4.13,1.91,9.83,9.83,0,0,0,1.72-.17,12.84,12.84,0,0,0,3-.91,9,9,0,0,0,1-.58l.79-.5,1.37,2a16.14,16.14,0,0,1-2.44,1.66,14.77,14.77,0,0,1-2.63,1.1,10.38,10.38,0,0,1-3.27.5,8.77,8.77,0,0,1-7-2.81,11.37,11.37,0,0,1-2.39-7.64,13.27,13.27,0,0,1,.71-4.46,10.51,10.51,0,0,1,2-3.51,8.88,8.88,0,0,1,3-2.29,9.22,9.22,0,0,1,3.87-.82q8.24,0,8.23,9.2ZM222.3,41.88h9.4a6.72,6.72,0,0,0-1-3.88,3.71,3.71,0,0,0-3.29-1.48,4.47,4.47,0,0,0-3.56,1.5,6.44,6.44,0,0,0-1.53,3.9Z"/><path class="cls-5" d="M245.53,24.5v27l3.92,1v2.16H238.21V52.48l3.33-1V27.64l-3.33-.78V24.68Z"/><path class="cls-5" d="M252.58,35.07a22.63,22.63,0,0,1,7.75-1.56,8.67,8.67,0,0,1,5.29,1.38c1.22,1,1.84,2.5,1.84,4.68v12l3.13.79v2.15l-6.07.2-.82-2.75q-3.13,3.14-6.19,3.14a6.28,6.28,0,0,1-4.58-1.53,5.89,5.89,0,0,1-1.52-4.35q0-6.08,9-6.07h3.13V40c0-2.35-1.23-3.53-3.72-3.53a11.7,11.7,0,0,0-3.48.43l-.47.16L255.33,40h-2.56Zm11,10.63H260.8a8.22,8.22,0,0,0-4.17.76,2.6,2.6,0,0,0-1.23,2.37,3.3,3.3,0,0,0,.73,2.32,2.61,2.61,0,0,0,2.09.81,3.92,3.92,0,0,0,1.35-.24,7.18,7.18,0,0,0,1.33-.59,8.22,8.22,0,0,0,1.16-.75,8.5,8.5,0,0,0,.82-.77l.66-.78Z"/><path class="cls-5" d="M280.12,54.66H278.4l-5-32.48h1.41l4.14,27,.59,4.09,2.17-3.82L298.53,22.2h1.57Z"/><path class="cls-5" d="M298.93,54.66h-1.38L303.29,30h1.37ZM304,23.93a1.43,1.43,0,0,1,1.26-1.57h.22a1.26,1.26,0,0,1,1.33,1.19v.09a1.46,1.46,0,0,1-1.34,1.57h-.19A1.22,1.22,0,0,1,304,24.06Z"/><path class="cls-5" d="M324.78,30.23l-.54,1.23a4.61,4.61,0,0,0-2.76-.68c-4.82,0-8.17,4.07-9.35,9.35l-3.4,14.53h-1.41L313.05,30h1.23L313.2,35.3c1.83-3.4,4.58-5.73,8.6-5.73A6,6,0,0,1,324.78,30.23Z"/><path class="cls-5" d="M328.43,47.76c-.89,3.93.48,6.15,4.13,6.15a6.69,6.69,0,0,0,4.14-1.33l.34,1.14a8.14,8.14,0,0,1-4.68,1.42c-4.43,0-6.3-2.7-5.27-7.48l3.82-16.44h-5.12l.3-1.19h5.11l1.43-6.2,1.47-.45-1.52,6.69h8.12l-.34,1.18h-8.07Z"/><path class="cls-5" d="M366.39,30l-5.73,24.63h-1.28l1.17-5.37a10.36,10.36,0,0,1-9.7,5.85c-6.19,0-9.45-3.88-7.88-10.73l3.36-14.33h1.37l-3.29,14.43c-1.48,6.2,1.32,9.45,6.68,9.45,5.73,0,9.31-4.19,10.51-9.4l3.34-14.48Z"/><path class="cls-5" d="M370.12,44c0-8.08,4.93-14.48,12.61-14.48,5.73,0,9.16,3.64,9.3,8.92L393.94,30h1.39L389.6,54.66h-1.28l1.33-5.92c-1.73,3.64-4.88,6.4-9.56,6.4C374,55.14,370.12,50.52,370.12,44Zm21.18-4.14c0-6.4-4-9.16-8.6-9.16-6.69,0-11.22,5.57-11.22,13.37,0,6.26,3.82,9.85,9,9.85C387,53.91,391.3,46.78,391.3,39.88Z"/><path class="cls-5" d="M399.18,48.56l6.89-29.83h1.38l-6.94,30c-.8,3.45,0,5.17,2.65,5.17a7.18,7.18,0,0,0,2.56-.39l-.29,1.13a6.08,6.08,0,0,1-2.66.49C399.37,55.1,398.24,52.73,399.18,48.56Z"/><path class="cls-6" d="M42.29,48.06a14.86,14.86,0,1,1-20.13-7.18l-4.92-6.59,11.37,5A14.83,14.83,0,0,1,42.29,48.06Z"/><path class="cls-7" d="M91.92,130.4c-.93-6.88-7.61-11.65-14.9-10.65S64.56,127.13,65.56,134s6.1,11.49,13.2,10.77l-2.2,7.47,9-9.37C89.56,139.3,92.62,135.49,91.92,130.4Z"/><path class="cls-7" d="M63.21,1.19A7.47,7.47,0,1,0,73.67,3.67l3.89-1.43-6.18-1A7.47,7.47,0,0,0,63.21,1.19Z"/><path class="cls-7" d="M.5,24.17a5.27,5.27,0,1,1,7.17,2.46L9.45,29,5.39,27.21A5.28,5.28,0,0,1,.5,24.17Z"/><path class="cls-7" d="M101.88,68.84a7.43,7.43,0,1,0-9.28,5.32l-1.84,3.68,5.16-3.49A7.42,7.42,0,0,0,101.88,68.84Z"/><path class="cls-7" d="M44,76.85A13.41,13.41,0,1,0,30.06,90.22l-1.61,7.27,7.49-8.36A13.41,13.41,0,0,0,44,76.85Z"/><path class="cls-7" d="M43.56,17.07A10.84,10.84,0,1,1,54.78,27.89l1.3,5.86L50,27A10.84,10.84,0,0,1,43.56,17.07Z"/><path class="cls-7" d="M70.56,89.67a12.84,12.84,0,1,0-13.33,12.82l-1.53,6.94,7.16-8A12.84,12.84,0,0,0,70.56,89.67Z"/><g id="_8FIIwQ" data-name=" 8FIIwQ" class="cls-8"><path class="cls-9" d="M60.37,51.49A11.83,11.83,0,0,1,58.09,45a1.92,1.92,0,0,1,.68-1.76,12.23,12.23,0,0,0,3.93-7.4,11.82,11.82,0,0,0-3.86-10.39,19.42,19.42,0,0,0-12.63-5.3,20.62,20.62,0,0,0-14.37,4.06,12.67,12.67,0,0,0-5.28,8.24c-.71,4.48,1,8.14,4.22,11.09a19.51,19.51,0,0,0,13.64,5c2,0,3.95-.5,5.93-.69a2.76,2.76,0,0,1,1.64.34c2.36,1.56,4.78,3,7.68,3.27Z"/></g><g id="_8FIIwQ-2" data-name=" 8FIIwQ-2" class="cls-8"><path class="cls-9" d="M52.66,125.59c-2.24-2.82-2.92-6-3.28-9.27a2.71,2.71,0,0,1,1-2.54A17.56,17.56,0,0,0,56,103.14c.79-6-1.35-10.89-5.54-15-5-4.9-11.24-7.14-18.16-7.63a29.68,29.68,0,0,0-20.67,5.84A18.24,18.24,0,0,0,4.13,98.27c-1,6.44,1.39,11.7,6.07,15.94a28.13,28.13,0,0,0,19.61,7.14c2.84,0,5.67-.72,8.52-1a4,4,0,0,1,2.36.48c3.4,2.25,6.87,4.28,11,4.71A3.81,3.81,0,0,0,52.66,125.59Z"/></g><g id="_8FIIwQ-3" data-name=" 8FIIwQ-3" class="cls-8"><path class="cls-9" d="M75.93,85.85a14.71,14.71,0,0,1-2.83-8,2.35,2.35,0,0,1,.84-2.19,15.14,15.14,0,0,0,4.89-9.19c.67-5.15-1.17-9.41-4.79-12.93-4.35-4.23-9.71-6.17-15.69-6.59a25.68,25.68,0,0,0-17.86,5A15.76,15.76,0,0,0,34,62.29c-.88,5.57,1.2,10.11,5.25,13.78a24.21,24.21,0,0,0,16.94,6.16c2.46,0,4.9-.62,7.36-.85a3.4,3.4,0,0,1,2,.41c2.94,2,5.94,3.7,9.54,4.07Z"/></g><g id="_8FIIwQ-4" data-name=" 8FIIwQ-4" class="cls-8"><path class="cls-9" d="M52.41,130.89A14.77,14.77,0,0,0,55,123.18a2.36,2.36,0,0,0-.76-2.11,14.9,14.9,0,0,1-4.4-8.84A14.63,14.63,0,0,1,54.12,99.8a21,21,0,0,1,14.13-6.31,22,22,0,0,1,16.09,4.85,15.36,15.36,0,0,1,5.87,9.9,14.67,14.67,0,0,1-4.73,13.25,21,21,0,0,1-15.27,5.93,65.57,65.57,0,0,1-6.63-.82,2.79,2.79,0,0,0-1.83.4c-2.65,1.87-5.36,3.55-8.6,3.91C53,130.9,52.78,130.89,52.41,130.89Z"/></g><g id="_8FIIwQ-5" data-name=" 8FIIwQ-5" class="cls-8"><path class="cls-9" d="M88.45,74a7.34,7.34,0,0,1-1.43-4,1.18,1.18,0,0,1,.42-1.11,7.66,7.66,0,0,0,2.47-4.64,7.43,7.43,0,0,0-2.42-6.54,12.3,12.3,0,0,0-7.93-3.33,13,13,0,0,0-9,2.55,8,8,0,0,0-3.29,5.21,7.43,7.43,0,0,0,2.65,7,12.19,12.19,0,0,0,8.56,3.11c1.24,0,2.48-.31,3.72-.43a1.76,1.76,0,0,1,1,.21A10.81,10.81,0,0,0,88,74Z"/></g><g id="djYGr2" class="cls-8"><path class="cls-9" d="M105.32,105.49l-1.5-2.64c-.5-.87-.92-1.73-1.4-2.58a.57.57,0,0,1,0-.79l.09-.06a18,18,0,0,0,3.75-4.26,15,15,0,0,0,.17-15.89,19.38,19.38,0,0,0-5.24-5.55,21.85,21.85,0,0,0-8.77-3.66,22.76,22.76,0,0,0-6.89-.3,23.85,23.85,0,0,0-7.24,1.91,20.88,20.88,0,0,0-5,3.07,17.21,17.21,0,0,0-4.73,6.13,14.73,14.73,0,0,0-1.13,8.61,16.32,16.32,0,0,0,5.84,9.9,21.68,21.68,0,0,0,9.08,4.47,24.28,24.28,0,0,0,7.16.64,36.18,36.18,0,0,0,3.71-.58c.56-.1,1.1-.31,1.66-.37a3.05,3.05,0,0,1,1.08.17c1.41.4,2.8.92,4.23,1.22a17.31,17.31,0,0,0,4.64.63Z"/></g><path class="cls-7" d="M42.29,48.06a14.86,14.86,0,1,1-20.13-7.18l-4.92-6.59,11.37,5A14.83,14.83,0,0,1,42.29,48.06Z"/><path class="cls-10" d="M91.92,130.4c-.93-6.88-7.61-11.65-14.9-10.65S64.56,127.13,65.56,134s6.1,11.49,13.2,10.77l-2.2,7.47,9-9.37C89.56,139.3,92.62,135.49,91.92,130.4Z"/><path class="cls-11" d="M63.21,1.19A7.47,7.47,0,1,0,73.67,3.67l3.89-1.43-6.18-1A7.47,7.47,0,0,0,63.21,1.19Z"/><path class="cls-10" d="M.5,24.17a5.27,5.27,0,1,1,7.17,2.46L9.45,29,5.39,27.21A5.28,5.28,0,0,1,.5,24.17Z"/><path class="cls-12" d="M101.88,68.84a7.43,7.43,0,1,0-9.28,5.32l-1.84,3.68,5.16-3.49A7.42,7.42,0,0,0,101.88,68.84Z"/><path class="cls-12" d="M44,76.85A13.41,13.41,0,1,0,30.06,90.22l-1.61,7.27,7.49-8.36A13.41,13.41,0,0,0,44,76.85Z"/><path class="cls-13" d="M43.56,17.07A10.84,10.84,0,1,1,54.78,27.89l1.3,5.86L50,27A10.84,10.84,0,0,1,43.56,17.07Z"/><path class="cls-10" d="M70.56,89.67a12.84,12.84,0,1,0-13.33,12.82l-1.53,6.94,7.16-8A12.84,12.84,0,0,0,70.56,89.67Z"/><g id="_8FIIwQ-6" data-name=" 8FIIwQ-6" class="cls-8"><path class="cls-14" d="M60.37,51.49A11.83,11.83,0,0,1,58.09,45a1.92,1.92,0,0,1,.68-1.76,12.23,12.23,0,0,0,3.93-7.4,11.82,11.82,0,0,0-3.86-10.39,19.42,19.42,0,0,0-12.63-5.3,20.62,20.62,0,0,0-14.37,4.06,12.67,12.67,0,0,0-5.28,8.24c-.71,4.48,1,8.14,4.22,11.09a19.51,19.51,0,0,0,13.64,5c2,0,3.95-.5,5.93-.69a2.76,2.76,0,0,1,1.64.34c2.36,1.56,4.78,3,7.68,3.27Z"/></g><g id="_8FIIwQ-7" data-name=" 8FIIwQ-7" class="cls-8"><path class="cls-15" d="M52.66,125.59c-2.24-2.82-2.92-6-3.28-9.27a2.71,2.71,0,0,1,1-2.54A17.56,17.56,0,0,0,56,103.14c.79-6-1.35-10.89-5.54-15-5-4.9-11.24-7.14-18.16-7.63a29.68,29.68,0,0,0-20.67,5.84A18.24,18.24,0,0,0,4.13,98.27c-1,6.44,1.39,11.7,6.07,15.94a28.13,28.13,0,0,0,19.61,7.14c2.84,0,5.67-.72,8.52-1a4,4,0,0,1,2.36.48c3.4,2.25,6.87,4.28,11,4.71A3.81,3.81,0,0,0,52.66,125.59Z"/></g><g id="_8FIIwQ-8" data-name=" 8FIIwQ-8" class="cls-8"><path class="cls-16" d="M75.93,85.85a14.71,14.71,0,0,1-2.83-8,2.35,2.35,0,0,1,.84-2.19,15.14,15.14,0,0,0,4.89-9.19c.67-5.15-1.17-9.41-4.79-12.93-4.35-4.23-9.71-6.17-15.69-6.59a25.68,25.68,0,0,0-17.86,5A15.76,15.76,0,0,0,34,62.29c-.88,5.57,1.2,10.11,5.25,13.78a24.21,24.21,0,0,0,16.94,6.16c2.46,0,4.9-.62,7.36-.85a3.4,3.4,0,0,1,2,.41c2.94,2,5.94,3.7,9.54,4.07Z"/></g><g id="_8FIIwQ-9" data-name=" 8FIIwQ-9" class="cls-8"><path class="cls-14" d="M52.41,130.89A14.77,14.77,0,0,0,55,123.18a2.36,2.36,0,0,0-.76-2.11,14.9,14.9,0,0,1-4.4-8.84A14.63,14.63,0,0,1,54.12,99.8a21,21,0,0,1,14.13-6.31,22,22,0,0,1,16.09,4.85,15.36,15.36,0,0,1,5.87,9.9,14.67,14.67,0,0,1-4.73,13.25,21,21,0,0,1-15.27,5.93,65.57,65.57,0,0,1-6.63-.82,2.79,2.79,0,0,0-1.83.4c-2.65,1.87-5.36,3.55-8.6,3.91C53,130.9,52.78,130.89,52.41,130.89Z"/></g><g id="_8FIIwQ-10" data-name=" 8FIIwQ-10" class="cls-8"><path class="cls-17" d="M88.45,74a7.34,7.34,0,0,1-1.43-4,1.18,1.18,0,0,1,.42-1.11,7.66,7.66,0,0,0,2.47-4.64,7.43,7.43,0,0,0-2.42-6.54,12.3,12.3,0,0,0-7.93-3.33,13,13,0,0,0-9,2.55,8,8,0,0,0-3.29,5.21,7.43,7.43,0,0,0,2.65,7,12.19,12.19,0,0,0,8.56,3.11c1.24,0,2.48-.31,3.72-.43a1.76,1.76,0,0,1,1,.21A10.81,10.81,0,0,0,88,74Z"/></g><g id="djYGr2-2" class="cls-8"><path class="cls-6" d="M105.32,105.49l-1.5-2.64c-.5-.87-.92-1.73-1.4-2.58a.57.57,0,0,1,0-.79l.09-.06a18,18,0,0,0,3.75-4.26,15,15,0,0,0,.17-15.89,19.38,19.38,0,0,0-5.24-5.55,21.85,21.85,0,0,0-8.77-3.66,22.76,22.76,0,0,0-6.89-.3,23.85,23.85,0,0,0-7.24,1.91,20.88,20.88,0,0,0-5,3.07,17.21,17.21,0,0,0-4.73,6.13,14.73,14.73,0,0,0-1.13,8.61,16.32,16.32,0,0,0,5.84,9.9,21.68,21.68,0,0,0,9.08,4.47,24.28,24.28,0,0,0,7.16.64,36.18,36.18,0,0,0,3.71-.58c.56-.1,1.1-.31,1.66-.37a3.05,3.05,0,0,1,1.08.17c1.41.4,2.8.92,4.23,1.22a17.31,17.31,0,0,0,4.64.63Z"/></g></g></g></g></g></svg>