<svg xmlns="http://www.w3.org/2000/svg" width="26.888" height="29.881" viewBox="0 0 26.888 29.881">
  <g id="doc" transform="translate(0.25 0.79)">
    <g id="Grupo_39" data-name="Grupo 39" transform="translate(-105.423 -388.731)">
      <path id="Trazado_90" data-name="Trazado 90" d="M124.322,388.843l-14.08-.112a2.621,2.621,0,0,0-2.642,2.624l.022,23.112a2.621,2.621,0,0,0,2.612,2.619l16.667.058a2.621,2.621,0,0,0,2.63-2.613l.066-20.451" fill="none" stroke="#36c" stroke-linecap="round" stroke-linejoin="round" stroke-width="1.356"/>
      <path id="Trazado_91" data-name="Trazado 91" d="M124.637,388.9l5,5h-5.01v-5" fill="none" stroke="#36c" stroke-linecap="round" stroke-linejoin="round" stroke-width="1.356"/>
    </g>
    <rect id="Rectángulo_14" data-name="Rectángulo 14" width="26.388" height="8.627" rx="2.159" transform="translate(0 15.658)" fill="#fff" stroke="#36c" stroke-miterlimit="10" stroke-width="0.5"/>
    <text id="DOC-2" data-name="DOC" transform="translate(13.122 23.391)" fill="#36c" font-size="10.382" font-family="AntipastoPro, Antipasto Pro"><tspan x="-9.663" y="0">DOC</tspan></text>
    <line id="Línea_5" data-name="Línea 5" x2="12.975" transform="translate(6.369 7.73)" fill="#36c" stroke="#36c" stroke-linecap="round" stroke-linejoin="round" stroke-width="1"/>
    <line id="Línea_6" data-name="Línea 6" x2="4.584" transform="translate(12.777 5.494)" fill="#36c" stroke="#36c" stroke-linecap="round" stroke-linejoin="round" stroke-width="1"/>
    <line id="Línea_7" data-name="Línea 7" x2="4.584" transform="translate(12.859 3.13)" fill="#36c" stroke="#36c" stroke-linecap="round" stroke-linejoin="round" stroke-width="1"/>
    <line id="Línea_8" data-name="Línea 8" x2="12.975" transform="translate(6.369 10.351)" fill="#36c" stroke="#36c" stroke-linecap="round" stroke-linejoin="round" stroke-width="1"/>
    <line id="Línea_9" data-name="Línea 9" x2="12.975" transform="translate(6.369 13.095)" fill="#36c" stroke="#36c" stroke-linecap="round" stroke-linejoin="round" stroke-width="1"/>
    <path id="Trazado_92" data-name="Trazado 92" d="M117.02,391.344a.242.242,0,0,0-.137-.142.227.227,0,0,0-.194,0,.271.271,0,0,0-.142.139l-1.223,2.814-.51-1.176h0s-.05-.116-.207-.468-.282.029-.282.029l-.123.287h0l-.01.024h0l-.567,1.3-1.223-2.814a.262.262,0,0,0-.142-.141.229.229,0,0,0-.193,0,.253.253,0,0,0-.136.142.246.246,0,0,0,.007.2l1.453,3.29a.23.23,0,0,0,.048.077.228.228,0,0,0,.081.057.316.316,0,0,0,.121.02.274.274,0,0,0,.093-.02.227.227,0,0,0,.081-.061l.026-.035a.145.145,0,0,0,.022-.038l.614-1.389.613,1.389a.36.36,0,0,0,.045.073.219.219,0,0,0,.085.061.316.316,0,0,0,.121.02.269.269,0,0,0,.092-.02.292.292,0,0,0,.077-.061.252.252,0,0,0,.049-.073l1.453-3.286A.266.266,0,0,0,117.02,391.344Z" transform="translate(-105.423 -388.731)" fill="#36c"/>
  </g>
</svg>
