<svg xmlns="http://www.w3.org/2000/svg" width="26.888" height="29.794" viewBox="0 0 26.888 29.794">
  <g id="gif" transform="translate(0.25 0.703)">
    <path id="Trazado_133" data-name="Trazado 133" d="M66.217,87.994l-14.081-.112A2.62,2.62,0,0,0,49.494,90.5l.022,23.113a2.622,2.622,0,0,0,2.612,2.619l16.667.058a2.621,2.621,0,0,0,2.63-2.613l.067-20.451" transform="translate(-47.299 -87.882)" fill="none" stroke="#36c" stroke-linecap="round" stroke-linejoin="round" stroke-width="1.356"/>
    <path id="Trazado_134" data-name="Trazado 134" d="M66.493,88.138l5,5h-5.01v-5" transform="translate(-47.299 -87.882)" fill="none" stroke="#36c" stroke-linecap="round" stroke-linejoin="round" stroke-width="1.356"/>
    <rect id="Rectángulo_58" data-name="Rectángulo 58" width="26.388" height="8.627" rx="2.159" transform="translate(0 15.745)" fill="#fff" stroke="#36c" stroke-miterlimit="10" stroke-width="0.5"/>
    <text id="GIF-2" data-name="GIF" transform="translate(13.193 23.479)" fill="#36c" font-size="10.382" font-family="AntipastoPro, Antipasto Pro"><tspan x="-6.71" y="0">GIF</tspan></text>
    <g id="Grupo_71" data-name="Grupo 71" transform="translate(-47.299 -87.882)">
      <path id="Trazado_135" data-name="Trazado 135" d="M58.7,94.386l1.5-1.613a.251.251,0,0,1,.339-.008l1.735,1.666c.12.116.016.292-.17.289l-3.235-.053C58.694,94.664,58.6,94.5,58.7,94.386Z" fill="#36c"/>
      <path id="Trazado_136" data-name="Trazado 136" d="M58.071,95.9,60.1,94.32a.44.44,0,0,1,.46-.007L62.9,95.95c.162.113.022.286-.231.283L58.3,96.181C58.061,96.178,57.928,96.018,58.071,95.9Z" fill="#36c"/>
      <path id="Trazado_137" data-name="Trazado 137" d="M57.367,97.871l2.618-2.384a.5.5,0,0,1,.593-.011L63.6,97.938c.21.17.028.431-.3.426l-5.644-.078C57.354,98.282,57.182,98.04,57.367,97.871Z" fill="#36c"/>
    </g>
    <line id="Línea_48" data-name="Línea 48" y2="4.799" transform="translate(13.194 8.452)" fill="#f2f2f2" stroke="#36c" stroke-linecap="round" stroke-linejoin="round" stroke-width="1"/>
  </g>
</svg>
