<svg xmlns="http://www.w3.org/2000/svg" width="23.637" height="26.401" viewBox="0 0 23.637 26.401">
  <g id="pdf" transform="translate(0.25 0.811)">
    <g id="Grupo_78" data-name="Grupo 78" transform="translate(-72.499 -510.834)">
      <path id="Trazado_148" data-name="Trazado 148" d="M89.07,510.932l-12.346-.1a2.3,2.3,0,0,0-2.316,2.3l.019,20.265a2.3,2.3,0,0,0,2.29,2.3l14.613.051a2.3,2.3,0,0,0,2.306-2.291l.059-17.931" fill="none" stroke="#36c" stroke-linecap="round" stroke-linejoin="round" stroke-width="1.356"/>
      <path id="Trazado_149" data-name="Trazado 149" d="M89.345,510.982l4.382,4.383H89.336v-4.383" fill="none" stroke="#36c" stroke-linecap="round" stroke-linejoin="round" stroke-width="1.356"/>
    </g>
    <rect id="Rectángulo_65" data-name="Rectángulo 65" width="23.137" height="7.564" rx="1.893" transform="translate(0 13.729)" fill="#fff" stroke="#36c" stroke-miterlimit="10" stroke-width="0.5"/>
    <text id="PDF-2" data-name="PDF" transform="translate(11.569 20.51)" fill="#36c" font-size="9.103" font-family="AntipastoPro, Antipasto Pro"><tspan x="-6.65" y="0">PDF</tspan></text>
    <rect id="Rectángulo_66" data-name="Rectángulo 66" width="3.931" height="2.52" transform="translate(6.328 2.78)" stroke-width="1.356" stroke="#36c" stroke-linecap="round" stroke-linejoin="round" fill="none"/>
    <line id="Línea_49" data-name="Línea 49" x2="11.376" transform="translate(5.88 7.395)" fill="#36c" stroke="#36c" stroke-linecap="round" stroke-linejoin="round" stroke-width="1"/>
    <line id="Línea_50" data-name="Línea 50" x2="11.376" transform="translate(5.88 9.693)" fill="#36c" stroke="#36c" stroke-linecap="round" stroke-linejoin="round" stroke-width="1"/>
    <line id="Línea_51" data-name="Línea 51" x2="11.376" transform="translate(5.88 12.099)" fill="#36c" stroke="#36c" stroke-linecap="round" stroke-linejoin="round" stroke-width="1"/>
  </g>
</svg>
