<svg xmlns="http://www.w3.org/2000/svg" width="26.888" height="29.881" viewBox="0 0 26.888 29.881">
  <g id="ppt" transform="translate(0.25 0.79)">
    <g id="Grupo_35" data-name="Grupo 35" transform="translate(-105.423 -288.448)">
      <path id="Trazado_85" data-name="Trazado 85" d="M124.322,288.56l-14.08-.112a2.62,2.62,0,0,0-2.642,2.623l.022,23.113a2.621,2.621,0,0,0,2.612,2.619l16.667.058a2.621,2.621,0,0,0,2.63-2.613L129.6,293.8" fill="none" stroke="#36c" stroke-linecap="round" stroke-linejoin="round" stroke-width="1.356"/>
      <path id="Trazado_86" data-name="Trazado 86" d="M124.637,288.617l5,5h-5.01v-5" fill="none" stroke="#36c" stroke-linecap="round" stroke-linejoin="round" stroke-width="1.356"/>
    </g>
    <rect id="Rectángulo_9" data-name="Rectángulo 9" width="26.388" height="8.627" rx="2.159" transform="translate(0 15.658)" fill="#fff" stroke="#36c" stroke-miterlimit="10" stroke-width="0.5"/>
    <text id="PPT-2" data-name="PPT" transform="translate(13.194 23.391)" fill="#36c" font-size="10.382" font-family="AntipastoPro, Antipasto Pro"><tspan x="-7.322" y="0">PPT</tspan></text>
    <circle id="Elipse_6" data-name="Elipse 6" cx="3.32" cy="3.32" r="3.32" transform="translate(9.826 4.208)" stroke-width="1" stroke="#36c" stroke-linecap="round" stroke-linejoin="round" fill="#36c"/>
    <path id="Trazado_87" data-name="Trazado 87" d="M120.452,295.617l3.006,5.462-6.4-.041,3.327-5.485" transform="translate(-105.423 -288.448)" fill="#f2f2f2" stroke="#36c" stroke-linecap="round" stroke-linejoin="round" stroke-width="0.5"/>
  </g>
</svg>
