<svg xmlns="http://www.w3.org/2000/svg" viewBox="0 0 24.02 24.02"><defs><style>.cls-1{fill:none;stroke:#ccc;stroke-miterlimit:10;stroke-width:2px;}.cls-2{fill:#ccc;}</style></defs><g id="Capa_2" data-name="Capa 2"><g id="Capa_1-2" data-name="Capa 1"><circle class="cls-1" cx="12.01" cy="12.01" r="11.01"/><g id="_1qDc7m.tif" data-name="1qDc7m.tif"><path class="cls-2" d="M6.32,14.9V9.13a3.27,3.27,0,0,1,.32-1.05A3,3,0,0,1,9.36,6.34c1.76,0,3.52,0,5.29,0a3,3,0,0,1,.87.15,3.15,3.15,0,0,1,2.17,3c0,1.67,0,3.35,0,5a3.17,3.17,0,0,1,0,.44,3.13,3.13,0,0,1-1.76,2.42,3.35,3.35,0,0,1-1,.31H9.12l-.19,0A3.11,3.11,0,0,1,6.65,16,3.46,3.46,0,0,1,6.32,14.9ZM16.65,12h0V9.55a3.22,3.22,0,0,0,0-.43,2.09,2.09,0,0,0-2-1.75H9.41l-.3,0a2.11,2.11,0,0,0-1.76,2c0,1.74,0,3.49,0,5.23,0,.1,0,.2,0,.3a2.12,2.12,0,0,0,2,1.76H14.6a1.53,1.53,0,0,0,.3,0,2.09,2.09,0,0,0,1.75-2C16.66,13.78,16.65,12.9,16.65,12Z"/><path class="cls-2" d="M14.94,12A2.94,2.94,0,1,1,12,9.08,2.94,2.94,0,0,1,14.94,12ZM10.1,12A1.9,1.9,0,1,0,12,10.11,1.9,1.9,0,0,0,10.1,12Z"/><path class="cls-2" d="M15.05,9.72A.74.74,0,0,1,14.3,9a.75.75,0,1,1,1.5,0A.75.75,0,0,1,15.05,9.72Z"/></g></g></g></svg>