<svg xmlns="http://www.w3.org/2000/svg" viewBox="0 0 23.67 26.54"><defs><style>.cls-1{fill:#fff;}</style></defs><g id="Capa_2" data-name="Capa 2"><g id="Capa_1-2" data-name="Capa 1"><path class="cls-1" d="M16.05,26.54a9.37,9.37,0,0,1-7.46-4c-.8-1.23-1.68-2.45-2.52-3.62l-1-1.4a1,1,0,0,1,.19-1.36,2.44,2.44,0,0,1,3.26.05A19.3,19.3,0,0,0,10,17.63a.49.49,0,0,1,.06.7.49.49,0,0,1-.7.07A19.62,19.62,0,0,1,7.8,16.9a1.44,1.44,0,0,0-1.91,0l1,1.39c.85,1.19,1.73,2.41,2.55,3.66,1.72,2.61,5.72,4.47,9,3.08,2.39-1,4.63-3.72,4.24-6.42a9.18,9.18,0,0,0-.81-2.36c-.15-.34-.31-.69-.44-1h0l-1-2.48c0-.06-.33-.53-1.16-.22s-.78.7-.71.93l-.95.3.48-.14-.49.13c-.3-1,.18-1.75,1.33-2.17a1.84,1.84,0,0,1,2.42.77l1,2.51c.13.34.27.67.42,1a10,10,0,0,1,.89,2.62c.47,3.29-2.14,6.31-4.83,7.48A6.88,6.88,0,0,1,16.05,26.54Z" transform="translate(0)"/><path class="cls-1" d="M10.49,20.12A.48.48,0,0,1,10,19.8L5.81,9a2.08,2.08,0,0,1,.05-1.51A2.17,2.17,0,0,1,7.18,6.34a2.14,2.14,0,0,1,1.8,0,1.5,1.5,0,0,1,.69.93l3.18,8.16a.5.5,0,1,1-.94.36L8.71,7.57a.53.53,0,0,0-.24-.35,1.24,1.24,0,0,0-1,.06,1.29,1.29,0,0,0-.75.58,1.12,1.12,0,0,0,0,.75L11,19.44a.5.5,0,0,1-.29.65A.57.57,0,0,1,10.49,20.12Z" transform="translate(0)"/><path class="cls-1" d="M15.27,15.37a.48.48,0,0,1-.46-.32l-1.17-3c0-.06-.33-.52-1.17-.22s-.78.7-.71.93l-.95.31c-.3-1,.17-1.77,1.32-2.18a1.82,1.82,0,0,1,2.42.77l1.19,3a.5.5,0,0,1-.29.65A.52.52,0,0,1,15.27,15.37Z" transform="translate(0)"/><path class="cls-1" d="M18.4,15a.51.51,0,0,1-.47-.32l-1-2.48c0-.06-.33-.52-1.17-.22s-.78.7-.71.93l-.95.31c-.3-1,.17-1.77,1.32-2.18a1.83,1.83,0,0,1,2.42.77l1,2.51a.5.5,0,0,1-.28.64A.39.39,0,0,1,18.4,15Z" transform="translate(0)"/><path class="cls-1" d="M6.46,5.51A.51.51,0,0,1,6,5.18C5.9,5,4.85,2.88,4.21,1.62A.49.49,0,0,1,4.43,1a.5.5,0,0,1,.67.22c.66,1.28,1.77,3.46,1.84,3.68a.51.51,0,0,1-.32.63A.41.41,0,0,1,6.46,5.51Z" transform="translate(0)"/><path class="cls-1" d="M4.84,6.88a.52.52,0,0,1-.29-.09C4.34,6.66,2.29,5.58,1,4.93a.5.5,0,0,1-.21-.67.49.49,0,0,1,.67-.21C2.78,4.71,5,5.84,5.13,6a.5.5,0,0,1-.29.9Z" transform="translate(0)"/><path class="cls-1" d="M8.51,5H8.4A.49.49,0,0,1,8,4.43c0-.24.2-2.56.29-4A.48.48,0,0,1,8.84,0a.5.5,0,0,1,.47.53C9.21,2,9.05,4.41,9,4.64A.5.5,0,0,1,8.51,5Z" transform="translate(0)"/><path class="cls-1" d="M10.29,6.1A.51.51,0,0,1,9.93,6a.5.5,0,0,1,0-.7c.17-.18,1.57-2,2.43-3.14a.49.49,0,0,1,.7-.1.5.5,0,0,1,.09.7C12.28,3.86,10.8,5.8,10.63,6A.45.45,0,0,1,10.29,6.1Z" transform="translate(0)"/><path class="cls-1" d="M4.54,8.94H4.47c-.25,0-2.56,0-4,0a.5.5,0,0,1-.5-.5.5.5,0,0,1,.5-.5h0c1.44,0,3.89,0,4.12.06a.5.5,0,0,1-.08,1Z" transform="translate(0)"/></g></g></svg>