<svg xmlns="http://www.w3.org/2000/svg" viewBox="0 0 38.42 24.48"><defs><style>.cls-1{fill:none;stroke:#4169af;stroke-linecap:round;stroke-linejoin:round;}</style></defs><g id="Capa_2" data-name="Capa 2"><g id="Capa_1-2" data-name="Capa 1"><rect class="cls-1" x="0.5" y="3.2" width="6.55" height="18.74" rx="0.24"/><path class="cls-1" d="M7.19,3.64S10,.7,11.67.56s9.66,0,9.66,0,2.59,1.05,2.73,2.8" transform="translate(0 0)"/><path class="cls-1" d="M16.5,3.92h19a2.45,2.45,0,0,1,2.38,2.8c-.07,2.8-2,2.45-2,2.45H21.47" transform="translate(0 0)"/><path class="cls-1" d="M20.91,14h5.3s1.78-.12,1.85-2.44-1.38-2.44-1.79-2.48" transform="translate(0 0)"/><path class="cls-1" d="M19.65,19H24s1.79-.12,1.85-2.44-1.38-2.44-1.78-2.47" transform="translate(0 0)"/><path class="cls-1" d="M21.12,19c.41,0,1.85.09,1.79,2.48S21.06,24,21.06,24H16.7c-1.39,0-2.78,0-4.17,0a6.56,6.56,0,0,1-3.14-.49A9.49,9.49,0,0,1,7,21.76" transform="translate(0 0)"/></g></g></svg>